G04 #@! TF.FileFunction,Soldermask,Top*
%FSLAX46Y46*%
G04 Gerber Fmt 4.6, Leading zero omitted, Abs format (unit mm)*
G04 Created by KiCad (PCBNEW 4.0.0-2.201512072331+6194~38~ubuntu14.04.1-stable) date Mon 13 Jun 2016 09:22:46 PM CEST*
%MOMM*%
G01*
G04 APERTURE LIST*
%ADD10C,0.100000*%
%ADD11R,1.500000X1.300000*%
%ADD12R,2.235200X2.235200*%
%ADD13C,3.048000*%
%ADD14R,2.108200X2.108200*%
%ADD15C,3.200000*%
%ADD16R,1.300000X1.300000*%
%ADD17C,1.300000*%
%ADD18R,1.300000X1.500000*%
%ADD19R,1.250000X1.500000*%
%ADD20R,0.600000X1.550000*%
%ADD21R,1.500000X1.250000*%
%ADD22R,2.000000X1.600000*%
%ADD23C,1.524000*%
%ADD24R,1.198880X1.198880*%
%ADD25R,0.700000X0.600000*%
%ADD26R,0.800100X0.800100*%
%ADD27R,2.032000X2.032000*%
%ADD28O,2.032000X2.032000*%
%ADD29R,3.500000X3.500000*%
%ADD30O,2.499360X1.501140*%
%ADD31C,3.799840*%
G04 APERTURE END LIST*
D10*
D11*
X144065000Y-94742000D03*
X146765000Y-94742000D03*
D12*
X171958000Y-109728000D03*
D13*
X138049000Y-76113000D03*
X138049000Y-81113000D03*
D14*
X190969900Y-78625700D03*
X190969900Y-87744300D03*
X186474100Y-78625700D03*
X186474100Y-87744300D03*
D15*
X192532000Y-113030000D03*
D16*
X171831000Y-75692000D03*
D17*
X171831000Y-70692000D03*
D15*
X133604000Y-70866000D03*
D18*
X160528000Y-97997000D03*
X160528000Y-95297000D03*
D19*
X183007000Y-94254000D03*
X183007000Y-96754000D03*
D15*
X192532000Y-70866000D03*
D19*
X164465000Y-75458000D03*
X164465000Y-77958000D03*
D20*
X179705000Y-104681000D03*
X180975000Y-104681000D03*
X182245000Y-104681000D03*
X183515000Y-104681000D03*
X183515000Y-99281000D03*
X182245000Y-99281000D03*
X180975000Y-99281000D03*
X179705000Y-99281000D03*
D19*
X155448000Y-88372000D03*
X155448000Y-85872000D03*
D16*
X161544000Y-70739000D03*
D17*
X159544000Y-70739000D03*
D21*
X174478000Y-106426000D03*
X171978000Y-106426000D03*
D19*
X153162000Y-91841000D03*
X153162000Y-94341000D03*
X155829000Y-91841000D03*
X155829000Y-94341000D03*
D16*
X167513000Y-97155000D03*
D17*
X167513000Y-99155000D03*
D22*
X180181000Y-94361000D03*
X176181000Y-94361000D03*
D23*
X151093898Y-78232000D03*
X154686000Y-74639898D03*
X158278102Y-78232000D03*
X154686000Y-81824102D03*
D24*
X190212980Y-107188000D03*
X192311020Y-107188000D03*
D25*
X157988000Y-91375000D03*
X157988000Y-92775000D03*
D24*
X190212980Y-101092000D03*
X192311020Y-101092000D03*
D25*
X149225000Y-93280000D03*
X149225000Y-94680000D03*
D13*
X138049000Y-102910000D03*
X138049000Y-107910000D03*
D26*
X155717240Y-97856000D03*
X155717240Y-99756000D03*
X157716220Y-98806000D03*
D11*
X193577200Y-104343200D03*
X190877200Y-104343200D03*
X171624000Y-104140000D03*
X174324000Y-104140000D03*
X177720000Y-96774000D03*
X180420000Y-96774000D03*
X157273000Y-102108000D03*
X159973000Y-102108000D03*
X189658000Y-97155000D03*
X192358000Y-97155000D03*
X146765000Y-92202000D03*
X144065000Y-92202000D03*
D18*
X162941000Y-95297000D03*
X162941000Y-97997000D03*
D27*
X144526000Y-76860400D03*
D28*
X147066000Y-76860400D03*
D15*
X133604000Y-113030000D03*
D13*
X138049000Y-87035000D03*
X138049000Y-92035000D03*
X138049000Y-97035000D03*
D29*
X151739600Y-86106000D03*
X144932400Y-86106000D03*
D12*
X146812000Y-101981000D03*
X146507200Y-70053200D03*
X150164800Y-70053200D03*
X179832000Y-109728000D03*
X150876000Y-101981000D03*
X142595600Y-70053200D03*
D11*
X162975300Y-109766100D03*
X165675300Y-109766100D03*
D18*
X158457900Y-109820700D03*
X158457900Y-107120700D03*
X143903700Y-106930200D03*
X143903700Y-109630200D03*
X155452200Y-109429000D03*
X155452200Y-106979000D03*
X146452200Y-106979000D03*
X146452200Y-109429000D03*
D30*
X158750000Y-85979000D03*
X158750000Y-83439000D03*
X158750000Y-88519000D03*
D31*
X175514000Y-85979000D03*
M02*
