G04 #@! TF.FileFunction,Copper,L2,Bot,Signal*
%FSLAX46Y46*%
G04 Gerber Fmt 4.6, Leading zero omitted, Abs format (unit mm)*
G04 Created by KiCad (PCBNEW 4.0.0-2.201512072331+6194~38~ubuntu14.04.1-stable) date Mon 06 Jun 2016 10:48:40 PM CEST*
%MOMM*%
G01*
G04 APERTURE LIST*
%ADD10C,0.100000*%
%ADD11C,3.048000*%
%ADD12R,1.300000X1.300000*%
%ADD13C,1.300000*%
%ADD14C,1.524000*%
%ADD15R,2.032000X2.032000*%
%ADD16O,2.032000X2.032000*%
%ADD17O,2.499360X1.501140*%
%ADD18C,0.685800*%
%ADD19C,0.152400*%
G04 APERTURE END LIST*
D10*
D11*
X138049000Y-76113000D03*
X138049000Y-81113000D03*
D12*
X164211000Y-84582000D03*
D13*
X164211000Y-89582000D03*
D12*
X159512000Y-70993000D03*
D13*
X157512000Y-70993000D03*
D12*
X165989000Y-98171000D03*
D13*
X165989000Y-100171000D03*
D14*
X151093898Y-78232000D03*
X154686000Y-74639898D03*
X158278102Y-78232000D03*
X154686000Y-81824102D03*
D11*
X138049000Y-102910000D03*
X138049000Y-107910000D03*
D14*
X146685000Y-107823000D03*
X151765000Y-107823000D03*
X156845000Y-107823000D03*
X161925000Y-107823000D03*
D15*
X144272000Y-75311000D03*
D16*
X146812000Y-75311000D03*
D11*
X138049000Y-87035000D03*
X138049000Y-92035000D03*
X138049000Y-97035000D03*
D17*
X165354000Y-74803000D03*
X165354000Y-72263000D03*
X165354000Y-77343000D03*
D18*
X144018000Y-96520000D03*
X160655000Y-100330000D03*
X184658000Y-108712000D03*
X172466000Y-102108000D03*
X183134000Y-101600000D03*
X175514000Y-93980000D03*
X178816000Y-88138000D03*
D19*
G36*
X195657400Y-116155400D02*
X130478600Y-116155400D01*
X130478600Y-113392135D01*
X131775084Y-113392135D01*
X132052885Y-114064465D01*
X132566829Y-114579307D01*
X133238673Y-114858282D01*
X133966135Y-114858916D01*
X134638465Y-114581115D01*
X135153307Y-114067171D01*
X135432282Y-113395327D01*
X135432284Y-113392135D01*
X190703084Y-113392135D01*
X190980885Y-114064465D01*
X191494829Y-114579307D01*
X192166673Y-114858282D01*
X192894135Y-114858916D01*
X193566465Y-114581115D01*
X194081307Y-114067171D01*
X194360282Y-113395327D01*
X194360916Y-112667865D01*
X194083115Y-111995535D01*
X193569171Y-111480693D01*
X192897327Y-111201718D01*
X192169865Y-111201084D01*
X191497535Y-111478885D01*
X190982693Y-111992829D01*
X190703718Y-112664673D01*
X190703084Y-113392135D01*
X135432284Y-113392135D01*
X135432916Y-112667865D01*
X135155115Y-111995535D01*
X134641171Y-111480693D01*
X133969327Y-111201718D01*
X133241865Y-111201084D01*
X132569535Y-111478885D01*
X132054693Y-111992829D01*
X131775718Y-112664673D01*
X131775084Y-113392135D01*
X130478600Y-113392135D01*
X130478600Y-108257084D01*
X136296097Y-108257084D01*
X136562352Y-108901471D01*
X137054936Y-109394915D01*
X137698857Y-109662295D01*
X138396084Y-109662903D01*
X139040471Y-109396648D01*
X139533915Y-108904064D01*
X139801295Y-108260143D01*
X139801505Y-108019178D01*
X145694228Y-108019178D01*
X145844721Y-108383397D01*
X146123138Y-108662300D01*
X146487093Y-108813428D01*
X146881178Y-108813772D01*
X147245397Y-108663279D01*
X147524300Y-108384862D01*
X147675428Y-108020907D01*
X147675429Y-108019178D01*
X150774228Y-108019178D01*
X150924721Y-108383397D01*
X151203138Y-108662300D01*
X151567093Y-108813428D01*
X151961178Y-108813772D01*
X152325397Y-108663279D01*
X152604300Y-108384862D01*
X152755428Y-108020907D01*
X152755429Y-108019178D01*
X155854228Y-108019178D01*
X156004721Y-108383397D01*
X156283138Y-108662300D01*
X156647093Y-108813428D01*
X157041178Y-108813772D01*
X157405397Y-108663279D01*
X157684300Y-108384862D01*
X157835428Y-108020907D01*
X157835429Y-108019178D01*
X160934228Y-108019178D01*
X161084721Y-108383397D01*
X161363138Y-108662300D01*
X161727093Y-108813428D01*
X162121178Y-108813772D01*
X162485397Y-108663279D01*
X162764300Y-108384862D01*
X162915428Y-108020907D01*
X162915772Y-107626822D01*
X162765279Y-107262603D01*
X162486862Y-106983700D01*
X162122907Y-106832572D01*
X161728822Y-106832228D01*
X161364603Y-106982721D01*
X161085700Y-107261138D01*
X160934572Y-107625093D01*
X160934228Y-108019178D01*
X157835429Y-108019178D01*
X157835772Y-107626822D01*
X157685279Y-107262603D01*
X157406862Y-106983700D01*
X157042907Y-106832572D01*
X156648822Y-106832228D01*
X156284603Y-106982721D01*
X156005700Y-107261138D01*
X155854572Y-107625093D01*
X155854228Y-108019178D01*
X152755429Y-108019178D01*
X152755772Y-107626822D01*
X152605279Y-107262603D01*
X152326862Y-106983700D01*
X151962907Y-106832572D01*
X151568822Y-106832228D01*
X151204603Y-106982721D01*
X150925700Y-107261138D01*
X150774572Y-107625093D01*
X150774228Y-108019178D01*
X147675429Y-108019178D01*
X147675772Y-107626822D01*
X147525279Y-107262603D01*
X147246862Y-106983700D01*
X146882907Y-106832572D01*
X146488822Y-106832228D01*
X146124603Y-106982721D01*
X145845700Y-107261138D01*
X145694572Y-107625093D01*
X145694228Y-108019178D01*
X139801505Y-108019178D01*
X139801903Y-107562916D01*
X139535648Y-106918529D01*
X139043064Y-106425085D01*
X138399143Y-106157705D01*
X137701916Y-106157097D01*
X137057529Y-106423352D01*
X136564085Y-106915936D01*
X136296705Y-107559857D01*
X136296097Y-108257084D01*
X130478600Y-108257084D01*
X130478600Y-103257084D01*
X136296097Y-103257084D01*
X136562352Y-103901471D01*
X137054936Y-104394915D01*
X137698857Y-104662295D01*
X138396084Y-104662903D01*
X139040471Y-104396648D01*
X139533915Y-103904064D01*
X139801295Y-103260143D01*
X139801903Y-102562916D01*
X139535648Y-101918529D01*
X139043064Y-101425085D01*
X138399143Y-101157705D01*
X137701916Y-101157097D01*
X137057529Y-101423352D01*
X136564085Y-101915936D01*
X136296705Y-102559857D01*
X136296097Y-103257084D01*
X130478600Y-103257084D01*
X130478600Y-100344998D01*
X165110248Y-100344998D01*
X165243725Y-100668037D01*
X165490663Y-100915407D01*
X165813469Y-101049447D01*
X166162998Y-101049752D01*
X166486037Y-100916275D01*
X166733407Y-100669337D01*
X166867447Y-100346531D01*
X166867752Y-99997002D01*
X166734275Y-99673963D01*
X166487337Y-99426593D01*
X166164531Y-99292553D01*
X165815002Y-99292248D01*
X165491963Y-99425725D01*
X165244593Y-99672663D01*
X165110553Y-99995469D01*
X165110248Y-100344998D01*
X130478600Y-100344998D01*
X130478600Y-97382084D01*
X136296097Y-97382084D01*
X136562352Y-98026471D01*
X137054936Y-98519915D01*
X137698857Y-98787295D01*
X138396084Y-98787903D01*
X139040471Y-98521648D01*
X139533915Y-98029064D01*
X139744882Y-97521000D01*
X165105922Y-97521000D01*
X165105922Y-98821000D01*
X165121862Y-98905714D01*
X165171928Y-98983518D01*
X165248320Y-99035715D01*
X165339000Y-99054078D01*
X166639000Y-99054078D01*
X166723714Y-99038138D01*
X166801518Y-98988072D01*
X166853715Y-98911680D01*
X166872078Y-98821000D01*
X166872078Y-97521000D01*
X166856138Y-97436286D01*
X166806072Y-97358482D01*
X166729680Y-97306285D01*
X166639000Y-97287922D01*
X165339000Y-97287922D01*
X165254286Y-97303862D01*
X165176482Y-97353928D01*
X165124285Y-97430320D01*
X165105922Y-97521000D01*
X139744882Y-97521000D01*
X139801295Y-97385143D01*
X139801903Y-96687916D01*
X139535648Y-96043529D01*
X139043064Y-95550085D01*
X138399143Y-95282705D01*
X137701916Y-95282097D01*
X137057529Y-95548352D01*
X136564085Y-96040936D01*
X136296705Y-96684857D01*
X136296097Y-97382084D01*
X130478600Y-97382084D01*
X130478600Y-92382084D01*
X136296097Y-92382084D01*
X136562352Y-93026471D01*
X137054936Y-93519915D01*
X137698857Y-93787295D01*
X138396084Y-93787903D01*
X139040471Y-93521648D01*
X139533915Y-93029064D01*
X139801295Y-92385143D01*
X139801903Y-91687916D01*
X139535648Y-91043529D01*
X139043064Y-90550085D01*
X138399143Y-90282705D01*
X137701916Y-90282097D01*
X137057529Y-90548352D01*
X136564085Y-91040936D01*
X136296705Y-91684857D01*
X136296097Y-92382084D01*
X130478600Y-92382084D01*
X130478600Y-89755998D01*
X163332248Y-89755998D01*
X163465725Y-90079037D01*
X163712663Y-90326407D01*
X164035469Y-90460447D01*
X164384998Y-90460752D01*
X164708037Y-90327275D01*
X164955407Y-90080337D01*
X165089447Y-89757531D01*
X165089752Y-89408002D01*
X164956275Y-89084963D01*
X164709337Y-88837593D01*
X164386531Y-88703553D01*
X164037002Y-88703248D01*
X163713963Y-88836725D01*
X163466593Y-89083663D01*
X163332553Y-89406469D01*
X163332248Y-89755998D01*
X130478600Y-89755998D01*
X130478600Y-87382084D01*
X136296097Y-87382084D01*
X136562352Y-88026471D01*
X137054936Y-88519915D01*
X137698857Y-88787295D01*
X138396084Y-88787903D01*
X139040471Y-88521648D01*
X139533915Y-88029064D01*
X139801295Y-87385143D01*
X139801903Y-86687916D01*
X139535648Y-86043529D01*
X139043064Y-85550085D01*
X138399143Y-85282705D01*
X137701916Y-85282097D01*
X137057529Y-85548352D01*
X136564085Y-86040936D01*
X136296705Y-86684857D01*
X136296097Y-87382084D01*
X130478600Y-87382084D01*
X130478600Y-83932000D01*
X163327922Y-83932000D01*
X163327922Y-85232000D01*
X163343862Y-85316714D01*
X163393928Y-85394518D01*
X163470320Y-85446715D01*
X163561000Y-85465078D01*
X164861000Y-85465078D01*
X164945714Y-85449138D01*
X165023518Y-85399072D01*
X165075715Y-85322680D01*
X165094078Y-85232000D01*
X165094078Y-83932000D01*
X165078138Y-83847286D01*
X165028072Y-83769482D01*
X164951680Y-83717285D01*
X164861000Y-83698922D01*
X163561000Y-83698922D01*
X163476286Y-83714862D01*
X163398482Y-83764928D01*
X163346285Y-83841320D01*
X163327922Y-83932000D01*
X130478600Y-83932000D01*
X130478600Y-81460084D01*
X136296097Y-81460084D01*
X136562352Y-82104471D01*
X137054936Y-82597915D01*
X137698857Y-82865295D01*
X138396084Y-82865903D01*
X139040471Y-82599648D01*
X139533915Y-82107064D01*
X139569950Y-82020280D01*
X153695228Y-82020280D01*
X153845721Y-82384499D01*
X154124138Y-82663402D01*
X154488093Y-82814530D01*
X154882178Y-82814874D01*
X155246397Y-82664381D01*
X155525300Y-82385964D01*
X155676428Y-82022009D01*
X155676772Y-81627924D01*
X155526279Y-81263705D01*
X155247862Y-80984802D01*
X154883907Y-80833674D01*
X154489822Y-80833330D01*
X154125603Y-80983823D01*
X153846700Y-81262240D01*
X153695572Y-81626195D01*
X153695228Y-82020280D01*
X139569950Y-82020280D01*
X139801295Y-81463143D01*
X139801903Y-80765916D01*
X139535648Y-80121529D01*
X139043064Y-79628085D01*
X138399143Y-79360705D01*
X137701916Y-79360097D01*
X137057529Y-79626352D01*
X136564085Y-80118936D01*
X136296705Y-80762857D01*
X136296097Y-81460084D01*
X130478600Y-81460084D01*
X130478600Y-78428178D01*
X150103126Y-78428178D01*
X150253619Y-78792397D01*
X150532036Y-79071300D01*
X150895991Y-79222428D01*
X151290076Y-79222772D01*
X151654295Y-79072279D01*
X151933198Y-78793862D01*
X152084326Y-78429907D01*
X152084327Y-78428178D01*
X157287330Y-78428178D01*
X157437823Y-78792397D01*
X157716240Y-79071300D01*
X158080195Y-79222428D01*
X158474280Y-79222772D01*
X158838499Y-79072279D01*
X159117402Y-78793862D01*
X159268530Y-78429907D01*
X159268874Y-78035822D01*
X159140674Y-77725554D01*
X163576116Y-77725554D01*
X163785341Y-78161102D01*
X164179830Y-78508126D01*
X164677090Y-78677770D01*
X165176200Y-78677770D01*
X165176200Y-77520800D01*
X165531800Y-77520800D01*
X165531800Y-78677770D01*
X166030910Y-78677770D01*
X166528170Y-78508126D01*
X166922659Y-78161102D01*
X167131884Y-77725554D01*
X167028458Y-77520800D01*
X165531800Y-77520800D01*
X165176200Y-77520800D01*
X163679542Y-77520800D01*
X163576116Y-77725554D01*
X159140674Y-77725554D01*
X159118381Y-77671603D01*
X158839964Y-77392700D01*
X158476009Y-77241572D01*
X158081924Y-77241228D01*
X157717705Y-77391721D01*
X157438802Y-77670138D01*
X157287674Y-78034093D01*
X157287330Y-78428178D01*
X152084327Y-78428178D01*
X152084670Y-78035822D01*
X151934177Y-77671603D01*
X151655760Y-77392700D01*
X151291805Y-77241572D01*
X150897720Y-77241228D01*
X150533501Y-77391721D01*
X150254598Y-77670138D01*
X150103470Y-78034093D01*
X150103126Y-78428178D01*
X130478600Y-78428178D01*
X130478600Y-76460084D01*
X136296097Y-76460084D01*
X136562352Y-77104471D01*
X137054936Y-77597915D01*
X137698857Y-77865295D01*
X138396084Y-77865903D01*
X139040471Y-77599648D01*
X139533915Y-77107064D01*
X139594796Y-76960446D01*
X163576116Y-76960446D01*
X163679542Y-77165200D01*
X165176200Y-77165200D01*
X165176200Y-76008230D01*
X165531800Y-76008230D01*
X165531800Y-77165200D01*
X167028458Y-77165200D01*
X167131884Y-76960446D01*
X166922659Y-76524898D01*
X166528170Y-76177874D01*
X166030910Y-76008230D01*
X165531800Y-76008230D01*
X165176200Y-76008230D01*
X164677090Y-76008230D01*
X164179830Y-76177874D01*
X163785341Y-76524898D01*
X163576116Y-76960446D01*
X139594796Y-76960446D01*
X139801295Y-76463143D01*
X139801903Y-75765916D01*
X139535648Y-75121529D01*
X139043064Y-74628085D01*
X138399143Y-74360705D01*
X137701916Y-74360097D01*
X137057529Y-74626352D01*
X136564085Y-75118936D01*
X136296705Y-75762857D01*
X136296097Y-76460084D01*
X130478600Y-76460084D01*
X130478600Y-74295000D01*
X143022922Y-74295000D01*
X143022922Y-76327000D01*
X143038862Y-76411714D01*
X143088928Y-76489518D01*
X143165320Y-76541715D01*
X143256000Y-76560078D01*
X145288000Y-76560078D01*
X145372714Y-76544138D01*
X145450518Y-76494072D01*
X145502715Y-76417680D01*
X145521078Y-76327000D01*
X145521078Y-75286617D01*
X145567400Y-75286617D01*
X145567400Y-75335383D01*
X145662140Y-75811671D01*
X145931935Y-76215448D01*
X146335712Y-76485243D01*
X146812000Y-76579983D01*
X147288288Y-76485243D01*
X147692065Y-76215448D01*
X147961860Y-75811671D01*
X148056600Y-75335383D01*
X148056600Y-75286617D01*
X147966982Y-74836076D01*
X153695228Y-74836076D01*
X153845721Y-75200295D01*
X154124138Y-75479198D01*
X154488093Y-75630326D01*
X154882178Y-75630670D01*
X155246397Y-75480177D01*
X155525300Y-75201760D01*
X155676428Y-74837805D01*
X155676458Y-74803000D01*
X163846759Y-74803000D01*
X163921294Y-75177712D01*
X164133551Y-75495378D01*
X164451217Y-75707635D01*
X164825929Y-75782170D01*
X165882071Y-75782170D01*
X166256783Y-75707635D01*
X166574449Y-75495378D01*
X166670723Y-75351292D01*
X179348921Y-75351292D01*
X179769527Y-76369237D01*
X180547666Y-77148736D01*
X181564875Y-77571118D01*
X182666292Y-77572079D01*
X183684237Y-77151473D01*
X184463736Y-76373334D01*
X184886118Y-75356125D01*
X184887079Y-74254708D01*
X184466473Y-73236763D01*
X183688334Y-72457264D01*
X182671125Y-72034882D01*
X181569708Y-72033921D01*
X180551763Y-72454527D01*
X179772264Y-73232666D01*
X179349882Y-74249875D01*
X179348921Y-75351292D01*
X166670723Y-75351292D01*
X166786706Y-75177712D01*
X166861241Y-74803000D01*
X166786706Y-74428288D01*
X166574449Y-74110622D01*
X166256783Y-73898365D01*
X165882071Y-73823830D01*
X164825929Y-73823830D01*
X164451217Y-73898365D01*
X164133551Y-74110622D01*
X163921294Y-74428288D01*
X163846759Y-74803000D01*
X155676458Y-74803000D01*
X155676772Y-74443720D01*
X155526279Y-74079501D01*
X155247862Y-73800598D01*
X154883907Y-73649470D01*
X154489822Y-73649126D01*
X154125603Y-73799619D01*
X153846700Y-74078036D01*
X153695572Y-74441991D01*
X153695228Y-74836076D01*
X147966982Y-74836076D01*
X147961860Y-74810329D01*
X147692065Y-74406552D01*
X147288288Y-74136757D01*
X146812000Y-74042017D01*
X146335712Y-74136757D01*
X145931935Y-74406552D01*
X145662140Y-74810329D01*
X145567400Y-75286617D01*
X145521078Y-75286617D01*
X145521078Y-74295000D01*
X145505138Y-74210286D01*
X145455072Y-74132482D01*
X145378680Y-74080285D01*
X145288000Y-74061922D01*
X143256000Y-74061922D01*
X143171286Y-74077862D01*
X143093482Y-74127928D01*
X143041285Y-74204320D01*
X143022922Y-74295000D01*
X130478600Y-74295000D01*
X130478600Y-71228135D01*
X131775084Y-71228135D01*
X132052885Y-71900465D01*
X132566829Y-72415307D01*
X133238673Y-72694282D01*
X133966135Y-72694916D01*
X134638465Y-72417115D01*
X134792849Y-72263000D01*
X163846759Y-72263000D01*
X163921294Y-72637712D01*
X164133551Y-72955378D01*
X164451217Y-73167635D01*
X164825929Y-73242170D01*
X165882071Y-73242170D01*
X166256783Y-73167635D01*
X166574449Y-72955378D01*
X166786706Y-72637712D01*
X166861241Y-72263000D01*
X166786706Y-71888288D01*
X166574449Y-71570622D01*
X166256783Y-71358365D01*
X165882071Y-71283830D01*
X164825929Y-71283830D01*
X164451217Y-71358365D01*
X164133551Y-71570622D01*
X163921294Y-71888288D01*
X163846759Y-72263000D01*
X134792849Y-72263000D01*
X135153307Y-71903171D01*
X135432282Y-71231327D01*
X135432338Y-71166998D01*
X156633248Y-71166998D01*
X156766725Y-71490037D01*
X157013663Y-71737407D01*
X157336469Y-71871447D01*
X157685998Y-71871752D01*
X158009037Y-71738275D01*
X158256407Y-71491337D01*
X158277800Y-71439817D01*
X158277800Y-71759204D01*
X158366739Y-71973922D01*
X158531077Y-72138261D01*
X158745795Y-72227200D01*
X159188150Y-72227200D01*
X159334200Y-72081150D01*
X159334200Y-71170800D01*
X159689800Y-71170800D01*
X159689800Y-72081150D01*
X159835850Y-72227200D01*
X160278205Y-72227200D01*
X160492923Y-72138261D01*
X160657261Y-71973922D01*
X160746200Y-71759204D01*
X160746200Y-71316850D01*
X160657485Y-71228135D01*
X190703084Y-71228135D01*
X190980885Y-71900465D01*
X191494829Y-72415307D01*
X192166673Y-72694282D01*
X192894135Y-72694916D01*
X193566465Y-72417115D01*
X194081307Y-71903171D01*
X194360282Y-71231327D01*
X194360916Y-70503865D01*
X194083115Y-69831535D01*
X193569171Y-69316693D01*
X192897327Y-69037718D01*
X192169865Y-69037084D01*
X191497535Y-69314885D01*
X190982693Y-69828829D01*
X190703718Y-70500673D01*
X190703084Y-71228135D01*
X160657485Y-71228135D01*
X160600150Y-71170800D01*
X159689800Y-71170800D01*
X159334200Y-71170800D01*
X159314200Y-71170800D01*
X159314200Y-70815200D01*
X159334200Y-70815200D01*
X159334200Y-69904850D01*
X159689800Y-69904850D01*
X159689800Y-70815200D01*
X160600150Y-70815200D01*
X160746200Y-70669150D01*
X160746200Y-70226796D01*
X160657261Y-70012078D01*
X160492923Y-69847739D01*
X160278205Y-69758800D01*
X159835850Y-69758800D01*
X159689800Y-69904850D01*
X159334200Y-69904850D01*
X159188150Y-69758800D01*
X158745795Y-69758800D01*
X158531077Y-69847739D01*
X158366739Y-70012078D01*
X158277800Y-70226796D01*
X158277800Y-70545637D01*
X158257275Y-70495963D01*
X158010337Y-70248593D01*
X157687531Y-70114553D01*
X157338002Y-70114248D01*
X157014963Y-70247725D01*
X156767593Y-70494663D01*
X156633553Y-70817469D01*
X156633248Y-71166998D01*
X135432338Y-71166998D01*
X135432916Y-70503865D01*
X135155115Y-69831535D01*
X134641171Y-69316693D01*
X133969327Y-69037718D01*
X133241865Y-69037084D01*
X132569535Y-69314885D01*
X132054693Y-69828829D01*
X131775718Y-70500673D01*
X131775084Y-71228135D01*
X130478600Y-71228135D01*
X130478600Y-67740600D01*
X195657400Y-67740600D01*
X195657400Y-116155400D01*
X195657400Y-116155400D01*
G37*
X195657400Y-116155400D02*
X130478600Y-116155400D01*
X130478600Y-113392135D01*
X131775084Y-113392135D01*
X132052885Y-114064465D01*
X132566829Y-114579307D01*
X133238673Y-114858282D01*
X133966135Y-114858916D01*
X134638465Y-114581115D01*
X135153307Y-114067171D01*
X135432282Y-113395327D01*
X135432284Y-113392135D01*
X190703084Y-113392135D01*
X190980885Y-114064465D01*
X191494829Y-114579307D01*
X192166673Y-114858282D01*
X192894135Y-114858916D01*
X193566465Y-114581115D01*
X194081307Y-114067171D01*
X194360282Y-113395327D01*
X194360916Y-112667865D01*
X194083115Y-111995535D01*
X193569171Y-111480693D01*
X192897327Y-111201718D01*
X192169865Y-111201084D01*
X191497535Y-111478885D01*
X190982693Y-111992829D01*
X190703718Y-112664673D01*
X190703084Y-113392135D01*
X135432284Y-113392135D01*
X135432916Y-112667865D01*
X135155115Y-111995535D01*
X134641171Y-111480693D01*
X133969327Y-111201718D01*
X133241865Y-111201084D01*
X132569535Y-111478885D01*
X132054693Y-111992829D01*
X131775718Y-112664673D01*
X131775084Y-113392135D01*
X130478600Y-113392135D01*
X130478600Y-108257084D01*
X136296097Y-108257084D01*
X136562352Y-108901471D01*
X137054936Y-109394915D01*
X137698857Y-109662295D01*
X138396084Y-109662903D01*
X139040471Y-109396648D01*
X139533915Y-108904064D01*
X139801295Y-108260143D01*
X139801505Y-108019178D01*
X145694228Y-108019178D01*
X145844721Y-108383397D01*
X146123138Y-108662300D01*
X146487093Y-108813428D01*
X146881178Y-108813772D01*
X147245397Y-108663279D01*
X147524300Y-108384862D01*
X147675428Y-108020907D01*
X147675429Y-108019178D01*
X150774228Y-108019178D01*
X150924721Y-108383397D01*
X151203138Y-108662300D01*
X151567093Y-108813428D01*
X151961178Y-108813772D01*
X152325397Y-108663279D01*
X152604300Y-108384862D01*
X152755428Y-108020907D01*
X152755429Y-108019178D01*
X155854228Y-108019178D01*
X156004721Y-108383397D01*
X156283138Y-108662300D01*
X156647093Y-108813428D01*
X157041178Y-108813772D01*
X157405397Y-108663279D01*
X157684300Y-108384862D01*
X157835428Y-108020907D01*
X157835429Y-108019178D01*
X160934228Y-108019178D01*
X161084721Y-108383397D01*
X161363138Y-108662300D01*
X161727093Y-108813428D01*
X162121178Y-108813772D01*
X162485397Y-108663279D01*
X162764300Y-108384862D01*
X162915428Y-108020907D01*
X162915772Y-107626822D01*
X162765279Y-107262603D01*
X162486862Y-106983700D01*
X162122907Y-106832572D01*
X161728822Y-106832228D01*
X161364603Y-106982721D01*
X161085700Y-107261138D01*
X160934572Y-107625093D01*
X160934228Y-108019178D01*
X157835429Y-108019178D01*
X157835772Y-107626822D01*
X157685279Y-107262603D01*
X157406862Y-106983700D01*
X157042907Y-106832572D01*
X156648822Y-106832228D01*
X156284603Y-106982721D01*
X156005700Y-107261138D01*
X155854572Y-107625093D01*
X155854228Y-108019178D01*
X152755429Y-108019178D01*
X152755772Y-107626822D01*
X152605279Y-107262603D01*
X152326862Y-106983700D01*
X151962907Y-106832572D01*
X151568822Y-106832228D01*
X151204603Y-106982721D01*
X150925700Y-107261138D01*
X150774572Y-107625093D01*
X150774228Y-108019178D01*
X147675429Y-108019178D01*
X147675772Y-107626822D01*
X147525279Y-107262603D01*
X147246862Y-106983700D01*
X146882907Y-106832572D01*
X146488822Y-106832228D01*
X146124603Y-106982721D01*
X145845700Y-107261138D01*
X145694572Y-107625093D01*
X145694228Y-108019178D01*
X139801505Y-108019178D01*
X139801903Y-107562916D01*
X139535648Y-106918529D01*
X139043064Y-106425085D01*
X138399143Y-106157705D01*
X137701916Y-106157097D01*
X137057529Y-106423352D01*
X136564085Y-106915936D01*
X136296705Y-107559857D01*
X136296097Y-108257084D01*
X130478600Y-108257084D01*
X130478600Y-103257084D01*
X136296097Y-103257084D01*
X136562352Y-103901471D01*
X137054936Y-104394915D01*
X137698857Y-104662295D01*
X138396084Y-104662903D01*
X139040471Y-104396648D01*
X139533915Y-103904064D01*
X139801295Y-103260143D01*
X139801903Y-102562916D01*
X139535648Y-101918529D01*
X139043064Y-101425085D01*
X138399143Y-101157705D01*
X137701916Y-101157097D01*
X137057529Y-101423352D01*
X136564085Y-101915936D01*
X136296705Y-102559857D01*
X136296097Y-103257084D01*
X130478600Y-103257084D01*
X130478600Y-100344998D01*
X165110248Y-100344998D01*
X165243725Y-100668037D01*
X165490663Y-100915407D01*
X165813469Y-101049447D01*
X166162998Y-101049752D01*
X166486037Y-100916275D01*
X166733407Y-100669337D01*
X166867447Y-100346531D01*
X166867752Y-99997002D01*
X166734275Y-99673963D01*
X166487337Y-99426593D01*
X166164531Y-99292553D01*
X165815002Y-99292248D01*
X165491963Y-99425725D01*
X165244593Y-99672663D01*
X165110553Y-99995469D01*
X165110248Y-100344998D01*
X130478600Y-100344998D01*
X130478600Y-97382084D01*
X136296097Y-97382084D01*
X136562352Y-98026471D01*
X137054936Y-98519915D01*
X137698857Y-98787295D01*
X138396084Y-98787903D01*
X139040471Y-98521648D01*
X139533915Y-98029064D01*
X139744882Y-97521000D01*
X165105922Y-97521000D01*
X165105922Y-98821000D01*
X165121862Y-98905714D01*
X165171928Y-98983518D01*
X165248320Y-99035715D01*
X165339000Y-99054078D01*
X166639000Y-99054078D01*
X166723714Y-99038138D01*
X166801518Y-98988072D01*
X166853715Y-98911680D01*
X166872078Y-98821000D01*
X166872078Y-97521000D01*
X166856138Y-97436286D01*
X166806072Y-97358482D01*
X166729680Y-97306285D01*
X166639000Y-97287922D01*
X165339000Y-97287922D01*
X165254286Y-97303862D01*
X165176482Y-97353928D01*
X165124285Y-97430320D01*
X165105922Y-97521000D01*
X139744882Y-97521000D01*
X139801295Y-97385143D01*
X139801903Y-96687916D01*
X139535648Y-96043529D01*
X139043064Y-95550085D01*
X138399143Y-95282705D01*
X137701916Y-95282097D01*
X137057529Y-95548352D01*
X136564085Y-96040936D01*
X136296705Y-96684857D01*
X136296097Y-97382084D01*
X130478600Y-97382084D01*
X130478600Y-92382084D01*
X136296097Y-92382084D01*
X136562352Y-93026471D01*
X137054936Y-93519915D01*
X137698857Y-93787295D01*
X138396084Y-93787903D01*
X139040471Y-93521648D01*
X139533915Y-93029064D01*
X139801295Y-92385143D01*
X139801903Y-91687916D01*
X139535648Y-91043529D01*
X139043064Y-90550085D01*
X138399143Y-90282705D01*
X137701916Y-90282097D01*
X137057529Y-90548352D01*
X136564085Y-91040936D01*
X136296705Y-91684857D01*
X136296097Y-92382084D01*
X130478600Y-92382084D01*
X130478600Y-89755998D01*
X163332248Y-89755998D01*
X163465725Y-90079037D01*
X163712663Y-90326407D01*
X164035469Y-90460447D01*
X164384998Y-90460752D01*
X164708037Y-90327275D01*
X164955407Y-90080337D01*
X165089447Y-89757531D01*
X165089752Y-89408002D01*
X164956275Y-89084963D01*
X164709337Y-88837593D01*
X164386531Y-88703553D01*
X164037002Y-88703248D01*
X163713963Y-88836725D01*
X163466593Y-89083663D01*
X163332553Y-89406469D01*
X163332248Y-89755998D01*
X130478600Y-89755998D01*
X130478600Y-87382084D01*
X136296097Y-87382084D01*
X136562352Y-88026471D01*
X137054936Y-88519915D01*
X137698857Y-88787295D01*
X138396084Y-88787903D01*
X139040471Y-88521648D01*
X139533915Y-88029064D01*
X139801295Y-87385143D01*
X139801903Y-86687916D01*
X139535648Y-86043529D01*
X139043064Y-85550085D01*
X138399143Y-85282705D01*
X137701916Y-85282097D01*
X137057529Y-85548352D01*
X136564085Y-86040936D01*
X136296705Y-86684857D01*
X136296097Y-87382084D01*
X130478600Y-87382084D01*
X130478600Y-83932000D01*
X163327922Y-83932000D01*
X163327922Y-85232000D01*
X163343862Y-85316714D01*
X163393928Y-85394518D01*
X163470320Y-85446715D01*
X163561000Y-85465078D01*
X164861000Y-85465078D01*
X164945714Y-85449138D01*
X165023518Y-85399072D01*
X165075715Y-85322680D01*
X165094078Y-85232000D01*
X165094078Y-83932000D01*
X165078138Y-83847286D01*
X165028072Y-83769482D01*
X164951680Y-83717285D01*
X164861000Y-83698922D01*
X163561000Y-83698922D01*
X163476286Y-83714862D01*
X163398482Y-83764928D01*
X163346285Y-83841320D01*
X163327922Y-83932000D01*
X130478600Y-83932000D01*
X130478600Y-81460084D01*
X136296097Y-81460084D01*
X136562352Y-82104471D01*
X137054936Y-82597915D01*
X137698857Y-82865295D01*
X138396084Y-82865903D01*
X139040471Y-82599648D01*
X139533915Y-82107064D01*
X139569950Y-82020280D01*
X153695228Y-82020280D01*
X153845721Y-82384499D01*
X154124138Y-82663402D01*
X154488093Y-82814530D01*
X154882178Y-82814874D01*
X155246397Y-82664381D01*
X155525300Y-82385964D01*
X155676428Y-82022009D01*
X155676772Y-81627924D01*
X155526279Y-81263705D01*
X155247862Y-80984802D01*
X154883907Y-80833674D01*
X154489822Y-80833330D01*
X154125603Y-80983823D01*
X153846700Y-81262240D01*
X153695572Y-81626195D01*
X153695228Y-82020280D01*
X139569950Y-82020280D01*
X139801295Y-81463143D01*
X139801903Y-80765916D01*
X139535648Y-80121529D01*
X139043064Y-79628085D01*
X138399143Y-79360705D01*
X137701916Y-79360097D01*
X137057529Y-79626352D01*
X136564085Y-80118936D01*
X136296705Y-80762857D01*
X136296097Y-81460084D01*
X130478600Y-81460084D01*
X130478600Y-78428178D01*
X150103126Y-78428178D01*
X150253619Y-78792397D01*
X150532036Y-79071300D01*
X150895991Y-79222428D01*
X151290076Y-79222772D01*
X151654295Y-79072279D01*
X151933198Y-78793862D01*
X152084326Y-78429907D01*
X152084327Y-78428178D01*
X157287330Y-78428178D01*
X157437823Y-78792397D01*
X157716240Y-79071300D01*
X158080195Y-79222428D01*
X158474280Y-79222772D01*
X158838499Y-79072279D01*
X159117402Y-78793862D01*
X159268530Y-78429907D01*
X159268874Y-78035822D01*
X159140674Y-77725554D01*
X163576116Y-77725554D01*
X163785341Y-78161102D01*
X164179830Y-78508126D01*
X164677090Y-78677770D01*
X165176200Y-78677770D01*
X165176200Y-77520800D01*
X165531800Y-77520800D01*
X165531800Y-78677770D01*
X166030910Y-78677770D01*
X166528170Y-78508126D01*
X166922659Y-78161102D01*
X167131884Y-77725554D01*
X167028458Y-77520800D01*
X165531800Y-77520800D01*
X165176200Y-77520800D01*
X163679542Y-77520800D01*
X163576116Y-77725554D01*
X159140674Y-77725554D01*
X159118381Y-77671603D01*
X158839964Y-77392700D01*
X158476009Y-77241572D01*
X158081924Y-77241228D01*
X157717705Y-77391721D01*
X157438802Y-77670138D01*
X157287674Y-78034093D01*
X157287330Y-78428178D01*
X152084327Y-78428178D01*
X152084670Y-78035822D01*
X151934177Y-77671603D01*
X151655760Y-77392700D01*
X151291805Y-77241572D01*
X150897720Y-77241228D01*
X150533501Y-77391721D01*
X150254598Y-77670138D01*
X150103470Y-78034093D01*
X150103126Y-78428178D01*
X130478600Y-78428178D01*
X130478600Y-76460084D01*
X136296097Y-76460084D01*
X136562352Y-77104471D01*
X137054936Y-77597915D01*
X137698857Y-77865295D01*
X138396084Y-77865903D01*
X139040471Y-77599648D01*
X139533915Y-77107064D01*
X139594796Y-76960446D01*
X163576116Y-76960446D01*
X163679542Y-77165200D01*
X165176200Y-77165200D01*
X165176200Y-76008230D01*
X165531800Y-76008230D01*
X165531800Y-77165200D01*
X167028458Y-77165200D01*
X167131884Y-76960446D01*
X166922659Y-76524898D01*
X166528170Y-76177874D01*
X166030910Y-76008230D01*
X165531800Y-76008230D01*
X165176200Y-76008230D01*
X164677090Y-76008230D01*
X164179830Y-76177874D01*
X163785341Y-76524898D01*
X163576116Y-76960446D01*
X139594796Y-76960446D01*
X139801295Y-76463143D01*
X139801903Y-75765916D01*
X139535648Y-75121529D01*
X139043064Y-74628085D01*
X138399143Y-74360705D01*
X137701916Y-74360097D01*
X137057529Y-74626352D01*
X136564085Y-75118936D01*
X136296705Y-75762857D01*
X136296097Y-76460084D01*
X130478600Y-76460084D01*
X130478600Y-74295000D01*
X143022922Y-74295000D01*
X143022922Y-76327000D01*
X143038862Y-76411714D01*
X143088928Y-76489518D01*
X143165320Y-76541715D01*
X143256000Y-76560078D01*
X145288000Y-76560078D01*
X145372714Y-76544138D01*
X145450518Y-76494072D01*
X145502715Y-76417680D01*
X145521078Y-76327000D01*
X145521078Y-75286617D01*
X145567400Y-75286617D01*
X145567400Y-75335383D01*
X145662140Y-75811671D01*
X145931935Y-76215448D01*
X146335712Y-76485243D01*
X146812000Y-76579983D01*
X147288288Y-76485243D01*
X147692065Y-76215448D01*
X147961860Y-75811671D01*
X148056600Y-75335383D01*
X148056600Y-75286617D01*
X147966982Y-74836076D01*
X153695228Y-74836076D01*
X153845721Y-75200295D01*
X154124138Y-75479198D01*
X154488093Y-75630326D01*
X154882178Y-75630670D01*
X155246397Y-75480177D01*
X155525300Y-75201760D01*
X155676428Y-74837805D01*
X155676458Y-74803000D01*
X163846759Y-74803000D01*
X163921294Y-75177712D01*
X164133551Y-75495378D01*
X164451217Y-75707635D01*
X164825929Y-75782170D01*
X165882071Y-75782170D01*
X166256783Y-75707635D01*
X166574449Y-75495378D01*
X166670723Y-75351292D01*
X179348921Y-75351292D01*
X179769527Y-76369237D01*
X180547666Y-77148736D01*
X181564875Y-77571118D01*
X182666292Y-77572079D01*
X183684237Y-77151473D01*
X184463736Y-76373334D01*
X184886118Y-75356125D01*
X184887079Y-74254708D01*
X184466473Y-73236763D01*
X183688334Y-72457264D01*
X182671125Y-72034882D01*
X181569708Y-72033921D01*
X180551763Y-72454527D01*
X179772264Y-73232666D01*
X179349882Y-74249875D01*
X179348921Y-75351292D01*
X166670723Y-75351292D01*
X166786706Y-75177712D01*
X166861241Y-74803000D01*
X166786706Y-74428288D01*
X166574449Y-74110622D01*
X166256783Y-73898365D01*
X165882071Y-73823830D01*
X164825929Y-73823830D01*
X164451217Y-73898365D01*
X164133551Y-74110622D01*
X163921294Y-74428288D01*
X163846759Y-74803000D01*
X155676458Y-74803000D01*
X155676772Y-74443720D01*
X155526279Y-74079501D01*
X155247862Y-73800598D01*
X154883907Y-73649470D01*
X154489822Y-73649126D01*
X154125603Y-73799619D01*
X153846700Y-74078036D01*
X153695572Y-74441991D01*
X153695228Y-74836076D01*
X147966982Y-74836076D01*
X147961860Y-74810329D01*
X147692065Y-74406552D01*
X147288288Y-74136757D01*
X146812000Y-74042017D01*
X146335712Y-74136757D01*
X145931935Y-74406552D01*
X145662140Y-74810329D01*
X145567400Y-75286617D01*
X145521078Y-75286617D01*
X145521078Y-74295000D01*
X145505138Y-74210286D01*
X145455072Y-74132482D01*
X145378680Y-74080285D01*
X145288000Y-74061922D01*
X143256000Y-74061922D01*
X143171286Y-74077862D01*
X143093482Y-74127928D01*
X143041285Y-74204320D01*
X143022922Y-74295000D01*
X130478600Y-74295000D01*
X130478600Y-71228135D01*
X131775084Y-71228135D01*
X132052885Y-71900465D01*
X132566829Y-72415307D01*
X133238673Y-72694282D01*
X133966135Y-72694916D01*
X134638465Y-72417115D01*
X134792849Y-72263000D01*
X163846759Y-72263000D01*
X163921294Y-72637712D01*
X164133551Y-72955378D01*
X164451217Y-73167635D01*
X164825929Y-73242170D01*
X165882071Y-73242170D01*
X166256783Y-73167635D01*
X166574449Y-72955378D01*
X166786706Y-72637712D01*
X166861241Y-72263000D01*
X166786706Y-71888288D01*
X166574449Y-71570622D01*
X166256783Y-71358365D01*
X165882071Y-71283830D01*
X164825929Y-71283830D01*
X164451217Y-71358365D01*
X164133551Y-71570622D01*
X163921294Y-71888288D01*
X163846759Y-72263000D01*
X134792849Y-72263000D01*
X135153307Y-71903171D01*
X135432282Y-71231327D01*
X135432338Y-71166998D01*
X156633248Y-71166998D01*
X156766725Y-71490037D01*
X157013663Y-71737407D01*
X157336469Y-71871447D01*
X157685998Y-71871752D01*
X158009037Y-71738275D01*
X158256407Y-71491337D01*
X158277800Y-71439817D01*
X158277800Y-71759204D01*
X158366739Y-71973922D01*
X158531077Y-72138261D01*
X158745795Y-72227200D01*
X159188150Y-72227200D01*
X159334200Y-72081150D01*
X159334200Y-71170800D01*
X159689800Y-71170800D01*
X159689800Y-72081150D01*
X159835850Y-72227200D01*
X160278205Y-72227200D01*
X160492923Y-72138261D01*
X160657261Y-71973922D01*
X160746200Y-71759204D01*
X160746200Y-71316850D01*
X160657485Y-71228135D01*
X190703084Y-71228135D01*
X190980885Y-71900465D01*
X191494829Y-72415307D01*
X192166673Y-72694282D01*
X192894135Y-72694916D01*
X193566465Y-72417115D01*
X194081307Y-71903171D01*
X194360282Y-71231327D01*
X194360916Y-70503865D01*
X194083115Y-69831535D01*
X193569171Y-69316693D01*
X192897327Y-69037718D01*
X192169865Y-69037084D01*
X191497535Y-69314885D01*
X190982693Y-69828829D01*
X190703718Y-70500673D01*
X190703084Y-71228135D01*
X160657485Y-71228135D01*
X160600150Y-71170800D01*
X159689800Y-71170800D01*
X159334200Y-71170800D01*
X159314200Y-71170800D01*
X159314200Y-70815200D01*
X159334200Y-70815200D01*
X159334200Y-69904850D01*
X159689800Y-69904850D01*
X159689800Y-70815200D01*
X160600150Y-70815200D01*
X160746200Y-70669150D01*
X160746200Y-70226796D01*
X160657261Y-70012078D01*
X160492923Y-69847739D01*
X160278205Y-69758800D01*
X159835850Y-69758800D01*
X159689800Y-69904850D01*
X159334200Y-69904850D01*
X159188150Y-69758800D01*
X158745795Y-69758800D01*
X158531077Y-69847739D01*
X158366739Y-70012078D01*
X158277800Y-70226796D01*
X158277800Y-70545637D01*
X158257275Y-70495963D01*
X158010337Y-70248593D01*
X157687531Y-70114553D01*
X157338002Y-70114248D01*
X157014963Y-70247725D01*
X156767593Y-70494663D01*
X156633553Y-70817469D01*
X156633248Y-71166998D01*
X135432338Y-71166998D01*
X135432916Y-70503865D01*
X135155115Y-69831535D01*
X134641171Y-69316693D01*
X133969327Y-69037718D01*
X133241865Y-69037084D01*
X132569535Y-69314885D01*
X132054693Y-69828829D01*
X131775718Y-70500673D01*
X131775084Y-71228135D01*
X130478600Y-71228135D01*
X130478600Y-67740600D01*
X195657400Y-67740600D01*
X195657400Y-116155400D01*
M02*
