G04 #@! TF.FileFunction,Paste,Top*
%FSLAX46Y46*%
G04 Gerber Fmt 4.6, Leading zero omitted, Abs format (unit mm)*
G04 Created by KiCad (PCBNEW 4.0.0-2.201512072331+6194~38~ubuntu14.04.1-stable) date Tue 07 Jun 2016 08:46:50 PM CEST*
%MOMM*%
G01*
G04 APERTURE LIST*
%ADD10C,0.100000*%
%ADD11R,1.300800X1.550800*%
%ADD12R,1.550800X1.300800*%
%ADD13R,2.050800X1.650800*%
%ADD14R,0.650800X0.750800*%
%ADD15R,1.249680X1.249680*%
%ADD16R,0.750800X0.650800*%
%ADD17R,0.850900X0.850900*%
%ADD18R,1.550800X1.350800*%
%ADD19R,1.350800X1.550800*%
%ADD20R,2.159000X2.159000*%
%ADD21R,0.650800X1.600800*%
%ADD22R,3.550800X3.550800*%
G04 APERTURE END LIST*
D10*
D11*
X174371000Y-85237000D03*
X174371000Y-87737000D03*
X162407600Y-79024800D03*
X162407600Y-76524800D03*
D12*
X174478000Y-106426000D03*
X171978000Y-106426000D03*
D11*
X184404000Y-88666000D03*
X184404000Y-91166000D03*
X153162000Y-91841000D03*
X153162000Y-94341000D03*
X155829000Y-91841000D03*
X155829000Y-94341000D03*
D13*
X178530000Y-90932000D03*
X174530000Y-90932000D03*
D14*
X153986000Y-103886000D03*
X155386000Y-103886000D03*
D15*
X190212980Y-107188000D03*
X192311020Y-107188000D03*
D16*
X157988000Y-91375000D03*
X157988000Y-92775000D03*
D15*
X190212980Y-101092000D03*
X192311020Y-101092000D03*
D16*
X149225000Y-93280000D03*
X149225000Y-94680000D03*
D17*
X155717240Y-97856000D03*
X155717240Y-99756000D03*
X157716220Y-98806000D03*
D18*
X193577200Y-104343200D03*
X190877200Y-104343200D03*
X171624000Y-104140000D03*
X174324000Y-104140000D03*
D19*
X181610000Y-88312000D03*
X181610000Y-91012000D03*
D18*
X157273000Y-102108000D03*
X159973000Y-102108000D03*
X184324000Y-98552000D03*
X187024000Y-98552000D03*
D19*
X160528000Y-97997000D03*
X160528000Y-95297000D03*
D18*
X146765000Y-92202000D03*
X144065000Y-92202000D03*
X144065000Y-94742000D03*
X146765000Y-94742000D03*
X168609000Y-94615000D03*
X165909000Y-94615000D03*
D20*
X193001900Y-84340700D03*
X193001900Y-93459300D03*
X188506100Y-84340700D03*
X188506100Y-93459300D03*
D21*
X177419000Y-100490000D03*
X178689000Y-100490000D03*
X179959000Y-100490000D03*
X181229000Y-100490000D03*
X181229000Y-95090000D03*
X179959000Y-95090000D03*
X178689000Y-95090000D03*
X177419000Y-95090000D03*
D22*
X151739600Y-86106000D03*
X144932400Y-86106000D03*
M02*
