G04 #@! TF.FileFunction,Copper,L2,Bot,Signal*
%FSLAX46Y46*%
G04 Gerber Fmt 4.6, Leading zero omitted, Abs format (unit mm)*
G04 Created by KiCad (PCBNEW 4.0.0-2.201512072331+6194~38~ubuntu14.04.1-stable) date Fri 01 Jul 2016 10:17:29 PM CEST*
%MOMM*%
G01*
G04 APERTURE LIST*
%ADD10C,0.100000*%
%ADD11C,0.685800*%
%ADD12C,1.778000*%
%ADD13R,2.235200X2.235200*%
%ADD14C,3.048000*%
%ADD15R,1.300000X1.300000*%
%ADD16C,1.300000*%
%ADD17R,2.032000X2.032000*%
%ADD18O,2.032000X2.032000*%
%ADD19O,2.499360X1.501140*%
%ADD20C,0.609600*%
%ADD21C,1.219200*%
%ADD22C,0.304800*%
%ADD23C,0.152400*%
G04 APERTURE END LIST*
D10*
D11*
X142240000Y-104140000D03*
X147320000Y-104140000D03*
X147320000Y-101600000D03*
D12*
X151093898Y-78232000D03*
X154686000Y-74639898D03*
X158278102Y-78232000D03*
X154686000Y-81824102D03*
D11*
X149860000Y-111760000D03*
X154940000Y-107950000D03*
X149860000Y-109220000D03*
X190373000Y-91440000D03*
X187960000Y-96520000D03*
X187960000Y-93980000D03*
X149860000Y-106299000D03*
X149860000Y-104140000D03*
X134620000Y-104140000D03*
X149860000Y-101600000D03*
X137160000Y-106680000D03*
X137160000Y-109220000D03*
X134620000Y-109220000D03*
D13*
X171958000Y-109728000D03*
D14*
X138049000Y-76113000D03*
X138049000Y-81113000D03*
D11*
X187960000Y-114300000D03*
X185420000Y-114300000D03*
X182880000Y-114300000D03*
X180340000Y-114300000D03*
X177800000Y-114300000D03*
X175260000Y-114300000D03*
X172720000Y-114300000D03*
X170180000Y-114300000D03*
X167640000Y-114300000D03*
X165100000Y-114300000D03*
X162560000Y-114300000D03*
X160020000Y-114300000D03*
X187960000Y-111760000D03*
X185420000Y-111760000D03*
X182880000Y-111760000D03*
X180340000Y-111760000D03*
X165100000Y-111760000D03*
X162560000Y-111760000D03*
X160020000Y-111760000D03*
X190500000Y-109220000D03*
X187960000Y-109220000D03*
X185420000Y-109220000D03*
X182880000Y-109220000D03*
X177800000Y-109220000D03*
X175260000Y-109220000D03*
X167640000Y-109220000D03*
X132080000Y-109220000D03*
X187960000Y-106680000D03*
X185420000Y-106680000D03*
X134620000Y-106680000D03*
X132080000Y-106680000D03*
X187960000Y-104140000D03*
X177800000Y-104140000D03*
X170180000Y-104140000D03*
X167640000Y-104140000D03*
X165100000Y-104140000D03*
X162560000Y-104140000D03*
X157480000Y-104140000D03*
X154940000Y-104140000D03*
X134620000Y-104140000D03*
X132080000Y-104140000D03*
X154940000Y-101600000D03*
X134620000Y-101600000D03*
X132080000Y-101600000D03*
X193040000Y-99060000D03*
X185420000Y-99060000D03*
X175260000Y-99060000D03*
X170180000Y-99060000D03*
X167640000Y-99060000D03*
X165100000Y-99060000D03*
X139700000Y-99060000D03*
X137160000Y-99060000D03*
X134620000Y-99060000D03*
X132080000Y-99060000D03*
X185420000Y-96520000D03*
X172720000Y-96520000D03*
X170180000Y-96520000D03*
X165100000Y-96520000D03*
X157480000Y-96520000D03*
X154940000Y-96520000D03*
X152400000Y-96520000D03*
X142240000Y-96520000D03*
X134620000Y-96520000D03*
X132080000Y-96520000D03*
X193040000Y-93980000D03*
X190500000Y-93980000D03*
X185420000Y-93980000D03*
X172720000Y-93980000D03*
X170180000Y-93980000D03*
X167640000Y-93980000D03*
X165100000Y-93980000D03*
X142240000Y-93980000D03*
X139700000Y-93980000D03*
X134620000Y-93980000D03*
X132080000Y-93980000D03*
X193040000Y-91440000D03*
X187960000Y-91440000D03*
X185420000Y-91440000D03*
X182880000Y-91440000D03*
X180340000Y-91440000D03*
X177800000Y-91440000D03*
X175260000Y-91440000D03*
X172720000Y-91440000D03*
X167640000Y-91440000D03*
X165100000Y-91440000D03*
X162560000Y-91440000D03*
X160020000Y-91440000D03*
X149860000Y-91440000D03*
X134620000Y-91440000D03*
X132080000Y-91440000D03*
X193040000Y-88900000D03*
X182880000Y-88900000D03*
X180340000Y-88900000D03*
X177800000Y-88900000D03*
X172720000Y-88900000D03*
X170180000Y-88900000D03*
X149860000Y-88900000D03*
X147320000Y-88900000D03*
X144780000Y-88900000D03*
X142240000Y-88900000D03*
X139700000Y-88900000D03*
X134620000Y-88900000D03*
X132080000Y-88900000D03*
X193040000Y-86360000D03*
X182880000Y-86360000D03*
X180340000Y-86360000D03*
X170180000Y-86360000D03*
X167640000Y-86360000D03*
X165100000Y-86360000D03*
X134620000Y-86360000D03*
X132080000Y-86360000D03*
X193040000Y-83820000D03*
X190500000Y-83820000D03*
X187960000Y-83820000D03*
X185420000Y-83820000D03*
X182880000Y-83820000D03*
X180340000Y-83820000D03*
X172720000Y-83820000D03*
X170180000Y-83820000D03*
X167640000Y-83820000D03*
X165100000Y-83820000D03*
X154940000Y-83820000D03*
X139700000Y-83820000D03*
X137160000Y-83820000D03*
X134620000Y-83820000D03*
X132080000Y-83820000D03*
X193040000Y-81280000D03*
X190500000Y-81280000D03*
X187960000Y-81280000D03*
X185420000Y-81280000D03*
X182880000Y-81280000D03*
X180340000Y-81280000D03*
X177800000Y-81280000D03*
X175260000Y-81280000D03*
X172720000Y-81280000D03*
X170180000Y-81280000D03*
X167640000Y-81280000D03*
X165100000Y-81280000D03*
X160020000Y-81280000D03*
X157480000Y-81280000D03*
X134620000Y-81280000D03*
X132080000Y-81280000D03*
X193040000Y-78740000D03*
X182880000Y-78740000D03*
X180340000Y-78740000D03*
X177800000Y-78740000D03*
X175260000Y-78740000D03*
X172720000Y-78740000D03*
X170180000Y-78740000D03*
X167640000Y-78740000D03*
X160020000Y-78740000D03*
X154940000Y-78740000D03*
X144780000Y-78740000D03*
X142240000Y-78740000D03*
X139700000Y-78740000D03*
X137160000Y-78740000D03*
X134620000Y-78740000D03*
X132080000Y-78740000D03*
X193040000Y-76200000D03*
X190500000Y-76200000D03*
X187960000Y-76200000D03*
X185420000Y-76200000D03*
X182880000Y-76200000D03*
X180340000Y-76200000D03*
X177800000Y-76200000D03*
X175260000Y-76200000D03*
X156591000Y-76200000D03*
X152400000Y-76200000D03*
X149860000Y-76200000D03*
X134620000Y-76200000D03*
X132080000Y-76200000D03*
X187960000Y-73660000D03*
X185420000Y-73660000D03*
X182880000Y-73660000D03*
X180340000Y-73660000D03*
X177800000Y-73660000D03*
X175260000Y-73660000D03*
X172720000Y-73660000D03*
X170180000Y-73660000D03*
X167640000Y-73660000D03*
X165100000Y-73660000D03*
X160020000Y-73660000D03*
X147320000Y-73660000D03*
X144780000Y-73660000D03*
X142240000Y-73660000D03*
X139700000Y-73660000D03*
X137160000Y-73660000D03*
X187960000Y-71120000D03*
X185420000Y-71120000D03*
X182880000Y-71120000D03*
X180340000Y-71120000D03*
X177800000Y-71120000D03*
X175260000Y-71120000D03*
X170180000Y-71120000D03*
X167640000Y-71120000D03*
X165100000Y-71120000D03*
X157480000Y-71120000D03*
X154940000Y-71120000D03*
X152400000Y-71120000D03*
X139700000Y-71120000D03*
X187960000Y-68580000D03*
X185420000Y-68580000D03*
X182880000Y-68580000D03*
X180340000Y-68580000D03*
X177800000Y-68580000D03*
X175260000Y-68580000D03*
X172720000Y-68580000D03*
X170180000Y-68580000D03*
X167640000Y-68580000D03*
X165100000Y-68580000D03*
X162560000Y-68580000D03*
X139700000Y-68580000D03*
X137160000Y-68580000D03*
D15*
X171831000Y-75692000D03*
D16*
X171831000Y-70692000D03*
D15*
X161544000Y-70739000D03*
D16*
X159544000Y-70739000D03*
D15*
X167513000Y-97155000D03*
D16*
X167513000Y-99155000D03*
D14*
X141518000Y-109601000D03*
X146518000Y-109601000D03*
D17*
X144526000Y-76860400D03*
D18*
X147066000Y-76860400D03*
D14*
X138049000Y-87035000D03*
X138049000Y-92035000D03*
X138049000Y-97035000D03*
D13*
X154051000Y-113792000D03*
X146507200Y-70053200D03*
X150164800Y-70053200D03*
X179832000Y-109728000D03*
X157861000Y-113792000D03*
X142595600Y-70053200D03*
D19*
X158750000Y-85979000D03*
X158750000Y-83439000D03*
X158750000Y-88519000D03*
D11*
X144018000Y-96520000D03*
X186690000Y-81026000D03*
X173101000Y-102489000D03*
X189484000Y-98806000D03*
X182245000Y-103124000D03*
D20*
X158750000Y-88519000D02*
X150749000Y-96520000D01*
X150749000Y-96520000D02*
X144018000Y-96520000D01*
D21*
X150164800Y-70053200D02*
X151384000Y-68834000D01*
X159639000Y-68834000D02*
X161544000Y-70739000D01*
X151384000Y-68834000D02*
X159639000Y-68834000D01*
X161544000Y-70739000D02*
X161925000Y-71120000D01*
X161925000Y-71120000D02*
X161925000Y-86868000D01*
X161925000Y-86868000D02*
X160274000Y-88519000D01*
X160274000Y-88519000D02*
X158750000Y-88519000D01*
D22*
X186690000Y-100838000D02*
X186690000Y-81026000D01*
X185420000Y-102108000D02*
X186690000Y-100838000D01*
X173482000Y-102108000D02*
X185420000Y-102108000D01*
X173101000Y-102489000D02*
X173482000Y-102108000D01*
X185166000Y-103124000D02*
X189484000Y-98806000D01*
X182245000Y-103124000D02*
X185166000Y-103124000D01*
D23*
G36*
X195657400Y-116155400D02*
X130478600Y-116155400D01*
X130478600Y-113392135D01*
X131775084Y-113392135D01*
X132052885Y-114064465D01*
X132566829Y-114579307D01*
X133238673Y-114858282D01*
X133966135Y-114858916D01*
X134638465Y-114581115D01*
X135153307Y-114067171D01*
X135432282Y-113395327D01*
X135432910Y-112674400D01*
X152700322Y-112674400D01*
X152700322Y-114909600D01*
X152716262Y-114994314D01*
X152766328Y-115072118D01*
X152842720Y-115124315D01*
X152933400Y-115142678D01*
X155168600Y-115142678D01*
X155253314Y-115126738D01*
X155331118Y-115076672D01*
X155383315Y-115000280D01*
X155401678Y-114909600D01*
X155401678Y-112674400D01*
X156510322Y-112674400D01*
X156510322Y-114909600D01*
X156526262Y-114994314D01*
X156576328Y-115072118D01*
X156652720Y-115124315D01*
X156743400Y-115142678D01*
X158978600Y-115142678D01*
X159063314Y-115126738D01*
X159141118Y-115076672D01*
X159193315Y-115000280D01*
X159211678Y-114909600D01*
X159211678Y-113392135D01*
X190703084Y-113392135D01*
X190980885Y-114064465D01*
X191494829Y-114579307D01*
X192166673Y-114858282D01*
X192894135Y-114858916D01*
X193566465Y-114581115D01*
X194081307Y-114067171D01*
X194360282Y-113395327D01*
X194360916Y-112667865D01*
X194083115Y-111995535D01*
X193569171Y-111480693D01*
X192897327Y-111201718D01*
X192169865Y-111201084D01*
X191497535Y-111478885D01*
X190982693Y-111992829D01*
X190703718Y-112664673D01*
X190703084Y-113392135D01*
X159211678Y-113392135D01*
X159211678Y-112674400D01*
X159195738Y-112589686D01*
X159145672Y-112511882D01*
X159069280Y-112459685D01*
X158978600Y-112441322D01*
X156743400Y-112441322D01*
X156658686Y-112457262D01*
X156580882Y-112507328D01*
X156528685Y-112583720D01*
X156510322Y-112674400D01*
X155401678Y-112674400D01*
X155385738Y-112589686D01*
X155335672Y-112511882D01*
X155259280Y-112459685D01*
X155168600Y-112441322D01*
X152933400Y-112441322D01*
X152848686Y-112457262D01*
X152770882Y-112507328D01*
X152718685Y-112583720D01*
X152700322Y-112674400D01*
X135432910Y-112674400D01*
X135432916Y-112667865D01*
X135155115Y-111995535D01*
X134641171Y-111480693D01*
X133969327Y-111201718D01*
X133241865Y-111201084D01*
X132569535Y-111478885D01*
X132054693Y-111992829D01*
X131775718Y-112664673D01*
X131775084Y-113392135D01*
X130478600Y-113392135D01*
X130478600Y-109948084D01*
X139765097Y-109948084D01*
X140031352Y-110592471D01*
X140523936Y-111085915D01*
X141167857Y-111353295D01*
X141865084Y-111353903D01*
X142509471Y-111087648D01*
X143002915Y-110595064D01*
X143270295Y-109951143D01*
X143270297Y-109948084D01*
X144765097Y-109948084D01*
X145031352Y-110592471D01*
X145523936Y-111085915D01*
X146167857Y-111353295D01*
X146865084Y-111353903D01*
X147509471Y-111087648D01*
X148002915Y-110595064D01*
X148270295Y-109951143D01*
X148270903Y-109253916D01*
X148005008Y-108610400D01*
X170607322Y-108610400D01*
X170607322Y-110845600D01*
X170623262Y-110930314D01*
X170673328Y-111008118D01*
X170749720Y-111060315D01*
X170840400Y-111078678D01*
X173075600Y-111078678D01*
X173160314Y-111062738D01*
X173238118Y-111012672D01*
X173290315Y-110936280D01*
X173308678Y-110845600D01*
X173308678Y-108610400D01*
X178481322Y-108610400D01*
X178481322Y-110845600D01*
X178497262Y-110930314D01*
X178547328Y-111008118D01*
X178623720Y-111060315D01*
X178714400Y-111078678D01*
X180949600Y-111078678D01*
X181034314Y-111062738D01*
X181112118Y-111012672D01*
X181164315Y-110936280D01*
X181182678Y-110845600D01*
X181182678Y-108610400D01*
X181166738Y-108525686D01*
X181116672Y-108447882D01*
X181040280Y-108395685D01*
X180949600Y-108377322D01*
X178714400Y-108377322D01*
X178629686Y-108393262D01*
X178551882Y-108443328D01*
X178499685Y-108519720D01*
X178481322Y-108610400D01*
X173308678Y-108610400D01*
X173292738Y-108525686D01*
X173242672Y-108447882D01*
X173166280Y-108395685D01*
X173075600Y-108377322D01*
X170840400Y-108377322D01*
X170755686Y-108393262D01*
X170677882Y-108443328D01*
X170625685Y-108519720D01*
X170607322Y-108610400D01*
X148005008Y-108610400D01*
X148004648Y-108609529D01*
X147512064Y-108116085D01*
X146868143Y-107848705D01*
X146170916Y-107848097D01*
X145526529Y-108114352D01*
X145033085Y-108606936D01*
X144765705Y-109250857D01*
X144765097Y-109948084D01*
X143270297Y-109948084D01*
X143270903Y-109253916D01*
X143004648Y-108609529D01*
X142512064Y-108116085D01*
X141868143Y-107848705D01*
X141170916Y-107848097D01*
X140526529Y-108114352D01*
X140033085Y-108606936D01*
X139765705Y-109250857D01*
X139765097Y-109948084D01*
X130478600Y-109948084D01*
X130478600Y-102602180D01*
X172529401Y-102602180D01*
X172616224Y-102812306D01*
X172776849Y-102973211D01*
X172986823Y-103060400D01*
X173214180Y-103060599D01*
X173424306Y-102973776D01*
X173585211Y-102813151D01*
X173672400Y-102603177D01*
X173672500Y-102489000D01*
X185262184Y-102489000D01*
X185008184Y-102743000D01*
X182672182Y-102743000D01*
X182569151Y-102639789D01*
X182359177Y-102552600D01*
X182131820Y-102552401D01*
X181921694Y-102639224D01*
X181760789Y-102799849D01*
X181673600Y-103009823D01*
X181673401Y-103237180D01*
X181760224Y-103447306D01*
X181920849Y-103608211D01*
X182130823Y-103695400D01*
X182358180Y-103695599D01*
X182568306Y-103608776D01*
X182672263Y-103505000D01*
X185166000Y-103505000D01*
X185311803Y-103475998D01*
X185435408Y-103393408D01*
X189451345Y-99377471D01*
X189597180Y-99377599D01*
X189807306Y-99290776D01*
X189968211Y-99130151D01*
X190055400Y-98920177D01*
X190055599Y-98692820D01*
X189968776Y-98482694D01*
X189808151Y-98321789D01*
X189598177Y-98234600D01*
X189370820Y-98234401D01*
X189160694Y-98321224D01*
X188999789Y-98481849D01*
X188912600Y-98691823D01*
X188912471Y-98838713D01*
X187071000Y-100680184D01*
X187071000Y-81453182D01*
X187174211Y-81350151D01*
X187261400Y-81140177D01*
X187261599Y-80912820D01*
X187174776Y-80702694D01*
X187014151Y-80541789D01*
X186804177Y-80454600D01*
X186576820Y-80454401D01*
X186366694Y-80541224D01*
X186205789Y-80701849D01*
X186118600Y-80911823D01*
X186118401Y-81139180D01*
X186205224Y-81349306D01*
X186309000Y-81453263D01*
X186309000Y-100680184D01*
X185262184Y-101727000D01*
X173482000Y-101727000D01*
X173336198Y-101756002D01*
X173212592Y-101838592D01*
X173212590Y-101838595D01*
X173133656Y-101917529D01*
X172987820Y-101917401D01*
X172777694Y-102004224D01*
X172616789Y-102164849D01*
X172529600Y-102374823D01*
X172529401Y-102602180D01*
X130478600Y-102602180D01*
X130478600Y-100057146D01*
X166862301Y-100057146D01*
X166924607Y-100267345D01*
X167395072Y-100407842D01*
X167883490Y-100357605D01*
X168101393Y-100267345D01*
X168163699Y-100057146D01*
X167513000Y-99406447D01*
X166862301Y-100057146D01*
X130478600Y-100057146D01*
X130478600Y-99037072D01*
X166260158Y-99037072D01*
X166310395Y-99525490D01*
X166400655Y-99743393D01*
X166610854Y-99805699D01*
X167261553Y-99155000D01*
X167764447Y-99155000D01*
X168415146Y-99805699D01*
X168625345Y-99743393D01*
X168765842Y-99272928D01*
X168715605Y-98784510D01*
X168625345Y-98566607D01*
X168415146Y-98504301D01*
X167764447Y-99155000D01*
X167261553Y-99155000D01*
X166610854Y-98504301D01*
X166400655Y-98566607D01*
X166260158Y-99037072D01*
X130478600Y-99037072D01*
X130478600Y-97382084D01*
X136296097Y-97382084D01*
X136562352Y-98026471D01*
X137054936Y-98519915D01*
X137698857Y-98787295D01*
X138396084Y-98787903D01*
X139040471Y-98521648D01*
X139533915Y-98029064D01*
X139801295Y-97385143D01*
X139801903Y-96687916D01*
X139779287Y-96633180D01*
X143446401Y-96633180D01*
X143533224Y-96843306D01*
X143693849Y-97004211D01*
X143903823Y-97091400D01*
X144131180Y-97091599D01*
X144223628Y-97053400D01*
X150749000Y-97053400D01*
X150953123Y-97012797D01*
X151126171Y-96897171D01*
X151518342Y-96505000D01*
X166629922Y-96505000D01*
X166629922Y-97805000D01*
X166645862Y-97889714D01*
X166695928Y-97967518D01*
X166772320Y-98019715D01*
X166863000Y-98038078D01*
X166935657Y-98038078D01*
X166924607Y-98042655D01*
X166862301Y-98252854D01*
X167513000Y-98903553D01*
X168163699Y-98252854D01*
X168101393Y-98042655D01*
X168086067Y-98038078D01*
X168163000Y-98038078D01*
X168247714Y-98022138D01*
X168325518Y-97972072D01*
X168377715Y-97895680D01*
X168396078Y-97805000D01*
X168396078Y-96505000D01*
X168380138Y-96420286D01*
X168330072Y-96342482D01*
X168253680Y-96290285D01*
X168163000Y-96271922D01*
X166863000Y-96271922D01*
X166778286Y-96287862D01*
X166700482Y-96337928D01*
X166648285Y-96414320D01*
X166629922Y-96505000D01*
X151518342Y-96505000D01*
X158525172Y-89498170D01*
X159278071Y-89498170D01*
X159652783Y-89423635D01*
X159752210Y-89357200D01*
X160274000Y-89357200D01*
X160594766Y-89293396D01*
X160866697Y-89111697D01*
X162517697Y-87460697D01*
X162699396Y-87188765D01*
X162763200Y-86868000D01*
X162763200Y-86400531D01*
X173385112Y-86400531D01*
X173708477Y-87183134D01*
X174306716Y-87782419D01*
X175088754Y-88107150D01*
X175935531Y-88107888D01*
X176718134Y-87784523D01*
X177317419Y-87186284D01*
X177642150Y-86404246D01*
X177642888Y-85557469D01*
X177319523Y-84774866D01*
X176721284Y-84175581D01*
X175939246Y-83850850D01*
X175092469Y-83850112D01*
X174309866Y-84173477D01*
X173710581Y-84771716D01*
X173385850Y-85553754D01*
X173385112Y-86400531D01*
X162763200Y-86400531D01*
X162763200Y-75042000D01*
X170947922Y-75042000D01*
X170947922Y-76342000D01*
X170963862Y-76426714D01*
X171013928Y-76504518D01*
X171090320Y-76556715D01*
X171181000Y-76575078D01*
X172481000Y-76575078D01*
X172565714Y-76559138D01*
X172643518Y-76509072D01*
X172695715Y-76432680D01*
X172714078Y-76342000D01*
X172714078Y-75042000D01*
X172698138Y-74957286D01*
X172648072Y-74879482D01*
X172571680Y-74827285D01*
X172481000Y-74808922D01*
X171181000Y-74808922D01*
X171096286Y-74824862D01*
X171018482Y-74874928D01*
X170966285Y-74951320D01*
X170947922Y-75042000D01*
X162763200Y-75042000D01*
X162763200Y-71594146D01*
X171180301Y-71594146D01*
X171242607Y-71804345D01*
X171713072Y-71944842D01*
X172201490Y-71894605D01*
X172419393Y-71804345D01*
X172481699Y-71594146D01*
X171831000Y-70943447D01*
X171180301Y-71594146D01*
X162763200Y-71594146D01*
X162763200Y-71120000D01*
X162737430Y-70990447D01*
X162699396Y-70799234D01*
X162548948Y-70574072D01*
X170578158Y-70574072D01*
X170628395Y-71062490D01*
X170718655Y-71280393D01*
X170928854Y-71342699D01*
X171579553Y-70692000D01*
X172082447Y-70692000D01*
X172733146Y-71342699D01*
X172943345Y-71280393D01*
X172958951Y-71228135D01*
X190703084Y-71228135D01*
X190980885Y-71900465D01*
X191494829Y-72415307D01*
X192166673Y-72694282D01*
X192894135Y-72694916D01*
X193566465Y-72417115D01*
X194081307Y-71903171D01*
X194360282Y-71231327D01*
X194360916Y-70503865D01*
X194083115Y-69831535D01*
X193569171Y-69316693D01*
X192897327Y-69037718D01*
X192169865Y-69037084D01*
X191497535Y-69314885D01*
X190982693Y-69828829D01*
X190703718Y-70500673D01*
X190703084Y-71228135D01*
X172958951Y-71228135D01*
X173083842Y-70809928D01*
X173033605Y-70321510D01*
X172943345Y-70103607D01*
X172733146Y-70041301D01*
X172082447Y-70692000D01*
X171579553Y-70692000D01*
X170928854Y-70041301D01*
X170718655Y-70103607D01*
X170578158Y-70574072D01*
X162548948Y-70574072D01*
X162517697Y-70527303D01*
X162427078Y-70436684D01*
X162427078Y-70089000D01*
X162411138Y-70004286D01*
X162361072Y-69926482D01*
X162284680Y-69874285D01*
X162194000Y-69855922D01*
X161846316Y-69855922D01*
X161780248Y-69789854D01*
X171180301Y-69789854D01*
X171831000Y-70440553D01*
X172481699Y-69789854D01*
X172419393Y-69579655D01*
X171948928Y-69439158D01*
X171460510Y-69489395D01*
X171242607Y-69579655D01*
X171180301Y-69789854D01*
X161780248Y-69789854D01*
X160231697Y-68241303D01*
X159959766Y-68059604D01*
X159639000Y-67995800D01*
X151384000Y-67995800D01*
X151063234Y-68059604D01*
X150791303Y-68241303D01*
X150330084Y-68702522D01*
X149047200Y-68702522D01*
X148962486Y-68718462D01*
X148884682Y-68768528D01*
X148832485Y-68844920D01*
X148814122Y-68935600D01*
X148814122Y-71170800D01*
X148830062Y-71255514D01*
X148880128Y-71333318D01*
X148956520Y-71385515D01*
X149047200Y-71403878D01*
X151282400Y-71403878D01*
X151367114Y-71387938D01*
X151444918Y-71337872D01*
X151497115Y-71261480D01*
X151515478Y-71170800D01*
X151515478Y-70621072D01*
X158291158Y-70621072D01*
X158341395Y-71109490D01*
X158431655Y-71327393D01*
X158641854Y-71389699D01*
X159292553Y-70739000D01*
X158641854Y-70088301D01*
X158431655Y-70150607D01*
X158291158Y-70621072D01*
X151515478Y-70621072D01*
X151515478Y-69887916D01*
X151731194Y-69672200D01*
X158942107Y-69672200D01*
X158893301Y-69836854D01*
X159544000Y-70487553D01*
X159558143Y-70473411D01*
X159809590Y-70724858D01*
X159795447Y-70739000D01*
X160446146Y-71389699D01*
X160656345Y-71327393D01*
X160660922Y-71312067D01*
X160660922Y-71389000D01*
X160676862Y-71473714D01*
X160726928Y-71551518D01*
X160803320Y-71603715D01*
X160894000Y-71622078D01*
X161086800Y-71622078D01*
X161086800Y-86520806D01*
X159926806Y-87680800D01*
X159752210Y-87680800D01*
X159652783Y-87614365D01*
X159278071Y-87539830D01*
X158221929Y-87539830D01*
X157847217Y-87614365D01*
X157529551Y-87826622D01*
X157317294Y-88144288D01*
X157242759Y-88519000D01*
X157317294Y-88893712D01*
X157438920Y-89075738D01*
X150528058Y-95986600D01*
X144223691Y-95986600D01*
X144132177Y-95948600D01*
X143904820Y-95948401D01*
X143694694Y-96035224D01*
X143533789Y-96195849D01*
X143446600Y-96405823D01*
X143446401Y-96633180D01*
X139779287Y-96633180D01*
X139535648Y-96043529D01*
X139043064Y-95550085D01*
X138399143Y-95282705D01*
X137701916Y-95282097D01*
X137057529Y-95548352D01*
X136564085Y-96040936D01*
X136296705Y-96684857D01*
X136296097Y-97382084D01*
X130478600Y-97382084D01*
X130478600Y-92382084D01*
X136296097Y-92382084D01*
X136562352Y-93026471D01*
X137054936Y-93519915D01*
X137698857Y-93787295D01*
X138396084Y-93787903D01*
X139040471Y-93521648D01*
X139533915Y-93029064D01*
X139801295Y-92385143D01*
X139801903Y-91687916D01*
X139535648Y-91043529D01*
X139043064Y-90550085D01*
X138399143Y-90282705D01*
X137701916Y-90282097D01*
X137057529Y-90548352D01*
X136564085Y-91040936D01*
X136296705Y-91684857D01*
X136296097Y-92382084D01*
X130478600Y-92382084D01*
X130478600Y-87382084D01*
X136296097Y-87382084D01*
X136562352Y-88026471D01*
X137054936Y-88519915D01*
X137698857Y-88787295D01*
X138396084Y-88787903D01*
X139040471Y-88521648D01*
X139533915Y-88029064D01*
X139801295Y-87385143D01*
X139801903Y-86687916D01*
X139667054Y-86361554D01*
X156972116Y-86361554D01*
X157181341Y-86797102D01*
X157575830Y-87144126D01*
X158073090Y-87313770D01*
X158572200Y-87313770D01*
X158572200Y-86156800D01*
X158927800Y-86156800D01*
X158927800Y-87313770D01*
X159426910Y-87313770D01*
X159924170Y-87144126D01*
X160318659Y-86797102D01*
X160527884Y-86361554D01*
X160424458Y-86156800D01*
X158927800Y-86156800D01*
X158572200Y-86156800D01*
X157075542Y-86156800D01*
X156972116Y-86361554D01*
X139667054Y-86361554D01*
X139535648Y-86043529D01*
X139089345Y-85596446D01*
X156972116Y-85596446D01*
X157075542Y-85801200D01*
X158572200Y-85801200D01*
X158572200Y-84644230D01*
X158927800Y-84644230D01*
X158927800Y-85801200D01*
X160424458Y-85801200D01*
X160527884Y-85596446D01*
X160318659Y-85160898D01*
X159924170Y-84813874D01*
X159426910Y-84644230D01*
X158927800Y-84644230D01*
X158572200Y-84644230D01*
X158073090Y-84644230D01*
X157575830Y-84813874D01*
X157181341Y-85160898D01*
X156972116Y-85596446D01*
X139089345Y-85596446D01*
X139043064Y-85550085D01*
X138399143Y-85282705D01*
X137701916Y-85282097D01*
X137057529Y-85548352D01*
X136564085Y-86040936D01*
X136296705Y-86684857D01*
X136296097Y-87382084D01*
X130478600Y-87382084D01*
X130478600Y-83439000D01*
X157242759Y-83439000D01*
X157317294Y-83813712D01*
X157529551Y-84131378D01*
X157847217Y-84343635D01*
X158221929Y-84418170D01*
X159278071Y-84418170D01*
X159652783Y-84343635D01*
X159970449Y-84131378D01*
X160182706Y-83813712D01*
X160257241Y-83439000D01*
X160182706Y-83064288D01*
X159970449Y-82746622D01*
X159652783Y-82534365D01*
X159278071Y-82459830D01*
X158221929Y-82459830D01*
X157847217Y-82534365D01*
X157529551Y-82746622D01*
X157317294Y-83064288D01*
X157242759Y-83439000D01*
X130478600Y-83439000D01*
X130478600Y-81460084D01*
X136296097Y-81460084D01*
X136562352Y-82104471D01*
X137054936Y-82597915D01*
X137698857Y-82865295D01*
X138396084Y-82865903D01*
X139040471Y-82599648D01*
X139533915Y-82107064D01*
X139559507Y-82045431D01*
X153568207Y-82045431D01*
X153737992Y-82456344D01*
X154052104Y-82771005D01*
X154462720Y-82941508D01*
X154907329Y-82941895D01*
X155318242Y-82772110D01*
X155632903Y-82457998D01*
X155803406Y-82047382D01*
X155803793Y-81602773D01*
X155634008Y-81191860D01*
X155319896Y-80877199D01*
X154909280Y-80706696D01*
X154464671Y-80706309D01*
X154053758Y-80876094D01*
X153739097Y-81190206D01*
X153568594Y-81600822D01*
X153568207Y-82045431D01*
X139559507Y-82045431D01*
X139801295Y-81463143D01*
X139801903Y-80765916D01*
X139535648Y-80121529D01*
X139043064Y-79628085D01*
X138399143Y-79360705D01*
X137701916Y-79360097D01*
X137057529Y-79626352D01*
X136564085Y-80118936D01*
X136296705Y-80762857D01*
X136296097Y-81460084D01*
X130478600Y-81460084D01*
X130478600Y-78640933D01*
X149648573Y-78640933D01*
X149915084Y-79162907D01*
X150361059Y-79543159D01*
X150684965Y-79677325D01*
X150916098Y-79576305D01*
X150916098Y-78409800D01*
X151271698Y-78409800D01*
X151271698Y-79576305D01*
X151502831Y-79677325D01*
X152024805Y-79410814D01*
X152405057Y-78964839D01*
X152539223Y-78640933D01*
X152457228Y-78453329D01*
X157160309Y-78453329D01*
X157330094Y-78864242D01*
X157644206Y-79178903D01*
X158054822Y-79349406D01*
X158499431Y-79349793D01*
X158910344Y-79180008D01*
X159225005Y-78865896D01*
X159395508Y-78455280D01*
X159395895Y-78010671D01*
X159226110Y-77599758D01*
X158911998Y-77285097D01*
X158501382Y-77114594D01*
X158056773Y-77114207D01*
X157645860Y-77283992D01*
X157331199Y-77598104D01*
X157160696Y-78008720D01*
X157160309Y-78453329D01*
X152457228Y-78453329D01*
X152438203Y-78409800D01*
X151271698Y-78409800D01*
X150916098Y-78409800D01*
X149749593Y-78409800D01*
X149648573Y-78640933D01*
X130478600Y-78640933D01*
X130478600Y-76460084D01*
X136296097Y-76460084D01*
X136562352Y-77104471D01*
X137054936Y-77597915D01*
X137698857Y-77865295D01*
X138396084Y-77865903D01*
X139040471Y-77599648D01*
X139533915Y-77107064D01*
X139801295Y-76463143D01*
X139801834Y-75844400D01*
X143276922Y-75844400D01*
X143276922Y-77876400D01*
X143292862Y-77961114D01*
X143342928Y-78038918D01*
X143419320Y-78091115D01*
X143510000Y-78109478D01*
X145542000Y-78109478D01*
X145626714Y-78093538D01*
X145704518Y-78043472D01*
X145756715Y-77967080D01*
X145775078Y-77876400D01*
X145775078Y-76836017D01*
X145821400Y-76836017D01*
X145821400Y-76884783D01*
X145916140Y-77361071D01*
X146185935Y-77764848D01*
X146589712Y-78034643D01*
X147066000Y-78129383D01*
X147542288Y-78034643D01*
X147858934Y-77823067D01*
X149648573Y-77823067D01*
X149749593Y-78054200D01*
X150916098Y-78054200D01*
X150916098Y-76887695D01*
X151271698Y-76887695D01*
X151271698Y-78054200D01*
X152438203Y-78054200D01*
X152539223Y-77823067D01*
X152272712Y-77301093D01*
X151826737Y-76920841D01*
X151502831Y-76786675D01*
X151271698Y-76887695D01*
X150916098Y-76887695D01*
X150684965Y-76786675D01*
X150162991Y-77053186D01*
X149782739Y-77499161D01*
X149648573Y-77823067D01*
X147858934Y-77823067D01*
X147946065Y-77764848D01*
X148215860Y-77361071D01*
X148310600Y-76884783D01*
X148310600Y-76836017D01*
X148215860Y-76359729D01*
X147946065Y-75955952D01*
X147542288Y-75686157D01*
X147066000Y-75591417D01*
X146589712Y-75686157D01*
X146185935Y-75955952D01*
X145916140Y-76359729D01*
X145821400Y-76836017D01*
X145775078Y-76836017D01*
X145775078Y-75844400D01*
X145759138Y-75759686D01*
X145709072Y-75681882D01*
X145632680Y-75629685D01*
X145542000Y-75611322D01*
X143510000Y-75611322D01*
X143425286Y-75627262D01*
X143347482Y-75677328D01*
X143295285Y-75753720D01*
X143276922Y-75844400D01*
X139801834Y-75844400D01*
X139801903Y-75765916D01*
X139535648Y-75121529D01*
X139275800Y-74861227D01*
X153568207Y-74861227D01*
X153737992Y-75272140D01*
X154052104Y-75586801D01*
X154462720Y-75757304D01*
X154907329Y-75757691D01*
X155318242Y-75587906D01*
X155632903Y-75273794D01*
X155803406Y-74863178D01*
X155803793Y-74418569D01*
X155634008Y-74007656D01*
X155319896Y-73692995D01*
X154909280Y-73522492D01*
X154464671Y-73522105D01*
X154053758Y-73691890D01*
X153739097Y-74006002D01*
X153568594Y-74416618D01*
X153568207Y-74861227D01*
X139275800Y-74861227D01*
X139043064Y-74628085D01*
X138399143Y-74360705D01*
X137701916Y-74360097D01*
X137057529Y-74626352D01*
X136564085Y-75118936D01*
X136296705Y-75762857D01*
X136296097Y-76460084D01*
X130478600Y-76460084D01*
X130478600Y-71228135D01*
X131775084Y-71228135D01*
X132052885Y-71900465D01*
X132566829Y-72415307D01*
X133238673Y-72694282D01*
X133966135Y-72694916D01*
X134638465Y-72417115D01*
X135153307Y-71903171D01*
X135432282Y-71231327D01*
X135432916Y-70503865D01*
X135380518Y-70377050D01*
X140893800Y-70377050D01*
X140893800Y-71287004D01*
X140982739Y-71501722D01*
X141147077Y-71666061D01*
X141361795Y-71755000D01*
X142271750Y-71755000D01*
X142417800Y-71608950D01*
X142417800Y-70231000D01*
X142773400Y-70231000D01*
X142773400Y-71608950D01*
X142919450Y-71755000D01*
X143829405Y-71755000D01*
X144044123Y-71666061D01*
X144069037Y-71641146D01*
X158893301Y-71641146D01*
X158955607Y-71851345D01*
X159426072Y-71991842D01*
X159914490Y-71941605D01*
X160132393Y-71851345D01*
X160194699Y-71641146D01*
X159544000Y-70990447D01*
X158893301Y-71641146D01*
X144069037Y-71641146D01*
X144208461Y-71501722D01*
X144297400Y-71287004D01*
X144297400Y-70377050D01*
X144151350Y-70231000D01*
X142773400Y-70231000D01*
X142417800Y-70231000D01*
X141039850Y-70231000D01*
X140893800Y-70377050D01*
X135380518Y-70377050D01*
X135155115Y-69831535D01*
X134641171Y-69316693D01*
X133969327Y-69037718D01*
X133241865Y-69037084D01*
X132569535Y-69314885D01*
X132054693Y-69828829D01*
X131775718Y-70500673D01*
X131775084Y-71228135D01*
X130478600Y-71228135D01*
X130478600Y-68819396D01*
X140893800Y-68819396D01*
X140893800Y-69729350D01*
X141039850Y-69875400D01*
X142417800Y-69875400D01*
X142417800Y-68497450D01*
X142773400Y-68497450D01*
X142773400Y-69875400D01*
X144151350Y-69875400D01*
X144297400Y-69729350D01*
X144297400Y-68935600D01*
X145156522Y-68935600D01*
X145156522Y-71170800D01*
X145172462Y-71255514D01*
X145222528Y-71333318D01*
X145298920Y-71385515D01*
X145389600Y-71403878D01*
X147624800Y-71403878D01*
X147709514Y-71387938D01*
X147787318Y-71337872D01*
X147839515Y-71261480D01*
X147857878Y-71170800D01*
X147857878Y-68935600D01*
X147841938Y-68850886D01*
X147791872Y-68773082D01*
X147715480Y-68720885D01*
X147624800Y-68702522D01*
X145389600Y-68702522D01*
X145304886Y-68718462D01*
X145227082Y-68768528D01*
X145174885Y-68844920D01*
X145156522Y-68935600D01*
X144297400Y-68935600D01*
X144297400Y-68819396D01*
X144208461Y-68604678D01*
X144044123Y-68440339D01*
X143829405Y-68351400D01*
X142919450Y-68351400D01*
X142773400Y-68497450D01*
X142417800Y-68497450D01*
X142271750Y-68351400D01*
X141361795Y-68351400D01*
X141147077Y-68440339D01*
X140982739Y-68604678D01*
X140893800Y-68819396D01*
X130478600Y-68819396D01*
X130478600Y-67740600D01*
X195657400Y-67740600D01*
X195657400Y-116155400D01*
X195657400Y-116155400D01*
G37*
X195657400Y-116155400D02*
X130478600Y-116155400D01*
X130478600Y-113392135D01*
X131775084Y-113392135D01*
X132052885Y-114064465D01*
X132566829Y-114579307D01*
X133238673Y-114858282D01*
X133966135Y-114858916D01*
X134638465Y-114581115D01*
X135153307Y-114067171D01*
X135432282Y-113395327D01*
X135432910Y-112674400D01*
X152700322Y-112674400D01*
X152700322Y-114909600D01*
X152716262Y-114994314D01*
X152766328Y-115072118D01*
X152842720Y-115124315D01*
X152933400Y-115142678D01*
X155168600Y-115142678D01*
X155253314Y-115126738D01*
X155331118Y-115076672D01*
X155383315Y-115000280D01*
X155401678Y-114909600D01*
X155401678Y-112674400D01*
X156510322Y-112674400D01*
X156510322Y-114909600D01*
X156526262Y-114994314D01*
X156576328Y-115072118D01*
X156652720Y-115124315D01*
X156743400Y-115142678D01*
X158978600Y-115142678D01*
X159063314Y-115126738D01*
X159141118Y-115076672D01*
X159193315Y-115000280D01*
X159211678Y-114909600D01*
X159211678Y-113392135D01*
X190703084Y-113392135D01*
X190980885Y-114064465D01*
X191494829Y-114579307D01*
X192166673Y-114858282D01*
X192894135Y-114858916D01*
X193566465Y-114581115D01*
X194081307Y-114067171D01*
X194360282Y-113395327D01*
X194360916Y-112667865D01*
X194083115Y-111995535D01*
X193569171Y-111480693D01*
X192897327Y-111201718D01*
X192169865Y-111201084D01*
X191497535Y-111478885D01*
X190982693Y-111992829D01*
X190703718Y-112664673D01*
X190703084Y-113392135D01*
X159211678Y-113392135D01*
X159211678Y-112674400D01*
X159195738Y-112589686D01*
X159145672Y-112511882D01*
X159069280Y-112459685D01*
X158978600Y-112441322D01*
X156743400Y-112441322D01*
X156658686Y-112457262D01*
X156580882Y-112507328D01*
X156528685Y-112583720D01*
X156510322Y-112674400D01*
X155401678Y-112674400D01*
X155385738Y-112589686D01*
X155335672Y-112511882D01*
X155259280Y-112459685D01*
X155168600Y-112441322D01*
X152933400Y-112441322D01*
X152848686Y-112457262D01*
X152770882Y-112507328D01*
X152718685Y-112583720D01*
X152700322Y-112674400D01*
X135432910Y-112674400D01*
X135432916Y-112667865D01*
X135155115Y-111995535D01*
X134641171Y-111480693D01*
X133969327Y-111201718D01*
X133241865Y-111201084D01*
X132569535Y-111478885D01*
X132054693Y-111992829D01*
X131775718Y-112664673D01*
X131775084Y-113392135D01*
X130478600Y-113392135D01*
X130478600Y-109948084D01*
X139765097Y-109948084D01*
X140031352Y-110592471D01*
X140523936Y-111085915D01*
X141167857Y-111353295D01*
X141865084Y-111353903D01*
X142509471Y-111087648D01*
X143002915Y-110595064D01*
X143270295Y-109951143D01*
X143270297Y-109948084D01*
X144765097Y-109948084D01*
X145031352Y-110592471D01*
X145523936Y-111085915D01*
X146167857Y-111353295D01*
X146865084Y-111353903D01*
X147509471Y-111087648D01*
X148002915Y-110595064D01*
X148270295Y-109951143D01*
X148270903Y-109253916D01*
X148005008Y-108610400D01*
X170607322Y-108610400D01*
X170607322Y-110845600D01*
X170623262Y-110930314D01*
X170673328Y-111008118D01*
X170749720Y-111060315D01*
X170840400Y-111078678D01*
X173075600Y-111078678D01*
X173160314Y-111062738D01*
X173238118Y-111012672D01*
X173290315Y-110936280D01*
X173308678Y-110845600D01*
X173308678Y-108610400D01*
X178481322Y-108610400D01*
X178481322Y-110845600D01*
X178497262Y-110930314D01*
X178547328Y-111008118D01*
X178623720Y-111060315D01*
X178714400Y-111078678D01*
X180949600Y-111078678D01*
X181034314Y-111062738D01*
X181112118Y-111012672D01*
X181164315Y-110936280D01*
X181182678Y-110845600D01*
X181182678Y-108610400D01*
X181166738Y-108525686D01*
X181116672Y-108447882D01*
X181040280Y-108395685D01*
X180949600Y-108377322D01*
X178714400Y-108377322D01*
X178629686Y-108393262D01*
X178551882Y-108443328D01*
X178499685Y-108519720D01*
X178481322Y-108610400D01*
X173308678Y-108610400D01*
X173292738Y-108525686D01*
X173242672Y-108447882D01*
X173166280Y-108395685D01*
X173075600Y-108377322D01*
X170840400Y-108377322D01*
X170755686Y-108393262D01*
X170677882Y-108443328D01*
X170625685Y-108519720D01*
X170607322Y-108610400D01*
X148005008Y-108610400D01*
X148004648Y-108609529D01*
X147512064Y-108116085D01*
X146868143Y-107848705D01*
X146170916Y-107848097D01*
X145526529Y-108114352D01*
X145033085Y-108606936D01*
X144765705Y-109250857D01*
X144765097Y-109948084D01*
X143270297Y-109948084D01*
X143270903Y-109253916D01*
X143004648Y-108609529D01*
X142512064Y-108116085D01*
X141868143Y-107848705D01*
X141170916Y-107848097D01*
X140526529Y-108114352D01*
X140033085Y-108606936D01*
X139765705Y-109250857D01*
X139765097Y-109948084D01*
X130478600Y-109948084D01*
X130478600Y-102602180D01*
X172529401Y-102602180D01*
X172616224Y-102812306D01*
X172776849Y-102973211D01*
X172986823Y-103060400D01*
X173214180Y-103060599D01*
X173424306Y-102973776D01*
X173585211Y-102813151D01*
X173672400Y-102603177D01*
X173672500Y-102489000D01*
X185262184Y-102489000D01*
X185008184Y-102743000D01*
X182672182Y-102743000D01*
X182569151Y-102639789D01*
X182359177Y-102552600D01*
X182131820Y-102552401D01*
X181921694Y-102639224D01*
X181760789Y-102799849D01*
X181673600Y-103009823D01*
X181673401Y-103237180D01*
X181760224Y-103447306D01*
X181920849Y-103608211D01*
X182130823Y-103695400D01*
X182358180Y-103695599D01*
X182568306Y-103608776D01*
X182672263Y-103505000D01*
X185166000Y-103505000D01*
X185311803Y-103475998D01*
X185435408Y-103393408D01*
X189451345Y-99377471D01*
X189597180Y-99377599D01*
X189807306Y-99290776D01*
X189968211Y-99130151D01*
X190055400Y-98920177D01*
X190055599Y-98692820D01*
X189968776Y-98482694D01*
X189808151Y-98321789D01*
X189598177Y-98234600D01*
X189370820Y-98234401D01*
X189160694Y-98321224D01*
X188999789Y-98481849D01*
X188912600Y-98691823D01*
X188912471Y-98838713D01*
X187071000Y-100680184D01*
X187071000Y-81453182D01*
X187174211Y-81350151D01*
X187261400Y-81140177D01*
X187261599Y-80912820D01*
X187174776Y-80702694D01*
X187014151Y-80541789D01*
X186804177Y-80454600D01*
X186576820Y-80454401D01*
X186366694Y-80541224D01*
X186205789Y-80701849D01*
X186118600Y-80911823D01*
X186118401Y-81139180D01*
X186205224Y-81349306D01*
X186309000Y-81453263D01*
X186309000Y-100680184D01*
X185262184Y-101727000D01*
X173482000Y-101727000D01*
X173336198Y-101756002D01*
X173212592Y-101838592D01*
X173212590Y-101838595D01*
X173133656Y-101917529D01*
X172987820Y-101917401D01*
X172777694Y-102004224D01*
X172616789Y-102164849D01*
X172529600Y-102374823D01*
X172529401Y-102602180D01*
X130478600Y-102602180D01*
X130478600Y-100057146D01*
X166862301Y-100057146D01*
X166924607Y-100267345D01*
X167395072Y-100407842D01*
X167883490Y-100357605D01*
X168101393Y-100267345D01*
X168163699Y-100057146D01*
X167513000Y-99406447D01*
X166862301Y-100057146D01*
X130478600Y-100057146D01*
X130478600Y-99037072D01*
X166260158Y-99037072D01*
X166310395Y-99525490D01*
X166400655Y-99743393D01*
X166610854Y-99805699D01*
X167261553Y-99155000D01*
X167764447Y-99155000D01*
X168415146Y-99805699D01*
X168625345Y-99743393D01*
X168765842Y-99272928D01*
X168715605Y-98784510D01*
X168625345Y-98566607D01*
X168415146Y-98504301D01*
X167764447Y-99155000D01*
X167261553Y-99155000D01*
X166610854Y-98504301D01*
X166400655Y-98566607D01*
X166260158Y-99037072D01*
X130478600Y-99037072D01*
X130478600Y-97382084D01*
X136296097Y-97382084D01*
X136562352Y-98026471D01*
X137054936Y-98519915D01*
X137698857Y-98787295D01*
X138396084Y-98787903D01*
X139040471Y-98521648D01*
X139533915Y-98029064D01*
X139801295Y-97385143D01*
X139801903Y-96687916D01*
X139779287Y-96633180D01*
X143446401Y-96633180D01*
X143533224Y-96843306D01*
X143693849Y-97004211D01*
X143903823Y-97091400D01*
X144131180Y-97091599D01*
X144223628Y-97053400D01*
X150749000Y-97053400D01*
X150953123Y-97012797D01*
X151126171Y-96897171D01*
X151518342Y-96505000D01*
X166629922Y-96505000D01*
X166629922Y-97805000D01*
X166645862Y-97889714D01*
X166695928Y-97967518D01*
X166772320Y-98019715D01*
X166863000Y-98038078D01*
X166935657Y-98038078D01*
X166924607Y-98042655D01*
X166862301Y-98252854D01*
X167513000Y-98903553D01*
X168163699Y-98252854D01*
X168101393Y-98042655D01*
X168086067Y-98038078D01*
X168163000Y-98038078D01*
X168247714Y-98022138D01*
X168325518Y-97972072D01*
X168377715Y-97895680D01*
X168396078Y-97805000D01*
X168396078Y-96505000D01*
X168380138Y-96420286D01*
X168330072Y-96342482D01*
X168253680Y-96290285D01*
X168163000Y-96271922D01*
X166863000Y-96271922D01*
X166778286Y-96287862D01*
X166700482Y-96337928D01*
X166648285Y-96414320D01*
X166629922Y-96505000D01*
X151518342Y-96505000D01*
X158525172Y-89498170D01*
X159278071Y-89498170D01*
X159652783Y-89423635D01*
X159752210Y-89357200D01*
X160274000Y-89357200D01*
X160594766Y-89293396D01*
X160866697Y-89111697D01*
X162517697Y-87460697D01*
X162699396Y-87188765D01*
X162763200Y-86868000D01*
X162763200Y-86400531D01*
X173385112Y-86400531D01*
X173708477Y-87183134D01*
X174306716Y-87782419D01*
X175088754Y-88107150D01*
X175935531Y-88107888D01*
X176718134Y-87784523D01*
X177317419Y-87186284D01*
X177642150Y-86404246D01*
X177642888Y-85557469D01*
X177319523Y-84774866D01*
X176721284Y-84175581D01*
X175939246Y-83850850D01*
X175092469Y-83850112D01*
X174309866Y-84173477D01*
X173710581Y-84771716D01*
X173385850Y-85553754D01*
X173385112Y-86400531D01*
X162763200Y-86400531D01*
X162763200Y-75042000D01*
X170947922Y-75042000D01*
X170947922Y-76342000D01*
X170963862Y-76426714D01*
X171013928Y-76504518D01*
X171090320Y-76556715D01*
X171181000Y-76575078D01*
X172481000Y-76575078D01*
X172565714Y-76559138D01*
X172643518Y-76509072D01*
X172695715Y-76432680D01*
X172714078Y-76342000D01*
X172714078Y-75042000D01*
X172698138Y-74957286D01*
X172648072Y-74879482D01*
X172571680Y-74827285D01*
X172481000Y-74808922D01*
X171181000Y-74808922D01*
X171096286Y-74824862D01*
X171018482Y-74874928D01*
X170966285Y-74951320D01*
X170947922Y-75042000D01*
X162763200Y-75042000D01*
X162763200Y-71594146D01*
X171180301Y-71594146D01*
X171242607Y-71804345D01*
X171713072Y-71944842D01*
X172201490Y-71894605D01*
X172419393Y-71804345D01*
X172481699Y-71594146D01*
X171831000Y-70943447D01*
X171180301Y-71594146D01*
X162763200Y-71594146D01*
X162763200Y-71120000D01*
X162737430Y-70990447D01*
X162699396Y-70799234D01*
X162548948Y-70574072D01*
X170578158Y-70574072D01*
X170628395Y-71062490D01*
X170718655Y-71280393D01*
X170928854Y-71342699D01*
X171579553Y-70692000D01*
X172082447Y-70692000D01*
X172733146Y-71342699D01*
X172943345Y-71280393D01*
X172958951Y-71228135D01*
X190703084Y-71228135D01*
X190980885Y-71900465D01*
X191494829Y-72415307D01*
X192166673Y-72694282D01*
X192894135Y-72694916D01*
X193566465Y-72417115D01*
X194081307Y-71903171D01*
X194360282Y-71231327D01*
X194360916Y-70503865D01*
X194083115Y-69831535D01*
X193569171Y-69316693D01*
X192897327Y-69037718D01*
X192169865Y-69037084D01*
X191497535Y-69314885D01*
X190982693Y-69828829D01*
X190703718Y-70500673D01*
X190703084Y-71228135D01*
X172958951Y-71228135D01*
X173083842Y-70809928D01*
X173033605Y-70321510D01*
X172943345Y-70103607D01*
X172733146Y-70041301D01*
X172082447Y-70692000D01*
X171579553Y-70692000D01*
X170928854Y-70041301D01*
X170718655Y-70103607D01*
X170578158Y-70574072D01*
X162548948Y-70574072D01*
X162517697Y-70527303D01*
X162427078Y-70436684D01*
X162427078Y-70089000D01*
X162411138Y-70004286D01*
X162361072Y-69926482D01*
X162284680Y-69874285D01*
X162194000Y-69855922D01*
X161846316Y-69855922D01*
X161780248Y-69789854D01*
X171180301Y-69789854D01*
X171831000Y-70440553D01*
X172481699Y-69789854D01*
X172419393Y-69579655D01*
X171948928Y-69439158D01*
X171460510Y-69489395D01*
X171242607Y-69579655D01*
X171180301Y-69789854D01*
X161780248Y-69789854D01*
X160231697Y-68241303D01*
X159959766Y-68059604D01*
X159639000Y-67995800D01*
X151384000Y-67995800D01*
X151063234Y-68059604D01*
X150791303Y-68241303D01*
X150330084Y-68702522D01*
X149047200Y-68702522D01*
X148962486Y-68718462D01*
X148884682Y-68768528D01*
X148832485Y-68844920D01*
X148814122Y-68935600D01*
X148814122Y-71170800D01*
X148830062Y-71255514D01*
X148880128Y-71333318D01*
X148956520Y-71385515D01*
X149047200Y-71403878D01*
X151282400Y-71403878D01*
X151367114Y-71387938D01*
X151444918Y-71337872D01*
X151497115Y-71261480D01*
X151515478Y-71170800D01*
X151515478Y-70621072D01*
X158291158Y-70621072D01*
X158341395Y-71109490D01*
X158431655Y-71327393D01*
X158641854Y-71389699D01*
X159292553Y-70739000D01*
X158641854Y-70088301D01*
X158431655Y-70150607D01*
X158291158Y-70621072D01*
X151515478Y-70621072D01*
X151515478Y-69887916D01*
X151731194Y-69672200D01*
X158942107Y-69672200D01*
X158893301Y-69836854D01*
X159544000Y-70487553D01*
X159558143Y-70473411D01*
X159809590Y-70724858D01*
X159795447Y-70739000D01*
X160446146Y-71389699D01*
X160656345Y-71327393D01*
X160660922Y-71312067D01*
X160660922Y-71389000D01*
X160676862Y-71473714D01*
X160726928Y-71551518D01*
X160803320Y-71603715D01*
X160894000Y-71622078D01*
X161086800Y-71622078D01*
X161086800Y-86520806D01*
X159926806Y-87680800D01*
X159752210Y-87680800D01*
X159652783Y-87614365D01*
X159278071Y-87539830D01*
X158221929Y-87539830D01*
X157847217Y-87614365D01*
X157529551Y-87826622D01*
X157317294Y-88144288D01*
X157242759Y-88519000D01*
X157317294Y-88893712D01*
X157438920Y-89075738D01*
X150528058Y-95986600D01*
X144223691Y-95986600D01*
X144132177Y-95948600D01*
X143904820Y-95948401D01*
X143694694Y-96035224D01*
X143533789Y-96195849D01*
X143446600Y-96405823D01*
X143446401Y-96633180D01*
X139779287Y-96633180D01*
X139535648Y-96043529D01*
X139043064Y-95550085D01*
X138399143Y-95282705D01*
X137701916Y-95282097D01*
X137057529Y-95548352D01*
X136564085Y-96040936D01*
X136296705Y-96684857D01*
X136296097Y-97382084D01*
X130478600Y-97382084D01*
X130478600Y-92382084D01*
X136296097Y-92382084D01*
X136562352Y-93026471D01*
X137054936Y-93519915D01*
X137698857Y-93787295D01*
X138396084Y-93787903D01*
X139040471Y-93521648D01*
X139533915Y-93029064D01*
X139801295Y-92385143D01*
X139801903Y-91687916D01*
X139535648Y-91043529D01*
X139043064Y-90550085D01*
X138399143Y-90282705D01*
X137701916Y-90282097D01*
X137057529Y-90548352D01*
X136564085Y-91040936D01*
X136296705Y-91684857D01*
X136296097Y-92382084D01*
X130478600Y-92382084D01*
X130478600Y-87382084D01*
X136296097Y-87382084D01*
X136562352Y-88026471D01*
X137054936Y-88519915D01*
X137698857Y-88787295D01*
X138396084Y-88787903D01*
X139040471Y-88521648D01*
X139533915Y-88029064D01*
X139801295Y-87385143D01*
X139801903Y-86687916D01*
X139667054Y-86361554D01*
X156972116Y-86361554D01*
X157181341Y-86797102D01*
X157575830Y-87144126D01*
X158073090Y-87313770D01*
X158572200Y-87313770D01*
X158572200Y-86156800D01*
X158927800Y-86156800D01*
X158927800Y-87313770D01*
X159426910Y-87313770D01*
X159924170Y-87144126D01*
X160318659Y-86797102D01*
X160527884Y-86361554D01*
X160424458Y-86156800D01*
X158927800Y-86156800D01*
X158572200Y-86156800D01*
X157075542Y-86156800D01*
X156972116Y-86361554D01*
X139667054Y-86361554D01*
X139535648Y-86043529D01*
X139089345Y-85596446D01*
X156972116Y-85596446D01*
X157075542Y-85801200D01*
X158572200Y-85801200D01*
X158572200Y-84644230D01*
X158927800Y-84644230D01*
X158927800Y-85801200D01*
X160424458Y-85801200D01*
X160527884Y-85596446D01*
X160318659Y-85160898D01*
X159924170Y-84813874D01*
X159426910Y-84644230D01*
X158927800Y-84644230D01*
X158572200Y-84644230D01*
X158073090Y-84644230D01*
X157575830Y-84813874D01*
X157181341Y-85160898D01*
X156972116Y-85596446D01*
X139089345Y-85596446D01*
X139043064Y-85550085D01*
X138399143Y-85282705D01*
X137701916Y-85282097D01*
X137057529Y-85548352D01*
X136564085Y-86040936D01*
X136296705Y-86684857D01*
X136296097Y-87382084D01*
X130478600Y-87382084D01*
X130478600Y-83439000D01*
X157242759Y-83439000D01*
X157317294Y-83813712D01*
X157529551Y-84131378D01*
X157847217Y-84343635D01*
X158221929Y-84418170D01*
X159278071Y-84418170D01*
X159652783Y-84343635D01*
X159970449Y-84131378D01*
X160182706Y-83813712D01*
X160257241Y-83439000D01*
X160182706Y-83064288D01*
X159970449Y-82746622D01*
X159652783Y-82534365D01*
X159278071Y-82459830D01*
X158221929Y-82459830D01*
X157847217Y-82534365D01*
X157529551Y-82746622D01*
X157317294Y-83064288D01*
X157242759Y-83439000D01*
X130478600Y-83439000D01*
X130478600Y-81460084D01*
X136296097Y-81460084D01*
X136562352Y-82104471D01*
X137054936Y-82597915D01*
X137698857Y-82865295D01*
X138396084Y-82865903D01*
X139040471Y-82599648D01*
X139533915Y-82107064D01*
X139559507Y-82045431D01*
X153568207Y-82045431D01*
X153737992Y-82456344D01*
X154052104Y-82771005D01*
X154462720Y-82941508D01*
X154907329Y-82941895D01*
X155318242Y-82772110D01*
X155632903Y-82457998D01*
X155803406Y-82047382D01*
X155803793Y-81602773D01*
X155634008Y-81191860D01*
X155319896Y-80877199D01*
X154909280Y-80706696D01*
X154464671Y-80706309D01*
X154053758Y-80876094D01*
X153739097Y-81190206D01*
X153568594Y-81600822D01*
X153568207Y-82045431D01*
X139559507Y-82045431D01*
X139801295Y-81463143D01*
X139801903Y-80765916D01*
X139535648Y-80121529D01*
X139043064Y-79628085D01*
X138399143Y-79360705D01*
X137701916Y-79360097D01*
X137057529Y-79626352D01*
X136564085Y-80118936D01*
X136296705Y-80762857D01*
X136296097Y-81460084D01*
X130478600Y-81460084D01*
X130478600Y-78640933D01*
X149648573Y-78640933D01*
X149915084Y-79162907D01*
X150361059Y-79543159D01*
X150684965Y-79677325D01*
X150916098Y-79576305D01*
X150916098Y-78409800D01*
X151271698Y-78409800D01*
X151271698Y-79576305D01*
X151502831Y-79677325D01*
X152024805Y-79410814D01*
X152405057Y-78964839D01*
X152539223Y-78640933D01*
X152457228Y-78453329D01*
X157160309Y-78453329D01*
X157330094Y-78864242D01*
X157644206Y-79178903D01*
X158054822Y-79349406D01*
X158499431Y-79349793D01*
X158910344Y-79180008D01*
X159225005Y-78865896D01*
X159395508Y-78455280D01*
X159395895Y-78010671D01*
X159226110Y-77599758D01*
X158911998Y-77285097D01*
X158501382Y-77114594D01*
X158056773Y-77114207D01*
X157645860Y-77283992D01*
X157331199Y-77598104D01*
X157160696Y-78008720D01*
X157160309Y-78453329D01*
X152457228Y-78453329D01*
X152438203Y-78409800D01*
X151271698Y-78409800D01*
X150916098Y-78409800D01*
X149749593Y-78409800D01*
X149648573Y-78640933D01*
X130478600Y-78640933D01*
X130478600Y-76460084D01*
X136296097Y-76460084D01*
X136562352Y-77104471D01*
X137054936Y-77597915D01*
X137698857Y-77865295D01*
X138396084Y-77865903D01*
X139040471Y-77599648D01*
X139533915Y-77107064D01*
X139801295Y-76463143D01*
X139801834Y-75844400D01*
X143276922Y-75844400D01*
X143276922Y-77876400D01*
X143292862Y-77961114D01*
X143342928Y-78038918D01*
X143419320Y-78091115D01*
X143510000Y-78109478D01*
X145542000Y-78109478D01*
X145626714Y-78093538D01*
X145704518Y-78043472D01*
X145756715Y-77967080D01*
X145775078Y-77876400D01*
X145775078Y-76836017D01*
X145821400Y-76836017D01*
X145821400Y-76884783D01*
X145916140Y-77361071D01*
X146185935Y-77764848D01*
X146589712Y-78034643D01*
X147066000Y-78129383D01*
X147542288Y-78034643D01*
X147858934Y-77823067D01*
X149648573Y-77823067D01*
X149749593Y-78054200D01*
X150916098Y-78054200D01*
X150916098Y-76887695D01*
X151271698Y-76887695D01*
X151271698Y-78054200D01*
X152438203Y-78054200D01*
X152539223Y-77823067D01*
X152272712Y-77301093D01*
X151826737Y-76920841D01*
X151502831Y-76786675D01*
X151271698Y-76887695D01*
X150916098Y-76887695D01*
X150684965Y-76786675D01*
X150162991Y-77053186D01*
X149782739Y-77499161D01*
X149648573Y-77823067D01*
X147858934Y-77823067D01*
X147946065Y-77764848D01*
X148215860Y-77361071D01*
X148310600Y-76884783D01*
X148310600Y-76836017D01*
X148215860Y-76359729D01*
X147946065Y-75955952D01*
X147542288Y-75686157D01*
X147066000Y-75591417D01*
X146589712Y-75686157D01*
X146185935Y-75955952D01*
X145916140Y-76359729D01*
X145821400Y-76836017D01*
X145775078Y-76836017D01*
X145775078Y-75844400D01*
X145759138Y-75759686D01*
X145709072Y-75681882D01*
X145632680Y-75629685D01*
X145542000Y-75611322D01*
X143510000Y-75611322D01*
X143425286Y-75627262D01*
X143347482Y-75677328D01*
X143295285Y-75753720D01*
X143276922Y-75844400D01*
X139801834Y-75844400D01*
X139801903Y-75765916D01*
X139535648Y-75121529D01*
X139275800Y-74861227D01*
X153568207Y-74861227D01*
X153737992Y-75272140D01*
X154052104Y-75586801D01*
X154462720Y-75757304D01*
X154907329Y-75757691D01*
X155318242Y-75587906D01*
X155632903Y-75273794D01*
X155803406Y-74863178D01*
X155803793Y-74418569D01*
X155634008Y-74007656D01*
X155319896Y-73692995D01*
X154909280Y-73522492D01*
X154464671Y-73522105D01*
X154053758Y-73691890D01*
X153739097Y-74006002D01*
X153568594Y-74416618D01*
X153568207Y-74861227D01*
X139275800Y-74861227D01*
X139043064Y-74628085D01*
X138399143Y-74360705D01*
X137701916Y-74360097D01*
X137057529Y-74626352D01*
X136564085Y-75118936D01*
X136296705Y-75762857D01*
X136296097Y-76460084D01*
X130478600Y-76460084D01*
X130478600Y-71228135D01*
X131775084Y-71228135D01*
X132052885Y-71900465D01*
X132566829Y-72415307D01*
X133238673Y-72694282D01*
X133966135Y-72694916D01*
X134638465Y-72417115D01*
X135153307Y-71903171D01*
X135432282Y-71231327D01*
X135432916Y-70503865D01*
X135380518Y-70377050D01*
X140893800Y-70377050D01*
X140893800Y-71287004D01*
X140982739Y-71501722D01*
X141147077Y-71666061D01*
X141361795Y-71755000D01*
X142271750Y-71755000D01*
X142417800Y-71608950D01*
X142417800Y-70231000D01*
X142773400Y-70231000D01*
X142773400Y-71608950D01*
X142919450Y-71755000D01*
X143829405Y-71755000D01*
X144044123Y-71666061D01*
X144069037Y-71641146D01*
X158893301Y-71641146D01*
X158955607Y-71851345D01*
X159426072Y-71991842D01*
X159914490Y-71941605D01*
X160132393Y-71851345D01*
X160194699Y-71641146D01*
X159544000Y-70990447D01*
X158893301Y-71641146D01*
X144069037Y-71641146D01*
X144208461Y-71501722D01*
X144297400Y-71287004D01*
X144297400Y-70377050D01*
X144151350Y-70231000D01*
X142773400Y-70231000D01*
X142417800Y-70231000D01*
X141039850Y-70231000D01*
X140893800Y-70377050D01*
X135380518Y-70377050D01*
X135155115Y-69831535D01*
X134641171Y-69316693D01*
X133969327Y-69037718D01*
X133241865Y-69037084D01*
X132569535Y-69314885D01*
X132054693Y-69828829D01*
X131775718Y-70500673D01*
X131775084Y-71228135D01*
X130478600Y-71228135D01*
X130478600Y-68819396D01*
X140893800Y-68819396D01*
X140893800Y-69729350D01*
X141039850Y-69875400D01*
X142417800Y-69875400D01*
X142417800Y-68497450D01*
X142773400Y-68497450D01*
X142773400Y-69875400D01*
X144151350Y-69875400D01*
X144297400Y-69729350D01*
X144297400Y-68935600D01*
X145156522Y-68935600D01*
X145156522Y-71170800D01*
X145172462Y-71255514D01*
X145222528Y-71333318D01*
X145298920Y-71385515D01*
X145389600Y-71403878D01*
X147624800Y-71403878D01*
X147709514Y-71387938D01*
X147787318Y-71337872D01*
X147839515Y-71261480D01*
X147857878Y-71170800D01*
X147857878Y-68935600D01*
X147841938Y-68850886D01*
X147791872Y-68773082D01*
X147715480Y-68720885D01*
X147624800Y-68702522D01*
X145389600Y-68702522D01*
X145304886Y-68718462D01*
X145227082Y-68768528D01*
X145174885Y-68844920D01*
X145156522Y-68935600D01*
X144297400Y-68935600D01*
X144297400Y-68819396D01*
X144208461Y-68604678D01*
X144044123Y-68440339D01*
X143829405Y-68351400D01*
X142919450Y-68351400D01*
X142773400Y-68497450D01*
X142417800Y-68497450D01*
X142271750Y-68351400D01*
X141361795Y-68351400D01*
X141147077Y-68440339D01*
X140982739Y-68604678D01*
X140893800Y-68819396D01*
X130478600Y-68819396D01*
X130478600Y-67740600D01*
X195657400Y-67740600D01*
X195657400Y-116155400D01*
M02*
