G04 #@! TF.FileFunction,Soldermask,Top*
%FSLAX46Y46*%
G04 Gerber Fmt 4.6, Leading zero omitted, Abs format (unit mm)*
G04 Created by KiCad (PCBNEW 4.0.0-2.201512072331+6194~38~ubuntu14.04.1-stable) date Mon 06 Jun 2016 10:48:40 PM CEST*
%MOMM*%
G01*
G04 APERTURE LIST*
%ADD10C,0.100000*%
%ADD11C,3.448000*%
%ADD12R,1.700000X1.700000*%
%ADD13C,1.700000*%
%ADD14R,1.650000X1.900000*%
%ADD15R,1.900000X1.650000*%
%ADD16R,2.400000X2.000000*%
%ADD17R,1.000000X1.100000*%
%ADD18C,1.924000*%
%ADD19R,1.598880X1.598880*%
%ADD20R,1.100000X1.000000*%
%ADD21R,1.200100X1.200100*%
%ADD22R,1.900000X1.700000*%
%ADD23R,1.700000X1.900000*%
%ADD24R,2.432000X2.432000*%
%ADD25O,2.432000X2.432000*%
%ADD26R,2.508200X2.508200*%
%ADD27R,1.000000X1.950000*%
%ADD28C,3.600000*%
%ADD29R,3.900000X3.900000*%
%ADD30O,2.899360X1.901140*%
%ADD31C,4.199840*%
%ADD32C,5.480000*%
G04 APERTURE END LIST*
D10*
D11*
X138049000Y-76113000D03*
X138049000Y-81113000D03*
D12*
X164211000Y-84582000D03*
D13*
X164211000Y-89582000D03*
D14*
X174371000Y-85237000D03*
X174371000Y-87737000D03*
D15*
X165334000Y-80264000D03*
X162834000Y-80264000D03*
D12*
X159512000Y-70993000D03*
D13*
X157512000Y-70993000D03*
D15*
X174478000Y-106426000D03*
X171978000Y-106426000D03*
D14*
X184404000Y-88666000D03*
X184404000Y-91166000D03*
X153162000Y-91841000D03*
X153162000Y-94341000D03*
X155829000Y-91841000D03*
X155829000Y-94341000D03*
D12*
X165989000Y-98171000D03*
D13*
X165989000Y-100171000D03*
D16*
X178530000Y-90932000D03*
X174530000Y-90932000D03*
D17*
X153986000Y-103886000D03*
X155386000Y-103886000D03*
D18*
X151093898Y-78232000D03*
X154686000Y-74639898D03*
X158278102Y-78232000D03*
X154686000Y-81824102D03*
D19*
X189517020Y-105918000D03*
X187418980Y-105918000D03*
D20*
X157988000Y-91375000D03*
X157988000Y-92775000D03*
D19*
X189517020Y-102616000D03*
X187418980Y-102616000D03*
D20*
X149225000Y-93280000D03*
X149225000Y-94680000D03*
D11*
X138049000Y-102910000D03*
X138049000Y-107910000D03*
D21*
X157668000Y-97932240D03*
X155768000Y-97932240D03*
X156718000Y-99931220D03*
D22*
X186610000Y-108204000D03*
X189310000Y-108204000D03*
X171624000Y-104140000D03*
X174324000Y-104140000D03*
D23*
X181610000Y-88312000D03*
X181610000Y-91012000D03*
D22*
X157273000Y-102108000D03*
X159973000Y-102108000D03*
X184324000Y-98552000D03*
X187024000Y-98552000D03*
D23*
X160528000Y-97997000D03*
X160528000Y-95297000D03*
D22*
X146765000Y-92202000D03*
X144065000Y-92202000D03*
X144065000Y-94742000D03*
X146765000Y-94742000D03*
X168609000Y-94615000D03*
X165909000Y-94615000D03*
D18*
X146685000Y-107823000D03*
X151765000Y-107823000D03*
X156845000Y-107823000D03*
X161925000Y-107823000D03*
D24*
X144272000Y-75311000D03*
D25*
X146812000Y-75311000D03*
D26*
X193001900Y-84340700D03*
X193001900Y-93459300D03*
X188506100Y-84340700D03*
X188506100Y-93459300D03*
D27*
X177419000Y-100490000D03*
X178689000Y-100490000D03*
X179959000Y-100490000D03*
X181229000Y-100490000D03*
X181229000Y-95090000D03*
X179959000Y-95090000D03*
X178689000Y-95090000D03*
X177419000Y-95090000D03*
D28*
X133604000Y-70866000D03*
X192532000Y-70866000D03*
X192532000Y-113030000D03*
X133604000Y-113030000D03*
D11*
X138049000Y-87035000D03*
X138049000Y-92035000D03*
X138049000Y-97035000D03*
D29*
X151739600Y-86106000D03*
X144932400Y-86106000D03*
D30*
X165354000Y-74803000D03*
X165354000Y-72263000D03*
X165354000Y-77343000D03*
D31*
X182118000Y-74803000D03*
D32*
X182118000Y-74803000D03*
M02*
