G04 #@! TF.FileFunction,Soldermask,Top*
%FSLAX46Y46*%
G04 Gerber Fmt 4.6, Leading zero omitted, Abs format (unit mm)*
G04 Created by KiCad (PCBNEW 4.0.0-2.201512072331+6194~38~ubuntu14.04.1-stable) date Sun 05 Jun 2016 08:25:22 PM CEST*
%MOMM*%
G01*
G04 APERTURE LIST*
%ADD10C,0.100000*%
%ADD11R,1.700000X1.700000*%
%ADD12C,1.700000*%
%ADD13R,1.650000X1.900000*%
%ADD14R,1.900000X1.650000*%
%ADD15R,2.400000X2.000000*%
%ADD16R,1.000000X1.100000*%
%ADD17C,1.924000*%
%ADD18R,1.598880X1.598880*%
%ADD19R,1.100000X1.000000*%
%ADD20C,3.448000*%
%ADD21R,1.200100X1.200100*%
%ADD22R,1.900000X1.700000*%
%ADD23R,1.700000X1.900000*%
%ADD24R,2.432000X2.432000*%
%ADD25O,2.432000X2.432000*%
%ADD26R,2.508200X2.508200*%
%ADD27O,1.901140X2.899360*%
%ADD28R,1.000000X1.950000*%
%ADD29C,3.600000*%
G04 APERTURE END LIST*
D10*
D11*
X164592000Y-83566000D03*
D12*
X164592000Y-88566000D03*
D13*
X171196000Y-88412000D03*
X171196000Y-90912000D03*
D14*
X172700000Y-80772000D03*
X170200000Y-80772000D03*
D11*
X175514000Y-85344000D03*
D12*
X173514000Y-85344000D03*
D14*
X174478000Y-106426000D03*
X171978000Y-106426000D03*
D13*
X184404000Y-88666000D03*
X184404000Y-91166000D03*
X153162000Y-91841000D03*
X153162000Y-94341000D03*
X155829000Y-91841000D03*
X155829000Y-94341000D03*
D11*
X165989000Y-98171000D03*
D12*
X165989000Y-100171000D03*
D15*
X178530000Y-90932000D03*
X174530000Y-90932000D03*
D16*
X153986000Y-103886000D03*
X155386000Y-103886000D03*
D17*
X147283898Y-82296000D03*
X150876000Y-78703898D03*
X154468102Y-82296000D03*
X150876000Y-85888102D03*
D18*
X189517020Y-105918000D03*
X187418980Y-105918000D03*
D19*
X157988000Y-91375000D03*
X157988000Y-92775000D03*
D18*
X189517020Y-102616000D03*
X187418980Y-102616000D03*
D16*
X151068000Y-94742000D03*
X149668000Y-94742000D03*
D20*
X138049000Y-102910000D03*
X138049000Y-107910000D03*
X138557000Y-76240000D03*
X138557000Y-81240000D03*
X138303000Y-87035000D03*
X138303000Y-92035000D03*
X138303000Y-97035000D03*
D21*
X157668000Y-97932240D03*
X155768000Y-97932240D03*
X156718000Y-99931220D03*
D22*
X186610000Y-108204000D03*
X189310000Y-108204000D03*
X171624000Y-104140000D03*
X174324000Y-104140000D03*
D23*
X181610000Y-88312000D03*
X181610000Y-91012000D03*
D22*
X157273000Y-102108000D03*
X159973000Y-102108000D03*
X184324000Y-98552000D03*
X187024000Y-98552000D03*
X146638000Y-87122000D03*
X143938000Y-87122000D03*
D23*
X160528000Y-97997000D03*
X160528000Y-95297000D03*
D22*
X146511000Y-91948000D03*
X143811000Y-91948000D03*
X143811000Y-94742000D03*
X146511000Y-94742000D03*
X168609000Y-94615000D03*
X165909000Y-94615000D03*
D17*
X146685000Y-107823000D03*
X151765000Y-107823000D03*
X156845000Y-107823000D03*
X161925000Y-107823000D03*
D24*
X148463000Y-75184000D03*
D25*
X151003000Y-75184000D03*
D26*
X189445900Y-75450700D03*
X189445900Y-84569300D03*
X184950100Y-75450700D03*
X184950100Y-84569300D03*
D27*
X169926000Y-77216000D03*
X167386000Y-77216000D03*
X172466000Y-77216000D03*
D28*
X177419000Y-100490000D03*
X178689000Y-100490000D03*
X179959000Y-100490000D03*
X181229000Y-100490000D03*
X181229000Y-95090000D03*
X179959000Y-95090000D03*
X178689000Y-95090000D03*
X177419000Y-95090000D03*
D29*
X133604000Y-70866000D03*
X192532000Y-70866000D03*
X192532000Y-113030000D03*
X133604000Y-113030000D03*
M02*
