G04 #@! TF.FileFunction,Legend,Top*
%FSLAX46Y46*%
G04 Gerber Fmt 4.6, Leading zero omitted, Abs format (unit mm)*
G04 Created by KiCad (PCBNEW 4.0.0-2.201512072331+6194~38~ubuntu14.04.1-stable) date Mon 13 Jun 2016 09:22:46 PM CEST*
%MOMM*%
G01*
G04 APERTURE LIST*
%ADD10C,0.100000*%
%ADD11C,0.127000*%
%ADD12C,0.254000*%
%ADD13C,0.190500*%
%ADD14C,0.150000*%
G04 APERTURE END LIST*
D10*
D11*
X145875829Y-79694314D02*
X145875829Y-78932314D01*
X146166114Y-78932314D01*
X146238686Y-78968600D01*
X146274971Y-79004886D01*
X146311257Y-79077457D01*
X146311257Y-79186314D01*
X146274971Y-79258886D01*
X146238686Y-79295171D01*
X146166114Y-79331457D01*
X145875829Y-79331457D01*
X146746686Y-79694314D02*
X146674114Y-79658029D01*
X146637829Y-79621743D01*
X146601543Y-79549171D01*
X146601543Y-79331457D01*
X146637829Y-79258886D01*
X146674114Y-79222600D01*
X146746686Y-79186314D01*
X146855543Y-79186314D01*
X146928114Y-79222600D01*
X146964400Y-79258886D01*
X147000686Y-79331457D01*
X147000686Y-79549171D01*
X146964400Y-79621743D01*
X146928114Y-79658029D01*
X146855543Y-79694314D01*
X146746686Y-79694314D01*
X147254686Y-79186314D02*
X147399829Y-79694314D01*
X147544972Y-79331457D01*
X147690115Y-79694314D01*
X147835258Y-79186314D01*
X148415829Y-79658029D02*
X148343258Y-79694314D01*
X148198115Y-79694314D01*
X148125544Y-79658029D01*
X148089258Y-79585457D01*
X148089258Y-79295171D01*
X148125544Y-79222600D01*
X148198115Y-79186314D01*
X148343258Y-79186314D01*
X148415829Y-79222600D01*
X148452115Y-79295171D01*
X148452115Y-79367743D01*
X148089258Y-79440314D01*
X148778687Y-79694314D02*
X148778687Y-79186314D01*
X148778687Y-79331457D02*
X148814972Y-79258886D01*
X148851258Y-79222600D01*
X148923829Y-79186314D01*
X148996401Y-79186314D01*
X138883571Y-69596000D02*
X138811000Y-69559714D01*
X138702143Y-69559714D01*
X138593286Y-69596000D01*
X138520714Y-69668571D01*
X138484429Y-69741143D01*
X138448143Y-69886286D01*
X138448143Y-69995143D01*
X138484429Y-70140286D01*
X138520714Y-70212857D01*
X138593286Y-70285429D01*
X138702143Y-70321714D01*
X138774714Y-70321714D01*
X138883571Y-70285429D01*
X138919857Y-70249143D01*
X138919857Y-69995143D01*
X138774714Y-69995143D01*
X139246429Y-70321714D02*
X139246429Y-69559714D01*
X139681857Y-70321714D01*
X139681857Y-69559714D01*
X140044715Y-70321714D02*
X140044715Y-69559714D01*
X140226143Y-69559714D01*
X140335000Y-69596000D01*
X140407572Y-69668571D01*
X140443857Y-69741143D01*
X140480143Y-69886286D01*
X140480143Y-69995143D01*
X140443857Y-70140286D01*
X140407572Y-70212857D01*
X140335000Y-70285429D01*
X140226143Y-70321714D01*
X140044715Y-70321714D01*
X145727057Y-72937914D02*
X145981057Y-73699914D01*
X146235057Y-72937914D01*
X146489058Y-73699914D02*
X146489058Y-73191914D01*
X146489058Y-72937914D02*
X146452772Y-72974200D01*
X146489058Y-73010486D01*
X146525343Y-72974200D01*
X146489058Y-72937914D01*
X146489058Y-73010486D01*
X146851915Y-73191914D02*
X146851915Y-73699914D01*
X146851915Y-73264486D02*
X146888200Y-73228200D01*
X146960772Y-73191914D01*
X147069629Y-73191914D01*
X147142200Y-73228200D01*
X147178486Y-73300771D01*
X147178486Y-73699914D01*
X144288329Y-100765429D02*
X144288329Y-100511429D01*
X143889186Y-100511429D02*
X144651186Y-100511429D01*
X144651186Y-100874286D01*
X143925471Y-101128286D02*
X143889186Y-101237143D01*
X143889186Y-101418572D01*
X143925471Y-101491143D01*
X143961757Y-101527429D01*
X144034329Y-101563714D01*
X144106900Y-101563714D01*
X144179471Y-101527429D01*
X144215757Y-101491143D01*
X144252043Y-101418572D01*
X144288329Y-101273429D01*
X144324614Y-101200857D01*
X144360900Y-101164572D01*
X144433471Y-101128286D01*
X144506043Y-101128286D01*
X144578614Y-101164572D01*
X144614900Y-101200857D01*
X144651186Y-101273429D01*
X144651186Y-101454857D01*
X144614900Y-101563714D01*
X144578614Y-101854000D02*
X144614900Y-101890286D01*
X144651186Y-101962857D01*
X144651186Y-102144286D01*
X144614900Y-102216857D01*
X144578614Y-102253143D01*
X144506043Y-102289428D01*
X144433471Y-102289428D01*
X144324614Y-102253143D01*
X143889186Y-101817714D01*
X143889186Y-102289428D01*
X144651186Y-102761142D02*
X144651186Y-102833714D01*
X144614900Y-102906285D01*
X144578614Y-102942571D01*
X144506043Y-102978857D01*
X144360900Y-103015142D01*
X144179471Y-103015142D01*
X144034329Y-102978857D01*
X143961757Y-102942571D01*
X143925471Y-102906285D01*
X143889186Y-102833714D01*
X143889186Y-102761142D01*
X143925471Y-102688571D01*
X143961757Y-102652285D01*
X144034329Y-102616000D01*
X144179471Y-102579714D01*
X144360900Y-102579714D01*
X144506043Y-102616000D01*
X144578614Y-102652285D01*
X144614900Y-102688571D01*
X144651186Y-102761142D01*
X142731671Y-100475143D02*
X142695386Y-100584000D01*
X142695386Y-100765429D01*
X142731671Y-100838000D01*
X142767957Y-100874286D01*
X142840529Y-100910571D01*
X142913100Y-100910571D01*
X142985671Y-100874286D01*
X143021957Y-100838000D01*
X143058243Y-100765429D01*
X143094529Y-100620286D01*
X143130814Y-100547714D01*
X143167100Y-100511429D01*
X143239671Y-100475143D01*
X143312243Y-100475143D01*
X143384814Y-100511429D01*
X143421100Y-100547714D01*
X143457386Y-100620286D01*
X143457386Y-100801714D01*
X143421100Y-100910571D01*
X143457386Y-101128285D02*
X143457386Y-101563714D01*
X142695386Y-101346000D02*
X143457386Y-101346000D01*
X142695386Y-102216856D02*
X142695386Y-101781428D01*
X142695386Y-101999142D02*
X143457386Y-101999142D01*
X143348529Y-101926571D01*
X143275957Y-101853999D01*
X143239671Y-101781428D01*
X153107571Y-102307571D02*
X153143857Y-102198714D01*
X153180143Y-102162429D01*
X153252714Y-102126143D01*
X153361571Y-102126143D01*
X153434143Y-102162429D01*
X153470429Y-102198714D01*
X153506714Y-102271286D01*
X153506714Y-102561571D01*
X152744714Y-102561571D01*
X152744714Y-102307571D01*
X152781000Y-102235000D01*
X152817286Y-102198714D01*
X152889857Y-102162429D01*
X152962429Y-102162429D01*
X153035000Y-102198714D01*
X153071286Y-102235000D01*
X153107571Y-102307571D01*
X153107571Y-102561571D01*
X153506714Y-101473000D02*
X153107571Y-101473000D01*
X153035000Y-101509286D01*
X152998714Y-101581857D01*
X152998714Y-101727000D01*
X153035000Y-101799571D01*
X153470429Y-101473000D02*
X153506714Y-101545571D01*
X153506714Y-101727000D01*
X153470429Y-101799571D01*
X153397857Y-101835857D01*
X153325286Y-101835857D01*
X153252714Y-101799571D01*
X153216429Y-101727000D01*
X153216429Y-101545571D01*
X153180143Y-101473000D01*
X153470429Y-101146428D02*
X153506714Y-101073857D01*
X153506714Y-100928714D01*
X153470429Y-100856142D01*
X153397857Y-100819857D01*
X153361571Y-100819857D01*
X153289000Y-100856142D01*
X153252714Y-100928714D01*
X153252714Y-101037571D01*
X153216429Y-101110142D01*
X153143857Y-101146428D01*
X153107571Y-101146428D01*
X153035000Y-101110142D01*
X152998714Y-101037571D01*
X152998714Y-100928714D01*
X153035000Y-100856142D01*
X153470429Y-100203000D02*
X153506714Y-100275571D01*
X153506714Y-100420714D01*
X153470429Y-100493285D01*
X153397857Y-100529571D01*
X153107571Y-100529571D01*
X153035000Y-100493285D01*
X152998714Y-100420714D01*
X152998714Y-100275571D01*
X153035000Y-100203000D01*
X153107571Y-100166714D01*
X153180143Y-100166714D01*
X153252714Y-100529571D01*
X182607857Y-110326714D02*
X182353857Y-109963857D01*
X182172429Y-110326714D02*
X182172429Y-109564714D01*
X182462714Y-109564714D01*
X182535286Y-109601000D01*
X182571571Y-109637286D01*
X182607857Y-109709857D01*
X182607857Y-109818714D01*
X182571571Y-109891286D01*
X182535286Y-109927571D01*
X182462714Y-109963857D01*
X182172429Y-109963857D01*
X183224714Y-110290429D02*
X183152143Y-110326714D01*
X183007000Y-110326714D01*
X182934429Y-110290429D01*
X182898143Y-110217857D01*
X182898143Y-109927571D01*
X182934429Y-109855000D01*
X183007000Y-109818714D01*
X183152143Y-109818714D01*
X183224714Y-109855000D01*
X183261000Y-109927571D01*
X183261000Y-110000143D01*
X182898143Y-110072714D01*
X183696429Y-110326714D02*
X183623857Y-110290429D01*
X183587572Y-110217857D01*
X183587572Y-109564714D01*
X184313286Y-110326714D02*
X184313286Y-109927571D01*
X184277000Y-109855000D01*
X184204429Y-109818714D01*
X184059286Y-109818714D01*
X183986715Y-109855000D01*
X184313286Y-110290429D02*
X184240715Y-110326714D01*
X184059286Y-110326714D01*
X183986715Y-110290429D01*
X183950429Y-110217857D01*
X183950429Y-110145286D01*
X183986715Y-110072714D01*
X184059286Y-110036429D01*
X184240715Y-110036429D01*
X184313286Y-110000143D01*
X184603572Y-109818714D02*
X184785001Y-110326714D01*
X184966429Y-109818714D02*
X184785001Y-110326714D01*
X184712429Y-110508143D01*
X184676144Y-110544429D01*
X184603572Y-110580714D01*
X174189571Y-109437714D02*
X174625000Y-109437714D01*
X174407286Y-110199714D02*
X174407286Y-109437714D01*
X174879000Y-110199714D02*
X174879000Y-109691714D01*
X174879000Y-109836857D02*
X174915285Y-109764286D01*
X174951571Y-109728000D01*
X175024142Y-109691714D01*
X175096714Y-109691714D01*
X175350714Y-110199714D02*
X175350714Y-109691714D01*
X175350714Y-109437714D02*
X175314428Y-109474000D01*
X175350714Y-109510286D01*
X175386999Y-109474000D01*
X175350714Y-109437714D01*
X175350714Y-109510286D01*
X176040142Y-109691714D02*
X176040142Y-110308571D01*
X176003856Y-110381143D01*
X175967571Y-110417429D01*
X175894999Y-110453714D01*
X175786142Y-110453714D01*
X175713571Y-110417429D01*
X176040142Y-110163429D02*
X175967571Y-110199714D01*
X175822428Y-110199714D01*
X175749856Y-110163429D01*
X175713571Y-110127143D01*
X175677285Y-110054571D01*
X175677285Y-109836857D01*
X175713571Y-109764286D01*
X175749856Y-109728000D01*
X175822428Y-109691714D01*
X175967571Y-109691714D01*
X176040142Y-109728000D01*
X176729571Y-109691714D02*
X176729571Y-110308571D01*
X176693285Y-110381143D01*
X176657000Y-110417429D01*
X176584428Y-110453714D01*
X176475571Y-110453714D01*
X176403000Y-110417429D01*
X176729571Y-110163429D02*
X176657000Y-110199714D01*
X176511857Y-110199714D01*
X176439285Y-110163429D01*
X176403000Y-110127143D01*
X176366714Y-110054571D01*
X176366714Y-109836857D01*
X176403000Y-109764286D01*
X176439285Y-109728000D01*
X176511857Y-109691714D01*
X176657000Y-109691714D01*
X176729571Y-109728000D01*
X177382714Y-110163429D02*
X177310143Y-110199714D01*
X177165000Y-110199714D01*
X177092429Y-110163429D01*
X177056143Y-110090857D01*
X177056143Y-109800571D01*
X177092429Y-109728000D01*
X177165000Y-109691714D01*
X177310143Y-109691714D01*
X177382714Y-109728000D01*
X177419000Y-109800571D01*
X177419000Y-109873143D01*
X177056143Y-109945714D01*
X177745572Y-110199714D02*
X177745572Y-109691714D01*
X177745572Y-109836857D02*
X177781857Y-109764286D01*
X177818143Y-109728000D01*
X177890714Y-109691714D01*
X177963286Y-109691714D01*
X149003656Y-72988714D02*
X149257656Y-73750714D01*
X149511656Y-72988714D01*
X149874514Y-73750714D02*
X149801942Y-73714429D01*
X149765657Y-73678143D01*
X149729371Y-73605571D01*
X149729371Y-73387857D01*
X149765657Y-73315286D01*
X149801942Y-73279000D01*
X149874514Y-73242714D01*
X149983371Y-73242714D01*
X150055942Y-73279000D01*
X150092228Y-73315286D01*
X150128514Y-73387857D01*
X150128514Y-73605571D01*
X150092228Y-73678143D01*
X150055942Y-73714429D01*
X149983371Y-73750714D01*
X149874514Y-73750714D01*
X150781657Y-73242714D02*
X150781657Y-73750714D01*
X150455086Y-73242714D02*
X150455086Y-73641857D01*
X150491371Y-73714429D01*
X150563943Y-73750714D01*
X150672800Y-73750714D01*
X150745371Y-73714429D01*
X150781657Y-73678143D01*
X151035657Y-73242714D02*
X151325943Y-73242714D01*
X151144515Y-72988714D02*
X151144515Y-73641857D01*
X151180800Y-73714429D01*
X151253372Y-73750714D01*
X151325943Y-73750714D01*
D12*
X191262000Y-74984429D02*
X191262000Y-75347286D01*
X190899143Y-75202143D02*
X191262000Y-75347286D01*
X191624858Y-75202143D01*
X191044286Y-75637571D02*
X191262000Y-75347286D01*
X191479715Y-75637571D01*
X177927000Y-104575429D02*
X177927000Y-104938286D01*
X177564143Y-104793143D02*
X177927000Y-104938286D01*
X178289858Y-104793143D01*
X177709286Y-105228571D02*
X177927000Y-104938286D01*
X178144715Y-105228571D01*
X163757429Y-71228857D02*
X164918572Y-71228857D01*
X164338001Y-71809429D02*
X164338001Y-70648286D01*
X159744229Y-78188457D02*
X160905372Y-78188457D01*
X160324801Y-78769029D02*
X160324801Y-77607886D01*
D11*
X133056086Y-85743143D02*
X133818086Y-85743143D01*
X133564086Y-86106000D02*
X133056086Y-86106000D01*
X133491514Y-86106000D02*
X133527800Y-86142285D01*
X133564086Y-86214857D01*
X133564086Y-86323714D01*
X133527800Y-86396285D01*
X133455229Y-86432571D01*
X133056086Y-86432571D01*
X133564086Y-86795429D02*
X132802086Y-86795429D01*
X133527800Y-86795429D02*
X133564086Y-86868000D01*
X133564086Y-87013143D01*
X133527800Y-87085714D01*
X133491514Y-87122000D01*
X133418943Y-87158286D01*
X133201229Y-87158286D01*
X133128657Y-87122000D01*
X133092371Y-87085714D01*
X133056086Y-87013143D01*
X133056086Y-86868000D01*
X133092371Y-86795429D01*
X133564086Y-87811429D02*
X133056086Y-87811429D01*
X133564086Y-87484858D02*
X133164943Y-87484858D01*
X133092371Y-87521143D01*
X133056086Y-87593715D01*
X133056086Y-87702572D01*
X133092371Y-87775143D01*
X133128657Y-87811429D01*
X133564086Y-88065429D02*
X133564086Y-88355715D01*
X133818086Y-88174287D02*
X133164943Y-88174287D01*
X133092371Y-88210572D01*
X133056086Y-88283144D01*
X133056086Y-88355715D01*
X132624286Y-85362144D02*
X132624286Y-84999287D01*
X132261429Y-84963001D01*
X132297714Y-84999287D01*
X132334000Y-85071858D01*
X132334000Y-85253287D01*
X132297714Y-85325858D01*
X132261429Y-85362144D01*
X132188857Y-85398429D01*
X132007429Y-85398429D01*
X131934857Y-85362144D01*
X131898571Y-85325858D01*
X131862286Y-85253287D01*
X131862286Y-85071858D01*
X131898571Y-84999287D01*
X131934857Y-84963001D01*
X132152571Y-85725001D02*
X132152571Y-86305572D01*
X131862286Y-87067572D02*
X131862286Y-86632144D01*
X131862286Y-86849858D02*
X132624286Y-86849858D01*
X132515429Y-86777287D01*
X132442857Y-86704715D01*
X132406571Y-86632144D01*
X132551714Y-87357858D02*
X132588000Y-87394144D01*
X132624286Y-87466715D01*
X132624286Y-87648144D01*
X132588000Y-87720715D01*
X132551714Y-87757001D01*
X132479143Y-87793286D01*
X132406571Y-87793286D01*
X132297714Y-87757001D01*
X131862286Y-87321572D01*
X131862286Y-87793286D01*
X132624286Y-88011000D02*
X131862286Y-88265000D01*
X132624286Y-88519000D01*
X130886200Y-85670572D02*
X130886200Y-86033429D01*
X130668486Y-85598000D02*
X131430486Y-85852000D01*
X130668486Y-86106000D01*
X130741057Y-86795429D02*
X130704771Y-86759143D01*
X130668486Y-86650286D01*
X130668486Y-86577715D01*
X130704771Y-86468858D01*
X130777343Y-86396286D01*
X130849914Y-86360001D01*
X130995057Y-86323715D01*
X131103914Y-86323715D01*
X131249057Y-86360001D01*
X131321629Y-86396286D01*
X131394200Y-86468858D01*
X131430486Y-86577715D01*
X131430486Y-86650286D01*
X131394200Y-86759143D01*
X131357914Y-86795429D01*
X130668486Y-87122001D02*
X131430486Y-87122001D01*
X131430486Y-87303429D01*
X131394200Y-87412286D01*
X131321629Y-87484858D01*
X131249057Y-87521143D01*
X131103914Y-87557429D01*
X130995057Y-87557429D01*
X130849914Y-87521143D01*
X130777343Y-87484858D01*
X130704771Y-87412286D01*
X130668486Y-87303429D01*
X130668486Y-87122001D01*
X130741057Y-88319429D02*
X130704771Y-88283143D01*
X130668486Y-88174286D01*
X130668486Y-88101715D01*
X130704771Y-87992858D01*
X130777343Y-87920286D01*
X130849914Y-87884001D01*
X130995057Y-87847715D01*
X131103914Y-87847715D01*
X131249057Y-87884001D01*
X131321629Y-87920286D01*
X131394200Y-87992858D01*
X131430486Y-88101715D01*
X131430486Y-88174286D01*
X131394200Y-88283143D01*
X131357914Y-88319429D01*
X133221186Y-90750572D02*
X133983186Y-90750572D01*
X133983186Y-91040857D01*
X133946900Y-91113429D01*
X133910614Y-91149714D01*
X133838043Y-91186000D01*
X133729186Y-91186000D01*
X133656614Y-91149714D01*
X133620329Y-91113429D01*
X133584043Y-91040857D01*
X133584043Y-90750572D01*
X133729186Y-91839143D02*
X133221186Y-91839143D01*
X133729186Y-91512572D02*
X133330043Y-91512572D01*
X133257471Y-91548857D01*
X133221186Y-91621429D01*
X133221186Y-91730286D01*
X133257471Y-91802857D01*
X133293757Y-91839143D01*
X133257471Y-92165715D02*
X133221186Y-92238286D01*
X133221186Y-92383429D01*
X133257471Y-92456001D01*
X133330043Y-92492286D01*
X133366329Y-92492286D01*
X133438900Y-92456001D01*
X133475186Y-92383429D01*
X133475186Y-92274572D01*
X133511471Y-92202001D01*
X133584043Y-92165715D01*
X133620329Y-92165715D01*
X133692900Y-92202001D01*
X133729186Y-92274572D01*
X133729186Y-92383429D01*
X133692900Y-92456001D01*
X133221186Y-92818858D02*
X133983186Y-92818858D01*
X133221186Y-93145429D02*
X133620329Y-93145429D01*
X133692900Y-93109143D01*
X133729186Y-93036572D01*
X133729186Y-92927715D01*
X133692900Y-92855143D01*
X133656614Y-92818858D01*
X132426529Y-90532857D02*
X132390243Y-90641714D01*
X132353957Y-90677999D01*
X132281386Y-90714285D01*
X132172529Y-90714285D01*
X132099957Y-90677999D01*
X132063671Y-90641714D01*
X132027386Y-90569142D01*
X132027386Y-90278857D01*
X132789386Y-90278857D01*
X132789386Y-90532857D01*
X132753100Y-90605428D01*
X132716814Y-90641714D01*
X132644243Y-90677999D01*
X132571671Y-90677999D01*
X132499100Y-90641714D01*
X132462814Y-90605428D01*
X132426529Y-90532857D01*
X132426529Y-90278857D01*
X132535386Y-91367428D02*
X132027386Y-91367428D01*
X132535386Y-91040857D02*
X132136243Y-91040857D01*
X132063671Y-91077142D01*
X132027386Y-91149714D01*
X132027386Y-91258571D01*
X132063671Y-91331142D01*
X132099957Y-91367428D01*
X132535386Y-91621428D02*
X132535386Y-91911714D01*
X132789386Y-91730286D02*
X132136243Y-91730286D01*
X132063671Y-91766571D01*
X132027386Y-91839143D01*
X132027386Y-91911714D01*
X132535386Y-92056857D02*
X132535386Y-92347143D01*
X132789386Y-92165715D02*
X132136243Y-92165715D01*
X132063671Y-92202000D01*
X132027386Y-92274572D01*
X132027386Y-92347143D01*
X132027386Y-92710001D02*
X132063671Y-92637429D01*
X132099957Y-92601144D01*
X132172529Y-92564858D01*
X132390243Y-92564858D01*
X132462814Y-92601144D01*
X132499100Y-92637429D01*
X132535386Y-92710001D01*
X132535386Y-92818858D01*
X132499100Y-92891429D01*
X132462814Y-92927715D01*
X132390243Y-92964001D01*
X132172529Y-92964001D01*
X132099957Y-92927715D01*
X132063671Y-92891429D01*
X132027386Y-92818858D01*
X132027386Y-92710001D01*
X132535386Y-93290573D02*
X132027386Y-93290573D01*
X132462814Y-93290573D02*
X132499100Y-93326858D01*
X132535386Y-93399430D01*
X132535386Y-93508287D01*
X132499100Y-93580858D01*
X132426529Y-93617144D01*
X132027386Y-93617144D01*
X133731000Y-96447428D02*
X133767286Y-96374857D01*
X133767286Y-96266000D01*
X133731000Y-96157143D01*
X133658429Y-96084571D01*
X133585857Y-96048286D01*
X133440714Y-96012000D01*
X133331857Y-96012000D01*
X133186714Y-96048286D01*
X133114143Y-96084571D01*
X133041571Y-96157143D01*
X133005286Y-96266000D01*
X133005286Y-96338571D01*
X133041571Y-96447428D01*
X133077857Y-96483714D01*
X133331857Y-96483714D01*
X133331857Y-96338571D01*
X133005286Y-96810286D02*
X133767286Y-96810286D01*
X133005286Y-97245714D01*
X133767286Y-97245714D01*
X133005286Y-97608572D02*
X133767286Y-97608572D01*
X133767286Y-97790000D01*
X133731000Y-97898857D01*
X133658429Y-97971429D01*
X133585857Y-98007714D01*
X133440714Y-98044000D01*
X133331857Y-98044000D01*
X133186714Y-98007714D01*
X133114143Y-97971429D01*
X133041571Y-97898857D01*
X133005286Y-97790000D01*
X133005286Y-97608572D01*
X145650856Y-89498714D02*
X145795999Y-89498714D01*
X145868571Y-89535000D01*
X145941142Y-89607571D01*
X145977428Y-89752714D01*
X145977428Y-90006714D01*
X145941142Y-90151857D01*
X145868571Y-90224429D01*
X145795999Y-90260714D01*
X145650856Y-90260714D01*
X145578285Y-90224429D01*
X145505714Y-90151857D01*
X145469428Y-90006714D01*
X145469428Y-89752714D01*
X145505714Y-89607571D01*
X145578285Y-89535000D01*
X145650856Y-89498714D01*
X146304000Y-89752714D02*
X146304000Y-90514714D01*
X146304000Y-89789000D02*
X146376571Y-89752714D01*
X146521714Y-89752714D01*
X146594285Y-89789000D01*
X146630571Y-89825286D01*
X146666857Y-89897857D01*
X146666857Y-90115571D01*
X146630571Y-90188143D01*
X146594285Y-90224429D01*
X146521714Y-90260714D01*
X146376571Y-90260714D01*
X146304000Y-90224429D01*
X146884571Y-89752714D02*
X147174857Y-89752714D01*
X146993429Y-89498714D02*
X146993429Y-90151857D01*
X147029714Y-90224429D01*
X147102286Y-90260714D01*
X147174857Y-90260714D01*
X147428858Y-90260714D02*
X147428858Y-89752714D01*
X147428858Y-89498714D02*
X147392572Y-89535000D01*
X147428858Y-89571286D01*
X147465143Y-89535000D01*
X147428858Y-89498714D01*
X147428858Y-89571286D01*
X147900572Y-90260714D02*
X147828000Y-90224429D01*
X147791715Y-90188143D01*
X147755429Y-90115571D01*
X147755429Y-89897857D01*
X147791715Y-89825286D01*
X147828000Y-89789000D01*
X147900572Y-89752714D01*
X148009429Y-89752714D01*
X148082000Y-89789000D01*
X148118286Y-89825286D01*
X148154572Y-89897857D01*
X148154572Y-90115571D01*
X148118286Y-90188143D01*
X148082000Y-90224429D01*
X148009429Y-90260714D01*
X147900572Y-90260714D01*
X148481144Y-89752714D02*
X148481144Y-90260714D01*
X148481144Y-89825286D02*
X148517429Y-89789000D01*
X148590001Y-89752714D01*
X148698858Y-89752714D01*
X148771429Y-89789000D01*
X148807715Y-89861571D01*
X148807715Y-90260714D01*
X149497144Y-90260714D02*
X149497144Y-89861571D01*
X149460858Y-89789000D01*
X149388287Y-89752714D01*
X149243144Y-89752714D01*
X149170573Y-89789000D01*
X149497144Y-90224429D02*
X149424573Y-90260714D01*
X149243144Y-90260714D01*
X149170573Y-90224429D01*
X149134287Y-90151857D01*
X149134287Y-90079286D01*
X149170573Y-90006714D01*
X149243144Y-89970429D01*
X149424573Y-89970429D01*
X149497144Y-89934143D01*
X149968859Y-90260714D02*
X149896287Y-90224429D01*
X149860002Y-90151857D01*
X149860002Y-89498714D01*
X150241000Y-89281000D02*
X142494000Y-89281000D01*
X150241000Y-98679000D02*
X150241000Y-89281000D01*
X142494000Y-98679000D02*
X150241000Y-98679000D01*
X142494000Y-89281000D02*
X142494000Y-98679000D01*
D12*
X145971381Y-112558286D02*
X146394714Y-112558286D01*
X146576143Y-113223524D02*
X145971381Y-113223524D01*
X145971381Y-111953524D01*
X146576143Y-111953524D01*
X147543762Y-112558286D02*
X147725191Y-112618762D01*
X147785667Y-112679238D01*
X147846143Y-112800190D01*
X147846143Y-112981619D01*
X147785667Y-113102571D01*
X147725191Y-113163048D01*
X147604238Y-113223524D01*
X147120429Y-113223524D01*
X147120429Y-111953524D01*
X147543762Y-111953524D01*
X147664715Y-112014000D01*
X147725191Y-112074476D01*
X147785667Y-112195429D01*
X147785667Y-112316381D01*
X147725191Y-112437333D01*
X147664715Y-112497810D01*
X147543762Y-112558286D01*
X147120429Y-112558286D01*
X148329953Y-113163048D02*
X148511381Y-113223524D01*
X148813762Y-113223524D01*
X148934715Y-113163048D01*
X148995191Y-113102571D01*
X149055667Y-112981619D01*
X149055667Y-112860667D01*
X148995191Y-112739714D01*
X148934715Y-112679238D01*
X148813762Y-112618762D01*
X148571858Y-112558286D01*
X148450905Y-112497810D01*
X148390429Y-112437333D01*
X148329953Y-112316381D01*
X148329953Y-112195429D01*
X148390429Y-112074476D01*
X148450905Y-112014000D01*
X148571858Y-111953524D01*
X148874238Y-111953524D01*
X149055667Y-112014000D01*
X150567572Y-113223524D02*
X150567572Y-111953524D01*
X150869953Y-111953524D01*
X151051381Y-112014000D01*
X151172334Y-112134952D01*
X151232810Y-112255905D01*
X151293286Y-112497810D01*
X151293286Y-112679238D01*
X151232810Y-112921143D01*
X151172334Y-113042095D01*
X151051381Y-113163048D01*
X150869953Y-113223524D01*
X150567572Y-113223524D01*
X152019001Y-113223524D02*
X151898048Y-113163048D01*
X151837572Y-113102571D01*
X151777096Y-112981619D01*
X151777096Y-112618762D01*
X151837572Y-112497810D01*
X151898048Y-112437333D01*
X152019001Y-112376857D01*
X152200429Y-112376857D01*
X152321381Y-112437333D01*
X152381858Y-112497810D01*
X152442334Y-112618762D01*
X152442334Y-112981619D01*
X152381858Y-113102571D01*
X152321381Y-113163048D01*
X152200429Y-113223524D01*
X152019001Y-113223524D01*
X153168049Y-113223524D02*
X153047096Y-113163048D01*
X152986620Y-113102571D01*
X152926144Y-112981619D01*
X152926144Y-112618762D01*
X152986620Y-112497810D01*
X153047096Y-112437333D01*
X153168049Y-112376857D01*
X153349477Y-112376857D01*
X153470429Y-112437333D01*
X153530906Y-112497810D01*
X153591382Y-112618762D01*
X153591382Y-112981619D01*
X153530906Y-113102571D01*
X153470429Y-113163048D01*
X153349477Y-113223524D01*
X153168049Y-113223524D01*
X154135668Y-113223524D02*
X154135668Y-112376857D01*
X154135668Y-112618762D02*
X154196144Y-112497810D01*
X154256620Y-112437333D01*
X154377573Y-112376857D01*
X154498525Y-112376857D01*
X154921858Y-113223524D02*
X154921858Y-111953524D01*
X154921858Y-112437333D02*
X155042810Y-112376857D01*
X155284715Y-112376857D01*
X155405667Y-112437333D01*
X155466144Y-112497810D01*
X155526620Y-112618762D01*
X155526620Y-112981619D01*
X155466144Y-113102571D01*
X155405667Y-113163048D01*
X155284715Y-113223524D01*
X155042810Y-113223524D01*
X154921858Y-113163048D01*
X156554715Y-113163048D02*
X156433763Y-113223524D01*
X156191858Y-113223524D01*
X156070906Y-113163048D01*
X156010430Y-113042095D01*
X156010430Y-112558286D01*
X156070906Y-112437333D01*
X156191858Y-112376857D01*
X156433763Y-112376857D01*
X156554715Y-112437333D01*
X156615192Y-112558286D01*
X156615192Y-112679238D01*
X156010430Y-112800190D01*
X157340906Y-113223524D02*
X157219953Y-113163048D01*
X157159477Y-113042095D01*
X157159477Y-111953524D01*
X158006144Y-113223524D02*
X157885191Y-113163048D01*
X157824715Y-113042095D01*
X157824715Y-111953524D01*
X159457572Y-112558286D02*
X159880905Y-112558286D01*
X160062334Y-113223524D02*
X159457572Y-113223524D01*
X159457572Y-111953524D01*
X160062334Y-111953524D01*
X160485668Y-113223524D02*
X161150906Y-112376857D01*
X160485668Y-112376857D02*
X161150906Y-113223524D01*
X161453286Y-112376857D02*
X161937096Y-112376857D01*
X161634715Y-111953524D02*
X161634715Y-113042095D01*
X161695191Y-113163048D01*
X161816144Y-113223524D01*
X161937096Y-113223524D01*
X162844238Y-113163048D02*
X162723286Y-113223524D01*
X162481381Y-113223524D01*
X162360429Y-113163048D01*
X162299953Y-113042095D01*
X162299953Y-112558286D01*
X162360429Y-112437333D01*
X162481381Y-112376857D01*
X162723286Y-112376857D01*
X162844238Y-112437333D01*
X162904715Y-112558286D01*
X162904715Y-112679238D01*
X162299953Y-112800190D01*
X163449000Y-112376857D02*
X163449000Y-113223524D01*
X163449000Y-112497810D02*
X163509476Y-112437333D01*
X163630429Y-112376857D01*
X163811857Y-112376857D01*
X163932809Y-112437333D01*
X163993286Y-112558286D01*
X163993286Y-113223524D01*
X164537572Y-113163048D02*
X164658524Y-113223524D01*
X164900429Y-113223524D01*
X165021381Y-113163048D01*
X165081857Y-113042095D01*
X165081857Y-112981619D01*
X165021381Y-112860667D01*
X164900429Y-112800190D01*
X164719000Y-112800190D01*
X164598048Y-112739714D01*
X164537572Y-112618762D01*
X164537572Y-112558286D01*
X164598048Y-112437333D01*
X164719000Y-112376857D01*
X164900429Y-112376857D01*
X165021381Y-112437333D01*
X165626143Y-113223524D02*
X165626143Y-112376857D01*
X165626143Y-111953524D02*
X165565667Y-112014000D01*
X165626143Y-112074476D01*
X165686619Y-112014000D01*
X165626143Y-111953524D01*
X165626143Y-112074476D01*
X166412334Y-113223524D02*
X166291381Y-113163048D01*
X166230905Y-113102571D01*
X166170429Y-112981619D01*
X166170429Y-112618762D01*
X166230905Y-112497810D01*
X166291381Y-112437333D01*
X166412334Y-112376857D01*
X166593762Y-112376857D01*
X166714714Y-112437333D01*
X166775191Y-112497810D01*
X166835667Y-112618762D01*
X166835667Y-112981619D01*
X166775191Y-113102571D01*
X166714714Y-113163048D01*
X166593762Y-113223524D01*
X166412334Y-113223524D01*
X167379953Y-112376857D02*
X167379953Y-113223524D01*
X167379953Y-112497810D02*
X167440429Y-112437333D01*
X167561382Y-112376857D01*
X167742810Y-112376857D01*
X167863762Y-112437333D01*
X167924239Y-112558286D01*
X167924239Y-113223524D01*
X146697095Y-115255524D02*
X146273762Y-114650762D01*
X145971381Y-115255524D02*
X145971381Y-113985524D01*
X146455190Y-113985524D01*
X146576143Y-114046000D01*
X146636619Y-114106476D01*
X146697095Y-114227429D01*
X146697095Y-114408857D01*
X146636619Y-114529810D01*
X146576143Y-114590286D01*
X146455190Y-114650762D01*
X145971381Y-114650762D01*
X147241381Y-114590286D02*
X147664714Y-114590286D01*
X147846143Y-115255524D02*
X147241381Y-115255524D01*
X147241381Y-113985524D01*
X147846143Y-113985524D01*
X148209000Y-113985524D02*
X148632334Y-115255524D01*
X149055667Y-113985524D01*
X150386143Y-114106476D02*
X150446619Y-114046000D01*
X150567571Y-113985524D01*
X150869952Y-113985524D01*
X150990905Y-114046000D01*
X151051381Y-114106476D01*
X151111857Y-114227429D01*
X151111857Y-114348381D01*
X151051381Y-114529810D01*
X150325667Y-115255524D01*
X151111857Y-115255524D01*
X152260905Y-115255524D02*
X151656143Y-115255524D01*
X151656143Y-113985524D01*
X152381857Y-115376476D02*
X153349476Y-115376476D01*
X154317095Y-115255524D02*
X153591381Y-115255524D01*
X153954238Y-115255524D02*
X153954238Y-113985524D01*
X153833286Y-114166952D01*
X153712333Y-114287905D01*
X153591381Y-114348381D01*
X154861381Y-115134571D02*
X154921857Y-115195048D01*
X154861381Y-115255524D01*
X154800905Y-115195048D01*
X154861381Y-115134571D01*
X154861381Y-115255524D01*
X155708048Y-113985524D02*
X155829000Y-113985524D01*
X155949952Y-114046000D01*
X156010429Y-114106476D01*
X156070905Y-114227429D01*
X156131381Y-114469333D01*
X156131381Y-114771714D01*
X156070905Y-115013619D01*
X156010429Y-115134571D01*
X155949952Y-115195048D01*
X155829000Y-115255524D01*
X155708048Y-115255524D01*
X155587095Y-115195048D01*
X155526619Y-115134571D01*
X155466143Y-115013619D01*
X155405667Y-114771714D01*
X155405667Y-114469333D01*
X155466143Y-114227429D01*
X155526619Y-114106476D01*
X155587095Y-114046000D01*
X155708048Y-113985524D01*
D11*
X189175571Y-81370714D02*
X189611000Y-81370714D01*
X189393286Y-82132714D02*
X189393286Y-81370714D01*
X190155285Y-82096429D02*
X190082714Y-82132714D01*
X189937571Y-82132714D01*
X189865000Y-82096429D01*
X189828714Y-82023857D01*
X189828714Y-81733571D01*
X189865000Y-81661000D01*
X189937571Y-81624714D01*
X190082714Y-81624714D01*
X190155285Y-81661000D01*
X190191571Y-81733571D01*
X190191571Y-81806143D01*
X189828714Y-81878714D01*
X190481857Y-82096429D02*
X190554428Y-82132714D01*
X190699571Y-82132714D01*
X190772143Y-82096429D01*
X190808428Y-82023857D01*
X190808428Y-81987571D01*
X190772143Y-81915000D01*
X190699571Y-81878714D01*
X190590714Y-81878714D01*
X190518143Y-81842429D01*
X190481857Y-81769857D01*
X190481857Y-81733571D01*
X190518143Y-81661000D01*
X190590714Y-81624714D01*
X190699571Y-81624714D01*
X190772143Y-81661000D01*
X191026142Y-81624714D02*
X191316428Y-81624714D01*
X191135000Y-81370714D02*
X191135000Y-82023857D01*
X191171285Y-82096429D01*
X191243857Y-82132714D01*
X191316428Y-82132714D01*
X186472287Y-100440671D02*
X186218287Y-100440671D01*
X186218287Y-100839814D02*
X186218287Y-100077814D01*
X186581144Y-100077814D01*
X186835144Y-100803529D02*
X186944001Y-100839814D01*
X187125430Y-100839814D01*
X187198001Y-100803529D01*
X187234287Y-100767243D01*
X187270572Y-100694671D01*
X187270572Y-100622100D01*
X187234287Y-100549529D01*
X187198001Y-100513243D01*
X187125430Y-100476957D01*
X186980287Y-100440671D01*
X186907715Y-100404386D01*
X186871430Y-100368100D01*
X186835144Y-100295529D01*
X186835144Y-100222957D01*
X186871430Y-100150386D01*
X186907715Y-100114100D01*
X186980287Y-100077814D01*
X187161715Y-100077814D01*
X187270572Y-100114100D01*
X187560858Y-100150386D02*
X187597144Y-100114100D01*
X187669715Y-100077814D01*
X187851144Y-100077814D01*
X187923715Y-100114100D01*
X187960001Y-100150386D01*
X187996286Y-100222957D01*
X187996286Y-100295529D01*
X187960001Y-100404386D01*
X187524572Y-100839814D01*
X187996286Y-100839814D01*
X188468000Y-100077814D02*
X188540572Y-100077814D01*
X188613143Y-100114100D01*
X188649429Y-100150386D01*
X188685715Y-100222957D01*
X188722000Y-100368100D01*
X188722000Y-100549529D01*
X188685715Y-100694671D01*
X188649429Y-100767243D01*
X188613143Y-100803529D01*
X188540572Y-100839814D01*
X188468000Y-100839814D01*
X188395429Y-100803529D01*
X188359143Y-100767243D01*
X188322858Y-100694671D01*
X188286572Y-100549529D01*
X188286572Y-100368100D01*
X188322858Y-100222957D01*
X188359143Y-100150386D01*
X188395429Y-100114100D01*
X188468000Y-100077814D01*
X185819143Y-101997329D02*
X185928000Y-102033614D01*
X186109429Y-102033614D01*
X186182000Y-101997329D01*
X186218286Y-101961043D01*
X186254571Y-101888471D01*
X186254571Y-101815900D01*
X186218286Y-101743329D01*
X186182000Y-101707043D01*
X186109429Y-101670757D01*
X185964286Y-101634471D01*
X185891714Y-101598186D01*
X185855429Y-101561900D01*
X185819143Y-101489329D01*
X185819143Y-101416757D01*
X185855429Y-101344186D01*
X185891714Y-101307900D01*
X185964286Y-101271614D01*
X186145714Y-101271614D01*
X186254571Y-101307900D01*
X186581143Y-102033614D02*
X186581143Y-101525614D01*
X186581143Y-101271614D02*
X186544857Y-101307900D01*
X186581143Y-101344186D01*
X186617428Y-101307900D01*
X186581143Y-101271614D01*
X186581143Y-101344186D01*
X187270571Y-101525614D02*
X187270571Y-102142471D01*
X187234285Y-102215043D01*
X187198000Y-102251329D01*
X187125428Y-102287614D01*
X187016571Y-102287614D01*
X186944000Y-102251329D01*
X187270571Y-101997329D02*
X187198000Y-102033614D01*
X187052857Y-102033614D01*
X186980285Y-101997329D01*
X186944000Y-101961043D01*
X186907714Y-101888471D01*
X186907714Y-101670757D01*
X186944000Y-101598186D01*
X186980285Y-101561900D01*
X187052857Y-101525614D01*
X187198000Y-101525614D01*
X187270571Y-101561900D01*
X187633429Y-101525614D02*
X187633429Y-102033614D01*
X187633429Y-101598186D02*
X187669714Y-101561900D01*
X187742286Y-101525614D01*
X187851143Y-101525614D01*
X187923714Y-101561900D01*
X187960000Y-101634471D01*
X187960000Y-102033614D01*
X188649429Y-102033614D02*
X188649429Y-101634471D01*
X188613143Y-101561900D01*
X188540572Y-101525614D01*
X188395429Y-101525614D01*
X188322858Y-101561900D01*
X188649429Y-101997329D02*
X188576858Y-102033614D01*
X188395429Y-102033614D01*
X188322858Y-101997329D01*
X188286572Y-101924757D01*
X188286572Y-101852186D01*
X188322858Y-101779614D01*
X188395429Y-101743329D01*
X188576858Y-101743329D01*
X188649429Y-101707043D01*
X189121144Y-102033614D02*
X189048572Y-101997329D01*
X189012287Y-101924757D01*
X189012287Y-101271614D01*
D12*
X166932429Y-94469857D02*
X168093572Y-94469857D01*
X167513001Y-95050429D02*
X167513001Y-93889286D01*
X175187429Y-77832857D02*
X176348572Y-77832857D01*
X175768001Y-78413429D02*
X175768001Y-77252286D01*
D13*
X149823714Y-92583000D02*
X148735143Y-92583000D01*
X153162000Y-104484714D02*
X153162000Y-103396143D01*
X193421000Y-107786714D02*
X193421000Y-106698143D01*
X193421000Y-101690714D02*
X193421000Y-100602143D01*
D11*
X185946143Y-107532714D02*
X185946143Y-106770714D01*
X186236428Y-106770714D01*
X186309000Y-106807000D01*
X186345285Y-106843286D01*
X186381571Y-106915857D01*
X186381571Y-107024714D01*
X186345285Y-107097286D01*
X186309000Y-107133571D01*
X186236428Y-107169857D01*
X185946143Y-107169857D01*
X186817000Y-107532714D02*
X186744428Y-107496429D01*
X186708143Y-107460143D01*
X186671857Y-107387571D01*
X186671857Y-107169857D01*
X186708143Y-107097286D01*
X186744428Y-107061000D01*
X186817000Y-107024714D01*
X186925857Y-107024714D01*
X186998428Y-107061000D01*
X187034714Y-107097286D01*
X187071000Y-107169857D01*
X187071000Y-107387571D01*
X187034714Y-107460143D01*
X186998428Y-107496429D01*
X186925857Y-107532714D01*
X186817000Y-107532714D01*
X187325000Y-107024714D02*
X187470143Y-107532714D01*
X187615286Y-107169857D01*
X187760429Y-107532714D01*
X187905572Y-107024714D01*
X188486143Y-107496429D02*
X188413572Y-107532714D01*
X188268429Y-107532714D01*
X188195858Y-107496429D01*
X188159572Y-107423857D01*
X188159572Y-107133571D01*
X188195858Y-107061000D01*
X188268429Y-107024714D01*
X188413572Y-107024714D01*
X188486143Y-107061000D01*
X188522429Y-107133571D01*
X188522429Y-107206143D01*
X188159572Y-107278714D01*
X188849001Y-107532714D02*
X188849001Y-107024714D01*
X188849001Y-107169857D02*
X188885286Y-107097286D01*
X188921572Y-107061000D01*
X188994143Y-107024714D01*
X189066715Y-107024714D01*
X146231429Y-77814714D02*
X146231429Y-77052714D01*
X146521714Y-77052714D01*
X146594286Y-77089000D01*
X146630571Y-77125286D01*
X146666857Y-77197857D01*
X146666857Y-77306714D01*
X146630571Y-77379286D01*
X146594286Y-77415571D01*
X146521714Y-77451857D01*
X146231429Y-77451857D01*
X146920857Y-77306714D02*
X147066000Y-77814714D01*
X147211143Y-77451857D01*
X147356286Y-77814714D01*
X147501429Y-77306714D01*
X147791715Y-77814714D02*
X147791715Y-77306714D01*
X147791715Y-77451857D02*
X147828000Y-77379286D01*
X147864286Y-77343000D01*
X147936857Y-77306714D01*
X148009429Y-77306714D01*
X133475186Y-77488143D02*
X134237186Y-77488143D01*
X133983186Y-77851000D02*
X133475186Y-77851000D01*
X133910614Y-77851000D02*
X133946900Y-77887285D01*
X133983186Y-77959857D01*
X133983186Y-78068714D01*
X133946900Y-78141285D01*
X133874329Y-78177571D01*
X133475186Y-78177571D01*
X133983186Y-78540429D02*
X133221186Y-78540429D01*
X133946900Y-78540429D02*
X133983186Y-78613000D01*
X133983186Y-78758143D01*
X133946900Y-78830714D01*
X133910614Y-78867000D01*
X133838043Y-78903286D01*
X133620329Y-78903286D01*
X133547757Y-78867000D01*
X133511471Y-78830714D01*
X133475186Y-78758143D01*
X133475186Y-78613000D01*
X133511471Y-78540429D01*
X133983186Y-79556429D02*
X133475186Y-79556429D01*
X133983186Y-79229858D02*
X133584043Y-79229858D01*
X133511471Y-79266143D01*
X133475186Y-79338715D01*
X133475186Y-79447572D01*
X133511471Y-79520143D01*
X133547757Y-79556429D01*
X133983186Y-79810429D02*
X133983186Y-80100715D01*
X134237186Y-79919287D02*
X133584043Y-79919287D01*
X133511471Y-79955572D01*
X133475186Y-80028144D01*
X133475186Y-80100715D01*
X132499100Y-77016429D02*
X132499100Y-77379286D01*
X132281386Y-76943857D02*
X133043386Y-77197857D01*
X132281386Y-77451857D01*
X132353957Y-78141286D02*
X132317671Y-78105000D01*
X132281386Y-77996143D01*
X132281386Y-77923572D01*
X132317671Y-77814715D01*
X132390243Y-77742143D01*
X132462814Y-77705858D01*
X132607957Y-77669572D01*
X132716814Y-77669572D01*
X132861957Y-77705858D01*
X132934529Y-77742143D01*
X133007100Y-77814715D01*
X133043386Y-77923572D01*
X133043386Y-77996143D01*
X133007100Y-78105000D01*
X132970814Y-78141286D01*
X133079671Y-79012143D02*
X132099957Y-78359000D01*
X132281386Y-79266144D02*
X133043386Y-79266144D01*
X133043386Y-79447572D01*
X133007100Y-79556429D01*
X132934529Y-79629001D01*
X132861957Y-79665286D01*
X132716814Y-79701572D01*
X132607957Y-79701572D01*
X132462814Y-79665286D01*
X132390243Y-79629001D01*
X132317671Y-79556429D01*
X132281386Y-79447572D01*
X132281386Y-79266144D01*
X132353957Y-80463572D02*
X132317671Y-80427286D01*
X132281386Y-80318429D01*
X132281386Y-80245858D01*
X132317671Y-80137001D01*
X132390243Y-80064429D01*
X132462814Y-80028144D01*
X132607957Y-79991858D01*
X132716814Y-79991858D01*
X132861957Y-80028144D01*
X132934529Y-80064429D01*
X133007100Y-80137001D01*
X133043386Y-80245858D01*
X133043386Y-80318429D01*
X133007100Y-80427286D01*
X132970814Y-80463572D01*
X133819900Y-102652287D02*
X133856186Y-102579716D01*
X133856186Y-102470859D01*
X133819900Y-102362002D01*
X133747329Y-102289430D01*
X133674757Y-102253145D01*
X133529614Y-102216859D01*
X133420757Y-102216859D01*
X133275614Y-102253145D01*
X133203043Y-102289430D01*
X133130471Y-102362002D01*
X133094186Y-102470859D01*
X133094186Y-102543430D01*
X133130471Y-102652287D01*
X133166757Y-102688573D01*
X133420757Y-102688573D01*
X133420757Y-102543430D01*
X133094186Y-103015145D02*
X133856186Y-103015145D01*
X133094186Y-103450573D01*
X133856186Y-103450573D01*
X133094186Y-103813431D02*
X133856186Y-103813431D01*
X133856186Y-103994859D01*
X133819900Y-104103716D01*
X133747329Y-104176288D01*
X133674757Y-104212573D01*
X133529614Y-104248859D01*
X133420757Y-104248859D01*
X133275614Y-104212573D01*
X133203043Y-104176288D01*
X133130471Y-104103716D01*
X133094186Y-103994859D01*
X133094186Y-103813431D01*
X133130471Y-106861429D02*
X133094186Y-106970286D01*
X133094186Y-107151715D01*
X133130471Y-107224286D01*
X133166757Y-107260572D01*
X133239329Y-107296857D01*
X133311900Y-107296857D01*
X133384471Y-107260572D01*
X133420757Y-107224286D01*
X133457043Y-107151715D01*
X133493329Y-107006572D01*
X133529614Y-106934000D01*
X133565900Y-106897715D01*
X133638471Y-106861429D01*
X133711043Y-106861429D01*
X133783614Y-106897715D01*
X133819900Y-106934000D01*
X133856186Y-107006572D01*
X133856186Y-107188000D01*
X133819900Y-107296857D01*
X133856186Y-107514571D02*
X133856186Y-107950000D01*
X133094186Y-107732286D02*
X133856186Y-107732286D01*
X133094186Y-108603142D02*
X133094186Y-108167714D01*
X133094186Y-108385428D02*
X133856186Y-108385428D01*
X133747329Y-108312857D01*
X133674757Y-108240285D01*
X133638471Y-108167714D01*
X132299529Y-101436716D02*
X132299529Y-101182716D01*
X131900386Y-101182716D02*
X132662386Y-101182716D01*
X132662386Y-101545573D01*
X131936671Y-101799573D02*
X131900386Y-101908430D01*
X131900386Y-102089859D01*
X131936671Y-102162430D01*
X131972957Y-102198716D01*
X132045529Y-102235001D01*
X132118100Y-102235001D01*
X132190671Y-102198716D01*
X132226957Y-102162430D01*
X132263243Y-102089859D01*
X132299529Y-101944716D01*
X132335814Y-101872144D01*
X132372100Y-101835859D01*
X132444671Y-101799573D01*
X132517243Y-101799573D01*
X132589814Y-101835859D01*
X132626100Y-101872144D01*
X132662386Y-101944716D01*
X132662386Y-102126144D01*
X132626100Y-102235001D01*
X132589814Y-102525287D02*
X132626100Y-102561573D01*
X132662386Y-102634144D01*
X132662386Y-102815573D01*
X132626100Y-102888144D01*
X132589814Y-102924430D01*
X132517243Y-102960715D01*
X132444671Y-102960715D01*
X132335814Y-102924430D01*
X131900386Y-102489001D01*
X131900386Y-102960715D01*
X132662386Y-103432429D02*
X132662386Y-103505001D01*
X132626100Y-103577572D01*
X132589814Y-103613858D01*
X132517243Y-103650144D01*
X132372100Y-103686429D01*
X132190671Y-103686429D01*
X132045529Y-103650144D01*
X131972957Y-103613858D01*
X131936671Y-103577572D01*
X131900386Y-103505001D01*
X131900386Y-103432429D01*
X131936671Y-103359858D01*
X131972957Y-103323572D01*
X132045529Y-103287287D01*
X132190671Y-103251001D01*
X132372100Y-103251001D01*
X132517243Y-103287287D01*
X132589814Y-103323572D01*
X132626100Y-103359858D01*
X132662386Y-103432429D01*
X131936671Y-103976715D02*
X131900386Y-104085572D01*
X131900386Y-104267001D01*
X131936671Y-104339572D01*
X131972957Y-104375858D01*
X132045529Y-104412143D01*
X132118100Y-104412143D01*
X132190671Y-104375858D01*
X132226957Y-104339572D01*
X132263243Y-104267001D01*
X132299529Y-104121858D01*
X132335814Y-104049286D01*
X132372100Y-104013001D01*
X132444671Y-103976715D01*
X132517243Y-103976715D01*
X132589814Y-104013001D01*
X132626100Y-104049286D01*
X132662386Y-104121858D01*
X132662386Y-104303286D01*
X132626100Y-104412143D01*
X132408386Y-105065286D02*
X131900386Y-105065286D01*
X132698671Y-104883857D02*
X132154386Y-104702429D01*
X132154386Y-105174143D01*
X131936671Y-105428143D02*
X131900386Y-105537000D01*
X131900386Y-105718429D01*
X131936671Y-105791000D01*
X131972957Y-105827286D01*
X132045529Y-105863571D01*
X132118100Y-105863571D01*
X132190671Y-105827286D01*
X132226957Y-105791000D01*
X132263243Y-105718429D01*
X132299529Y-105573286D01*
X132335814Y-105500714D01*
X132372100Y-105464429D01*
X132444671Y-105428143D01*
X132517243Y-105428143D01*
X132589814Y-105464429D01*
X132626100Y-105500714D01*
X132662386Y-105573286D01*
X132662386Y-105754714D01*
X132626100Y-105863571D01*
X132662386Y-106190143D02*
X132045529Y-106190143D01*
X131972957Y-106226428D01*
X131936671Y-106262714D01*
X131900386Y-106335285D01*
X131900386Y-106480428D01*
X131936671Y-106553000D01*
X131972957Y-106589285D01*
X132045529Y-106625571D01*
X132662386Y-106625571D01*
X132299529Y-107242429D02*
X132263243Y-107351286D01*
X132226957Y-107387571D01*
X132154386Y-107423857D01*
X132045529Y-107423857D01*
X131972957Y-107387571D01*
X131936671Y-107351286D01*
X131900386Y-107278714D01*
X131900386Y-106988429D01*
X132662386Y-106988429D01*
X132662386Y-107242429D01*
X132626100Y-107315000D01*
X132589814Y-107351286D01*
X132517243Y-107387571D01*
X132444671Y-107387571D01*
X132372100Y-107351286D01*
X132335814Y-107315000D01*
X132299529Y-107242429D01*
X132299529Y-106988429D01*
X132589814Y-107714143D02*
X132626100Y-107750429D01*
X132662386Y-107823000D01*
X132662386Y-108004429D01*
X132626100Y-108077000D01*
X132589814Y-108113286D01*
X132517243Y-108149571D01*
X132444671Y-108149571D01*
X132335814Y-108113286D01*
X131900386Y-107677857D01*
X131900386Y-108149571D01*
X132698671Y-109020428D02*
X131718957Y-108367285D01*
X132408386Y-109601000D02*
X131900386Y-109601000D01*
X132698671Y-109419571D02*
X132154386Y-109238143D01*
X132154386Y-109709857D01*
D14*
X146015000Y-95617000D02*
X144815000Y-95617000D01*
X144815000Y-93867000D02*
X146015000Y-93867000D01*
X173508000Y-108178000D02*
X173508000Y-109728000D01*
X170408000Y-109728000D02*
X170408000Y-108178000D01*
X170408000Y-108178000D02*
X173508000Y-108178000D01*
X170688000Y-110998000D02*
X173228000Y-110998000D01*
X141097000Y-76581000D02*
X141097000Y-74041000D01*
X141097000Y-74041000D02*
X135001000Y-74041000D01*
X135001000Y-74041000D02*
X135001000Y-76835000D01*
X134239000Y-73533000D02*
X134239000Y-83693000D01*
X134239000Y-83693000D02*
X141859000Y-83693000D01*
X141859000Y-83693000D02*
X141859000Y-73533000D01*
X141859000Y-73533000D02*
X134239000Y-73533000D01*
X189992000Y-76581000D02*
X193294000Y-76581000D01*
X193294000Y-76581000D02*
X193294000Y-79629000D01*
X184912000Y-77089000D02*
X192786000Y-77089000D01*
X192786000Y-77089000D02*
X192786000Y-89281000D01*
X192786000Y-89281000D02*
X184912000Y-89281000D01*
X184912000Y-89281000D02*
X184912000Y-77089000D01*
X166832000Y-73117000D02*
X176830000Y-73117000D01*
X166836000Y-72977000D02*
X176826000Y-72977000D01*
X166844000Y-72837000D02*
X176818000Y-72837000D01*
X166856000Y-72697000D02*
X176806000Y-72697000D01*
X166871000Y-72557000D02*
X176791000Y-72557000D01*
X166891000Y-72417000D02*
X176771000Y-72417000D01*
X166915000Y-72277000D02*
X176747000Y-72277000D01*
X166944000Y-72137000D02*
X176718000Y-72137000D01*
X166976000Y-71997000D02*
X176686000Y-71997000D01*
X167013000Y-71857000D02*
X176649000Y-71857000D01*
X167054000Y-71717000D02*
X176608000Y-71717000D01*
X167099000Y-71577000D02*
X171365000Y-71577000D01*
X172297000Y-71577000D02*
X176563000Y-71577000D01*
X167149000Y-71437000D02*
X171164000Y-71437000D01*
X172498000Y-71437000D02*
X176513000Y-71437000D01*
X167204000Y-71297000D02*
X171035000Y-71297000D01*
X172627000Y-71297000D02*
X176458000Y-71297000D01*
X167264000Y-71157000D02*
X170946000Y-71157000D01*
X172716000Y-71157000D02*
X176398000Y-71157000D01*
X167329000Y-71017000D02*
X170885000Y-71017000D01*
X172777000Y-71017000D02*
X176333000Y-71017000D01*
X167399000Y-70877000D02*
X170848000Y-70877000D01*
X172814000Y-70877000D02*
X176263000Y-70877000D01*
X167475000Y-70737000D02*
X170832000Y-70737000D01*
X172830000Y-70737000D02*
X176187000Y-70737000D01*
X167557000Y-70597000D02*
X170836000Y-70597000D01*
X172826000Y-70597000D02*
X176105000Y-70597000D01*
X167645000Y-70457000D02*
X170859000Y-70457000D01*
X172803000Y-70457000D02*
X176017000Y-70457000D01*
X167740000Y-70317000D02*
X170904000Y-70317000D01*
X172758000Y-70317000D02*
X175922000Y-70317000D01*
X167842000Y-70177000D02*
X170974000Y-70177000D01*
X172688000Y-70177000D02*
X175820000Y-70177000D01*
X167952000Y-70037000D02*
X171075000Y-70037000D01*
X172587000Y-70037000D02*
X175710000Y-70037000D01*
X168070000Y-69897000D02*
X171224000Y-69897000D01*
X172438000Y-69897000D02*
X175592000Y-69897000D01*
X168198000Y-69757000D02*
X171476000Y-69757000D01*
X172186000Y-69757000D02*
X175464000Y-69757000D01*
X168335000Y-69617000D02*
X175327000Y-69617000D01*
X168485000Y-69477000D02*
X175177000Y-69477000D01*
X168647000Y-69337000D02*
X175015000Y-69337000D01*
X168824000Y-69197000D02*
X174838000Y-69197000D01*
X169020000Y-69057000D02*
X174642000Y-69057000D01*
X169238000Y-68917000D02*
X174424000Y-68917000D01*
X169484000Y-68777000D02*
X174178000Y-68777000D01*
X169769000Y-68637000D02*
X173893000Y-68637000D01*
X170111000Y-68497000D02*
X173551000Y-68497000D01*
X170557000Y-68357000D02*
X173105000Y-68357000D01*
X171332000Y-68217000D02*
X172330000Y-68217000D01*
X172831000Y-70692000D02*
G75*
G03X172831000Y-70692000I-1000000J0D01*
G01*
X176868500Y-73192000D02*
G75*
G03X176868500Y-73192000I-5037500J0D01*
G01*
X161403000Y-96047000D02*
X161403000Y-97247000D01*
X159653000Y-97247000D02*
X159653000Y-96047000D01*
X183857000Y-96004000D02*
X183857000Y-95004000D01*
X182157000Y-95004000D02*
X182157000Y-96004000D01*
X165315000Y-77208000D02*
X165315000Y-76208000D01*
X163615000Y-76208000D02*
X163615000Y-77208000D01*
X179035000Y-104056000D02*
X179180000Y-104056000D01*
X179035000Y-99906000D02*
X179180000Y-99906000D01*
X184185000Y-99906000D02*
X184040000Y-99906000D01*
X184185000Y-104056000D02*
X184040000Y-104056000D01*
X179035000Y-104056000D02*
X179035000Y-99906000D01*
X184185000Y-104056000D02*
X184185000Y-99906000D01*
X179180000Y-104056000D02*
X179180000Y-105456000D01*
X154598000Y-86622000D02*
X154598000Y-87622000D01*
X156298000Y-87622000D02*
X156298000Y-86622000D01*
X160469000Y-73238000D02*
X160469000Y-68240000D01*
X160329000Y-73230000D02*
X160329000Y-70893000D01*
X160329000Y-70585000D02*
X160329000Y-68248000D01*
X160189000Y-73214000D02*
X160189000Y-71212000D01*
X160189000Y-70266000D02*
X160189000Y-68264000D01*
X160049000Y-73190000D02*
X160049000Y-71359000D01*
X160049000Y-70119000D02*
X160049000Y-68288000D01*
X159909000Y-73157000D02*
X159909000Y-71451000D01*
X159909000Y-70027000D02*
X159909000Y-68321000D01*
X159769000Y-73116000D02*
X159769000Y-71507000D01*
X159769000Y-69971000D02*
X159769000Y-68362000D01*
X159629000Y-73066000D02*
X159629000Y-71534000D01*
X159629000Y-69944000D02*
X159629000Y-68412000D01*
X159489000Y-73005000D02*
X159489000Y-71537000D01*
X159489000Y-69941000D02*
X159489000Y-68473000D01*
X159349000Y-72935000D02*
X159349000Y-71515000D01*
X159349000Y-69963000D02*
X159349000Y-68543000D01*
X159209000Y-72853000D02*
X159209000Y-71465000D01*
X159209000Y-70013000D02*
X159209000Y-68625000D01*
X159069000Y-72758000D02*
X159069000Y-71383000D01*
X159069000Y-70095000D02*
X159069000Y-68720000D01*
X158929000Y-72647000D02*
X158929000Y-71251000D01*
X158929000Y-70227000D02*
X158929000Y-68831000D01*
X158789000Y-72519000D02*
X158789000Y-71004000D01*
X158789000Y-70474000D02*
X158789000Y-68959000D01*
X158649000Y-72370000D02*
X158649000Y-69108000D01*
X158509000Y-72191000D02*
X158509000Y-69287000D01*
X158369000Y-71972000D02*
X158369000Y-69506000D01*
X158229000Y-71683000D02*
X158229000Y-69795000D01*
X158089000Y-71211000D02*
X158089000Y-70267000D01*
X160344000Y-70739000D02*
G75*
G03X160344000Y-70739000I-800000J0D01*
G01*
X163081500Y-70739000D02*
G75*
G03X163081500Y-70739000I-2537500J0D01*
G01*
X172728000Y-107276000D02*
X173728000Y-107276000D01*
X173728000Y-105576000D02*
X172728000Y-105576000D01*
X154012000Y-93591000D02*
X154012000Y-92591000D01*
X152312000Y-92591000D02*
X152312000Y-93591000D01*
X156679000Y-93591000D02*
X156679000Y-92591000D01*
X154979000Y-92591000D02*
X154979000Y-93591000D01*
X170012000Y-98230000D02*
X165014000Y-98230000D01*
X170004000Y-98370000D02*
X167667000Y-98370000D01*
X167359000Y-98370000D02*
X165022000Y-98370000D01*
X169988000Y-98510000D02*
X167986000Y-98510000D01*
X167040000Y-98510000D02*
X165038000Y-98510000D01*
X169964000Y-98650000D02*
X168133000Y-98650000D01*
X166893000Y-98650000D02*
X165062000Y-98650000D01*
X169931000Y-98790000D02*
X168225000Y-98790000D01*
X166801000Y-98790000D02*
X165095000Y-98790000D01*
X169890000Y-98930000D02*
X168281000Y-98930000D01*
X166745000Y-98930000D02*
X165136000Y-98930000D01*
X169840000Y-99070000D02*
X168308000Y-99070000D01*
X166718000Y-99070000D02*
X165186000Y-99070000D01*
X169779000Y-99210000D02*
X168311000Y-99210000D01*
X166715000Y-99210000D02*
X165247000Y-99210000D01*
X169709000Y-99350000D02*
X168289000Y-99350000D01*
X166737000Y-99350000D02*
X165317000Y-99350000D01*
X169627000Y-99490000D02*
X168239000Y-99490000D01*
X166787000Y-99490000D02*
X165399000Y-99490000D01*
X169532000Y-99630000D02*
X168157000Y-99630000D01*
X166869000Y-99630000D02*
X165494000Y-99630000D01*
X169421000Y-99770000D02*
X168025000Y-99770000D01*
X167001000Y-99770000D02*
X165605000Y-99770000D01*
X169293000Y-99910000D02*
X167778000Y-99910000D01*
X167248000Y-99910000D02*
X165733000Y-99910000D01*
X169144000Y-100050000D02*
X165882000Y-100050000D01*
X168965000Y-100190000D02*
X166061000Y-100190000D01*
X168746000Y-100330000D02*
X166280000Y-100330000D01*
X168457000Y-100470000D02*
X166569000Y-100470000D01*
X167985000Y-100610000D02*
X167041000Y-100610000D01*
X168313000Y-99155000D02*
G75*
G03X168313000Y-99155000I-800000J0D01*
G01*
X170050500Y-98155000D02*
G75*
G03X170050500Y-98155000I-2537500J0D01*
G01*
X177181000Y-95386000D02*
X179181000Y-95386000D01*
X179181000Y-93336000D02*
X177181000Y-93336000D01*
X159355733Y-78232000D02*
G75*
G03X159355733Y-78232000I-4669733J0D01*
G01*
X192862000Y-106438000D02*
X190162000Y-106438000D01*
X192862000Y-107938000D02*
X190162000Y-107938000D01*
X191362000Y-107038000D02*
X191362000Y-107288000D01*
X191362000Y-107288000D02*
X191512000Y-107138000D01*
X191612000Y-107538000D02*
X191612000Y-106838000D01*
X191262000Y-107188000D02*
X190912000Y-107188000D01*
X191612000Y-107188000D02*
X191262000Y-107538000D01*
X191262000Y-107538000D02*
X191262000Y-106838000D01*
X191262000Y-106838000D02*
X191612000Y-107188000D01*
X157388000Y-91675000D02*
X157388000Y-93225000D01*
X158588000Y-91675000D02*
X158588000Y-93225000D01*
X192862000Y-100342000D02*
X190162000Y-100342000D01*
X192862000Y-101842000D02*
X190162000Y-101842000D01*
X191362000Y-100942000D02*
X191362000Y-101192000D01*
X191362000Y-101192000D02*
X191512000Y-101042000D01*
X191612000Y-101442000D02*
X191612000Y-100742000D01*
X191262000Y-101092000D02*
X190912000Y-101092000D01*
X191612000Y-101092000D02*
X191262000Y-101442000D01*
X191262000Y-101442000D02*
X191262000Y-100742000D01*
X191262000Y-100742000D02*
X191612000Y-101092000D01*
X148625000Y-93580000D02*
X148625000Y-95130000D01*
X149825000Y-93580000D02*
X149825000Y-95130000D01*
X141097000Y-103378000D02*
X141097000Y-100838000D01*
X141097000Y-100838000D02*
X135001000Y-100838000D01*
X135001000Y-100838000D02*
X135001000Y-103632000D01*
X134239000Y-100330000D02*
X134239000Y-110490000D01*
X134239000Y-110490000D02*
X141859000Y-110490000D01*
X141859000Y-110490000D02*
X141859000Y-100330000D01*
X141859000Y-100330000D02*
X134239000Y-100330000D01*
X157368240Y-100105160D02*
X157368240Y-100056900D01*
X156667200Y-97306180D02*
X157368240Y-97306180D01*
X157368240Y-97306180D02*
X157368240Y-97555100D01*
X157368240Y-100105160D02*
X157368240Y-100305820D01*
X157368240Y-100305820D02*
X156667200Y-100305820D01*
X191627200Y-103468200D02*
X192827200Y-103468200D01*
X192827200Y-105218200D02*
X191627200Y-105218200D01*
X173574000Y-105015000D02*
X172374000Y-105015000D01*
X172374000Y-103265000D02*
X173574000Y-103265000D01*
X179670000Y-97649000D02*
X178470000Y-97649000D01*
X178470000Y-95899000D02*
X179670000Y-95899000D01*
X159223000Y-102983000D02*
X158023000Y-102983000D01*
X158023000Y-101233000D02*
X159223000Y-101233000D01*
X191608000Y-98030000D02*
X190408000Y-98030000D01*
X190408000Y-96280000D02*
X191608000Y-96280000D01*
X144815000Y-91327000D02*
X146015000Y-91327000D01*
X146015000Y-93077000D02*
X144815000Y-93077000D01*
X162066000Y-97247000D02*
X162066000Y-96047000D01*
X163816000Y-96047000D02*
X163816000Y-97247000D01*
X145796000Y-75590400D02*
X148336000Y-75590400D01*
X142976000Y-75310400D02*
X144526000Y-75310400D01*
X145796000Y-75590400D02*
X145796000Y-78130400D01*
X144526000Y-78410400D02*
X142976000Y-78410400D01*
X142976000Y-78410400D02*
X142976000Y-75310400D01*
X145796000Y-78130400D02*
X148336000Y-78130400D01*
X148336000Y-78130400D02*
X148336000Y-75590400D01*
X141097000Y-87503000D02*
X141097000Y-84963000D01*
X141097000Y-84963000D02*
X135001000Y-84963000D01*
X135001000Y-84963000D02*
X135001000Y-87757000D01*
X134239000Y-84455000D02*
X134239000Y-99695000D01*
X134239000Y-99695000D02*
X141859000Y-99695000D01*
X141859000Y-99695000D02*
X141859000Y-84455000D01*
X141859000Y-84455000D02*
X134239000Y-84455000D01*
X150063200Y-84226400D02*
X146608800Y-84226400D01*
X150063200Y-87985600D02*
X146608800Y-87985600D01*
X148362000Y-100431000D02*
X148362000Y-101981000D01*
X145262000Y-101981000D02*
X145262000Y-100431000D01*
X145262000Y-100431000D02*
X148362000Y-100431000D01*
X145542000Y-103251000D02*
X148082000Y-103251000D01*
X148057200Y-68503200D02*
X148057200Y-70053200D01*
X144957200Y-70053200D02*
X144957200Y-68503200D01*
X144957200Y-68503200D02*
X148057200Y-68503200D01*
X145237200Y-71323200D02*
X147777200Y-71323200D01*
X151714800Y-68503200D02*
X151714800Y-70053200D01*
X148614800Y-70053200D02*
X148614800Y-68503200D01*
X148614800Y-68503200D02*
X151714800Y-68503200D01*
X148894800Y-71323200D02*
X151434800Y-71323200D01*
X181382000Y-108178000D02*
X181382000Y-109728000D01*
X178282000Y-109728000D02*
X178282000Y-108178000D01*
X178282000Y-108178000D02*
X181382000Y-108178000D01*
X178562000Y-110998000D02*
X181102000Y-110998000D01*
X152426000Y-100431000D02*
X152426000Y-101981000D01*
X149326000Y-101981000D02*
X149326000Y-100431000D01*
X149326000Y-100431000D02*
X152426000Y-100431000D01*
X149606000Y-103251000D02*
X152146000Y-103251000D01*
X144145600Y-68503200D02*
X144145600Y-70053200D01*
X141045600Y-70053200D02*
X141045600Y-68503200D01*
X141045600Y-68503200D02*
X144145600Y-68503200D01*
X141325600Y-71323200D02*
X143865600Y-71323200D01*
X164925300Y-110641100D02*
X163725300Y-110641100D01*
X163725300Y-108891100D02*
X164925300Y-108891100D01*
X159332900Y-107870700D02*
X159332900Y-109070700D01*
X157582900Y-109070700D02*
X157582900Y-107870700D01*
X143028700Y-108880200D02*
X143028700Y-107680200D01*
X144778700Y-107680200D02*
X144778700Y-108880200D01*
D11*
X154762200Y-110744000D02*
X156667200Y-110744000D01*
X156667200Y-110744000D02*
X156667200Y-108839000D01*
X147777200Y-110744000D02*
X147777200Y-105664000D01*
X147777200Y-105664000D02*
X154127200Y-105664000D01*
X154127200Y-105664000D02*
X154127200Y-110744000D01*
X154127200Y-110744000D02*
X147777200Y-110744000D01*
D14*
X178028472Y-85979000D02*
G75*
G03X178028472Y-85979000I-2514472J0D01*
G01*
X162433000Y-83439000D02*
X160655000Y-83439000D01*
X162433000Y-85979000D02*
X160655000Y-85979000D01*
X162433000Y-88519000D02*
X160655000Y-88519000D01*
X170942000Y-91313000D02*
X178943000Y-91313000D01*
X178943000Y-91313000D02*
X178943000Y-80645000D01*
X178943000Y-80645000D02*
X170942000Y-80645000D01*
X162433000Y-91313000D02*
X170942000Y-91313000D01*
X170942000Y-91313000D02*
X170942000Y-80645000D01*
X170942000Y-80645000D02*
X162433000Y-80645000D01*
X162433000Y-85979000D02*
X162433000Y-80645000D01*
X162433000Y-85979000D02*
X162433000Y-91313000D01*
D10*
G36*
X187978898Y-75073053D02*
X187977458Y-75263921D01*
X187977334Y-75272623D01*
X187970583Y-75738070D01*
X187911195Y-75789118D01*
X187831251Y-75833807D01*
X187747712Y-75837865D01*
X187667791Y-75801589D01*
X187640485Y-75777908D01*
X187598688Y-75739367D01*
X187579000Y-75731766D01*
X187579000Y-74952792D01*
X187572338Y-74807606D01*
X187551006Y-74696007D01*
X187512985Y-74611181D01*
X187459329Y-74548982D01*
X187372924Y-74498882D01*
X187275728Y-74483518D01*
X187177923Y-74500853D01*
X187089694Y-74548852D01*
X187021224Y-74625479D01*
X187013986Y-74638022D01*
X186991122Y-74706736D01*
X186977320Y-74803279D01*
X186972459Y-74914657D01*
X186976423Y-75027874D01*
X186989092Y-75129938D01*
X187010349Y-75207855D01*
X187019349Y-75226261D01*
X187090342Y-75314490D01*
X187177202Y-75371675D01*
X187271943Y-75395873D01*
X187366581Y-75385136D01*
X187453129Y-75337519D01*
X187458192Y-75333183D01*
X187516978Y-75264541D01*
X187555065Y-75176453D01*
X187574810Y-75061495D01*
X187579000Y-74952792D01*
X187579000Y-75731766D01*
X187567245Y-75727229D01*
X187527456Y-75737107D01*
X187505210Y-75746158D01*
X187444645Y-75762161D01*
X187359773Y-75773109D01*
X187278055Y-75776649D01*
X187179326Y-75772682D01*
X187100340Y-75757629D01*
X187018982Y-75726727D01*
X186995124Y-75715703D01*
X186847772Y-75626487D01*
X186732089Y-75512457D01*
X186647234Y-75372038D01*
X186592366Y-75203654D01*
X186566644Y-75005730D01*
X186564343Y-74908833D01*
X186575511Y-74737444D01*
X186610045Y-74590671D01*
X186671845Y-74455537D01*
X186725959Y-74371353D01*
X186834509Y-74251247D01*
X186962186Y-74164668D01*
X187102947Y-74111105D01*
X187250748Y-74090047D01*
X187399544Y-74100985D01*
X187543291Y-74143407D01*
X187675945Y-74216805D01*
X187791462Y-74320667D01*
X187883798Y-74454482D01*
X187891664Y-74469773D01*
X187920855Y-74536150D01*
X187943321Y-74608103D01*
X187959711Y-74691701D01*
X187970672Y-74793012D01*
X187976852Y-74918106D01*
X187978898Y-75073053D01*
X187978898Y-75073053D01*
X187978898Y-75073053D01*
G37*
X187978898Y-75073053D02*
X187977458Y-75263921D01*
X187977334Y-75272623D01*
X187970583Y-75738070D01*
X187911195Y-75789118D01*
X187831251Y-75833807D01*
X187747712Y-75837865D01*
X187667791Y-75801589D01*
X187640485Y-75777908D01*
X187598688Y-75739367D01*
X187579000Y-75731766D01*
X187579000Y-74952792D01*
X187572338Y-74807606D01*
X187551006Y-74696007D01*
X187512985Y-74611181D01*
X187459329Y-74548982D01*
X187372924Y-74498882D01*
X187275728Y-74483518D01*
X187177923Y-74500853D01*
X187089694Y-74548852D01*
X187021224Y-74625479D01*
X187013986Y-74638022D01*
X186991122Y-74706736D01*
X186977320Y-74803279D01*
X186972459Y-74914657D01*
X186976423Y-75027874D01*
X186989092Y-75129938D01*
X187010349Y-75207855D01*
X187019349Y-75226261D01*
X187090342Y-75314490D01*
X187177202Y-75371675D01*
X187271943Y-75395873D01*
X187366581Y-75385136D01*
X187453129Y-75337519D01*
X187458192Y-75333183D01*
X187516978Y-75264541D01*
X187555065Y-75176453D01*
X187574810Y-75061495D01*
X187579000Y-74952792D01*
X187579000Y-75731766D01*
X187567245Y-75727229D01*
X187527456Y-75737107D01*
X187505210Y-75746158D01*
X187444645Y-75762161D01*
X187359773Y-75773109D01*
X187278055Y-75776649D01*
X187179326Y-75772682D01*
X187100340Y-75757629D01*
X187018982Y-75726727D01*
X186995124Y-75715703D01*
X186847772Y-75626487D01*
X186732089Y-75512457D01*
X186647234Y-75372038D01*
X186592366Y-75203654D01*
X186566644Y-75005730D01*
X186564343Y-74908833D01*
X186575511Y-74737444D01*
X186610045Y-74590671D01*
X186671845Y-74455537D01*
X186725959Y-74371353D01*
X186834509Y-74251247D01*
X186962186Y-74164668D01*
X187102947Y-74111105D01*
X187250748Y-74090047D01*
X187399544Y-74100985D01*
X187543291Y-74143407D01*
X187675945Y-74216805D01*
X187791462Y-74320667D01*
X187883798Y-74454482D01*
X187891664Y-74469773D01*
X187920855Y-74536150D01*
X187943321Y-74608103D01*
X187959711Y-74691701D01*
X187970672Y-74793012D01*
X187976852Y-74918106D01*
X187978898Y-75073053D01*
X187978898Y-75073053D01*
G36*
X183874833Y-75586302D02*
X183857317Y-75651936D01*
X183813097Y-75717875D01*
X183754667Y-75768436D01*
X183716324Y-75785298D01*
X183672954Y-75791501D01*
X183630674Y-75785163D01*
X183585615Y-75762898D01*
X183533908Y-75721318D01*
X183471686Y-75657039D01*
X183395081Y-75566672D01*
X183300225Y-75446832D01*
X183239267Y-75367646D01*
X183155506Y-75259383D01*
X183079455Y-75163418D01*
X183015097Y-75084586D01*
X182966414Y-75027723D01*
X182937387Y-74997667D01*
X182931777Y-74994175D01*
X182904745Y-75007907D01*
X182862732Y-75043310D01*
X182843683Y-75062291D01*
X182816595Y-75091797D01*
X182797990Y-75119237D01*
X182786011Y-75153218D01*
X182778803Y-75202349D01*
X182774509Y-75275235D01*
X182771272Y-75380483D01*
X182770739Y-75400488D01*
X182767311Y-75512405D01*
X182762971Y-75590319D01*
X182756145Y-75642555D01*
X182745257Y-75677438D01*
X182728731Y-75703293D01*
X182709529Y-75723936D01*
X182649636Y-75765484D01*
X182580872Y-75790084D01*
X182580143Y-75790204D01*
X182525476Y-75793095D01*
X182480423Y-75775866D01*
X182433114Y-75738367D01*
X182361417Y-75674305D01*
X182361417Y-74527563D01*
X182361417Y-73380820D01*
X182424917Y-73330015D01*
X182501658Y-73290831D01*
X182585618Y-73282543D01*
X182664651Y-73303228D01*
X182726612Y-73350963D01*
X182745714Y-73380811D01*
X182750689Y-73410772D01*
X182755908Y-73477194D01*
X182761101Y-73574209D01*
X182765999Y-73695948D01*
X182770333Y-73836543D01*
X182773834Y-73990124D01*
X182773950Y-73996296D01*
X182784750Y-74576010D01*
X183138698Y-74256140D01*
X183243796Y-74162683D01*
X183341366Y-74078769D01*
X183426124Y-74008718D01*
X183492788Y-73956848D01*
X183536075Y-73927476D01*
X183546567Y-73922737D01*
X183618527Y-73923128D01*
X183694091Y-73951020D01*
X183753464Y-73998636D01*
X183759260Y-74006293D01*
X183781028Y-74058557D01*
X183790166Y-74122588D01*
X183790167Y-74123014D01*
X183786813Y-74154684D01*
X183774330Y-74187884D01*
X183749087Y-74226725D01*
X183707449Y-74275318D01*
X183645786Y-74337775D01*
X183560464Y-74418207D01*
X183447851Y-74520727D01*
X183403787Y-74560370D01*
X183239657Y-74707750D01*
X183557245Y-75116968D01*
X183664572Y-75256602D01*
X183747050Y-75367193D01*
X183806996Y-75452163D01*
X183846727Y-75514938D01*
X183868560Y-75558941D01*
X183874833Y-75586302D01*
X183874833Y-75586302D01*
X183874833Y-75586302D01*
G37*
X183874833Y-75586302D02*
X183857317Y-75651936D01*
X183813097Y-75717875D01*
X183754667Y-75768436D01*
X183716324Y-75785298D01*
X183672954Y-75791501D01*
X183630674Y-75785163D01*
X183585615Y-75762898D01*
X183533908Y-75721318D01*
X183471686Y-75657039D01*
X183395081Y-75566672D01*
X183300225Y-75446832D01*
X183239267Y-75367646D01*
X183155506Y-75259383D01*
X183079455Y-75163418D01*
X183015097Y-75084586D01*
X182966414Y-75027723D01*
X182937387Y-74997667D01*
X182931777Y-74994175D01*
X182904745Y-75007907D01*
X182862732Y-75043310D01*
X182843683Y-75062291D01*
X182816595Y-75091797D01*
X182797990Y-75119237D01*
X182786011Y-75153218D01*
X182778803Y-75202349D01*
X182774509Y-75275235D01*
X182771272Y-75380483D01*
X182770739Y-75400488D01*
X182767311Y-75512405D01*
X182762971Y-75590319D01*
X182756145Y-75642555D01*
X182745257Y-75677438D01*
X182728731Y-75703293D01*
X182709529Y-75723936D01*
X182649636Y-75765484D01*
X182580872Y-75790084D01*
X182580143Y-75790204D01*
X182525476Y-75793095D01*
X182480423Y-75775866D01*
X182433114Y-75738367D01*
X182361417Y-75674305D01*
X182361417Y-74527563D01*
X182361417Y-73380820D01*
X182424917Y-73330015D01*
X182501658Y-73290831D01*
X182585618Y-73282543D01*
X182664651Y-73303228D01*
X182726612Y-73350963D01*
X182745714Y-73380811D01*
X182750689Y-73410772D01*
X182755908Y-73477194D01*
X182761101Y-73574209D01*
X182765999Y-73695948D01*
X182770333Y-73836543D01*
X182773834Y-73990124D01*
X182773950Y-73996296D01*
X182784750Y-74576010D01*
X183138698Y-74256140D01*
X183243796Y-74162683D01*
X183341366Y-74078769D01*
X183426124Y-74008718D01*
X183492788Y-73956848D01*
X183536075Y-73927476D01*
X183546567Y-73922737D01*
X183618527Y-73923128D01*
X183694091Y-73951020D01*
X183753464Y-73998636D01*
X183759260Y-74006293D01*
X183781028Y-74058557D01*
X183790166Y-74122588D01*
X183790167Y-74123014D01*
X183786813Y-74154684D01*
X183774330Y-74187884D01*
X183749087Y-74226725D01*
X183707449Y-74275318D01*
X183645786Y-74337775D01*
X183560464Y-74418207D01*
X183447851Y-74520727D01*
X183403787Y-74560370D01*
X183239657Y-74707750D01*
X183557245Y-75116968D01*
X183664572Y-75256602D01*
X183747050Y-75367193D01*
X183806996Y-75452163D01*
X183846727Y-75514938D01*
X183868560Y-75558941D01*
X183874833Y-75586302D01*
X183874833Y-75586302D01*
G36*
X184549909Y-74628501D02*
X184548909Y-74818914D01*
X184547900Y-74941904D01*
X184541583Y-75669926D01*
X184488667Y-75722783D01*
X184418735Y-75769763D01*
X184338586Y-75789583D01*
X184266417Y-75778624D01*
X184220581Y-75749277D01*
X184181750Y-75713468D01*
X184170509Y-75699231D01*
X184161397Y-75681133D01*
X184154144Y-75654789D01*
X184148484Y-75615816D01*
X184144148Y-75559828D01*
X184140869Y-75482441D01*
X184138379Y-75379271D01*
X184136409Y-75245933D01*
X184134692Y-75078042D01*
X184133366Y-74921476D01*
X184127316Y-74176511D01*
X184175700Y-74105095D01*
X184241580Y-74035663D01*
X184316798Y-74007233D01*
X184400277Y-74020147D01*
X184418415Y-74027981D01*
X184452595Y-74045741D01*
X184480506Y-74066023D01*
X184502738Y-74092992D01*
X184519880Y-74130813D01*
X184532523Y-74183653D01*
X184541257Y-74255676D01*
X184546673Y-74351048D01*
X184549360Y-74473934D01*
X184549909Y-74628501D01*
X184549909Y-74628501D01*
X184549909Y-74628501D01*
G37*
X184549909Y-74628501D02*
X184548909Y-74818914D01*
X184547900Y-74941904D01*
X184541583Y-75669926D01*
X184488667Y-75722783D01*
X184418735Y-75769763D01*
X184338586Y-75789583D01*
X184266417Y-75778624D01*
X184220581Y-75749277D01*
X184181750Y-75713468D01*
X184170509Y-75699231D01*
X184161397Y-75681133D01*
X184154144Y-75654789D01*
X184148484Y-75615816D01*
X184144148Y-75559828D01*
X184140869Y-75482441D01*
X184138379Y-75379271D01*
X184136409Y-75245933D01*
X184134692Y-75078042D01*
X184133366Y-74921476D01*
X184127316Y-74176511D01*
X184175700Y-74105095D01*
X184241580Y-74035663D01*
X184316798Y-74007233D01*
X184400277Y-74020147D01*
X184418415Y-74027981D01*
X184452595Y-74045741D01*
X184480506Y-74066023D01*
X184502738Y-74092992D01*
X184519880Y-74130813D01*
X184532523Y-74183653D01*
X184541257Y-74255676D01*
X184546673Y-74351048D01*
X184549360Y-74473934D01*
X184549909Y-74628501D01*
X184549909Y-74628501D01*
G36*
X186224333Y-75522577D02*
X186204375Y-75583699D01*
X186149313Y-75641341D01*
X186066365Y-75692951D01*
X185962753Y-75735978D01*
X185845694Y-75767871D01*
X185722408Y-75786079D01*
X185600114Y-75788052D01*
X185507010Y-75776053D01*
X185344708Y-75721410D01*
X185200808Y-75631608D01*
X185081093Y-75511873D01*
X184991344Y-75367425D01*
X184956708Y-75278894D01*
X184909150Y-75065995D01*
X184899006Y-74851987D01*
X184925905Y-74644234D01*
X184989482Y-74450100D01*
X184999235Y-74428752D01*
X185088628Y-74286766D01*
X185207532Y-74170462D01*
X185349534Y-74083127D01*
X185508222Y-74028046D01*
X185677184Y-74008507D01*
X185800500Y-74018114D01*
X185944473Y-74051485D01*
X186060597Y-74099047D01*
X186146405Y-74157865D01*
X186199430Y-74225002D01*
X186217203Y-74297522D01*
X186197258Y-74372489D01*
X186150351Y-74434406D01*
X186096330Y-74472000D01*
X186030516Y-74483277D01*
X185944775Y-74468490D01*
X185869564Y-74443155D01*
X185761319Y-74410137D01*
X185669563Y-74403083D01*
X185578124Y-74421021D01*
X185566033Y-74424932D01*
X185468437Y-74472604D01*
X185396512Y-74543768D01*
X185348258Y-74642277D01*
X185321677Y-74771985D01*
X185314631Y-74909640D01*
X185322701Y-75060483D01*
X185349192Y-75178124D01*
X185396357Y-75268484D01*
X185466449Y-75337485D01*
X185481338Y-75347870D01*
X185568126Y-75383984D01*
X185674909Y-75397059D01*
X185786031Y-75386884D01*
X185885667Y-75353333D01*
X185946943Y-75326838D01*
X185999201Y-75312088D01*
X186010827Y-75311000D01*
X186093805Y-75330228D01*
X186163846Y-75381082D01*
X186210608Y-75453313D01*
X186224333Y-75522577D01*
X186224333Y-75522577D01*
X186224333Y-75522577D01*
G37*
X186224333Y-75522577D02*
X186204375Y-75583699D01*
X186149313Y-75641341D01*
X186066365Y-75692951D01*
X185962753Y-75735978D01*
X185845694Y-75767871D01*
X185722408Y-75786079D01*
X185600114Y-75788052D01*
X185507010Y-75776053D01*
X185344708Y-75721410D01*
X185200808Y-75631608D01*
X185081093Y-75511873D01*
X184991344Y-75367425D01*
X184956708Y-75278894D01*
X184909150Y-75065995D01*
X184899006Y-74851987D01*
X184925905Y-74644234D01*
X184989482Y-74450100D01*
X184999235Y-74428752D01*
X185088628Y-74286766D01*
X185207532Y-74170462D01*
X185349534Y-74083127D01*
X185508222Y-74028046D01*
X185677184Y-74008507D01*
X185800500Y-74018114D01*
X185944473Y-74051485D01*
X186060597Y-74099047D01*
X186146405Y-74157865D01*
X186199430Y-74225002D01*
X186217203Y-74297522D01*
X186197258Y-74372489D01*
X186150351Y-74434406D01*
X186096330Y-74472000D01*
X186030516Y-74483277D01*
X185944775Y-74468490D01*
X185869564Y-74443155D01*
X185761319Y-74410137D01*
X185669563Y-74403083D01*
X185578124Y-74421021D01*
X185566033Y-74424932D01*
X185468437Y-74472604D01*
X185396512Y-74543768D01*
X185348258Y-74642277D01*
X185321677Y-74771985D01*
X185314631Y-74909640D01*
X185322701Y-75060483D01*
X185349192Y-75178124D01*
X185396357Y-75268484D01*
X185466449Y-75337485D01*
X185481338Y-75347870D01*
X185568126Y-75383984D01*
X185674909Y-75397059D01*
X185786031Y-75386884D01*
X185885667Y-75353333D01*
X185946943Y-75326838D01*
X185999201Y-75312088D01*
X186010827Y-75311000D01*
X186093805Y-75330228D01*
X186163846Y-75381082D01*
X186210608Y-75453313D01*
X186224333Y-75522577D01*
X186224333Y-75522577D01*
G36*
X189825202Y-73447612D02*
X189818348Y-74331681D01*
X189816615Y-74548448D01*
X189814932Y-74727221D01*
X189813053Y-74872336D01*
X189810737Y-74988131D01*
X189807738Y-75078943D01*
X189803813Y-75149110D01*
X189798717Y-75202970D01*
X189792208Y-75244859D01*
X189784040Y-75279115D01*
X189773971Y-75310076D01*
X189761755Y-75342078D01*
X189761491Y-75342750D01*
X189700806Y-75472755D01*
X189630618Y-75571882D01*
X189542422Y-75651575D01*
X189520407Y-75667193D01*
X189420500Y-75718286D01*
X189420500Y-74872381D01*
X189420500Y-74587099D01*
X189350430Y-74517029D01*
X189280803Y-74464069D01*
X189200789Y-74425934D01*
X189188309Y-74422173D01*
X189068397Y-74407800D01*
X188963683Y-74431237D01*
X188876546Y-74489944D01*
X188809364Y-74581385D01*
X188764515Y-74703023D01*
X188744378Y-74852321D01*
X188743485Y-74896728D01*
X188757460Y-75054548D01*
X188797035Y-75187353D01*
X188859771Y-75292069D01*
X188943226Y-75365619D01*
X189044961Y-75404929D01*
X189149634Y-75408546D01*
X189222690Y-75389423D01*
X189291039Y-75355065D01*
X189292962Y-75353716D01*
X189340188Y-75313045D01*
X189374565Y-75263676D01*
X189397936Y-75198657D01*
X189412142Y-75111034D01*
X189419026Y-74993855D01*
X189420500Y-74872381D01*
X189420500Y-75718286D01*
X189372508Y-75742830D01*
X189205386Y-75781520D01*
X189021308Y-75782788D01*
X188986583Y-75779009D01*
X188875277Y-75751307D01*
X188754720Y-75699230D01*
X188642307Y-75631297D01*
X188577590Y-75578694D01*
X188534144Y-75527000D01*
X188483751Y-75451406D01*
X188436248Y-75366878D01*
X188429480Y-75353333D01*
X188351696Y-75194583D01*
X188352186Y-74908833D01*
X188353334Y-74785913D01*
X188357089Y-74695189D01*
X188364647Y-74626548D01*
X188377202Y-74569875D01*
X188395951Y-74515057D01*
X188399923Y-74504987D01*
X188482735Y-74351097D01*
X188594011Y-74224455D01*
X188728065Y-74127562D01*
X188879212Y-74062923D01*
X189041767Y-74033040D01*
X189210047Y-74040417D01*
X189362292Y-74081211D01*
X189420500Y-74103452D01*
X189420500Y-73777516D01*
X189420746Y-73653257D01*
X189422185Y-73563817D01*
X189425870Y-73501685D01*
X189432854Y-73459347D01*
X189444189Y-73429291D01*
X189460929Y-73404004D01*
X189475298Y-73386457D01*
X189544150Y-73332977D01*
X189623088Y-73317720D01*
X189703883Y-73340743D01*
X189762062Y-73384472D01*
X189825202Y-73447612D01*
X189825202Y-73447612D01*
X189825202Y-73447612D01*
G37*
X189825202Y-73447612D02*
X189818348Y-74331681D01*
X189816615Y-74548448D01*
X189814932Y-74727221D01*
X189813053Y-74872336D01*
X189810737Y-74988131D01*
X189807738Y-75078943D01*
X189803813Y-75149110D01*
X189798717Y-75202970D01*
X189792208Y-75244859D01*
X189784040Y-75279115D01*
X189773971Y-75310076D01*
X189761755Y-75342078D01*
X189761491Y-75342750D01*
X189700806Y-75472755D01*
X189630618Y-75571882D01*
X189542422Y-75651575D01*
X189520407Y-75667193D01*
X189420500Y-75718286D01*
X189420500Y-74872381D01*
X189420500Y-74587099D01*
X189350430Y-74517029D01*
X189280803Y-74464069D01*
X189200789Y-74425934D01*
X189188309Y-74422173D01*
X189068397Y-74407800D01*
X188963683Y-74431237D01*
X188876546Y-74489944D01*
X188809364Y-74581385D01*
X188764515Y-74703023D01*
X188744378Y-74852321D01*
X188743485Y-74896728D01*
X188757460Y-75054548D01*
X188797035Y-75187353D01*
X188859771Y-75292069D01*
X188943226Y-75365619D01*
X189044961Y-75404929D01*
X189149634Y-75408546D01*
X189222690Y-75389423D01*
X189291039Y-75355065D01*
X189292962Y-75353716D01*
X189340188Y-75313045D01*
X189374565Y-75263676D01*
X189397936Y-75198657D01*
X189412142Y-75111034D01*
X189419026Y-74993855D01*
X189420500Y-74872381D01*
X189420500Y-75718286D01*
X189372508Y-75742830D01*
X189205386Y-75781520D01*
X189021308Y-75782788D01*
X188986583Y-75779009D01*
X188875277Y-75751307D01*
X188754720Y-75699230D01*
X188642307Y-75631297D01*
X188577590Y-75578694D01*
X188534144Y-75527000D01*
X188483751Y-75451406D01*
X188436248Y-75366878D01*
X188429480Y-75353333D01*
X188351696Y-75194583D01*
X188352186Y-74908833D01*
X188353334Y-74785913D01*
X188357089Y-74695189D01*
X188364647Y-74626548D01*
X188377202Y-74569875D01*
X188395951Y-74515057D01*
X188399923Y-74504987D01*
X188482735Y-74351097D01*
X188594011Y-74224455D01*
X188728065Y-74127562D01*
X188879212Y-74062923D01*
X189041767Y-74033040D01*
X189210047Y-74040417D01*
X189362292Y-74081211D01*
X189420500Y-74103452D01*
X189420500Y-73777516D01*
X189420746Y-73653257D01*
X189422185Y-73563817D01*
X189425870Y-73501685D01*
X189432854Y-73459347D01*
X189444189Y-73429291D01*
X189460929Y-73404004D01*
X189475298Y-73386457D01*
X189544150Y-73332977D01*
X189623088Y-73317720D01*
X189703883Y-73340743D01*
X189762062Y-73384472D01*
X189825202Y-73447612D01*
X189825202Y-73447612D01*
G36*
X181906342Y-74250873D02*
X181906337Y-74490676D01*
X181906333Y-74550065D01*
X181906333Y-75632733D01*
X181834367Y-75704699D01*
X181762400Y-75776666D01*
X181673500Y-75776666D01*
X181673500Y-75543833D01*
X181673500Y-74521373D01*
X181673500Y-73498913D01*
X181234292Y-73064230D01*
X181111224Y-72942643D01*
X180988012Y-72821300D01*
X180870704Y-72706129D01*
X180765347Y-72603059D01*
X180677992Y-72518017D01*
X180615167Y-72457394D01*
X180435250Y-72285240D01*
X179689125Y-72284703D01*
X178943000Y-72284166D01*
X178943000Y-73914000D01*
X178943000Y-75543833D01*
X180308250Y-75543833D01*
X181673500Y-75543833D01*
X181673500Y-75776666D01*
X180310700Y-75776666D01*
X178859001Y-75776666D01*
X178789875Y-75714902D01*
X178720750Y-75653139D01*
X178720750Y-73950690D01*
X178720851Y-73634281D01*
X178721184Y-73357595D01*
X178721793Y-73118023D01*
X178722721Y-72912955D01*
X178724013Y-72739781D01*
X178725712Y-72595891D01*
X178727861Y-72478676D01*
X178730506Y-72385527D01*
X178733689Y-72313833D01*
X178737455Y-72260985D01*
X178741847Y-72224373D01*
X178746909Y-72201388D01*
X178750272Y-72193078D01*
X178768011Y-72162892D01*
X178788550Y-72138212D01*
X178816045Y-72118502D01*
X178854654Y-72103227D01*
X178908534Y-72091849D01*
X178981842Y-72083834D01*
X179078734Y-72078644D01*
X179203368Y-72075745D01*
X179359900Y-72074599D01*
X179552488Y-72074671D01*
X179665865Y-72075004D01*
X179842072Y-72075959D01*
X180006712Y-72077547D01*
X180154525Y-72079665D01*
X180280252Y-72082210D01*
X180378634Y-72085077D01*
X180444412Y-72088163D01*
X180470753Y-72090879D01*
X180487227Y-72095484D01*
X180504784Y-72103048D01*
X180526292Y-72116146D01*
X180554621Y-72137353D01*
X180592640Y-72169244D01*
X180643217Y-72214395D01*
X180709220Y-72275381D01*
X180793520Y-72354776D01*
X180898984Y-72455157D01*
X181028481Y-72579099D01*
X181184881Y-72729176D01*
X181229000Y-72771541D01*
X181350165Y-72887707D01*
X181464605Y-72997066D01*
X181567909Y-73095429D01*
X181655663Y-73178607D01*
X181723455Y-73242411D01*
X181766873Y-73282652D01*
X181776169Y-73290988D01*
X181804453Y-73315576D01*
X181828316Y-73338143D01*
X181848133Y-73362317D01*
X181864281Y-73391727D01*
X181877133Y-73430000D01*
X181887065Y-73480765D01*
X181894452Y-73547650D01*
X181899669Y-73634284D01*
X181903092Y-73744295D01*
X181905095Y-73881311D01*
X181906053Y-74048961D01*
X181906342Y-74250873D01*
X181906342Y-74250873D01*
X181906342Y-74250873D01*
G37*
X181906342Y-74250873D02*
X181906337Y-74490676D01*
X181906333Y-74550065D01*
X181906333Y-75632733D01*
X181834367Y-75704699D01*
X181762400Y-75776666D01*
X181673500Y-75776666D01*
X181673500Y-75543833D01*
X181673500Y-74521373D01*
X181673500Y-73498913D01*
X181234292Y-73064230D01*
X181111224Y-72942643D01*
X180988012Y-72821300D01*
X180870704Y-72706129D01*
X180765347Y-72603059D01*
X180677992Y-72518017D01*
X180615167Y-72457394D01*
X180435250Y-72285240D01*
X179689125Y-72284703D01*
X178943000Y-72284166D01*
X178943000Y-73914000D01*
X178943000Y-75543833D01*
X180308250Y-75543833D01*
X181673500Y-75543833D01*
X181673500Y-75776666D01*
X180310700Y-75776666D01*
X178859001Y-75776666D01*
X178789875Y-75714902D01*
X178720750Y-75653139D01*
X178720750Y-73950690D01*
X178720851Y-73634281D01*
X178721184Y-73357595D01*
X178721793Y-73118023D01*
X178722721Y-72912955D01*
X178724013Y-72739781D01*
X178725712Y-72595891D01*
X178727861Y-72478676D01*
X178730506Y-72385527D01*
X178733689Y-72313833D01*
X178737455Y-72260985D01*
X178741847Y-72224373D01*
X178746909Y-72201388D01*
X178750272Y-72193078D01*
X178768011Y-72162892D01*
X178788550Y-72138212D01*
X178816045Y-72118502D01*
X178854654Y-72103227D01*
X178908534Y-72091849D01*
X178981842Y-72083834D01*
X179078734Y-72078644D01*
X179203368Y-72075745D01*
X179359900Y-72074599D01*
X179552488Y-72074671D01*
X179665865Y-72075004D01*
X179842072Y-72075959D01*
X180006712Y-72077547D01*
X180154525Y-72079665D01*
X180280252Y-72082210D01*
X180378634Y-72085077D01*
X180444412Y-72088163D01*
X180470753Y-72090879D01*
X180487227Y-72095484D01*
X180504784Y-72103048D01*
X180526292Y-72116146D01*
X180554621Y-72137353D01*
X180592640Y-72169244D01*
X180643217Y-72214395D01*
X180709220Y-72275381D01*
X180793520Y-72354776D01*
X180898984Y-72455157D01*
X181028481Y-72579099D01*
X181184881Y-72729176D01*
X181229000Y-72771541D01*
X181350165Y-72887707D01*
X181464605Y-72997066D01*
X181567909Y-73095429D01*
X181655663Y-73178607D01*
X181723455Y-73242411D01*
X181766873Y-73282652D01*
X181776169Y-73290988D01*
X181804453Y-73315576D01*
X181828316Y-73338143D01*
X181848133Y-73362317D01*
X181864281Y-73391727D01*
X181877133Y-73430000D01*
X181887065Y-73480765D01*
X181894452Y-73547650D01*
X181899669Y-73634284D01*
X181903092Y-73744295D01*
X181905095Y-73881311D01*
X181906053Y-74048961D01*
X181906342Y-74250873D01*
X181906342Y-74250873D01*
G36*
X184538117Y-73446876D02*
X184538070Y-73532914D01*
X184508389Y-73612634D01*
X184456077Y-73669186D01*
X184377059Y-73698204D01*
X184289482Y-73695934D01*
X184211934Y-73663130D01*
X184206558Y-73659082D01*
X184153840Y-73594629D01*
X184134232Y-73518338D01*
X184144193Y-73439560D01*
X184180184Y-73367645D01*
X184238665Y-73311943D01*
X184316095Y-73281805D01*
X184350455Y-73279000D01*
X184411299Y-73296799D01*
X184472539Y-73341815D01*
X184520119Y-73401474D01*
X184538117Y-73446876D01*
X184538117Y-73446876D01*
X184538117Y-73446876D01*
G37*
X184538117Y-73446876D02*
X184538070Y-73532914D01*
X184508389Y-73612634D01*
X184456077Y-73669186D01*
X184377059Y-73698204D01*
X184289482Y-73695934D01*
X184211934Y-73663130D01*
X184206558Y-73659082D01*
X184153840Y-73594629D01*
X184134232Y-73518338D01*
X184144193Y-73439560D01*
X184180184Y-73367645D01*
X184238665Y-73311943D01*
X184316095Y-73281805D01*
X184350455Y-73279000D01*
X184411299Y-73296799D01*
X184472539Y-73341815D01*
X184520119Y-73401474D01*
X184538117Y-73446876D01*
X184538117Y-73446876D01*
G36*
X181906333Y-72552050D02*
X181906057Y-72689365D01*
X181904827Y-72790376D01*
X181902040Y-72861112D01*
X181897090Y-72907603D01*
X181889374Y-72935877D01*
X181878288Y-72951962D01*
X181865391Y-72960755D01*
X181831955Y-72975803D01*
X181799676Y-72981042D01*
X181764184Y-72973573D01*
X181721105Y-72950492D01*
X181666068Y-72908898D01*
X181594699Y-72845891D01*
X181502627Y-72758568D01*
X181385478Y-72644028D01*
X181380076Y-72638708D01*
X181279088Y-72539355D01*
X181187115Y-72449072D01*
X181108804Y-72372406D01*
X181048805Y-72313905D01*
X181011766Y-72278114D01*
X181002917Y-72269803D01*
X180978197Y-72224061D01*
X180976498Y-72165521D01*
X180996127Y-72113569D01*
X181018367Y-72093113D01*
X181059618Y-72083837D01*
X181141679Y-72077859D01*
X181263151Y-72075232D01*
X181422637Y-72076009D01*
X181454030Y-72076493D01*
X181592972Y-72079145D01*
X181695677Y-72082215D01*
X181768240Y-72086390D01*
X181816756Y-72092359D01*
X181847319Y-72100810D01*
X181866026Y-72112432D01*
X181876329Y-72124170D01*
X181887649Y-72149414D01*
X181895920Y-72193226D01*
X181901519Y-72261015D01*
X181904828Y-72358191D01*
X181906225Y-72490165D01*
X181906333Y-72552050D01*
X181906333Y-72552050D01*
X181906333Y-72552050D01*
G37*
X181906333Y-72552050D02*
X181906057Y-72689365D01*
X181904827Y-72790376D01*
X181902040Y-72861112D01*
X181897090Y-72907603D01*
X181889374Y-72935877D01*
X181878288Y-72951962D01*
X181865391Y-72960755D01*
X181831955Y-72975803D01*
X181799676Y-72981042D01*
X181764184Y-72973573D01*
X181721105Y-72950492D01*
X181666068Y-72908898D01*
X181594699Y-72845891D01*
X181502627Y-72758568D01*
X181385478Y-72644028D01*
X181380076Y-72638708D01*
X181279088Y-72539355D01*
X181187115Y-72449072D01*
X181108804Y-72372406D01*
X181048805Y-72313905D01*
X181011766Y-72278114D01*
X181002917Y-72269803D01*
X180978197Y-72224061D01*
X180976498Y-72165521D01*
X180996127Y-72113569D01*
X181018367Y-72093113D01*
X181059618Y-72083837D01*
X181141679Y-72077859D01*
X181263151Y-72075232D01*
X181422637Y-72076009D01*
X181454030Y-72076493D01*
X181592972Y-72079145D01*
X181695677Y-72082215D01*
X181768240Y-72086390D01*
X181816756Y-72092359D01*
X181847319Y-72100810D01*
X181866026Y-72112432D01*
X181876329Y-72124170D01*
X181887649Y-72149414D01*
X181895920Y-72193226D01*
X181901519Y-72261015D01*
X181904828Y-72358191D01*
X181906225Y-72490165D01*
X181906333Y-72552050D01*
X181906333Y-72552050D01*
G36*
X181525333Y-74697166D02*
X181523699Y-74711392D01*
X181515204Y-74722014D01*
X181494459Y-74729557D01*
X181456076Y-74734548D01*
X181394667Y-74737511D01*
X181304842Y-74738972D01*
X181181214Y-74739458D01*
X181091417Y-74739500D01*
X180657500Y-74739500D01*
X180657500Y-74993500D01*
X180657084Y-75100720D01*
X180655059Y-75172625D01*
X180650254Y-75216229D01*
X180641501Y-75238548D01*
X180627629Y-75246597D01*
X180615167Y-75247500D01*
X180598415Y-75245301D01*
X180586781Y-75234369D01*
X180579335Y-75208198D01*
X180575150Y-75160282D01*
X180573294Y-75084115D01*
X180572838Y-74973192D01*
X180572833Y-74951166D01*
X180572833Y-74654833D01*
X181049083Y-74654833D01*
X181202757Y-74654968D01*
X181319242Y-74655680D01*
X181403685Y-74657424D01*
X181461230Y-74660659D01*
X181497022Y-74665842D01*
X181516206Y-74673431D01*
X181523928Y-74683881D01*
X181525333Y-74697166D01*
X181525333Y-74697166D01*
X181525333Y-74697166D01*
G37*
X181525333Y-74697166D02*
X181523699Y-74711392D01*
X181515204Y-74722014D01*
X181494459Y-74729557D01*
X181456076Y-74734548D01*
X181394667Y-74737511D01*
X181304842Y-74738972D01*
X181181214Y-74739458D01*
X181091417Y-74739500D01*
X180657500Y-74739500D01*
X180657500Y-74993500D01*
X180657084Y-75100720D01*
X180655059Y-75172625D01*
X180650254Y-75216229D01*
X180641501Y-75238548D01*
X180627629Y-75246597D01*
X180615167Y-75247500D01*
X180598415Y-75245301D01*
X180586781Y-75234369D01*
X180579335Y-75208198D01*
X180575150Y-75160282D01*
X180573294Y-75084115D01*
X180572838Y-74973192D01*
X180572833Y-74951166D01*
X180572833Y-74654833D01*
X181049083Y-74654833D01*
X181202757Y-74654968D01*
X181319242Y-74655680D01*
X181403685Y-74657424D01*
X181461230Y-74660659D01*
X181497022Y-74665842D01*
X181516206Y-74673431D01*
X181523928Y-74683881D01*
X181525333Y-74697166D01*
X181525333Y-74697166D01*
G36*
X181546557Y-73947139D02*
X181434738Y-74057569D01*
X181375919Y-74114155D01*
X181333043Y-74147104D01*
X181330823Y-74147957D01*
X181330823Y-73955556D01*
X181323768Y-73922407D01*
X181321525Y-73918722D01*
X181304511Y-73902158D01*
X181273016Y-73890772D01*
X181219402Y-73883312D01*
X181136034Y-73878525D01*
X181062701Y-73876265D01*
X180826833Y-73870280D01*
X180826833Y-73945056D01*
X180826833Y-74019833D01*
X181043792Y-74019160D01*
X181157282Y-74016689D01*
X181235339Y-74009547D01*
X181284687Y-73996893D01*
X181302616Y-73986840D01*
X181330823Y-73955556D01*
X181330823Y-74147957D01*
X181292210Y-74162805D01*
X181239522Y-74167647D01*
X181194544Y-74168000D01*
X181111591Y-74166384D01*
X181006123Y-74162096D01*
X180897814Y-74155977D01*
X180872418Y-74154247D01*
X180678667Y-74140494D01*
X180678667Y-74079612D01*
X180678667Y-74018730D01*
X180355875Y-74024573D01*
X180033083Y-74030416D01*
X180032366Y-74099263D01*
X180025679Y-74141565D01*
X180002610Y-74185928D01*
X179957260Y-74241492D01*
X179906029Y-74295054D01*
X179780408Y-74422000D01*
X179904904Y-74547808D01*
X179963034Y-74608106D01*
X180001473Y-74656462D01*
X180024421Y-74704394D01*
X180036080Y-74763418D01*
X180040652Y-74845052D01*
X180041903Y-74923367D01*
X180043667Y-75075484D01*
X180112458Y-75082117D01*
X180160131Y-75091662D01*
X180178629Y-75116366D01*
X180181250Y-75152250D01*
X180181250Y-75215750D01*
X179985458Y-75221835D01*
X179789667Y-75227921D01*
X179789667Y-75153044D01*
X179793111Y-75102922D01*
X179810671Y-75082224D01*
X179853167Y-75078166D01*
X179916667Y-75078166D01*
X179916667Y-74912793D01*
X179915474Y-74827664D01*
X179909734Y-74772704D01*
X179896202Y-74735765D01*
X179871634Y-74704704D01*
X179857300Y-74690543D01*
X179808749Y-74647972D01*
X179781808Y-74638629D01*
X179770440Y-74663684D01*
X179768500Y-74707750D01*
X179764931Y-74757541D01*
X179747009Y-74777962D01*
X179705927Y-74781833D01*
X179643354Y-74781833D01*
X179637135Y-74628375D01*
X179630917Y-74474916D01*
X179382208Y-74468953D01*
X179133500Y-74462989D01*
X179133500Y-74400161D01*
X179133500Y-74337333D01*
X179387500Y-74337333D01*
X179641500Y-74337333D01*
X179641500Y-74189166D01*
X179641500Y-74041000D01*
X179705000Y-74041000D01*
X179745717Y-74044343D01*
X179763817Y-74062461D01*
X179768400Y-74107486D01*
X179768500Y-74125666D01*
X179772974Y-74186136D01*
X179789124Y-74206759D01*
X179821036Y-74189337D01*
X179849477Y-74161344D01*
X179871154Y-74133640D01*
X179884784Y-74099889D01*
X179892169Y-74050139D01*
X179895114Y-73974438D01*
X179895500Y-73907344D01*
X179895500Y-73702333D01*
X179832000Y-73702333D01*
X179768500Y-73702333D01*
X179768500Y-73363666D01*
X179768500Y-73025000D01*
X179829644Y-73025000D01*
X179871896Y-73019317D01*
X179893657Y-72994006D01*
X179904968Y-72949414D01*
X179910930Y-72893692D01*
X179914556Y-72810535D01*
X179915305Y-72714801D01*
X179914755Y-72679539D01*
X179910361Y-72485250D01*
X179977014Y-72478617D01*
X180043667Y-72471984D01*
X180043667Y-72748492D01*
X180043667Y-73025000D01*
X180107167Y-73025000D01*
X180170667Y-73025000D01*
X180170667Y-73362325D01*
X180170667Y-73699651D01*
X180101875Y-73706283D01*
X180058314Y-73713924D01*
X180043667Y-73727912D01*
X180043667Y-73575333D01*
X180043667Y-73363666D01*
X180043667Y-73152000D01*
X179980167Y-73152000D01*
X179916667Y-73152000D01*
X179916667Y-73363666D01*
X179916667Y-73575333D01*
X179980167Y-73575333D01*
X180043667Y-73575333D01*
X180043667Y-73727912D01*
X180037145Y-73734141D01*
X180028438Y-73779668D01*
X180026574Y-73802875D01*
X180020066Y-73892833D01*
X180349366Y-73892833D01*
X180678667Y-73892833D01*
X180678667Y-73808166D01*
X180678667Y-73723500D01*
X181002181Y-73723500D01*
X181325696Y-73723500D01*
X181436127Y-73835319D01*
X181546557Y-73947139D01*
X181546557Y-73947139D01*
X181546557Y-73947139D01*
G37*
X181546557Y-73947139D02*
X181434738Y-74057569D01*
X181375919Y-74114155D01*
X181333043Y-74147104D01*
X181330823Y-74147957D01*
X181330823Y-73955556D01*
X181323768Y-73922407D01*
X181321525Y-73918722D01*
X181304511Y-73902158D01*
X181273016Y-73890772D01*
X181219402Y-73883312D01*
X181136034Y-73878525D01*
X181062701Y-73876265D01*
X180826833Y-73870280D01*
X180826833Y-73945056D01*
X180826833Y-74019833D01*
X181043792Y-74019160D01*
X181157282Y-74016689D01*
X181235339Y-74009547D01*
X181284687Y-73996893D01*
X181302616Y-73986840D01*
X181330823Y-73955556D01*
X181330823Y-74147957D01*
X181292210Y-74162805D01*
X181239522Y-74167647D01*
X181194544Y-74168000D01*
X181111591Y-74166384D01*
X181006123Y-74162096D01*
X180897814Y-74155977D01*
X180872418Y-74154247D01*
X180678667Y-74140494D01*
X180678667Y-74079612D01*
X180678667Y-74018730D01*
X180355875Y-74024573D01*
X180033083Y-74030416D01*
X180032366Y-74099263D01*
X180025679Y-74141565D01*
X180002610Y-74185928D01*
X179957260Y-74241492D01*
X179906029Y-74295054D01*
X179780408Y-74422000D01*
X179904904Y-74547808D01*
X179963034Y-74608106D01*
X180001473Y-74656462D01*
X180024421Y-74704394D01*
X180036080Y-74763418D01*
X180040652Y-74845052D01*
X180041903Y-74923367D01*
X180043667Y-75075484D01*
X180112458Y-75082117D01*
X180160131Y-75091662D01*
X180178629Y-75116366D01*
X180181250Y-75152250D01*
X180181250Y-75215750D01*
X179985458Y-75221835D01*
X179789667Y-75227921D01*
X179789667Y-75153044D01*
X179793111Y-75102922D01*
X179810671Y-75082224D01*
X179853167Y-75078166D01*
X179916667Y-75078166D01*
X179916667Y-74912793D01*
X179915474Y-74827664D01*
X179909734Y-74772704D01*
X179896202Y-74735765D01*
X179871634Y-74704704D01*
X179857300Y-74690543D01*
X179808749Y-74647972D01*
X179781808Y-74638629D01*
X179770440Y-74663684D01*
X179768500Y-74707750D01*
X179764931Y-74757541D01*
X179747009Y-74777962D01*
X179705927Y-74781833D01*
X179643354Y-74781833D01*
X179637135Y-74628375D01*
X179630917Y-74474916D01*
X179382208Y-74468953D01*
X179133500Y-74462989D01*
X179133500Y-74400161D01*
X179133500Y-74337333D01*
X179387500Y-74337333D01*
X179641500Y-74337333D01*
X179641500Y-74189166D01*
X179641500Y-74041000D01*
X179705000Y-74041000D01*
X179745717Y-74044343D01*
X179763817Y-74062461D01*
X179768400Y-74107486D01*
X179768500Y-74125666D01*
X179772974Y-74186136D01*
X179789124Y-74206759D01*
X179821036Y-74189337D01*
X179849477Y-74161344D01*
X179871154Y-74133640D01*
X179884784Y-74099889D01*
X179892169Y-74050139D01*
X179895114Y-73974438D01*
X179895500Y-73907344D01*
X179895500Y-73702333D01*
X179832000Y-73702333D01*
X179768500Y-73702333D01*
X179768500Y-73363666D01*
X179768500Y-73025000D01*
X179829644Y-73025000D01*
X179871896Y-73019317D01*
X179893657Y-72994006D01*
X179904968Y-72949414D01*
X179910930Y-72893692D01*
X179914556Y-72810535D01*
X179915305Y-72714801D01*
X179914755Y-72679539D01*
X179910361Y-72485250D01*
X179977014Y-72478617D01*
X180043667Y-72471984D01*
X180043667Y-72748492D01*
X180043667Y-73025000D01*
X180107167Y-73025000D01*
X180170667Y-73025000D01*
X180170667Y-73362325D01*
X180170667Y-73699651D01*
X180101875Y-73706283D01*
X180058314Y-73713924D01*
X180043667Y-73727912D01*
X180043667Y-73575333D01*
X180043667Y-73363666D01*
X180043667Y-73152000D01*
X179980167Y-73152000D01*
X179916667Y-73152000D01*
X179916667Y-73363666D01*
X179916667Y-73575333D01*
X179980167Y-73575333D01*
X180043667Y-73575333D01*
X180043667Y-73727912D01*
X180037145Y-73734141D01*
X180028438Y-73779668D01*
X180026574Y-73802875D01*
X180020066Y-73892833D01*
X180349366Y-73892833D01*
X180678667Y-73892833D01*
X180678667Y-73808166D01*
X180678667Y-73723500D01*
X181002181Y-73723500D01*
X181325696Y-73723500D01*
X181436127Y-73835319D01*
X181546557Y-73947139D01*
X181546557Y-73947139D01*
G36*
X181504167Y-75226333D02*
X181377167Y-75226333D01*
X181250167Y-75226333D01*
X181250167Y-75152250D01*
X181250167Y-75078166D01*
X181377167Y-75078166D01*
X181504167Y-75078166D01*
X181504167Y-75152250D01*
X181504167Y-75226333D01*
X181504167Y-75226333D01*
X181504167Y-75226333D01*
G37*
X181504167Y-75226333D02*
X181377167Y-75226333D01*
X181250167Y-75226333D01*
X181250167Y-75152250D01*
X181250167Y-75078166D01*
X181377167Y-75078166D01*
X181504167Y-75078166D01*
X181504167Y-75152250D01*
X181504167Y-75226333D01*
X181504167Y-75226333D01*
G36*
X180975000Y-75152250D02*
X180972587Y-75180695D01*
X180958974Y-75196539D01*
X180924595Y-75203460D01*
X180859887Y-75205136D01*
X180837417Y-75205166D01*
X180763458Y-75204238D01*
X180722263Y-75199002D01*
X180704270Y-75185780D01*
X180699913Y-75160892D01*
X180699833Y-75152250D01*
X180702246Y-75123804D01*
X180715859Y-75107960D01*
X180750238Y-75101039D01*
X180814946Y-75099363D01*
X180837417Y-75099333D01*
X180911375Y-75100261D01*
X180952570Y-75105497D01*
X180970563Y-75118719D01*
X180974920Y-75143607D01*
X180975000Y-75152250D01*
X180975000Y-75152250D01*
X180975000Y-75152250D01*
G37*
X180975000Y-75152250D02*
X180972587Y-75180695D01*
X180958974Y-75196539D01*
X180924595Y-75203460D01*
X180859887Y-75205136D01*
X180837417Y-75205166D01*
X180763458Y-75204238D01*
X180722263Y-75199002D01*
X180704270Y-75185780D01*
X180699913Y-75160892D01*
X180699833Y-75152250D01*
X180702246Y-75123804D01*
X180715859Y-75107960D01*
X180750238Y-75101039D01*
X180814946Y-75099363D01*
X180837417Y-75099333D01*
X180911375Y-75100261D01*
X180952570Y-75105497D01*
X180970563Y-75118719D01*
X180974920Y-75143607D01*
X180975000Y-75152250D01*
X180975000Y-75152250D01*
G36*
X180975000Y-74855916D02*
X180972311Y-74885243D01*
X180957617Y-74901077D01*
X180920977Y-74907559D01*
X180852451Y-74908832D01*
X180848000Y-74908833D01*
X180777615Y-74907712D01*
X180739614Y-74901590D01*
X180724057Y-74886323D01*
X180721003Y-74857771D01*
X180721000Y-74855916D01*
X180723689Y-74826589D01*
X180738383Y-74810755D01*
X180775023Y-74804273D01*
X180843548Y-74803001D01*
X180848000Y-74803000D01*
X180918385Y-74804120D01*
X180956386Y-74810242D01*
X180971943Y-74825509D01*
X180974997Y-74854061D01*
X180975000Y-74855916D01*
X180975000Y-74855916D01*
X180975000Y-74855916D01*
G37*
X180975000Y-74855916D02*
X180972311Y-74885243D01*
X180957617Y-74901077D01*
X180920977Y-74907559D01*
X180852451Y-74908832D01*
X180848000Y-74908833D01*
X180777615Y-74907712D01*
X180739614Y-74901590D01*
X180724057Y-74886323D01*
X180721003Y-74857771D01*
X180721000Y-74855916D01*
X180723689Y-74826589D01*
X180738383Y-74810755D01*
X180775023Y-74804273D01*
X180843548Y-74803001D01*
X180848000Y-74803000D01*
X180918385Y-74804120D01*
X180956386Y-74810242D01*
X180971943Y-74825509D01*
X180974997Y-74854061D01*
X180975000Y-74855916D01*
X180975000Y-74855916D01*
G36*
X181501609Y-74883684D02*
X181492411Y-74897676D01*
X181464942Y-74905192D01*
X181411393Y-74908242D01*
X181323955Y-74908832D01*
X181315139Y-74908833D01*
X181224543Y-74908438D01*
X181168165Y-74905738D01*
X181137889Y-74898462D01*
X181125599Y-74884337D01*
X181123180Y-74861092D01*
X181123167Y-74855092D01*
X181123167Y-74801351D01*
X181308375Y-74807467D01*
X181397448Y-74811141D01*
X181452728Y-74816570D01*
X181482749Y-74826143D01*
X181496047Y-74842250D01*
X181500347Y-74861208D01*
X181501609Y-74883684D01*
X181501609Y-74883684D01*
X181501609Y-74883684D01*
G37*
X181501609Y-74883684D02*
X181492411Y-74897676D01*
X181464942Y-74905192D01*
X181411393Y-74908242D01*
X181323955Y-74908832D01*
X181315139Y-74908833D01*
X181224543Y-74908438D01*
X181168165Y-74905738D01*
X181137889Y-74898462D01*
X181125599Y-74884337D01*
X181123180Y-74861092D01*
X181123167Y-74855092D01*
X181123167Y-74801351D01*
X181308375Y-74807467D01*
X181397448Y-74811141D01*
X181452728Y-74816570D01*
X181482749Y-74826143D01*
X181496047Y-74842250D01*
X181500347Y-74861208D01*
X181501609Y-74883684D01*
X181501609Y-74883684D01*
G36*
X144655378Y-112794418D02*
X144653238Y-113388076D01*
X144653000Y-113572945D01*
X144651032Y-114213217D01*
X144644365Y-114703453D01*
X144631856Y-115062914D01*
X144612361Y-115310861D01*
X144584735Y-115466554D01*
X144547835Y-115549252D01*
X144534831Y-115562670D01*
X144367596Y-115634142D01*
X144229667Y-115664474D01*
X144229667Y-115210748D01*
X144229667Y-113617371D01*
X144225611Y-113096909D01*
X144214250Y-112647332D01*
X144196795Y-112293665D01*
X144174453Y-112060937D01*
X144150275Y-111974926D01*
X144038827Y-111944092D01*
X143796552Y-111897619D01*
X143460493Y-111842095D01*
X143113108Y-111790485D01*
X142484640Y-111728536D01*
X141757051Y-111700245D01*
X140987137Y-111704497D01*
X140231692Y-111740179D01*
X139547514Y-111806176D01*
X139149667Y-111868237D01*
X138599333Y-111972859D01*
X138576366Y-113594143D01*
X138553399Y-115215426D01*
X139126699Y-115306198D01*
X139462613Y-115358928D01*
X139767424Y-115406002D01*
X139954000Y-115434091D01*
X140194169Y-115451739D01*
X140565525Y-115458161D01*
X141030383Y-115454617D01*
X141551057Y-115442364D01*
X142089862Y-115422660D01*
X142609112Y-115396761D01*
X143071122Y-115365926D01*
X143438206Y-115331412D01*
X143573500Y-115313306D01*
X144229667Y-115210748D01*
X144229667Y-115664474D01*
X144058275Y-115702166D01*
X143634113Y-115764037D01*
X143122356Y-115817051D01*
X142550249Y-115858504D01*
X141945039Y-115885692D01*
X141333969Y-115895910D01*
X141181667Y-115895483D01*
X140696669Y-115890260D01*
X140257889Y-115882201D01*
X139899154Y-115872183D01*
X139654292Y-115861080D01*
X139573000Y-115853816D01*
X139066428Y-115770236D01*
X138658639Y-115687708D01*
X138373462Y-115611632D01*
X138239500Y-115551674D01*
X138202465Y-115473849D01*
X138174306Y-115298790D01*
X138154198Y-115011075D01*
X138141317Y-114595284D01*
X138134837Y-114035996D01*
X138133667Y-113572945D01*
X138134618Y-112956599D01*
X138138577Y-112488164D01*
X138147200Y-112146224D01*
X138162144Y-111909362D01*
X138185066Y-111756160D01*
X138217622Y-111665203D01*
X138261468Y-111615073D01*
X138286312Y-111599597D01*
X138552200Y-111506179D01*
X138957761Y-111426175D01*
X139473773Y-111360830D01*
X140071015Y-111311389D01*
X140720264Y-111279099D01*
X141392298Y-111265204D01*
X142057896Y-111270950D01*
X142687834Y-111297582D01*
X143252891Y-111346346D01*
X143491193Y-111377783D01*
X143856658Y-111429423D01*
X144136762Y-111474352D01*
X144342766Y-111533847D01*
X144485929Y-111629182D01*
X144577512Y-111781632D01*
X144628775Y-112012471D01*
X144650977Y-112342975D01*
X144655378Y-112794418D01*
X144655378Y-112794418D01*
X144655378Y-112794418D01*
G37*
X144655378Y-112794418D02*
X144653238Y-113388076D01*
X144653000Y-113572945D01*
X144651032Y-114213217D01*
X144644365Y-114703453D01*
X144631856Y-115062914D01*
X144612361Y-115310861D01*
X144584735Y-115466554D01*
X144547835Y-115549252D01*
X144534831Y-115562670D01*
X144367596Y-115634142D01*
X144229667Y-115664474D01*
X144229667Y-115210748D01*
X144229667Y-113617371D01*
X144225611Y-113096909D01*
X144214250Y-112647332D01*
X144196795Y-112293665D01*
X144174453Y-112060937D01*
X144150275Y-111974926D01*
X144038827Y-111944092D01*
X143796552Y-111897619D01*
X143460493Y-111842095D01*
X143113108Y-111790485D01*
X142484640Y-111728536D01*
X141757051Y-111700245D01*
X140987137Y-111704497D01*
X140231692Y-111740179D01*
X139547514Y-111806176D01*
X139149667Y-111868237D01*
X138599333Y-111972859D01*
X138576366Y-113594143D01*
X138553399Y-115215426D01*
X139126699Y-115306198D01*
X139462613Y-115358928D01*
X139767424Y-115406002D01*
X139954000Y-115434091D01*
X140194169Y-115451739D01*
X140565525Y-115458161D01*
X141030383Y-115454617D01*
X141551057Y-115442364D01*
X142089862Y-115422660D01*
X142609112Y-115396761D01*
X143071122Y-115365926D01*
X143438206Y-115331412D01*
X143573500Y-115313306D01*
X144229667Y-115210748D01*
X144229667Y-115664474D01*
X144058275Y-115702166D01*
X143634113Y-115764037D01*
X143122356Y-115817051D01*
X142550249Y-115858504D01*
X141945039Y-115885692D01*
X141333969Y-115895910D01*
X141181667Y-115895483D01*
X140696669Y-115890260D01*
X140257889Y-115882201D01*
X139899154Y-115872183D01*
X139654292Y-115861080D01*
X139573000Y-115853816D01*
X139066428Y-115770236D01*
X138658639Y-115687708D01*
X138373462Y-115611632D01*
X138239500Y-115551674D01*
X138202465Y-115473849D01*
X138174306Y-115298790D01*
X138154198Y-115011075D01*
X138141317Y-114595284D01*
X138134837Y-114035996D01*
X138133667Y-113572945D01*
X138134618Y-112956599D01*
X138138577Y-112488164D01*
X138147200Y-112146224D01*
X138162144Y-111909362D01*
X138185066Y-111756160D01*
X138217622Y-111665203D01*
X138261468Y-111615073D01*
X138286312Y-111599597D01*
X138552200Y-111506179D01*
X138957761Y-111426175D01*
X139473773Y-111360830D01*
X140071015Y-111311389D01*
X140720264Y-111279099D01*
X141392298Y-111265204D01*
X142057896Y-111270950D01*
X142687834Y-111297582D01*
X143252891Y-111346346D01*
X143491193Y-111377783D01*
X143856658Y-111429423D01*
X144136762Y-111474352D01*
X144342766Y-111533847D01*
X144485929Y-111629182D01*
X144577512Y-111781632D01*
X144628775Y-112012471D01*
X144650977Y-112342975D01*
X144655378Y-112794418D01*
X144655378Y-112794418D01*
G36*
X141693670Y-113939396D02*
X141646189Y-114322950D01*
X141481447Y-114672481D01*
X141207161Y-114941811D01*
X141065903Y-115015168D01*
X140877567Y-115065105D01*
X140606715Y-115096878D01*
X140217911Y-115115742D01*
X139996333Y-115121393D01*
X139599939Y-115125691D01*
X139261647Y-115121729D01*
X139019870Y-115110450D01*
X138916833Y-115094953D01*
X138827971Y-114977885D01*
X138819884Y-114799760D01*
X138887694Y-114645596D01*
X138944925Y-114605391D01*
X139083727Y-114583378D01*
X139347799Y-114566077D01*
X139693093Y-114555813D01*
X139918591Y-114554000D01*
X140400135Y-114538429D01*
X140736671Y-114484481D01*
X140950272Y-114381299D01*
X141063013Y-114218028D01*
X141096967Y-113983811D01*
X141097000Y-113974455D01*
X141030502Y-113710492D01*
X140825858Y-113523644D01*
X140475342Y-113408320D01*
X140273924Y-113378904D01*
X139998361Y-113343063D01*
X139851693Y-113297056D01*
X139793873Y-113219255D01*
X139784667Y-113114666D01*
X139795631Y-113000268D01*
X139853964Y-112933955D01*
X139997824Y-112899166D01*
X140265369Y-112879341D01*
X140335000Y-112875817D01*
X140751280Y-112879844D01*
X141050980Y-112944245D01*
X141145279Y-112986786D01*
X141441942Y-113231094D01*
X141625163Y-113562037D01*
X141693670Y-113939396D01*
X141693670Y-113939396D01*
X141693670Y-113939396D01*
G37*
X141693670Y-113939396D02*
X141646189Y-114322950D01*
X141481447Y-114672481D01*
X141207161Y-114941811D01*
X141065903Y-115015168D01*
X140877567Y-115065105D01*
X140606715Y-115096878D01*
X140217911Y-115115742D01*
X139996333Y-115121393D01*
X139599939Y-115125691D01*
X139261647Y-115121729D01*
X139019870Y-115110450D01*
X138916833Y-115094953D01*
X138827971Y-114977885D01*
X138819884Y-114799760D01*
X138887694Y-114645596D01*
X138944925Y-114605391D01*
X139083727Y-114583378D01*
X139347799Y-114566077D01*
X139693093Y-114555813D01*
X139918591Y-114554000D01*
X140400135Y-114538429D01*
X140736671Y-114484481D01*
X140950272Y-114381299D01*
X141063013Y-114218028D01*
X141096967Y-113983811D01*
X141097000Y-113974455D01*
X141030502Y-113710492D01*
X140825858Y-113523644D01*
X140475342Y-113408320D01*
X140273924Y-113378904D01*
X139998361Y-113343063D01*
X139851693Y-113297056D01*
X139793873Y-113219255D01*
X139784667Y-113114666D01*
X139795631Y-113000268D01*
X139853964Y-112933955D01*
X139997824Y-112899166D01*
X140265369Y-112879341D01*
X140335000Y-112875817D01*
X140751280Y-112879844D01*
X141050980Y-112944245D01*
X141145279Y-112986786D01*
X141441942Y-113231094D01*
X141625163Y-113562037D01*
X141693670Y-113939396D01*
X141693670Y-113939396D01*
G36*
X143890068Y-114030399D02*
X143870138Y-114553157D01*
X143809339Y-114916069D01*
X143708294Y-115117846D01*
X143567624Y-115157203D01*
X143399933Y-115045066D01*
X143346682Y-114899488D01*
X143312686Y-114592882D01*
X143298676Y-114132537D01*
X143298333Y-114033050D01*
X143289764Y-113635735D01*
X143266630Y-113283407D01*
X143232790Y-113021877D01*
X143204241Y-112916124D01*
X143060675Y-112746654D01*
X142826328Y-112599565D01*
X142780908Y-112580284D01*
X142559838Y-112469786D01*
X142465007Y-112343972D01*
X142451667Y-112238685D01*
X142515639Y-112062243D01*
X142683569Y-111978667D01*
X142919475Y-111985481D01*
X143187374Y-112080205D01*
X143451284Y-112260361D01*
X143505278Y-112311255D01*
X143656560Y-112487985D01*
X143763216Y-112687797D01*
X143832517Y-112943186D01*
X143871737Y-113286649D01*
X143888149Y-113750682D01*
X143890068Y-114030399D01*
X143890068Y-114030399D01*
X143890068Y-114030399D01*
G37*
X143890068Y-114030399D02*
X143870138Y-114553157D01*
X143809339Y-114916069D01*
X143708294Y-115117846D01*
X143567624Y-115157203D01*
X143399933Y-115045066D01*
X143346682Y-114899488D01*
X143312686Y-114592882D01*
X143298676Y-114132537D01*
X143298333Y-114033050D01*
X143289764Y-113635735D01*
X143266630Y-113283407D01*
X143232790Y-113021877D01*
X143204241Y-112916124D01*
X143060675Y-112746654D01*
X142826328Y-112599565D01*
X142780908Y-112580284D01*
X142559838Y-112469786D01*
X142465007Y-112343972D01*
X142451667Y-112238685D01*
X142515639Y-112062243D01*
X142683569Y-111978667D01*
X142919475Y-111985481D01*
X143187374Y-112080205D01*
X143451284Y-112260361D01*
X143505278Y-112311255D01*
X143656560Y-112487985D01*
X143763216Y-112687797D01*
X143832517Y-112943186D01*
X143871737Y-113286649D01*
X143888149Y-113750682D01*
X143890068Y-114030399D01*
X143890068Y-114030399D01*
G36*
X142546199Y-113664520D02*
X142522174Y-113961519D01*
X142470217Y-114171327D01*
X142409333Y-114245951D01*
X142217305Y-114276023D01*
X142096857Y-114179621D01*
X142038111Y-113942874D01*
X142028333Y-113710909D01*
X141993254Y-113215412D01*
X141885985Y-112865937D01*
X141703479Y-112653931D01*
X141639135Y-112618336D01*
X141461694Y-112575401D01*
X141166586Y-112542319D01*
X140805408Y-112524058D01*
X140638767Y-112522000D01*
X140247142Y-112527548D01*
X139982346Y-112549080D01*
X139802098Y-112593927D01*
X139664114Y-112669422D01*
X139626751Y-112697478D01*
X139447754Y-112926739D01*
X139410202Y-113189950D01*
X139517386Y-113436950D01*
X139574312Y-113496854D01*
X139797206Y-113611454D01*
X140146642Y-113682508D01*
X140230479Y-113690644D01*
X140594848Y-113747077D01*
X140795648Y-113844606D01*
X140833808Y-113984155D01*
X140710257Y-114166647D01*
X140709952Y-114166952D01*
X140512853Y-114264949D01*
X140190223Y-114282715D01*
X139730121Y-114220860D01*
X139713751Y-114217719D01*
X139334002Y-114071080D01*
X139055556Y-113819501D01*
X138882496Y-113496686D01*
X138818901Y-113136335D01*
X138868854Y-112772151D01*
X139036435Y-112437837D01*
X139325726Y-112167094D01*
X139456528Y-112093569D01*
X139639860Y-112014187D01*
X139823289Y-111963824D01*
X140048337Y-111937875D01*
X140356528Y-111931734D01*
X140789384Y-111940796D01*
X140824491Y-111941852D01*
X141317486Y-111964266D01*
X141675435Y-112004823D01*
X141932523Y-112075716D01*
X142122932Y-112189137D01*
X142280845Y-112357277D01*
X142378625Y-112496171D01*
X142458505Y-112696154D01*
X142513582Y-112987259D01*
X142543074Y-113324907D01*
X142546199Y-113664520D01*
X142546199Y-113664520D01*
X142546199Y-113664520D01*
G37*
X142546199Y-113664520D02*
X142522174Y-113961519D01*
X142470217Y-114171327D01*
X142409333Y-114245951D01*
X142217305Y-114276023D01*
X142096857Y-114179621D01*
X142038111Y-113942874D01*
X142028333Y-113710909D01*
X141993254Y-113215412D01*
X141885985Y-112865937D01*
X141703479Y-112653931D01*
X141639135Y-112618336D01*
X141461694Y-112575401D01*
X141166586Y-112542319D01*
X140805408Y-112524058D01*
X140638767Y-112522000D01*
X140247142Y-112527548D01*
X139982346Y-112549080D01*
X139802098Y-112593927D01*
X139664114Y-112669422D01*
X139626751Y-112697478D01*
X139447754Y-112926739D01*
X139410202Y-113189950D01*
X139517386Y-113436950D01*
X139574312Y-113496854D01*
X139797206Y-113611454D01*
X140146642Y-113682508D01*
X140230479Y-113690644D01*
X140594848Y-113747077D01*
X140795648Y-113844606D01*
X140833808Y-113984155D01*
X140710257Y-114166647D01*
X140709952Y-114166952D01*
X140512853Y-114264949D01*
X140190223Y-114282715D01*
X139730121Y-114220860D01*
X139713751Y-114217719D01*
X139334002Y-114071080D01*
X139055556Y-113819501D01*
X138882496Y-113496686D01*
X138818901Y-113136335D01*
X138868854Y-112772151D01*
X139036435Y-112437837D01*
X139325726Y-112167094D01*
X139456528Y-112093569D01*
X139639860Y-112014187D01*
X139823289Y-111963824D01*
X140048337Y-111937875D01*
X140356528Y-111931734D01*
X140789384Y-111940796D01*
X140824491Y-111941852D01*
X141317486Y-111964266D01*
X141675435Y-112004823D01*
X141932523Y-112075716D01*
X142122932Y-112189137D01*
X142280845Y-112357277D01*
X142378625Y-112496171D01*
X142458505Y-112696154D01*
X142513582Y-112987259D01*
X142543074Y-113324907D01*
X142546199Y-113664520D01*
X142546199Y-113664520D01*
D11*
X178689000Y-86080600D02*
G75*
G03X178689000Y-86080600I-3175000J0D01*
G01*
X162179000Y-79476600D02*
X181229000Y-79476600D01*
X181229000Y-79476600D02*
X181229000Y-92684600D01*
X181229000Y-92684600D02*
X162179000Y-92684600D01*
X145288000Y-97118714D02*
X145034000Y-96755857D01*
X144852572Y-97118714D02*
X144852572Y-96356714D01*
X145142857Y-96356714D01*
X145215429Y-96393000D01*
X145251714Y-96429286D01*
X145288000Y-96501857D01*
X145288000Y-96610714D01*
X145251714Y-96683286D01*
X145215429Y-96719571D01*
X145142857Y-96755857D01*
X144852572Y-96755857D01*
X145650857Y-97118714D02*
X145796000Y-97118714D01*
X145868572Y-97082429D01*
X145904857Y-97046143D01*
X145977429Y-96937286D01*
X146013714Y-96792143D01*
X146013714Y-96501857D01*
X145977429Y-96429286D01*
X145941143Y-96393000D01*
X145868572Y-96356714D01*
X145723429Y-96356714D01*
X145650857Y-96393000D01*
X145614572Y-96429286D01*
X145578286Y-96501857D01*
X145578286Y-96683286D01*
X145614572Y-96755857D01*
X145650857Y-96792143D01*
X145723429Y-96828429D01*
X145868572Y-96828429D01*
X145941143Y-96792143D01*
X145977429Y-96755857D01*
X146013714Y-96683286D01*
X174062572Y-108167714D02*
X174244001Y-108929714D01*
X174389144Y-108385429D01*
X174534286Y-108929714D01*
X174715715Y-108167714D01*
X175332572Y-108421714D02*
X175332572Y-108929714D01*
X175151143Y-108131429D02*
X174969715Y-108675714D01*
X175441429Y-108675714D01*
X187960001Y-83239429D02*
X188068858Y-83275714D01*
X188250287Y-83275714D01*
X188322858Y-83239429D01*
X188359144Y-83203143D01*
X188395429Y-83130571D01*
X188395429Y-83058000D01*
X188359144Y-82985429D01*
X188322858Y-82949143D01*
X188250287Y-82912857D01*
X188105144Y-82876571D01*
X188032572Y-82840286D01*
X187996287Y-82804000D01*
X187960001Y-82731429D01*
X187960001Y-82658857D01*
X187996287Y-82586286D01*
X188032572Y-82550000D01*
X188105144Y-82513714D01*
X188286572Y-82513714D01*
X188395429Y-82550000D01*
X188649429Y-82513714D02*
X188830858Y-83275714D01*
X188976001Y-82731429D01*
X189121143Y-83275714D01*
X189302572Y-82513714D01*
X189556572Y-82586286D02*
X189592858Y-82550000D01*
X189665429Y-82513714D01*
X189846858Y-82513714D01*
X189919429Y-82550000D01*
X189955715Y-82586286D01*
X189992000Y-82658857D01*
X189992000Y-82731429D01*
X189955715Y-82840286D01*
X189520286Y-83275714D01*
X189992000Y-83275714D01*
X168833800Y-79012143D02*
X168797514Y-79048429D01*
X168688657Y-79084714D01*
X168616086Y-79084714D01*
X168507229Y-79048429D01*
X168434657Y-78975857D01*
X168398372Y-78903286D01*
X168362086Y-78758143D01*
X168362086Y-78649286D01*
X168398372Y-78504143D01*
X168434657Y-78431571D01*
X168507229Y-78359000D01*
X168616086Y-78322714D01*
X168688657Y-78322714D01*
X168797514Y-78359000D01*
X168833800Y-78395286D01*
X169559514Y-79084714D02*
X169124086Y-79084714D01*
X169341800Y-79084714D02*
X169341800Y-78322714D01*
X169269229Y-78431571D01*
X169196657Y-78504143D01*
X169124086Y-78540429D01*
X160401000Y-93943714D02*
X160147000Y-93580857D01*
X159965572Y-93943714D02*
X159965572Y-93181714D01*
X160255857Y-93181714D01*
X160328429Y-93218000D01*
X160364714Y-93254286D01*
X160401000Y-93326857D01*
X160401000Y-93435714D01*
X160364714Y-93508286D01*
X160328429Y-93544571D01*
X160255857Y-93580857D01*
X159965572Y-93580857D01*
X160655000Y-93181714D02*
X161163000Y-93181714D01*
X160836429Y-93943714D01*
X182880000Y-92855143D02*
X182843714Y-92891429D01*
X182734857Y-92927714D01*
X182662286Y-92927714D01*
X182553429Y-92891429D01*
X182480857Y-92818857D01*
X182444572Y-92746286D01*
X182408286Y-92601143D01*
X182408286Y-92492286D01*
X182444572Y-92347143D01*
X182480857Y-92274571D01*
X182553429Y-92202000D01*
X182662286Y-92165714D01*
X182734857Y-92165714D01*
X182843714Y-92202000D01*
X182880000Y-92238286D01*
X183533143Y-92165714D02*
X183388000Y-92165714D01*
X183315429Y-92202000D01*
X183279143Y-92238286D01*
X183206572Y-92347143D01*
X183170286Y-92492286D01*
X183170286Y-92782571D01*
X183206572Y-92855143D01*
X183242857Y-92891429D01*
X183315429Y-92927714D01*
X183460572Y-92927714D01*
X183533143Y-92891429D01*
X183569429Y-92855143D01*
X183605714Y-92782571D01*
X183605714Y-92601143D01*
X183569429Y-92528571D01*
X183533143Y-92492286D01*
X183460572Y-92456000D01*
X183315429Y-92456000D01*
X183242857Y-92492286D01*
X183206572Y-92528571D01*
X183170286Y-92601143D01*
X164261800Y-73855943D02*
X164225514Y-73892229D01*
X164116657Y-73928514D01*
X164044086Y-73928514D01*
X163935229Y-73892229D01*
X163862657Y-73819657D01*
X163826372Y-73747086D01*
X163790086Y-73601943D01*
X163790086Y-73493086D01*
X163826372Y-73347943D01*
X163862657Y-73275371D01*
X163935229Y-73202800D01*
X164044086Y-73166514D01*
X164116657Y-73166514D01*
X164225514Y-73202800D01*
X164261800Y-73239086D01*
X164552086Y-73239086D02*
X164588372Y-73202800D01*
X164660943Y-73166514D01*
X164842372Y-73166514D01*
X164914943Y-73202800D01*
X164951229Y-73239086D01*
X164987514Y-73311657D01*
X164987514Y-73384229D01*
X164951229Y-73493086D01*
X164515800Y-73928514D01*
X164987514Y-73928514D01*
X177692714Y-102561571D02*
X178309571Y-102561571D01*
X178382143Y-102525286D01*
X178418429Y-102489000D01*
X178454714Y-102416429D01*
X178454714Y-102271286D01*
X178418429Y-102198714D01*
X178382143Y-102162429D01*
X178309571Y-102126143D01*
X177692714Y-102126143D01*
X177765286Y-101799571D02*
X177729000Y-101763285D01*
X177692714Y-101690714D01*
X177692714Y-101509285D01*
X177729000Y-101436714D01*
X177765286Y-101400428D01*
X177837857Y-101364143D01*
X177910429Y-101364143D01*
X178019286Y-101400428D01*
X178454714Y-101835857D01*
X178454714Y-101364143D01*
X155371800Y-84396943D02*
X155335514Y-84433229D01*
X155226657Y-84469514D01*
X155154086Y-84469514D01*
X155045229Y-84433229D01*
X154972657Y-84360657D01*
X154936372Y-84288086D01*
X154900086Y-84142943D01*
X154900086Y-84034086D01*
X154936372Y-83888943D01*
X154972657Y-83816371D01*
X155045229Y-83743800D01*
X155154086Y-83707514D01*
X155226657Y-83707514D01*
X155335514Y-83743800D01*
X155371800Y-83780086D01*
X155625800Y-83707514D02*
X156097514Y-83707514D01*
X155843514Y-83997800D01*
X155952372Y-83997800D01*
X156024943Y-84034086D01*
X156061229Y-84070371D01*
X156097514Y-84142943D01*
X156097514Y-84324371D01*
X156061229Y-84396943D01*
X156024943Y-84433229D01*
X155952372Y-84469514D01*
X155734657Y-84469514D01*
X155662086Y-84433229D01*
X155625800Y-84396943D01*
X163753800Y-69334743D02*
X163717514Y-69371029D01*
X163608657Y-69407314D01*
X163536086Y-69407314D01*
X163427229Y-69371029D01*
X163354657Y-69298457D01*
X163318372Y-69225886D01*
X163282086Y-69080743D01*
X163282086Y-68971886D01*
X163318372Y-68826743D01*
X163354657Y-68754171D01*
X163427229Y-68681600D01*
X163536086Y-68645314D01*
X163608657Y-68645314D01*
X163717514Y-68681600D01*
X163753800Y-68717886D01*
X164406943Y-68899314D02*
X164406943Y-69407314D01*
X164225514Y-68609029D02*
X164044086Y-69153314D01*
X164515800Y-69153314D01*
X176276000Y-106698143D02*
X176239714Y-106734429D01*
X176130857Y-106770714D01*
X176058286Y-106770714D01*
X175949429Y-106734429D01*
X175876857Y-106661857D01*
X175840572Y-106589286D01*
X175804286Y-106444143D01*
X175804286Y-106335286D01*
X175840572Y-106190143D01*
X175876857Y-106117571D01*
X175949429Y-106045000D01*
X176058286Y-106008714D01*
X176130857Y-106008714D01*
X176239714Y-106045000D01*
X176276000Y-106081286D01*
X176965429Y-106008714D02*
X176602572Y-106008714D01*
X176566286Y-106371571D01*
X176602572Y-106335286D01*
X176675143Y-106299000D01*
X176856572Y-106299000D01*
X176929143Y-106335286D01*
X176965429Y-106371571D01*
X177001714Y-106444143D01*
X177001714Y-106625571D01*
X176965429Y-106698143D01*
X176929143Y-106734429D01*
X176856572Y-106770714D01*
X176675143Y-106770714D01*
X176602572Y-106734429D01*
X176566286Y-106698143D01*
X152908000Y-90442143D02*
X152871714Y-90478429D01*
X152762857Y-90514714D01*
X152690286Y-90514714D01*
X152581429Y-90478429D01*
X152508857Y-90405857D01*
X152472572Y-90333286D01*
X152436286Y-90188143D01*
X152436286Y-90079286D01*
X152472572Y-89934143D01*
X152508857Y-89861571D01*
X152581429Y-89789000D01*
X152690286Y-89752714D01*
X152762857Y-89752714D01*
X152871714Y-89789000D01*
X152908000Y-89825286D01*
X153162000Y-89752714D02*
X153670000Y-89752714D01*
X153343429Y-90514714D01*
X155575000Y-90569143D02*
X155538714Y-90605429D01*
X155429857Y-90641714D01*
X155357286Y-90641714D01*
X155248429Y-90605429D01*
X155175857Y-90532857D01*
X155139572Y-90460286D01*
X155103286Y-90315143D01*
X155103286Y-90206286D01*
X155139572Y-90061143D01*
X155175857Y-89988571D01*
X155248429Y-89916000D01*
X155357286Y-89879714D01*
X155429857Y-89879714D01*
X155538714Y-89916000D01*
X155575000Y-89952286D01*
X156010429Y-90206286D02*
X155937857Y-90170000D01*
X155901572Y-90133714D01*
X155865286Y-90061143D01*
X155865286Y-90024857D01*
X155901572Y-89952286D01*
X155937857Y-89916000D01*
X156010429Y-89879714D01*
X156155572Y-89879714D01*
X156228143Y-89916000D01*
X156264429Y-89952286D01*
X156300714Y-90024857D01*
X156300714Y-90061143D01*
X156264429Y-90133714D01*
X156228143Y-90170000D01*
X156155572Y-90206286D01*
X156010429Y-90206286D01*
X155937857Y-90242571D01*
X155901572Y-90278857D01*
X155865286Y-90351429D01*
X155865286Y-90496571D01*
X155901572Y-90569143D01*
X155937857Y-90605429D01*
X156010429Y-90641714D01*
X156155572Y-90641714D01*
X156228143Y-90605429D01*
X156264429Y-90569143D01*
X156300714Y-90496571D01*
X156300714Y-90351429D01*
X156264429Y-90278857D01*
X156228143Y-90242571D01*
X156155572Y-90206286D01*
X170942000Y-98570143D02*
X170905714Y-98606429D01*
X170796857Y-98642714D01*
X170724286Y-98642714D01*
X170615429Y-98606429D01*
X170542857Y-98533857D01*
X170506572Y-98461286D01*
X170470286Y-98316143D01*
X170470286Y-98207286D01*
X170506572Y-98062143D01*
X170542857Y-97989571D01*
X170615429Y-97917000D01*
X170724286Y-97880714D01*
X170796857Y-97880714D01*
X170905714Y-97917000D01*
X170942000Y-97953286D01*
X171304857Y-98642714D02*
X171450000Y-98642714D01*
X171522572Y-98606429D01*
X171558857Y-98570143D01*
X171631429Y-98461286D01*
X171667714Y-98316143D01*
X171667714Y-98025857D01*
X171631429Y-97953286D01*
X171595143Y-97917000D01*
X171522572Y-97880714D01*
X171377429Y-97880714D01*
X171304857Y-97917000D01*
X171268572Y-97953286D01*
X171232286Y-98025857D01*
X171232286Y-98207286D01*
X171268572Y-98279857D01*
X171304857Y-98316143D01*
X171377429Y-98352429D01*
X171522572Y-98352429D01*
X171595143Y-98316143D01*
X171631429Y-98279857D01*
X171667714Y-98207286D01*
X173119143Y-94633143D02*
X173082857Y-94669429D01*
X172974000Y-94705714D01*
X172901429Y-94705714D01*
X172792572Y-94669429D01*
X172720000Y-94596857D01*
X172683715Y-94524286D01*
X172647429Y-94379143D01*
X172647429Y-94270286D01*
X172683715Y-94125143D01*
X172720000Y-94052571D01*
X172792572Y-93980000D01*
X172901429Y-93943714D01*
X172974000Y-93943714D01*
X173082857Y-93980000D01*
X173119143Y-94016286D01*
X173844857Y-94705714D02*
X173409429Y-94705714D01*
X173627143Y-94705714D02*
X173627143Y-93943714D01*
X173554572Y-94052571D01*
X173482000Y-94125143D01*
X173409429Y-94161429D01*
X174316571Y-93943714D02*
X174389143Y-93943714D01*
X174461714Y-93980000D01*
X174498000Y-94016286D01*
X174534286Y-94088857D01*
X174570571Y-94234000D01*
X174570571Y-94415429D01*
X174534286Y-94560571D01*
X174498000Y-94633143D01*
X174461714Y-94669429D01*
X174389143Y-94705714D01*
X174316571Y-94705714D01*
X174244000Y-94669429D01*
X174207714Y-94633143D01*
X174171429Y-94560571D01*
X174135143Y-94415429D01*
X174135143Y-94234000D01*
X174171429Y-94088857D01*
X174207714Y-94016286D01*
X174244000Y-93980000D01*
X174316571Y-93943714D01*
X150861753Y-75126945D02*
X150322938Y-74588130D01*
X150451227Y-74459841D01*
X150553858Y-74408525D01*
X150656490Y-74408525D01*
X150733463Y-74434184D01*
X150861753Y-74511157D01*
X150938726Y-74588131D01*
X151015700Y-74716420D01*
X151041358Y-74793393D01*
X151041358Y-74896025D01*
X150990042Y-74998656D01*
X150861753Y-75126945D01*
X150887411Y-74126289D02*
X150887411Y-74074973D01*
X150913068Y-73997999D01*
X151041358Y-73869709D01*
X151118332Y-73844052D01*
X151169648Y-73844052D01*
X151246621Y-73869710D01*
X151297937Y-73921026D01*
X151349253Y-74023657D01*
X151349252Y-74639446D01*
X151682804Y-74305894D01*
X154583368Y-76256345D02*
X154583368Y-76205029D01*
X154609026Y-76128054D01*
X154762974Y-76076740D01*
X154788632Y-75999765D01*
X154788632Y-75948449D01*
X154762973Y-80746473D02*
X154762973Y-80695157D01*
X154788631Y-80618182D01*
X154942579Y-80566868D01*
X154968237Y-80489893D01*
X154968237Y-80438577D01*
X152385625Y-78526550D02*
X152796150Y-78116024D01*
X156754425Y-78577350D02*
X157164950Y-78166824D01*
X157164950Y-78577350D02*
X156754424Y-78166824D01*
X189429572Y-109158314D02*
X189429572Y-108396314D01*
X189611000Y-108396314D01*
X189719857Y-108432600D01*
X189792429Y-108505171D01*
X189828714Y-108577743D01*
X189865000Y-108722886D01*
X189865000Y-108831743D01*
X189828714Y-108976886D01*
X189792429Y-109049457D01*
X189719857Y-109122029D01*
X189611000Y-109158314D01*
X189429572Y-109158314D01*
X190119000Y-108396314D02*
X190590714Y-108396314D01*
X190336714Y-108686600D01*
X190445572Y-108686600D01*
X190518143Y-108722886D01*
X190554429Y-108759171D01*
X190590714Y-108831743D01*
X190590714Y-109013171D01*
X190554429Y-109085743D01*
X190518143Y-109122029D01*
X190445572Y-109158314D01*
X190227857Y-109158314D01*
X190155286Y-109122029D01*
X190119000Y-109085743D01*
X157425572Y-90641714D02*
X157425572Y-89879714D01*
X157607000Y-89879714D01*
X157715857Y-89916000D01*
X157788429Y-89988571D01*
X157824714Y-90061143D01*
X157861000Y-90206286D01*
X157861000Y-90315143D01*
X157824714Y-90460286D01*
X157788429Y-90532857D01*
X157715857Y-90605429D01*
X157607000Y-90641714D01*
X157425572Y-90641714D01*
X158514143Y-90133714D02*
X158514143Y-90641714D01*
X158332714Y-89843429D02*
X158151286Y-90387714D01*
X158623000Y-90387714D01*
X189226372Y-99760314D02*
X189226372Y-98998314D01*
X189407800Y-98998314D01*
X189516657Y-99034600D01*
X189589229Y-99107171D01*
X189625514Y-99179743D01*
X189661800Y-99324886D01*
X189661800Y-99433743D01*
X189625514Y-99578886D01*
X189589229Y-99651457D01*
X189516657Y-99724029D01*
X189407800Y-99760314D01*
X189226372Y-99760314D01*
X190351229Y-98998314D02*
X189988372Y-98998314D01*
X189952086Y-99361171D01*
X189988372Y-99324886D01*
X190060943Y-99288600D01*
X190242372Y-99288600D01*
X190314943Y-99324886D01*
X190351229Y-99361171D01*
X190387514Y-99433743D01*
X190387514Y-99615171D01*
X190351229Y-99687743D01*
X190314943Y-99724029D01*
X190242372Y-99760314D01*
X190060943Y-99760314D01*
X189988372Y-99724029D01*
X189952086Y-99687743D01*
X148662572Y-92165714D02*
X148662572Y-91403714D01*
X148844000Y-91403714D01*
X148952857Y-91440000D01*
X149025429Y-91512571D01*
X149061714Y-91585143D01*
X149098000Y-91730286D01*
X149098000Y-91839143D01*
X149061714Y-91984286D01*
X149025429Y-92056857D01*
X148952857Y-92129429D01*
X148844000Y-92165714D01*
X148662572Y-92165714D01*
X149751143Y-91403714D02*
X149606000Y-91403714D01*
X149533429Y-91440000D01*
X149497143Y-91476286D01*
X149424572Y-91585143D01*
X149388286Y-91730286D01*
X149388286Y-92020571D01*
X149424572Y-92093143D01*
X149460857Y-92129429D01*
X149533429Y-92165714D01*
X149678572Y-92165714D01*
X149751143Y-92129429D01*
X149787429Y-92093143D01*
X149823714Y-92020571D01*
X149823714Y-91839143D01*
X149787429Y-91766571D01*
X149751143Y-91730286D01*
X149678572Y-91694000D01*
X149533429Y-91694000D01*
X149460857Y-91730286D01*
X149424572Y-91766571D01*
X149388286Y-91839143D01*
X155692929Y-96873786D02*
X155620357Y-96837500D01*
X155547786Y-96764929D01*
X155438929Y-96656071D01*
X155366357Y-96619786D01*
X155293786Y-96619786D01*
X155330071Y-96801214D02*
X155257500Y-96764929D01*
X155184929Y-96692357D01*
X155148643Y-96547214D01*
X155148643Y-96293214D01*
X155184929Y-96148071D01*
X155257500Y-96075500D01*
X155330071Y-96039214D01*
X155475214Y-96039214D01*
X155547786Y-96075500D01*
X155620357Y-96148071D01*
X155656643Y-96293214D01*
X155656643Y-96547214D01*
X155620357Y-96692357D01*
X155547786Y-96764929D01*
X155475214Y-96801214D01*
X155330071Y-96801214D01*
X156382357Y-96801214D02*
X155946929Y-96801214D01*
X156164643Y-96801214D02*
X156164643Y-96039214D01*
X156092072Y-96148071D01*
X156019500Y-96220643D01*
X155946929Y-96256929D01*
X188798200Y-104840314D02*
X188544200Y-104477457D01*
X188362772Y-104840314D02*
X188362772Y-104078314D01*
X188653057Y-104078314D01*
X188725629Y-104114600D01*
X188761914Y-104150886D01*
X188798200Y-104223457D01*
X188798200Y-104332314D01*
X188761914Y-104404886D01*
X188725629Y-104441171D01*
X188653057Y-104477457D01*
X188362772Y-104477457D01*
X189523914Y-104840314D02*
X189088486Y-104840314D01*
X189306200Y-104840314D02*
X189306200Y-104078314D01*
X189233629Y-104187171D01*
X189161057Y-104259743D01*
X189088486Y-104296029D01*
X176022000Y-104611714D02*
X175768000Y-104248857D01*
X175586572Y-104611714D02*
X175586572Y-103849714D01*
X175876857Y-103849714D01*
X175949429Y-103886000D01*
X175985714Y-103922286D01*
X176022000Y-103994857D01*
X176022000Y-104103714D01*
X175985714Y-104176286D01*
X175949429Y-104212571D01*
X175876857Y-104248857D01*
X175586572Y-104248857D01*
X176312286Y-103922286D02*
X176348572Y-103886000D01*
X176421143Y-103849714D01*
X176602572Y-103849714D01*
X176675143Y-103886000D01*
X176711429Y-103922286D01*
X176747714Y-103994857D01*
X176747714Y-104067429D01*
X176711429Y-104176286D01*
X176276000Y-104611714D01*
X176747714Y-104611714D01*
X175514000Y-97118714D02*
X175260000Y-96755857D01*
X175078572Y-97118714D02*
X175078572Y-96356714D01*
X175368857Y-96356714D01*
X175441429Y-96393000D01*
X175477714Y-96429286D01*
X175514000Y-96501857D01*
X175514000Y-96610714D01*
X175477714Y-96683286D01*
X175441429Y-96719571D01*
X175368857Y-96755857D01*
X175078572Y-96755857D01*
X175768000Y-96356714D02*
X176239714Y-96356714D01*
X175985714Y-96647000D01*
X176094572Y-96647000D01*
X176167143Y-96683286D01*
X176203429Y-96719571D01*
X176239714Y-96792143D01*
X176239714Y-96973571D01*
X176203429Y-97046143D01*
X176167143Y-97082429D01*
X176094572Y-97118714D01*
X175876857Y-97118714D01*
X175804286Y-97082429D01*
X175768000Y-97046143D01*
X162052000Y-102706714D02*
X161798000Y-102343857D01*
X161616572Y-102706714D02*
X161616572Y-101944714D01*
X161906857Y-101944714D01*
X161979429Y-101981000D01*
X162015714Y-102017286D01*
X162052000Y-102089857D01*
X162052000Y-102198714D01*
X162015714Y-102271286D01*
X161979429Y-102307571D01*
X161906857Y-102343857D01*
X161616572Y-102343857D01*
X162705143Y-102198714D02*
X162705143Y-102706714D01*
X162523714Y-101908429D02*
X162342286Y-102452714D01*
X162814000Y-102452714D01*
X192659000Y-95848714D02*
X192405000Y-95485857D01*
X192223572Y-95848714D02*
X192223572Y-95086714D01*
X192513857Y-95086714D01*
X192586429Y-95123000D01*
X192622714Y-95159286D01*
X192659000Y-95231857D01*
X192659000Y-95340714D01*
X192622714Y-95413286D01*
X192586429Y-95449571D01*
X192513857Y-95485857D01*
X192223572Y-95485857D01*
X193348429Y-95086714D02*
X192985572Y-95086714D01*
X192949286Y-95449571D01*
X192985572Y-95413286D01*
X193058143Y-95377000D01*
X193239572Y-95377000D01*
X193312143Y-95413286D01*
X193348429Y-95449571D01*
X193384714Y-95522143D01*
X193384714Y-95703571D01*
X193348429Y-95776143D01*
X193312143Y-95812429D01*
X193239572Y-95848714D01*
X193058143Y-95848714D01*
X192985572Y-95812429D01*
X192949286Y-95776143D01*
X143891000Y-90895714D02*
X143637000Y-90532857D01*
X143455572Y-90895714D02*
X143455572Y-90133714D01*
X143745857Y-90133714D01*
X143818429Y-90170000D01*
X143854714Y-90206286D01*
X143891000Y-90278857D01*
X143891000Y-90387714D01*
X143854714Y-90460286D01*
X143818429Y-90496571D01*
X143745857Y-90532857D01*
X143455572Y-90532857D01*
X144326429Y-90460286D02*
X144253857Y-90424000D01*
X144217572Y-90387714D01*
X144181286Y-90315143D01*
X144181286Y-90278857D01*
X144217572Y-90206286D01*
X144253857Y-90170000D01*
X144326429Y-90133714D01*
X144471572Y-90133714D01*
X144544143Y-90170000D01*
X144580429Y-90206286D01*
X144616714Y-90278857D01*
X144616714Y-90315143D01*
X144580429Y-90387714D01*
X144544143Y-90424000D01*
X144471572Y-90460286D01*
X144326429Y-90460286D01*
X144253857Y-90496571D01*
X144217572Y-90532857D01*
X144181286Y-90605429D01*
X144181286Y-90750571D01*
X144217572Y-90823143D01*
X144253857Y-90859429D01*
X144326429Y-90895714D01*
X144471572Y-90895714D01*
X144544143Y-90859429D01*
X144580429Y-90823143D01*
X144616714Y-90750571D01*
X144616714Y-90605429D01*
X144580429Y-90532857D01*
X144544143Y-90496571D01*
X144471572Y-90460286D01*
X162578143Y-94070714D02*
X162324143Y-93707857D01*
X162142715Y-94070714D02*
X162142715Y-93308714D01*
X162433000Y-93308714D01*
X162505572Y-93345000D01*
X162541857Y-93381286D01*
X162578143Y-93453857D01*
X162578143Y-93562714D01*
X162541857Y-93635286D01*
X162505572Y-93671571D01*
X162433000Y-93707857D01*
X162142715Y-93707857D01*
X163303857Y-94070714D02*
X162868429Y-94070714D01*
X163086143Y-94070714D02*
X163086143Y-93308714D01*
X163013572Y-93417571D01*
X162941000Y-93490143D01*
X162868429Y-93526429D01*
X163775571Y-93308714D02*
X163848143Y-93308714D01*
X163920714Y-93345000D01*
X163957000Y-93381286D01*
X163993286Y-93453857D01*
X164029571Y-93599000D01*
X164029571Y-93780429D01*
X163993286Y-93925571D01*
X163957000Y-93998143D01*
X163920714Y-94034429D01*
X163848143Y-94070714D01*
X163775571Y-94070714D01*
X163703000Y-94034429D01*
X163666714Y-93998143D01*
X163630429Y-93925571D01*
X163594143Y-93780429D01*
X163594143Y-93599000D01*
X163630429Y-93453857D01*
X163666714Y-93381286D01*
X163703000Y-93345000D01*
X163775571Y-93308714D01*
X142798801Y-79658029D02*
X142907658Y-79694314D01*
X143089087Y-79694314D01*
X143161658Y-79658029D01*
X143197944Y-79621743D01*
X143234229Y-79549171D01*
X143234229Y-79476600D01*
X143197944Y-79404029D01*
X143161658Y-79367743D01*
X143089087Y-79331457D01*
X142943944Y-79295171D01*
X142871372Y-79258886D01*
X142835087Y-79222600D01*
X142798801Y-79150029D01*
X142798801Y-79077457D01*
X142835087Y-79004886D01*
X142871372Y-78968600D01*
X142943944Y-78932314D01*
X143125372Y-78932314D01*
X143234229Y-78968600D01*
X143488229Y-78932314D02*
X143669658Y-79694314D01*
X143814801Y-79150029D01*
X143959943Y-79694314D01*
X144141372Y-78932314D01*
X144830800Y-79694314D02*
X144395372Y-79694314D01*
X144613086Y-79694314D02*
X144613086Y-78932314D01*
X144540515Y-79041171D01*
X144467943Y-79113743D01*
X144395372Y-79150029D01*
X143764000Y-83275714D02*
X143510000Y-82912857D01*
X143328572Y-83275714D02*
X143328572Y-82513714D01*
X143618857Y-82513714D01*
X143691429Y-82550000D01*
X143727714Y-82586286D01*
X143764000Y-82658857D01*
X143764000Y-82767714D01*
X143727714Y-82840286D01*
X143691429Y-82876571D01*
X143618857Y-82912857D01*
X143328572Y-82912857D01*
X144417143Y-82513714D02*
X144272000Y-82513714D01*
X144199429Y-82550000D01*
X144163143Y-82586286D01*
X144090572Y-82695143D01*
X144054286Y-82840286D01*
X144054286Y-83130571D01*
X144090572Y-83203143D01*
X144126857Y-83239429D01*
X144199429Y-83275714D01*
X144344572Y-83275714D01*
X144417143Y-83239429D01*
X144453429Y-83203143D01*
X144489714Y-83130571D01*
X144489714Y-82949143D01*
X144453429Y-82876571D01*
X144417143Y-82840286D01*
X144344572Y-82804000D01*
X144199429Y-82804000D01*
X144126857Y-82840286D01*
X144090572Y-82876571D01*
X144054286Y-82949143D01*
X145233572Y-99150714D02*
X145415001Y-99912714D01*
X145560144Y-99368429D01*
X145705286Y-99912714D01*
X145886715Y-99150714D01*
X146576143Y-99912714D02*
X146140715Y-99912714D01*
X146358429Y-99912714D02*
X146358429Y-99150714D01*
X146285858Y-99259571D01*
X146213286Y-99332143D01*
X146140715Y-99368429D01*
X145817772Y-71921914D02*
X145999201Y-72683914D01*
X146144344Y-72139629D01*
X146289486Y-72683914D01*
X146470915Y-71921914D01*
X146724915Y-71994486D02*
X146761201Y-71958200D01*
X146833772Y-71921914D01*
X147015201Y-71921914D01*
X147087772Y-71958200D01*
X147124058Y-71994486D01*
X147160343Y-72067057D01*
X147160343Y-72139629D01*
X147124058Y-72248486D01*
X146688629Y-72683914D01*
X147160343Y-72683914D01*
X149424572Y-72023514D02*
X149606001Y-72785514D01*
X149751144Y-72241229D01*
X149896286Y-72785514D01*
X150077715Y-72023514D01*
X150295429Y-72023514D02*
X150767143Y-72023514D01*
X150513143Y-72313800D01*
X150622001Y-72313800D01*
X150694572Y-72350086D01*
X150730858Y-72386371D01*
X150767143Y-72458943D01*
X150767143Y-72640371D01*
X150730858Y-72712943D01*
X150694572Y-72749229D01*
X150622001Y-72785514D01*
X150404286Y-72785514D01*
X150331715Y-72749229D01*
X150295429Y-72712943D01*
X181936572Y-108167714D02*
X182118001Y-108929714D01*
X182263144Y-108385429D01*
X182408286Y-108929714D01*
X182589715Y-108167714D01*
X183242858Y-108167714D02*
X182880001Y-108167714D01*
X182843715Y-108530571D01*
X182880001Y-108494286D01*
X182952572Y-108458000D01*
X183134001Y-108458000D01*
X183206572Y-108494286D01*
X183242858Y-108530571D01*
X183279143Y-108603143D01*
X183279143Y-108784571D01*
X183242858Y-108857143D01*
X183206572Y-108893429D01*
X183134001Y-108929714D01*
X182952572Y-108929714D01*
X182880001Y-108893429D01*
X182843715Y-108857143D01*
X148967372Y-99150714D02*
X149148801Y-99912714D01*
X149293944Y-99368429D01*
X149439086Y-99912714D01*
X149620515Y-99150714D01*
X150237372Y-99150714D02*
X150092229Y-99150714D01*
X150019658Y-99187000D01*
X149983372Y-99223286D01*
X149910801Y-99332143D01*
X149874515Y-99477286D01*
X149874515Y-99767571D01*
X149910801Y-99840143D01*
X149947086Y-99876429D01*
X150019658Y-99912714D01*
X150164801Y-99912714D01*
X150237372Y-99876429D01*
X150273658Y-99840143D01*
X150309943Y-99767571D01*
X150309943Y-99586143D01*
X150273658Y-99513571D01*
X150237372Y-99477286D01*
X150164801Y-99441000D01*
X150019658Y-99441000D01*
X149947086Y-99477286D01*
X149910801Y-99513571D01*
X149874515Y-99586143D01*
X139137572Y-68289714D02*
X139319001Y-69051714D01*
X139464144Y-68507429D01*
X139609286Y-69051714D01*
X139790715Y-68289714D01*
X140008429Y-68289714D02*
X140516429Y-68289714D01*
X140189858Y-69051714D01*
D14*
X163682443Y-108118481D02*
X163349109Y-107642290D01*
X163111014Y-108118481D02*
X163111014Y-107118481D01*
X163491967Y-107118481D01*
X163587205Y-107166100D01*
X163634824Y-107213719D01*
X163682443Y-107308957D01*
X163682443Y-107451814D01*
X163634824Y-107547052D01*
X163587205Y-107594671D01*
X163491967Y-107642290D01*
X163111014Y-107642290D01*
X164634824Y-108118481D02*
X164063395Y-108118481D01*
X164349109Y-108118481D02*
X164349109Y-107118481D01*
X164253871Y-107261338D01*
X164158633Y-107356576D01*
X164063395Y-107404195D01*
X165587205Y-108118481D02*
X165015776Y-108118481D01*
X165301490Y-108118481D02*
X165301490Y-107118481D01*
X165206252Y-107261338D01*
X165111014Y-107356576D01*
X165015776Y-107404195D01*
X160866081Y-109113557D02*
X160389890Y-109446891D01*
X160866081Y-109684986D02*
X159866081Y-109684986D01*
X159866081Y-109304033D01*
X159913700Y-109208795D01*
X159961319Y-109161176D01*
X160056557Y-109113557D01*
X160199414Y-109113557D01*
X160294652Y-109161176D01*
X160342271Y-109208795D01*
X160389890Y-109304033D01*
X160389890Y-109684986D01*
X160866081Y-108161176D02*
X160866081Y-108732605D01*
X160866081Y-108446891D02*
X159866081Y-108446891D01*
X160008938Y-108542129D01*
X160104176Y-108637367D01*
X160151795Y-108732605D01*
X159961319Y-107780224D02*
X159913700Y-107732605D01*
X159866081Y-107637367D01*
X159866081Y-107399271D01*
X159913700Y-107304033D01*
X159961319Y-107256414D01*
X160056557Y-107208795D01*
X160151795Y-107208795D01*
X160294652Y-107256414D01*
X160866081Y-107827843D01*
X160866081Y-107208795D01*
X142489181Y-107665757D02*
X142012990Y-107999091D01*
X142489181Y-108237186D02*
X141489181Y-108237186D01*
X141489181Y-107856233D01*
X141536800Y-107760995D01*
X141584419Y-107713376D01*
X141679657Y-107665757D01*
X141822514Y-107665757D01*
X141917752Y-107713376D01*
X141965371Y-107760995D01*
X142012990Y-107856233D01*
X142012990Y-108237186D01*
X142489181Y-106713376D02*
X142489181Y-107284805D01*
X142489181Y-106999091D02*
X141489181Y-106999091D01*
X141632038Y-107094329D01*
X141727276Y-107189567D01*
X141774895Y-107284805D01*
X141489181Y-106380043D02*
X141489181Y-105760995D01*
X141870133Y-106094329D01*
X141870133Y-105951471D01*
X141917752Y-105856233D01*
X141965371Y-105808614D01*
X142060610Y-105760995D01*
X142298705Y-105760995D01*
X142393943Y-105808614D01*
X142441562Y-105856233D01*
X142489181Y-105951471D01*
X142489181Y-106237186D01*
X142441562Y-106332424D01*
X142393943Y-106380043D01*
X150190295Y-104455981D02*
X150190295Y-105265505D01*
X150237914Y-105360743D01*
X150285533Y-105408362D01*
X150380771Y-105455981D01*
X150571248Y-105455981D01*
X150666486Y-105408362D01*
X150714105Y-105360743D01*
X150761724Y-105265505D01*
X150761724Y-104455981D01*
X151142676Y-104455981D02*
X151761724Y-104455981D01*
X151428390Y-104836933D01*
X151571248Y-104836933D01*
X151666486Y-104884552D01*
X151714105Y-104932171D01*
X151761724Y-105027410D01*
X151761724Y-105265505D01*
X151714105Y-105360743D01*
X151666486Y-105408362D01*
X151571248Y-105455981D01*
X151285533Y-105455981D01*
X151190295Y-105408362D01*
X151142676Y-105360743D01*
D11*
X156110819Y-111378999D02*
X156352724Y-111378999D01*
X156255962Y-111620904D02*
X156352724Y-111378999D01*
X156255962Y-111137095D01*
X156546248Y-111524142D02*
X156352724Y-111378999D01*
X156546248Y-111233857D01*
D14*
X160299495Y-89571581D02*
X160299495Y-90381105D01*
X160347114Y-90476343D01*
X160394733Y-90523962D01*
X160489971Y-90571581D01*
X160680448Y-90571581D01*
X160775686Y-90523962D01*
X160823305Y-90476343D01*
X160870924Y-90381105D01*
X160870924Y-89571581D01*
X161870924Y-90571581D02*
X161299495Y-90571581D01*
X161585209Y-90571581D02*
X161585209Y-89571581D01*
X161489971Y-89714438D01*
X161394733Y-89809676D01*
X161299495Y-89857295D01*
M02*
