G04 #@! TF.FileFunction,Legend,Top*
%FSLAX46Y46*%
G04 Gerber Fmt 4.6, Leading zero omitted, Abs format (unit mm)*
G04 Created by KiCad (PCBNEW 4.0.0-2.201512072331+6194~38~ubuntu14.04.1-stable) date Sun 05 Jun 2016 08:25:22 PM CEST*
%MOMM*%
G01*
G04 APERTURE LIST*
%ADD10C,0.100000*%
%ADD11C,0.300000*%
%ADD12C,0.127000*%
%ADD13C,0.150000*%
G04 APERTURE END LIST*
D10*
D11*
X147169143Y-69050857D02*
X147669143Y-69050857D01*
X147883429Y-69836571D02*
X147169143Y-69836571D01*
X147169143Y-68336571D01*
X147883429Y-68336571D01*
X149026286Y-69050857D02*
X149240572Y-69122286D01*
X149312000Y-69193714D01*
X149383429Y-69336571D01*
X149383429Y-69550857D01*
X149312000Y-69693714D01*
X149240572Y-69765143D01*
X149097714Y-69836571D01*
X148526286Y-69836571D01*
X148526286Y-68336571D01*
X149026286Y-68336571D01*
X149169143Y-68408000D01*
X149240572Y-68479429D01*
X149312000Y-68622286D01*
X149312000Y-68765143D01*
X149240572Y-68908000D01*
X149169143Y-68979429D01*
X149026286Y-69050857D01*
X148526286Y-69050857D01*
X149954857Y-69765143D02*
X150169143Y-69836571D01*
X150526286Y-69836571D01*
X150669143Y-69765143D01*
X150740572Y-69693714D01*
X150812000Y-69550857D01*
X150812000Y-69408000D01*
X150740572Y-69265143D01*
X150669143Y-69193714D01*
X150526286Y-69122286D01*
X150240572Y-69050857D01*
X150097714Y-68979429D01*
X150026286Y-68908000D01*
X149954857Y-68765143D01*
X149954857Y-68622286D01*
X150026286Y-68479429D01*
X150097714Y-68408000D01*
X150240572Y-68336571D01*
X150597714Y-68336571D01*
X150812000Y-68408000D01*
X152597714Y-69836571D02*
X152597714Y-68336571D01*
X152954857Y-68336571D01*
X153169142Y-68408000D01*
X153312000Y-68550857D01*
X153383428Y-68693714D01*
X153454857Y-68979429D01*
X153454857Y-69193714D01*
X153383428Y-69479429D01*
X153312000Y-69622286D01*
X153169142Y-69765143D01*
X152954857Y-69836571D01*
X152597714Y-69836571D01*
X154312000Y-69836571D02*
X154169142Y-69765143D01*
X154097714Y-69693714D01*
X154026285Y-69550857D01*
X154026285Y-69122286D01*
X154097714Y-68979429D01*
X154169142Y-68908000D01*
X154312000Y-68836571D01*
X154526285Y-68836571D01*
X154669142Y-68908000D01*
X154740571Y-68979429D01*
X154812000Y-69122286D01*
X154812000Y-69550857D01*
X154740571Y-69693714D01*
X154669142Y-69765143D01*
X154526285Y-69836571D01*
X154312000Y-69836571D01*
X155669143Y-69836571D02*
X155526285Y-69765143D01*
X155454857Y-69693714D01*
X155383428Y-69550857D01*
X155383428Y-69122286D01*
X155454857Y-68979429D01*
X155526285Y-68908000D01*
X155669143Y-68836571D01*
X155883428Y-68836571D01*
X156026285Y-68908000D01*
X156097714Y-68979429D01*
X156169143Y-69122286D01*
X156169143Y-69550857D01*
X156097714Y-69693714D01*
X156026285Y-69765143D01*
X155883428Y-69836571D01*
X155669143Y-69836571D01*
X156812000Y-69836571D02*
X156812000Y-68836571D01*
X156812000Y-69122286D02*
X156883428Y-68979429D01*
X156954857Y-68908000D01*
X157097714Y-68836571D01*
X157240571Y-68836571D01*
X157740571Y-69836571D02*
X157740571Y-68336571D01*
X157740571Y-68908000D02*
X157883428Y-68836571D01*
X158169142Y-68836571D01*
X158311999Y-68908000D01*
X158383428Y-68979429D01*
X158454857Y-69122286D01*
X158454857Y-69550857D01*
X158383428Y-69693714D01*
X158311999Y-69765143D01*
X158169142Y-69836571D01*
X157883428Y-69836571D01*
X157740571Y-69765143D01*
X159669142Y-69765143D02*
X159526285Y-69836571D01*
X159240571Y-69836571D01*
X159097714Y-69765143D01*
X159026285Y-69622286D01*
X159026285Y-69050857D01*
X159097714Y-68908000D01*
X159240571Y-68836571D01*
X159526285Y-68836571D01*
X159669142Y-68908000D01*
X159740571Y-69050857D01*
X159740571Y-69193714D01*
X159026285Y-69336571D01*
X160597714Y-69836571D02*
X160454856Y-69765143D01*
X160383428Y-69622286D01*
X160383428Y-68336571D01*
X161383428Y-69836571D02*
X161240570Y-69765143D01*
X161169142Y-69622286D01*
X161169142Y-68336571D01*
X163097713Y-69050857D02*
X163597713Y-69050857D01*
X163811999Y-69836571D02*
X163097713Y-69836571D01*
X163097713Y-68336571D01*
X163811999Y-68336571D01*
X164311999Y-69836571D02*
X165097713Y-68836571D01*
X164311999Y-68836571D02*
X165097713Y-69836571D01*
X165454856Y-68836571D02*
X166026285Y-68836571D01*
X165669142Y-68336571D02*
X165669142Y-69622286D01*
X165740570Y-69765143D01*
X165883428Y-69836571D01*
X166026285Y-69836571D01*
X167097713Y-69765143D02*
X166954856Y-69836571D01*
X166669142Y-69836571D01*
X166526285Y-69765143D01*
X166454856Y-69622286D01*
X166454856Y-69050857D01*
X166526285Y-68908000D01*
X166669142Y-68836571D01*
X166954856Y-68836571D01*
X167097713Y-68908000D01*
X167169142Y-69050857D01*
X167169142Y-69193714D01*
X166454856Y-69336571D01*
X167811999Y-68836571D02*
X167811999Y-69836571D01*
X167811999Y-68979429D02*
X167883427Y-68908000D01*
X168026285Y-68836571D01*
X168240570Y-68836571D01*
X168383427Y-68908000D01*
X168454856Y-69050857D01*
X168454856Y-69836571D01*
X169097713Y-69765143D02*
X169240570Y-69836571D01*
X169526285Y-69836571D01*
X169669142Y-69765143D01*
X169740570Y-69622286D01*
X169740570Y-69550857D01*
X169669142Y-69408000D01*
X169526285Y-69336571D01*
X169311999Y-69336571D01*
X169169142Y-69265143D01*
X169097713Y-69122286D01*
X169097713Y-69050857D01*
X169169142Y-68908000D01*
X169311999Y-68836571D01*
X169526285Y-68836571D01*
X169669142Y-68908000D01*
X170383428Y-69836571D02*
X170383428Y-68836571D01*
X170383428Y-68336571D02*
X170311999Y-68408000D01*
X170383428Y-68479429D01*
X170454856Y-68408000D01*
X170383428Y-68336571D01*
X170383428Y-68479429D01*
X171312000Y-69836571D02*
X171169142Y-69765143D01*
X171097714Y-69693714D01*
X171026285Y-69550857D01*
X171026285Y-69122286D01*
X171097714Y-68979429D01*
X171169142Y-68908000D01*
X171312000Y-68836571D01*
X171526285Y-68836571D01*
X171669142Y-68908000D01*
X171740571Y-68979429D01*
X171812000Y-69122286D01*
X171812000Y-69550857D01*
X171740571Y-69693714D01*
X171669142Y-69765143D01*
X171526285Y-69836571D01*
X171312000Y-69836571D01*
X172454857Y-68836571D02*
X172454857Y-69836571D01*
X172454857Y-68979429D02*
X172526285Y-68908000D01*
X172669143Y-68836571D01*
X172883428Y-68836571D01*
X173026285Y-68908000D01*
X173097714Y-69050857D01*
X173097714Y-69836571D01*
X148026286Y-72236571D02*
X147526286Y-71522286D01*
X147169143Y-72236571D02*
X147169143Y-70736571D01*
X147740571Y-70736571D01*
X147883429Y-70808000D01*
X147954857Y-70879429D01*
X148026286Y-71022286D01*
X148026286Y-71236571D01*
X147954857Y-71379429D01*
X147883429Y-71450857D01*
X147740571Y-71522286D01*
X147169143Y-71522286D01*
X148669143Y-71450857D02*
X149169143Y-71450857D01*
X149383429Y-72236571D02*
X148669143Y-72236571D01*
X148669143Y-70736571D01*
X149383429Y-70736571D01*
X149812000Y-70736571D02*
X150312000Y-72236571D01*
X150812000Y-70736571D01*
X152383428Y-70879429D02*
X152454857Y-70808000D01*
X152597714Y-70736571D01*
X152954857Y-70736571D01*
X153097714Y-70808000D01*
X153169143Y-70879429D01*
X153240571Y-71022286D01*
X153240571Y-71165143D01*
X153169143Y-71379429D01*
X152312000Y-72236571D01*
X153240571Y-72236571D01*
X154597714Y-72236571D02*
X153883428Y-72236571D01*
X153883428Y-70736571D01*
X154740571Y-72379429D02*
X155883428Y-72379429D01*
X157026285Y-72236571D02*
X156169142Y-72236571D01*
X156597714Y-72236571D02*
X156597714Y-70736571D01*
X156454857Y-70950857D01*
X156311999Y-71093714D01*
X156169142Y-71165143D01*
X157669142Y-72093714D02*
X157740570Y-72165143D01*
X157669142Y-72236571D01*
X157597713Y-72165143D01*
X157669142Y-72093714D01*
X157669142Y-72236571D01*
X158669142Y-70736571D02*
X158811999Y-70736571D01*
X158954856Y-70808000D01*
X159026285Y-70879429D01*
X159097714Y-71022286D01*
X159169142Y-71308000D01*
X159169142Y-71665143D01*
X159097714Y-71950857D01*
X159026285Y-72093714D01*
X158954856Y-72165143D01*
X158811999Y-72236571D01*
X158669142Y-72236571D01*
X158526285Y-72165143D01*
X158454856Y-72093714D01*
X158383428Y-71950857D01*
X158311999Y-71665143D01*
X158311999Y-71308000D01*
X158383428Y-71022286D01*
X158454856Y-70879429D01*
X158526285Y-70808000D01*
X158669142Y-70736571D01*
D12*
X191860714Y-80699429D02*
X191860714Y-80264000D01*
X192622714Y-80481714D02*
X191860714Y-80481714D01*
X192586429Y-79719715D02*
X192622714Y-79792286D01*
X192622714Y-79937429D01*
X192586429Y-80010000D01*
X192513857Y-80046286D01*
X192223571Y-80046286D01*
X192151000Y-80010000D01*
X192114714Y-79937429D01*
X192114714Y-79792286D01*
X192151000Y-79719715D01*
X192223571Y-79683429D01*
X192296143Y-79683429D01*
X192368714Y-80046286D01*
X192586429Y-79393143D02*
X192622714Y-79320572D01*
X192622714Y-79175429D01*
X192586429Y-79102857D01*
X192513857Y-79066572D01*
X192477571Y-79066572D01*
X192405000Y-79102857D01*
X192368714Y-79175429D01*
X192368714Y-79284286D01*
X192332429Y-79356857D01*
X192259857Y-79393143D01*
X192223571Y-79393143D01*
X192151000Y-79356857D01*
X192114714Y-79284286D01*
X192114714Y-79175429D01*
X192151000Y-79102857D01*
X192114714Y-78848858D02*
X192114714Y-78558572D01*
X191860714Y-78740000D02*
X192513857Y-78740000D01*
X192586429Y-78703715D01*
X192622714Y-78631143D01*
X192622714Y-78558572D01*
X191552287Y-101964671D02*
X191298287Y-101964671D01*
X191298287Y-102363814D02*
X191298287Y-101601814D01*
X191661144Y-101601814D01*
X191915144Y-102327529D02*
X192024001Y-102363814D01*
X192205430Y-102363814D01*
X192278001Y-102327529D01*
X192314287Y-102291243D01*
X192350572Y-102218671D01*
X192350572Y-102146100D01*
X192314287Y-102073529D01*
X192278001Y-102037243D01*
X192205430Y-102000957D01*
X192060287Y-101964671D01*
X191987715Y-101928386D01*
X191951430Y-101892100D01*
X191915144Y-101819529D01*
X191915144Y-101746957D01*
X191951430Y-101674386D01*
X191987715Y-101638100D01*
X192060287Y-101601814D01*
X192241715Y-101601814D01*
X192350572Y-101638100D01*
X192640858Y-101674386D02*
X192677144Y-101638100D01*
X192749715Y-101601814D01*
X192931144Y-101601814D01*
X193003715Y-101638100D01*
X193040001Y-101674386D01*
X193076286Y-101746957D01*
X193076286Y-101819529D01*
X193040001Y-101928386D01*
X192604572Y-102363814D01*
X193076286Y-102363814D01*
X193548000Y-101601814D02*
X193620572Y-101601814D01*
X193693143Y-101638100D01*
X193729429Y-101674386D01*
X193765715Y-101746957D01*
X193802000Y-101892100D01*
X193802000Y-102073529D01*
X193765715Y-102218671D01*
X193729429Y-102291243D01*
X193693143Y-102327529D01*
X193620572Y-102363814D01*
X193548000Y-102363814D01*
X193475429Y-102327529D01*
X193439143Y-102291243D01*
X193402858Y-102218671D01*
X193366572Y-102073529D01*
X193366572Y-101892100D01*
X193402858Y-101746957D01*
X193439143Y-101674386D01*
X193475429Y-101638100D01*
X193548000Y-101601814D01*
X190899143Y-103521329D02*
X191008000Y-103557614D01*
X191189429Y-103557614D01*
X191262000Y-103521329D01*
X191298286Y-103485043D01*
X191334571Y-103412471D01*
X191334571Y-103339900D01*
X191298286Y-103267329D01*
X191262000Y-103231043D01*
X191189429Y-103194757D01*
X191044286Y-103158471D01*
X190971714Y-103122186D01*
X190935429Y-103085900D01*
X190899143Y-103013329D01*
X190899143Y-102940757D01*
X190935429Y-102868186D01*
X190971714Y-102831900D01*
X191044286Y-102795614D01*
X191225714Y-102795614D01*
X191334571Y-102831900D01*
X191661143Y-103557614D02*
X191661143Y-103049614D01*
X191661143Y-102795614D02*
X191624857Y-102831900D01*
X191661143Y-102868186D01*
X191697428Y-102831900D01*
X191661143Y-102795614D01*
X191661143Y-102868186D01*
X192350571Y-103049614D02*
X192350571Y-103666471D01*
X192314285Y-103739043D01*
X192278000Y-103775329D01*
X192205428Y-103811614D01*
X192096571Y-103811614D01*
X192024000Y-103775329D01*
X192350571Y-103521329D02*
X192278000Y-103557614D01*
X192132857Y-103557614D01*
X192060285Y-103521329D01*
X192024000Y-103485043D01*
X191987714Y-103412471D01*
X191987714Y-103194757D01*
X192024000Y-103122186D01*
X192060285Y-103085900D01*
X192132857Y-103049614D01*
X192278000Y-103049614D01*
X192350571Y-103085900D01*
X192713429Y-103049614D02*
X192713429Y-103557614D01*
X192713429Y-103122186D02*
X192749714Y-103085900D01*
X192822286Y-103049614D01*
X192931143Y-103049614D01*
X193003714Y-103085900D01*
X193040000Y-103158471D01*
X193040000Y-103557614D01*
X193729429Y-103557614D02*
X193729429Y-103158471D01*
X193693143Y-103085900D01*
X193620572Y-103049614D01*
X193475429Y-103049614D01*
X193402858Y-103085900D01*
X193729429Y-103521329D02*
X193656858Y-103557614D01*
X193475429Y-103557614D01*
X193402858Y-103521329D01*
X193366572Y-103448757D01*
X193366572Y-103376186D01*
X193402858Y-103303614D01*
X193475429Y-103267329D01*
X193656858Y-103267329D01*
X193729429Y-103231043D01*
X194201144Y-103557614D02*
X194128572Y-103521329D01*
X194092287Y-103448757D01*
X194092287Y-102795614D01*
D11*
X152082572Y-82403143D02*
X153225429Y-82403143D01*
X152654000Y-82974571D02*
X152654000Y-81831714D01*
X167068572Y-98151143D02*
X168211429Y-98151143D01*
X167640000Y-98722571D02*
X167640000Y-97579714D01*
X174942572Y-83419143D02*
X176085429Y-83419143D01*
X175514000Y-83990571D02*
X175514000Y-82847714D01*
X161480572Y-83419143D02*
X162623429Y-83419143D01*
X162052000Y-83990571D02*
X162052000Y-82847714D01*
D12*
X151765000Y-95340714D02*
X151765000Y-94252143D01*
X153289000Y-104357714D02*
X153289000Y-103269143D01*
X186182000Y-106516714D02*
X186182000Y-105428143D01*
X186182000Y-103087714D02*
X186182000Y-101999143D01*
X190899143Y-106262714D02*
X190899143Y-105500714D01*
X191189428Y-105500714D01*
X191262000Y-105537000D01*
X191298285Y-105573286D01*
X191334571Y-105645857D01*
X191334571Y-105754714D01*
X191298285Y-105827286D01*
X191262000Y-105863571D01*
X191189428Y-105899857D01*
X190899143Y-105899857D01*
X191770000Y-106262714D02*
X191697428Y-106226429D01*
X191661143Y-106190143D01*
X191624857Y-106117571D01*
X191624857Y-105899857D01*
X191661143Y-105827286D01*
X191697428Y-105791000D01*
X191770000Y-105754714D01*
X191878857Y-105754714D01*
X191951428Y-105791000D01*
X191987714Y-105827286D01*
X192024000Y-105899857D01*
X192024000Y-106117571D01*
X191987714Y-106190143D01*
X191951428Y-106226429D01*
X191878857Y-106262714D01*
X191770000Y-106262714D01*
X192278000Y-105754714D02*
X192423143Y-106262714D01*
X192568286Y-105899857D01*
X192713429Y-106262714D01*
X192858572Y-105754714D01*
X193439143Y-106226429D02*
X193366572Y-106262714D01*
X193221429Y-106262714D01*
X193148858Y-106226429D01*
X193112572Y-106153857D01*
X193112572Y-105863571D01*
X193148858Y-105791000D01*
X193221429Y-105754714D01*
X193366572Y-105754714D01*
X193439143Y-105791000D01*
X193475429Y-105863571D01*
X193475429Y-105936143D01*
X193112572Y-106008714D01*
X193802001Y-106262714D02*
X193802001Y-105754714D01*
X193802001Y-105899857D02*
X193838286Y-105827286D01*
X193874572Y-105791000D01*
X193947143Y-105754714D01*
X194019715Y-105754714D01*
X146231429Y-77814714D02*
X146231429Y-77052714D01*
X146521714Y-77052714D01*
X146594286Y-77089000D01*
X146630571Y-77125286D01*
X146666857Y-77197857D01*
X146666857Y-77306714D01*
X146630571Y-77379286D01*
X146594286Y-77415571D01*
X146521714Y-77451857D01*
X146231429Y-77451857D01*
X146920857Y-77306714D02*
X147066000Y-77814714D01*
X147211143Y-77451857D01*
X147356286Y-77814714D01*
X147501429Y-77306714D01*
X147791715Y-77814714D02*
X147791715Y-77306714D01*
X147791715Y-77451857D02*
X147828000Y-77379286D01*
X147864286Y-77343000D01*
X147936857Y-77306714D01*
X148009429Y-77306714D01*
X133475186Y-77488143D02*
X134237186Y-77488143D01*
X133983186Y-77851000D02*
X133475186Y-77851000D01*
X133910614Y-77851000D02*
X133946900Y-77887285D01*
X133983186Y-77959857D01*
X133983186Y-78068714D01*
X133946900Y-78141285D01*
X133874329Y-78177571D01*
X133475186Y-78177571D01*
X133983186Y-78540429D02*
X133221186Y-78540429D01*
X133946900Y-78540429D02*
X133983186Y-78613000D01*
X133983186Y-78758143D01*
X133946900Y-78830714D01*
X133910614Y-78867000D01*
X133838043Y-78903286D01*
X133620329Y-78903286D01*
X133547757Y-78867000D01*
X133511471Y-78830714D01*
X133475186Y-78758143D01*
X133475186Y-78613000D01*
X133511471Y-78540429D01*
X133983186Y-79556429D02*
X133475186Y-79556429D01*
X133983186Y-79229858D02*
X133584043Y-79229858D01*
X133511471Y-79266143D01*
X133475186Y-79338715D01*
X133475186Y-79447572D01*
X133511471Y-79520143D01*
X133547757Y-79556429D01*
X133983186Y-79810429D02*
X133983186Y-80100715D01*
X134237186Y-79919287D02*
X133584043Y-79919287D01*
X133511471Y-79955572D01*
X133475186Y-80028144D01*
X133475186Y-80100715D01*
X132499100Y-77016429D02*
X132499100Y-77379286D01*
X132281386Y-76943857D02*
X133043386Y-77197857D01*
X132281386Y-77451857D01*
X132353957Y-78141286D02*
X132317671Y-78105000D01*
X132281386Y-77996143D01*
X132281386Y-77923572D01*
X132317671Y-77814715D01*
X132390243Y-77742143D01*
X132462814Y-77705858D01*
X132607957Y-77669572D01*
X132716814Y-77669572D01*
X132861957Y-77705858D01*
X132934529Y-77742143D01*
X133007100Y-77814715D01*
X133043386Y-77923572D01*
X133043386Y-77996143D01*
X133007100Y-78105000D01*
X132970814Y-78141286D01*
X133079671Y-79012143D02*
X132099957Y-78359000D01*
X132281386Y-79266144D02*
X133043386Y-79266144D01*
X133043386Y-79447572D01*
X133007100Y-79556429D01*
X132934529Y-79629001D01*
X132861957Y-79665286D01*
X132716814Y-79701572D01*
X132607957Y-79701572D01*
X132462814Y-79665286D01*
X132390243Y-79629001D01*
X132317671Y-79556429D01*
X132281386Y-79447572D01*
X132281386Y-79266144D01*
X132353957Y-80463572D02*
X132317671Y-80427286D01*
X132281386Y-80318429D01*
X132281386Y-80245858D01*
X132317671Y-80137001D01*
X132390243Y-80064429D01*
X132462814Y-80028144D01*
X132607957Y-79991858D01*
X132716814Y-79991858D01*
X132861957Y-80028144D01*
X132934529Y-80064429D01*
X133007100Y-80137001D01*
X133043386Y-80245858D01*
X133043386Y-80318429D01*
X133007100Y-80427286D01*
X132970814Y-80463572D01*
X133437086Y-85743143D02*
X134199086Y-85743143D01*
X133945086Y-86106000D02*
X133437086Y-86106000D01*
X133872514Y-86106000D02*
X133908800Y-86142285D01*
X133945086Y-86214857D01*
X133945086Y-86323714D01*
X133908800Y-86396285D01*
X133836229Y-86432571D01*
X133437086Y-86432571D01*
X133945086Y-86795429D02*
X133183086Y-86795429D01*
X133908800Y-86795429D02*
X133945086Y-86868000D01*
X133945086Y-87013143D01*
X133908800Y-87085714D01*
X133872514Y-87122000D01*
X133799943Y-87158286D01*
X133582229Y-87158286D01*
X133509657Y-87122000D01*
X133473371Y-87085714D01*
X133437086Y-87013143D01*
X133437086Y-86868000D01*
X133473371Y-86795429D01*
X133945086Y-87811429D02*
X133437086Y-87811429D01*
X133945086Y-87484858D02*
X133545943Y-87484858D01*
X133473371Y-87521143D01*
X133437086Y-87593715D01*
X133437086Y-87702572D01*
X133473371Y-87775143D01*
X133509657Y-87811429D01*
X133945086Y-88065429D02*
X133945086Y-88355715D01*
X134199086Y-88174287D02*
X133545943Y-88174287D01*
X133473371Y-88210572D01*
X133437086Y-88283144D01*
X133437086Y-88355715D01*
X133005286Y-85362144D02*
X133005286Y-84999287D01*
X132642429Y-84963001D01*
X132678714Y-84999287D01*
X132715000Y-85071858D01*
X132715000Y-85253287D01*
X132678714Y-85325858D01*
X132642429Y-85362144D01*
X132569857Y-85398429D01*
X132388429Y-85398429D01*
X132315857Y-85362144D01*
X132279571Y-85325858D01*
X132243286Y-85253287D01*
X132243286Y-85071858D01*
X132279571Y-84999287D01*
X132315857Y-84963001D01*
X132533571Y-85725001D02*
X132533571Y-86305572D01*
X132243286Y-87067572D02*
X132243286Y-86632144D01*
X132243286Y-86849858D02*
X133005286Y-86849858D01*
X132896429Y-86777287D01*
X132823857Y-86704715D01*
X132787571Y-86632144D01*
X132932714Y-87357858D02*
X132969000Y-87394144D01*
X133005286Y-87466715D01*
X133005286Y-87648144D01*
X132969000Y-87720715D01*
X132932714Y-87757001D01*
X132860143Y-87793286D01*
X132787571Y-87793286D01*
X132678714Y-87757001D01*
X132243286Y-87321572D01*
X132243286Y-87793286D01*
X133005286Y-88011000D02*
X132243286Y-88265000D01*
X133005286Y-88519000D01*
X131267200Y-85670572D02*
X131267200Y-86033429D01*
X131049486Y-85598000D02*
X131811486Y-85852000D01*
X131049486Y-86106000D01*
X131122057Y-86795429D02*
X131085771Y-86759143D01*
X131049486Y-86650286D01*
X131049486Y-86577715D01*
X131085771Y-86468858D01*
X131158343Y-86396286D01*
X131230914Y-86360001D01*
X131376057Y-86323715D01*
X131484914Y-86323715D01*
X131630057Y-86360001D01*
X131702629Y-86396286D01*
X131775200Y-86468858D01*
X131811486Y-86577715D01*
X131811486Y-86650286D01*
X131775200Y-86759143D01*
X131738914Y-86795429D01*
X131049486Y-87122001D02*
X131811486Y-87122001D01*
X131811486Y-87303429D01*
X131775200Y-87412286D01*
X131702629Y-87484858D01*
X131630057Y-87521143D01*
X131484914Y-87557429D01*
X131376057Y-87557429D01*
X131230914Y-87521143D01*
X131158343Y-87484858D01*
X131085771Y-87412286D01*
X131049486Y-87303429D01*
X131049486Y-87122001D01*
X131122057Y-88319429D02*
X131085771Y-88283143D01*
X131049486Y-88174286D01*
X131049486Y-88101715D01*
X131085771Y-87992858D01*
X131158343Y-87920286D01*
X131230914Y-87884001D01*
X131376057Y-87847715D01*
X131484914Y-87847715D01*
X131630057Y-87884001D01*
X131702629Y-87920286D01*
X131775200Y-87992858D01*
X131811486Y-88101715D01*
X131811486Y-88174286D01*
X131775200Y-88283143D01*
X131738914Y-88319429D01*
X133475186Y-91004572D02*
X134237186Y-91004572D01*
X134237186Y-91294857D01*
X134200900Y-91367429D01*
X134164614Y-91403714D01*
X134092043Y-91440000D01*
X133983186Y-91440000D01*
X133910614Y-91403714D01*
X133874329Y-91367429D01*
X133838043Y-91294857D01*
X133838043Y-91004572D01*
X133983186Y-92093143D02*
X133475186Y-92093143D01*
X133983186Y-91766572D02*
X133584043Y-91766572D01*
X133511471Y-91802857D01*
X133475186Y-91875429D01*
X133475186Y-91984286D01*
X133511471Y-92056857D01*
X133547757Y-92093143D01*
X133511471Y-92419715D02*
X133475186Y-92492286D01*
X133475186Y-92637429D01*
X133511471Y-92710001D01*
X133584043Y-92746286D01*
X133620329Y-92746286D01*
X133692900Y-92710001D01*
X133729186Y-92637429D01*
X133729186Y-92528572D01*
X133765471Y-92456001D01*
X133838043Y-92419715D01*
X133874329Y-92419715D01*
X133946900Y-92456001D01*
X133983186Y-92528572D01*
X133983186Y-92637429D01*
X133946900Y-92710001D01*
X133475186Y-93072858D02*
X134237186Y-93072858D01*
X133475186Y-93399429D02*
X133874329Y-93399429D01*
X133946900Y-93363143D01*
X133983186Y-93290572D01*
X133983186Y-93181715D01*
X133946900Y-93109143D01*
X133910614Y-93072858D01*
X132680529Y-90786857D02*
X132644243Y-90895714D01*
X132607957Y-90931999D01*
X132535386Y-90968285D01*
X132426529Y-90968285D01*
X132353957Y-90931999D01*
X132317671Y-90895714D01*
X132281386Y-90823142D01*
X132281386Y-90532857D01*
X133043386Y-90532857D01*
X133043386Y-90786857D01*
X133007100Y-90859428D01*
X132970814Y-90895714D01*
X132898243Y-90931999D01*
X132825671Y-90931999D01*
X132753100Y-90895714D01*
X132716814Y-90859428D01*
X132680529Y-90786857D01*
X132680529Y-90532857D01*
X132789386Y-91621428D02*
X132281386Y-91621428D01*
X132789386Y-91294857D02*
X132390243Y-91294857D01*
X132317671Y-91331142D01*
X132281386Y-91403714D01*
X132281386Y-91512571D01*
X132317671Y-91585142D01*
X132353957Y-91621428D01*
X132789386Y-91875428D02*
X132789386Y-92165714D01*
X133043386Y-91984286D02*
X132390243Y-91984286D01*
X132317671Y-92020571D01*
X132281386Y-92093143D01*
X132281386Y-92165714D01*
X132789386Y-92310857D02*
X132789386Y-92601143D01*
X133043386Y-92419715D02*
X132390243Y-92419715D01*
X132317671Y-92456000D01*
X132281386Y-92528572D01*
X132281386Y-92601143D01*
X132281386Y-92964001D02*
X132317671Y-92891429D01*
X132353957Y-92855144D01*
X132426529Y-92818858D01*
X132644243Y-92818858D01*
X132716814Y-92855144D01*
X132753100Y-92891429D01*
X132789386Y-92964001D01*
X132789386Y-93072858D01*
X132753100Y-93145429D01*
X132716814Y-93181715D01*
X132644243Y-93218001D01*
X132426529Y-93218001D01*
X132353957Y-93181715D01*
X132317671Y-93145429D01*
X132281386Y-93072858D01*
X132281386Y-92964001D01*
X132789386Y-93544573D02*
X132281386Y-93544573D01*
X132716814Y-93544573D02*
X132753100Y-93580858D01*
X132789386Y-93653430D01*
X132789386Y-93762287D01*
X132753100Y-93834858D01*
X132680529Y-93871144D01*
X132281386Y-93871144D01*
X133985000Y-96447428D02*
X134021286Y-96374857D01*
X134021286Y-96266000D01*
X133985000Y-96157143D01*
X133912429Y-96084571D01*
X133839857Y-96048286D01*
X133694714Y-96012000D01*
X133585857Y-96012000D01*
X133440714Y-96048286D01*
X133368143Y-96084571D01*
X133295571Y-96157143D01*
X133259286Y-96266000D01*
X133259286Y-96338571D01*
X133295571Y-96447428D01*
X133331857Y-96483714D01*
X133585857Y-96483714D01*
X133585857Y-96338571D01*
X133259286Y-96810286D02*
X134021286Y-96810286D01*
X133259286Y-97245714D01*
X134021286Y-97245714D01*
X133259286Y-97608572D02*
X134021286Y-97608572D01*
X134021286Y-97790000D01*
X133985000Y-97898857D01*
X133912429Y-97971429D01*
X133839857Y-98007714D01*
X133694714Y-98044000D01*
X133585857Y-98044000D01*
X133440714Y-98007714D01*
X133368143Y-97971429D01*
X133295571Y-97898857D01*
X133259286Y-97790000D01*
X133259286Y-97608572D01*
X133604000Y-102138238D02*
X133664476Y-102017286D01*
X133664476Y-101835857D01*
X133604000Y-101654429D01*
X133483048Y-101533476D01*
X133362095Y-101473000D01*
X133120190Y-101412524D01*
X132938762Y-101412524D01*
X132696857Y-101473000D01*
X132575905Y-101533476D01*
X132454952Y-101654429D01*
X132394476Y-101835857D01*
X132394476Y-101956809D01*
X132454952Y-102138238D01*
X132515429Y-102198714D01*
X132938762Y-102198714D01*
X132938762Y-101956809D01*
X132394476Y-102743000D02*
X133664476Y-102743000D01*
X132394476Y-103468714D01*
X133664476Y-103468714D01*
X132394476Y-104073476D02*
X133664476Y-104073476D01*
X133664476Y-104375857D01*
X133604000Y-104557285D01*
X133483048Y-104678238D01*
X133362095Y-104738714D01*
X133120190Y-104799190D01*
X132938762Y-104799190D01*
X132696857Y-104738714D01*
X132575905Y-104678238D01*
X132454952Y-104557285D01*
X132394476Y-104375857D01*
X132394476Y-104073476D01*
X132454952Y-106250619D02*
X132394476Y-106432047D01*
X132394476Y-106734428D01*
X132454952Y-106855381D01*
X132515429Y-106915857D01*
X132636381Y-106976333D01*
X132757333Y-106976333D01*
X132878286Y-106915857D01*
X132938762Y-106855381D01*
X132999238Y-106734428D01*
X133059714Y-106492524D01*
X133120190Y-106371571D01*
X133180667Y-106311095D01*
X133301619Y-106250619D01*
X133422571Y-106250619D01*
X133543524Y-106311095D01*
X133604000Y-106371571D01*
X133664476Y-106492524D01*
X133664476Y-106794904D01*
X133604000Y-106976333D01*
X133664476Y-107339190D02*
X133664476Y-108064905D01*
X132394476Y-107702048D02*
X133664476Y-107702048D01*
X132394476Y-109153476D02*
X132394476Y-108427762D01*
X132394476Y-108790619D02*
X133664476Y-108790619D01*
X133483048Y-108669667D01*
X133362095Y-108548714D01*
X133301619Y-108427762D01*
D13*
X169591000Y-86141000D02*
X159593000Y-86141000D01*
X169587000Y-86281000D02*
X159597000Y-86281000D01*
X169579000Y-86421000D02*
X159605000Y-86421000D01*
X169567000Y-86561000D02*
X159617000Y-86561000D01*
X169552000Y-86701000D02*
X159632000Y-86701000D01*
X169532000Y-86841000D02*
X159652000Y-86841000D01*
X169508000Y-86981000D02*
X159676000Y-86981000D01*
X169479000Y-87121000D02*
X159705000Y-87121000D01*
X169447000Y-87261000D02*
X159737000Y-87261000D01*
X169410000Y-87401000D02*
X159774000Y-87401000D01*
X169369000Y-87541000D02*
X159815000Y-87541000D01*
X169324000Y-87681000D02*
X165058000Y-87681000D01*
X164126000Y-87681000D02*
X159860000Y-87681000D01*
X169274000Y-87821000D02*
X165259000Y-87821000D01*
X163925000Y-87821000D02*
X159910000Y-87821000D01*
X169219000Y-87961000D02*
X165388000Y-87961000D01*
X163796000Y-87961000D02*
X159965000Y-87961000D01*
X169159000Y-88101000D02*
X165477000Y-88101000D01*
X163707000Y-88101000D02*
X160025000Y-88101000D01*
X169094000Y-88241000D02*
X165538000Y-88241000D01*
X163646000Y-88241000D02*
X160090000Y-88241000D01*
X169024000Y-88381000D02*
X165575000Y-88381000D01*
X163609000Y-88381000D02*
X160160000Y-88381000D01*
X168948000Y-88521000D02*
X165591000Y-88521000D01*
X163593000Y-88521000D02*
X160236000Y-88521000D01*
X168866000Y-88661000D02*
X165587000Y-88661000D01*
X163597000Y-88661000D02*
X160318000Y-88661000D01*
X168778000Y-88801000D02*
X165564000Y-88801000D01*
X163620000Y-88801000D02*
X160406000Y-88801000D01*
X168683000Y-88941000D02*
X165519000Y-88941000D01*
X163665000Y-88941000D02*
X160501000Y-88941000D01*
X168581000Y-89081000D02*
X165449000Y-89081000D01*
X163735000Y-89081000D02*
X160603000Y-89081000D01*
X168471000Y-89221000D02*
X165348000Y-89221000D01*
X163836000Y-89221000D02*
X160713000Y-89221000D01*
X168353000Y-89361000D02*
X165199000Y-89361000D01*
X163985000Y-89361000D02*
X160831000Y-89361000D01*
X168225000Y-89501000D02*
X164947000Y-89501000D01*
X164237000Y-89501000D02*
X160959000Y-89501000D01*
X168088000Y-89641000D02*
X161096000Y-89641000D01*
X167938000Y-89781000D02*
X161246000Y-89781000D01*
X167776000Y-89921000D02*
X161408000Y-89921000D01*
X167599000Y-90061000D02*
X161585000Y-90061000D01*
X167403000Y-90201000D02*
X161781000Y-90201000D01*
X167185000Y-90341000D02*
X161999000Y-90341000D01*
X166939000Y-90481000D02*
X162245000Y-90481000D01*
X166654000Y-90621000D02*
X162530000Y-90621000D01*
X166312000Y-90761000D02*
X162872000Y-90761000D01*
X165866000Y-90901000D02*
X163318000Y-90901000D01*
X165091000Y-91041000D02*
X164093000Y-91041000D01*
X165592000Y-88566000D02*
G75*
G03X165592000Y-88566000I-1000000J0D01*
G01*
X169629500Y-86066000D02*
G75*
G03X169629500Y-86066000I-5037500J0D01*
G01*
X172046000Y-90162000D02*
X172046000Y-89162000D01*
X170346000Y-89162000D02*
X170346000Y-90162000D01*
X170950000Y-81622000D02*
X171950000Y-81622000D01*
X171950000Y-79922000D02*
X170950000Y-79922000D01*
X174439000Y-87843000D02*
X174439000Y-82845000D01*
X174299000Y-87835000D02*
X174299000Y-85498000D01*
X174299000Y-85190000D02*
X174299000Y-82853000D01*
X174159000Y-87819000D02*
X174159000Y-85817000D01*
X174159000Y-84871000D02*
X174159000Y-82869000D01*
X174019000Y-87795000D02*
X174019000Y-85964000D01*
X174019000Y-84724000D02*
X174019000Y-82893000D01*
X173879000Y-87762000D02*
X173879000Y-86056000D01*
X173879000Y-84632000D02*
X173879000Y-82926000D01*
X173739000Y-87721000D02*
X173739000Y-86112000D01*
X173739000Y-84576000D02*
X173739000Y-82967000D01*
X173599000Y-87671000D02*
X173599000Y-86139000D01*
X173599000Y-84549000D02*
X173599000Y-83017000D01*
X173459000Y-87610000D02*
X173459000Y-86142000D01*
X173459000Y-84546000D02*
X173459000Y-83078000D01*
X173319000Y-87540000D02*
X173319000Y-86120000D01*
X173319000Y-84568000D02*
X173319000Y-83148000D01*
X173179000Y-87458000D02*
X173179000Y-86070000D01*
X173179000Y-84618000D02*
X173179000Y-83230000D01*
X173039000Y-87363000D02*
X173039000Y-85988000D01*
X173039000Y-84700000D02*
X173039000Y-83325000D01*
X172899000Y-87252000D02*
X172899000Y-85856000D01*
X172899000Y-84832000D02*
X172899000Y-83436000D01*
X172759000Y-87124000D02*
X172759000Y-85609000D01*
X172759000Y-85079000D02*
X172759000Y-83564000D01*
X172619000Y-86975000D02*
X172619000Y-83713000D01*
X172479000Y-86796000D02*
X172479000Y-83892000D01*
X172339000Y-86577000D02*
X172339000Y-84111000D01*
X172199000Y-86288000D02*
X172199000Y-84400000D01*
X172059000Y-85816000D02*
X172059000Y-84872000D01*
X174314000Y-85344000D02*
G75*
G03X174314000Y-85344000I-800000J0D01*
G01*
X177051500Y-85344000D02*
G75*
G03X177051500Y-85344000I-2537500J0D01*
G01*
X172728000Y-107276000D02*
X173728000Y-107276000D01*
X173728000Y-105576000D02*
X172728000Y-105576000D01*
X185254000Y-90416000D02*
X185254000Y-89416000D01*
X183554000Y-89416000D02*
X183554000Y-90416000D01*
X154012000Y-93591000D02*
X154012000Y-92591000D01*
X152312000Y-92591000D02*
X152312000Y-93591000D01*
X156679000Y-93591000D02*
X156679000Y-92591000D01*
X154979000Y-92591000D02*
X154979000Y-93591000D01*
X168488000Y-99246000D02*
X163490000Y-99246000D01*
X168480000Y-99386000D02*
X166143000Y-99386000D01*
X165835000Y-99386000D02*
X163498000Y-99386000D01*
X168464000Y-99526000D02*
X166462000Y-99526000D01*
X165516000Y-99526000D02*
X163514000Y-99526000D01*
X168440000Y-99666000D02*
X166609000Y-99666000D01*
X165369000Y-99666000D02*
X163538000Y-99666000D01*
X168407000Y-99806000D02*
X166701000Y-99806000D01*
X165277000Y-99806000D02*
X163571000Y-99806000D01*
X168366000Y-99946000D02*
X166757000Y-99946000D01*
X165221000Y-99946000D02*
X163612000Y-99946000D01*
X168316000Y-100086000D02*
X166784000Y-100086000D01*
X165194000Y-100086000D02*
X163662000Y-100086000D01*
X168255000Y-100226000D02*
X166787000Y-100226000D01*
X165191000Y-100226000D02*
X163723000Y-100226000D01*
X168185000Y-100366000D02*
X166765000Y-100366000D01*
X165213000Y-100366000D02*
X163793000Y-100366000D01*
X168103000Y-100506000D02*
X166715000Y-100506000D01*
X165263000Y-100506000D02*
X163875000Y-100506000D01*
X168008000Y-100646000D02*
X166633000Y-100646000D01*
X165345000Y-100646000D02*
X163970000Y-100646000D01*
X167897000Y-100786000D02*
X166501000Y-100786000D01*
X165477000Y-100786000D02*
X164081000Y-100786000D01*
X167769000Y-100926000D02*
X166254000Y-100926000D01*
X165724000Y-100926000D02*
X164209000Y-100926000D01*
X167620000Y-101066000D02*
X164358000Y-101066000D01*
X167441000Y-101206000D02*
X164537000Y-101206000D01*
X167222000Y-101346000D02*
X164756000Y-101346000D01*
X166933000Y-101486000D02*
X165045000Y-101486000D01*
X166461000Y-101626000D02*
X165517000Y-101626000D01*
X166789000Y-100171000D02*
G75*
G03X166789000Y-100171000I-800000J0D01*
G01*
X168526500Y-99171000D02*
G75*
G03X168526500Y-99171000I-2537500J0D01*
G01*
X175530000Y-91957000D02*
X177530000Y-91957000D01*
X177530000Y-89907000D02*
X175530000Y-89907000D01*
X154286000Y-104486000D02*
X155836000Y-104486000D01*
X154286000Y-103286000D02*
X155836000Y-103286000D01*
X155545733Y-82296000D02*
G75*
G03X155545733Y-82296000I-4669733J0D01*
G01*
X186868000Y-106668000D02*
X189568000Y-106668000D01*
X186868000Y-105168000D02*
X189568000Y-105168000D01*
X188368000Y-106068000D02*
X188368000Y-105818000D01*
X188368000Y-105818000D02*
X188218000Y-105968000D01*
X188118000Y-105568000D02*
X188118000Y-106268000D01*
X188468000Y-105918000D02*
X188818000Y-105918000D01*
X188118000Y-105918000D02*
X188468000Y-105568000D01*
X188468000Y-105568000D02*
X188468000Y-106268000D01*
X188468000Y-106268000D02*
X188118000Y-105918000D01*
X157388000Y-91675000D02*
X157388000Y-93225000D01*
X158588000Y-91675000D02*
X158588000Y-93225000D01*
X186868000Y-103366000D02*
X189568000Y-103366000D01*
X186868000Y-101866000D02*
X189568000Y-101866000D01*
X188368000Y-102766000D02*
X188368000Y-102516000D01*
X188368000Y-102516000D02*
X188218000Y-102666000D01*
X188118000Y-102266000D02*
X188118000Y-102966000D01*
X188468000Y-102616000D02*
X188818000Y-102616000D01*
X188118000Y-102616000D02*
X188468000Y-102266000D01*
X188468000Y-102266000D02*
X188468000Y-102966000D01*
X188468000Y-102966000D02*
X188118000Y-102616000D01*
X150768000Y-94142000D02*
X149218000Y-94142000D01*
X150768000Y-95342000D02*
X149218000Y-95342000D01*
X141097000Y-103378000D02*
X141097000Y-100838000D01*
X141097000Y-100838000D02*
X135001000Y-100838000D01*
X135001000Y-100838000D02*
X135001000Y-103632000D01*
X134239000Y-100330000D02*
X134239000Y-110490000D01*
X134239000Y-110490000D02*
X141859000Y-110490000D01*
X141859000Y-110490000D02*
X141859000Y-100330000D01*
X141859000Y-100330000D02*
X134239000Y-100330000D01*
X141605000Y-76708000D02*
X141605000Y-74168000D01*
X141605000Y-74168000D02*
X135509000Y-74168000D01*
X135509000Y-74168000D02*
X135509000Y-76962000D01*
X134747000Y-73660000D02*
X134747000Y-83820000D01*
X134747000Y-83820000D02*
X142367000Y-83820000D01*
X142367000Y-83820000D02*
X142367000Y-73660000D01*
X142367000Y-73660000D02*
X134747000Y-73660000D01*
X141351000Y-87503000D02*
X141351000Y-84963000D01*
X141351000Y-84963000D02*
X135255000Y-84963000D01*
X135255000Y-84963000D02*
X135255000Y-87757000D01*
X134493000Y-84455000D02*
X134493000Y-99695000D01*
X134493000Y-99695000D02*
X142113000Y-99695000D01*
X142113000Y-99695000D02*
X142113000Y-84455000D01*
X142113000Y-84455000D02*
X134493000Y-84455000D01*
X155418840Y-99583240D02*
X155467100Y-99583240D01*
X158217820Y-98882200D02*
X158217820Y-99583240D01*
X158217820Y-99583240D02*
X157968900Y-99583240D01*
X155418840Y-99583240D02*
X155218180Y-99583240D01*
X155218180Y-99583240D02*
X155218180Y-98882200D01*
X188560000Y-109079000D02*
X187360000Y-109079000D01*
X187360000Y-107329000D02*
X188560000Y-107329000D01*
X173574000Y-105015000D02*
X172374000Y-105015000D01*
X172374000Y-103265000D02*
X173574000Y-103265000D01*
X180735000Y-90262000D02*
X180735000Y-89062000D01*
X182485000Y-89062000D02*
X182485000Y-90262000D01*
X159223000Y-102983000D02*
X158023000Y-102983000D01*
X158023000Y-101233000D02*
X159223000Y-101233000D01*
X186274000Y-99427000D02*
X185074000Y-99427000D01*
X185074000Y-97677000D02*
X186274000Y-97677000D01*
X144688000Y-86247000D02*
X145888000Y-86247000D01*
X145888000Y-87997000D02*
X144688000Y-87997000D01*
X161403000Y-96047000D02*
X161403000Y-97247000D01*
X159653000Y-97247000D02*
X159653000Y-96047000D01*
X144561000Y-91073000D02*
X145761000Y-91073000D01*
X145761000Y-92823000D02*
X144561000Y-92823000D01*
X145761000Y-95617000D02*
X144561000Y-95617000D01*
X144561000Y-93867000D02*
X145761000Y-93867000D01*
X166659000Y-93740000D02*
X167859000Y-93740000D01*
X167859000Y-95490000D02*
X166659000Y-95490000D01*
X147955000Y-105791000D02*
X144653000Y-105791000D01*
X144653000Y-105791000D02*
X144653000Y-109855000D01*
X144653000Y-109855000D02*
X147955000Y-109855000D01*
X144399000Y-105283000D02*
X164211000Y-105283000D01*
X164211000Y-105283000D02*
X164211000Y-110363000D01*
X164211000Y-110363000D02*
X144399000Y-110363000D01*
X144399000Y-110363000D02*
X144399000Y-105283000D01*
X149733000Y-73914000D02*
X152273000Y-73914000D01*
X146913000Y-73634000D02*
X148463000Y-73634000D01*
X149733000Y-73914000D02*
X149733000Y-76454000D01*
X148463000Y-76734000D02*
X146913000Y-76734000D01*
X146913000Y-76734000D02*
X146913000Y-73634000D01*
X149733000Y-76454000D02*
X152273000Y-76454000D01*
X152273000Y-76454000D02*
X152273000Y-73914000D01*
X188468000Y-73406000D02*
X191770000Y-73406000D01*
X191770000Y-73406000D02*
X191770000Y-76454000D01*
X183388000Y-73914000D02*
X191262000Y-73914000D01*
X191262000Y-73914000D02*
X191262000Y-86106000D01*
X191262000Y-86106000D02*
X183388000Y-86106000D01*
X183388000Y-86106000D02*
X183388000Y-73914000D01*
X168402000Y-74168000D02*
X168402000Y-75311000D01*
X171450000Y-74168000D02*
X171450000Y-75311000D01*
X175260000Y-75311000D02*
X175260000Y-78994000D01*
X175260000Y-78994000D02*
X164592000Y-78994000D01*
X164592000Y-78994000D02*
X164592000Y-75311000D01*
X175260000Y-74168000D02*
X175260000Y-75311000D01*
X175260000Y-75311000D02*
X164592000Y-75311000D01*
X164592000Y-75311000D02*
X164592000Y-74168000D01*
X169926000Y-74168000D02*
X164592000Y-74168000D01*
X169926000Y-74168000D02*
X175260000Y-74168000D01*
X176749000Y-99865000D02*
X176894000Y-99865000D01*
X176749000Y-95715000D02*
X176894000Y-95715000D01*
X181899000Y-95715000D02*
X181754000Y-95715000D01*
X181899000Y-99865000D02*
X181754000Y-99865000D01*
X176749000Y-99865000D02*
X176749000Y-95715000D01*
X181899000Y-99865000D02*
X181899000Y-95715000D01*
X176894000Y-99865000D02*
X176894000Y-101265000D01*
D10*
G36*
X145798378Y-69614418D02*
X145796238Y-70208076D01*
X145796000Y-70392945D01*
X145794032Y-71033217D01*
X145787365Y-71523453D01*
X145774856Y-71882914D01*
X145755361Y-72130861D01*
X145727735Y-72286554D01*
X145690835Y-72369252D01*
X145677831Y-72382670D01*
X145510596Y-72454142D01*
X145372667Y-72484474D01*
X145372667Y-72030748D01*
X145372667Y-70437371D01*
X145368611Y-69916909D01*
X145357250Y-69467332D01*
X145339795Y-69113665D01*
X145317453Y-68880937D01*
X145293275Y-68794926D01*
X145181827Y-68764092D01*
X144939552Y-68717619D01*
X144603493Y-68662095D01*
X144256108Y-68610485D01*
X143627640Y-68548536D01*
X142900051Y-68520245D01*
X142130137Y-68524497D01*
X141374692Y-68560179D01*
X140690514Y-68626176D01*
X140292667Y-68688237D01*
X139742333Y-68792859D01*
X139719366Y-70414143D01*
X139696399Y-72035426D01*
X140269699Y-72126198D01*
X140605613Y-72178928D01*
X140910424Y-72226002D01*
X141097000Y-72254091D01*
X141337169Y-72271739D01*
X141708525Y-72278161D01*
X142173383Y-72274617D01*
X142694057Y-72262364D01*
X143232862Y-72242660D01*
X143752112Y-72216761D01*
X144214122Y-72185926D01*
X144581206Y-72151412D01*
X144716500Y-72133306D01*
X145372667Y-72030748D01*
X145372667Y-72484474D01*
X145201275Y-72522166D01*
X144777113Y-72584037D01*
X144265356Y-72637051D01*
X143693249Y-72678504D01*
X143088039Y-72705692D01*
X142476969Y-72715910D01*
X142324667Y-72715483D01*
X141839669Y-72710260D01*
X141400889Y-72702201D01*
X141042154Y-72692183D01*
X140797292Y-72681080D01*
X140716000Y-72673816D01*
X140209428Y-72590236D01*
X139801639Y-72507708D01*
X139516462Y-72431632D01*
X139382500Y-72371674D01*
X139345465Y-72293849D01*
X139317306Y-72118790D01*
X139297198Y-71831075D01*
X139284317Y-71415284D01*
X139277837Y-70855996D01*
X139276667Y-70392945D01*
X139277618Y-69776599D01*
X139281577Y-69308164D01*
X139290200Y-68966224D01*
X139305144Y-68729362D01*
X139328066Y-68576160D01*
X139360622Y-68485203D01*
X139404468Y-68435073D01*
X139429312Y-68419597D01*
X139695200Y-68326179D01*
X140100761Y-68246175D01*
X140616773Y-68180830D01*
X141214015Y-68131389D01*
X141863264Y-68099099D01*
X142535298Y-68085204D01*
X143200896Y-68090950D01*
X143830834Y-68117582D01*
X144395891Y-68166346D01*
X144634193Y-68197783D01*
X144999658Y-68249423D01*
X145279762Y-68294352D01*
X145485766Y-68353847D01*
X145628929Y-68449182D01*
X145720512Y-68601632D01*
X145771775Y-68832471D01*
X145793977Y-69162975D01*
X145798378Y-69614418D01*
X145798378Y-69614418D01*
X145798378Y-69614418D01*
G37*
X145798378Y-69614418D02*
X145796238Y-70208076D01*
X145796000Y-70392945D01*
X145794032Y-71033217D01*
X145787365Y-71523453D01*
X145774856Y-71882914D01*
X145755361Y-72130861D01*
X145727735Y-72286554D01*
X145690835Y-72369252D01*
X145677831Y-72382670D01*
X145510596Y-72454142D01*
X145372667Y-72484474D01*
X145372667Y-72030748D01*
X145372667Y-70437371D01*
X145368611Y-69916909D01*
X145357250Y-69467332D01*
X145339795Y-69113665D01*
X145317453Y-68880937D01*
X145293275Y-68794926D01*
X145181827Y-68764092D01*
X144939552Y-68717619D01*
X144603493Y-68662095D01*
X144256108Y-68610485D01*
X143627640Y-68548536D01*
X142900051Y-68520245D01*
X142130137Y-68524497D01*
X141374692Y-68560179D01*
X140690514Y-68626176D01*
X140292667Y-68688237D01*
X139742333Y-68792859D01*
X139719366Y-70414143D01*
X139696399Y-72035426D01*
X140269699Y-72126198D01*
X140605613Y-72178928D01*
X140910424Y-72226002D01*
X141097000Y-72254091D01*
X141337169Y-72271739D01*
X141708525Y-72278161D01*
X142173383Y-72274617D01*
X142694057Y-72262364D01*
X143232862Y-72242660D01*
X143752112Y-72216761D01*
X144214122Y-72185926D01*
X144581206Y-72151412D01*
X144716500Y-72133306D01*
X145372667Y-72030748D01*
X145372667Y-72484474D01*
X145201275Y-72522166D01*
X144777113Y-72584037D01*
X144265356Y-72637051D01*
X143693249Y-72678504D01*
X143088039Y-72705692D01*
X142476969Y-72715910D01*
X142324667Y-72715483D01*
X141839669Y-72710260D01*
X141400889Y-72702201D01*
X141042154Y-72692183D01*
X140797292Y-72681080D01*
X140716000Y-72673816D01*
X140209428Y-72590236D01*
X139801639Y-72507708D01*
X139516462Y-72431632D01*
X139382500Y-72371674D01*
X139345465Y-72293849D01*
X139317306Y-72118790D01*
X139297198Y-71831075D01*
X139284317Y-71415284D01*
X139277837Y-70855996D01*
X139276667Y-70392945D01*
X139277618Y-69776599D01*
X139281577Y-69308164D01*
X139290200Y-68966224D01*
X139305144Y-68729362D01*
X139328066Y-68576160D01*
X139360622Y-68485203D01*
X139404468Y-68435073D01*
X139429312Y-68419597D01*
X139695200Y-68326179D01*
X140100761Y-68246175D01*
X140616773Y-68180830D01*
X141214015Y-68131389D01*
X141863264Y-68099099D01*
X142535298Y-68085204D01*
X143200896Y-68090950D01*
X143830834Y-68117582D01*
X144395891Y-68166346D01*
X144634193Y-68197783D01*
X144999658Y-68249423D01*
X145279762Y-68294352D01*
X145485766Y-68353847D01*
X145628929Y-68449182D01*
X145720512Y-68601632D01*
X145771775Y-68832471D01*
X145793977Y-69162975D01*
X145798378Y-69614418D01*
X145798378Y-69614418D01*
G36*
X142836670Y-70759396D02*
X142789189Y-71142950D01*
X142624447Y-71492481D01*
X142350161Y-71761811D01*
X142208903Y-71835168D01*
X142020567Y-71885105D01*
X141749715Y-71916878D01*
X141360911Y-71935742D01*
X141139333Y-71941393D01*
X140742939Y-71945691D01*
X140404647Y-71941729D01*
X140162870Y-71930450D01*
X140059833Y-71914953D01*
X139970971Y-71797885D01*
X139962884Y-71619760D01*
X140030694Y-71465596D01*
X140087925Y-71425391D01*
X140226727Y-71403378D01*
X140490799Y-71386077D01*
X140836093Y-71375813D01*
X141061591Y-71374000D01*
X141543135Y-71358429D01*
X141879671Y-71304481D01*
X142093272Y-71201299D01*
X142206013Y-71038028D01*
X142239967Y-70803811D01*
X142240000Y-70794455D01*
X142173502Y-70530492D01*
X141968858Y-70343644D01*
X141618342Y-70228320D01*
X141416924Y-70198904D01*
X141141361Y-70163063D01*
X140994693Y-70117056D01*
X140936873Y-70039255D01*
X140927667Y-69934666D01*
X140938631Y-69820268D01*
X140996964Y-69753955D01*
X141140824Y-69719166D01*
X141408369Y-69699341D01*
X141478000Y-69695817D01*
X141894280Y-69699844D01*
X142193980Y-69764245D01*
X142288279Y-69806786D01*
X142584942Y-70051094D01*
X142768163Y-70382037D01*
X142836670Y-70759396D01*
X142836670Y-70759396D01*
X142836670Y-70759396D01*
G37*
X142836670Y-70759396D02*
X142789189Y-71142950D01*
X142624447Y-71492481D01*
X142350161Y-71761811D01*
X142208903Y-71835168D01*
X142020567Y-71885105D01*
X141749715Y-71916878D01*
X141360911Y-71935742D01*
X141139333Y-71941393D01*
X140742939Y-71945691D01*
X140404647Y-71941729D01*
X140162870Y-71930450D01*
X140059833Y-71914953D01*
X139970971Y-71797885D01*
X139962884Y-71619760D01*
X140030694Y-71465596D01*
X140087925Y-71425391D01*
X140226727Y-71403378D01*
X140490799Y-71386077D01*
X140836093Y-71375813D01*
X141061591Y-71374000D01*
X141543135Y-71358429D01*
X141879671Y-71304481D01*
X142093272Y-71201299D01*
X142206013Y-71038028D01*
X142239967Y-70803811D01*
X142240000Y-70794455D01*
X142173502Y-70530492D01*
X141968858Y-70343644D01*
X141618342Y-70228320D01*
X141416924Y-70198904D01*
X141141361Y-70163063D01*
X140994693Y-70117056D01*
X140936873Y-70039255D01*
X140927667Y-69934666D01*
X140938631Y-69820268D01*
X140996964Y-69753955D01*
X141140824Y-69719166D01*
X141408369Y-69699341D01*
X141478000Y-69695817D01*
X141894280Y-69699844D01*
X142193980Y-69764245D01*
X142288279Y-69806786D01*
X142584942Y-70051094D01*
X142768163Y-70382037D01*
X142836670Y-70759396D01*
X142836670Y-70759396D01*
G36*
X145033068Y-70850399D02*
X145013138Y-71373157D01*
X144952339Y-71736069D01*
X144851294Y-71937846D01*
X144710624Y-71977203D01*
X144542933Y-71865066D01*
X144489682Y-71719488D01*
X144455686Y-71412882D01*
X144441676Y-70952537D01*
X144441333Y-70853050D01*
X144432764Y-70455735D01*
X144409630Y-70103407D01*
X144375790Y-69841877D01*
X144347241Y-69736124D01*
X144203675Y-69566654D01*
X143969328Y-69419565D01*
X143923908Y-69400284D01*
X143702838Y-69289786D01*
X143608007Y-69163972D01*
X143594667Y-69058685D01*
X143658639Y-68882243D01*
X143826569Y-68798667D01*
X144062475Y-68805481D01*
X144330374Y-68900205D01*
X144594284Y-69080361D01*
X144648278Y-69131255D01*
X144799560Y-69307985D01*
X144906216Y-69507797D01*
X144975517Y-69763186D01*
X145014737Y-70106649D01*
X145031149Y-70570682D01*
X145033068Y-70850399D01*
X145033068Y-70850399D01*
X145033068Y-70850399D01*
G37*
X145033068Y-70850399D02*
X145013138Y-71373157D01*
X144952339Y-71736069D01*
X144851294Y-71937846D01*
X144710624Y-71977203D01*
X144542933Y-71865066D01*
X144489682Y-71719488D01*
X144455686Y-71412882D01*
X144441676Y-70952537D01*
X144441333Y-70853050D01*
X144432764Y-70455735D01*
X144409630Y-70103407D01*
X144375790Y-69841877D01*
X144347241Y-69736124D01*
X144203675Y-69566654D01*
X143969328Y-69419565D01*
X143923908Y-69400284D01*
X143702838Y-69289786D01*
X143608007Y-69163972D01*
X143594667Y-69058685D01*
X143658639Y-68882243D01*
X143826569Y-68798667D01*
X144062475Y-68805481D01*
X144330374Y-68900205D01*
X144594284Y-69080361D01*
X144648278Y-69131255D01*
X144799560Y-69307985D01*
X144906216Y-69507797D01*
X144975517Y-69763186D01*
X145014737Y-70106649D01*
X145031149Y-70570682D01*
X145033068Y-70850399D01*
X145033068Y-70850399D01*
G36*
X143689199Y-70484520D02*
X143665174Y-70781519D01*
X143613217Y-70991327D01*
X143552333Y-71065951D01*
X143360305Y-71096023D01*
X143239857Y-70999621D01*
X143181111Y-70762874D01*
X143171333Y-70530909D01*
X143136254Y-70035412D01*
X143028985Y-69685937D01*
X142846479Y-69473931D01*
X142782135Y-69438336D01*
X142604694Y-69395401D01*
X142309586Y-69362319D01*
X141948408Y-69344058D01*
X141781767Y-69342000D01*
X141390142Y-69347548D01*
X141125346Y-69369080D01*
X140945098Y-69413927D01*
X140807114Y-69489422D01*
X140769751Y-69517478D01*
X140590754Y-69746739D01*
X140553202Y-70009950D01*
X140660386Y-70256950D01*
X140717312Y-70316854D01*
X140940206Y-70431454D01*
X141289642Y-70502508D01*
X141373479Y-70510644D01*
X141737848Y-70567077D01*
X141938648Y-70664606D01*
X141976808Y-70804155D01*
X141853257Y-70986647D01*
X141852952Y-70986952D01*
X141655853Y-71084949D01*
X141333223Y-71102715D01*
X140873121Y-71040860D01*
X140856751Y-71037719D01*
X140477002Y-70891080D01*
X140198556Y-70639501D01*
X140025496Y-70316686D01*
X139961901Y-69956335D01*
X140011854Y-69592151D01*
X140179435Y-69257837D01*
X140468726Y-68987094D01*
X140599528Y-68913569D01*
X140782860Y-68834187D01*
X140966289Y-68783824D01*
X141191337Y-68757875D01*
X141499528Y-68751734D01*
X141932384Y-68760796D01*
X141967491Y-68761852D01*
X142460486Y-68784266D01*
X142818435Y-68824823D01*
X143075523Y-68895716D01*
X143265932Y-69009137D01*
X143423845Y-69177277D01*
X143521625Y-69316171D01*
X143601505Y-69516154D01*
X143656582Y-69807259D01*
X143686074Y-70144907D01*
X143689199Y-70484520D01*
X143689199Y-70484520D01*
X143689199Y-70484520D01*
G37*
X143689199Y-70484520D02*
X143665174Y-70781519D01*
X143613217Y-70991327D01*
X143552333Y-71065951D01*
X143360305Y-71096023D01*
X143239857Y-70999621D01*
X143181111Y-70762874D01*
X143171333Y-70530909D01*
X143136254Y-70035412D01*
X143028985Y-69685937D01*
X142846479Y-69473931D01*
X142782135Y-69438336D01*
X142604694Y-69395401D01*
X142309586Y-69362319D01*
X141948408Y-69344058D01*
X141781767Y-69342000D01*
X141390142Y-69347548D01*
X141125346Y-69369080D01*
X140945098Y-69413927D01*
X140807114Y-69489422D01*
X140769751Y-69517478D01*
X140590754Y-69746739D01*
X140553202Y-70009950D01*
X140660386Y-70256950D01*
X140717312Y-70316854D01*
X140940206Y-70431454D01*
X141289642Y-70502508D01*
X141373479Y-70510644D01*
X141737848Y-70567077D01*
X141938648Y-70664606D01*
X141976808Y-70804155D01*
X141853257Y-70986647D01*
X141852952Y-70986952D01*
X141655853Y-71084949D01*
X141333223Y-71102715D01*
X140873121Y-71040860D01*
X140856751Y-71037719D01*
X140477002Y-70891080D01*
X140198556Y-70639501D01*
X140025496Y-70316686D01*
X139961901Y-69956335D01*
X140011854Y-69592151D01*
X140179435Y-69257837D01*
X140468726Y-68987094D01*
X140599528Y-68913569D01*
X140782860Y-68834187D01*
X140966289Y-68783824D01*
X141191337Y-68757875D01*
X141499528Y-68751734D01*
X141932384Y-68760796D01*
X141967491Y-68761852D01*
X142460486Y-68784266D01*
X142818435Y-68824823D01*
X143075523Y-68895716D01*
X143265932Y-69009137D01*
X143423845Y-69177277D01*
X143521625Y-69316171D01*
X143601505Y-69516154D01*
X143656582Y-69807259D01*
X143686074Y-70144907D01*
X143689199Y-70484520D01*
X143689199Y-70484520D01*
G36*
X185057898Y-114570053D02*
X185056458Y-114760921D01*
X185056334Y-114769623D01*
X185049583Y-115235070D01*
X184990195Y-115286118D01*
X184910251Y-115330807D01*
X184826712Y-115334865D01*
X184746791Y-115298589D01*
X184719485Y-115274908D01*
X184677688Y-115236367D01*
X184658000Y-115228766D01*
X184658000Y-114449792D01*
X184651338Y-114304606D01*
X184630006Y-114193007D01*
X184591985Y-114108181D01*
X184538329Y-114045982D01*
X184451924Y-113995882D01*
X184354728Y-113980518D01*
X184256923Y-113997853D01*
X184168694Y-114045852D01*
X184100224Y-114122479D01*
X184092986Y-114135022D01*
X184070122Y-114203736D01*
X184056320Y-114300279D01*
X184051459Y-114411657D01*
X184055423Y-114524874D01*
X184068092Y-114626938D01*
X184089349Y-114704855D01*
X184098349Y-114723261D01*
X184169342Y-114811490D01*
X184256202Y-114868675D01*
X184350943Y-114892873D01*
X184445581Y-114882136D01*
X184532129Y-114834519D01*
X184537192Y-114830183D01*
X184595978Y-114761541D01*
X184634065Y-114673453D01*
X184653810Y-114558495D01*
X184658000Y-114449792D01*
X184658000Y-115228766D01*
X184646245Y-115224229D01*
X184606456Y-115234107D01*
X184584210Y-115243158D01*
X184523645Y-115259161D01*
X184438773Y-115270109D01*
X184357055Y-115273649D01*
X184258326Y-115269682D01*
X184179340Y-115254629D01*
X184097982Y-115223727D01*
X184074124Y-115212703D01*
X183926772Y-115123487D01*
X183811089Y-115009457D01*
X183726234Y-114869038D01*
X183671366Y-114700654D01*
X183645644Y-114502730D01*
X183643343Y-114405833D01*
X183654511Y-114234444D01*
X183689045Y-114087671D01*
X183750845Y-113952537D01*
X183804959Y-113868353D01*
X183913509Y-113748247D01*
X184041186Y-113661668D01*
X184181947Y-113608105D01*
X184329748Y-113587047D01*
X184478544Y-113597985D01*
X184622291Y-113640407D01*
X184754945Y-113713805D01*
X184870462Y-113817667D01*
X184962798Y-113951482D01*
X184970664Y-113966773D01*
X184999855Y-114033150D01*
X185022321Y-114105103D01*
X185038711Y-114188701D01*
X185049672Y-114290012D01*
X185055852Y-114415106D01*
X185057898Y-114570053D01*
X185057898Y-114570053D01*
X185057898Y-114570053D01*
G37*
X185057898Y-114570053D02*
X185056458Y-114760921D01*
X185056334Y-114769623D01*
X185049583Y-115235070D01*
X184990195Y-115286118D01*
X184910251Y-115330807D01*
X184826712Y-115334865D01*
X184746791Y-115298589D01*
X184719485Y-115274908D01*
X184677688Y-115236367D01*
X184658000Y-115228766D01*
X184658000Y-114449792D01*
X184651338Y-114304606D01*
X184630006Y-114193007D01*
X184591985Y-114108181D01*
X184538329Y-114045982D01*
X184451924Y-113995882D01*
X184354728Y-113980518D01*
X184256923Y-113997853D01*
X184168694Y-114045852D01*
X184100224Y-114122479D01*
X184092986Y-114135022D01*
X184070122Y-114203736D01*
X184056320Y-114300279D01*
X184051459Y-114411657D01*
X184055423Y-114524874D01*
X184068092Y-114626938D01*
X184089349Y-114704855D01*
X184098349Y-114723261D01*
X184169342Y-114811490D01*
X184256202Y-114868675D01*
X184350943Y-114892873D01*
X184445581Y-114882136D01*
X184532129Y-114834519D01*
X184537192Y-114830183D01*
X184595978Y-114761541D01*
X184634065Y-114673453D01*
X184653810Y-114558495D01*
X184658000Y-114449792D01*
X184658000Y-115228766D01*
X184646245Y-115224229D01*
X184606456Y-115234107D01*
X184584210Y-115243158D01*
X184523645Y-115259161D01*
X184438773Y-115270109D01*
X184357055Y-115273649D01*
X184258326Y-115269682D01*
X184179340Y-115254629D01*
X184097982Y-115223727D01*
X184074124Y-115212703D01*
X183926772Y-115123487D01*
X183811089Y-115009457D01*
X183726234Y-114869038D01*
X183671366Y-114700654D01*
X183645644Y-114502730D01*
X183643343Y-114405833D01*
X183654511Y-114234444D01*
X183689045Y-114087671D01*
X183750845Y-113952537D01*
X183804959Y-113868353D01*
X183913509Y-113748247D01*
X184041186Y-113661668D01*
X184181947Y-113608105D01*
X184329748Y-113587047D01*
X184478544Y-113597985D01*
X184622291Y-113640407D01*
X184754945Y-113713805D01*
X184870462Y-113817667D01*
X184962798Y-113951482D01*
X184970664Y-113966773D01*
X184999855Y-114033150D01*
X185022321Y-114105103D01*
X185038711Y-114188701D01*
X185049672Y-114290012D01*
X185055852Y-114415106D01*
X185057898Y-114570053D01*
X185057898Y-114570053D01*
G36*
X180953833Y-115083302D02*
X180936317Y-115148936D01*
X180892097Y-115214875D01*
X180833667Y-115265436D01*
X180795324Y-115282298D01*
X180751954Y-115288501D01*
X180709674Y-115282163D01*
X180664615Y-115259898D01*
X180612908Y-115218318D01*
X180550686Y-115154039D01*
X180474081Y-115063672D01*
X180379225Y-114943832D01*
X180318267Y-114864646D01*
X180234506Y-114756383D01*
X180158455Y-114660418D01*
X180094097Y-114581586D01*
X180045414Y-114524723D01*
X180016387Y-114494667D01*
X180010777Y-114491175D01*
X179983745Y-114504907D01*
X179941732Y-114540310D01*
X179922683Y-114559291D01*
X179895595Y-114588797D01*
X179876990Y-114616237D01*
X179865011Y-114650218D01*
X179857803Y-114699349D01*
X179853509Y-114772235D01*
X179850272Y-114877483D01*
X179849739Y-114897488D01*
X179846311Y-115009405D01*
X179841971Y-115087319D01*
X179835145Y-115139555D01*
X179824257Y-115174438D01*
X179807731Y-115200293D01*
X179788529Y-115220936D01*
X179728636Y-115262484D01*
X179659872Y-115287084D01*
X179659143Y-115287204D01*
X179604476Y-115290095D01*
X179559423Y-115272866D01*
X179512114Y-115235367D01*
X179440417Y-115171305D01*
X179440417Y-114024563D01*
X179440417Y-112877820D01*
X179503917Y-112827015D01*
X179580658Y-112787831D01*
X179664618Y-112779543D01*
X179743651Y-112800228D01*
X179805612Y-112847963D01*
X179824714Y-112877811D01*
X179829689Y-112907772D01*
X179834908Y-112974194D01*
X179840101Y-113071209D01*
X179844999Y-113192948D01*
X179849333Y-113333543D01*
X179852834Y-113487124D01*
X179852950Y-113493296D01*
X179863750Y-114073010D01*
X180217698Y-113753140D01*
X180322796Y-113659683D01*
X180420366Y-113575769D01*
X180505124Y-113505718D01*
X180571788Y-113453848D01*
X180615075Y-113424476D01*
X180625567Y-113419737D01*
X180697527Y-113420128D01*
X180773091Y-113448020D01*
X180832464Y-113495636D01*
X180838260Y-113503293D01*
X180860028Y-113555557D01*
X180869166Y-113619588D01*
X180869167Y-113620014D01*
X180865813Y-113651684D01*
X180853330Y-113684884D01*
X180828087Y-113723725D01*
X180786449Y-113772318D01*
X180724786Y-113834775D01*
X180639464Y-113915207D01*
X180526851Y-114017727D01*
X180482787Y-114057370D01*
X180318657Y-114204750D01*
X180636245Y-114613968D01*
X180743572Y-114753602D01*
X180826050Y-114864193D01*
X180885996Y-114949163D01*
X180925727Y-115011938D01*
X180947560Y-115055941D01*
X180953833Y-115083302D01*
X180953833Y-115083302D01*
X180953833Y-115083302D01*
G37*
X180953833Y-115083302D02*
X180936317Y-115148936D01*
X180892097Y-115214875D01*
X180833667Y-115265436D01*
X180795324Y-115282298D01*
X180751954Y-115288501D01*
X180709674Y-115282163D01*
X180664615Y-115259898D01*
X180612908Y-115218318D01*
X180550686Y-115154039D01*
X180474081Y-115063672D01*
X180379225Y-114943832D01*
X180318267Y-114864646D01*
X180234506Y-114756383D01*
X180158455Y-114660418D01*
X180094097Y-114581586D01*
X180045414Y-114524723D01*
X180016387Y-114494667D01*
X180010777Y-114491175D01*
X179983745Y-114504907D01*
X179941732Y-114540310D01*
X179922683Y-114559291D01*
X179895595Y-114588797D01*
X179876990Y-114616237D01*
X179865011Y-114650218D01*
X179857803Y-114699349D01*
X179853509Y-114772235D01*
X179850272Y-114877483D01*
X179849739Y-114897488D01*
X179846311Y-115009405D01*
X179841971Y-115087319D01*
X179835145Y-115139555D01*
X179824257Y-115174438D01*
X179807731Y-115200293D01*
X179788529Y-115220936D01*
X179728636Y-115262484D01*
X179659872Y-115287084D01*
X179659143Y-115287204D01*
X179604476Y-115290095D01*
X179559423Y-115272866D01*
X179512114Y-115235367D01*
X179440417Y-115171305D01*
X179440417Y-114024563D01*
X179440417Y-112877820D01*
X179503917Y-112827015D01*
X179580658Y-112787831D01*
X179664618Y-112779543D01*
X179743651Y-112800228D01*
X179805612Y-112847963D01*
X179824714Y-112877811D01*
X179829689Y-112907772D01*
X179834908Y-112974194D01*
X179840101Y-113071209D01*
X179844999Y-113192948D01*
X179849333Y-113333543D01*
X179852834Y-113487124D01*
X179852950Y-113493296D01*
X179863750Y-114073010D01*
X180217698Y-113753140D01*
X180322796Y-113659683D01*
X180420366Y-113575769D01*
X180505124Y-113505718D01*
X180571788Y-113453848D01*
X180615075Y-113424476D01*
X180625567Y-113419737D01*
X180697527Y-113420128D01*
X180773091Y-113448020D01*
X180832464Y-113495636D01*
X180838260Y-113503293D01*
X180860028Y-113555557D01*
X180869166Y-113619588D01*
X180869167Y-113620014D01*
X180865813Y-113651684D01*
X180853330Y-113684884D01*
X180828087Y-113723725D01*
X180786449Y-113772318D01*
X180724786Y-113834775D01*
X180639464Y-113915207D01*
X180526851Y-114017727D01*
X180482787Y-114057370D01*
X180318657Y-114204750D01*
X180636245Y-114613968D01*
X180743572Y-114753602D01*
X180826050Y-114864193D01*
X180885996Y-114949163D01*
X180925727Y-115011938D01*
X180947560Y-115055941D01*
X180953833Y-115083302D01*
X180953833Y-115083302D01*
G36*
X181628909Y-114125501D02*
X181627909Y-114315914D01*
X181626900Y-114438904D01*
X181620583Y-115166926D01*
X181567667Y-115219783D01*
X181497735Y-115266763D01*
X181417586Y-115286583D01*
X181345417Y-115275624D01*
X181299581Y-115246277D01*
X181260750Y-115210468D01*
X181249509Y-115196231D01*
X181240397Y-115178133D01*
X181233144Y-115151789D01*
X181227484Y-115112816D01*
X181223148Y-115056828D01*
X181219869Y-114979441D01*
X181217379Y-114876271D01*
X181215409Y-114742933D01*
X181213692Y-114575042D01*
X181212366Y-114418476D01*
X181206316Y-113673511D01*
X181254700Y-113602095D01*
X181320580Y-113532663D01*
X181395798Y-113504233D01*
X181479277Y-113517147D01*
X181497415Y-113524981D01*
X181531595Y-113542741D01*
X181559506Y-113563023D01*
X181581738Y-113589992D01*
X181598880Y-113627813D01*
X181611523Y-113680653D01*
X181620257Y-113752676D01*
X181625673Y-113848048D01*
X181628360Y-113970934D01*
X181628909Y-114125501D01*
X181628909Y-114125501D01*
X181628909Y-114125501D01*
G37*
X181628909Y-114125501D02*
X181627909Y-114315914D01*
X181626900Y-114438904D01*
X181620583Y-115166926D01*
X181567667Y-115219783D01*
X181497735Y-115266763D01*
X181417586Y-115286583D01*
X181345417Y-115275624D01*
X181299581Y-115246277D01*
X181260750Y-115210468D01*
X181249509Y-115196231D01*
X181240397Y-115178133D01*
X181233144Y-115151789D01*
X181227484Y-115112816D01*
X181223148Y-115056828D01*
X181219869Y-114979441D01*
X181217379Y-114876271D01*
X181215409Y-114742933D01*
X181213692Y-114575042D01*
X181212366Y-114418476D01*
X181206316Y-113673511D01*
X181254700Y-113602095D01*
X181320580Y-113532663D01*
X181395798Y-113504233D01*
X181479277Y-113517147D01*
X181497415Y-113524981D01*
X181531595Y-113542741D01*
X181559506Y-113563023D01*
X181581738Y-113589992D01*
X181598880Y-113627813D01*
X181611523Y-113680653D01*
X181620257Y-113752676D01*
X181625673Y-113848048D01*
X181628360Y-113970934D01*
X181628909Y-114125501D01*
X181628909Y-114125501D01*
G36*
X183303333Y-115019577D02*
X183283375Y-115080699D01*
X183228313Y-115138341D01*
X183145365Y-115189951D01*
X183041753Y-115232978D01*
X182924694Y-115264871D01*
X182801408Y-115283079D01*
X182679114Y-115285052D01*
X182586010Y-115273053D01*
X182423708Y-115218410D01*
X182279808Y-115128608D01*
X182160093Y-115008873D01*
X182070344Y-114864425D01*
X182035708Y-114775894D01*
X181988150Y-114562995D01*
X181978006Y-114348987D01*
X182004905Y-114141234D01*
X182068482Y-113947100D01*
X182078235Y-113925752D01*
X182167628Y-113783766D01*
X182286532Y-113667462D01*
X182428534Y-113580127D01*
X182587222Y-113525046D01*
X182756184Y-113505507D01*
X182879500Y-113515114D01*
X183023473Y-113548485D01*
X183139597Y-113596047D01*
X183225405Y-113654865D01*
X183278430Y-113722002D01*
X183296203Y-113794522D01*
X183276258Y-113869489D01*
X183229351Y-113931406D01*
X183175330Y-113969000D01*
X183109516Y-113980277D01*
X183023775Y-113965490D01*
X182948564Y-113940155D01*
X182840319Y-113907137D01*
X182748563Y-113900083D01*
X182657124Y-113918021D01*
X182645033Y-113921932D01*
X182547437Y-113969604D01*
X182475512Y-114040768D01*
X182427258Y-114139277D01*
X182400677Y-114268985D01*
X182393631Y-114406640D01*
X182401701Y-114557483D01*
X182428192Y-114675124D01*
X182475357Y-114765484D01*
X182545449Y-114834485D01*
X182560338Y-114844870D01*
X182647126Y-114880984D01*
X182753909Y-114894059D01*
X182865031Y-114883884D01*
X182964667Y-114850333D01*
X183025943Y-114823838D01*
X183078201Y-114809088D01*
X183089827Y-114808000D01*
X183172805Y-114827228D01*
X183242846Y-114878082D01*
X183289608Y-114950313D01*
X183303333Y-115019577D01*
X183303333Y-115019577D01*
X183303333Y-115019577D01*
G37*
X183303333Y-115019577D02*
X183283375Y-115080699D01*
X183228313Y-115138341D01*
X183145365Y-115189951D01*
X183041753Y-115232978D01*
X182924694Y-115264871D01*
X182801408Y-115283079D01*
X182679114Y-115285052D01*
X182586010Y-115273053D01*
X182423708Y-115218410D01*
X182279808Y-115128608D01*
X182160093Y-115008873D01*
X182070344Y-114864425D01*
X182035708Y-114775894D01*
X181988150Y-114562995D01*
X181978006Y-114348987D01*
X182004905Y-114141234D01*
X182068482Y-113947100D01*
X182078235Y-113925752D01*
X182167628Y-113783766D01*
X182286532Y-113667462D01*
X182428534Y-113580127D01*
X182587222Y-113525046D01*
X182756184Y-113505507D01*
X182879500Y-113515114D01*
X183023473Y-113548485D01*
X183139597Y-113596047D01*
X183225405Y-113654865D01*
X183278430Y-113722002D01*
X183296203Y-113794522D01*
X183276258Y-113869489D01*
X183229351Y-113931406D01*
X183175330Y-113969000D01*
X183109516Y-113980277D01*
X183023775Y-113965490D01*
X182948564Y-113940155D01*
X182840319Y-113907137D01*
X182748563Y-113900083D01*
X182657124Y-113918021D01*
X182645033Y-113921932D01*
X182547437Y-113969604D01*
X182475512Y-114040768D01*
X182427258Y-114139277D01*
X182400677Y-114268985D01*
X182393631Y-114406640D01*
X182401701Y-114557483D01*
X182428192Y-114675124D01*
X182475357Y-114765484D01*
X182545449Y-114834485D01*
X182560338Y-114844870D01*
X182647126Y-114880984D01*
X182753909Y-114894059D01*
X182865031Y-114883884D01*
X182964667Y-114850333D01*
X183025943Y-114823838D01*
X183078201Y-114809088D01*
X183089827Y-114808000D01*
X183172805Y-114827228D01*
X183242846Y-114878082D01*
X183289608Y-114950313D01*
X183303333Y-115019577D01*
X183303333Y-115019577D01*
G36*
X186904202Y-112944612D02*
X186897348Y-113828681D01*
X186895615Y-114045448D01*
X186893932Y-114224221D01*
X186892053Y-114369336D01*
X186889737Y-114485131D01*
X186886738Y-114575943D01*
X186882813Y-114646110D01*
X186877717Y-114699970D01*
X186871208Y-114741859D01*
X186863040Y-114776115D01*
X186852971Y-114807076D01*
X186840755Y-114839078D01*
X186840491Y-114839750D01*
X186779806Y-114969755D01*
X186709618Y-115068882D01*
X186621422Y-115148575D01*
X186599407Y-115164193D01*
X186499500Y-115215286D01*
X186499500Y-114369381D01*
X186499500Y-114084099D01*
X186429430Y-114014029D01*
X186359803Y-113961069D01*
X186279789Y-113922934D01*
X186267309Y-113919173D01*
X186147397Y-113904800D01*
X186042683Y-113928237D01*
X185955546Y-113986944D01*
X185888364Y-114078385D01*
X185843515Y-114200023D01*
X185823378Y-114349321D01*
X185822485Y-114393728D01*
X185836460Y-114551548D01*
X185876035Y-114684353D01*
X185938771Y-114789069D01*
X186022226Y-114862619D01*
X186123961Y-114901929D01*
X186228634Y-114905546D01*
X186301690Y-114886423D01*
X186370039Y-114852065D01*
X186371962Y-114850716D01*
X186419188Y-114810045D01*
X186453565Y-114760676D01*
X186476936Y-114695657D01*
X186491142Y-114608034D01*
X186498026Y-114490855D01*
X186499500Y-114369381D01*
X186499500Y-115215286D01*
X186451508Y-115239830D01*
X186284386Y-115278520D01*
X186100308Y-115279788D01*
X186065583Y-115276009D01*
X185954277Y-115248307D01*
X185833720Y-115196230D01*
X185721307Y-115128297D01*
X185656590Y-115075694D01*
X185613144Y-115024000D01*
X185562751Y-114948406D01*
X185515248Y-114863878D01*
X185508480Y-114850333D01*
X185430696Y-114691583D01*
X185431186Y-114405833D01*
X185432334Y-114282913D01*
X185436089Y-114192189D01*
X185443647Y-114123548D01*
X185456202Y-114066875D01*
X185474951Y-114012057D01*
X185478923Y-114001987D01*
X185561735Y-113848097D01*
X185673011Y-113721455D01*
X185807065Y-113624562D01*
X185958212Y-113559923D01*
X186120767Y-113530040D01*
X186289047Y-113537417D01*
X186441292Y-113578211D01*
X186499500Y-113600452D01*
X186499500Y-113274516D01*
X186499746Y-113150257D01*
X186501185Y-113060817D01*
X186504870Y-112998685D01*
X186511854Y-112956347D01*
X186523189Y-112926291D01*
X186539929Y-112901004D01*
X186554298Y-112883457D01*
X186623150Y-112829977D01*
X186702088Y-112814720D01*
X186782883Y-112837743D01*
X186841062Y-112881472D01*
X186904202Y-112944612D01*
X186904202Y-112944612D01*
X186904202Y-112944612D01*
G37*
X186904202Y-112944612D02*
X186897348Y-113828681D01*
X186895615Y-114045448D01*
X186893932Y-114224221D01*
X186892053Y-114369336D01*
X186889737Y-114485131D01*
X186886738Y-114575943D01*
X186882813Y-114646110D01*
X186877717Y-114699970D01*
X186871208Y-114741859D01*
X186863040Y-114776115D01*
X186852971Y-114807076D01*
X186840755Y-114839078D01*
X186840491Y-114839750D01*
X186779806Y-114969755D01*
X186709618Y-115068882D01*
X186621422Y-115148575D01*
X186599407Y-115164193D01*
X186499500Y-115215286D01*
X186499500Y-114369381D01*
X186499500Y-114084099D01*
X186429430Y-114014029D01*
X186359803Y-113961069D01*
X186279789Y-113922934D01*
X186267309Y-113919173D01*
X186147397Y-113904800D01*
X186042683Y-113928237D01*
X185955546Y-113986944D01*
X185888364Y-114078385D01*
X185843515Y-114200023D01*
X185823378Y-114349321D01*
X185822485Y-114393728D01*
X185836460Y-114551548D01*
X185876035Y-114684353D01*
X185938771Y-114789069D01*
X186022226Y-114862619D01*
X186123961Y-114901929D01*
X186228634Y-114905546D01*
X186301690Y-114886423D01*
X186370039Y-114852065D01*
X186371962Y-114850716D01*
X186419188Y-114810045D01*
X186453565Y-114760676D01*
X186476936Y-114695657D01*
X186491142Y-114608034D01*
X186498026Y-114490855D01*
X186499500Y-114369381D01*
X186499500Y-115215286D01*
X186451508Y-115239830D01*
X186284386Y-115278520D01*
X186100308Y-115279788D01*
X186065583Y-115276009D01*
X185954277Y-115248307D01*
X185833720Y-115196230D01*
X185721307Y-115128297D01*
X185656590Y-115075694D01*
X185613144Y-115024000D01*
X185562751Y-114948406D01*
X185515248Y-114863878D01*
X185508480Y-114850333D01*
X185430696Y-114691583D01*
X185431186Y-114405833D01*
X185432334Y-114282913D01*
X185436089Y-114192189D01*
X185443647Y-114123548D01*
X185456202Y-114066875D01*
X185474951Y-114012057D01*
X185478923Y-114001987D01*
X185561735Y-113848097D01*
X185673011Y-113721455D01*
X185807065Y-113624562D01*
X185958212Y-113559923D01*
X186120767Y-113530040D01*
X186289047Y-113537417D01*
X186441292Y-113578211D01*
X186499500Y-113600452D01*
X186499500Y-113274516D01*
X186499746Y-113150257D01*
X186501185Y-113060817D01*
X186504870Y-112998685D01*
X186511854Y-112956347D01*
X186523189Y-112926291D01*
X186539929Y-112901004D01*
X186554298Y-112883457D01*
X186623150Y-112829977D01*
X186702088Y-112814720D01*
X186782883Y-112837743D01*
X186841062Y-112881472D01*
X186904202Y-112944612D01*
X186904202Y-112944612D01*
G36*
X178985342Y-113747873D02*
X178985337Y-113987676D01*
X178985333Y-114047065D01*
X178985333Y-115129733D01*
X178913367Y-115201699D01*
X178841400Y-115273666D01*
X178752500Y-115273666D01*
X178752500Y-115040833D01*
X178752500Y-114018373D01*
X178752500Y-112995913D01*
X178313292Y-112561230D01*
X178190224Y-112439643D01*
X178067012Y-112318300D01*
X177949704Y-112203129D01*
X177844347Y-112100059D01*
X177756992Y-112015017D01*
X177694167Y-111954394D01*
X177514250Y-111782240D01*
X176768125Y-111781703D01*
X176022000Y-111781166D01*
X176022000Y-113411000D01*
X176022000Y-115040833D01*
X177387250Y-115040833D01*
X178752500Y-115040833D01*
X178752500Y-115273666D01*
X177389700Y-115273666D01*
X175938001Y-115273666D01*
X175868875Y-115211902D01*
X175799750Y-115150139D01*
X175799750Y-113447690D01*
X175799851Y-113131281D01*
X175800184Y-112854595D01*
X175800793Y-112615023D01*
X175801721Y-112409955D01*
X175803013Y-112236781D01*
X175804712Y-112092891D01*
X175806861Y-111975676D01*
X175809506Y-111882527D01*
X175812689Y-111810833D01*
X175816455Y-111757985D01*
X175820847Y-111721373D01*
X175825909Y-111698388D01*
X175829272Y-111690078D01*
X175847011Y-111659892D01*
X175867550Y-111635212D01*
X175895045Y-111615502D01*
X175933654Y-111600227D01*
X175987534Y-111588849D01*
X176060842Y-111580834D01*
X176157734Y-111575644D01*
X176282368Y-111572745D01*
X176438900Y-111571599D01*
X176631488Y-111571671D01*
X176744865Y-111572004D01*
X176921072Y-111572959D01*
X177085712Y-111574547D01*
X177233525Y-111576665D01*
X177359252Y-111579210D01*
X177457634Y-111582077D01*
X177523412Y-111585163D01*
X177549753Y-111587879D01*
X177566227Y-111592484D01*
X177583784Y-111600048D01*
X177605292Y-111613146D01*
X177633621Y-111634353D01*
X177671640Y-111666244D01*
X177722217Y-111711395D01*
X177788220Y-111772381D01*
X177872520Y-111851776D01*
X177977984Y-111952157D01*
X178107481Y-112076099D01*
X178263881Y-112226176D01*
X178308000Y-112268541D01*
X178429165Y-112384707D01*
X178543605Y-112494066D01*
X178646909Y-112592429D01*
X178734663Y-112675607D01*
X178802455Y-112739411D01*
X178845873Y-112779652D01*
X178855169Y-112787988D01*
X178883453Y-112812576D01*
X178907316Y-112835143D01*
X178927133Y-112859317D01*
X178943281Y-112888727D01*
X178956133Y-112927000D01*
X178966065Y-112977765D01*
X178973452Y-113044650D01*
X178978669Y-113131284D01*
X178982092Y-113241295D01*
X178984095Y-113378311D01*
X178985053Y-113545961D01*
X178985342Y-113747873D01*
X178985342Y-113747873D01*
X178985342Y-113747873D01*
G37*
X178985342Y-113747873D02*
X178985337Y-113987676D01*
X178985333Y-114047065D01*
X178985333Y-115129733D01*
X178913367Y-115201699D01*
X178841400Y-115273666D01*
X178752500Y-115273666D01*
X178752500Y-115040833D01*
X178752500Y-114018373D01*
X178752500Y-112995913D01*
X178313292Y-112561230D01*
X178190224Y-112439643D01*
X178067012Y-112318300D01*
X177949704Y-112203129D01*
X177844347Y-112100059D01*
X177756992Y-112015017D01*
X177694167Y-111954394D01*
X177514250Y-111782240D01*
X176768125Y-111781703D01*
X176022000Y-111781166D01*
X176022000Y-113411000D01*
X176022000Y-115040833D01*
X177387250Y-115040833D01*
X178752500Y-115040833D01*
X178752500Y-115273666D01*
X177389700Y-115273666D01*
X175938001Y-115273666D01*
X175868875Y-115211902D01*
X175799750Y-115150139D01*
X175799750Y-113447690D01*
X175799851Y-113131281D01*
X175800184Y-112854595D01*
X175800793Y-112615023D01*
X175801721Y-112409955D01*
X175803013Y-112236781D01*
X175804712Y-112092891D01*
X175806861Y-111975676D01*
X175809506Y-111882527D01*
X175812689Y-111810833D01*
X175816455Y-111757985D01*
X175820847Y-111721373D01*
X175825909Y-111698388D01*
X175829272Y-111690078D01*
X175847011Y-111659892D01*
X175867550Y-111635212D01*
X175895045Y-111615502D01*
X175933654Y-111600227D01*
X175987534Y-111588849D01*
X176060842Y-111580834D01*
X176157734Y-111575644D01*
X176282368Y-111572745D01*
X176438900Y-111571599D01*
X176631488Y-111571671D01*
X176744865Y-111572004D01*
X176921072Y-111572959D01*
X177085712Y-111574547D01*
X177233525Y-111576665D01*
X177359252Y-111579210D01*
X177457634Y-111582077D01*
X177523412Y-111585163D01*
X177549753Y-111587879D01*
X177566227Y-111592484D01*
X177583784Y-111600048D01*
X177605292Y-111613146D01*
X177633621Y-111634353D01*
X177671640Y-111666244D01*
X177722217Y-111711395D01*
X177788220Y-111772381D01*
X177872520Y-111851776D01*
X177977984Y-111952157D01*
X178107481Y-112076099D01*
X178263881Y-112226176D01*
X178308000Y-112268541D01*
X178429165Y-112384707D01*
X178543605Y-112494066D01*
X178646909Y-112592429D01*
X178734663Y-112675607D01*
X178802455Y-112739411D01*
X178845873Y-112779652D01*
X178855169Y-112787988D01*
X178883453Y-112812576D01*
X178907316Y-112835143D01*
X178927133Y-112859317D01*
X178943281Y-112888727D01*
X178956133Y-112927000D01*
X178966065Y-112977765D01*
X178973452Y-113044650D01*
X178978669Y-113131284D01*
X178982092Y-113241295D01*
X178984095Y-113378311D01*
X178985053Y-113545961D01*
X178985342Y-113747873D01*
X178985342Y-113747873D01*
G36*
X181617117Y-112943876D02*
X181617070Y-113029914D01*
X181587389Y-113109634D01*
X181535077Y-113166186D01*
X181456059Y-113195204D01*
X181368482Y-113192934D01*
X181290934Y-113160130D01*
X181285558Y-113156082D01*
X181232840Y-113091629D01*
X181213232Y-113015338D01*
X181223193Y-112936560D01*
X181259184Y-112864645D01*
X181317665Y-112808943D01*
X181395095Y-112778805D01*
X181429455Y-112776000D01*
X181490299Y-112793799D01*
X181551539Y-112838815D01*
X181599119Y-112898474D01*
X181617117Y-112943876D01*
X181617117Y-112943876D01*
X181617117Y-112943876D01*
G37*
X181617117Y-112943876D02*
X181617070Y-113029914D01*
X181587389Y-113109634D01*
X181535077Y-113166186D01*
X181456059Y-113195204D01*
X181368482Y-113192934D01*
X181290934Y-113160130D01*
X181285558Y-113156082D01*
X181232840Y-113091629D01*
X181213232Y-113015338D01*
X181223193Y-112936560D01*
X181259184Y-112864645D01*
X181317665Y-112808943D01*
X181395095Y-112778805D01*
X181429455Y-112776000D01*
X181490299Y-112793799D01*
X181551539Y-112838815D01*
X181599119Y-112898474D01*
X181617117Y-112943876D01*
X181617117Y-112943876D01*
G36*
X178985333Y-112049050D02*
X178985057Y-112186365D01*
X178983827Y-112287376D01*
X178981040Y-112358112D01*
X178976090Y-112404603D01*
X178968374Y-112432877D01*
X178957288Y-112448962D01*
X178944391Y-112457755D01*
X178910955Y-112472803D01*
X178878676Y-112478042D01*
X178843184Y-112470573D01*
X178800105Y-112447492D01*
X178745068Y-112405898D01*
X178673699Y-112342891D01*
X178581627Y-112255568D01*
X178464478Y-112141028D01*
X178459076Y-112135708D01*
X178358088Y-112036355D01*
X178266115Y-111946072D01*
X178187804Y-111869406D01*
X178127805Y-111810905D01*
X178090766Y-111775114D01*
X178081917Y-111766803D01*
X178057197Y-111721061D01*
X178055498Y-111662521D01*
X178075127Y-111610569D01*
X178097367Y-111590113D01*
X178138618Y-111580837D01*
X178220679Y-111574859D01*
X178342151Y-111572232D01*
X178501637Y-111573009D01*
X178533030Y-111573493D01*
X178671972Y-111576145D01*
X178774677Y-111579215D01*
X178847240Y-111583390D01*
X178895756Y-111589359D01*
X178926319Y-111597810D01*
X178945026Y-111609432D01*
X178955329Y-111621170D01*
X178966649Y-111646414D01*
X178974920Y-111690226D01*
X178980519Y-111758015D01*
X178983828Y-111855191D01*
X178985225Y-111987165D01*
X178985333Y-112049050D01*
X178985333Y-112049050D01*
X178985333Y-112049050D01*
G37*
X178985333Y-112049050D02*
X178985057Y-112186365D01*
X178983827Y-112287376D01*
X178981040Y-112358112D01*
X178976090Y-112404603D01*
X178968374Y-112432877D01*
X178957288Y-112448962D01*
X178944391Y-112457755D01*
X178910955Y-112472803D01*
X178878676Y-112478042D01*
X178843184Y-112470573D01*
X178800105Y-112447492D01*
X178745068Y-112405898D01*
X178673699Y-112342891D01*
X178581627Y-112255568D01*
X178464478Y-112141028D01*
X178459076Y-112135708D01*
X178358088Y-112036355D01*
X178266115Y-111946072D01*
X178187804Y-111869406D01*
X178127805Y-111810905D01*
X178090766Y-111775114D01*
X178081917Y-111766803D01*
X178057197Y-111721061D01*
X178055498Y-111662521D01*
X178075127Y-111610569D01*
X178097367Y-111590113D01*
X178138618Y-111580837D01*
X178220679Y-111574859D01*
X178342151Y-111572232D01*
X178501637Y-111573009D01*
X178533030Y-111573493D01*
X178671972Y-111576145D01*
X178774677Y-111579215D01*
X178847240Y-111583390D01*
X178895756Y-111589359D01*
X178926319Y-111597810D01*
X178945026Y-111609432D01*
X178955329Y-111621170D01*
X178966649Y-111646414D01*
X178974920Y-111690226D01*
X178980519Y-111758015D01*
X178983828Y-111855191D01*
X178985225Y-111987165D01*
X178985333Y-112049050D01*
X178985333Y-112049050D01*
G36*
X178604333Y-114194166D02*
X178602699Y-114208392D01*
X178594204Y-114219014D01*
X178573459Y-114226557D01*
X178535076Y-114231548D01*
X178473667Y-114234511D01*
X178383842Y-114235972D01*
X178260214Y-114236458D01*
X178170417Y-114236500D01*
X177736500Y-114236500D01*
X177736500Y-114490500D01*
X177736084Y-114597720D01*
X177734059Y-114669625D01*
X177729254Y-114713229D01*
X177720501Y-114735548D01*
X177706629Y-114743597D01*
X177694167Y-114744500D01*
X177677415Y-114742301D01*
X177665781Y-114731369D01*
X177658335Y-114705198D01*
X177654150Y-114657282D01*
X177652294Y-114581115D01*
X177651838Y-114470192D01*
X177651833Y-114448166D01*
X177651833Y-114151833D01*
X178128083Y-114151833D01*
X178281757Y-114151968D01*
X178398242Y-114152680D01*
X178482685Y-114154424D01*
X178540230Y-114157659D01*
X178576022Y-114162842D01*
X178595206Y-114170431D01*
X178602928Y-114180881D01*
X178604333Y-114194166D01*
X178604333Y-114194166D01*
X178604333Y-114194166D01*
G37*
X178604333Y-114194166D02*
X178602699Y-114208392D01*
X178594204Y-114219014D01*
X178573459Y-114226557D01*
X178535076Y-114231548D01*
X178473667Y-114234511D01*
X178383842Y-114235972D01*
X178260214Y-114236458D01*
X178170417Y-114236500D01*
X177736500Y-114236500D01*
X177736500Y-114490500D01*
X177736084Y-114597720D01*
X177734059Y-114669625D01*
X177729254Y-114713229D01*
X177720501Y-114735548D01*
X177706629Y-114743597D01*
X177694167Y-114744500D01*
X177677415Y-114742301D01*
X177665781Y-114731369D01*
X177658335Y-114705198D01*
X177654150Y-114657282D01*
X177652294Y-114581115D01*
X177651838Y-114470192D01*
X177651833Y-114448166D01*
X177651833Y-114151833D01*
X178128083Y-114151833D01*
X178281757Y-114151968D01*
X178398242Y-114152680D01*
X178482685Y-114154424D01*
X178540230Y-114157659D01*
X178576022Y-114162842D01*
X178595206Y-114170431D01*
X178602928Y-114180881D01*
X178604333Y-114194166D01*
X178604333Y-114194166D01*
G36*
X178625557Y-113444139D02*
X178513738Y-113554569D01*
X178454919Y-113611155D01*
X178412043Y-113644104D01*
X178409823Y-113644957D01*
X178409823Y-113452556D01*
X178402768Y-113419407D01*
X178400525Y-113415722D01*
X178383511Y-113399158D01*
X178352016Y-113387772D01*
X178298402Y-113380312D01*
X178215034Y-113375525D01*
X178141701Y-113373265D01*
X177905833Y-113367280D01*
X177905833Y-113442056D01*
X177905833Y-113516833D01*
X178122792Y-113516160D01*
X178236282Y-113513689D01*
X178314339Y-113506547D01*
X178363687Y-113493893D01*
X178381616Y-113483840D01*
X178409823Y-113452556D01*
X178409823Y-113644957D01*
X178371210Y-113659805D01*
X178318522Y-113664647D01*
X178273544Y-113665000D01*
X178190591Y-113663384D01*
X178085123Y-113659096D01*
X177976814Y-113652977D01*
X177951418Y-113651247D01*
X177757667Y-113637494D01*
X177757667Y-113576612D01*
X177757667Y-113515730D01*
X177434875Y-113521573D01*
X177112083Y-113527416D01*
X177111366Y-113596263D01*
X177104679Y-113638565D01*
X177081610Y-113682928D01*
X177036260Y-113738492D01*
X176985029Y-113792054D01*
X176859408Y-113919000D01*
X176983904Y-114044808D01*
X177042034Y-114105106D01*
X177080473Y-114153462D01*
X177103421Y-114201394D01*
X177115080Y-114260418D01*
X177119652Y-114342052D01*
X177120903Y-114420367D01*
X177122667Y-114572484D01*
X177191458Y-114579117D01*
X177239131Y-114588662D01*
X177257629Y-114613366D01*
X177260250Y-114649250D01*
X177260250Y-114712750D01*
X177064458Y-114718835D01*
X176868667Y-114724921D01*
X176868667Y-114650044D01*
X176872111Y-114599922D01*
X176889671Y-114579224D01*
X176932167Y-114575166D01*
X176995667Y-114575166D01*
X176995667Y-114409793D01*
X176994474Y-114324664D01*
X176988734Y-114269704D01*
X176975202Y-114232765D01*
X176950634Y-114201704D01*
X176936300Y-114187543D01*
X176887749Y-114144972D01*
X176860808Y-114135629D01*
X176849440Y-114160684D01*
X176847500Y-114204750D01*
X176843931Y-114254541D01*
X176826009Y-114274962D01*
X176784927Y-114278833D01*
X176722354Y-114278833D01*
X176716135Y-114125375D01*
X176709917Y-113971916D01*
X176461208Y-113965953D01*
X176212500Y-113959989D01*
X176212500Y-113897161D01*
X176212500Y-113834333D01*
X176466500Y-113834333D01*
X176720500Y-113834333D01*
X176720500Y-113686166D01*
X176720500Y-113538000D01*
X176784000Y-113538000D01*
X176824717Y-113541343D01*
X176842817Y-113559461D01*
X176847400Y-113604486D01*
X176847500Y-113622666D01*
X176851974Y-113683136D01*
X176868124Y-113703759D01*
X176900036Y-113686337D01*
X176928477Y-113658344D01*
X176950154Y-113630640D01*
X176963784Y-113596889D01*
X176971169Y-113547139D01*
X176974114Y-113471438D01*
X176974500Y-113404344D01*
X176974500Y-113199333D01*
X176911000Y-113199333D01*
X176847500Y-113199333D01*
X176847500Y-112860666D01*
X176847500Y-112522000D01*
X176908644Y-112522000D01*
X176950896Y-112516317D01*
X176972657Y-112491006D01*
X176983968Y-112446414D01*
X176989930Y-112390692D01*
X176993556Y-112307535D01*
X176994305Y-112211801D01*
X176993755Y-112176539D01*
X176989361Y-111982250D01*
X177056014Y-111975617D01*
X177122667Y-111968984D01*
X177122667Y-112245492D01*
X177122667Y-112522000D01*
X177186167Y-112522000D01*
X177249667Y-112522000D01*
X177249667Y-112859325D01*
X177249667Y-113196651D01*
X177180875Y-113203283D01*
X177137314Y-113210924D01*
X177122667Y-113224912D01*
X177122667Y-113072333D01*
X177122667Y-112860666D01*
X177122667Y-112649000D01*
X177059167Y-112649000D01*
X176995667Y-112649000D01*
X176995667Y-112860666D01*
X176995667Y-113072333D01*
X177059167Y-113072333D01*
X177122667Y-113072333D01*
X177122667Y-113224912D01*
X177116145Y-113231141D01*
X177107438Y-113276668D01*
X177105574Y-113299875D01*
X177099066Y-113389833D01*
X177428366Y-113389833D01*
X177757667Y-113389833D01*
X177757667Y-113305166D01*
X177757667Y-113220500D01*
X178081181Y-113220500D01*
X178404696Y-113220500D01*
X178515127Y-113332319D01*
X178625557Y-113444139D01*
X178625557Y-113444139D01*
X178625557Y-113444139D01*
G37*
X178625557Y-113444139D02*
X178513738Y-113554569D01*
X178454919Y-113611155D01*
X178412043Y-113644104D01*
X178409823Y-113644957D01*
X178409823Y-113452556D01*
X178402768Y-113419407D01*
X178400525Y-113415722D01*
X178383511Y-113399158D01*
X178352016Y-113387772D01*
X178298402Y-113380312D01*
X178215034Y-113375525D01*
X178141701Y-113373265D01*
X177905833Y-113367280D01*
X177905833Y-113442056D01*
X177905833Y-113516833D01*
X178122792Y-113516160D01*
X178236282Y-113513689D01*
X178314339Y-113506547D01*
X178363687Y-113493893D01*
X178381616Y-113483840D01*
X178409823Y-113452556D01*
X178409823Y-113644957D01*
X178371210Y-113659805D01*
X178318522Y-113664647D01*
X178273544Y-113665000D01*
X178190591Y-113663384D01*
X178085123Y-113659096D01*
X177976814Y-113652977D01*
X177951418Y-113651247D01*
X177757667Y-113637494D01*
X177757667Y-113576612D01*
X177757667Y-113515730D01*
X177434875Y-113521573D01*
X177112083Y-113527416D01*
X177111366Y-113596263D01*
X177104679Y-113638565D01*
X177081610Y-113682928D01*
X177036260Y-113738492D01*
X176985029Y-113792054D01*
X176859408Y-113919000D01*
X176983904Y-114044808D01*
X177042034Y-114105106D01*
X177080473Y-114153462D01*
X177103421Y-114201394D01*
X177115080Y-114260418D01*
X177119652Y-114342052D01*
X177120903Y-114420367D01*
X177122667Y-114572484D01*
X177191458Y-114579117D01*
X177239131Y-114588662D01*
X177257629Y-114613366D01*
X177260250Y-114649250D01*
X177260250Y-114712750D01*
X177064458Y-114718835D01*
X176868667Y-114724921D01*
X176868667Y-114650044D01*
X176872111Y-114599922D01*
X176889671Y-114579224D01*
X176932167Y-114575166D01*
X176995667Y-114575166D01*
X176995667Y-114409793D01*
X176994474Y-114324664D01*
X176988734Y-114269704D01*
X176975202Y-114232765D01*
X176950634Y-114201704D01*
X176936300Y-114187543D01*
X176887749Y-114144972D01*
X176860808Y-114135629D01*
X176849440Y-114160684D01*
X176847500Y-114204750D01*
X176843931Y-114254541D01*
X176826009Y-114274962D01*
X176784927Y-114278833D01*
X176722354Y-114278833D01*
X176716135Y-114125375D01*
X176709917Y-113971916D01*
X176461208Y-113965953D01*
X176212500Y-113959989D01*
X176212500Y-113897161D01*
X176212500Y-113834333D01*
X176466500Y-113834333D01*
X176720500Y-113834333D01*
X176720500Y-113686166D01*
X176720500Y-113538000D01*
X176784000Y-113538000D01*
X176824717Y-113541343D01*
X176842817Y-113559461D01*
X176847400Y-113604486D01*
X176847500Y-113622666D01*
X176851974Y-113683136D01*
X176868124Y-113703759D01*
X176900036Y-113686337D01*
X176928477Y-113658344D01*
X176950154Y-113630640D01*
X176963784Y-113596889D01*
X176971169Y-113547139D01*
X176974114Y-113471438D01*
X176974500Y-113404344D01*
X176974500Y-113199333D01*
X176911000Y-113199333D01*
X176847500Y-113199333D01*
X176847500Y-112860666D01*
X176847500Y-112522000D01*
X176908644Y-112522000D01*
X176950896Y-112516317D01*
X176972657Y-112491006D01*
X176983968Y-112446414D01*
X176989930Y-112390692D01*
X176993556Y-112307535D01*
X176994305Y-112211801D01*
X176993755Y-112176539D01*
X176989361Y-111982250D01*
X177056014Y-111975617D01*
X177122667Y-111968984D01*
X177122667Y-112245492D01*
X177122667Y-112522000D01*
X177186167Y-112522000D01*
X177249667Y-112522000D01*
X177249667Y-112859325D01*
X177249667Y-113196651D01*
X177180875Y-113203283D01*
X177137314Y-113210924D01*
X177122667Y-113224912D01*
X177122667Y-113072333D01*
X177122667Y-112860666D01*
X177122667Y-112649000D01*
X177059167Y-112649000D01*
X176995667Y-112649000D01*
X176995667Y-112860666D01*
X176995667Y-113072333D01*
X177059167Y-113072333D01*
X177122667Y-113072333D01*
X177122667Y-113224912D01*
X177116145Y-113231141D01*
X177107438Y-113276668D01*
X177105574Y-113299875D01*
X177099066Y-113389833D01*
X177428366Y-113389833D01*
X177757667Y-113389833D01*
X177757667Y-113305166D01*
X177757667Y-113220500D01*
X178081181Y-113220500D01*
X178404696Y-113220500D01*
X178515127Y-113332319D01*
X178625557Y-113444139D01*
X178625557Y-113444139D01*
G36*
X178583167Y-114723333D02*
X178456167Y-114723333D01*
X178329167Y-114723333D01*
X178329167Y-114649250D01*
X178329167Y-114575166D01*
X178456167Y-114575166D01*
X178583167Y-114575166D01*
X178583167Y-114649250D01*
X178583167Y-114723333D01*
X178583167Y-114723333D01*
X178583167Y-114723333D01*
G37*
X178583167Y-114723333D02*
X178456167Y-114723333D01*
X178329167Y-114723333D01*
X178329167Y-114649250D01*
X178329167Y-114575166D01*
X178456167Y-114575166D01*
X178583167Y-114575166D01*
X178583167Y-114649250D01*
X178583167Y-114723333D01*
X178583167Y-114723333D01*
G36*
X178054000Y-114649250D02*
X178051587Y-114677695D01*
X178037974Y-114693539D01*
X178003595Y-114700460D01*
X177938887Y-114702136D01*
X177916417Y-114702166D01*
X177842458Y-114701238D01*
X177801263Y-114696002D01*
X177783270Y-114682780D01*
X177778913Y-114657892D01*
X177778833Y-114649250D01*
X177781246Y-114620804D01*
X177794859Y-114604960D01*
X177829238Y-114598039D01*
X177893946Y-114596363D01*
X177916417Y-114596333D01*
X177990375Y-114597261D01*
X178031570Y-114602497D01*
X178049563Y-114615719D01*
X178053920Y-114640607D01*
X178054000Y-114649250D01*
X178054000Y-114649250D01*
X178054000Y-114649250D01*
G37*
X178054000Y-114649250D02*
X178051587Y-114677695D01*
X178037974Y-114693539D01*
X178003595Y-114700460D01*
X177938887Y-114702136D01*
X177916417Y-114702166D01*
X177842458Y-114701238D01*
X177801263Y-114696002D01*
X177783270Y-114682780D01*
X177778913Y-114657892D01*
X177778833Y-114649250D01*
X177781246Y-114620804D01*
X177794859Y-114604960D01*
X177829238Y-114598039D01*
X177893946Y-114596363D01*
X177916417Y-114596333D01*
X177990375Y-114597261D01*
X178031570Y-114602497D01*
X178049563Y-114615719D01*
X178053920Y-114640607D01*
X178054000Y-114649250D01*
X178054000Y-114649250D01*
G36*
X178054000Y-114352916D02*
X178051311Y-114382243D01*
X178036617Y-114398077D01*
X177999977Y-114404559D01*
X177931451Y-114405832D01*
X177927000Y-114405833D01*
X177856615Y-114404712D01*
X177818614Y-114398590D01*
X177803057Y-114383323D01*
X177800003Y-114354771D01*
X177800000Y-114352916D01*
X177802689Y-114323589D01*
X177817383Y-114307755D01*
X177854023Y-114301273D01*
X177922548Y-114300001D01*
X177927000Y-114300000D01*
X177997385Y-114301120D01*
X178035386Y-114307242D01*
X178050943Y-114322509D01*
X178053997Y-114351061D01*
X178054000Y-114352916D01*
X178054000Y-114352916D01*
X178054000Y-114352916D01*
G37*
X178054000Y-114352916D02*
X178051311Y-114382243D01*
X178036617Y-114398077D01*
X177999977Y-114404559D01*
X177931451Y-114405832D01*
X177927000Y-114405833D01*
X177856615Y-114404712D01*
X177818614Y-114398590D01*
X177803057Y-114383323D01*
X177800003Y-114354771D01*
X177800000Y-114352916D01*
X177802689Y-114323589D01*
X177817383Y-114307755D01*
X177854023Y-114301273D01*
X177922548Y-114300001D01*
X177927000Y-114300000D01*
X177997385Y-114301120D01*
X178035386Y-114307242D01*
X178050943Y-114322509D01*
X178053997Y-114351061D01*
X178054000Y-114352916D01*
X178054000Y-114352916D01*
G36*
X178580609Y-114380684D02*
X178571411Y-114394676D01*
X178543942Y-114402192D01*
X178490393Y-114405242D01*
X178402955Y-114405832D01*
X178394139Y-114405833D01*
X178303543Y-114405438D01*
X178247165Y-114402738D01*
X178216889Y-114395462D01*
X178204599Y-114381337D01*
X178202180Y-114358092D01*
X178202167Y-114352092D01*
X178202167Y-114298351D01*
X178387375Y-114304467D01*
X178476448Y-114308141D01*
X178531728Y-114313570D01*
X178561749Y-114323143D01*
X178575047Y-114339250D01*
X178579347Y-114358208D01*
X178580609Y-114380684D01*
X178580609Y-114380684D01*
X178580609Y-114380684D01*
G37*
X178580609Y-114380684D02*
X178571411Y-114394676D01*
X178543942Y-114402192D01*
X178490393Y-114405242D01*
X178402955Y-114405832D01*
X178394139Y-114405833D01*
X178303543Y-114405438D01*
X178247165Y-114402738D01*
X178216889Y-114395462D01*
X178204599Y-114381337D01*
X178202180Y-114358092D01*
X178202167Y-114352092D01*
X178202167Y-114298351D01*
X178387375Y-114304467D01*
X178476448Y-114308141D01*
X178531728Y-114313570D01*
X178561749Y-114323143D01*
X178575047Y-114339250D01*
X178579347Y-114358208D01*
X178580609Y-114380684D01*
X178580609Y-114380684D01*
D12*
X164465000Y-92728143D02*
X164428714Y-92764429D01*
X164319857Y-92800714D01*
X164247286Y-92800714D01*
X164138429Y-92764429D01*
X164065857Y-92691857D01*
X164029572Y-92619286D01*
X163993286Y-92474143D01*
X163993286Y-92365286D01*
X164029572Y-92220143D01*
X164065857Y-92147571D01*
X164138429Y-92075000D01*
X164247286Y-92038714D01*
X164319857Y-92038714D01*
X164428714Y-92075000D01*
X164465000Y-92111286D01*
X165190714Y-92800714D02*
X164755286Y-92800714D01*
X164973000Y-92800714D02*
X164973000Y-92038714D01*
X164900429Y-92147571D01*
X164827857Y-92220143D01*
X164755286Y-92256429D01*
X170815000Y-93236143D02*
X170778714Y-93272429D01*
X170669857Y-93308714D01*
X170597286Y-93308714D01*
X170488429Y-93272429D01*
X170415857Y-93199857D01*
X170379572Y-93127286D01*
X170343286Y-92982143D01*
X170343286Y-92873286D01*
X170379572Y-92728143D01*
X170415857Y-92655571D01*
X170488429Y-92583000D01*
X170597286Y-92546714D01*
X170669857Y-92546714D01*
X170778714Y-92583000D01*
X170815000Y-92619286D01*
X171105286Y-92619286D02*
X171141572Y-92583000D01*
X171214143Y-92546714D01*
X171395572Y-92546714D01*
X171468143Y-92583000D01*
X171504429Y-92619286D01*
X171540714Y-92691857D01*
X171540714Y-92764429D01*
X171504429Y-92873286D01*
X171069000Y-93308714D01*
X171540714Y-93308714D01*
X175278143Y-80772000D02*
X175314429Y-80808286D01*
X175350714Y-80917143D01*
X175350714Y-80989714D01*
X175314429Y-81098571D01*
X175241857Y-81171143D01*
X175169286Y-81207428D01*
X175024143Y-81243714D01*
X174915286Y-81243714D01*
X174770143Y-81207428D01*
X174697571Y-81171143D01*
X174625000Y-81098571D01*
X174588714Y-80989714D01*
X174588714Y-80917143D01*
X174625000Y-80808286D01*
X174661286Y-80772000D01*
X174588714Y-80518000D02*
X174588714Y-80046286D01*
X174879000Y-80300286D01*
X174879000Y-80191428D01*
X174915286Y-80118857D01*
X174951571Y-80082571D01*
X175024143Y-80046286D01*
X175205571Y-80046286D01*
X175278143Y-80082571D01*
X175314429Y-80118857D01*
X175350714Y-80191428D01*
X175350714Y-80409143D01*
X175314429Y-80481714D01*
X175278143Y-80518000D01*
X178961143Y-85344000D02*
X178997429Y-85380286D01*
X179033714Y-85489143D01*
X179033714Y-85561714D01*
X178997429Y-85670571D01*
X178924857Y-85743143D01*
X178852286Y-85779428D01*
X178707143Y-85815714D01*
X178598286Y-85815714D01*
X178453143Y-85779428D01*
X178380571Y-85743143D01*
X178308000Y-85670571D01*
X178271714Y-85561714D01*
X178271714Y-85489143D01*
X178308000Y-85380286D01*
X178344286Y-85344000D01*
X178525714Y-84690857D02*
X179033714Y-84690857D01*
X178235429Y-84872286D02*
X178779714Y-85053714D01*
X178779714Y-84582000D01*
X169545000Y-106571143D02*
X169508714Y-106607429D01*
X169399857Y-106643714D01*
X169327286Y-106643714D01*
X169218429Y-106607429D01*
X169145857Y-106534857D01*
X169109572Y-106462286D01*
X169073286Y-106317143D01*
X169073286Y-106208286D01*
X169109572Y-106063143D01*
X169145857Y-105990571D01*
X169218429Y-105918000D01*
X169327286Y-105881714D01*
X169399857Y-105881714D01*
X169508714Y-105918000D01*
X169545000Y-105954286D01*
X170234429Y-105881714D02*
X169871572Y-105881714D01*
X169835286Y-106244571D01*
X169871572Y-106208286D01*
X169944143Y-106172000D01*
X170125572Y-106172000D01*
X170198143Y-106208286D01*
X170234429Y-106244571D01*
X170270714Y-106317143D01*
X170270714Y-106498571D01*
X170234429Y-106571143D01*
X170198143Y-106607429D01*
X170125572Y-106643714D01*
X169944143Y-106643714D01*
X169871572Y-106607429D01*
X169835286Y-106571143D01*
X186776143Y-90043000D02*
X186812429Y-90079286D01*
X186848714Y-90188143D01*
X186848714Y-90260714D01*
X186812429Y-90369571D01*
X186739857Y-90442143D01*
X186667286Y-90478428D01*
X186522143Y-90514714D01*
X186413286Y-90514714D01*
X186268143Y-90478428D01*
X186195571Y-90442143D01*
X186123000Y-90369571D01*
X186086714Y-90260714D01*
X186086714Y-90188143D01*
X186123000Y-90079286D01*
X186159286Y-90043000D01*
X186086714Y-89389857D02*
X186086714Y-89535000D01*
X186123000Y-89607571D01*
X186159286Y-89643857D01*
X186268143Y-89716428D01*
X186413286Y-89752714D01*
X186703571Y-89752714D01*
X186776143Y-89716428D01*
X186812429Y-89680143D01*
X186848714Y-89607571D01*
X186848714Y-89462428D01*
X186812429Y-89389857D01*
X186776143Y-89353571D01*
X186703571Y-89317286D01*
X186522143Y-89317286D01*
X186449571Y-89353571D01*
X186413286Y-89389857D01*
X186377000Y-89462428D01*
X186377000Y-89607571D01*
X186413286Y-89680143D01*
X186449571Y-89716428D01*
X186522143Y-89752714D01*
X153434143Y-96393000D02*
X153470429Y-96429286D01*
X153506714Y-96538143D01*
X153506714Y-96610714D01*
X153470429Y-96719571D01*
X153397857Y-96792143D01*
X153325286Y-96828428D01*
X153180143Y-96864714D01*
X153071286Y-96864714D01*
X152926143Y-96828428D01*
X152853571Y-96792143D01*
X152781000Y-96719571D01*
X152744714Y-96610714D01*
X152744714Y-96538143D01*
X152781000Y-96429286D01*
X152817286Y-96393000D01*
X152744714Y-96139000D02*
X152744714Y-95631000D01*
X153506714Y-95957571D01*
X156101143Y-96520000D02*
X156137429Y-96556286D01*
X156173714Y-96665143D01*
X156173714Y-96737714D01*
X156137429Y-96846571D01*
X156064857Y-96919143D01*
X155992286Y-96955428D01*
X155847143Y-96991714D01*
X155738286Y-96991714D01*
X155593143Y-96955428D01*
X155520571Y-96919143D01*
X155448000Y-96846571D01*
X155411714Y-96737714D01*
X155411714Y-96665143D01*
X155448000Y-96556286D01*
X155484286Y-96520000D01*
X155738286Y-96084571D02*
X155702000Y-96157143D01*
X155665714Y-96193428D01*
X155593143Y-96229714D01*
X155556857Y-96229714D01*
X155484286Y-96193428D01*
X155448000Y-96157143D01*
X155411714Y-96084571D01*
X155411714Y-95939428D01*
X155448000Y-95866857D01*
X155484286Y-95830571D01*
X155556857Y-95794286D01*
X155593143Y-95794286D01*
X155665714Y-95830571D01*
X155702000Y-95866857D01*
X155738286Y-95939428D01*
X155738286Y-96084571D01*
X155774571Y-96157143D01*
X155810857Y-96193428D01*
X155883429Y-96229714D01*
X156028571Y-96229714D01*
X156101143Y-96193428D01*
X156137429Y-96157143D01*
X156173714Y-96084571D01*
X156173714Y-95939428D01*
X156137429Y-95866857D01*
X156101143Y-95830571D01*
X156028571Y-95794286D01*
X155883429Y-95794286D01*
X155810857Y-95830571D01*
X155774571Y-95866857D01*
X155738286Y-95939428D01*
X169926000Y-99713143D02*
X169889714Y-99749429D01*
X169780857Y-99785714D01*
X169708286Y-99785714D01*
X169599429Y-99749429D01*
X169526857Y-99676857D01*
X169490572Y-99604286D01*
X169454286Y-99459143D01*
X169454286Y-99350286D01*
X169490572Y-99205143D01*
X169526857Y-99132571D01*
X169599429Y-99060000D01*
X169708286Y-99023714D01*
X169780857Y-99023714D01*
X169889714Y-99060000D01*
X169926000Y-99096286D01*
X170288857Y-99785714D02*
X170434000Y-99785714D01*
X170506572Y-99749429D01*
X170542857Y-99713143D01*
X170615429Y-99604286D01*
X170651714Y-99459143D01*
X170651714Y-99168857D01*
X170615429Y-99096286D01*
X170579143Y-99060000D01*
X170506572Y-99023714D01*
X170361429Y-99023714D01*
X170288857Y-99060000D01*
X170252572Y-99096286D01*
X170216286Y-99168857D01*
X170216286Y-99350286D01*
X170252572Y-99422857D01*
X170288857Y-99459143D01*
X170361429Y-99495429D01*
X170506572Y-99495429D01*
X170579143Y-99459143D01*
X170615429Y-99422857D01*
X170651714Y-99350286D01*
X176040143Y-93504143D02*
X176003857Y-93540429D01*
X175895000Y-93576714D01*
X175822429Y-93576714D01*
X175713572Y-93540429D01*
X175641000Y-93467857D01*
X175604715Y-93395286D01*
X175568429Y-93250143D01*
X175568429Y-93141286D01*
X175604715Y-92996143D01*
X175641000Y-92923571D01*
X175713572Y-92851000D01*
X175822429Y-92814714D01*
X175895000Y-92814714D01*
X176003857Y-92851000D01*
X176040143Y-92887286D01*
X176765857Y-93576714D02*
X176330429Y-93576714D01*
X176548143Y-93576714D02*
X176548143Y-92814714D01*
X176475572Y-92923571D01*
X176403000Y-92996143D01*
X176330429Y-93032429D01*
X177237571Y-92814714D02*
X177310143Y-92814714D01*
X177382714Y-92851000D01*
X177419000Y-92887286D01*
X177455286Y-92959857D01*
X177491571Y-93105000D01*
X177491571Y-93286429D01*
X177455286Y-93431571D01*
X177419000Y-93504143D01*
X177382714Y-93540429D01*
X177310143Y-93576714D01*
X177237571Y-93576714D01*
X177165000Y-93540429D01*
X177128714Y-93504143D01*
X177092429Y-93431571D01*
X177056143Y-93286429D01*
X177056143Y-93105000D01*
X177092429Y-92959857D01*
X177128714Y-92887286D01*
X177165000Y-92851000D01*
X177237571Y-92814714D01*
X154123572Y-102730714D02*
X154123572Y-101968714D01*
X154305000Y-101968714D01*
X154413857Y-102005000D01*
X154486429Y-102077571D01*
X154522714Y-102150143D01*
X154559000Y-102295286D01*
X154559000Y-102404143D01*
X154522714Y-102549286D01*
X154486429Y-102621857D01*
X154413857Y-102694429D01*
X154305000Y-102730714D01*
X154123572Y-102730714D01*
X155284714Y-102730714D02*
X154849286Y-102730714D01*
X155067000Y-102730714D02*
X155067000Y-101968714D01*
X154994429Y-102077571D01*
X154921857Y-102150143D01*
X154849286Y-102186429D01*
X155040053Y-86493446D02*
X154501238Y-85954631D01*
X154629527Y-85826342D01*
X154732158Y-85775026D01*
X154834790Y-85775026D01*
X154911763Y-85800685D01*
X155040053Y-85877658D01*
X155117026Y-85954632D01*
X155194000Y-86082921D01*
X155219658Y-86159894D01*
X155219658Y-86262526D01*
X155168342Y-86365157D01*
X155040053Y-86493446D01*
X155065711Y-85492790D02*
X155065711Y-85441474D01*
X155091368Y-85364500D01*
X155219658Y-85236210D01*
X155296632Y-85210553D01*
X155347948Y-85210553D01*
X155424921Y-85236211D01*
X155476237Y-85287527D01*
X155527553Y-85390158D01*
X155527552Y-86005947D01*
X155861104Y-85672395D01*
X150773368Y-80320345D02*
X150773368Y-80269029D01*
X150799026Y-80192054D01*
X150952974Y-80140740D01*
X150978632Y-80063765D01*
X150978632Y-80012449D01*
X150952973Y-84810473D02*
X150952973Y-84759157D01*
X150978631Y-84682182D01*
X151132579Y-84630868D01*
X151158237Y-84553893D01*
X151158237Y-84502577D01*
X145500676Y-82719355D02*
X145911201Y-82308829D01*
X156097379Y-82539750D02*
X156507904Y-82129224D01*
X156507904Y-82539750D02*
X156097378Y-82129224D01*
X189048572Y-104738714D02*
X189048572Y-103976714D01*
X189230000Y-103976714D01*
X189338857Y-104013000D01*
X189411429Y-104085571D01*
X189447714Y-104158143D01*
X189484000Y-104303286D01*
X189484000Y-104412143D01*
X189447714Y-104557286D01*
X189411429Y-104629857D01*
X189338857Y-104702429D01*
X189230000Y-104738714D01*
X189048572Y-104738714D01*
X189738000Y-103976714D02*
X190209714Y-103976714D01*
X189955714Y-104267000D01*
X190064572Y-104267000D01*
X190137143Y-104303286D01*
X190173429Y-104339571D01*
X190209714Y-104412143D01*
X190209714Y-104593571D01*
X190173429Y-104666143D01*
X190137143Y-104702429D01*
X190064572Y-104738714D01*
X189846857Y-104738714D01*
X189774286Y-104702429D01*
X189738000Y-104666143D01*
X158332714Y-94796428D02*
X157570714Y-94796428D01*
X157570714Y-94615000D01*
X157607000Y-94506143D01*
X157679571Y-94433571D01*
X157752143Y-94397286D01*
X157897286Y-94361000D01*
X158006143Y-94361000D01*
X158151286Y-94397286D01*
X158223857Y-94433571D01*
X158296429Y-94506143D01*
X158332714Y-94615000D01*
X158332714Y-94796428D01*
X157824714Y-93707857D02*
X158332714Y-93707857D01*
X157534429Y-93889286D02*
X158078714Y-94070714D01*
X158078714Y-93599000D01*
X189048572Y-101309714D02*
X189048572Y-100547714D01*
X189230000Y-100547714D01*
X189338857Y-100584000D01*
X189411429Y-100656571D01*
X189447714Y-100729143D01*
X189484000Y-100874286D01*
X189484000Y-100983143D01*
X189447714Y-101128286D01*
X189411429Y-101200857D01*
X189338857Y-101273429D01*
X189230000Y-101309714D01*
X189048572Y-101309714D01*
X190173429Y-100547714D02*
X189810572Y-100547714D01*
X189774286Y-100910571D01*
X189810572Y-100874286D01*
X189883143Y-100838000D01*
X190064572Y-100838000D01*
X190137143Y-100874286D01*
X190173429Y-100910571D01*
X190209714Y-100983143D01*
X190209714Y-101164571D01*
X190173429Y-101237143D01*
X190137143Y-101273429D01*
X190064572Y-101309714D01*
X189883143Y-101309714D01*
X189810572Y-101273429D01*
X189774286Y-101237143D01*
X149297572Y-96610714D02*
X149297572Y-95848714D01*
X149479000Y-95848714D01*
X149587857Y-95885000D01*
X149660429Y-95957571D01*
X149696714Y-96030143D01*
X149733000Y-96175286D01*
X149733000Y-96284143D01*
X149696714Y-96429286D01*
X149660429Y-96501857D01*
X149587857Y-96574429D01*
X149479000Y-96610714D01*
X149297572Y-96610714D01*
X150386143Y-95848714D02*
X150241000Y-95848714D01*
X150168429Y-95885000D01*
X150132143Y-95921286D01*
X150059572Y-96030143D01*
X150023286Y-96175286D01*
X150023286Y-96465571D01*
X150059572Y-96538143D01*
X150095857Y-96574429D01*
X150168429Y-96610714D01*
X150313572Y-96610714D01*
X150386143Y-96574429D01*
X150422429Y-96538143D01*
X150458714Y-96465571D01*
X150458714Y-96284143D01*
X150422429Y-96211571D01*
X150386143Y-96175286D01*
X150313572Y-96139000D01*
X150168429Y-96139000D01*
X150095857Y-96175286D01*
X150059572Y-96211571D01*
X150023286Y-96284143D01*
X141314714Y-107314999D02*
X140552714Y-107314999D01*
X141097000Y-107060999D01*
X140552714Y-106806999D01*
X141314714Y-106806999D01*
X140552714Y-106299000D02*
X140552714Y-106153857D01*
X140589000Y-106081285D01*
X140661571Y-106008714D01*
X140806714Y-105972428D01*
X141060714Y-105972428D01*
X141205857Y-106008714D01*
X141278429Y-106081285D01*
X141314714Y-106153857D01*
X141314714Y-106299000D01*
X141278429Y-106371571D01*
X141205857Y-106444142D01*
X141060714Y-106480428D01*
X140806714Y-106480428D01*
X140661571Y-106444142D01*
X140589000Y-106371571D01*
X140552714Y-106299000D01*
X141314714Y-105645856D02*
X140552714Y-105645856D01*
X140552714Y-105464428D01*
X140589000Y-105355571D01*
X140661571Y-105282999D01*
X140734143Y-105246714D01*
X140879286Y-105210428D01*
X140988143Y-105210428D01*
X141133286Y-105246714D01*
X141205857Y-105282999D01*
X141278429Y-105355571D01*
X141314714Y-105464428D01*
X141314714Y-105645856D01*
X141314714Y-104484714D02*
X141314714Y-104920142D01*
X141314714Y-104702428D02*
X140552714Y-104702428D01*
X140661571Y-104774999D01*
X140734143Y-104847571D01*
X140770429Y-104920142D01*
X141822714Y-78286428D02*
X141060714Y-78286428D01*
X141060714Y-77996143D01*
X141097000Y-77923571D01*
X141133286Y-77887286D01*
X141205857Y-77851000D01*
X141314714Y-77851000D01*
X141387286Y-77887286D01*
X141423571Y-77923571D01*
X141459857Y-77996143D01*
X141459857Y-78286428D01*
X141822714Y-77125286D02*
X141822714Y-77560714D01*
X141822714Y-77343000D02*
X141060714Y-77343000D01*
X141169571Y-77415571D01*
X141242143Y-77488143D01*
X141278429Y-77560714D01*
X141568714Y-90224428D02*
X140806714Y-90224428D01*
X140806714Y-89934143D01*
X140843000Y-89861571D01*
X140879286Y-89825286D01*
X140951857Y-89789000D01*
X141060714Y-89789000D01*
X141133286Y-89825286D01*
X141169571Y-89861571D01*
X141205857Y-89934143D01*
X141205857Y-90224428D01*
X140879286Y-89498714D02*
X140843000Y-89462428D01*
X140806714Y-89389857D01*
X140806714Y-89208428D01*
X140843000Y-89135857D01*
X140879286Y-89099571D01*
X140951857Y-89063286D01*
X141024429Y-89063286D01*
X141133286Y-89099571D01*
X141568714Y-89535000D01*
X141568714Y-89063286D01*
X154105429Y-100366286D02*
X154032857Y-100330000D01*
X153960286Y-100257429D01*
X153851429Y-100148571D01*
X153778857Y-100112286D01*
X153706286Y-100112286D01*
X153742571Y-100293714D02*
X153670000Y-100257429D01*
X153597429Y-100184857D01*
X153561143Y-100039714D01*
X153561143Y-99785714D01*
X153597429Y-99640571D01*
X153670000Y-99568000D01*
X153742571Y-99531714D01*
X153887714Y-99531714D01*
X153960286Y-99568000D01*
X154032857Y-99640571D01*
X154069143Y-99785714D01*
X154069143Y-100039714D01*
X154032857Y-100184857D01*
X153960286Y-100257429D01*
X153887714Y-100293714D01*
X153742571Y-100293714D01*
X154794857Y-100293714D02*
X154359429Y-100293714D01*
X154577143Y-100293714D02*
X154577143Y-99531714D01*
X154504572Y-99640571D01*
X154432000Y-99713143D01*
X154359429Y-99749429D01*
X186055000Y-110326714D02*
X185801000Y-109963857D01*
X185619572Y-110326714D02*
X185619572Y-109564714D01*
X185909857Y-109564714D01*
X185982429Y-109601000D01*
X186018714Y-109637286D01*
X186055000Y-109709857D01*
X186055000Y-109818714D01*
X186018714Y-109891286D01*
X185982429Y-109927571D01*
X185909857Y-109963857D01*
X185619572Y-109963857D01*
X186780714Y-110326714D02*
X186345286Y-110326714D01*
X186563000Y-110326714D02*
X186563000Y-109564714D01*
X186490429Y-109673571D01*
X186417857Y-109746143D01*
X186345286Y-109782429D01*
X169291000Y-104484714D02*
X169037000Y-104121857D01*
X168855572Y-104484714D02*
X168855572Y-103722714D01*
X169145857Y-103722714D01*
X169218429Y-103759000D01*
X169254714Y-103795286D01*
X169291000Y-103867857D01*
X169291000Y-103976714D01*
X169254714Y-104049286D01*
X169218429Y-104085571D01*
X169145857Y-104121857D01*
X168855572Y-104121857D01*
X169581286Y-103795286D02*
X169617572Y-103759000D01*
X169690143Y-103722714D01*
X169871572Y-103722714D01*
X169944143Y-103759000D01*
X169980429Y-103795286D01*
X170016714Y-103867857D01*
X170016714Y-103940429D01*
X169980429Y-104049286D01*
X169545000Y-104484714D01*
X170016714Y-104484714D01*
X181954714Y-85725000D02*
X181591857Y-85979000D01*
X181954714Y-86160428D02*
X181192714Y-86160428D01*
X181192714Y-85870143D01*
X181229000Y-85797571D01*
X181265286Y-85761286D01*
X181337857Y-85725000D01*
X181446714Y-85725000D01*
X181519286Y-85761286D01*
X181555571Y-85797571D01*
X181591857Y-85870143D01*
X181591857Y-86160428D01*
X181192714Y-85471000D02*
X181192714Y-84999286D01*
X181483000Y-85253286D01*
X181483000Y-85144428D01*
X181519286Y-85071857D01*
X181555571Y-85035571D01*
X181628143Y-84999286D01*
X181809571Y-84999286D01*
X181882143Y-85035571D01*
X181918429Y-85071857D01*
X181954714Y-85144428D01*
X181954714Y-85362143D01*
X181918429Y-85434714D01*
X181882143Y-85471000D01*
X162052000Y-102706714D02*
X161798000Y-102343857D01*
X161616572Y-102706714D02*
X161616572Y-101944714D01*
X161906857Y-101944714D01*
X161979429Y-101981000D01*
X162015714Y-102017286D01*
X162052000Y-102089857D01*
X162052000Y-102198714D01*
X162015714Y-102271286D01*
X161979429Y-102307571D01*
X161906857Y-102343857D01*
X161616572Y-102343857D01*
X162705143Y-102198714D02*
X162705143Y-102706714D01*
X162523714Y-101908429D02*
X162342286Y-102452714D01*
X162814000Y-102452714D01*
X187325000Y-97245714D02*
X187071000Y-96882857D01*
X186889572Y-97245714D02*
X186889572Y-96483714D01*
X187179857Y-96483714D01*
X187252429Y-96520000D01*
X187288714Y-96556286D01*
X187325000Y-96628857D01*
X187325000Y-96737714D01*
X187288714Y-96810286D01*
X187252429Y-96846571D01*
X187179857Y-96882857D01*
X186889572Y-96882857D01*
X188014429Y-96483714D02*
X187651572Y-96483714D01*
X187615286Y-96846571D01*
X187651572Y-96810286D01*
X187724143Y-96774000D01*
X187905572Y-96774000D01*
X187978143Y-96810286D01*
X188014429Y-96846571D01*
X188050714Y-96919143D01*
X188050714Y-97100571D01*
X188014429Y-97173143D01*
X187978143Y-97209429D01*
X187905572Y-97245714D01*
X187724143Y-97245714D01*
X187651572Y-97209429D01*
X187615286Y-97173143D01*
X149225000Y-87466714D02*
X148971000Y-87103857D01*
X148789572Y-87466714D02*
X148789572Y-86704714D01*
X149079857Y-86704714D01*
X149152429Y-86741000D01*
X149188714Y-86777286D01*
X149225000Y-86849857D01*
X149225000Y-86958714D01*
X149188714Y-87031286D01*
X149152429Y-87067571D01*
X149079857Y-87103857D01*
X148789572Y-87103857D01*
X149878143Y-86704714D02*
X149733000Y-86704714D01*
X149660429Y-86741000D01*
X149624143Y-86777286D01*
X149551572Y-86886143D01*
X149515286Y-87031286D01*
X149515286Y-87321571D01*
X149551572Y-87394143D01*
X149587857Y-87430429D01*
X149660429Y-87466714D01*
X149805572Y-87466714D01*
X149878143Y-87430429D01*
X149914429Y-87394143D01*
X149950714Y-87321571D01*
X149950714Y-87140143D01*
X149914429Y-87067571D01*
X149878143Y-87031286D01*
X149805572Y-86995000D01*
X149660429Y-86995000D01*
X149587857Y-87031286D01*
X149551572Y-87067571D01*
X149515286Y-87140143D01*
X160872714Y-93345000D02*
X160509857Y-93599000D01*
X160872714Y-93780428D02*
X160110714Y-93780428D01*
X160110714Y-93490143D01*
X160147000Y-93417571D01*
X160183286Y-93381286D01*
X160255857Y-93345000D01*
X160364714Y-93345000D01*
X160437286Y-93381286D01*
X160473571Y-93417571D01*
X160509857Y-93490143D01*
X160509857Y-93780428D01*
X160110714Y-93091000D02*
X160110714Y-92583000D01*
X160872714Y-92909571D01*
X149098000Y-92038714D02*
X148844000Y-91675857D01*
X148662572Y-92038714D02*
X148662572Y-91276714D01*
X148952857Y-91276714D01*
X149025429Y-91313000D01*
X149061714Y-91349286D01*
X149098000Y-91421857D01*
X149098000Y-91530714D01*
X149061714Y-91603286D01*
X149025429Y-91639571D01*
X148952857Y-91675857D01*
X148662572Y-91675857D01*
X149533429Y-91603286D02*
X149460857Y-91567000D01*
X149424572Y-91530714D01*
X149388286Y-91458143D01*
X149388286Y-91421857D01*
X149424572Y-91349286D01*
X149460857Y-91313000D01*
X149533429Y-91276714D01*
X149678572Y-91276714D01*
X149751143Y-91313000D01*
X149787429Y-91349286D01*
X149823714Y-91421857D01*
X149823714Y-91458143D01*
X149787429Y-91530714D01*
X149751143Y-91567000D01*
X149678572Y-91603286D01*
X149533429Y-91603286D01*
X149460857Y-91639571D01*
X149424572Y-91675857D01*
X149388286Y-91748429D01*
X149388286Y-91893571D01*
X149424572Y-91966143D01*
X149460857Y-92002429D01*
X149533429Y-92038714D01*
X149678572Y-92038714D01*
X149751143Y-92002429D01*
X149787429Y-91966143D01*
X149823714Y-91893571D01*
X149823714Y-91748429D01*
X149787429Y-91675857D01*
X149751143Y-91639571D01*
X149678572Y-91603286D01*
X145034000Y-97118714D02*
X144780000Y-96755857D01*
X144598572Y-97118714D02*
X144598572Y-96356714D01*
X144888857Y-96356714D01*
X144961429Y-96393000D01*
X144997714Y-96429286D01*
X145034000Y-96501857D01*
X145034000Y-96610714D01*
X144997714Y-96683286D01*
X144961429Y-96719571D01*
X144888857Y-96755857D01*
X144598572Y-96755857D01*
X145396857Y-97118714D02*
X145542000Y-97118714D01*
X145614572Y-97082429D01*
X145650857Y-97046143D01*
X145723429Y-96937286D01*
X145759714Y-96792143D01*
X145759714Y-96501857D01*
X145723429Y-96429286D01*
X145687143Y-96393000D01*
X145614572Y-96356714D01*
X145469429Y-96356714D01*
X145396857Y-96393000D01*
X145360572Y-96429286D01*
X145324286Y-96501857D01*
X145324286Y-96683286D01*
X145360572Y-96755857D01*
X145396857Y-96792143D01*
X145469429Y-96828429D01*
X145614572Y-96828429D01*
X145687143Y-96792143D01*
X145723429Y-96755857D01*
X145759714Y-96683286D01*
X171087143Y-95213714D02*
X170833143Y-94850857D01*
X170651715Y-95213714D02*
X170651715Y-94451714D01*
X170942000Y-94451714D01*
X171014572Y-94488000D01*
X171050857Y-94524286D01*
X171087143Y-94596857D01*
X171087143Y-94705714D01*
X171050857Y-94778286D01*
X171014572Y-94814571D01*
X170942000Y-94850857D01*
X170651715Y-94850857D01*
X171812857Y-95213714D02*
X171377429Y-95213714D01*
X171595143Y-95213714D02*
X171595143Y-94451714D01*
X171522572Y-94560571D01*
X171450000Y-94633143D01*
X171377429Y-94669429D01*
X172284571Y-94451714D02*
X172357143Y-94451714D01*
X172429714Y-94488000D01*
X172466000Y-94524286D01*
X172502286Y-94596857D01*
X172538571Y-94742000D01*
X172538571Y-94923429D01*
X172502286Y-95068571D01*
X172466000Y-95141143D01*
X172429714Y-95177429D01*
X172357143Y-95213714D01*
X172284571Y-95213714D01*
X172212000Y-95177429D01*
X172175714Y-95141143D01*
X172139429Y-95068571D01*
X172103143Y-94923429D01*
X172103143Y-94742000D01*
X172139429Y-94596857D01*
X172175714Y-94524286D01*
X172212000Y-94488000D01*
X172284571Y-94451714D01*
X165843857Y-110072714D02*
X165589857Y-109709857D01*
X165408429Y-110072714D02*
X165408429Y-109310714D01*
X165698714Y-109310714D01*
X165771286Y-109347000D01*
X165807571Y-109383286D01*
X165843857Y-109455857D01*
X165843857Y-109564714D01*
X165807571Y-109637286D01*
X165771286Y-109673571D01*
X165698714Y-109709857D01*
X165408429Y-109709857D01*
X166170429Y-109673571D02*
X166424429Y-109673571D01*
X166533286Y-110072714D02*
X166170429Y-110072714D01*
X166170429Y-109310714D01*
X166533286Y-109310714D01*
X167222715Y-110072714D02*
X166859858Y-110072714D01*
X166859858Y-109310714D01*
X167875857Y-110072714D02*
X167440429Y-110072714D01*
X167658143Y-110072714D02*
X167658143Y-109310714D01*
X167585572Y-109419571D01*
X167513000Y-109492143D01*
X167440429Y-109528429D01*
X146050001Y-104484714D02*
X146050001Y-104666143D01*
X145868572Y-104593571D02*
X146050001Y-104666143D01*
X146231429Y-104593571D01*
X145941144Y-104811286D02*
X146050001Y-104666143D01*
X146158858Y-104811286D01*
X153978429Y-75945999D02*
X154014714Y-75837142D01*
X154014714Y-75655713D01*
X153978429Y-75583142D01*
X153942143Y-75546856D01*
X153869571Y-75510571D01*
X153797000Y-75510571D01*
X153724429Y-75546856D01*
X153688143Y-75583142D01*
X153651857Y-75655713D01*
X153615571Y-75800856D01*
X153579286Y-75873428D01*
X153543000Y-75909713D01*
X153470429Y-75945999D01*
X153397857Y-75945999D01*
X153325286Y-75909713D01*
X153289000Y-75873428D01*
X153252714Y-75800856D01*
X153252714Y-75619428D01*
X153289000Y-75510571D01*
X153252714Y-75256571D02*
X154014714Y-75075142D01*
X153470429Y-74929999D01*
X154014714Y-74784857D01*
X153252714Y-74603428D01*
X154014714Y-73914000D02*
X154014714Y-74349428D01*
X154014714Y-74131714D02*
X153252714Y-74131714D01*
X153361571Y-74204285D01*
X153434143Y-74276857D01*
X153470429Y-74349428D01*
X186436001Y-80064429D02*
X186544858Y-80100714D01*
X186726287Y-80100714D01*
X186798858Y-80064429D01*
X186835144Y-80028143D01*
X186871429Y-79955571D01*
X186871429Y-79883000D01*
X186835144Y-79810429D01*
X186798858Y-79774143D01*
X186726287Y-79737857D01*
X186581144Y-79701571D01*
X186508572Y-79665286D01*
X186472287Y-79629000D01*
X186436001Y-79556429D01*
X186436001Y-79483857D01*
X186472287Y-79411286D01*
X186508572Y-79375000D01*
X186581144Y-79338714D01*
X186762572Y-79338714D01*
X186871429Y-79375000D01*
X187125429Y-79338714D02*
X187306858Y-80100714D01*
X187452001Y-79556429D01*
X187597143Y-80100714D01*
X187778572Y-79338714D01*
X188032572Y-79411286D02*
X188068858Y-79375000D01*
X188141429Y-79338714D01*
X188322858Y-79338714D01*
X188395429Y-79375000D01*
X188431715Y-79411286D01*
X188468000Y-79483857D01*
X188468000Y-79556429D01*
X188431715Y-79665286D01*
X187996286Y-80100714D01*
X188468000Y-80100714D01*
X175949429Y-78068714D02*
X175949429Y-78685571D01*
X175985714Y-78758143D01*
X176022000Y-78794429D01*
X176094571Y-78830714D01*
X176239714Y-78830714D01*
X176312286Y-78794429D01*
X176348571Y-78758143D01*
X176384857Y-78685571D01*
X176384857Y-78068714D01*
X177146857Y-78830714D02*
X176711429Y-78830714D01*
X176929143Y-78830714D02*
X176929143Y-78068714D01*
X176856572Y-78177571D01*
X176784000Y-78250143D01*
X176711429Y-78286429D01*
X175406714Y-98370571D02*
X176023571Y-98370571D01*
X176096143Y-98334286D01*
X176132429Y-98298000D01*
X176168714Y-98225429D01*
X176168714Y-98080286D01*
X176132429Y-98007714D01*
X176096143Y-97971429D01*
X176023571Y-97935143D01*
X175406714Y-97935143D01*
X175479286Y-97608571D02*
X175443000Y-97572285D01*
X175406714Y-97499714D01*
X175406714Y-97318285D01*
X175443000Y-97245714D01*
X175479286Y-97209428D01*
X175551857Y-97173143D01*
X175624429Y-97173143D01*
X175733286Y-97209428D01*
X176168714Y-97644857D01*
X176168714Y-97173143D01*
M02*
