G04 #@! TF.FileFunction,Paste,Top*
%FSLAX46Y46*%
G04 Gerber Fmt 4.6, Leading zero omitted, Abs format (unit mm)*
G04 Created by KiCad (PCBNEW 4.0.0-2.201512072331+6194~38~ubuntu14.04.1-stable) date Mon 13 Jun 2016 09:22:46 PM CEST*
%MOMM*%
G01*
G04 APERTURE LIST*
%ADD10C,0.100000*%
%ADD11R,1.550800X1.350800*%
%ADD12R,2.159000X2.159000*%
%ADD13R,1.350800X1.550800*%
%ADD14R,1.300800X1.550800*%
%ADD15R,0.650800X1.600800*%
%ADD16R,1.550800X1.300800*%
%ADD17R,2.050800X1.650800*%
%ADD18R,1.249680X1.249680*%
%ADD19R,0.750800X0.650800*%
%ADD20R,0.850900X0.850900*%
%ADD21R,3.550800X3.550800*%
G04 APERTURE END LIST*
D10*
D11*
X144065000Y-94742000D03*
X146765000Y-94742000D03*
D12*
X190969900Y-78625700D03*
X190969900Y-87744300D03*
X186474100Y-78625700D03*
X186474100Y-87744300D03*
D13*
X160528000Y-97997000D03*
X160528000Y-95297000D03*
D14*
X183007000Y-94254000D03*
X183007000Y-96754000D03*
X164465000Y-75458000D03*
X164465000Y-77958000D03*
D15*
X179705000Y-104681000D03*
X180975000Y-104681000D03*
X182245000Y-104681000D03*
X183515000Y-104681000D03*
X183515000Y-99281000D03*
X182245000Y-99281000D03*
X180975000Y-99281000D03*
X179705000Y-99281000D03*
D14*
X155448000Y-88372000D03*
X155448000Y-85872000D03*
D16*
X174478000Y-106426000D03*
X171978000Y-106426000D03*
D14*
X153162000Y-91841000D03*
X153162000Y-94341000D03*
X155829000Y-91841000D03*
X155829000Y-94341000D03*
D17*
X180181000Y-94361000D03*
X176181000Y-94361000D03*
D18*
X190212980Y-107188000D03*
X192311020Y-107188000D03*
D19*
X157988000Y-91375000D03*
X157988000Y-92775000D03*
D18*
X190212980Y-101092000D03*
X192311020Y-101092000D03*
D19*
X149225000Y-93280000D03*
X149225000Y-94680000D03*
D20*
X155717240Y-97856000D03*
X155717240Y-99756000D03*
X157716220Y-98806000D03*
D11*
X193577200Y-104343200D03*
X190877200Y-104343200D03*
X171624000Y-104140000D03*
X174324000Y-104140000D03*
X177720000Y-96774000D03*
X180420000Y-96774000D03*
X157273000Y-102108000D03*
X159973000Y-102108000D03*
X189658000Y-97155000D03*
X192358000Y-97155000D03*
X146765000Y-92202000D03*
X144065000Y-92202000D03*
D13*
X162941000Y-95297000D03*
X162941000Y-97997000D03*
D21*
X151739600Y-86106000D03*
X144932400Y-86106000D03*
D11*
X162975300Y-109766100D03*
X165675300Y-109766100D03*
D13*
X158457900Y-109820700D03*
X158457900Y-107120700D03*
X143903700Y-106930200D03*
X143903700Y-109630200D03*
X155452200Y-109429000D03*
X155452200Y-106979000D03*
X146452200Y-106979000D03*
X146452200Y-109429000D03*
M02*
