G04 #@! TF.FileFunction,Copper,L1,Top,Signal*
%FSLAX46Y46*%
G04 Gerber Fmt 4.6, Leading zero omitted, Abs format (unit mm)*
G04 Created by KiCad (PCBNEW 4.0.0-2.201512072331+6194~38~ubuntu14.04.1-stable) date Tue 07 Jun 2016 08:46:50 PM CEST*
%MOMM*%
G01*
G04 APERTURE LIST*
%ADD10C,0.100000*%
%ADD11C,3.048000*%
%ADD12R,1.300000X1.300000*%
%ADD13C,1.300000*%
%ADD14R,1.250000X1.500000*%
%ADD15R,1.500000X1.250000*%
%ADD16R,2.000000X1.600000*%
%ADD17R,0.600000X0.700000*%
%ADD18C,1.524000*%
%ADD19R,1.198880X1.198880*%
%ADD20R,0.700000X0.600000*%
%ADD21R,0.800100X0.800100*%
%ADD22R,1.500000X1.300000*%
%ADD23R,1.300000X1.500000*%
%ADD24R,2.032000X2.032000*%
%ADD25O,2.032000X2.032000*%
%ADD26R,2.108200X2.108200*%
%ADD27R,0.600000X1.550000*%
%ADD28R,3.500000X3.500000*%
%ADD29O,2.499360X1.501140*%
%ADD30R,2.235200X2.235200*%
%ADD31C,0.685800*%
%ADD32C,0.609600*%
%ADD33C,1.219200*%
%ADD34C,0.152400*%
G04 APERTURE END LIST*
D10*
D11*
X138049000Y-76113000D03*
X138049000Y-81113000D03*
D12*
X164211000Y-84582000D03*
D13*
X164211000Y-89582000D03*
D14*
X174371000Y-85237000D03*
X174371000Y-87737000D03*
X162407600Y-79024800D03*
X162407600Y-76524800D03*
D12*
X159308800Y-70866000D03*
D13*
X157308800Y-70866000D03*
D15*
X174478000Y-106426000D03*
X171978000Y-106426000D03*
D14*
X184404000Y-88666000D03*
X184404000Y-91166000D03*
X153162000Y-91841000D03*
X153162000Y-94341000D03*
X155829000Y-91841000D03*
X155829000Y-94341000D03*
D12*
X165989000Y-98171000D03*
D13*
X165989000Y-100171000D03*
D16*
X178530000Y-90932000D03*
X174530000Y-90932000D03*
D17*
X153986000Y-103886000D03*
X155386000Y-103886000D03*
D18*
X151093898Y-78232000D03*
X154686000Y-74639898D03*
X158278102Y-78232000D03*
X154686000Y-81824102D03*
D19*
X190212980Y-107188000D03*
X192311020Y-107188000D03*
D20*
X157988000Y-91375000D03*
X157988000Y-92775000D03*
D19*
X190212980Y-101092000D03*
X192311020Y-101092000D03*
D20*
X149225000Y-93280000D03*
X149225000Y-94680000D03*
D11*
X138049000Y-102910000D03*
X138049000Y-107910000D03*
D21*
X155717240Y-97856000D03*
X155717240Y-99756000D03*
X157716220Y-98806000D03*
D22*
X193577200Y-104343200D03*
X190877200Y-104343200D03*
X171624000Y-104140000D03*
X174324000Y-104140000D03*
D23*
X181610000Y-88312000D03*
X181610000Y-91012000D03*
D22*
X157273000Y-102108000D03*
X159973000Y-102108000D03*
X184324000Y-98552000D03*
X187024000Y-98552000D03*
D23*
X160528000Y-97997000D03*
X160528000Y-95297000D03*
D22*
X146765000Y-92202000D03*
X144065000Y-92202000D03*
X144065000Y-94742000D03*
X146765000Y-94742000D03*
X168609000Y-94615000D03*
X165909000Y-94615000D03*
D18*
X146685000Y-107823000D03*
X151765000Y-107823000D03*
X156845000Y-107823000D03*
X161925000Y-107823000D03*
D24*
X144526000Y-76860400D03*
D25*
X147066000Y-76860400D03*
D26*
X193001900Y-84340700D03*
X193001900Y-93459300D03*
X188506100Y-84340700D03*
X188506100Y-93459300D03*
D27*
X177419000Y-100490000D03*
X178689000Y-100490000D03*
X179959000Y-100490000D03*
X181229000Y-100490000D03*
X181229000Y-95090000D03*
X179959000Y-95090000D03*
X178689000Y-95090000D03*
X177419000Y-95090000D03*
D11*
X138049000Y-87035000D03*
X138049000Y-92035000D03*
X138049000Y-97035000D03*
D28*
X151739600Y-86106000D03*
X144932400Y-86106000D03*
D29*
X165354000Y-74803000D03*
X165354000Y-72263000D03*
X165354000Y-77343000D03*
D30*
X146812000Y-101981000D03*
X146507200Y-70053200D03*
X150164800Y-70053200D03*
X171958000Y-109728000D03*
X179832000Y-109728000D03*
X150876000Y-101981000D03*
X142595600Y-70053200D03*
D31*
X175641000Y-94996000D03*
X194411600Y-106934000D03*
X144018000Y-96520000D03*
X160655000Y-100330000D03*
X172466000Y-102108000D03*
X183134000Y-101600000D03*
X178816000Y-88138000D03*
D32*
X146507200Y-70053200D02*
X146507200Y-70561200D01*
X146507200Y-70561200D02*
X148437600Y-72491600D01*
X148437600Y-72491600D02*
X155702000Y-72491600D01*
X155702000Y-72491600D02*
X158278102Y-75067702D01*
X158278102Y-75067702D02*
X158278102Y-78232000D01*
D33*
X164211000Y-84582000D02*
X173716000Y-84582000D01*
X173716000Y-84582000D02*
X174371000Y-85237000D01*
X158278102Y-78232000D02*
X158278102Y-81443102D01*
X161417000Y-84582000D02*
X164211000Y-84582000D01*
X158278102Y-81443102D02*
X161417000Y-84582000D01*
X158278102Y-78232000D02*
X158278102Y-77433898D01*
X163449000Y-72263000D02*
X165354000Y-72263000D01*
X158278102Y-77433898D02*
X163449000Y-72263000D01*
D32*
X153986000Y-103886000D02*
X153986000Y-105602000D01*
X153986000Y-105602000D02*
X151765000Y-107823000D01*
X177419000Y-95090000D02*
X177325000Y-94996000D01*
X177325000Y-94996000D02*
X175641000Y-94996000D01*
X193577200Y-104343200D02*
X194411600Y-105177600D01*
X194411600Y-105177600D02*
X194411600Y-106934000D01*
D33*
X162407600Y-79024800D02*
X163672200Y-79024800D01*
X163672200Y-79024800D02*
X165354000Y-77343000D01*
D32*
X144065000Y-94742000D02*
X144065000Y-96473000D01*
X144065000Y-96473000D02*
X144018000Y-96520000D01*
X159973000Y-102108000D02*
X159973000Y-101012000D01*
X159973000Y-101012000D02*
X160655000Y-100330000D01*
X171978000Y-104494000D02*
X171624000Y-104140000D01*
X171624000Y-104140000D02*
X171624000Y-102950000D01*
X171624000Y-102950000D02*
X172466000Y-102108000D01*
X181229000Y-100490000D02*
X182024000Y-100490000D01*
X182024000Y-100490000D02*
X183134000Y-101600000D01*
X181610000Y-88312000D02*
X178990000Y-88312000D01*
X178990000Y-88312000D02*
X178816000Y-88138000D01*
X178689000Y-100490000D02*
X178689000Y-102489000D01*
X177038000Y-104140000D02*
X174324000Y-104140000D01*
X178689000Y-102489000D02*
X177038000Y-104140000D01*
X174324000Y-104140000D02*
X174324000Y-106272000D01*
X174324000Y-106272000D02*
X174478000Y-106426000D01*
X157716220Y-98806000D02*
X157273000Y-99249220D01*
X157273000Y-99249220D02*
X157273000Y-102108000D01*
X171978000Y-106426000D02*
X171978000Y-109708000D01*
X171978000Y-109708000D02*
X171958000Y-109728000D01*
X193001900Y-93459300D02*
X189687200Y-96774000D01*
X176149000Y-96774000D02*
X169164000Y-103759000D01*
X189687200Y-96774000D02*
X176149000Y-96774000D01*
X157273000Y-102108000D02*
X157273000Y-103425000D01*
X167894000Y-105029000D02*
X169164000Y-103759000D01*
X158877000Y-105029000D02*
X167894000Y-105029000D01*
X157273000Y-103425000D02*
X158877000Y-105029000D01*
X169164000Y-103759000D02*
X169164000Y-106426000D01*
X171978000Y-106426000D02*
X169164000Y-106426000D01*
X184404000Y-91166000D02*
X184404000Y-93726000D01*
X183040000Y-95090000D02*
X181229000Y-95090000D01*
X184404000Y-93726000D02*
X183040000Y-95090000D01*
D33*
X151739600Y-86106000D02*
X153162000Y-87528400D01*
X153162000Y-87528400D02*
X153162000Y-91841000D01*
D32*
X155829000Y-91841000D02*
X157522000Y-91841000D01*
X157522000Y-91841000D02*
X157988000Y-91375000D01*
X153162000Y-91841000D02*
X155829000Y-91841000D01*
X155717240Y-97856000D02*
X155890000Y-97856000D01*
X155890000Y-97856000D02*
X156210000Y-97536000D01*
X156210000Y-97536000D02*
X160067000Y-97536000D01*
X160067000Y-97536000D02*
X160528000Y-97997000D01*
X150876000Y-101981000D02*
X150876000Y-101092000D01*
X150876000Y-101092000D02*
X154112000Y-97856000D01*
X154112000Y-97856000D02*
X155717240Y-97856000D01*
X165989000Y-98171000D02*
X160702000Y-98171000D01*
X160702000Y-98171000D02*
X160528000Y-97997000D01*
X165909000Y-94615000D02*
X165909000Y-98091000D01*
X165909000Y-98091000D02*
X165989000Y-98171000D01*
X160463240Y-97932240D02*
X160528000Y-97997000D01*
X178530000Y-90932000D02*
X181530000Y-90932000D01*
X181530000Y-90932000D02*
X181610000Y-91012000D01*
X179959000Y-95090000D02*
X179959000Y-93853000D01*
X181610000Y-92202000D02*
X181610000Y-91012000D01*
X179959000Y-93853000D02*
X181610000Y-92202000D01*
X178689000Y-95090000D02*
X178530000Y-94931000D01*
X178530000Y-94931000D02*
X178530000Y-90932000D01*
X178689000Y-95090000D02*
X179959000Y-95090000D01*
X179832000Y-109728000D02*
X179832000Y-111887000D01*
X161671000Y-112649000D02*
X156845000Y-107823000D01*
X179070000Y-112649000D02*
X161671000Y-112649000D01*
X179832000Y-111887000D02*
X179070000Y-112649000D01*
X179959000Y-100490000D02*
X179832000Y-100617000D01*
X179832000Y-100617000D02*
X179832000Y-109728000D01*
X179959000Y-100490000D02*
X179959000Y-99187000D01*
X180594000Y-98552000D02*
X184324000Y-98552000D01*
X179959000Y-99187000D02*
X180594000Y-98552000D01*
X155386000Y-103886000D02*
X155386000Y-106364000D01*
X155386000Y-106364000D02*
X156845000Y-107823000D01*
D33*
X138049000Y-81113000D02*
X138760102Y-81824102D01*
X138760102Y-81824102D02*
X154686000Y-81824102D01*
D32*
X190877200Y-104343200D02*
X190212980Y-105007420D01*
X190212980Y-105007420D02*
X190212980Y-107188000D01*
X157988000Y-92775000D02*
X157988000Y-94234000D01*
X159051000Y-95297000D02*
X160528000Y-95297000D01*
X157988000Y-94234000D02*
X159051000Y-95297000D01*
X187024000Y-98552000D02*
X189564000Y-101092000D01*
X189564000Y-101092000D02*
X190212980Y-101092000D01*
X146765000Y-94742000D02*
X149163000Y-94742000D01*
X149163000Y-94742000D02*
X149225000Y-94680000D01*
X146765000Y-92202000D02*
X146765000Y-94742000D01*
X146812000Y-101981000D02*
X145883000Y-102910000D01*
X145883000Y-102910000D02*
X138049000Y-102910000D01*
X146685000Y-107823000D02*
X141772000Y-102910000D01*
X141772000Y-102910000D02*
X138049000Y-102910000D01*
D33*
X138049000Y-87035000D02*
X138978000Y-86106000D01*
X138978000Y-86106000D02*
X144932400Y-86106000D01*
D32*
X138049000Y-92035000D02*
X143898000Y-92035000D01*
X143898000Y-92035000D02*
X144065000Y-92202000D01*
D33*
X143898000Y-92035000D02*
X144065000Y-92202000D01*
D32*
X143724000Y-92035000D02*
X143811000Y-91948000D01*
D33*
X138049000Y-76113000D02*
X138796400Y-76860400D01*
X138796400Y-76860400D02*
X144526000Y-76860400D01*
X147066000Y-76860400D02*
X149286502Y-74639898D01*
X149286502Y-74639898D02*
X154686000Y-74639898D01*
D34*
G36*
X195657400Y-116155400D02*
X130478600Y-116155400D01*
X130478600Y-113392135D01*
X131775084Y-113392135D01*
X132052885Y-114064465D01*
X132566829Y-114579307D01*
X133238673Y-114858282D01*
X133966135Y-114858916D01*
X134638465Y-114581115D01*
X135153307Y-114067171D01*
X135432282Y-113395327D01*
X135432284Y-113392135D01*
X190703084Y-113392135D01*
X190980885Y-114064465D01*
X191494829Y-114579307D01*
X192166673Y-114858282D01*
X192894135Y-114858916D01*
X193566465Y-114581115D01*
X194081307Y-114067171D01*
X194360282Y-113395327D01*
X194360916Y-112667865D01*
X194083115Y-111995535D01*
X193569171Y-111480693D01*
X192897327Y-111201718D01*
X192169865Y-111201084D01*
X191497535Y-111478885D01*
X190982693Y-111992829D01*
X190703718Y-112664673D01*
X190703084Y-113392135D01*
X135432284Y-113392135D01*
X135432916Y-112667865D01*
X135155115Y-111995535D01*
X134641171Y-111480693D01*
X133969327Y-111201718D01*
X133241865Y-111201084D01*
X132569535Y-111478885D01*
X132054693Y-111992829D01*
X131775718Y-112664673D01*
X131775084Y-113392135D01*
X130478600Y-113392135D01*
X130478600Y-109446788D01*
X136763659Y-109446788D01*
X136933727Y-109747533D01*
X137721816Y-110034456D01*
X138559715Y-109997949D01*
X139164273Y-109747533D01*
X139334341Y-109446788D01*
X138049000Y-108161447D01*
X136763659Y-109446788D01*
X130478600Y-109446788D01*
X130478600Y-107582816D01*
X135924544Y-107582816D01*
X135961051Y-108420715D01*
X136211467Y-109025273D01*
X136512212Y-109195341D01*
X137797553Y-107910000D01*
X138300447Y-107910000D01*
X139585788Y-109195341D01*
X139886533Y-109025273D01*
X140173456Y-108237184D01*
X140136949Y-107399285D01*
X139886533Y-106794727D01*
X139585788Y-106624659D01*
X138300447Y-107910000D01*
X137797553Y-107910000D01*
X136512212Y-106624659D01*
X136211467Y-106794727D01*
X135924544Y-107582816D01*
X130478600Y-107582816D01*
X130478600Y-106373212D01*
X136763659Y-106373212D01*
X138049000Y-107658553D01*
X139334341Y-106373212D01*
X139164273Y-106072467D01*
X138376184Y-105785544D01*
X137538285Y-105822051D01*
X136933727Y-106072467D01*
X136763659Y-106373212D01*
X130478600Y-106373212D01*
X130478600Y-103257084D01*
X136296097Y-103257084D01*
X136562352Y-103901471D01*
X137054936Y-104394915D01*
X137698857Y-104662295D01*
X138396084Y-104662903D01*
X139040471Y-104396648D01*
X139533915Y-103904064D01*
X139725200Y-103443400D01*
X141551058Y-103443400D01*
X145705774Y-107598116D01*
X145694572Y-107625093D01*
X145694228Y-108019178D01*
X145844721Y-108383397D01*
X146123138Y-108662300D01*
X146487093Y-108813428D01*
X146881178Y-108813772D01*
X146897940Y-108806846D01*
X151032601Y-108806846D01*
X151108862Y-109028588D01*
X151620166Y-109187911D01*
X152153520Y-109139439D01*
X152421138Y-109028588D01*
X152497399Y-108806846D01*
X151765000Y-108074447D01*
X151032601Y-108806846D01*
X146897940Y-108806846D01*
X147245397Y-108663279D01*
X147524300Y-108384862D01*
X147675428Y-108020907D01*
X147675727Y-107678166D01*
X150400089Y-107678166D01*
X150448561Y-108211520D01*
X150559412Y-108479138D01*
X150781154Y-108555399D01*
X151513553Y-107823000D01*
X152016447Y-107823000D01*
X152748846Y-108555399D01*
X152970588Y-108479138D01*
X153129911Y-107967834D01*
X153081439Y-107434480D01*
X152970588Y-107166862D01*
X152748846Y-107090601D01*
X152016447Y-107823000D01*
X151513553Y-107823000D01*
X150781154Y-107090601D01*
X150559412Y-107166862D01*
X150400089Y-107678166D01*
X147675727Y-107678166D01*
X147675772Y-107626822D01*
X147525279Y-107262603D01*
X147246862Y-106983700D01*
X146898759Y-106839154D01*
X151032601Y-106839154D01*
X151765000Y-107571553D01*
X152497399Y-106839154D01*
X152421138Y-106617412D01*
X151909834Y-106458089D01*
X151376480Y-106506561D01*
X151108862Y-106617412D01*
X151032601Y-106839154D01*
X146898759Y-106839154D01*
X146882907Y-106832572D01*
X146488822Y-106832228D01*
X146460339Y-106843997D01*
X143823392Y-104207050D01*
X153101800Y-104207050D01*
X153101800Y-104352204D01*
X153190739Y-104566922D01*
X153355077Y-104731261D01*
X153569795Y-104820200D01*
X153689950Y-104820200D01*
X153836000Y-104674150D01*
X153836000Y-104061000D01*
X153247850Y-104061000D01*
X153101800Y-104207050D01*
X143823392Y-104207050D01*
X143059742Y-103443400D01*
X145883000Y-103443400D01*
X146001664Y-103419796D01*
X153101800Y-103419796D01*
X153101800Y-103564950D01*
X153247850Y-103711000D01*
X153836000Y-103711000D01*
X153836000Y-103097850D01*
X154136000Y-103097850D01*
X154136000Y-103711000D01*
X154183800Y-103711000D01*
X154183800Y-104061000D01*
X154136000Y-104061000D01*
X154136000Y-104674150D01*
X154282050Y-104820200D01*
X154402205Y-104820200D01*
X154616923Y-104731261D01*
X154781261Y-104566922D01*
X154852600Y-104394694D01*
X154852600Y-106364000D01*
X154893203Y-106568123D01*
X155008829Y-106741171D01*
X155865774Y-107598115D01*
X155854572Y-107625093D01*
X155854228Y-108019178D01*
X156004721Y-108383397D01*
X156283138Y-108662300D01*
X156647093Y-108813428D01*
X157041178Y-108813772D01*
X157069661Y-108802003D01*
X161293829Y-113026171D01*
X161466877Y-113141797D01*
X161671000Y-113182401D01*
X161671005Y-113182400D01*
X179070000Y-113182400D01*
X179274123Y-113141797D01*
X179447171Y-113026171D01*
X180209171Y-112264171D01*
X180324797Y-112091123D01*
X180365401Y-111887000D01*
X180365400Y-111886995D01*
X180365400Y-111078678D01*
X180949600Y-111078678D01*
X181034314Y-111062738D01*
X181112118Y-111012672D01*
X181164315Y-110936280D01*
X181182678Y-110845600D01*
X181182678Y-108610400D01*
X181166738Y-108525686D01*
X181116672Y-108447882D01*
X181040280Y-108395685D01*
X180949600Y-108377322D01*
X180365400Y-108377322D01*
X180365400Y-106588560D01*
X189380462Y-106588560D01*
X189380462Y-107787440D01*
X189396402Y-107872154D01*
X189446468Y-107949958D01*
X189522860Y-108002155D01*
X189613540Y-108020518D01*
X190812420Y-108020518D01*
X190897134Y-108004578D01*
X190974938Y-107954512D01*
X191027135Y-107878120D01*
X191045498Y-107787440D01*
X191045498Y-107511850D01*
X191127380Y-107511850D01*
X191127380Y-107903644D01*
X191216319Y-108118362D01*
X191380657Y-108282701D01*
X191595375Y-108371640D01*
X191987170Y-108371640D01*
X192133220Y-108225590D01*
X192133220Y-107365800D01*
X192488820Y-107365800D01*
X192488820Y-108225590D01*
X192634870Y-108371640D01*
X193026665Y-108371640D01*
X193241383Y-108282701D01*
X193405721Y-108118362D01*
X193494660Y-107903644D01*
X193494660Y-107511850D01*
X193348610Y-107365800D01*
X192488820Y-107365800D01*
X192133220Y-107365800D01*
X191273430Y-107365800D01*
X191127380Y-107511850D01*
X191045498Y-107511850D01*
X191045498Y-106588560D01*
X191029558Y-106503846D01*
X191009295Y-106472356D01*
X191127380Y-106472356D01*
X191127380Y-106864150D01*
X191273430Y-107010200D01*
X192133220Y-107010200D01*
X192133220Y-106150410D01*
X192488820Y-106150410D01*
X192488820Y-107010200D01*
X193348610Y-107010200D01*
X193494660Y-106864150D01*
X193494660Y-106472356D01*
X193405721Y-106257638D01*
X193241383Y-106093299D01*
X193026665Y-106004360D01*
X192634870Y-106004360D01*
X192488820Y-106150410D01*
X192133220Y-106150410D01*
X191987170Y-106004360D01*
X191595375Y-106004360D01*
X191380657Y-106093299D01*
X191216319Y-106257638D01*
X191127380Y-106472356D01*
X191009295Y-106472356D01*
X190979492Y-106426042D01*
X190903100Y-106373845D01*
X190812420Y-106355482D01*
X190746380Y-106355482D01*
X190746380Y-105228362D01*
X190748464Y-105226278D01*
X191627200Y-105226278D01*
X191711914Y-105210338D01*
X191789718Y-105160272D01*
X191841915Y-105083880D01*
X191860278Y-104993200D01*
X191860278Y-103693200D01*
X192594122Y-103693200D01*
X192594122Y-104993200D01*
X192610062Y-105077914D01*
X192660128Y-105155718D01*
X192736520Y-105207915D01*
X192827200Y-105226278D01*
X193705936Y-105226278D01*
X193878200Y-105398542D01*
X193878200Y-106728309D01*
X193840200Y-106819823D01*
X193840001Y-107047180D01*
X193926824Y-107257306D01*
X194087449Y-107418211D01*
X194297423Y-107505400D01*
X194524780Y-107505599D01*
X194734906Y-107418776D01*
X194895811Y-107258151D01*
X194983000Y-107048177D01*
X194983199Y-106820820D01*
X194945000Y-106728372D01*
X194945000Y-105177600D01*
X194904397Y-104973477D01*
X194788771Y-104800429D01*
X194560278Y-104571936D01*
X194560278Y-103693200D01*
X194544338Y-103608486D01*
X194494272Y-103530682D01*
X194417880Y-103478485D01*
X194327200Y-103460122D01*
X192827200Y-103460122D01*
X192742486Y-103476062D01*
X192664682Y-103526128D01*
X192612485Y-103602520D01*
X192594122Y-103693200D01*
X191860278Y-103693200D01*
X191844338Y-103608486D01*
X191794272Y-103530682D01*
X191717880Y-103478485D01*
X191627200Y-103460122D01*
X190127200Y-103460122D01*
X190042486Y-103476062D01*
X189964682Y-103526128D01*
X189912485Y-103602520D01*
X189894122Y-103693200D01*
X189894122Y-104571936D01*
X189835809Y-104630249D01*
X189720183Y-104803297D01*
X189679580Y-105007420D01*
X189679580Y-106355482D01*
X189613540Y-106355482D01*
X189528826Y-106371422D01*
X189451022Y-106421488D01*
X189398825Y-106497880D01*
X189380462Y-106588560D01*
X180365400Y-106588560D01*
X180365400Y-101468183D01*
X180421518Y-101432072D01*
X180473715Y-101355680D01*
X180492078Y-101265000D01*
X180492078Y-100491619D01*
X180492400Y-100490000D01*
X180695600Y-100490000D01*
X180695922Y-100491619D01*
X180695922Y-101265000D01*
X180711862Y-101349714D01*
X180761928Y-101427518D01*
X180838320Y-101479715D01*
X180929000Y-101498078D01*
X181529000Y-101498078D01*
X181613714Y-101482138D01*
X181691518Y-101432072D01*
X181743715Y-101355680D01*
X181762078Y-101265000D01*
X181762078Y-101023400D01*
X181803058Y-101023400D01*
X182611383Y-101831725D01*
X182649224Y-101923306D01*
X182809849Y-102084211D01*
X183019823Y-102171400D01*
X183247180Y-102171599D01*
X183457306Y-102084776D01*
X183618211Y-101924151D01*
X183705400Y-101714177D01*
X183705599Y-101486820D01*
X183618776Y-101276694D01*
X183458151Y-101115789D01*
X183365772Y-101077430D01*
X182401171Y-100112829D01*
X182228123Y-99997203D01*
X182024000Y-99956600D01*
X181762078Y-99956600D01*
X181762078Y-99715000D01*
X181746138Y-99630286D01*
X181696072Y-99552482D01*
X181619680Y-99500285D01*
X181529000Y-99481922D01*
X180929000Y-99481922D01*
X180844286Y-99497862D01*
X180766482Y-99547928D01*
X180714285Y-99624320D01*
X180695922Y-99715000D01*
X180695922Y-100488381D01*
X180695600Y-100490000D01*
X180492400Y-100490000D01*
X180492400Y-99407942D01*
X180814941Y-99085400D01*
X183340922Y-99085400D01*
X183340922Y-99202000D01*
X183356862Y-99286714D01*
X183406928Y-99364518D01*
X183483320Y-99416715D01*
X183574000Y-99435078D01*
X185074000Y-99435078D01*
X185158714Y-99419138D01*
X185236518Y-99369072D01*
X185288715Y-99292680D01*
X185307078Y-99202000D01*
X185307078Y-97902000D01*
X186040922Y-97902000D01*
X186040922Y-99202000D01*
X186056862Y-99286714D01*
X186106928Y-99364518D01*
X186183320Y-99416715D01*
X186274000Y-99435078D01*
X187152736Y-99435078D01*
X189186827Y-101469168D01*
X189186829Y-101469171D01*
X189290563Y-101538484D01*
X189359876Y-101584797D01*
X189380462Y-101588892D01*
X189380462Y-101691440D01*
X189396402Y-101776154D01*
X189446468Y-101853958D01*
X189522860Y-101906155D01*
X189613540Y-101924518D01*
X190812420Y-101924518D01*
X190897134Y-101908578D01*
X190974938Y-101858512D01*
X191027135Y-101782120D01*
X191045498Y-101691440D01*
X191045498Y-101415850D01*
X191127380Y-101415850D01*
X191127380Y-101807644D01*
X191216319Y-102022362D01*
X191380657Y-102186701D01*
X191595375Y-102275640D01*
X191987170Y-102275640D01*
X192133220Y-102129590D01*
X192133220Y-101269800D01*
X192488820Y-101269800D01*
X192488820Y-102129590D01*
X192634870Y-102275640D01*
X193026665Y-102275640D01*
X193241383Y-102186701D01*
X193405721Y-102022362D01*
X193494660Y-101807644D01*
X193494660Y-101415850D01*
X193348610Y-101269800D01*
X192488820Y-101269800D01*
X192133220Y-101269800D01*
X191273430Y-101269800D01*
X191127380Y-101415850D01*
X191045498Y-101415850D01*
X191045498Y-100492560D01*
X191029558Y-100407846D01*
X191009295Y-100376356D01*
X191127380Y-100376356D01*
X191127380Y-100768150D01*
X191273430Y-100914200D01*
X192133220Y-100914200D01*
X192133220Y-100054410D01*
X192488820Y-100054410D01*
X192488820Y-100914200D01*
X193348610Y-100914200D01*
X193494660Y-100768150D01*
X193494660Y-100376356D01*
X193405721Y-100161638D01*
X193241383Y-99997299D01*
X193026665Y-99908360D01*
X192634870Y-99908360D01*
X192488820Y-100054410D01*
X192133220Y-100054410D01*
X191987170Y-99908360D01*
X191595375Y-99908360D01*
X191380657Y-99997299D01*
X191216319Y-100161638D01*
X191127380Y-100376356D01*
X191009295Y-100376356D01*
X190979492Y-100330042D01*
X190903100Y-100277845D01*
X190812420Y-100259482D01*
X189613540Y-100259482D01*
X189528826Y-100275422D01*
X189512359Y-100286018D01*
X188007078Y-98780736D01*
X188007078Y-97902000D01*
X187991138Y-97817286D01*
X187941072Y-97739482D01*
X187864680Y-97687285D01*
X187774000Y-97668922D01*
X186274000Y-97668922D01*
X186189286Y-97684862D01*
X186111482Y-97734928D01*
X186059285Y-97811320D01*
X186040922Y-97902000D01*
X185307078Y-97902000D01*
X185291138Y-97817286D01*
X185241072Y-97739482D01*
X185164680Y-97687285D01*
X185074000Y-97668922D01*
X183574000Y-97668922D01*
X183489286Y-97684862D01*
X183411482Y-97734928D01*
X183359285Y-97811320D01*
X183340922Y-97902000D01*
X183340922Y-98018600D01*
X180594005Y-98018600D01*
X180594000Y-98018599D01*
X180389877Y-98059203D01*
X180216829Y-98174829D01*
X180216827Y-98174832D01*
X179581829Y-98809829D01*
X179466203Y-98982877D01*
X179425600Y-99187000D01*
X179425600Y-100283574D01*
X179339203Y-100412877D01*
X179298600Y-100617000D01*
X179298600Y-108377322D01*
X178714400Y-108377322D01*
X178629686Y-108393262D01*
X178551882Y-108443328D01*
X178499685Y-108519720D01*
X178481322Y-108610400D01*
X178481322Y-110845600D01*
X178497262Y-110930314D01*
X178547328Y-111008118D01*
X178623720Y-111060315D01*
X178714400Y-111078678D01*
X179298600Y-111078678D01*
X179298600Y-111666058D01*
X178849058Y-112115600D01*
X161891942Y-112115600D01*
X158583188Y-108806846D01*
X161192601Y-108806846D01*
X161268862Y-109028588D01*
X161780166Y-109187911D01*
X162313520Y-109139439D01*
X162581138Y-109028588D01*
X162657399Y-108806846D01*
X161925000Y-108074447D01*
X161192601Y-108806846D01*
X158583188Y-108806846D01*
X157824226Y-108047884D01*
X157835428Y-108020907D01*
X157835727Y-107678166D01*
X160560089Y-107678166D01*
X160608561Y-108211520D01*
X160719412Y-108479138D01*
X160941154Y-108555399D01*
X161673553Y-107823000D01*
X162176447Y-107823000D01*
X162908846Y-108555399D01*
X163130588Y-108479138D01*
X163289911Y-107967834D01*
X163241439Y-107434480D01*
X163130588Y-107166862D01*
X162908846Y-107090601D01*
X162176447Y-107823000D01*
X161673553Y-107823000D01*
X160941154Y-107090601D01*
X160719412Y-107166862D01*
X160560089Y-107678166D01*
X157835727Y-107678166D01*
X157835772Y-107626822D01*
X157685279Y-107262603D01*
X157406862Y-106983700D01*
X157058759Y-106839154D01*
X161192601Y-106839154D01*
X161925000Y-107571553D01*
X162657399Y-106839154D01*
X162581138Y-106617412D01*
X162069834Y-106458089D01*
X161536480Y-106506561D01*
X161268862Y-106617412D01*
X161192601Y-106839154D01*
X157058759Y-106839154D01*
X157042907Y-106832572D01*
X156648822Y-106832228D01*
X156620339Y-106843997D01*
X155919400Y-106143058D01*
X155919400Y-103886000D01*
X155919078Y-103884381D01*
X155919078Y-103536000D01*
X155903138Y-103451286D01*
X155853072Y-103373482D01*
X155776680Y-103321285D01*
X155686000Y-103302922D01*
X155086000Y-103302922D01*
X155001286Y-103318862D01*
X154923482Y-103368928D01*
X154871285Y-103445320D01*
X154870200Y-103450678D01*
X154870200Y-103419796D01*
X154781261Y-103205078D01*
X154616923Y-103040739D01*
X154402205Y-102951800D01*
X154282050Y-102951800D01*
X154136000Y-103097850D01*
X153836000Y-103097850D01*
X153689950Y-102951800D01*
X153569795Y-102951800D01*
X153355077Y-103040739D01*
X153190739Y-103205078D01*
X153101800Y-103419796D01*
X146001664Y-103419796D01*
X146087123Y-103402797D01*
X146193561Y-103331678D01*
X147929600Y-103331678D01*
X148014314Y-103315738D01*
X148092118Y-103265672D01*
X148144315Y-103189280D01*
X148162678Y-103098600D01*
X148162678Y-100863400D01*
X149525322Y-100863400D01*
X149525322Y-103098600D01*
X149541262Y-103183314D01*
X149591328Y-103261118D01*
X149667720Y-103313315D01*
X149758400Y-103331678D01*
X151993600Y-103331678D01*
X152078314Y-103315738D01*
X152156118Y-103265672D01*
X152208315Y-103189280D01*
X152226678Y-103098600D01*
X152226678Y-101458000D01*
X156289922Y-101458000D01*
X156289922Y-102758000D01*
X156305862Y-102842714D01*
X156355928Y-102920518D01*
X156432320Y-102972715D01*
X156523000Y-102991078D01*
X156739600Y-102991078D01*
X156739600Y-103425000D01*
X156780203Y-103629123D01*
X156895829Y-103802171D01*
X158499827Y-105406168D01*
X158499829Y-105406171D01*
X158640580Y-105500217D01*
X158672877Y-105521797D01*
X158877000Y-105562401D01*
X158877005Y-105562400D01*
X167894000Y-105562400D01*
X168098123Y-105521797D01*
X168271171Y-105406171D01*
X168630600Y-105046742D01*
X168630600Y-106426000D01*
X168671203Y-106630123D01*
X168786829Y-106803171D01*
X168959877Y-106918797D01*
X169164000Y-106959400D01*
X170994922Y-106959400D01*
X170994922Y-107051000D01*
X171010862Y-107135714D01*
X171060928Y-107213518D01*
X171137320Y-107265715D01*
X171228000Y-107284078D01*
X171444600Y-107284078D01*
X171444600Y-108377322D01*
X170840400Y-108377322D01*
X170755686Y-108393262D01*
X170677882Y-108443328D01*
X170625685Y-108519720D01*
X170607322Y-108610400D01*
X170607322Y-110845600D01*
X170623262Y-110930314D01*
X170673328Y-111008118D01*
X170749720Y-111060315D01*
X170840400Y-111078678D01*
X173075600Y-111078678D01*
X173160314Y-111062738D01*
X173238118Y-111012672D01*
X173290315Y-110936280D01*
X173308678Y-110845600D01*
X173308678Y-108610400D01*
X173292738Y-108525686D01*
X173242672Y-108447882D01*
X173166280Y-108395685D01*
X173075600Y-108377322D01*
X172511400Y-108377322D01*
X172511400Y-107284078D01*
X172728000Y-107284078D01*
X172812714Y-107268138D01*
X172890518Y-107218072D01*
X172942715Y-107141680D01*
X172961078Y-107051000D01*
X172961078Y-105801000D01*
X172945138Y-105716286D01*
X172895072Y-105638482D01*
X172818680Y-105586285D01*
X172728000Y-105567922D01*
X171228000Y-105567922D01*
X171143286Y-105583862D01*
X171065482Y-105633928D01*
X171013285Y-105710320D01*
X170994922Y-105801000D01*
X170994922Y-105892600D01*
X169697400Y-105892600D01*
X169697400Y-103979942D01*
X170187342Y-103490000D01*
X170640922Y-103490000D01*
X170640922Y-104790000D01*
X170656862Y-104874714D01*
X170706928Y-104952518D01*
X170783320Y-105004715D01*
X170874000Y-105023078D01*
X171956268Y-105023078D01*
X171978000Y-105027401D01*
X171999733Y-105023078D01*
X172374000Y-105023078D01*
X172458714Y-105007138D01*
X172536518Y-104957072D01*
X172588715Y-104880680D01*
X172607078Y-104790000D01*
X172607078Y-103490000D01*
X173340922Y-103490000D01*
X173340922Y-104790000D01*
X173356862Y-104874714D01*
X173406928Y-104952518D01*
X173483320Y-105004715D01*
X173574000Y-105023078D01*
X173790600Y-105023078D01*
X173790600Y-105567922D01*
X173728000Y-105567922D01*
X173643286Y-105583862D01*
X173565482Y-105633928D01*
X173513285Y-105710320D01*
X173494922Y-105801000D01*
X173494922Y-107051000D01*
X173510862Y-107135714D01*
X173560928Y-107213518D01*
X173637320Y-107265715D01*
X173728000Y-107284078D01*
X175228000Y-107284078D01*
X175312714Y-107268138D01*
X175390518Y-107218072D01*
X175442715Y-107141680D01*
X175461078Y-107051000D01*
X175461078Y-105801000D01*
X175445138Y-105716286D01*
X175395072Y-105638482D01*
X175318680Y-105586285D01*
X175228000Y-105567922D01*
X174857400Y-105567922D01*
X174857400Y-105023078D01*
X175074000Y-105023078D01*
X175158714Y-105007138D01*
X175236518Y-104957072D01*
X175288715Y-104880680D01*
X175307078Y-104790000D01*
X175307078Y-104673400D01*
X177038000Y-104673400D01*
X177242123Y-104632797D01*
X177415171Y-104517171D01*
X179066168Y-102866173D01*
X179066171Y-102866171D01*
X179181797Y-102693123D01*
X179184527Y-102679400D01*
X179222401Y-102489000D01*
X179222400Y-102488995D01*
X179222400Y-100490000D01*
X179222078Y-100488381D01*
X179222078Y-99715000D01*
X179206138Y-99630286D01*
X179156072Y-99552482D01*
X179079680Y-99500285D01*
X178989000Y-99481922D01*
X178389000Y-99481922D01*
X178304286Y-99497862D01*
X178270419Y-99519655D01*
X178214261Y-99384077D01*
X178049922Y-99219739D01*
X177835204Y-99130800D01*
X177715050Y-99130800D01*
X177569000Y-99276850D01*
X177569000Y-100312200D01*
X177616800Y-100312200D01*
X177616800Y-100667800D01*
X177569000Y-100667800D01*
X177569000Y-101703150D01*
X177715050Y-101849200D01*
X177835204Y-101849200D01*
X178049922Y-101760261D01*
X178155600Y-101654584D01*
X178155600Y-102268059D01*
X176817058Y-103606600D01*
X175307078Y-103606600D01*
X175307078Y-103490000D01*
X175291138Y-103405286D01*
X175241072Y-103327482D01*
X175164680Y-103275285D01*
X175074000Y-103256922D01*
X173574000Y-103256922D01*
X173489286Y-103272862D01*
X173411482Y-103322928D01*
X173359285Y-103399320D01*
X173340922Y-103490000D01*
X172607078Y-103490000D01*
X172591138Y-103405286D01*
X172541072Y-103327482D01*
X172464680Y-103275285D01*
X172374000Y-103256922D01*
X172157400Y-103256922D01*
X172157400Y-103170942D01*
X172697725Y-102630617D01*
X172789306Y-102592776D01*
X172950211Y-102432151D01*
X173037400Y-102222177D01*
X173037599Y-101994820D01*
X172950776Y-101784694D01*
X172790151Y-101623789D01*
X172580177Y-101536600D01*
X172352820Y-101536401D01*
X172142694Y-101623224D01*
X171981789Y-101783849D01*
X171943430Y-101876228D01*
X171246829Y-102572829D01*
X171131203Y-102745877D01*
X171090600Y-102950000D01*
X171090600Y-103256922D01*
X170874000Y-103256922D01*
X170789286Y-103272862D01*
X170711482Y-103322928D01*
X170659285Y-103399320D01*
X170640922Y-103490000D01*
X170187342Y-103490000D01*
X172863492Y-100813850D01*
X176534800Y-100813850D01*
X176534800Y-101381205D01*
X176623739Y-101595923D01*
X176788078Y-101760261D01*
X177002796Y-101849200D01*
X177122950Y-101849200D01*
X177269000Y-101703150D01*
X177269000Y-100667800D01*
X176680850Y-100667800D01*
X176534800Y-100813850D01*
X172863492Y-100813850D01*
X174078547Y-99598795D01*
X176534800Y-99598795D01*
X176534800Y-100166150D01*
X176680850Y-100312200D01*
X177269000Y-100312200D01*
X177269000Y-99276850D01*
X177122950Y-99130800D01*
X177002796Y-99130800D01*
X176788078Y-99219739D01*
X176623739Y-99384077D01*
X176534800Y-99598795D01*
X174078547Y-99598795D01*
X176369942Y-97307400D01*
X189687200Y-97307400D01*
X189891323Y-97266797D01*
X190064371Y-97151171D01*
X192469064Y-94746478D01*
X194056000Y-94746478D01*
X194140714Y-94730538D01*
X194218518Y-94680472D01*
X194270715Y-94604080D01*
X194289078Y-94513400D01*
X194289078Y-92405200D01*
X194273138Y-92320486D01*
X194223072Y-92242682D01*
X194146680Y-92190485D01*
X194056000Y-92172122D01*
X191947800Y-92172122D01*
X191863086Y-92188062D01*
X191785282Y-92238128D01*
X191733085Y-92314520D01*
X191714722Y-92405200D01*
X191714722Y-93992136D01*
X189466258Y-96240600D01*
X176149005Y-96240600D01*
X176149000Y-96240599D01*
X175944877Y-96281203D01*
X175771829Y-96396829D01*
X167673058Y-104495600D01*
X159097941Y-104495600D01*
X157806400Y-103204058D01*
X157806400Y-102991078D01*
X158023000Y-102991078D01*
X158107714Y-102975138D01*
X158185518Y-102925072D01*
X158237715Y-102848680D01*
X158256078Y-102758000D01*
X158256078Y-101458000D01*
X158989922Y-101458000D01*
X158989922Y-102758000D01*
X159005862Y-102842714D01*
X159055928Y-102920518D01*
X159132320Y-102972715D01*
X159223000Y-102991078D01*
X160723000Y-102991078D01*
X160807714Y-102975138D01*
X160885518Y-102925072D01*
X160937715Y-102848680D01*
X160956078Y-102758000D01*
X160956078Y-101458000D01*
X160940138Y-101373286D01*
X160890072Y-101295482D01*
X160813680Y-101243285D01*
X160723000Y-101224922D01*
X160514420Y-101224922D01*
X160666196Y-101073146D01*
X165338301Y-101073146D01*
X165400607Y-101283345D01*
X165871072Y-101423842D01*
X166359490Y-101373605D01*
X166577393Y-101283345D01*
X166639699Y-101073146D01*
X165989000Y-100422447D01*
X165338301Y-101073146D01*
X160666196Y-101073146D01*
X160886725Y-100852617D01*
X160978306Y-100814776D01*
X161139211Y-100654151D01*
X161226400Y-100444177D01*
X161226599Y-100216820D01*
X161158940Y-100053072D01*
X164736158Y-100053072D01*
X164786395Y-100541490D01*
X164876655Y-100759393D01*
X165086854Y-100821699D01*
X165737553Y-100171000D01*
X166240447Y-100171000D01*
X166891146Y-100821699D01*
X167101345Y-100759393D01*
X167241842Y-100288928D01*
X167191605Y-99800510D01*
X167101345Y-99582607D01*
X166891146Y-99520301D01*
X166240447Y-100171000D01*
X165737553Y-100171000D01*
X165086854Y-99520301D01*
X164876655Y-99582607D01*
X164736158Y-100053072D01*
X161158940Y-100053072D01*
X161139776Y-100006694D01*
X160979151Y-99845789D01*
X160769177Y-99758600D01*
X160541820Y-99758401D01*
X160331694Y-99845224D01*
X160170789Y-100005849D01*
X160132430Y-100098228D01*
X159595829Y-100634829D01*
X159480203Y-100807877D01*
X159439600Y-101012000D01*
X159439600Y-101224922D01*
X159223000Y-101224922D01*
X159138286Y-101240862D01*
X159060482Y-101290928D01*
X159008285Y-101367320D01*
X158989922Y-101458000D01*
X158256078Y-101458000D01*
X158240138Y-101373286D01*
X158190072Y-101295482D01*
X158113680Y-101243285D01*
X158023000Y-101224922D01*
X157806400Y-101224922D01*
X157806400Y-99470162D01*
X157837434Y-99439128D01*
X158116270Y-99439128D01*
X158200984Y-99423188D01*
X158278788Y-99373122D01*
X158330985Y-99296730D01*
X158349348Y-99206050D01*
X158349348Y-98405950D01*
X158333408Y-98321236D01*
X158283342Y-98243432D01*
X158206950Y-98191235D01*
X158116270Y-98172872D01*
X157316170Y-98172872D01*
X157231456Y-98188812D01*
X157153652Y-98238878D01*
X157101455Y-98315270D01*
X157083092Y-98405950D01*
X157083092Y-98684786D01*
X156895829Y-98872049D01*
X156780203Y-99045097D01*
X156739600Y-99249220D01*
X156739600Y-101224922D01*
X156523000Y-101224922D01*
X156438286Y-101240862D01*
X156360482Y-101290928D01*
X156308285Y-101367320D01*
X156289922Y-101458000D01*
X152226678Y-101458000D01*
X152226678Y-100863400D01*
X152210738Y-100778686D01*
X152160672Y-100700882D01*
X152084280Y-100648685D01*
X152075446Y-100646896D01*
X152642492Y-100079850D01*
X154732990Y-100079850D01*
X154732990Y-100272255D01*
X154821929Y-100486973D01*
X154986268Y-100651311D01*
X155200986Y-100740250D01*
X155393390Y-100740250D01*
X155539440Y-100594200D01*
X155539440Y-99933800D01*
X155895040Y-99933800D01*
X155895040Y-100594200D01*
X156041090Y-100740250D01*
X156233494Y-100740250D01*
X156448212Y-100651311D01*
X156612551Y-100486973D01*
X156701490Y-100272255D01*
X156701490Y-100079850D01*
X156555440Y-99933800D01*
X155895040Y-99933800D01*
X155539440Y-99933800D01*
X154879040Y-99933800D01*
X154732990Y-100079850D01*
X152642492Y-100079850D01*
X153482597Y-99239745D01*
X154732990Y-99239745D01*
X154732990Y-99432150D01*
X154879040Y-99578200D01*
X155539440Y-99578200D01*
X155539440Y-98917800D01*
X155895040Y-98917800D01*
X155895040Y-99578200D01*
X156555440Y-99578200D01*
X156701490Y-99432150D01*
X156701490Y-99239745D01*
X156612551Y-99025027D01*
X156448212Y-98860689D01*
X156233494Y-98771750D01*
X156041090Y-98771750D01*
X155895040Y-98917800D01*
X155539440Y-98917800D01*
X155393390Y-98771750D01*
X155200986Y-98771750D01*
X154986268Y-98860689D01*
X154821929Y-99025027D01*
X154732990Y-99239745D01*
X153482597Y-99239745D01*
X154332942Y-98389400D01*
X155131349Y-98389400D01*
X155150118Y-98418568D01*
X155226510Y-98470765D01*
X155317190Y-98489128D01*
X156117290Y-98489128D01*
X156202004Y-98473188D01*
X156279808Y-98423122D01*
X156332005Y-98346730D01*
X156350368Y-98256050D01*
X156350368Y-98149974D01*
X156430942Y-98069400D01*
X159644922Y-98069400D01*
X159644922Y-98747000D01*
X159660862Y-98831714D01*
X159710928Y-98909518D01*
X159787320Y-98961715D01*
X159878000Y-98980078D01*
X161178000Y-98980078D01*
X161262714Y-98964138D01*
X161340518Y-98914072D01*
X161392715Y-98837680D01*
X161411078Y-98747000D01*
X161411078Y-98704400D01*
X165105922Y-98704400D01*
X165105922Y-98821000D01*
X165121862Y-98905714D01*
X165171928Y-98983518D01*
X165248320Y-99035715D01*
X165339000Y-99054078D01*
X165411657Y-99054078D01*
X165400607Y-99058655D01*
X165338301Y-99268854D01*
X165989000Y-99919553D01*
X166639699Y-99268854D01*
X166577393Y-99058655D01*
X166562067Y-99054078D01*
X166639000Y-99054078D01*
X166723714Y-99038138D01*
X166801518Y-98988072D01*
X166853715Y-98911680D01*
X166872078Y-98821000D01*
X166872078Y-97521000D01*
X166856138Y-97436286D01*
X166806072Y-97358482D01*
X166729680Y-97306285D01*
X166639000Y-97287922D01*
X166442400Y-97287922D01*
X166442400Y-95498078D01*
X166659000Y-95498078D01*
X166743714Y-95482138D01*
X166821518Y-95432072D01*
X166873715Y-95355680D01*
X166892078Y-95265000D01*
X166892078Y-94938850D01*
X167274800Y-94938850D01*
X167274800Y-95381204D01*
X167363739Y-95595922D01*
X167528077Y-95760261D01*
X167742795Y-95849200D01*
X168285150Y-95849200D01*
X168431200Y-95703150D01*
X168431200Y-94792800D01*
X168786800Y-94792800D01*
X168786800Y-95703150D01*
X168932850Y-95849200D01*
X169475205Y-95849200D01*
X169689923Y-95760261D01*
X169854261Y-95595922D01*
X169943200Y-95381204D01*
X169943200Y-95109180D01*
X175069401Y-95109180D01*
X175156224Y-95319306D01*
X175316849Y-95480211D01*
X175526823Y-95567400D01*
X175754180Y-95567599D01*
X175846628Y-95529400D01*
X176885922Y-95529400D01*
X176885922Y-95865000D01*
X176901862Y-95949714D01*
X176951928Y-96027518D01*
X177028320Y-96079715D01*
X177119000Y-96098078D01*
X177719000Y-96098078D01*
X177803714Y-96082138D01*
X177881518Y-96032072D01*
X177933715Y-95955680D01*
X177952078Y-95865000D01*
X177952078Y-95091619D01*
X177952400Y-95090000D01*
X177952078Y-95088381D01*
X177952078Y-94315000D01*
X177936138Y-94230286D01*
X177886072Y-94152482D01*
X177809680Y-94100285D01*
X177719000Y-94081922D01*
X177119000Y-94081922D01*
X177034286Y-94097862D01*
X176956482Y-94147928D01*
X176904285Y-94224320D01*
X176885922Y-94315000D01*
X176885922Y-94462600D01*
X175846691Y-94462600D01*
X175755177Y-94424600D01*
X175527820Y-94424401D01*
X175317694Y-94511224D01*
X175156789Y-94671849D01*
X175069600Y-94881823D01*
X175069401Y-95109180D01*
X169943200Y-95109180D01*
X169943200Y-94938850D01*
X169797150Y-94792800D01*
X168786800Y-94792800D01*
X168431200Y-94792800D01*
X167420850Y-94792800D01*
X167274800Y-94938850D01*
X166892078Y-94938850D01*
X166892078Y-93965000D01*
X166876138Y-93880286D01*
X166855875Y-93848796D01*
X167274800Y-93848796D01*
X167274800Y-94291150D01*
X167420850Y-94437200D01*
X168431200Y-94437200D01*
X168431200Y-93526850D01*
X168786800Y-93526850D01*
X168786800Y-94437200D01*
X169797150Y-94437200D01*
X169943200Y-94291150D01*
X169943200Y-93848796D01*
X169854261Y-93634078D01*
X169689923Y-93469739D01*
X169475205Y-93380800D01*
X168932850Y-93380800D01*
X168786800Y-93526850D01*
X168431200Y-93526850D01*
X168285150Y-93380800D01*
X167742795Y-93380800D01*
X167528077Y-93469739D01*
X167363739Y-93634078D01*
X167274800Y-93848796D01*
X166855875Y-93848796D01*
X166826072Y-93802482D01*
X166749680Y-93750285D01*
X166659000Y-93731922D01*
X165159000Y-93731922D01*
X165074286Y-93747862D01*
X164996482Y-93797928D01*
X164944285Y-93874320D01*
X164925922Y-93965000D01*
X164925922Y-95265000D01*
X164941862Y-95349714D01*
X164991928Y-95427518D01*
X165068320Y-95479715D01*
X165159000Y-95498078D01*
X165375600Y-95498078D01*
X165375600Y-97287922D01*
X165339000Y-97287922D01*
X165254286Y-97303862D01*
X165176482Y-97353928D01*
X165124285Y-97430320D01*
X165105922Y-97521000D01*
X165105922Y-97637600D01*
X161411078Y-97637600D01*
X161411078Y-97247000D01*
X161395138Y-97162286D01*
X161345072Y-97084482D01*
X161268680Y-97032285D01*
X161178000Y-97013922D01*
X160123919Y-97013922D01*
X160067000Y-97002600D01*
X156210000Y-97002600D01*
X156005876Y-97043203D01*
X155832829Y-97158829D01*
X155768786Y-97222872D01*
X155317190Y-97222872D01*
X155232476Y-97238812D01*
X155154672Y-97288878D01*
X155131630Y-97322600D01*
X154112000Y-97322600D01*
X153907877Y-97363203D01*
X153734829Y-97478829D01*
X150583336Y-100630322D01*
X149758400Y-100630322D01*
X149673686Y-100646262D01*
X149595882Y-100696328D01*
X149543685Y-100772720D01*
X149525322Y-100863400D01*
X148162678Y-100863400D01*
X148146738Y-100778686D01*
X148096672Y-100700882D01*
X148020280Y-100648685D01*
X147929600Y-100630322D01*
X145694400Y-100630322D01*
X145609686Y-100646262D01*
X145531882Y-100696328D01*
X145479685Y-100772720D01*
X145461322Y-100863400D01*
X145461322Y-102376600D01*
X139724919Y-102376600D01*
X139535648Y-101918529D01*
X139043064Y-101425085D01*
X138399143Y-101157705D01*
X137701916Y-101157097D01*
X137057529Y-101423352D01*
X136564085Y-101915936D01*
X136296705Y-102559857D01*
X136296097Y-103257084D01*
X130478600Y-103257084D01*
X130478600Y-98571788D01*
X136763659Y-98571788D01*
X136933727Y-98872533D01*
X137721816Y-99159456D01*
X138559715Y-99122949D01*
X139164273Y-98872533D01*
X139334341Y-98571788D01*
X138049000Y-97286447D01*
X136763659Y-98571788D01*
X130478600Y-98571788D01*
X130478600Y-96707816D01*
X135924544Y-96707816D01*
X135961051Y-97545715D01*
X136211467Y-98150273D01*
X136512212Y-98320341D01*
X137797553Y-97035000D01*
X138300447Y-97035000D01*
X139585788Y-98320341D01*
X139886533Y-98150273D01*
X140173456Y-97362184D01*
X140136949Y-96524285D01*
X139886533Y-95919727D01*
X139585788Y-95749659D01*
X138300447Y-97035000D01*
X137797553Y-97035000D01*
X136512212Y-95749659D01*
X136211467Y-95919727D01*
X135924544Y-96707816D01*
X130478600Y-96707816D01*
X130478600Y-95498212D01*
X136763659Y-95498212D01*
X138049000Y-96783553D01*
X139334341Y-95498212D01*
X139164273Y-95197467D01*
X138376184Y-94910544D01*
X137538285Y-94947051D01*
X136933727Y-95197467D01*
X136763659Y-95498212D01*
X130478600Y-95498212D01*
X130478600Y-94092000D01*
X143081922Y-94092000D01*
X143081922Y-95392000D01*
X143097862Y-95476714D01*
X143147928Y-95554518D01*
X143224320Y-95606715D01*
X143315000Y-95625078D01*
X143531600Y-95625078D01*
X143531600Y-96201121D01*
X143446600Y-96405823D01*
X143446401Y-96633180D01*
X143533224Y-96843306D01*
X143693849Y-97004211D01*
X143903823Y-97091400D01*
X144131180Y-97091599D01*
X144341306Y-97004776D01*
X144502211Y-96844151D01*
X144589400Y-96634177D01*
X144589502Y-96517733D01*
X144598400Y-96473000D01*
X144598400Y-95625078D01*
X144815000Y-95625078D01*
X144899714Y-95609138D01*
X144977518Y-95559072D01*
X145029715Y-95482680D01*
X145048078Y-95392000D01*
X145048078Y-94092000D01*
X145032138Y-94007286D01*
X144982072Y-93929482D01*
X144905680Y-93877285D01*
X144815000Y-93858922D01*
X143315000Y-93858922D01*
X143230286Y-93874862D01*
X143152482Y-93924928D01*
X143100285Y-94001320D01*
X143081922Y-94092000D01*
X130478600Y-94092000D01*
X130478600Y-92382084D01*
X136296097Y-92382084D01*
X136562352Y-93026471D01*
X137054936Y-93519915D01*
X137698857Y-93787295D01*
X138396084Y-93787903D01*
X139040471Y-93521648D01*
X139533915Y-93029064D01*
X139725200Y-92568400D01*
X143081922Y-92568400D01*
X143081922Y-92852000D01*
X143097862Y-92936714D01*
X143147928Y-93014518D01*
X143224320Y-93066715D01*
X143315000Y-93085078D01*
X144815000Y-93085078D01*
X144899714Y-93069138D01*
X144977518Y-93019072D01*
X145029715Y-92942680D01*
X145048078Y-92852000D01*
X145048078Y-91552000D01*
X145781922Y-91552000D01*
X145781922Y-92852000D01*
X145797862Y-92936714D01*
X145847928Y-93014518D01*
X145924320Y-93066715D01*
X146015000Y-93085078D01*
X146231600Y-93085078D01*
X146231600Y-93858922D01*
X146015000Y-93858922D01*
X145930286Y-93874862D01*
X145852482Y-93924928D01*
X145800285Y-94001320D01*
X145781922Y-94092000D01*
X145781922Y-95392000D01*
X145797862Y-95476714D01*
X145847928Y-95554518D01*
X145924320Y-95606715D01*
X146015000Y-95625078D01*
X147515000Y-95625078D01*
X147599714Y-95609138D01*
X147677518Y-95559072D01*
X147729715Y-95482680D01*
X147748078Y-95392000D01*
X147748078Y-95275400D01*
X149163000Y-95275400D01*
X149367123Y-95234797D01*
X149399628Y-95213078D01*
X149575000Y-95213078D01*
X149659714Y-95197138D01*
X149737518Y-95147072D01*
X149789715Y-95070680D01*
X149808078Y-94980000D01*
X149808078Y-94664850D01*
X151952800Y-94664850D01*
X151952800Y-95207205D01*
X152041739Y-95421923D01*
X152206078Y-95586261D01*
X152420796Y-95675200D01*
X152838150Y-95675200D01*
X152984200Y-95529150D01*
X152984200Y-94518800D01*
X153339800Y-94518800D01*
X153339800Y-95529150D01*
X153485850Y-95675200D01*
X153903204Y-95675200D01*
X154117922Y-95586261D01*
X154282261Y-95421923D01*
X154371200Y-95207205D01*
X154371200Y-94664850D01*
X154619800Y-94664850D01*
X154619800Y-95207205D01*
X154708739Y-95421923D01*
X154873078Y-95586261D01*
X155087796Y-95675200D01*
X155505150Y-95675200D01*
X155651200Y-95529150D01*
X155651200Y-94518800D01*
X156006800Y-94518800D01*
X156006800Y-95529150D01*
X156152850Y-95675200D01*
X156570204Y-95675200D01*
X156784922Y-95586261D01*
X156949261Y-95421923D01*
X157038200Y-95207205D01*
X157038200Y-94664850D01*
X156892150Y-94518800D01*
X156006800Y-94518800D01*
X155651200Y-94518800D01*
X154765850Y-94518800D01*
X154619800Y-94664850D01*
X154371200Y-94664850D01*
X154225150Y-94518800D01*
X153339800Y-94518800D01*
X152984200Y-94518800D01*
X152098850Y-94518800D01*
X151952800Y-94664850D01*
X149808078Y-94664850D01*
X149808078Y-94380000D01*
X149792138Y-94295286D01*
X149742072Y-94217482D01*
X149665680Y-94165285D01*
X149660322Y-94164200D01*
X149691204Y-94164200D01*
X149905922Y-94075261D01*
X150070261Y-93910923D01*
X150159200Y-93696205D01*
X150159200Y-93576050D01*
X150057945Y-93474795D01*
X151952800Y-93474795D01*
X151952800Y-94017150D01*
X152098850Y-94163200D01*
X152984200Y-94163200D01*
X152984200Y-93152850D01*
X153339800Y-93152850D01*
X153339800Y-94163200D01*
X154225150Y-94163200D01*
X154371200Y-94017150D01*
X154371200Y-93474795D01*
X154619800Y-93474795D01*
X154619800Y-94017150D01*
X154765850Y-94163200D01*
X155651200Y-94163200D01*
X155651200Y-93152850D01*
X156006800Y-93152850D01*
X156006800Y-94163200D01*
X156892150Y-94163200D01*
X157038200Y-94017150D01*
X157038200Y-93474795D01*
X156949261Y-93260077D01*
X156784922Y-93095739D01*
X156570204Y-93006800D01*
X156152850Y-93006800D01*
X156006800Y-93152850D01*
X155651200Y-93152850D01*
X155505150Y-93006800D01*
X155087796Y-93006800D01*
X154873078Y-93095739D01*
X154708739Y-93260077D01*
X154619800Y-93474795D01*
X154371200Y-93474795D01*
X154282261Y-93260077D01*
X154117922Y-93095739D01*
X153903204Y-93006800D01*
X153485850Y-93006800D01*
X153339800Y-93152850D01*
X152984200Y-93152850D01*
X152838150Y-93006800D01*
X152420796Y-93006800D01*
X152206078Y-93095739D01*
X152041739Y-93260077D01*
X151952800Y-93474795D01*
X150057945Y-93474795D01*
X150013150Y-93430000D01*
X149400000Y-93430000D01*
X149400000Y-93477800D01*
X149050000Y-93477800D01*
X149050000Y-93430000D01*
X148436850Y-93430000D01*
X148290800Y-93576050D01*
X148290800Y-93696205D01*
X148379739Y-93910923D01*
X148544078Y-94075261D01*
X148758796Y-94164200D01*
X148788207Y-94164200D01*
X148719208Y-94208600D01*
X147748078Y-94208600D01*
X147748078Y-94092000D01*
X147732138Y-94007286D01*
X147682072Y-93929482D01*
X147605680Y-93877285D01*
X147515000Y-93858922D01*
X147298400Y-93858922D01*
X147298400Y-93085078D01*
X147515000Y-93085078D01*
X147599714Y-93069138D01*
X147677518Y-93019072D01*
X147729715Y-92942680D01*
X147745689Y-92863795D01*
X148290800Y-92863795D01*
X148290800Y-92983950D01*
X148436850Y-93130000D01*
X149050000Y-93130000D01*
X149050000Y-92541850D01*
X149400000Y-92541850D01*
X149400000Y-93130000D01*
X150013150Y-93130000D01*
X150159200Y-92983950D01*
X150159200Y-92863795D01*
X150070261Y-92649077D01*
X149905922Y-92484739D01*
X149691204Y-92395800D01*
X149546050Y-92395800D01*
X149400000Y-92541850D01*
X149050000Y-92541850D01*
X148903950Y-92395800D01*
X148758796Y-92395800D01*
X148544078Y-92484739D01*
X148379739Y-92649077D01*
X148290800Y-92863795D01*
X147745689Y-92863795D01*
X147748078Y-92852000D01*
X147748078Y-91552000D01*
X147732138Y-91467286D01*
X147682072Y-91389482D01*
X147605680Y-91337285D01*
X147515000Y-91318922D01*
X146015000Y-91318922D01*
X145930286Y-91334862D01*
X145852482Y-91384928D01*
X145800285Y-91461320D01*
X145781922Y-91552000D01*
X145048078Y-91552000D01*
X145032138Y-91467286D01*
X144982072Y-91389482D01*
X144905680Y-91337285D01*
X144815000Y-91318922D01*
X144306045Y-91318922D01*
X144218766Y-91260604D01*
X143898000Y-91196800D01*
X143577234Y-91260604D01*
X143489955Y-91318922D01*
X143315000Y-91318922D01*
X143230286Y-91334862D01*
X143152482Y-91384928D01*
X143100285Y-91461320D01*
X143092128Y-91501600D01*
X139724919Y-91501600D01*
X139535648Y-91043529D01*
X139043064Y-90550085D01*
X138399143Y-90282705D01*
X137701916Y-90282097D01*
X137057529Y-90548352D01*
X136564085Y-91040936D01*
X136296705Y-91684857D01*
X136296097Y-92382084D01*
X130478600Y-92382084D01*
X130478600Y-87382084D01*
X136296097Y-87382084D01*
X136562352Y-88026471D01*
X137054936Y-88519915D01*
X137698857Y-88787295D01*
X138396084Y-88787903D01*
X139040471Y-88521648D01*
X139533915Y-88029064D01*
X139801295Y-87385143D01*
X139801680Y-86944200D01*
X142949322Y-86944200D01*
X142949322Y-87856000D01*
X142965262Y-87940714D01*
X143015328Y-88018518D01*
X143091720Y-88070715D01*
X143182400Y-88089078D01*
X146682400Y-88089078D01*
X146767114Y-88073138D01*
X146844918Y-88023072D01*
X146897115Y-87946680D01*
X146915478Y-87856000D01*
X146915478Y-84356000D01*
X149756522Y-84356000D01*
X149756522Y-87856000D01*
X149772462Y-87940714D01*
X149822528Y-88018518D01*
X149898920Y-88070715D01*
X149989600Y-88089078D01*
X152323800Y-88089078D01*
X152323800Y-90998103D01*
X152322285Y-91000320D01*
X152303922Y-91091000D01*
X152303922Y-92591000D01*
X152319862Y-92675714D01*
X152369928Y-92753518D01*
X152446320Y-92805715D01*
X152537000Y-92824078D01*
X153787000Y-92824078D01*
X153871714Y-92808138D01*
X153949518Y-92758072D01*
X154001715Y-92681680D01*
X154020078Y-92591000D01*
X154020078Y-92374400D01*
X154970922Y-92374400D01*
X154970922Y-92591000D01*
X154986862Y-92675714D01*
X155036928Y-92753518D01*
X155113320Y-92805715D01*
X155204000Y-92824078D01*
X156454000Y-92824078D01*
X156538714Y-92808138D01*
X156616518Y-92758072D01*
X156668715Y-92681680D01*
X156687078Y-92591000D01*
X156687078Y-92374400D01*
X157430063Y-92374400D01*
X157423285Y-92384320D01*
X157404922Y-92475000D01*
X157404922Y-93075000D01*
X157420862Y-93159714D01*
X157454600Y-93212144D01*
X157454600Y-94234000D01*
X157495203Y-94438123D01*
X157610829Y-94611171D01*
X158673829Y-95674171D01*
X158846877Y-95789797D01*
X159051000Y-95830400D01*
X159644922Y-95830400D01*
X159644922Y-96047000D01*
X159660862Y-96131714D01*
X159710928Y-96209518D01*
X159787320Y-96261715D01*
X159878000Y-96280078D01*
X161178000Y-96280078D01*
X161262714Y-96264138D01*
X161340518Y-96214072D01*
X161392715Y-96137680D01*
X161411078Y-96047000D01*
X161411078Y-94547000D01*
X161395138Y-94462286D01*
X161345072Y-94384482D01*
X161268680Y-94332285D01*
X161178000Y-94313922D01*
X159878000Y-94313922D01*
X159793286Y-94329862D01*
X159715482Y-94379928D01*
X159663285Y-94456320D01*
X159644922Y-94547000D01*
X159644922Y-94763600D01*
X159271942Y-94763600D01*
X158521400Y-94013058D01*
X158521400Y-93211511D01*
X158552715Y-93165680D01*
X158571078Y-93075000D01*
X158571078Y-92475000D01*
X158555138Y-92390286D01*
X158505072Y-92312482D01*
X158428680Y-92260285D01*
X158338000Y-92241922D01*
X157989619Y-92241922D01*
X157988000Y-92241600D01*
X157986381Y-92241922D01*
X157863625Y-92241922D01*
X157899171Y-92218171D01*
X158209263Y-91908078D01*
X158338000Y-91908078D01*
X158422714Y-91892138D01*
X158500518Y-91842072D01*
X158552715Y-91765680D01*
X158571078Y-91675000D01*
X158571078Y-91255850D01*
X172945800Y-91255850D01*
X172945800Y-91848204D01*
X173034739Y-92062922D01*
X173199077Y-92227261D01*
X173413795Y-92316200D01*
X174206150Y-92316200D01*
X174352200Y-92170150D01*
X174352200Y-91109800D01*
X174707800Y-91109800D01*
X174707800Y-92170150D01*
X174853850Y-92316200D01*
X175646205Y-92316200D01*
X175860923Y-92227261D01*
X176025261Y-92062922D01*
X176114200Y-91848204D01*
X176114200Y-91255850D01*
X175968150Y-91109800D01*
X174707800Y-91109800D01*
X174352200Y-91109800D01*
X173091850Y-91109800D01*
X172945800Y-91255850D01*
X158571078Y-91255850D01*
X158571078Y-91075000D01*
X158555138Y-90990286D01*
X158505072Y-90912482D01*
X158428680Y-90860285D01*
X158338000Y-90841922D01*
X157989624Y-90841922D01*
X157988000Y-90841599D01*
X157986376Y-90841922D01*
X157638000Y-90841922D01*
X157553286Y-90857862D01*
X157475482Y-90907928D01*
X157423285Y-90984320D01*
X157404922Y-91075000D01*
X157404922Y-91203737D01*
X157301058Y-91307600D01*
X156687078Y-91307600D01*
X156687078Y-91091000D01*
X156671138Y-91006286D01*
X156621072Y-90928482D01*
X156544680Y-90876285D01*
X156454000Y-90857922D01*
X155204000Y-90857922D01*
X155119286Y-90873862D01*
X155041482Y-90923928D01*
X154989285Y-91000320D01*
X154970922Y-91091000D01*
X154970922Y-91307600D01*
X154020078Y-91307600D01*
X154020078Y-91091000D01*
X154004138Y-91006286D01*
X154000200Y-91000166D01*
X154000200Y-90484146D01*
X163560301Y-90484146D01*
X163622607Y-90694345D01*
X164093072Y-90834842D01*
X164581490Y-90784605D01*
X164799393Y-90694345D01*
X164861699Y-90484146D01*
X164211000Y-89833447D01*
X163560301Y-90484146D01*
X154000200Y-90484146D01*
X154000200Y-89464072D01*
X162958158Y-89464072D01*
X163008395Y-89952490D01*
X163098655Y-90170393D01*
X163308854Y-90232699D01*
X163959553Y-89582000D01*
X164462447Y-89582000D01*
X165113146Y-90232699D01*
X165323345Y-90170393D01*
X165369512Y-90015796D01*
X172945800Y-90015796D01*
X172945800Y-90608150D01*
X173091850Y-90754200D01*
X174352200Y-90754200D01*
X174352200Y-89693850D01*
X174707800Y-89693850D01*
X174707800Y-90754200D01*
X175968150Y-90754200D01*
X176114200Y-90608150D01*
X176114200Y-90132000D01*
X177296922Y-90132000D01*
X177296922Y-91732000D01*
X177312862Y-91816714D01*
X177362928Y-91894518D01*
X177439320Y-91946715D01*
X177530000Y-91965078D01*
X177996600Y-91965078D01*
X177996600Y-94931000D01*
X178037203Y-95135123D01*
X178152829Y-95308171D01*
X178155922Y-95311264D01*
X178155922Y-95865000D01*
X178171862Y-95949714D01*
X178221928Y-96027518D01*
X178298320Y-96079715D01*
X178389000Y-96098078D01*
X178989000Y-96098078D01*
X179073714Y-96082138D01*
X179151518Y-96032072D01*
X179203715Y-95955680D01*
X179222078Y-95865000D01*
X179222078Y-95623400D01*
X179425922Y-95623400D01*
X179425922Y-95865000D01*
X179441862Y-95949714D01*
X179491928Y-96027518D01*
X179568320Y-96079715D01*
X179659000Y-96098078D01*
X180259000Y-96098078D01*
X180343714Y-96082138D01*
X180421518Y-96032072D01*
X180473715Y-95955680D01*
X180492078Y-95865000D01*
X180492078Y-95091619D01*
X180492400Y-95090000D01*
X180695600Y-95090000D01*
X180695922Y-95091619D01*
X180695922Y-95865000D01*
X180711862Y-95949714D01*
X180761928Y-96027518D01*
X180838320Y-96079715D01*
X180929000Y-96098078D01*
X181529000Y-96098078D01*
X181613714Y-96082138D01*
X181691518Y-96032072D01*
X181743715Y-95955680D01*
X181762078Y-95865000D01*
X181762078Y-95623400D01*
X183040000Y-95623400D01*
X183244123Y-95582797D01*
X183417171Y-95467171D01*
X184781171Y-94103171D01*
X184896797Y-93930124D01*
X184937400Y-93726000D01*
X184937400Y-92405200D01*
X187218922Y-92405200D01*
X187218922Y-94513400D01*
X187234862Y-94598114D01*
X187284928Y-94675918D01*
X187361320Y-94728115D01*
X187452000Y-94746478D01*
X189560200Y-94746478D01*
X189644914Y-94730538D01*
X189722718Y-94680472D01*
X189774915Y-94604080D01*
X189793278Y-94513400D01*
X189793278Y-92405200D01*
X189777338Y-92320486D01*
X189727272Y-92242682D01*
X189650880Y-92190485D01*
X189560200Y-92172122D01*
X187452000Y-92172122D01*
X187367286Y-92188062D01*
X187289482Y-92238128D01*
X187237285Y-92314520D01*
X187218922Y-92405200D01*
X184937400Y-92405200D01*
X184937400Y-92149078D01*
X185029000Y-92149078D01*
X185113714Y-92133138D01*
X185191518Y-92083072D01*
X185243715Y-92006680D01*
X185262078Y-91916000D01*
X185262078Y-90416000D01*
X185246138Y-90331286D01*
X185196072Y-90253482D01*
X185119680Y-90201285D01*
X185029000Y-90182922D01*
X183779000Y-90182922D01*
X183694286Y-90198862D01*
X183616482Y-90248928D01*
X183564285Y-90325320D01*
X183545922Y-90416000D01*
X183545922Y-91916000D01*
X183561862Y-92000714D01*
X183611928Y-92078518D01*
X183688320Y-92130715D01*
X183779000Y-92149078D01*
X183870600Y-92149078D01*
X183870600Y-93505058D01*
X182819058Y-94556600D01*
X181762078Y-94556600D01*
X181762078Y-94315000D01*
X181746138Y-94230286D01*
X181696072Y-94152482D01*
X181619680Y-94100285D01*
X181529000Y-94081922D01*
X180929000Y-94081922D01*
X180844286Y-94097862D01*
X180766482Y-94147928D01*
X180714285Y-94224320D01*
X180695922Y-94315000D01*
X180695922Y-95088381D01*
X180695600Y-95090000D01*
X180492400Y-95090000D01*
X180492400Y-94073942D01*
X181987168Y-92579173D01*
X181987171Y-92579171D01*
X182102797Y-92406123D01*
X182118900Y-92325170D01*
X182143401Y-92202000D01*
X182143400Y-92201995D01*
X182143400Y-91995078D01*
X182260000Y-91995078D01*
X182344714Y-91979138D01*
X182422518Y-91929072D01*
X182474715Y-91852680D01*
X182493078Y-91762000D01*
X182493078Y-90262000D01*
X182477138Y-90177286D01*
X182427072Y-90099482D01*
X182350680Y-90047285D01*
X182260000Y-90028922D01*
X180960000Y-90028922D01*
X180875286Y-90044862D01*
X180797482Y-90094928D01*
X180745285Y-90171320D01*
X180726922Y-90262000D01*
X180726922Y-90398600D01*
X179763078Y-90398600D01*
X179763078Y-90132000D01*
X179747138Y-90047286D01*
X179697072Y-89969482D01*
X179620680Y-89917285D01*
X179530000Y-89898922D01*
X177530000Y-89898922D01*
X177445286Y-89914862D01*
X177367482Y-89964928D01*
X177315285Y-90041320D01*
X177296922Y-90132000D01*
X176114200Y-90132000D01*
X176114200Y-90015796D01*
X176025261Y-89801078D01*
X175860923Y-89636739D01*
X175646205Y-89547800D01*
X174853850Y-89547800D01*
X174707800Y-89693850D01*
X174352200Y-89693850D01*
X174206150Y-89547800D01*
X173413795Y-89547800D01*
X173199077Y-89636739D01*
X173034739Y-89801078D01*
X172945800Y-90015796D01*
X165369512Y-90015796D01*
X165463842Y-89699928D01*
X165413605Y-89211510D01*
X165323345Y-88993607D01*
X165113146Y-88931301D01*
X164462447Y-89582000D01*
X163959553Y-89582000D01*
X163308854Y-88931301D01*
X163098655Y-88993607D01*
X162958158Y-89464072D01*
X154000200Y-89464072D01*
X154000200Y-88679854D01*
X163560301Y-88679854D01*
X164211000Y-89330553D01*
X164861699Y-88679854D01*
X164799393Y-88469655D01*
X164328928Y-88329158D01*
X163840510Y-88379395D01*
X163622607Y-88469655D01*
X163560301Y-88679854D01*
X154000200Y-88679854D01*
X154000200Y-88060850D01*
X173161800Y-88060850D01*
X173161800Y-88603205D01*
X173250739Y-88817923D01*
X173415078Y-88982261D01*
X173629796Y-89071200D01*
X174047150Y-89071200D01*
X174193200Y-88925150D01*
X174193200Y-87914800D01*
X174548800Y-87914800D01*
X174548800Y-88925150D01*
X174694850Y-89071200D01*
X175112204Y-89071200D01*
X175326922Y-88982261D01*
X175491261Y-88817923D01*
X175580200Y-88603205D01*
X175580200Y-88251180D01*
X178244401Y-88251180D01*
X178331224Y-88461306D01*
X178491849Y-88622211D01*
X178584228Y-88660570D01*
X178612829Y-88689171D01*
X178785877Y-88804797D01*
X178990000Y-88845400D01*
X180726922Y-88845400D01*
X180726922Y-89062000D01*
X180742862Y-89146714D01*
X180792928Y-89224518D01*
X180869320Y-89276715D01*
X180960000Y-89295078D01*
X182260000Y-89295078D01*
X182344714Y-89279138D01*
X182422518Y-89229072D01*
X182474715Y-89152680D01*
X182493078Y-89062000D01*
X182493078Y-88989850D01*
X183194800Y-88989850D01*
X183194800Y-89532205D01*
X183283739Y-89746923D01*
X183448078Y-89911261D01*
X183662796Y-90000200D01*
X184080150Y-90000200D01*
X184226200Y-89854150D01*
X184226200Y-88843800D01*
X184581800Y-88843800D01*
X184581800Y-89854150D01*
X184727850Y-90000200D01*
X185145204Y-90000200D01*
X185359922Y-89911261D01*
X185524261Y-89746923D01*
X185613200Y-89532205D01*
X185613200Y-88989850D01*
X185467150Y-88843800D01*
X184581800Y-88843800D01*
X184226200Y-88843800D01*
X183340850Y-88843800D01*
X183194800Y-88989850D01*
X182493078Y-88989850D01*
X182493078Y-87799795D01*
X183194800Y-87799795D01*
X183194800Y-88342150D01*
X183340850Y-88488200D01*
X184226200Y-88488200D01*
X184226200Y-87477850D01*
X184581800Y-87477850D01*
X184581800Y-88488200D01*
X185467150Y-88488200D01*
X185613200Y-88342150D01*
X185613200Y-87799795D01*
X185524261Y-87585077D01*
X185359922Y-87420739D01*
X185145204Y-87331800D01*
X184727850Y-87331800D01*
X184581800Y-87477850D01*
X184226200Y-87477850D01*
X184080150Y-87331800D01*
X183662796Y-87331800D01*
X183448078Y-87420739D01*
X183283739Y-87585077D01*
X183194800Y-87799795D01*
X182493078Y-87799795D01*
X182493078Y-87562000D01*
X182477138Y-87477286D01*
X182427072Y-87399482D01*
X182350680Y-87347285D01*
X182260000Y-87328922D01*
X180960000Y-87328922D01*
X180875286Y-87344862D01*
X180797482Y-87394928D01*
X180745285Y-87471320D01*
X180726922Y-87562000D01*
X180726922Y-87778600D01*
X179264745Y-87778600D01*
X179140151Y-87653789D01*
X178930177Y-87566600D01*
X178702820Y-87566401D01*
X178492694Y-87653224D01*
X178331789Y-87813849D01*
X178244600Y-88023823D01*
X178244401Y-88251180D01*
X175580200Y-88251180D01*
X175580200Y-88060850D01*
X175434150Y-87914800D01*
X174548800Y-87914800D01*
X174193200Y-87914800D01*
X173307850Y-87914800D01*
X173161800Y-88060850D01*
X154000200Y-88060850D01*
X154000200Y-87528400D01*
X153973651Y-87394928D01*
X153936396Y-87207634D01*
X153754697Y-86935703D01*
X153722678Y-86903684D01*
X153722678Y-86870795D01*
X173161800Y-86870795D01*
X173161800Y-87413150D01*
X173307850Y-87559200D01*
X174193200Y-87559200D01*
X174193200Y-86548850D01*
X174548800Y-86548850D01*
X174548800Y-87559200D01*
X175434150Y-87559200D01*
X175580200Y-87413150D01*
X175580200Y-86870795D01*
X175491261Y-86656077D01*
X175326922Y-86491739D01*
X175112204Y-86402800D01*
X174694850Y-86402800D01*
X174548800Y-86548850D01*
X174193200Y-86548850D01*
X174047150Y-86402800D01*
X173629796Y-86402800D01*
X173415078Y-86491739D01*
X173250739Y-86656077D01*
X173161800Y-86870795D01*
X153722678Y-86870795D01*
X153722678Y-84356000D01*
X153706738Y-84271286D01*
X153656672Y-84193482D01*
X153580280Y-84141285D01*
X153489600Y-84122922D01*
X149989600Y-84122922D01*
X149904886Y-84138862D01*
X149827082Y-84188928D01*
X149774885Y-84265320D01*
X149756522Y-84356000D01*
X146915478Y-84356000D01*
X146899538Y-84271286D01*
X146849472Y-84193482D01*
X146773080Y-84141285D01*
X146682400Y-84122922D01*
X143182400Y-84122922D01*
X143097686Y-84138862D01*
X143019882Y-84188928D01*
X142967685Y-84265320D01*
X142949322Y-84356000D01*
X142949322Y-85267800D01*
X138978000Y-85267800D01*
X138657235Y-85331604D01*
X138603451Y-85367541D01*
X138399143Y-85282705D01*
X137701916Y-85282097D01*
X137057529Y-85548352D01*
X136564085Y-86040936D01*
X136296705Y-86684857D01*
X136296097Y-87382084D01*
X130478600Y-87382084D01*
X130478600Y-81460084D01*
X136296097Y-81460084D01*
X136562352Y-82104471D01*
X137054936Y-82597915D01*
X137698857Y-82865295D01*
X138396084Y-82865903D01*
X138888837Y-82662302D01*
X154123040Y-82662302D01*
X154124138Y-82663402D01*
X154488093Y-82814530D01*
X154882178Y-82814874D01*
X155246397Y-82664381D01*
X155525300Y-82385964D01*
X155676428Y-82022009D01*
X155676772Y-81627924D01*
X155526279Y-81263705D01*
X155247862Y-80984802D01*
X154883907Y-80833674D01*
X154489822Y-80833330D01*
X154125603Y-80983823D01*
X154123520Y-80985902D01*
X139801711Y-80985902D01*
X139801903Y-80765916D01*
X139535648Y-80121529D01*
X139043064Y-79628085D01*
X138399143Y-79360705D01*
X137701916Y-79360097D01*
X137057529Y-79626352D01*
X136564085Y-80118936D01*
X136296705Y-80762857D01*
X136296097Y-81460084D01*
X130478600Y-81460084D01*
X130478600Y-78620520D01*
X149777459Y-78620520D01*
X150026347Y-79094725D01*
X150437760Y-79437588D01*
X150705378Y-79548439D01*
X150916098Y-79445568D01*
X150916098Y-78409800D01*
X151271698Y-78409800D01*
X151271698Y-79445568D01*
X151482418Y-79548439D01*
X151956623Y-79299551D01*
X152299486Y-78888138D01*
X152410337Y-78620520D01*
X152307466Y-78409800D01*
X151271698Y-78409800D01*
X150916098Y-78409800D01*
X149880330Y-78409800D01*
X149777459Y-78620520D01*
X130478600Y-78620520D01*
X130478600Y-76460084D01*
X136296097Y-76460084D01*
X136562352Y-77104471D01*
X137054936Y-77597915D01*
X137698857Y-77865295D01*
X138396084Y-77865903D01*
X138800989Y-77698600D01*
X143276922Y-77698600D01*
X143276922Y-77876400D01*
X143292862Y-77961114D01*
X143342928Y-78038918D01*
X143419320Y-78091115D01*
X143510000Y-78109478D01*
X145542000Y-78109478D01*
X145626714Y-78093538D01*
X145704518Y-78043472D01*
X145756715Y-77967080D01*
X145775078Y-77876400D01*
X145775078Y-76836017D01*
X145821400Y-76836017D01*
X145821400Y-76884783D01*
X145916140Y-77361071D01*
X146185935Y-77764848D01*
X146589712Y-78034643D01*
X147066000Y-78129383D01*
X147542288Y-78034643D01*
X147828383Y-77843480D01*
X149777459Y-77843480D01*
X149880330Y-78054200D01*
X150916098Y-78054200D01*
X150916098Y-77018432D01*
X151271698Y-77018432D01*
X151271698Y-78054200D01*
X152307466Y-78054200D01*
X152410337Y-77843480D01*
X152161449Y-77369275D01*
X151750036Y-77026412D01*
X151482418Y-76915561D01*
X151271698Y-77018432D01*
X150916098Y-77018432D01*
X150705378Y-76915561D01*
X150231173Y-77164449D01*
X149888310Y-77575862D01*
X149777459Y-77843480D01*
X147828383Y-77843480D01*
X147946065Y-77764848D01*
X148215860Y-77361071D01*
X148310600Y-76884783D01*
X148310600Y-76836017D01*
X148304822Y-76806972D01*
X149633696Y-75478098D01*
X154123040Y-75478098D01*
X154124138Y-75479198D01*
X154488093Y-75630326D01*
X154882178Y-75630670D01*
X155246397Y-75480177D01*
X155525300Y-75201760D01*
X155676428Y-74837805D01*
X155676772Y-74443720D01*
X155526279Y-74079501D01*
X155247862Y-73800598D01*
X154883907Y-73649470D01*
X154489822Y-73649126D01*
X154125603Y-73799619D01*
X154123520Y-73801698D01*
X149286502Y-73801698D01*
X148965736Y-73865502D01*
X148693805Y-74047201D01*
X147135721Y-75605285D01*
X147066000Y-75591417D01*
X146589712Y-75686157D01*
X146185935Y-75955952D01*
X145916140Y-76359729D01*
X145821400Y-76836017D01*
X145775078Y-76836017D01*
X145775078Y-75844400D01*
X145759138Y-75759686D01*
X145709072Y-75681882D01*
X145632680Y-75629685D01*
X145542000Y-75611322D01*
X143510000Y-75611322D01*
X143425286Y-75627262D01*
X143347482Y-75677328D01*
X143295285Y-75753720D01*
X143276922Y-75844400D01*
X143276922Y-76022200D01*
X139801680Y-76022200D01*
X139801903Y-75765916D01*
X139535648Y-75121529D01*
X139043064Y-74628085D01*
X138399143Y-74360705D01*
X137701916Y-74360097D01*
X137057529Y-74626352D01*
X136564085Y-75118936D01*
X136296705Y-75762857D01*
X136296097Y-76460084D01*
X130478600Y-76460084D01*
X130478600Y-71228135D01*
X131775084Y-71228135D01*
X132052885Y-71900465D01*
X132566829Y-72415307D01*
X133238673Y-72694282D01*
X133966135Y-72694916D01*
X134638465Y-72417115D01*
X135153307Y-71903171D01*
X135432282Y-71231327D01*
X135432916Y-70503865D01*
X135380518Y-70377050D01*
X140893800Y-70377050D01*
X140893800Y-71287004D01*
X140982739Y-71501722D01*
X141147077Y-71666061D01*
X141361795Y-71755000D01*
X142271750Y-71755000D01*
X142417800Y-71608950D01*
X142417800Y-70231000D01*
X142773400Y-70231000D01*
X142773400Y-71608950D01*
X142919450Y-71755000D01*
X143829405Y-71755000D01*
X144044123Y-71666061D01*
X144208461Y-71501722D01*
X144297400Y-71287004D01*
X144297400Y-70377050D01*
X144151350Y-70231000D01*
X142773400Y-70231000D01*
X142417800Y-70231000D01*
X141039850Y-70231000D01*
X140893800Y-70377050D01*
X135380518Y-70377050D01*
X135155115Y-69831535D01*
X134641171Y-69316693D01*
X133969327Y-69037718D01*
X133241865Y-69037084D01*
X132569535Y-69314885D01*
X132054693Y-69828829D01*
X131775718Y-70500673D01*
X131775084Y-71228135D01*
X130478600Y-71228135D01*
X130478600Y-68819396D01*
X140893800Y-68819396D01*
X140893800Y-69729350D01*
X141039850Y-69875400D01*
X142417800Y-69875400D01*
X142417800Y-68497450D01*
X142773400Y-68497450D01*
X142773400Y-69875400D01*
X144151350Y-69875400D01*
X144297400Y-69729350D01*
X144297400Y-68935600D01*
X145156522Y-68935600D01*
X145156522Y-71170800D01*
X145172462Y-71255514D01*
X145222528Y-71333318D01*
X145298920Y-71385515D01*
X145389600Y-71403878D01*
X146595536Y-71403878D01*
X148060429Y-72868771D01*
X148233477Y-72984397D01*
X148437600Y-73025000D01*
X155481058Y-73025000D01*
X157744702Y-75288643D01*
X157744702Y-76781904D01*
X157685405Y-76841201D01*
X157503706Y-77113132D01*
X157448097Y-77392700D01*
X157439902Y-77433898D01*
X157439902Y-77669040D01*
X157438802Y-77670138D01*
X157287674Y-78034093D01*
X157287330Y-78428178D01*
X157437823Y-78792397D01*
X157439902Y-78794480D01*
X157439902Y-81443102D01*
X157503706Y-81763868D01*
X157685405Y-82035799D01*
X160824303Y-85174697D01*
X161096234Y-85356396D01*
X161417000Y-85420200D01*
X163431514Y-85420200D01*
X163470320Y-85446715D01*
X163561000Y-85465078D01*
X164861000Y-85465078D01*
X164945714Y-85449138D01*
X164990684Y-85420200D01*
X173368806Y-85420200D01*
X173512922Y-85564316D01*
X173512922Y-85987000D01*
X173528862Y-86071714D01*
X173578928Y-86149518D01*
X173655320Y-86201715D01*
X173746000Y-86220078D01*
X174996000Y-86220078D01*
X175080714Y-86204138D01*
X175158518Y-86154072D01*
X175210715Y-86077680D01*
X175229078Y-85987000D01*
X175229078Y-84487000D01*
X175213138Y-84402286D01*
X175163072Y-84324482D01*
X175086680Y-84272285D01*
X174996000Y-84253922D01*
X174573316Y-84253922D01*
X174308697Y-83989303D01*
X174036766Y-83807604D01*
X173716000Y-83743800D01*
X164990486Y-83743800D01*
X164951680Y-83717285D01*
X164861000Y-83698922D01*
X163561000Y-83698922D01*
X163476286Y-83714862D01*
X163431316Y-83743800D01*
X161764194Y-83743800D01*
X161306994Y-83286600D01*
X187218922Y-83286600D01*
X187218922Y-85394800D01*
X187234862Y-85479514D01*
X187284928Y-85557318D01*
X187361320Y-85609515D01*
X187452000Y-85627878D01*
X189560200Y-85627878D01*
X189644914Y-85611938D01*
X189722718Y-85561872D01*
X189774915Y-85485480D01*
X189793278Y-85394800D01*
X189793278Y-84664550D01*
X191363600Y-84664550D01*
X191363600Y-85511004D01*
X191452539Y-85725722D01*
X191616877Y-85890061D01*
X191831595Y-85979000D01*
X192678050Y-85979000D01*
X192824100Y-85832950D01*
X192824100Y-84518500D01*
X193179700Y-84518500D01*
X193179700Y-85832950D01*
X193325750Y-85979000D01*
X194172205Y-85979000D01*
X194386923Y-85890061D01*
X194551261Y-85725722D01*
X194640200Y-85511004D01*
X194640200Y-84664550D01*
X194494150Y-84518500D01*
X193179700Y-84518500D01*
X192824100Y-84518500D01*
X191509650Y-84518500D01*
X191363600Y-84664550D01*
X189793278Y-84664550D01*
X189793278Y-83286600D01*
X189777338Y-83201886D01*
X189757075Y-83170396D01*
X191363600Y-83170396D01*
X191363600Y-84016850D01*
X191509650Y-84162900D01*
X192824100Y-84162900D01*
X192824100Y-82848450D01*
X193179700Y-82848450D01*
X193179700Y-84162900D01*
X194494150Y-84162900D01*
X194640200Y-84016850D01*
X194640200Y-83170396D01*
X194551261Y-82955678D01*
X194386923Y-82791339D01*
X194172205Y-82702400D01*
X193325750Y-82702400D01*
X193179700Y-82848450D01*
X192824100Y-82848450D01*
X192678050Y-82702400D01*
X191831595Y-82702400D01*
X191616877Y-82791339D01*
X191452539Y-82955678D01*
X191363600Y-83170396D01*
X189757075Y-83170396D01*
X189727272Y-83124082D01*
X189650880Y-83071885D01*
X189560200Y-83053522D01*
X187452000Y-83053522D01*
X187367286Y-83069462D01*
X187289482Y-83119528D01*
X187237285Y-83195920D01*
X187218922Y-83286600D01*
X161306994Y-83286600D01*
X159116302Y-81095908D01*
X159116302Y-78794960D01*
X159117402Y-78793862D01*
X159268530Y-78429907D01*
X159268665Y-78274800D01*
X161549522Y-78274800D01*
X161549522Y-79774800D01*
X161565462Y-79859514D01*
X161615528Y-79937318D01*
X161691920Y-79989515D01*
X161782600Y-80007878D01*
X163032600Y-80007878D01*
X163117314Y-79991938D01*
X163195118Y-79941872D01*
X163247315Y-79865480D01*
X163247817Y-79863000D01*
X163672200Y-79863000D01*
X163992966Y-79799196D01*
X164264897Y-79617497D01*
X165560224Y-78322170D01*
X165882071Y-78322170D01*
X166256783Y-78247635D01*
X166574449Y-78035378D01*
X166786706Y-77717712D01*
X166861241Y-77343000D01*
X166786706Y-76968288D01*
X166574449Y-76650622D01*
X166256783Y-76438365D01*
X165882071Y-76363830D01*
X164825929Y-76363830D01*
X164451217Y-76438365D01*
X164133551Y-76650622D01*
X163921294Y-76968288D01*
X163846759Y-77343000D01*
X163900157Y-77611449D01*
X163325006Y-78186600D01*
X163247495Y-78186600D01*
X163199672Y-78112282D01*
X163123280Y-78060085D01*
X163032600Y-78041722D01*
X161782600Y-78041722D01*
X161697886Y-78057662D01*
X161620082Y-78107728D01*
X161567885Y-78184120D01*
X161549522Y-78274800D01*
X159268665Y-78274800D01*
X159268874Y-78035822D01*
X159149786Y-77747608D01*
X160048744Y-76848650D01*
X161198400Y-76848650D01*
X161198400Y-77391005D01*
X161287339Y-77605723D01*
X161451678Y-77770061D01*
X161666396Y-77859000D01*
X162083750Y-77859000D01*
X162229800Y-77712950D01*
X162229800Y-76702600D01*
X162585400Y-76702600D01*
X162585400Y-77712950D01*
X162731450Y-77859000D01*
X163148804Y-77859000D01*
X163363522Y-77770061D01*
X163527861Y-77605723D01*
X163616800Y-77391005D01*
X163616800Y-76848650D01*
X163470750Y-76702600D01*
X162585400Y-76702600D01*
X162229800Y-76702600D01*
X161344450Y-76702600D01*
X161198400Y-76848650D01*
X160048744Y-76848650D01*
X161198400Y-75698994D01*
X161198400Y-76200950D01*
X161344450Y-76347000D01*
X162229800Y-76347000D01*
X162229800Y-75336650D01*
X162585400Y-75336650D01*
X162585400Y-76347000D01*
X163470750Y-76347000D01*
X163616800Y-76200950D01*
X163616800Y-75658595D01*
X163527861Y-75443877D01*
X163363522Y-75279539D01*
X163148804Y-75190600D01*
X162731450Y-75190600D01*
X162585400Y-75336650D01*
X162229800Y-75336650D01*
X162083750Y-75190600D01*
X161706794Y-75190600D01*
X161711840Y-75185554D01*
X163576116Y-75185554D01*
X163785341Y-75621102D01*
X164179830Y-75968126D01*
X164677090Y-76137770D01*
X165176200Y-76137770D01*
X165176200Y-74980800D01*
X165531800Y-74980800D01*
X165531800Y-76137770D01*
X166030910Y-76137770D01*
X166528170Y-75968126D01*
X166922659Y-75621102D01*
X167052268Y-75351292D01*
X179348921Y-75351292D01*
X179769527Y-76369237D01*
X180547666Y-77148736D01*
X181564875Y-77571118D01*
X182666292Y-77572079D01*
X183684237Y-77151473D01*
X184463736Y-76373334D01*
X184886118Y-75356125D01*
X184887079Y-74254708D01*
X184466473Y-73236763D01*
X183688334Y-72457264D01*
X182671125Y-72034882D01*
X181569708Y-72033921D01*
X180551763Y-72454527D01*
X179772264Y-73232666D01*
X179349882Y-74249875D01*
X179348921Y-75351292D01*
X167052268Y-75351292D01*
X167131884Y-75185554D01*
X167028458Y-74980800D01*
X165531800Y-74980800D01*
X165176200Y-74980800D01*
X163679542Y-74980800D01*
X163576116Y-75185554D01*
X161711840Y-75185554D01*
X162476948Y-74420446D01*
X163576116Y-74420446D01*
X163679542Y-74625200D01*
X165176200Y-74625200D01*
X165176200Y-73468230D01*
X165531800Y-73468230D01*
X165531800Y-74625200D01*
X167028458Y-74625200D01*
X167131884Y-74420446D01*
X166922659Y-73984898D01*
X166528170Y-73637874D01*
X166030910Y-73468230D01*
X165531800Y-73468230D01*
X165176200Y-73468230D01*
X164677090Y-73468230D01*
X164179830Y-73637874D01*
X163785341Y-73984898D01*
X163576116Y-74420446D01*
X162476948Y-74420446D01*
X163796194Y-73101200D01*
X164351790Y-73101200D01*
X164451217Y-73167635D01*
X164825929Y-73242170D01*
X165882071Y-73242170D01*
X166256783Y-73167635D01*
X166574449Y-72955378D01*
X166786706Y-72637712D01*
X166861241Y-72263000D01*
X166786706Y-71888288D01*
X166574449Y-71570622D01*
X166256783Y-71358365D01*
X165882071Y-71283830D01*
X164825929Y-71283830D01*
X164451217Y-71358365D01*
X164351790Y-71424800D01*
X163449000Y-71424800D01*
X163128234Y-71488604D01*
X162856303Y-71670303D01*
X158811502Y-75715104D01*
X158811502Y-75067702D01*
X158790211Y-74960664D01*
X158770899Y-74863578D01*
X158724586Y-74794265D01*
X158655273Y-74690531D01*
X158655270Y-74690529D01*
X156079171Y-72114429D01*
X155906123Y-71998803D01*
X155702000Y-71958200D01*
X148658542Y-71958200D01*
X148468488Y-71768146D01*
X156658101Y-71768146D01*
X156720407Y-71978345D01*
X157190872Y-72118842D01*
X157679290Y-72068605D01*
X157897193Y-71978345D01*
X157959499Y-71768146D01*
X157308800Y-71117447D01*
X156658101Y-71768146D01*
X148468488Y-71768146D01*
X147857878Y-71157536D01*
X147857878Y-68935600D01*
X148814122Y-68935600D01*
X148814122Y-71170800D01*
X148830062Y-71255514D01*
X148880128Y-71333318D01*
X148956520Y-71385515D01*
X149047200Y-71403878D01*
X151282400Y-71403878D01*
X151367114Y-71387938D01*
X151444918Y-71337872D01*
X151497115Y-71261480D01*
X151515478Y-71170800D01*
X151515478Y-70748072D01*
X156055958Y-70748072D01*
X156106195Y-71236490D01*
X156196455Y-71454393D01*
X156406654Y-71516699D01*
X157057353Y-70866000D01*
X157560247Y-70866000D01*
X158210946Y-71516699D01*
X158421145Y-71454393D01*
X158425722Y-71439067D01*
X158425722Y-71516000D01*
X158441662Y-71600714D01*
X158491728Y-71678518D01*
X158568120Y-71730715D01*
X158658800Y-71749078D01*
X159958800Y-71749078D01*
X160043514Y-71733138D01*
X160121318Y-71683072D01*
X160173515Y-71606680D01*
X160191878Y-71516000D01*
X160191878Y-71228135D01*
X190703084Y-71228135D01*
X190980885Y-71900465D01*
X191494829Y-72415307D01*
X192166673Y-72694282D01*
X192894135Y-72694916D01*
X193566465Y-72417115D01*
X194081307Y-71903171D01*
X194360282Y-71231327D01*
X194360916Y-70503865D01*
X194083115Y-69831535D01*
X193569171Y-69316693D01*
X192897327Y-69037718D01*
X192169865Y-69037084D01*
X191497535Y-69314885D01*
X190982693Y-69828829D01*
X190703718Y-70500673D01*
X190703084Y-71228135D01*
X160191878Y-71228135D01*
X160191878Y-70216000D01*
X160175938Y-70131286D01*
X160125872Y-70053482D01*
X160049480Y-70001285D01*
X159958800Y-69982922D01*
X158658800Y-69982922D01*
X158574086Y-69998862D01*
X158496282Y-70048928D01*
X158444085Y-70125320D01*
X158425722Y-70216000D01*
X158425722Y-70288657D01*
X158421145Y-70277607D01*
X158210946Y-70215301D01*
X157560247Y-70866000D01*
X157057353Y-70866000D01*
X156406654Y-70215301D01*
X156196455Y-70277607D01*
X156055958Y-70748072D01*
X151515478Y-70748072D01*
X151515478Y-69963854D01*
X156658101Y-69963854D01*
X157308800Y-70614553D01*
X157959499Y-69963854D01*
X157897193Y-69753655D01*
X157426728Y-69613158D01*
X156938310Y-69663395D01*
X156720407Y-69753655D01*
X156658101Y-69963854D01*
X151515478Y-69963854D01*
X151515478Y-68935600D01*
X151499538Y-68850886D01*
X151449472Y-68773082D01*
X151373080Y-68720885D01*
X151282400Y-68702522D01*
X149047200Y-68702522D01*
X148962486Y-68718462D01*
X148884682Y-68768528D01*
X148832485Y-68844920D01*
X148814122Y-68935600D01*
X147857878Y-68935600D01*
X147841938Y-68850886D01*
X147791872Y-68773082D01*
X147715480Y-68720885D01*
X147624800Y-68702522D01*
X145389600Y-68702522D01*
X145304886Y-68718462D01*
X145227082Y-68768528D01*
X145174885Y-68844920D01*
X145156522Y-68935600D01*
X144297400Y-68935600D01*
X144297400Y-68819396D01*
X144208461Y-68604678D01*
X144044123Y-68440339D01*
X143829405Y-68351400D01*
X142919450Y-68351400D01*
X142773400Y-68497450D01*
X142417800Y-68497450D01*
X142271750Y-68351400D01*
X141361795Y-68351400D01*
X141147077Y-68440339D01*
X140982739Y-68604678D01*
X140893800Y-68819396D01*
X130478600Y-68819396D01*
X130478600Y-67740600D01*
X195657400Y-67740600D01*
X195657400Y-116155400D01*
X195657400Y-116155400D01*
G37*
X195657400Y-116155400D02*
X130478600Y-116155400D01*
X130478600Y-113392135D01*
X131775084Y-113392135D01*
X132052885Y-114064465D01*
X132566829Y-114579307D01*
X133238673Y-114858282D01*
X133966135Y-114858916D01*
X134638465Y-114581115D01*
X135153307Y-114067171D01*
X135432282Y-113395327D01*
X135432284Y-113392135D01*
X190703084Y-113392135D01*
X190980885Y-114064465D01*
X191494829Y-114579307D01*
X192166673Y-114858282D01*
X192894135Y-114858916D01*
X193566465Y-114581115D01*
X194081307Y-114067171D01*
X194360282Y-113395327D01*
X194360916Y-112667865D01*
X194083115Y-111995535D01*
X193569171Y-111480693D01*
X192897327Y-111201718D01*
X192169865Y-111201084D01*
X191497535Y-111478885D01*
X190982693Y-111992829D01*
X190703718Y-112664673D01*
X190703084Y-113392135D01*
X135432284Y-113392135D01*
X135432916Y-112667865D01*
X135155115Y-111995535D01*
X134641171Y-111480693D01*
X133969327Y-111201718D01*
X133241865Y-111201084D01*
X132569535Y-111478885D01*
X132054693Y-111992829D01*
X131775718Y-112664673D01*
X131775084Y-113392135D01*
X130478600Y-113392135D01*
X130478600Y-109446788D01*
X136763659Y-109446788D01*
X136933727Y-109747533D01*
X137721816Y-110034456D01*
X138559715Y-109997949D01*
X139164273Y-109747533D01*
X139334341Y-109446788D01*
X138049000Y-108161447D01*
X136763659Y-109446788D01*
X130478600Y-109446788D01*
X130478600Y-107582816D01*
X135924544Y-107582816D01*
X135961051Y-108420715D01*
X136211467Y-109025273D01*
X136512212Y-109195341D01*
X137797553Y-107910000D01*
X138300447Y-107910000D01*
X139585788Y-109195341D01*
X139886533Y-109025273D01*
X140173456Y-108237184D01*
X140136949Y-107399285D01*
X139886533Y-106794727D01*
X139585788Y-106624659D01*
X138300447Y-107910000D01*
X137797553Y-107910000D01*
X136512212Y-106624659D01*
X136211467Y-106794727D01*
X135924544Y-107582816D01*
X130478600Y-107582816D01*
X130478600Y-106373212D01*
X136763659Y-106373212D01*
X138049000Y-107658553D01*
X139334341Y-106373212D01*
X139164273Y-106072467D01*
X138376184Y-105785544D01*
X137538285Y-105822051D01*
X136933727Y-106072467D01*
X136763659Y-106373212D01*
X130478600Y-106373212D01*
X130478600Y-103257084D01*
X136296097Y-103257084D01*
X136562352Y-103901471D01*
X137054936Y-104394915D01*
X137698857Y-104662295D01*
X138396084Y-104662903D01*
X139040471Y-104396648D01*
X139533915Y-103904064D01*
X139725200Y-103443400D01*
X141551058Y-103443400D01*
X145705774Y-107598116D01*
X145694572Y-107625093D01*
X145694228Y-108019178D01*
X145844721Y-108383397D01*
X146123138Y-108662300D01*
X146487093Y-108813428D01*
X146881178Y-108813772D01*
X146897940Y-108806846D01*
X151032601Y-108806846D01*
X151108862Y-109028588D01*
X151620166Y-109187911D01*
X152153520Y-109139439D01*
X152421138Y-109028588D01*
X152497399Y-108806846D01*
X151765000Y-108074447D01*
X151032601Y-108806846D01*
X146897940Y-108806846D01*
X147245397Y-108663279D01*
X147524300Y-108384862D01*
X147675428Y-108020907D01*
X147675727Y-107678166D01*
X150400089Y-107678166D01*
X150448561Y-108211520D01*
X150559412Y-108479138D01*
X150781154Y-108555399D01*
X151513553Y-107823000D01*
X152016447Y-107823000D01*
X152748846Y-108555399D01*
X152970588Y-108479138D01*
X153129911Y-107967834D01*
X153081439Y-107434480D01*
X152970588Y-107166862D01*
X152748846Y-107090601D01*
X152016447Y-107823000D01*
X151513553Y-107823000D01*
X150781154Y-107090601D01*
X150559412Y-107166862D01*
X150400089Y-107678166D01*
X147675727Y-107678166D01*
X147675772Y-107626822D01*
X147525279Y-107262603D01*
X147246862Y-106983700D01*
X146898759Y-106839154D01*
X151032601Y-106839154D01*
X151765000Y-107571553D01*
X152497399Y-106839154D01*
X152421138Y-106617412D01*
X151909834Y-106458089D01*
X151376480Y-106506561D01*
X151108862Y-106617412D01*
X151032601Y-106839154D01*
X146898759Y-106839154D01*
X146882907Y-106832572D01*
X146488822Y-106832228D01*
X146460339Y-106843997D01*
X143823392Y-104207050D01*
X153101800Y-104207050D01*
X153101800Y-104352204D01*
X153190739Y-104566922D01*
X153355077Y-104731261D01*
X153569795Y-104820200D01*
X153689950Y-104820200D01*
X153836000Y-104674150D01*
X153836000Y-104061000D01*
X153247850Y-104061000D01*
X153101800Y-104207050D01*
X143823392Y-104207050D01*
X143059742Y-103443400D01*
X145883000Y-103443400D01*
X146001664Y-103419796D01*
X153101800Y-103419796D01*
X153101800Y-103564950D01*
X153247850Y-103711000D01*
X153836000Y-103711000D01*
X153836000Y-103097850D01*
X154136000Y-103097850D01*
X154136000Y-103711000D01*
X154183800Y-103711000D01*
X154183800Y-104061000D01*
X154136000Y-104061000D01*
X154136000Y-104674150D01*
X154282050Y-104820200D01*
X154402205Y-104820200D01*
X154616923Y-104731261D01*
X154781261Y-104566922D01*
X154852600Y-104394694D01*
X154852600Y-106364000D01*
X154893203Y-106568123D01*
X155008829Y-106741171D01*
X155865774Y-107598115D01*
X155854572Y-107625093D01*
X155854228Y-108019178D01*
X156004721Y-108383397D01*
X156283138Y-108662300D01*
X156647093Y-108813428D01*
X157041178Y-108813772D01*
X157069661Y-108802003D01*
X161293829Y-113026171D01*
X161466877Y-113141797D01*
X161671000Y-113182401D01*
X161671005Y-113182400D01*
X179070000Y-113182400D01*
X179274123Y-113141797D01*
X179447171Y-113026171D01*
X180209171Y-112264171D01*
X180324797Y-112091123D01*
X180365401Y-111887000D01*
X180365400Y-111886995D01*
X180365400Y-111078678D01*
X180949600Y-111078678D01*
X181034314Y-111062738D01*
X181112118Y-111012672D01*
X181164315Y-110936280D01*
X181182678Y-110845600D01*
X181182678Y-108610400D01*
X181166738Y-108525686D01*
X181116672Y-108447882D01*
X181040280Y-108395685D01*
X180949600Y-108377322D01*
X180365400Y-108377322D01*
X180365400Y-106588560D01*
X189380462Y-106588560D01*
X189380462Y-107787440D01*
X189396402Y-107872154D01*
X189446468Y-107949958D01*
X189522860Y-108002155D01*
X189613540Y-108020518D01*
X190812420Y-108020518D01*
X190897134Y-108004578D01*
X190974938Y-107954512D01*
X191027135Y-107878120D01*
X191045498Y-107787440D01*
X191045498Y-107511850D01*
X191127380Y-107511850D01*
X191127380Y-107903644D01*
X191216319Y-108118362D01*
X191380657Y-108282701D01*
X191595375Y-108371640D01*
X191987170Y-108371640D01*
X192133220Y-108225590D01*
X192133220Y-107365800D01*
X192488820Y-107365800D01*
X192488820Y-108225590D01*
X192634870Y-108371640D01*
X193026665Y-108371640D01*
X193241383Y-108282701D01*
X193405721Y-108118362D01*
X193494660Y-107903644D01*
X193494660Y-107511850D01*
X193348610Y-107365800D01*
X192488820Y-107365800D01*
X192133220Y-107365800D01*
X191273430Y-107365800D01*
X191127380Y-107511850D01*
X191045498Y-107511850D01*
X191045498Y-106588560D01*
X191029558Y-106503846D01*
X191009295Y-106472356D01*
X191127380Y-106472356D01*
X191127380Y-106864150D01*
X191273430Y-107010200D01*
X192133220Y-107010200D01*
X192133220Y-106150410D01*
X192488820Y-106150410D01*
X192488820Y-107010200D01*
X193348610Y-107010200D01*
X193494660Y-106864150D01*
X193494660Y-106472356D01*
X193405721Y-106257638D01*
X193241383Y-106093299D01*
X193026665Y-106004360D01*
X192634870Y-106004360D01*
X192488820Y-106150410D01*
X192133220Y-106150410D01*
X191987170Y-106004360D01*
X191595375Y-106004360D01*
X191380657Y-106093299D01*
X191216319Y-106257638D01*
X191127380Y-106472356D01*
X191009295Y-106472356D01*
X190979492Y-106426042D01*
X190903100Y-106373845D01*
X190812420Y-106355482D01*
X190746380Y-106355482D01*
X190746380Y-105228362D01*
X190748464Y-105226278D01*
X191627200Y-105226278D01*
X191711914Y-105210338D01*
X191789718Y-105160272D01*
X191841915Y-105083880D01*
X191860278Y-104993200D01*
X191860278Y-103693200D01*
X192594122Y-103693200D01*
X192594122Y-104993200D01*
X192610062Y-105077914D01*
X192660128Y-105155718D01*
X192736520Y-105207915D01*
X192827200Y-105226278D01*
X193705936Y-105226278D01*
X193878200Y-105398542D01*
X193878200Y-106728309D01*
X193840200Y-106819823D01*
X193840001Y-107047180D01*
X193926824Y-107257306D01*
X194087449Y-107418211D01*
X194297423Y-107505400D01*
X194524780Y-107505599D01*
X194734906Y-107418776D01*
X194895811Y-107258151D01*
X194983000Y-107048177D01*
X194983199Y-106820820D01*
X194945000Y-106728372D01*
X194945000Y-105177600D01*
X194904397Y-104973477D01*
X194788771Y-104800429D01*
X194560278Y-104571936D01*
X194560278Y-103693200D01*
X194544338Y-103608486D01*
X194494272Y-103530682D01*
X194417880Y-103478485D01*
X194327200Y-103460122D01*
X192827200Y-103460122D01*
X192742486Y-103476062D01*
X192664682Y-103526128D01*
X192612485Y-103602520D01*
X192594122Y-103693200D01*
X191860278Y-103693200D01*
X191844338Y-103608486D01*
X191794272Y-103530682D01*
X191717880Y-103478485D01*
X191627200Y-103460122D01*
X190127200Y-103460122D01*
X190042486Y-103476062D01*
X189964682Y-103526128D01*
X189912485Y-103602520D01*
X189894122Y-103693200D01*
X189894122Y-104571936D01*
X189835809Y-104630249D01*
X189720183Y-104803297D01*
X189679580Y-105007420D01*
X189679580Y-106355482D01*
X189613540Y-106355482D01*
X189528826Y-106371422D01*
X189451022Y-106421488D01*
X189398825Y-106497880D01*
X189380462Y-106588560D01*
X180365400Y-106588560D01*
X180365400Y-101468183D01*
X180421518Y-101432072D01*
X180473715Y-101355680D01*
X180492078Y-101265000D01*
X180492078Y-100491619D01*
X180492400Y-100490000D01*
X180695600Y-100490000D01*
X180695922Y-100491619D01*
X180695922Y-101265000D01*
X180711862Y-101349714D01*
X180761928Y-101427518D01*
X180838320Y-101479715D01*
X180929000Y-101498078D01*
X181529000Y-101498078D01*
X181613714Y-101482138D01*
X181691518Y-101432072D01*
X181743715Y-101355680D01*
X181762078Y-101265000D01*
X181762078Y-101023400D01*
X181803058Y-101023400D01*
X182611383Y-101831725D01*
X182649224Y-101923306D01*
X182809849Y-102084211D01*
X183019823Y-102171400D01*
X183247180Y-102171599D01*
X183457306Y-102084776D01*
X183618211Y-101924151D01*
X183705400Y-101714177D01*
X183705599Y-101486820D01*
X183618776Y-101276694D01*
X183458151Y-101115789D01*
X183365772Y-101077430D01*
X182401171Y-100112829D01*
X182228123Y-99997203D01*
X182024000Y-99956600D01*
X181762078Y-99956600D01*
X181762078Y-99715000D01*
X181746138Y-99630286D01*
X181696072Y-99552482D01*
X181619680Y-99500285D01*
X181529000Y-99481922D01*
X180929000Y-99481922D01*
X180844286Y-99497862D01*
X180766482Y-99547928D01*
X180714285Y-99624320D01*
X180695922Y-99715000D01*
X180695922Y-100488381D01*
X180695600Y-100490000D01*
X180492400Y-100490000D01*
X180492400Y-99407942D01*
X180814941Y-99085400D01*
X183340922Y-99085400D01*
X183340922Y-99202000D01*
X183356862Y-99286714D01*
X183406928Y-99364518D01*
X183483320Y-99416715D01*
X183574000Y-99435078D01*
X185074000Y-99435078D01*
X185158714Y-99419138D01*
X185236518Y-99369072D01*
X185288715Y-99292680D01*
X185307078Y-99202000D01*
X185307078Y-97902000D01*
X186040922Y-97902000D01*
X186040922Y-99202000D01*
X186056862Y-99286714D01*
X186106928Y-99364518D01*
X186183320Y-99416715D01*
X186274000Y-99435078D01*
X187152736Y-99435078D01*
X189186827Y-101469168D01*
X189186829Y-101469171D01*
X189290563Y-101538484D01*
X189359876Y-101584797D01*
X189380462Y-101588892D01*
X189380462Y-101691440D01*
X189396402Y-101776154D01*
X189446468Y-101853958D01*
X189522860Y-101906155D01*
X189613540Y-101924518D01*
X190812420Y-101924518D01*
X190897134Y-101908578D01*
X190974938Y-101858512D01*
X191027135Y-101782120D01*
X191045498Y-101691440D01*
X191045498Y-101415850D01*
X191127380Y-101415850D01*
X191127380Y-101807644D01*
X191216319Y-102022362D01*
X191380657Y-102186701D01*
X191595375Y-102275640D01*
X191987170Y-102275640D01*
X192133220Y-102129590D01*
X192133220Y-101269800D01*
X192488820Y-101269800D01*
X192488820Y-102129590D01*
X192634870Y-102275640D01*
X193026665Y-102275640D01*
X193241383Y-102186701D01*
X193405721Y-102022362D01*
X193494660Y-101807644D01*
X193494660Y-101415850D01*
X193348610Y-101269800D01*
X192488820Y-101269800D01*
X192133220Y-101269800D01*
X191273430Y-101269800D01*
X191127380Y-101415850D01*
X191045498Y-101415850D01*
X191045498Y-100492560D01*
X191029558Y-100407846D01*
X191009295Y-100376356D01*
X191127380Y-100376356D01*
X191127380Y-100768150D01*
X191273430Y-100914200D01*
X192133220Y-100914200D01*
X192133220Y-100054410D01*
X192488820Y-100054410D01*
X192488820Y-100914200D01*
X193348610Y-100914200D01*
X193494660Y-100768150D01*
X193494660Y-100376356D01*
X193405721Y-100161638D01*
X193241383Y-99997299D01*
X193026665Y-99908360D01*
X192634870Y-99908360D01*
X192488820Y-100054410D01*
X192133220Y-100054410D01*
X191987170Y-99908360D01*
X191595375Y-99908360D01*
X191380657Y-99997299D01*
X191216319Y-100161638D01*
X191127380Y-100376356D01*
X191009295Y-100376356D01*
X190979492Y-100330042D01*
X190903100Y-100277845D01*
X190812420Y-100259482D01*
X189613540Y-100259482D01*
X189528826Y-100275422D01*
X189512359Y-100286018D01*
X188007078Y-98780736D01*
X188007078Y-97902000D01*
X187991138Y-97817286D01*
X187941072Y-97739482D01*
X187864680Y-97687285D01*
X187774000Y-97668922D01*
X186274000Y-97668922D01*
X186189286Y-97684862D01*
X186111482Y-97734928D01*
X186059285Y-97811320D01*
X186040922Y-97902000D01*
X185307078Y-97902000D01*
X185291138Y-97817286D01*
X185241072Y-97739482D01*
X185164680Y-97687285D01*
X185074000Y-97668922D01*
X183574000Y-97668922D01*
X183489286Y-97684862D01*
X183411482Y-97734928D01*
X183359285Y-97811320D01*
X183340922Y-97902000D01*
X183340922Y-98018600D01*
X180594005Y-98018600D01*
X180594000Y-98018599D01*
X180389877Y-98059203D01*
X180216829Y-98174829D01*
X180216827Y-98174832D01*
X179581829Y-98809829D01*
X179466203Y-98982877D01*
X179425600Y-99187000D01*
X179425600Y-100283574D01*
X179339203Y-100412877D01*
X179298600Y-100617000D01*
X179298600Y-108377322D01*
X178714400Y-108377322D01*
X178629686Y-108393262D01*
X178551882Y-108443328D01*
X178499685Y-108519720D01*
X178481322Y-108610400D01*
X178481322Y-110845600D01*
X178497262Y-110930314D01*
X178547328Y-111008118D01*
X178623720Y-111060315D01*
X178714400Y-111078678D01*
X179298600Y-111078678D01*
X179298600Y-111666058D01*
X178849058Y-112115600D01*
X161891942Y-112115600D01*
X158583188Y-108806846D01*
X161192601Y-108806846D01*
X161268862Y-109028588D01*
X161780166Y-109187911D01*
X162313520Y-109139439D01*
X162581138Y-109028588D01*
X162657399Y-108806846D01*
X161925000Y-108074447D01*
X161192601Y-108806846D01*
X158583188Y-108806846D01*
X157824226Y-108047884D01*
X157835428Y-108020907D01*
X157835727Y-107678166D01*
X160560089Y-107678166D01*
X160608561Y-108211520D01*
X160719412Y-108479138D01*
X160941154Y-108555399D01*
X161673553Y-107823000D01*
X162176447Y-107823000D01*
X162908846Y-108555399D01*
X163130588Y-108479138D01*
X163289911Y-107967834D01*
X163241439Y-107434480D01*
X163130588Y-107166862D01*
X162908846Y-107090601D01*
X162176447Y-107823000D01*
X161673553Y-107823000D01*
X160941154Y-107090601D01*
X160719412Y-107166862D01*
X160560089Y-107678166D01*
X157835727Y-107678166D01*
X157835772Y-107626822D01*
X157685279Y-107262603D01*
X157406862Y-106983700D01*
X157058759Y-106839154D01*
X161192601Y-106839154D01*
X161925000Y-107571553D01*
X162657399Y-106839154D01*
X162581138Y-106617412D01*
X162069834Y-106458089D01*
X161536480Y-106506561D01*
X161268862Y-106617412D01*
X161192601Y-106839154D01*
X157058759Y-106839154D01*
X157042907Y-106832572D01*
X156648822Y-106832228D01*
X156620339Y-106843997D01*
X155919400Y-106143058D01*
X155919400Y-103886000D01*
X155919078Y-103884381D01*
X155919078Y-103536000D01*
X155903138Y-103451286D01*
X155853072Y-103373482D01*
X155776680Y-103321285D01*
X155686000Y-103302922D01*
X155086000Y-103302922D01*
X155001286Y-103318862D01*
X154923482Y-103368928D01*
X154871285Y-103445320D01*
X154870200Y-103450678D01*
X154870200Y-103419796D01*
X154781261Y-103205078D01*
X154616923Y-103040739D01*
X154402205Y-102951800D01*
X154282050Y-102951800D01*
X154136000Y-103097850D01*
X153836000Y-103097850D01*
X153689950Y-102951800D01*
X153569795Y-102951800D01*
X153355077Y-103040739D01*
X153190739Y-103205078D01*
X153101800Y-103419796D01*
X146001664Y-103419796D01*
X146087123Y-103402797D01*
X146193561Y-103331678D01*
X147929600Y-103331678D01*
X148014314Y-103315738D01*
X148092118Y-103265672D01*
X148144315Y-103189280D01*
X148162678Y-103098600D01*
X148162678Y-100863400D01*
X149525322Y-100863400D01*
X149525322Y-103098600D01*
X149541262Y-103183314D01*
X149591328Y-103261118D01*
X149667720Y-103313315D01*
X149758400Y-103331678D01*
X151993600Y-103331678D01*
X152078314Y-103315738D01*
X152156118Y-103265672D01*
X152208315Y-103189280D01*
X152226678Y-103098600D01*
X152226678Y-101458000D01*
X156289922Y-101458000D01*
X156289922Y-102758000D01*
X156305862Y-102842714D01*
X156355928Y-102920518D01*
X156432320Y-102972715D01*
X156523000Y-102991078D01*
X156739600Y-102991078D01*
X156739600Y-103425000D01*
X156780203Y-103629123D01*
X156895829Y-103802171D01*
X158499827Y-105406168D01*
X158499829Y-105406171D01*
X158640580Y-105500217D01*
X158672877Y-105521797D01*
X158877000Y-105562401D01*
X158877005Y-105562400D01*
X167894000Y-105562400D01*
X168098123Y-105521797D01*
X168271171Y-105406171D01*
X168630600Y-105046742D01*
X168630600Y-106426000D01*
X168671203Y-106630123D01*
X168786829Y-106803171D01*
X168959877Y-106918797D01*
X169164000Y-106959400D01*
X170994922Y-106959400D01*
X170994922Y-107051000D01*
X171010862Y-107135714D01*
X171060928Y-107213518D01*
X171137320Y-107265715D01*
X171228000Y-107284078D01*
X171444600Y-107284078D01*
X171444600Y-108377322D01*
X170840400Y-108377322D01*
X170755686Y-108393262D01*
X170677882Y-108443328D01*
X170625685Y-108519720D01*
X170607322Y-108610400D01*
X170607322Y-110845600D01*
X170623262Y-110930314D01*
X170673328Y-111008118D01*
X170749720Y-111060315D01*
X170840400Y-111078678D01*
X173075600Y-111078678D01*
X173160314Y-111062738D01*
X173238118Y-111012672D01*
X173290315Y-110936280D01*
X173308678Y-110845600D01*
X173308678Y-108610400D01*
X173292738Y-108525686D01*
X173242672Y-108447882D01*
X173166280Y-108395685D01*
X173075600Y-108377322D01*
X172511400Y-108377322D01*
X172511400Y-107284078D01*
X172728000Y-107284078D01*
X172812714Y-107268138D01*
X172890518Y-107218072D01*
X172942715Y-107141680D01*
X172961078Y-107051000D01*
X172961078Y-105801000D01*
X172945138Y-105716286D01*
X172895072Y-105638482D01*
X172818680Y-105586285D01*
X172728000Y-105567922D01*
X171228000Y-105567922D01*
X171143286Y-105583862D01*
X171065482Y-105633928D01*
X171013285Y-105710320D01*
X170994922Y-105801000D01*
X170994922Y-105892600D01*
X169697400Y-105892600D01*
X169697400Y-103979942D01*
X170187342Y-103490000D01*
X170640922Y-103490000D01*
X170640922Y-104790000D01*
X170656862Y-104874714D01*
X170706928Y-104952518D01*
X170783320Y-105004715D01*
X170874000Y-105023078D01*
X171956268Y-105023078D01*
X171978000Y-105027401D01*
X171999733Y-105023078D01*
X172374000Y-105023078D01*
X172458714Y-105007138D01*
X172536518Y-104957072D01*
X172588715Y-104880680D01*
X172607078Y-104790000D01*
X172607078Y-103490000D01*
X173340922Y-103490000D01*
X173340922Y-104790000D01*
X173356862Y-104874714D01*
X173406928Y-104952518D01*
X173483320Y-105004715D01*
X173574000Y-105023078D01*
X173790600Y-105023078D01*
X173790600Y-105567922D01*
X173728000Y-105567922D01*
X173643286Y-105583862D01*
X173565482Y-105633928D01*
X173513285Y-105710320D01*
X173494922Y-105801000D01*
X173494922Y-107051000D01*
X173510862Y-107135714D01*
X173560928Y-107213518D01*
X173637320Y-107265715D01*
X173728000Y-107284078D01*
X175228000Y-107284078D01*
X175312714Y-107268138D01*
X175390518Y-107218072D01*
X175442715Y-107141680D01*
X175461078Y-107051000D01*
X175461078Y-105801000D01*
X175445138Y-105716286D01*
X175395072Y-105638482D01*
X175318680Y-105586285D01*
X175228000Y-105567922D01*
X174857400Y-105567922D01*
X174857400Y-105023078D01*
X175074000Y-105023078D01*
X175158714Y-105007138D01*
X175236518Y-104957072D01*
X175288715Y-104880680D01*
X175307078Y-104790000D01*
X175307078Y-104673400D01*
X177038000Y-104673400D01*
X177242123Y-104632797D01*
X177415171Y-104517171D01*
X179066168Y-102866173D01*
X179066171Y-102866171D01*
X179181797Y-102693123D01*
X179184527Y-102679400D01*
X179222401Y-102489000D01*
X179222400Y-102488995D01*
X179222400Y-100490000D01*
X179222078Y-100488381D01*
X179222078Y-99715000D01*
X179206138Y-99630286D01*
X179156072Y-99552482D01*
X179079680Y-99500285D01*
X178989000Y-99481922D01*
X178389000Y-99481922D01*
X178304286Y-99497862D01*
X178270419Y-99519655D01*
X178214261Y-99384077D01*
X178049922Y-99219739D01*
X177835204Y-99130800D01*
X177715050Y-99130800D01*
X177569000Y-99276850D01*
X177569000Y-100312200D01*
X177616800Y-100312200D01*
X177616800Y-100667800D01*
X177569000Y-100667800D01*
X177569000Y-101703150D01*
X177715050Y-101849200D01*
X177835204Y-101849200D01*
X178049922Y-101760261D01*
X178155600Y-101654584D01*
X178155600Y-102268059D01*
X176817058Y-103606600D01*
X175307078Y-103606600D01*
X175307078Y-103490000D01*
X175291138Y-103405286D01*
X175241072Y-103327482D01*
X175164680Y-103275285D01*
X175074000Y-103256922D01*
X173574000Y-103256922D01*
X173489286Y-103272862D01*
X173411482Y-103322928D01*
X173359285Y-103399320D01*
X173340922Y-103490000D01*
X172607078Y-103490000D01*
X172591138Y-103405286D01*
X172541072Y-103327482D01*
X172464680Y-103275285D01*
X172374000Y-103256922D01*
X172157400Y-103256922D01*
X172157400Y-103170942D01*
X172697725Y-102630617D01*
X172789306Y-102592776D01*
X172950211Y-102432151D01*
X173037400Y-102222177D01*
X173037599Y-101994820D01*
X172950776Y-101784694D01*
X172790151Y-101623789D01*
X172580177Y-101536600D01*
X172352820Y-101536401D01*
X172142694Y-101623224D01*
X171981789Y-101783849D01*
X171943430Y-101876228D01*
X171246829Y-102572829D01*
X171131203Y-102745877D01*
X171090600Y-102950000D01*
X171090600Y-103256922D01*
X170874000Y-103256922D01*
X170789286Y-103272862D01*
X170711482Y-103322928D01*
X170659285Y-103399320D01*
X170640922Y-103490000D01*
X170187342Y-103490000D01*
X172863492Y-100813850D01*
X176534800Y-100813850D01*
X176534800Y-101381205D01*
X176623739Y-101595923D01*
X176788078Y-101760261D01*
X177002796Y-101849200D01*
X177122950Y-101849200D01*
X177269000Y-101703150D01*
X177269000Y-100667800D01*
X176680850Y-100667800D01*
X176534800Y-100813850D01*
X172863492Y-100813850D01*
X174078547Y-99598795D01*
X176534800Y-99598795D01*
X176534800Y-100166150D01*
X176680850Y-100312200D01*
X177269000Y-100312200D01*
X177269000Y-99276850D01*
X177122950Y-99130800D01*
X177002796Y-99130800D01*
X176788078Y-99219739D01*
X176623739Y-99384077D01*
X176534800Y-99598795D01*
X174078547Y-99598795D01*
X176369942Y-97307400D01*
X189687200Y-97307400D01*
X189891323Y-97266797D01*
X190064371Y-97151171D01*
X192469064Y-94746478D01*
X194056000Y-94746478D01*
X194140714Y-94730538D01*
X194218518Y-94680472D01*
X194270715Y-94604080D01*
X194289078Y-94513400D01*
X194289078Y-92405200D01*
X194273138Y-92320486D01*
X194223072Y-92242682D01*
X194146680Y-92190485D01*
X194056000Y-92172122D01*
X191947800Y-92172122D01*
X191863086Y-92188062D01*
X191785282Y-92238128D01*
X191733085Y-92314520D01*
X191714722Y-92405200D01*
X191714722Y-93992136D01*
X189466258Y-96240600D01*
X176149005Y-96240600D01*
X176149000Y-96240599D01*
X175944877Y-96281203D01*
X175771829Y-96396829D01*
X167673058Y-104495600D01*
X159097941Y-104495600D01*
X157806400Y-103204058D01*
X157806400Y-102991078D01*
X158023000Y-102991078D01*
X158107714Y-102975138D01*
X158185518Y-102925072D01*
X158237715Y-102848680D01*
X158256078Y-102758000D01*
X158256078Y-101458000D01*
X158989922Y-101458000D01*
X158989922Y-102758000D01*
X159005862Y-102842714D01*
X159055928Y-102920518D01*
X159132320Y-102972715D01*
X159223000Y-102991078D01*
X160723000Y-102991078D01*
X160807714Y-102975138D01*
X160885518Y-102925072D01*
X160937715Y-102848680D01*
X160956078Y-102758000D01*
X160956078Y-101458000D01*
X160940138Y-101373286D01*
X160890072Y-101295482D01*
X160813680Y-101243285D01*
X160723000Y-101224922D01*
X160514420Y-101224922D01*
X160666196Y-101073146D01*
X165338301Y-101073146D01*
X165400607Y-101283345D01*
X165871072Y-101423842D01*
X166359490Y-101373605D01*
X166577393Y-101283345D01*
X166639699Y-101073146D01*
X165989000Y-100422447D01*
X165338301Y-101073146D01*
X160666196Y-101073146D01*
X160886725Y-100852617D01*
X160978306Y-100814776D01*
X161139211Y-100654151D01*
X161226400Y-100444177D01*
X161226599Y-100216820D01*
X161158940Y-100053072D01*
X164736158Y-100053072D01*
X164786395Y-100541490D01*
X164876655Y-100759393D01*
X165086854Y-100821699D01*
X165737553Y-100171000D01*
X166240447Y-100171000D01*
X166891146Y-100821699D01*
X167101345Y-100759393D01*
X167241842Y-100288928D01*
X167191605Y-99800510D01*
X167101345Y-99582607D01*
X166891146Y-99520301D01*
X166240447Y-100171000D01*
X165737553Y-100171000D01*
X165086854Y-99520301D01*
X164876655Y-99582607D01*
X164736158Y-100053072D01*
X161158940Y-100053072D01*
X161139776Y-100006694D01*
X160979151Y-99845789D01*
X160769177Y-99758600D01*
X160541820Y-99758401D01*
X160331694Y-99845224D01*
X160170789Y-100005849D01*
X160132430Y-100098228D01*
X159595829Y-100634829D01*
X159480203Y-100807877D01*
X159439600Y-101012000D01*
X159439600Y-101224922D01*
X159223000Y-101224922D01*
X159138286Y-101240862D01*
X159060482Y-101290928D01*
X159008285Y-101367320D01*
X158989922Y-101458000D01*
X158256078Y-101458000D01*
X158240138Y-101373286D01*
X158190072Y-101295482D01*
X158113680Y-101243285D01*
X158023000Y-101224922D01*
X157806400Y-101224922D01*
X157806400Y-99470162D01*
X157837434Y-99439128D01*
X158116270Y-99439128D01*
X158200984Y-99423188D01*
X158278788Y-99373122D01*
X158330985Y-99296730D01*
X158349348Y-99206050D01*
X158349348Y-98405950D01*
X158333408Y-98321236D01*
X158283342Y-98243432D01*
X158206950Y-98191235D01*
X158116270Y-98172872D01*
X157316170Y-98172872D01*
X157231456Y-98188812D01*
X157153652Y-98238878D01*
X157101455Y-98315270D01*
X157083092Y-98405950D01*
X157083092Y-98684786D01*
X156895829Y-98872049D01*
X156780203Y-99045097D01*
X156739600Y-99249220D01*
X156739600Y-101224922D01*
X156523000Y-101224922D01*
X156438286Y-101240862D01*
X156360482Y-101290928D01*
X156308285Y-101367320D01*
X156289922Y-101458000D01*
X152226678Y-101458000D01*
X152226678Y-100863400D01*
X152210738Y-100778686D01*
X152160672Y-100700882D01*
X152084280Y-100648685D01*
X152075446Y-100646896D01*
X152642492Y-100079850D01*
X154732990Y-100079850D01*
X154732990Y-100272255D01*
X154821929Y-100486973D01*
X154986268Y-100651311D01*
X155200986Y-100740250D01*
X155393390Y-100740250D01*
X155539440Y-100594200D01*
X155539440Y-99933800D01*
X155895040Y-99933800D01*
X155895040Y-100594200D01*
X156041090Y-100740250D01*
X156233494Y-100740250D01*
X156448212Y-100651311D01*
X156612551Y-100486973D01*
X156701490Y-100272255D01*
X156701490Y-100079850D01*
X156555440Y-99933800D01*
X155895040Y-99933800D01*
X155539440Y-99933800D01*
X154879040Y-99933800D01*
X154732990Y-100079850D01*
X152642492Y-100079850D01*
X153482597Y-99239745D01*
X154732990Y-99239745D01*
X154732990Y-99432150D01*
X154879040Y-99578200D01*
X155539440Y-99578200D01*
X155539440Y-98917800D01*
X155895040Y-98917800D01*
X155895040Y-99578200D01*
X156555440Y-99578200D01*
X156701490Y-99432150D01*
X156701490Y-99239745D01*
X156612551Y-99025027D01*
X156448212Y-98860689D01*
X156233494Y-98771750D01*
X156041090Y-98771750D01*
X155895040Y-98917800D01*
X155539440Y-98917800D01*
X155393390Y-98771750D01*
X155200986Y-98771750D01*
X154986268Y-98860689D01*
X154821929Y-99025027D01*
X154732990Y-99239745D01*
X153482597Y-99239745D01*
X154332942Y-98389400D01*
X155131349Y-98389400D01*
X155150118Y-98418568D01*
X155226510Y-98470765D01*
X155317190Y-98489128D01*
X156117290Y-98489128D01*
X156202004Y-98473188D01*
X156279808Y-98423122D01*
X156332005Y-98346730D01*
X156350368Y-98256050D01*
X156350368Y-98149974D01*
X156430942Y-98069400D01*
X159644922Y-98069400D01*
X159644922Y-98747000D01*
X159660862Y-98831714D01*
X159710928Y-98909518D01*
X159787320Y-98961715D01*
X159878000Y-98980078D01*
X161178000Y-98980078D01*
X161262714Y-98964138D01*
X161340518Y-98914072D01*
X161392715Y-98837680D01*
X161411078Y-98747000D01*
X161411078Y-98704400D01*
X165105922Y-98704400D01*
X165105922Y-98821000D01*
X165121862Y-98905714D01*
X165171928Y-98983518D01*
X165248320Y-99035715D01*
X165339000Y-99054078D01*
X165411657Y-99054078D01*
X165400607Y-99058655D01*
X165338301Y-99268854D01*
X165989000Y-99919553D01*
X166639699Y-99268854D01*
X166577393Y-99058655D01*
X166562067Y-99054078D01*
X166639000Y-99054078D01*
X166723714Y-99038138D01*
X166801518Y-98988072D01*
X166853715Y-98911680D01*
X166872078Y-98821000D01*
X166872078Y-97521000D01*
X166856138Y-97436286D01*
X166806072Y-97358482D01*
X166729680Y-97306285D01*
X166639000Y-97287922D01*
X166442400Y-97287922D01*
X166442400Y-95498078D01*
X166659000Y-95498078D01*
X166743714Y-95482138D01*
X166821518Y-95432072D01*
X166873715Y-95355680D01*
X166892078Y-95265000D01*
X166892078Y-94938850D01*
X167274800Y-94938850D01*
X167274800Y-95381204D01*
X167363739Y-95595922D01*
X167528077Y-95760261D01*
X167742795Y-95849200D01*
X168285150Y-95849200D01*
X168431200Y-95703150D01*
X168431200Y-94792800D01*
X168786800Y-94792800D01*
X168786800Y-95703150D01*
X168932850Y-95849200D01*
X169475205Y-95849200D01*
X169689923Y-95760261D01*
X169854261Y-95595922D01*
X169943200Y-95381204D01*
X169943200Y-95109180D01*
X175069401Y-95109180D01*
X175156224Y-95319306D01*
X175316849Y-95480211D01*
X175526823Y-95567400D01*
X175754180Y-95567599D01*
X175846628Y-95529400D01*
X176885922Y-95529400D01*
X176885922Y-95865000D01*
X176901862Y-95949714D01*
X176951928Y-96027518D01*
X177028320Y-96079715D01*
X177119000Y-96098078D01*
X177719000Y-96098078D01*
X177803714Y-96082138D01*
X177881518Y-96032072D01*
X177933715Y-95955680D01*
X177952078Y-95865000D01*
X177952078Y-95091619D01*
X177952400Y-95090000D01*
X177952078Y-95088381D01*
X177952078Y-94315000D01*
X177936138Y-94230286D01*
X177886072Y-94152482D01*
X177809680Y-94100285D01*
X177719000Y-94081922D01*
X177119000Y-94081922D01*
X177034286Y-94097862D01*
X176956482Y-94147928D01*
X176904285Y-94224320D01*
X176885922Y-94315000D01*
X176885922Y-94462600D01*
X175846691Y-94462600D01*
X175755177Y-94424600D01*
X175527820Y-94424401D01*
X175317694Y-94511224D01*
X175156789Y-94671849D01*
X175069600Y-94881823D01*
X175069401Y-95109180D01*
X169943200Y-95109180D01*
X169943200Y-94938850D01*
X169797150Y-94792800D01*
X168786800Y-94792800D01*
X168431200Y-94792800D01*
X167420850Y-94792800D01*
X167274800Y-94938850D01*
X166892078Y-94938850D01*
X166892078Y-93965000D01*
X166876138Y-93880286D01*
X166855875Y-93848796D01*
X167274800Y-93848796D01*
X167274800Y-94291150D01*
X167420850Y-94437200D01*
X168431200Y-94437200D01*
X168431200Y-93526850D01*
X168786800Y-93526850D01*
X168786800Y-94437200D01*
X169797150Y-94437200D01*
X169943200Y-94291150D01*
X169943200Y-93848796D01*
X169854261Y-93634078D01*
X169689923Y-93469739D01*
X169475205Y-93380800D01*
X168932850Y-93380800D01*
X168786800Y-93526850D01*
X168431200Y-93526850D01*
X168285150Y-93380800D01*
X167742795Y-93380800D01*
X167528077Y-93469739D01*
X167363739Y-93634078D01*
X167274800Y-93848796D01*
X166855875Y-93848796D01*
X166826072Y-93802482D01*
X166749680Y-93750285D01*
X166659000Y-93731922D01*
X165159000Y-93731922D01*
X165074286Y-93747862D01*
X164996482Y-93797928D01*
X164944285Y-93874320D01*
X164925922Y-93965000D01*
X164925922Y-95265000D01*
X164941862Y-95349714D01*
X164991928Y-95427518D01*
X165068320Y-95479715D01*
X165159000Y-95498078D01*
X165375600Y-95498078D01*
X165375600Y-97287922D01*
X165339000Y-97287922D01*
X165254286Y-97303862D01*
X165176482Y-97353928D01*
X165124285Y-97430320D01*
X165105922Y-97521000D01*
X165105922Y-97637600D01*
X161411078Y-97637600D01*
X161411078Y-97247000D01*
X161395138Y-97162286D01*
X161345072Y-97084482D01*
X161268680Y-97032285D01*
X161178000Y-97013922D01*
X160123919Y-97013922D01*
X160067000Y-97002600D01*
X156210000Y-97002600D01*
X156005876Y-97043203D01*
X155832829Y-97158829D01*
X155768786Y-97222872D01*
X155317190Y-97222872D01*
X155232476Y-97238812D01*
X155154672Y-97288878D01*
X155131630Y-97322600D01*
X154112000Y-97322600D01*
X153907877Y-97363203D01*
X153734829Y-97478829D01*
X150583336Y-100630322D01*
X149758400Y-100630322D01*
X149673686Y-100646262D01*
X149595882Y-100696328D01*
X149543685Y-100772720D01*
X149525322Y-100863400D01*
X148162678Y-100863400D01*
X148146738Y-100778686D01*
X148096672Y-100700882D01*
X148020280Y-100648685D01*
X147929600Y-100630322D01*
X145694400Y-100630322D01*
X145609686Y-100646262D01*
X145531882Y-100696328D01*
X145479685Y-100772720D01*
X145461322Y-100863400D01*
X145461322Y-102376600D01*
X139724919Y-102376600D01*
X139535648Y-101918529D01*
X139043064Y-101425085D01*
X138399143Y-101157705D01*
X137701916Y-101157097D01*
X137057529Y-101423352D01*
X136564085Y-101915936D01*
X136296705Y-102559857D01*
X136296097Y-103257084D01*
X130478600Y-103257084D01*
X130478600Y-98571788D01*
X136763659Y-98571788D01*
X136933727Y-98872533D01*
X137721816Y-99159456D01*
X138559715Y-99122949D01*
X139164273Y-98872533D01*
X139334341Y-98571788D01*
X138049000Y-97286447D01*
X136763659Y-98571788D01*
X130478600Y-98571788D01*
X130478600Y-96707816D01*
X135924544Y-96707816D01*
X135961051Y-97545715D01*
X136211467Y-98150273D01*
X136512212Y-98320341D01*
X137797553Y-97035000D01*
X138300447Y-97035000D01*
X139585788Y-98320341D01*
X139886533Y-98150273D01*
X140173456Y-97362184D01*
X140136949Y-96524285D01*
X139886533Y-95919727D01*
X139585788Y-95749659D01*
X138300447Y-97035000D01*
X137797553Y-97035000D01*
X136512212Y-95749659D01*
X136211467Y-95919727D01*
X135924544Y-96707816D01*
X130478600Y-96707816D01*
X130478600Y-95498212D01*
X136763659Y-95498212D01*
X138049000Y-96783553D01*
X139334341Y-95498212D01*
X139164273Y-95197467D01*
X138376184Y-94910544D01*
X137538285Y-94947051D01*
X136933727Y-95197467D01*
X136763659Y-95498212D01*
X130478600Y-95498212D01*
X130478600Y-94092000D01*
X143081922Y-94092000D01*
X143081922Y-95392000D01*
X143097862Y-95476714D01*
X143147928Y-95554518D01*
X143224320Y-95606715D01*
X143315000Y-95625078D01*
X143531600Y-95625078D01*
X143531600Y-96201121D01*
X143446600Y-96405823D01*
X143446401Y-96633180D01*
X143533224Y-96843306D01*
X143693849Y-97004211D01*
X143903823Y-97091400D01*
X144131180Y-97091599D01*
X144341306Y-97004776D01*
X144502211Y-96844151D01*
X144589400Y-96634177D01*
X144589502Y-96517733D01*
X144598400Y-96473000D01*
X144598400Y-95625078D01*
X144815000Y-95625078D01*
X144899714Y-95609138D01*
X144977518Y-95559072D01*
X145029715Y-95482680D01*
X145048078Y-95392000D01*
X145048078Y-94092000D01*
X145032138Y-94007286D01*
X144982072Y-93929482D01*
X144905680Y-93877285D01*
X144815000Y-93858922D01*
X143315000Y-93858922D01*
X143230286Y-93874862D01*
X143152482Y-93924928D01*
X143100285Y-94001320D01*
X143081922Y-94092000D01*
X130478600Y-94092000D01*
X130478600Y-92382084D01*
X136296097Y-92382084D01*
X136562352Y-93026471D01*
X137054936Y-93519915D01*
X137698857Y-93787295D01*
X138396084Y-93787903D01*
X139040471Y-93521648D01*
X139533915Y-93029064D01*
X139725200Y-92568400D01*
X143081922Y-92568400D01*
X143081922Y-92852000D01*
X143097862Y-92936714D01*
X143147928Y-93014518D01*
X143224320Y-93066715D01*
X143315000Y-93085078D01*
X144815000Y-93085078D01*
X144899714Y-93069138D01*
X144977518Y-93019072D01*
X145029715Y-92942680D01*
X145048078Y-92852000D01*
X145048078Y-91552000D01*
X145781922Y-91552000D01*
X145781922Y-92852000D01*
X145797862Y-92936714D01*
X145847928Y-93014518D01*
X145924320Y-93066715D01*
X146015000Y-93085078D01*
X146231600Y-93085078D01*
X146231600Y-93858922D01*
X146015000Y-93858922D01*
X145930286Y-93874862D01*
X145852482Y-93924928D01*
X145800285Y-94001320D01*
X145781922Y-94092000D01*
X145781922Y-95392000D01*
X145797862Y-95476714D01*
X145847928Y-95554518D01*
X145924320Y-95606715D01*
X146015000Y-95625078D01*
X147515000Y-95625078D01*
X147599714Y-95609138D01*
X147677518Y-95559072D01*
X147729715Y-95482680D01*
X147748078Y-95392000D01*
X147748078Y-95275400D01*
X149163000Y-95275400D01*
X149367123Y-95234797D01*
X149399628Y-95213078D01*
X149575000Y-95213078D01*
X149659714Y-95197138D01*
X149737518Y-95147072D01*
X149789715Y-95070680D01*
X149808078Y-94980000D01*
X149808078Y-94664850D01*
X151952800Y-94664850D01*
X151952800Y-95207205D01*
X152041739Y-95421923D01*
X152206078Y-95586261D01*
X152420796Y-95675200D01*
X152838150Y-95675200D01*
X152984200Y-95529150D01*
X152984200Y-94518800D01*
X153339800Y-94518800D01*
X153339800Y-95529150D01*
X153485850Y-95675200D01*
X153903204Y-95675200D01*
X154117922Y-95586261D01*
X154282261Y-95421923D01*
X154371200Y-95207205D01*
X154371200Y-94664850D01*
X154619800Y-94664850D01*
X154619800Y-95207205D01*
X154708739Y-95421923D01*
X154873078Y-95586261D01*
X155087796Y-95675200D01*
X155505150Y-95675200D01*
X155651200Y-95529150D01*
X155651200Y-94518800D01*
X156006800Y-94518800D01*
X156006800Y-95529150D01*
X156152850Y-95675200D01*
X156570204Y-95675200D01*
X156784922Y-95586261D01*
X156949261Y-95421923D01*
X157038200Y-95207205D01*
X157038200Y-94664850D01*
X156892150Y-94518800D01*
X156006800Y-94518800D01*
X155651200Y-94518800D01*
X154765850Y-94518800D01*
X154619800Y-94664850D01*
X154371200Y-94664850D01*
X154225150Y-94518800D01*
X153339800Y-94518800D01*
X152984200Y-94518800D01*
X152098850Y-94518800D01*
X151952800Y-94664850D01*
X149808078Y-94664850D01*
X149808078Y-94380000D01*
X149792138Y-94295286D01*
X149742072Y-94217482D01*
X149665680Y-94165285D01*
X149660322Y-94164200D01*
X149691204Y-94164200D01*
X149905922Y-94075261D01*
X150070261Y-93910923D01*
X150159200Y-93696205D01*
X150159200Y-93576050D01*
X150057945Y-93474795D01*
X151952800Y-93474795D01*
X151952800Y-94017150D01*
X152098850Y-94163200D01*
X152984200Y-94163200D01*
X152984200Y-93152850D01*
X153339800Y-93152850D01*
X153339800Y-94163200D01*
X154225150Y-94163200D01*
X154371200Y-94017150D01*
X154371200Y-93474795D01*
X154619800Y-93474795D01*
X154619800Y-94017150D01*
X154765850Y-94163200D01*
X155651200Y-94163200D01*
X155651200Y-93152850D01*
X156006800Y-93152850D01*
X156006800Y-94163200D01*
X156892150Y-94163200D01*
X157038200Y-94017150D01*
X157038200Y-93474795D01*
X156949261Y-93260077D01*
X156784922Y-93095739D01*
X156570204Y-93006800D01*
X156152850Y-93006800D01*
X156006800Y-93152850D01*
X155651200Y-93152850D01*
X155505150Y-93006800D01*
X155087796Y-93006800D01*
X154873078Y-93095739D01*
X154708739Y-93260077D01*
X154619800Y-93474795D01*
X154371200Y-93474795D01*
X154282261Y-93260077D01*
X154117922Y-93095739D01*
X153903204Y-93006800D01*
X153485850Y-93006800D01*
X153339800Y-93152850D01*
X152984200Y-93152850D01*
X152838150Y-93006800D01*
X152420796Y-93006800D01*
X152206078Y-93095739D01*
X152041739Y-93260077D01*
X151952800Y-93474795D01*
X150057945Y-93474795D01*
X150013150Y-93430000D01*
X149400000Y-93430000D01*
X149400000Y-93477800D01*
X149050000Y-93477800D01*
X149050000Y-93430000D01*
X148436850Y-93430000D01*
X148290800Y-93576050D01*
X148290800Y-93696205D01*
X148379739Y-93910923D01*
X148544078Y-94075261D01*
X148758796Y-94164200D01*
X148788207Y-94164200D01*
X148719208Y-94208600D01*
X147748078Y-94208600D01*
X147748078Y-94092000D01*
X147732138Y-94007286D01*
X147682072Y-93929482D01*
X147605680Y-93877285D01*
X147515000Y-93858922D01*
X147298400Y-93858922D01*
X147298400Y-93085078D01*
X147515000Y-93085078D01*
X147599714Y-93069138D01*
X147677518Y-93019072D01*
X147729715Y-92942680D01*
X147745689Y-92863795D01*
X148290800Y-92863795D01*
X148290800Y-92983950D01*
X148436850Y-93130000D01*
X149050000Y-93130000D01*
X149050000Y-92541850D01*
X149400000Y-92541850D01*
X149400000Y-93130000D01*
X150013150Y-93130000D01*
X150159200Y-92983950D01*
X150159200Y-92863795D01*
X150070261Y-92649077D01*
X149905922Y-92484739D01*
X149691204Y-92395800D01*
X149546050Y-92395800D01*
X149400000Y-92541850D01*
X149050000Y-92541850D01*
X148903950Y-92395800D01*
X148758796Y-92395800D01*
X148544078Y-92484739D01*
X148379739Y-92649077D01*
X148290800Y-92863795D01*
X147745689Y-92863795D01*
X147748078Y-92852000D01*
X147748078Y-91552000D01*
X147732138Y-91467286D01*
X147682072Y-91389482D01*
X147605680Y-91337285D01*
X147515000Y-91318922D01*
X146015000Y-91318922D01*
X145930286Y-91334862D01*
X145852482Y-91384928D01*
X145800285Y-91461320D01*
X145781922Y-91552000D01*
X145048078Y-91552000D01*
X145032138Y-91467286D01*
X144982072Y-91389482D01*
X144905680Y-91337285D01*
X144815000Y-91318922D01*
X144306045Y-91318922D01*
X144218766Y-91260604D01*
X143898000Y-91196800D01*
X143577234Y-91260604D01*
X143489955Y-91318922D01*
X143315000Y-91318922D01*
X143230286Y-91334862D01*
X143152482Y-91384928D01*
X143100285Y-91461320D01*
X143092128Y-91501600D01*
X139724919Y-91501600D01*
X139535648Y-91043529D01*
X139043064Y-90550085D01*
X138399143Y-90282705D01*
X137701916Y-90282097D01*
X137057529Y-90548352D01*
X136564085Y-91040936D01*
X136296705Y-91684857D01*
X136296097Y-92382084D01*
X130478600Y-92382084D01*
X130478600Y-87382084D01*
X136296097Y-87382084D01*
X136562352Y-88026471D01*
X137054936Y-88519915D01*
X137698857Y-88787295D01*
X138396084Y-88787903D01*
X139040471Y-88521648D01*
X139533915Y-88029064D01*
X139801295Y-87385143D01*
X139801680Y-86944200D01*
X142949322Y-86944200D01*
X142949322Y-87856000D01*
X142965262Y-87940714D01*
X143015328Y-88018518D01*
X143091720Y-88070715D01*
X143182400Y-88089078D01*
X146682400Y-88089078D01*
X146767114Y-88073138D01*
X146844918Y-88023072D01*
X146897115Y-87946680D01*
X146915478Y-87856000D01*
X146915478Y-84356000D01*
X149756522Y-84356000D01*
X149756522Y-87856000D01*
X149772462Y-87940714D01*
X149822528Y-88018518D01*
X149898920Y-88070715D01*
X149989600Y-88089078D01*
X152323800Y-88089078D01*
X152323800Y-90998103D01*
X152322285Y-91000320D01*
X152303922Y-91091000D01*
X152303922Y-92591000D01*
X152319862Y-92675714D01*
X152369928Y-92753518D01*
X152446320Y-92805715D01*
X152537000Y-92824078D01*
X153787000Y-92824078D01*
X153871714Y-92808138D01*
X153949518Y-92758072D01*
X154001715Y-92681680D01*
X154020078Y-92591000D01*
X154020078Y-92374400D01*
X154970922Y-92374400D01*
X154970922Y-92591000D01*
X154986862Y-92675714D01*
X155036928Y-92753518D01*
X155113320Y-92805715D01*
X155204000Y-92824078D01*
X156454000Y-92824078D01*
X156538714Y-92808138D01*
X156616518Y-92758072D01*
X156668715Y-92681680D01*
X156687078Y-92591000D01*
X156687078Y-92374400D01*
X157430063Y-92374400D01*
X157423285Y-92384320D01*
X157404922Y-92475000D01*
X157404922Y-93075000D01*
X157420862Y-93159714D01*
X157454600Y-93212144D01*
X157454600Y-94234000D01*
X157495203Y-94438123D01*
X157610829Y-94611171D01*
X158673829Y-95674171D01*
X158846877Y-95789797D01*
X159051000Y-95830400D01*
X159644922Y-95830400D01*
X159644922Y-96047000D01*
X159660862Y-96131714D01*
X159710928Y-96209518D01*
X159787320Y-96261715D01*
X159878000Y-96280078D01*
X161178000Y-96280078D01*
X161262714Y-96264138D01*
X161340518Y-96214072D01*
X161392715Y-96137680D01*
X161411078Y-96047000D01*
X161411078Y-94547000D01*
X161395138Y-94462286D01*
X161345072Y-94384482D01*
X161268680Y-94332285D01*
X161178000Y-94313922D01*
X159878000Y-94313922D01*
X159793286Y-94329862D01*
X159715482Y-94379928D01*
X159663285Y-94456320D01*
X159644922Y-94547000D01*
X159644922Y-94763600D01*
X159271942Y-94763600D01*
X158521400Y-94013058D01*
X158521400Y-93211511D01*
X158552715Y-93165680D01*
X158571078Y-93075000D01*
X158571078Y-92475000D01*
X158555138Y-92390286D01*
X158505072Y-92312482D01*
X158428680Y-92260285D01*
X158338000Y-92241922D01*
X157989619Y-92241922D01*
X157988000Y-92241600D01*
X157986381Y-92241922D01*
X157863625Y-92241922D01*
X157899171Y-92218171D01*
X158209263Y-91908078D01*
X158338000Y-91908078D01*
X158422714Y-91892138D01*
X158500518Y-91842072D01*
X158552715Y-91765680D01*
X158571078Y-91675000D01*
X158571078Y-91255850D01*
X172945800Y-91255850D01*
X172945800Y-91848204D01*
X173034739Y-92062922D01*
X173199077Y-92227261D01*
X173413795Y-92316200D01*
X174206150Y-92316200D01*
X174352200Y-92170150D01*
X174352200Y-91109800D01*
X174707800Y-91109800D01*
X174707800Y-92170150D01*
X174853850Y-92316200D01*
X175646205Y-92316200D01*
X175860923Y-92227261D01*
X176025261Y-92062922D01*
X176114200Y-91848204D01*
X176114200Y-91255850D01*
X175968150Y-91109800D01*
X174707800Y-91109800D01*
X174352200Y-91109800D01*
X173091850Y-91109800D01*
X172945800Y-91255850D01*
X158571078Y-91255850D01*
X158571078Y-91075000D01*
X158555138Y-90990286D01*
X158505072Y-90912482D01*
X158428680Y-90860285D01*
X158338000Y-90841922D01*
X157989624Y-90841922D01*
X157988000Y-90841599D01*
X157986376Y-90841922D01*
X157638000Y-90841922D01*
X157553286Y-90857862D01*
X157475482Y-90907928D01*
X157423285Y-90984320D01*
X157404922Y-91075000D01*
X157404922Y-91203737D01*
X157301058Y-91307600D01*
X156687078Y-91307600D01*
X156687078Y-91091000D01*
X156671138Y-91006286D01*
X156621072Y-90928482D01*
X156544680Y-90876285D01*
X156454000Y-90857922D01*
X155204000Y-90857922D01*
X155119286Y-90873862D01*
X155041482Y-90923928D01*
X154989285Y-91000320D01*
X154970922Y-91091000D01*
X154970922Y-91307600D01*
X154020078Y-91307600D01*
X154020078Y-91091000D01*
X154004138Y-91006286D01*
X154000200Y-91000166D01*
X154000200Y-90484146D01*
X163560301Y-90484146D01*
X163622607Y-90694345D01*
X164093072Y-90834842D01*
X164581490Y-90784605D01*
X164799393Y-90694345D01*
X164861699Y-90484146D01*
X164211000Y-89833447D01*
X163560301Y-90484146D01*
X154000200Y-90484146D01*
X154000200Y-89464072D01*
X162958158Y-89464072D01*
X163008395Y-89952490D01*
X163098655Y-90170393D01*
X163308854Y-90232699D01*
X163959553Y-89582000D01*
X164462447Y-89582000D01*
X165113146Y-90232699D01*
X165323345Y-90170393D01*
X165369512Y-90015796D01*
X172945800Y-90015796D01*
X172945800Y-90608150D01*
X173091850Y-90754200D01*
X174352200Y-90754200D01*
X174352200Y-89693850D01*
X174707800Y-89693850D01*
X174707800Y-90754200D01*
X175968150Y-90754200D01*
X176114200Y-90608150D01*
X176114200Y-90132000D01*
X177296922Y-90132000D01*
X177296922Y-91732000D01*
X177312862Y-91816714D01*
X177362928Y-91894518D01*
X177439320Y-91946715D01*
X177530000Y-91965078D01*
X177996600Y-91965078D01*
X177996600Y-94931000D01*
X178037203Y-95135123D01*
X178152829Y-95308171D01*
X178155922Y-95311264D01*
X178155922Y-95865000D01*
X178171862Y-95949714D01*
X178221928Y-96027518D01*
X178298320Y-96079715D01*
X178389000Y-96098078D01*
X178989000Y-96098078D01*
X179073714Y-96082138D01*
X179151518Y-96032072D01*
X179203715Y-95955680D01*
X179222078Y-95865000D01*
X179222078Y-95623400D01*
X179425922Y-95623400D01*
X179425922Y-95865000D01*
X179441862Y-95949714D01*
X179491928Y-96027518D01*
X179568320Y-96079715D01*
X179659000Y-96098078D01*
X180259000Y-96098078D01*
X180343714Y-96082138D01*
X180421518Y-96032072D01*
X180473715Y-95955680D01*
X180492078Y-95865000D01*
X180492078Y-95091619D01*
X180492400Y-95090000D01*
X180695600Y-95090000D01*
X180695922Y-95091619D01*
X180695922Y-95865000D01*
X180711862Y-95949714D01*
X180761928Y-96027518D01*
X180838320Y-96079715D01*
X180929000Y-96098078D01*
X181529000Y-96098078D01*
X181613714Y-96082138D01*
X181691518Y-96032072D01*
X181743715Y-95955680D01*
X181762078Y-95865000D01*
X181762078Y-95623400D01*
X183040000Y-95623400D01*
X183244123Y-95582797D01*
X183417171Y-95467171D01*
X184781171Y-94103171D01*
X184896797Y-93930124D01*
X184937400Y-93726000D01*
X184937400Y-92405200D01*
X187218922Y-92405200D01*
X187218922Y-94513400D01*
X187234862Y-94598114D01*
X187284928Y-94675918D01*
X187361320Y-94728115D01*
X187452000Y-94746478D01*
X189560200Y-94746478D01*
X189644914Y-94730538D01*
X189722718Y-94680472D01*
X189774915Y-94604080D01*
X189793278Y-94513400D01*
X189793278Y-92405200D01*
X189777338Y-92320486D01*
X189727272Y-92242682D01*
X189650880Y-92190485D01*
X189560200Y-92172122D01*
X187452000Y-92172122D01*
X187367286Y-92188062D01*
X187289482Y-92238128D01*
X187237285Y-92314520D01*
X187218922Y-92405200D01*
X184937400Y-92405200D01*
X184937400Y-92149078D01*
X185029000Y-92149078D01*
X185113714Y-92133138D01*
X185191518Y-92083072D01*
X185243715Y-92006680D01*
X185262078Y-91916000D01*
X185262078Y-90416000D01*
X185246138Y-90331286D01*
X185196072Y-90253482D01*
X185119680Y-90201285D01*
X185029000Y-90182922D01*
X183779000Y-90182922D01*
X183694286Y-90198862D01*
X183616482Y-90248928D01*
X183564285Y-90325320D01*
X183545922Y-90416000D01*
X183545922Y-91916000D01*
X183561862Y-92000714D01*
X183611928Y-92078518D01*
X183688320Y-92130715D01*
X183779000Y-92149078D01*
X183870600Y-92149078D01*
X183870600Y-93505058D01*
X182819058Y-94556600D01*
X181762078Y-94556600D01*
X181762078Y-94315000D01*
X181746138Y-94230286D01*
X181696072Y-94152482D01*
X181619680Y-94100285D01*
X181529000Y-94081922D01*
X180929000Y-94081922D01*
X180844286Y-94097862D01*
X180766482Y-94147928D01*
X180714285Y-94224320D01*
X180695922Y-94315000D01*
X180695922Y-95088381D01*
X180695600Y-95090000D01*
X180492400Y-95090000D01*
X180492400Y-94073942D01*
X181987168Y-92579173D01*
X181987171Y-92579171D01*
X182102797Y-92406123D01*
X182118900Y-92325170D01*
X182143401Y-92202000D01*
X182143400Y-92201995D01*
X182143400Y-91995078D01*
X182260000Y-91995078D01*
X182344714Y-91979138D01*
X182422518Y-91929072D01*
X182474715Y-91852680D01*
X182493078Y-91762000D01*
X182493078Y-90262000D01*
X182477138Y-90177286D01*
X182427072Y-90099482D01*
X182350680Y-90047285D01*
X182260000Y-90028922D01*
X180960000Y-90028922D01*
X180875286Y-90044862D01*
X180797482Y-90094928D01*
X180745285Y-90171320D01*
X180726922Y-90262000D01*
X180726922Y-90398600D01*
X179763078Y-90398600D01*
X179763078Y-90132000D01*
X179747138Y-90047286D01*
X179697072Y-89969482D01*
X179620680Y-89917285D01*
X179530000Y-89898922D01*
X177530000Y-89898922D01*
X177445286Y-89914862D01*
X177367482Y-89964928D01*
X177315285Y-90041320D01*
X177296922Y-90132000D01*
X176114200Y-90132000D01*
X176114200Y-90015796D01*
X176025261Y-89801078D01*
X175860923Y-89636739D01*
X175646205Y-89547800D01*
X174853850Y-89547800D01*
X174707800Y-89693850D01*
X174352200Y-89693850D01*
X174206150Y-89547800D01*
X173413795Y-89547800D01*
X173199077Y-89636739D01*
X173034739Y-89801078D01*
X172945800Y-90015796D01*
X165369512Y-90015796D01*
X165463842Y-89699928D01*
X165413605Y-89211510D01*
X165323345Y-88993607D01*
X165113146Y-88931301D01*
X164462447Y-89582000D01*
X163959553Y-89582000D01*
X163308854Y-88931301D01*
X163098655Y-88993607D01*
X162958158Y-89464072D01*
X154000200Y-89464072D01*
X154000200Y-88679854D01*
X163560301Y-88679854D01*
X164211000Y-89330553D01*
X164861699Y-88679854D01*
X164799393Y-88469655D01*
X164328928Y-88329158D01*
X163840510Y-88379395D01*
X163622607Y-88469655D01*
X163560301Y-88679854D01*
X154000200Y-88679854D01*
X154000200Y-88060850D01*
X173161800Y-88060850D01*
X173161800Y-88603205D01*
X173250739Y-88817923D01*
X173415078Y-88982261D01*
X173629796Y-89071200D01*
X174047150Y-89071200D01*
X174193200Y-88925150D01*
X174193200Y-87914800D01*
X174548800Y-87914800D01*
X174548800Y-88925150D01*
X174694850Y-89071200D01*
X175112204Y-89071200D01*
X175326922Y-88982261D01*
X175491261Y-88817923D01*
X175580200Y-88603205D01*
X175580200Y-88251180D01*
X178244401Y-88251180D01*
X178331224Y-88461306D01*
X178491849Y-88622211D01*
X178584228Y-88660570D01*
X178612829Y-88689171D01*
X178785877Y-88804797D01*
X178990000Y-88845400D01*
X180726922Y-88845400D01*
X180726922Y-89062000D01*
X180742862Y-89146714D01*
X180792928Y-89224518D01*
X180869320Y-89276715D01*
X180960000Y-89295078D01*
X182260000Y-89295078D01*
X182344714Y-89279138D01*
X182422518Y-89229072D01*
X182474715Y-89152680D01*
X182493078Y-89062000D01*
X182493078Y-88989850D01*
X183194800Y-88989850D01*
X183194800Y-89532205D01*
X183283739Y-89746923D01*
X183448078Y-89911261D01*
X183662796Y-90000200D01*
X184080150Y-90000200D01*
X184226200Y-89854150D01*
X184226200Y-88843800D01*
X184581800Y-88843800D01*
X184581800Y-89854150D01*
X184727850Y-90000200D01*
X185145204Y-90000200D01*
X185359922Y-89911261D01*
X185524261Y-89746923D01*
X185613200Y-89532205D01*
X185613200Y-88989850D01*
X185467150Y-88843800D01*
X184581800Y-88843800D01*
X184226200Y-88843800D01*
X183340850Y-88843800D01*
X183194800Y-88989850D01*
X182493078Y-88989850D01*
X182493078Y-87799795D01*
X183194800Y-87799795D01*
X183194800Y-88342150D01*
X183340850Y-88488200D01*
X184226200Y-88488200D01*
X184226200Y-87477850D01*
X184581800Y-87477850D01*
X184581800Y-88488200D01*
X185467150Y-88488200D01*
X185613200Y-88342150D01*
X185613200Y-87799795D01*
X185524261Y-87585077D01*
X185359922Y-87420739D01*
X185145204Y-87331800D01*
X184727850Y-87331800D01*
X184581800Y-87477850D01*
X184226200Y-87477850D01*
X184080150Y-87331800D01*
X183662796Y-87331800D01*
X183448078Y-87420739D01*
X183283739Y-87585077D01*
X183194800Y-87799795D01*
X182493078Y-87799795D01*
X182493078Y-87562000D01*
X182477138Y-87477286D01*
X182427072Y-87399482D01*
X182350680Y-87347285D01*
X182260000Y-87328922D01*
X180960000Y-87328922D01*
X180875286Y-87344862D01*
X180797482Y-87394928D01*
X180745285Y-87471320D01*
X180726922Y-87562000D01*
X180726922Y-87778600D01*
X179264745Y-87778600D01*
X179140151Y-87653789D01*
X178930177Y-87566600D01*
X178702820Y-87566401D01*
X178492694Y-87653224D01*
X178331789Y-87813849D01*
X178244600Y-88023823D01*
X178244401Y-88251180D01*
X175580200Y-88251180D01*
X175580200Y-88060850D01*
X175434150Y-87914800D01*
X174548800Y-87914800D01*
X174193200Y-87914800D01*
X173307850Y-87914800D01*
X173161800Y-88060850D01*
X154000200Y-88060850D01*
X154000200Y-87528400D01*
X153973651Y-87394928D01*
X153936396Y-87207634D01*
X153754697Y-86935703D01*
X153722678Y-86903684D01*
X153722678Y-86870795D01*
X173161800Y-86870795D01*
X173161800Y-87413150D01*
X173307850Y-87559200D01*
X174193200Y-87559200D01*
X174193200Y-86548850D01*
X174548800Y-86548850D01*
X174548800Y-87559200D01*
X175434150Y-87559200D01*
X175580200Y-87413150D01*
X175580200Y-86870795D01*
X175491261Y-86656077D01*
X175326922Y-86491739D01*
X175112204Y-86402800D01*
X174694850Y-86402800D01*
X174548800Y-86548850D01*
X174193200Y-86548850D01*
X174047150Y-86402800D01*
X173629796Y-86402800D01*
X173415078Y-86491739D01*
X173250739Y-86656077D01*
X173161800Y-86870795D01*
X153722678Y-86870795D01*
X153722678Y-84356000D01*
X153706738Y-84271286D01*
X153656672Y-84193482D01*
X153580280Y-84141285D01*
X153489600Y-84122922D01*
X149989600Y-84122922D01*
X149904886Y-84138862D01*
X149827082Y-84188928D01*
X149774885Y-84265320D01*
X149756522Y-84356000D01*
X146915478Y-84356000D01*
X146899538Y-84271286D01*
X146849472Y-84193482D01*
X146773080Y-84141285D01*
X146682400Y-84122922D01*
X143182400Y-84122922D01*
X143097686Y-84138862D01*
X143019882Y-84188928D01*
X142967685Y-84265320D01*
X142949322Y-84356000D01*
X142949322Y-85267800D01*
X138978000Y-85267800D01*
X138657235Y-85331604D01*
X138603451Y-85367541D01*
X138399143Y-85282705D01*
X137701916Y-85282097D01*
X137057529Y-85548352D01*
X136564085Y-86040936D01*
X136296705Y-86684857D01*
X136296097Y-87382084D01*
X130478600Y-87382084D01*
X130478600Y-81460084D01*
X136296097Y-81460084D01*
X136562352Y-82104471D01*
X137054936Y-82597915D01*
X137698857Y-82865295D01*
X138396084Y-82865903D01*
X138888837Y-82662302D01*
X154123040Y-82662302D01*
X154124138Y-82663402D01*
X154488093Y-82814530D01*
X154882178Y-82814874D01*
X155246397Y-82664381D01*
X155525300Y-82385964D01*
X155676428Y-82022009D01*
X155676772Y-81627924D01*
X155526279Y-81263705D01*
X155247862Y-80984802D01*
X154883907Y-80833674D01*
X154489822Y-80833330D01*
X154125603Y-80983823D01*
X154123520Y-80985902D01*
X139801711Y-80985902D01*
X139801903Y-80765916D01*
X139535648Y-80121529D01*
X139043064Y-79628085D01*
X138399143Y-79360705D01*
X137701916Y-79360097D01*
X137057529Y-79626352D01*
X136564085Y-80118936D01*
X136296705Y-80762857D01*
X136296097Y-81460084D01*
X130478600Y-81460084D01*
X130478600Y-78620520D01*
X149777459Y-78620520D01*
X150026347Y-79094725D01*
X150437760Y-79437588D01*
X150705378Y-79548439D01*
X150916098Y-79445568D01*
X150916098Y-78409800D01*
X151271698Y-78409800D01*
X151271698Y-79445568D01*
X151482418Y-79548439D01*
X151956623Y-79299551D01*
X152299486Y-78888138D01*
X152410337Y-78620520D01*
X152307466Y-78409800D01*
X151271698Y-78409800D01*
X150916098Y-78409800D01*
X149880330Y-78409800D01*
X149777459Y-78620520D01*
X130478600Y-78620520D01*
X130478600Y-76460084D01*
X136296097Y-76460084D01*
X136562352Y-77104471D01*
X137054936Y-77597915D01*
X137698857Y-77865295D01*
X138396084Y-77865903D01*
X138800989Y-77698600D01*
X143276922Y-77698600D01*
X143276922Y-77876400D01*
X143292862Y-77961114D01*
X143342928Y-78038918D01*
X143419320Y-78091115D01*
X143510000Y-78109478D01*
X145542000Y-78109478D01*
X145626714Y-78093538D01*
X145704518Y-78043472D01*
X145756715Y-77967080D01*
X145775078Y-77876400D01*
X145775078Y-76836017D01*
X145821400Y-76836017D01*
X145821400Y-76884783D01*
X145916140Y-77361071D01*
X146185935Y-77764848D01*
X146589712Y-78034643D01*
X147066000Y-78129383D01*
X147542288Y-78034643D01*
X147828383Y-77843480D01*
X149777459Y-77843480D01*
X149880330Y-78054200D01*
X150916098Y-78054200D01*
X150916098Y-77018432D01*
X151271698Y-77018432D01*
X151271698Y-78054200D01*
X152307466Y-78054200D01*
X152410337Y-77843480D01*
X152161449Y-77369275D01*
X151750036Y-77026412D01*
X151482418Y-76915561D01*
X151271698Y-77018432D01*
X150916098Y-77018432D01*
X150705378Y-76915561D01*
X150231173Y-77164449D01*
X149888310Y-77575862D01*
X149777459Y-77843480D01*
X147828383Y-77843480D01*
X147946065Y-77764848D01*
X148215860Y-77361071D01*
X148310600Y-76884783D01*
X148310600Y-76836017D01*
X148304822Y-76806972D01*
X149633696Y-75478098D01*
X154123040Y-75478098D01*
X154124138Y-75479198D01*
X154488093Y-75630326D01*
X154882178Y-75630670D01*
X155246397Y-75480177D01*
X155525300Y-75201760D01*
X155676428Y-74837805D01*
X155676772Y-74443720D01*
X155526279Y-74079501D01*
X155247862Y-73800598D01*
X154883907Y-73649470D01*
X154489822Y-73649126D01*
X154125603Y-73799619D01*
X154123520Y-73801698D01*
X149286502Y-73801698D01*
X148965736Y-73865502D01*
X148693805Y-74047201D01*
X147135721Y-75605285D01*
X147066000Y-75591417D01*
X146589712Y-75686157D01*
X146185935Y-75955952D01*
X145916140Y-76359729D01*
X145821400Y-76836017D01*
X145775078Y-76836017D01*
X145775078Y-75844400D01*
X145759138Y-75759686D01*
X145709072Y-75681882D01*
X145632680Y-75629685D01*
X145542000Y-75611322D01*
X143510000Y-75611322D01*
X143425286Y-75627262D01*
X143347482Y-75677328D01*
X143295285Y-75753720D01*
X143276922Y-75844400D01*
X143276922Y-76022200D01*
X139801680Y-76022200D01*
X139801903Y-75765916D01*
X139535648Y-75121529D01*
X139043064Y-74628085D01*
X138399143Y-74360705D01*
X137701916Y-74360097D01*
X137057529Y-74626352D01*
X136564085Y-75118936D01*
X136296705Y-75762857D01*
X136296097Y-76460084D01*
X130478600Y-76460084D01*
X130478600Y-71228135D01*
X131775084Y-71228135D01*
X132052885Y-71900465D01*
X132566829Y-72415307D01*
X133238673Y-72694282D01*
X133966135Y-72694916D01*
X134638465Y-72417115D01*
X135153307Y-71903171D01*
X135432282Y-71231327D01*
X135432916Y-70503865D01*
X135380518Y-70377050D01*
X140893800Y-70377050D01*
X140893800Y-71287004D01*
X140982739Y-71501722D01*
X141147077Y-71666061D01*
X141361795Y-71755000D01*
X142271750Y-71755000D01*
X142417800Y-71608950D01*
X142417800Y-70231000D01*
X142773400Y-70231000D01*
X142773400Y-71608950D01*
X142919450Y-71755000D01*
X143829405Y-71755000D01*
X144044123Y-71666061D01*
X144208461Y-71501722D01*
X144297400Y-71287004D01*
X144297400Y-70377050D01*
X144151350Y-70231000D01*
X142773400Y-70231000D01*
X142417800Y-70231000D01*
X141039850Y-70231000D01*
X140893800Y-70377050D01*
X135380518Y-70377050D01*
X135155115Y-69831535D01*
X134641171Y-69316693D01*
X133969327Y-69037718D01*
X133241865Y-69037084D01*
X132569535Y-69314885D01*
X132054693Y-69828829D01*
X131775718Y-70500673D01*
X131775084Y-71228135D01*
X130478600Y-71228135D01*
X130478600Y-68819396D01*
X140893800Y-68819396D01*
X140893800Y-69729350D01*
X141039850Y-69875400D01*
X142417800Y-69875400D01*
X142417800Y-68497450D01*
X142773400Y-68497450D01*
X142773400Y-69875400D01*
X144151350Y-69875400D01*
X144297400Y-69729350D01*
X144297400Y-68935600D01*
X145156522Y-68935600D01*
X145156522Y-71170800D01*
X145172462Y-71255514D01*
X145222528Y-71333318D01*
X145298920Y-71385515D01*
X145389600Y-71403878D01*
X146595536Y-71403878D01*
X148060429Y-72868771D01*
X148233477Y-72984397D01*
X148437600Y-73025000D01*
X155481058Y-73025000D01*
X157744702Y-75288643D01*
X157744702Y-76781904D01*
X157685405Y-76841201D01*
X157503706Y-77113132D01*
X157448097Y-77392700D01*
X157439902Y-77433898D01*
X157439902Y-77669040D01*
X157438802Y-77670138D01*
X157287674Y-78034093D01*
X157287330Y-78428178D01*
X157437823Y-78792397D01*
X157439902Y-78794480D01*
X157439902Y-81443102D01*
X157503706Y-81763868D01*
X157685405Y-82035799D01*
X160824303Y-85174697D01*
X161096234Y-85356396D01*
X161417000Y-85420200D01*
X163431514Y-85420200D01*
X163470320Y-85446715D01*
X163561000Y-85465078D01*
X164861000Y-85465078D01*
X164945714Y-85449138D01*
X164990684Y-85420200D01*
X173368806Y-85420200D01*
X173512922Y-85564316D01*
X173512922Y-85987000D01*
X173528862Y-86071714D01*
X173578928Y-86149518D01*
X173655320Y-86201715D01*
X173746000Y-86220078D01*
X174996000Y-86220078D01*
X175080714Y-86204138D01*
X175158518Y-86154072D01*
X175210715Y-86077680D01*
X175229078Y-85987000D01*
X175229078Y-84487000D01*
X175213138Y-84402286D01*
X175163072Y-84324482D01*
X175086680Y-84272285D01*
X174996000Y-84253922D01*
X174573316Y-84253922D01*
X174308697Y-83989303D01*
X174036766Y-83807604D01*
X173716000Y-83743800D01*
X164990486Y-83743800D01*
X164951680Y-83717285D01*
X164861000Y-83698922D01*
X163561000Y-83698922D01*
X163476286Y-83714862D01*
X163431316Y-83743800D01*
X161764194Y-83743800D01*
X161306994Y-83286600D01*
X187218922Y-83286600D01*
X187218922Y-85394800D01*
X187234862Y-85479514D01*
X187284928Y-85557318D01*
X187361320Y-85609515D01*
X187452000Y-85627878D01*
X189560200Y-85627878D01*
X189644914Y-85611938D01*
X189722718Y-85561872D01*
X189774915Y-85485480D01*
X189793278Y-85394800D01*
X189793278Y-84664550D01*
X191363600Y-84664550D01*
X191363600Y-85511004D01*
X191452539Y-85725722D01*
X191616877Y-85890061D01*
X191831595Y-85979000D01*
X192678050Y-85979000D01*
X192824100Y-85832950D01*
X192824100Y-84518500D01*
X193179700Y-84518500D01*
X193179700Y-85832950D01*
X193325750Y-85979000D01*
X194172205Y-85979000D01*
X194386923Y-85890061D01*
X194551261Y-85725722D01*
X194640200Y-85511004D01*
X194640200Y-84664550D01*
X194494150Y-84518500D01*
X193179700Y-84518500D01*
X192824100Y-84518500D01*
X191509650Y-84518500D01*
X191363600Y-84664550D01*
X189793278Y-84664550D01*
X189793278Y-83286600D01*
X189777338Y-83201886D01*
X189757075Y-83170396D01*
X191363600Y-83170396D01*
X191363600Y-84016850D01*
X191509650Y-84162900D01*
X192824100Y-84162900D01*
X192824100Y-82848450D01*
X193179700Y-82848450D01*
X193179700Y-84162900D01*
X194494150Y-84162900D01*
X194640200Y-84016850D01*
X194640200Y-83170396D01*
X194551261Y-82955678D01*
X194386923Y-82791339D01*
X194172205Y-82702400D01*
X193325750Y-82702400D01*
X193179700Y-82848450D01*
X192824100Y-82848450D01*
X192678050Y-82702400D01*
X191831595Y-82702400D01*
X191616877Y-82791339D01*
X191452539Y-82955678D01*
X191363600Y-83170396D01*
X189757075Y-83170396D01*
X189727272Y-83124082D01*
X189650880Y-83071885D01*
X189560200Y-83053522D01*
X187452000Y-83053522D01*
X187367286Y-83069462D01*
X187289482Y-83119528D01*
X187237285Y-83195920D01*
X187218922Y-83286600D01*
X161306994Y-83286600D01*
X159116302Y-81095908D01*
X159116302Y-78794960D01*
X159117402Y-78793862D01*
X159268530Y-78429907D01*
X159268665Y-78274800D01*
X161549522Y-78274800D01*
X161549522Y-79774800D01*
X161565462Y-79859514D01*
X161615528Y-79937318D01*
X161691920Y-79989515D01*
X161782600Y-80007878D01*
X163032600Y-80007878D01*
X163117314Y-79991938D01*
X163195118Y-79941872D01*
X163247315Y-79865480D01*
X163247817Y-79863000D01*
X163672200Y-79863000D01*
X163992966Y-79799196D01*
X164264897Y-79617497D01*
X165560224Y-78322170D01*
X165882071Y-78322170D01*
X166256783Y-78247635D01*
X166574449Y-78035378D01*
X166786706Y-77717712D01*
X166861241Y-77343000D01*
X166786706Y-76968288D01*
X166574449Y-76650622D01*
X166256783Y-76438365D01*
X165882071Y-76363830D01*
X164825929Y-76363830D01*
X164451217Y-76438365D01*
X164133551Y-76650622D01*
X163921294Y-76968288D01*
X163846759Y-77343000D01*
X163900157Y-77611449D01*
X163325006Y-78186600D01*
X163247495Y-78186600D01*
X163199672Y-78112282D01*
X163123280Y-78060085D01*
X163032600Y-78041722D01*
X161782600Y-78041722D01*
X161697886Y-78057662D01*
X161620082Y-78107728D01*
X161567885Y-78184120D01*
X161549522Y-78274800D01*
X159268665Y-78274800D01*
X159268874Y-78035822D01*
X159149786Y-77747608D01*
X160048744Y-76848650D01*
X161198400Y-76848650D01*
X161198400Y-77391005D01*
X161287339Y-77605723D01*
X161451678Y-77770061D01*
X161666396Y-77859000D01*
X162083750Y-77859000D01*
X162229800Y-77712950D01*
X162229800Y-76702600D01*
X162585400Y-76702600D01*
X162585400Y-77712950D01*
X162731450Y-77859000D01*
X163148804Y-77859000D01*
X163363522Y-77770061D01*
X163527861Y-77605723D01*
X163616800Y-77391005D01*
X163616800Y-76848650D01*
X163470750Y-76702600D01*
X162585400Y-76702600D01*
X162229800Y-76702600D01*
X161344450Y-76702600D01*
X161198400Y-76848650D01*
X160048744Y-76848650D01*
X161198400Y-75698994D01*
X161198400Y-76200950D01*
X161344450Y-76347000D01*
X162229800Y-76347000D01*
X162229800Y-75336650D01*
X162585400Y-75336650D01*
X162585400Y-76347000D01*
X163470750Y-76347000D01*
X163616800Y-76200950D01*
X163616800Y-75658595D01*
X163527861Y-75443877D01*
X163363522Y-75279539D01*
X163148804Y-75190600D01*
X162731450Y-75190600D01*
X162585400Y-75336650D01*
X162229800Y-75336650D01*
X162083750Y-75190600D01*
X161706794Y-75190600D01*
X161711840Y-75185554D01*
X163576116Y-75185554D01*
X163785341Y-75621102D01*
X164179830Y-75968126D01*
X164677090Y-76137770D01*
X165176200Y-76137770D01*
X165176200Y-74980800D01*
X165531800Y-74980800D01*
X165531800Y-76137770D01*
X166030910Y-76137770D01*
X166528170Y-75968126D01*
X166922659Y-75621102D01*
X167052268Y-75351292D01*
X179348921Y-75351292D01*
X179769527Y-76369237D01*
X180547666Y-77148736D01*
X181564875Y-77571118D01*
X182666292Y-77572079D01*
X183684237Y-77151473D01*
X184463736Y-76373334D01*
X184886118Y-75356125D01*
X184887079Y-74254708D01*
X184466473Y-73236763D01*
X183688334Y-72457264D01*
X182671125Y-72034882D01*
X181569708Y-72033921D01*
X180551763Y-72454527D01*
X179772264Y-73232666D01*
X179349882Y-74249875D01*
X179348921Y-75351292D01*
X167052268Y-75351292D01*
X167131884Y-75185554D01*
X167028458Y-74980800D01*
X165531800Y-74980800D01*
X165176200Y-74980800D01*
X163679542Y-74980800D01*
X163576116Y-75185554D01*
X161711840Y-75185554D01*
X162476948Y-74420446D01*
X163576116Y-74420446D01*
X163679542Y-74625200D01*
X165176200Y-74625200D01*
X165176200Y-73468230D01*
X165531800Y-73468230D01*
X165531800Y-74625200D01*
X167028458Y-74625200D01*
X167131884Y-74420446D01*
X166922659Y-73984898D01*
X166528170Y-73637874D01*
X166030910Y-73468230D01*
X165531800Y-73468230D01*
X165176200Y-73468230D01*
X164677090Y-73468230D01*
X164179830Y-73637874D01*
X163785341Y-73984898D01*
X163576116Y-74420446D01*
X162476948Y-74420446D01*
X163796194Y-73101200D01*
X164351790Y-73101200D01*
X164451217Y-73167635D01*
X164825929Y-73242170D01*
X165882071Y-73242170D01*
X166256783Y-73167635D01*
X166574449Y-72955378D01*
X166786706Y-72637712D01*
X166861241Y-72263000D01*
X166786706Y-71888288D01*
X166574449Y-71570622D01*
X166256783Y-71358365D01*
X165882071Y-71283830D01*
X164825929Y-71283830D01*
X164451217Y-71358365D01*
X164351790Y-71424800D01*
X163449000Y-71424800D01*
X163128234Y-71488604D01*
X162856303Y-71670303D01*
X158811502Y-75715104D01*
X158811502Y-75067702D01*
X158790211Y-74960664D01*
X158770899Y-74863578D01*
X158724586Y-74794265D01*
X158655273Y-74690531D01*
X158655270Y-74690529D01*
X156079171Y-72114429D01*
X155906123Y-71998803D01*
X155702000Y-71958200D01*
X148658542Y-71958200D01*
X148468488Y-71768146D01*
X156658101Y-71768146D01*
X156720407Y-71978345D01*
X157190872Y-72118842D01*
X157679290Y-72068605D01*
X157897193Y-71978345D01*
X157959499Y-71768146D01*
X157308800Y-71117447D01*
X156658101Y-71768146D01*
X148468488Y-71768146D01*
X147857878Y-71157536D01*
X147857878Y-68935600D01*
X148814122Y-68935600D01*
X148814122Y-71170800D01*
X148830062Y-71255514D01*
X148880128Y-71333318D01*
X148956520Y-71385515D01*
X149047200Y-71403878D01*
X151282400Y-71403878D01*
X151367114Y-71387938D01*
X151444918Y-71337872D01*
X151497115Y-71261480D01*
X151515478Y-71170800D01*
X151515478Y-70748072D01*
X156055958Y-70748072D01*
X156106195Y-71236490D01*
X156196455Y-71454393D01*
X156406654Y-71516699D01*
X157057353Y-70866000D01*
X157560247Y-70866000D01*
X158210946Y-71516699D01*
X158421145Y-71454393D01*
X158425722Y-71439067D01*
X158425722Y-71516000D01*
X158441662Y-71600714D01*
X158491728Y-71678518D01*
X158568120Y-71730715D01*
X158658800Y-71749078D01*
X159958800Y-71749078D01*
X160043514Y-71733138D01*
X160121318Y-71683072D01*
X160173515Y-71606680D01*
X160191878Y-71516000D01*
X160191878Y-71228135D01*
X190703084Y-71228135D01*
X190980885Y-71900465D01*
X191494829Y-72415307D01*
X192166673Y-72694282D01*
X192894135Y-72694916D01*
X193566465Y-72417115D01*
X194081307Y-71903171D01*
X194360282Y-71231327D01*
X194360916Y-70503865D01*
X194083115Y-69831535D01*
X193569171Y-69316693D01*
X192897327Y-69037718D01*
X192169865Y-69037084D01*
X191497535Y-69314885D01*
X190982693Y-69828829D01*
X190703718Y-70500673D01*
X190703084Y-71228135D01*
X160191878Y-71228135D01*
X160191878Y-70216000D01*
X160175938Y-70131286D01*
X160125872Y-70053482D01*
X160049480Y-70001285D01*
X159958800Y-69982922D01*
X158658800Y-69982922D01*
X158574086Y-69998862D01*
X158496282Y-70048928D01*
X158444085Y-70125320D01*
X158425722Y-70216000D01*
X158425722Y-70288657D01*
X158421145Y-70277607D01*
X158210946Y-70215301D01*
X157560247Y-70866000D01*
X157057353Y-70866000D01*
X156406654Y-70215301D01*
X156196455Y-70277607D01*
X156055958Y-70748072D01*
X151515478Y-70748072D01*
X151515478Y-69963854D01*
X156658101Y-69963854D01*
X157308800Y-70614553D01*
X157959499Y-69963854D01*
X157897193Y-69753655D01*
X157426728Y-69613158D01*
X156938310Y-69663395D01*
X156720407Y-69753655D01*
X156658101Y-69963854D01*
X151515478Y-69963854D01*
X151515478Y-68935600D01*
X151499538Y-68850886D01*
X151449472Y-68773082D01*
X151373080Y-68720885D01*
X151282400Y-68702522D01*
X149047200Y-68702522D01*
X148962486Y-68718462D01*
X148884682Y-68768528D01*
X148832485Y-68844920D01*
X148814122Y-68935600D01*
X147857878Y-68935600D01*
X147841938Y-68850886D01*
X147791872Y-68773082D01*
X147715480Y-68720885D01*
X147624800Y-68702522D01*
X145389600Y-68702522D01*
X145304886Y-68718462D01*
X145227082Y-68768528D01*
X145174885Y-68844920D01*
X145156522Y-68935600D01*
X144297400Y-68935600D01*
X144297400Y-68819396D01*
X144208461Y-68604678D01*
X144044123Y-68440339D01*
X143829405Y-68351400D01*
X142919450Y-68351400D01*
X142773400Y-68497450D01*
X142417800Y-68497450D01*
X142271750Y-68351400D01*
X141361795Y-68351400D01*
X141147077Y-68440339D01*
X140982739Y-68604678D01*
X140893800Y-68819396D01*
X130478600Y-68819396D01*
X130478600Y-67740600D01*
X195657400Y-67740600D01*
X195657400Y-116155400D01*
M02*
