G04 #@! TF.FileFunction,Legend,Top*
%FSLAX46Y46*%
G04 Gerber Fmt 4.6, Leading zero omitted, Abs format (unit mm)*
G04 Created by KiCad (PCBNEW 4.0.0-2.201512072331+6194~38~ubuntu14.04.1-stable) date Mon 06 Jun 2016 10:48:40 PM CEST*
%MOMM*%
G01*
G04 APERTURE LIST*
%ADD10C,0.100000*%
%ADD11C,0.127000*%
%ADD12C,0.200000*%
%ADD13C,0.254000*%
%ADD14C,0.300000*%
%ADD15C,0.150000*%
G04 APERTURE END LIST*
D10*
D11*
X133056086Y-85743143D02*
X133818086Y-85743143D01*
X133564086Y-86106000D02*
X133056086Y-86106000D01*
X133491514Y-86106000D02*
X133527800Y-86142285D01*
X133564086Y-86214857D01*
X133564086Y-86323714D01*
X133527800Y-86396285D01*
X133455229Y-86432571D01*
X133056086Y-86432571D01*
X133564086Y-86795429D02*
X132802086Y-86795429D01*
X133527800Y-86795429D02*
X133564086Y-86868000D01*
X133564086Y-87013143D01*
X133527800Y-87085714D01*
X133491514Y-87122000D01*
X133418943Y-87158286D01*
X133201229Y-87158286D01*
X133128657Y-87122000D01*
X133092371Y-87085714D01*
X133056086Y-87013143D01*
X133056086Y-86868000D01*
X133092371Y-86795429D01*
X133564086Y-87811429D02*
X133056086Y-87811429D01*
X133564086Y-87484858D02*
X133164943Y-87484858D01*
X133092371Y-87521143D01*
X133056086Y-87593715D01*
X133056086Y-87702572D01*
X133092371Y-87775143D01*
X133128657Y-87811429D01*
X133564086Y-88065429D02*
X133564086Y-88355715D01*
X133818086Y-88174287D02*
X133164943Y-88174287D01*
X133092371Y-88210572D01*
X133056086Y-88283144D01*
X133056086Y-88355715D01*
X132624286Y-85362144D02*
X132624286Y-84999287D01*
X132261429Y-84963001D01*
X132297714Y-84999287D01*
X132334000Y-85071858D01*
X132334000Y-85253287D01*
X132297714Y-85325858D01*
X132261429Y-85362144D01*
X132188857Y-85398429D01*
X132007429Y-85398429D01*
X131934857Y-85362144D01*
X131898571Y-85325858D01*
X131862286Y-85253287D01*
X131862286Y-85071858D01*
X131898571Y-84999287D01*
X131934857Y-84963001D01*
X132152571Y-85725001D02*
X132152571Y-86305572D01*
X131862286Y-87067572D02*
X131862286Y-86632144D01*
X131862286Y-86849858D02*
X132624286Y-86849858D01*
X132515429Y-86777287D01*
X132442857Y-86704715D01*
X132406571Y-86632144D01*
X132551714Y-87357858D02*
X132588000Y-87394144D01*
X132624286Y-87466715D01*
X132624286Y-87648144D01*
X132588000Y-87720715D01*
X132551714Y-87757001D01*
X132479143Y-87793286D01*
X132406571Y-87793286D01*
X132297714Y-87757001D01*
X131862286Y-87321572D01*
X131862286Y-87793286D01*
X132624286Y-88011000D02*
X131862286Y-88265000D01*
X132624286Y-88519000D01*
X130886200Y-85670572D02*
X130886200Y-86033429D01*
X130668486Y-85598000D02*
X131430486Y-85852000D01*
X130668486Y-86106000D01*
X130741057Y-86795429D02*
X130704771Y-86759143D01*
X130668486Y-86650286D01*
X130668486Y-86577715D01*
X130704771Y-86468858D01*
X130777343Y-86396286D01*
X130849914Y-86360001D01*
X130995057Y-86323715D01*
X131103914Y-86323715D01*
X131249057Y-86360001D01*
X131321629Y-86396286D01*
X131394200Y-86468858D01*
X131430486Y-86577715D01*
X131430486Y-86650286D01*
X131394200Y-86759143D01*
X131357914Y-86795429D01*
X130668486Y-87122001D02*
X131430486Y-87122001D01*
X131430486Y-87303429D01*
X131394200Y-87412286D01*
X131321629Y-87484858D01*
X131249057Y-87521143D01*
X131103914Y-87557429D01*
X130995057Y-87557429D01*
X130849914Y-87521143D01*
X130777343Y-87484858D01*
X130704771Y-87412286D01*
X130668486Y-87303429D01*
X130668486Y-87122001D01*
X130741057Y-88319429D02*
X130704771Y-88283143D01*
X130668486Y-88174286D01*
X130668486Y-88101715D01*
X130704771Y-87992858D01*
X130777343Y-87920286D01*
X130849914Y-87884001D01*
X130995057Y-87847715D01*
X131103914Y-87847715D01*
X131249057Y-87884001D01*
X131321629Y-87920286D01*
X131394200Y-87992858D01*
X131430486Y-88101715D01*
X131430486Y-88174286D01*
X131394200Y-88283143D01*
X131357914Y-88319429D01*
X133221186Y-90750572D02*
X133983186Y-90750572D01*
X133983186Y-91040857D01*
X133946900Y-91113429D01*
X133910614Y-91149714D01*
X133838043Y-91186000D01*
X133729186Y-91186000D01*
X133656614Y-91149714D01*
X133620329Y-91113429D01*
X133584043Y-91040857D01*
X133584043Y-90750572D01*
X133729186Y-91839143D02*
X133221186Y-91839143D01*
X133729186Y-91512572D02*
X133330043Y-91512572D01*
X133257471Y-91548857D01*
X133221186Y-91621429D01*
X133221186Y-91730286D01*
X133257471Y-91802857D01*
X133293757Y-91839143D01*
X133257471Y-92165715D02*
X133221186Y-92238286D01*
X133221186Y-92383429D01*
X133257471Y-92456001D01*
X133330043Y-92492286D01*
X133366329Y-92492286D01*
X133438900Y-92456001D01*
X133475186Y-92383429D01*
X133475186Y-92274572D01*
X133511471Y-92202001D01*
X133584043Y-92165715D01*
X133620329Y-92165715D01*
X133692900Y-92202001D01*
X133729186Y-92274572D01*
X133729186Y-92383429D01*
X133692900Y-92456001D01*
X133221186Y-92818858D02*
X133983186Y-92818858D01*
X133221186Y-93145429D02*
X133620329Y-93145429D01*
X133692900Y-93109143D01*
X133729186Y-93036572D01*
X133729186Y-92927715D01*
X133692900Y-92855143D01*
X133656614Y-92818858D01*
X132426529Y-90532857D02*
X132390243Y-90641714D01*
X132353957Y-90677999D01*
X132281386Y-90714285D01*
X132172529Y-90714285D01*
X132099957Y-90677999D01*
X132063671Y-90641714D01*
X132027386Y-90569142D01*
X132027386Y-90278857D01*
X132789386Y-90278857D01*
X132789386Y-90532857D01*
X132753100Y-90605428D01*
X132716814Y-90641714D01*
X132644243Y-90677999D01*
X132571671Y-90677999D01*
X132499100Y-90641714D01*
X132462814Y-90605428D01*
X132426529Y-90532857D01*
X132426529Y-90278857D01*
X132535386Y-91367428D02*
X132027386Y-91367428D01*
X132535386Y-91040857D02*
X132136243Y-91040857D01*
X132063671Y-91077142D01*
X132027386Y-91149714D01*
X132027386Y-91258571D01*
X132063671Y-91331142D01*
X132099957Y-91367428D01*
X132535386Y-91621428D02*
X132535386Y-91911714D01*
X132789386Y-91730286D02*
X132136243Y-91730286D01*
X132063671Y-91766571D01*
X132027386Y-91839143D01*
X132027386Y-91911714D01*
X132535386Y-92056857D02*
X132535386Y-92347143D01*
X132789386Y-92165715D02*
X132136243Y-92165715D01*
X132063671Y-92202000D01*
X132027386Y-92274572D01*
X132027386Y-92347143D01*
X132027386Y-92710001D02*
X132063671Y-92637429D01*
X132099957Y-92601144D01*
X132172529Y-92564858D01*
X132390243Y-92564858D01*
X132462814Y-92601144D01*
X132499100Y-92637429D01*
X132535386Y-92710001D01*
X132535386Y-92818858D01*
X132499100Y-92891429D01*
X132462814Y-92927715D01*
X132390243Y-92964001D01*
X132172529Y-92964001D01*
X132099957Y-92927715D01*
X132063671Y-92891429D01*
X132027386Y-92818858D01*
X132027386Y-92710001D01*
X132535386Y-93290573D02*
X132027386Y-93290573D01*
X132462814Y-93290573D02*
X132499100Y-93326858D01*
X132535386Y-93399430D01*
X132535386Y-93508287D01*
X132499100Y-93580858D01*
X132426529Y-93617144D01*
X132027386Y-93617144D01*
X133731000Y-96447428D02*
X133767286Y-96374857D01*
X133767286Y-96266000D01*
X133731000Y-96157143D01*
X133658429Y-96084571D01*
X133585857Y-96048286D01*
X133440714Y-96012000D01*
X133331857Y-96012000D01*
X133186714Y-96048286D01*
X133114143Y-96084571D01*
X133041571Y-96157143D01*
X133005286Y-96266000D01*
X133005286Y-96338571D01*
X133041571Y-96447428D01*
X133077857Y-96483714D01*
X133331857Y-96483714D01*
X133331857Y-96338571D01*
X133005286Y-96810286D02*
X133767286Y-96810286D01*
X133005286Y-97245714D01*
X133767286Y-97245714D01*
X133005286Y-97608572D02*
X133767286Y-97608572D01*
X133767286Y-97790000D01*
X133731000Y-97898857D01*
X133658429Y-97971429D01*
X133585857Y-98007714D01*
X133440714Y-98044000D01*
X133331857Y-98044000D01*
X133186714Y-98007714D01*
X133114143Y-97971429D01*
X133041571Y-97898857D01*
X133005286Y-97790000D01*
X133005286Y-97608572D01*
X145650856Y-89498714D02*
X145795999Y-89498714D01*
X145868571Y-89535000D01*
X145941142Y-89607571D01*
X145977428Y-89752714D01*
X145977428Y-90006714D01*
X145941142Y-90151857D01*
X145868571Y-90224429D01*
X145795999Y-90260714D01*
X145650856Y-90260714D01*
X145578285Y-90224429D01*
X145505714Y-90151857D01*
X145469428Y-90006714D01*
X145469428Y-89752714D01*
X145505714Y-89607571D01*
X145578285Y-89535000D01*
X145650856Y-89498714D01*
X146304000Y-89752714D02*
X146304000Y-90514714D01*
X146304000Y-89789000D02*
X146376571Y-89752714D01*
X146521714Y-89752714D01*
X146594285Y-89789000D01*
X146630571Y-89825286D01*
X146666857Y-89897857D01*
X146666857Y-90115571D01*
X146630571Y-90188143D01*
X146594285Y-90224429D01*
X146521714Y-90260714D01*
X146376571Y-90260714D01*
X146304000Y-90224429D01*
X146884571Y-89752714D02*
X147174857Y-89752714D01*
X146993429Y-89498714D02*
X146993429Y-90151857D01*
X147029714Y-90224429D01*
X147102286Y-90260714D01*
X147174857Y-90260714D01*
X147428858Y-90260714D02*
X147428858Y-89752714D01*
X147428858Y-89498714D02*
X147392572Y-89535000D01*
X147428858Y-89571286D01*
X147465143Y-89535000D01*
X147428858Y-89498714D01*
X147428858Y-89571286D01*
X147900572Y-90260714D02*
X147828000Y-90224429D01*
X147791715Y-90188143D01*
X147755429Y-90115571D01*
X147755429Y-89897857D01*
X147791715Y-89825286D01*
X147828000Y-89789000D01*
X147900572Y-89752714D01*
X148009429Y-89752714D01*
X148082000Y-89789000D01*
X148118286Y-89825286D01*
X148154572Y-89897857D01*
X148154572Y-90115571D01*
X148118286Y-90188143D01*
X148082000Y-90224429D01*
X148009429Y-90260714D01*
X147900572Y-90260714D01*
X148481144Y-89752714D02*
X148481144Y-90260714D01*
X148481144Y-89825286D02*
X148517429Y-89789000D01*
X148590001Y-89752714D01*
X148698858Y-89752714D01*
X148771429Y-89789000D01*
X148807715Y-89861571D01*
X148807715Y-90260714D01*
X149497144Y-90260714D02*
X149497144Y-89861571D01*
X149460858Y-89789000D01*
X149388287Y-89752714D01*
X149243144Y-89752714D01*
X149170573Y-89789000D01*
X149497144Y-90224429D02*
X149424573Y-90260714D01*
X149243144Y-90260714D01*
X149170573Y-90224429D01*
X149134287Y-90151857D01*
X149134287Y-90079286D01*
X149170573Y-90006714D01*
X149243144Y-89970429D01*
X149424573Y-89970429D01*
X149497144Y-89934143D01*
X149968859Y-90260714D02*
X149896287Y-90224429D01*
X149860002Y-90151857D01*
X149860002Y-89498714D01*
D12*
X150241000Y-89281000D02*
X142494000Y-89281000D01*
X150241000Y-98679000D02*
X150241000Y-89281000D01*
X142494000Y-98679000D02*
X150241000Y-98679000D01*
X142494000Y-89281000D02*
X142494000Y-98679000D01*
D13*
X145971381Y-112558286D02*
X146394714Y-112558286D01*
X146576143Y-113223524D02*
X145971381Y-113223524D01*
X145971381Y-111953524D01*
X146576143Y-111953524D01*
X147543762Y-112558286D02*
X147725191Y-112618762D01*
X147785667Y-112679238D01*
X147846143Y-112800190D01*
X147846143Y-112981619D01*
X147785667Y-113102571D01*
X147725191Y-113163048D01*
X147604238Y-113223524D01*
X147120429Y-113223524D01*
X147120429Y-111953524D01*
X147543762Y-111953524D01*
X147664715Y-112014000D01*
X147725191Y-112074476D01*
X147785667Y-112195429D01*
X147785667Y-112316381D01*
X147725191Y-112437333D01*
X147664715Y-112497810D01*
X147543762Y-112558286D01*
X147120429Y-112558286D01*
X148329953Y-113163048D02*
X148511381Y-113223524D01*
X148813762Y-113223524D01*
X148934715Y-113163048D01*
X148995191Y-113102571D01*
X149055667Y-112981619D01*
X149055667Y-112860667D01*
X148995191Y-112739714D01*
X148934715Y-112679238D01*
X148813762Y-112618762D01*
X148571858Y-112558286D01*
X148450905Y-112497810D01*
X148390429Y-112437333D01*
X148329953Y-112316381D01*
X148329953Y-112195429D01*
X148390429Y-112074476D01*
X148450905Y-112014000D01*
X148571858Y-111953524D01*
X148874238Y-111953524D01*
X149055667Y-112014000D01*
X150567572Y-113223524D02*
X150567572Y-111953524D01*
X150869953Y-111953524D01*
X151051381Y-112014000D01*
X151172334Y-112134952D01*
X151232810Y-112255905D01*
X151293286Y-112497810D01*
X151293286Y-112679238D01*
X151232810Y-112921143D01*
X151172334Y-113042095D01*
X151051381Y-113163048D01*
X150869953Y-113223524D01*
X150567572Y-113223524D01*
X152019001Y-113223524D02*
X151898048Y-113163048D01*
X151837572Y-113102571D01*
X151777096Y-112981619D01*
X151777096Y-112618762D01*
X151837572Y-112497810D01*
X151898048Y-112437333D01*
X152019001Y-112376857D01*
X152200429Y-112376857D01*
X152321381Y-112437333D01*
X152381858Y-112497810D01*
X152442334Y-112618762D01*
X152442334Y-112981619D01*
X152381858Y-113102571D01*
X152321381Y-113163048D01*
X152200429Y-113223524D01*
X152019001Y-113223524D01*
X153168049Y-113223524D02*
X153047096Y-113163048D01*
X152986620Y-113102571D01*
X152926144Y-112981619D01*
X152926144Y-112618762D01*
X152986620Y-112497810D01*
X153047096Y-112437333D01*
X153168049Y-112376857D01*
X153349477Y-112376857D01*
X153470429Y-112437333D01*
X153530906Y-112497810D01*
X153591382Y-112618762D01*
X153591382Y-112981619D01*
X153530906Y-113102571D01*
X153470429Y-113163048D01*
X153349477Y-113223524D01*
X153168049Y-113223524D01*
X154135668Y-113223524D02*
X154135668Y-112376857D01*
X154135668Y-112618762D02*
X154196144Y-112497810D01*
X154256620Y-112437333D01*
X154377573Y-112376857D01*
X154498525Y-112376857D01*
X154921858Y-113223524D02*
X154921858Y-111953524D01*
X154921858Y-112437333D02*
X155042810Y-112376857D01*
X155284715Y-112376857D01*
X155405667Y-112437333D01*
X155466144Y-112497810D01*
X155526620Y-112618762D01*
X155526620Y-112981619D01*
X155466144Y-113102571D01*
X155405667Y-113163048D01*
X155284715Y-113223524D01*
X155042810Y-113223524D01*
X154921858Y-113163048D01*
X156554715Y-113163048D02*
X156433763Y-113223524D01*
X156191858Y-113223524D01*
X156070906Y-113163048D01*
X156010430Y-113042095D01*
X156010430Y-112558286D01*
X156070906Y-112437333D01*
X156191858Y-112376857D01*
X156433763Y-112376857D01*
X156554715Y-112437333D01*
X156615192Y-112558286D01*
X156615192Y-112679238D01*
X156010430Y-112800190D01*
X157340906Y-113223524D02*
X157219953Y-113163048D01*
X157159477Y-113042095D01*
X157159477Y-111953524D01*
X158006144Y-113223524D02*
X157885191Y-113163048D01*
X157824715Y-113042095D01*
X157824715Y-111953524D01*
X159457572Y-112558286D02*
X159880905Y-112558286D01*
X160062334Y-113223524D02*
X159457572Y-113223524D01*
X159457572Y-111953524D01*
X160062334Y-111953524D01*
X160485668Y-113223524D02*
X161150906Y-112376857D01*
X160485668Y-112376857D02*
X161150906Y-113223524D01*
X161453286Y-112376857D02*
X161937096Y-112376857D01*
X161634715Y-111953524D02*
X161634715Y-113042095D01*
X161695191Y-113163048D01*
X161816144Y-113223524D01*
X161937096Y-113223524D01*
X162844238Y-113163048D02*
X162723286Y-113223524D01*
X162481381Y-113223524D01*
X162360429Y-113163048D01*
X162299953Y-113042095D01*
X162299953Y-112558286D01*
X162360429Y-112437333D01*
X162481381Y-112376857D01*
X162723286Y-112376857D01*
X162844238Y-112437333D01*
X162904715Y-112558286D01*
X162904715Y-112679238D01*
X162299953Y-112800190D01*
X163449000Y-112376857D02*
X163449000Y-113223524D01*
X163449000Y-112497810D02*
X163509476Y-112437333D01*
X163630429Y-112376857D01*
X163811857Y-112376857D01*
X163932809Y-112437333D01*
X163993286Y-112558286D01*
X163993286Y-113223524D01*
X164537572Y-113163048D02*
X164658524Y-113223524D01*
X164900429Y-113223524D01*
X165021381Y-113163048D01*
X165081857Y-113042095D01*
X165081857Y-112981619D01*
X165021381Y-112860667D01*
X164900429Y-112800190D01*
X164719000Y-112800190D01*
X164598048Y-112739714D01*
X164537572Y-112618762D01*
X164537572Y-112558286D01*
X164598048Y-112437333D01*
X164719000Y-112376857D01*
X164900429Y-112376857D01*
X165021381Y-112437333D01*
X165626143Y-113223524D02*
X165626143Y-112376857D01*
X165626143Y-111953524D02*
X165565667Y-112014000D01*
X165626143Y-112074476D01*
X165686619Y-112014000D01*
X165626143Y-111953524D01*
X165626143Y-112074476D01*
X166412334Y-113223524D02*
X166291381Y-113163048D01*
X166230905Y-113102571D01*
X166170429Y-112981619D01*
X166170429Y-112618762D01*
X166230905Y-112497810D01*
X166291381Y-112437333D01*
X166412334Y-112376857D01*
X166593762Y-112376857D01*
X166714714Y-112437333D01*
X166775191Y-112497810D01*
X166835667Y-112618762D01*
X166835667Y-112981619D01*
X166775191Y-113102571D01*
X166714714Y-113163048D01*
X166593762Y-113223524D01*
X166412334Y-113223524D01*
X167379953Y-112376857D02*
X167379953Y-113223524D01*
X167379953Y-112497810D02*
X167440429Y-112437333D01*
X167561382Y-112376857D01*
X167742810Y-112376857D01*
X167863762Y-112437333D01*
X167924239Y-112558286D01*
X167924239Y-113223524D01*
X146697095Y-115255524D02*
X146273762Y-114650762D01*
X145971381Y-115255524D02*
X145971381Y-113985524D01*
X146455190Y-113985524D01*
X146576143Y-114046000D01*
X146636619Y-114106476D01*
X146697095Y-114227429D01*
X146697095Y-114408857D01*
X146636619Y-114529810D01*
X146576143Y-114590286D01*
X146455190Y-114650762D01*
X145971381Y-114650762D01*
X147241381Y-114590286D02*
X147664714Y-114590286D01*
X147846143Y-115255524D02*
X147241381Y-115255524D01*
X147241381Y-113985524D01*
X147846143Y-113985524D01*
X148209000Y-113985524D02*
X148632334Y-115255524D01*
X149055667Y-113985524D01*
X150386143Y-114106476D02*
X150446619Y-114046000D01*
X150567571Y-113985524D01*
X150869952Y-113985524D01*
X150990905Y-114046000D01*
X151051381Y-114106476D01*
X151111857Y-114227429D01*
X151111857Y-114348381D01*
X151051381Y-114529810D01*
X150325667Y-115255524D01*
X151111857Y-115255524D01*
X152260905Y-115255524D02*
X151656143Y-115255524D01*
X151656143Y-113985524D01*
X152381857Y-115376476D02*
X153349476Y-115376476D01*
X154317095Y-115255524D02*
X153591381Y-115255524D01*
X153954238Y-115255524D02*
X153954238Y-113985524D01*
X153833286Y-114166952D01*
X153712333Y-114287905D01*
X153591381Y-114348381D01*
X154861381Y-115134571D02*
X154921857Y-115195048D01*
X154861381Y-115255524D01*
X154800905Y-115195048D01*
X154861381Y-115134571D01*
X154861381Y-115255524D01*
X155708048Y-113985524D02*
X155829000Y-113985524D01*
X155949952Y-114046000D01*
X156010429Y-114106476D01*
X156070905Y-114227429D01*
X156131381Y-114469333D01*
X156131381Y-114771714D01*
X156070905Y-115013619D01*
X156010429Y-115134571D01*
X155949952Y-115195048D01*
X155829000Y-115255524D01*
X155708048Y-115255524D01*
X155587095Y-115195048D01*
X155526619Y-115134571D01*
X155466143Y-115013619D01*
X155405667Y-114771714D01*
X155405667Y-114469333D01*
X155466143Y-114227429D01*
X155526619Y-114106476D01*
X155587095Y-114046000D01*
X155708048Y-113985524D01*
D11*
X191860714Y-80699429D02*
X191860714Y-80264000D01*
X192622714Y-80481714D02*
X191860714Y-80481714D01*
X192586429Y-79719715D02*
X192622714Y-79792286D01*
X192622714Y-79937429D01*
X192586429Y-80010000D01*
X192513857Y-80046286D01*
X192223571Y-80046286D01*
X192151000Y-80010000D01*
X192114714Y-79937429D01*
X192114714Y-79792286D01*
X192151000Y-79719715D01*
X192223571Y-79683429D01*
X192296143Y-79683429D01*
X192368714Y-80046286D01*
X192586429Y-79393143D02*
X192622714Y-79320572D01*
X192622714Y-79175429D01*
X192586429Y-79102857D01*
X192513857Y-79066572D01*
X192477571Y-79066572D01*
X192405000Y-79102857D01*
X192368714Y-79175429D01*
X192368714Y-79284286D01*
X192332429Y-79356857D01*
X192259857Y-79393143D01*
X192223571Y-79393143D01*
X192151000Y-79356857D01*
X192114714Y-79284286D01*
X192114714Y-79175429D01*
X192151000Y-79102857D01*
X192114714Y-78848858D02*
X192114714Y-78558572D01*
X191860714Y-78740000D02*
X192513857Y-78740000D01*
X192586429Y-78703715D01*
X192622714Y-78631143D01*
X192622714Y-78558572D01*
X191552287Y-101964671D02*
X191298287Y-101964671D01*
X191298287Y-102363814D02*
X191298287Y-101601814D01*
X191661144Y-101601814D01*
X191915144Y-102327529D02*
X192024001Y-102363814D01*
X192205430Y-102363814D01*
X192278001Y-102327529D01*
X192314287Y-102291243D01*
X192350572Y-102218671D01*
X192350572Y-102146100D01*
X192314287Y-102073529D01*
X192278001Y-102037243D01*
X192205430Y-102000957D01*
X192060287Y-101964671D01*
X191987715Y-101928386D01*
X191951430Y-101892100D01*
X191915144Y-101819529D01*
X191915144Y-101746957D01*
X191951430Y-101674386D01*
X191987715Y-101638100D01*
X192060287Y-101601814D01*
X192241715Y-101601814D01*
X192350572Y-101638100D01*
X192640858Y-101674386D02*
X192677144Y-101638100D01*
X192749715Y-101601814D01*
X192931144Y-101601814D01*
X193003715Y-101638100D01*
X193040001Y-101674386D01*
X193076286Y-101746957D01*
X193076286Y-101819529D01*
X193040001Y-101928386D01*
X192604572Y-102363814D01*
X193076286Y-102363814D01*
X193548000Y-101601814D02*
X193620572Y-101601814D01*
X193693143Y-101638100D01*
X193729429Y-101674386D01*
X193765715Y-101746957D01*
X193802000Y-101892100D01*
X193802000Y-102073529D01*
X193765715Y-102218671D01*
X193729429Y-102291243D01*
X193693143Y-102327529D01*
X193620572Y-102363814D01*
X193548000Y-102363814D01*
X193475429Y-102327529D01*
X193439143Y-102291243D01*
X193402858Y-102218671D01*
X193366572Y-102073529D01*
X193366572Y-101892100D01*
X193402858Y-101746957D01*
X193439143Y-101674386D01*
X193475429Y-101638100D01*
X193548000Y-101601814D01*
X190899143Y-103521329D02*
X191008000Y-103557614D01*
X191189429Y-103557614D01*
X191262000Y-103521329D01*
X191298286Y-103485043D01*
X191334571Y-103412471D01*
X191334571Y-103339900D01*
X191298286Y-103267329D01*
X191262000Y-103231043D01*
X191189429Y-103194757D01*
X191044286Y-103158471D01*
X190971714Y-103122186D01*
X190935429Y-103085900D01*
X190899143Y-103013329D01*
X190899143Y-102940757D01*
X190935429Y-102868186D01*
X190971714Y-102831900D01*
X191044286Y-102795614D01*
X191225714Y-102795614D01*
X191334571Y-102831900D01*
X191661143Y-103557614D02*
X191661143Y-103049614D01*
X191661143Y-102795614D02*
X191624857Y-102831900D01*
X191661143Y-102868186D01*
X191697428Y-102831900D01*
X191661143Y-102795614D01*
X191661143Y-102868186D01*
X192350571Y-103049614D02*
X192350571Y-103666471D01*
X192314285Y-103739043D01*
X192278000Y-103775329D01*
X192205428Y-103811614D01*
X192096571Y-103811614D01*
X192024000Y-103775329D01*
X192350571Y-103521329D02*
X192278000Y-103557614D01*
X192132857Y-103557614D01*
X192060285Y-103521329D01*
X192024000Y-103485043D01*
X191987714Y-103412471D01*
X191987714Y-103194757D01*
X192024000Y-103122186D01*
X192060285Y-103085900D01*
X192132857Y-103049614D01*
X192278000Y-103049614D01*
X192350571Y-103085900D01*
X192713429Y-103049614D02*
X192713429Y-103557614D01*
X192713429Y-103122186D02*
X192749714Y-103085900D01*
X192822286Y-103049614D01*
X192931143Y-103049614D01*
X193003714Y-103085900D01*
X193040000Y-103158471D01*
X193040000Y-103557614D01*
X193729429Y-103557614D02*
X193729429Y-103158471D01*
X193693143Y-103085900D01*
X193620572Y-103049614D01*
X193475429Y-103049614D01*
X193402858Y-103085900D01*
X193729429Y-103521329D02*
X193656858Y-103557614D01*
X193475429Y-103557614D01*
X193402858Y-103521329D01*
X193366572Y-103448757D01*
X193366572Y-103376186D01*
X193402858Y-103303614D01*
X193475429Y-103267329D01*
X193656858Y-103267329D01*
X193729429Y-103231043D01*
X194201144Y-103557614D02*
X194128572Y-103521329D01*
X194092287Y-103448757D01*
X194092287Y-102795614D01*
D14*
X155765572Y-78212143D02*
X156908429Y-78212143D01*
X156337000Y-78783571D02*
X156337000Y-77640714D01*
X167068572Y-98151143D02*
X168211429Y-98151143D01*
X167640000Y-98722571D02*
X167640000Y-97579714D01*
X161734572Y-70973143D02*
X162877429Y-70973143D01*
X162306000Y-71544571D02*
X162306000Y-70401714D01*
X163639572Y-82784143D02*
X164782429Y-82784143D01*
X164211000Y-83355571D02*
X164211000Y-82212714D01*
D11*
X151765000Y-95340714D02*
X151765000Y-94252143D01*
X153289000Y-104357714D02*
X153289000Y-103269143D01*
X186182000Y-106516714D02*
X186182000Y-105428143D01*
X186182000Y-103087714D02*
X186182000Y-101999143D01*
X190899143Y-106262714D02*
X190899143Y-105500714D01*
X191189428Y-105500714D01*
X191262000Y-105537000D01*
X191298285Y-105573286D01*
X191334571Y-105645857D01*
X191334571Y-105754714D01*
X191298285Y-105827286D01*
X191262000Y-105863571D01*
X191189428Y-105899857D01*
X190899143Y-105899857D01*
X191770000Y-106262714D02*
X191697428Y-106226429D01*
X191661143Y-106190143D01*
X191624857Y-106117571D01*
X191624857Y-105899857D01*
X191661143Y-105827286D01*
X191697428Y-105791000D01*
X191770000Y-105754714D01*
X191878857Y-105754714D01*
X191951428Y-105791000D01*
X191987714Y-105827286D01*
X192024000Y-105899857D01*
X192024000Y-106117571D01*
X191987714Y-106190143D01*
X191951428Y-106226429D01*
X191878857Y-106262714D01*
X191770000Y-106262714D01*
X192278000Y-105754714D02*
X192423143Y-106262714D01*
X192568286Y-105899857D01*
X192713429Y-106262714D01*
X192858572Y-105754714D01*
X193439143Y-106226429D02*
X193366572Y-106262714D01*
X193221429Y-106262714D01*
X193148858Y-106226429D01*
X193112572Y-106153857D01*
X193112572Y-105863571D01*
X193148858Y-105791000D01*
X193221429Y-105754714D01*
X193366572Y-105754714D01*
X193439143Y-105791000D01*
X193475429Y-105863571D01*
X193475429Y-105936143D01*
X193112572Y-106008714D01*
X193802001Y-106262714D02*
X193802001Y-105754714D01*
X193802001Y-105899857D02*
X193838286Y-105827286D01*
X193874572Y-105791000D01*
X193947143Y-105754714D01*
X194019715Y-105754714D01*
X146231429Y-77814714D02*
X146231429Y-77052714D01*
X146521714Y-77052714D01*
X146594286Y-77089000D01*
X146630571Y-77125286D01*
X146666857Y-77197857D01*
X146666857Y-77306714D01*
X146630571Y-77379286D01*
X146594286Y-77415571D01*
X146521714Y-77451857D01*
X146231429Y-77451857D01*
X146920857Y-77306714D02*
X147066000Y-77814714D01*
X147211143Y-77451857D01*
X147356286Y-77814714D01*
X147501429Y-77306714D01*
X147791715Y-77814714D02*
X147791715Y-77306714D01*
X147791715Y-77451857D02*
X147828000Y-77379286D01*
X147864286Y-77343000D01*
X147936857Y-77306714D01*
X148009429Y-77306714D01*
X133475186Y-77488143D02*
X134237186Y-77488143D01*
X133983186Y-77851000D02*
X133475186Y-77851000D01*
X133910614Y-77851000D02*
X133946900Y-77887285D01*
X133983186Y-77959857D01*
X133983186Y-78068714D01*
X133946900Y-78141285D01*
X133874329Y-78177571D01*
X133475186Y-78177571D01*
X133983186Y-78540429D02*
X133221186Y-78540429D01*
X133946900Y-78540429D02*
X133983186Y-78613000D01*
X133983186Y-78758143D01*
X133946900Y-78830714D01*
X133910614Y-78867000D01*
X133838043Y-78903286D01*
X133620329Y-78903286D01*
X133547757Y-78867000D01*
X133511471Y-78830714D01*
X133475186Y-78758143D01*
X133475186Y-78613000D01*
X133511471Y-78540429D01*
X133983186Y-79556429D02*
X133475186Y-79556429D01*
X133983186Y-79229858D02*
X133584043Y-79229858D01*
X133511471Y-79266143D01*
X133475186Y-79338715D01*
X133475186Y-79447572D01*
X133511471Y-79520143D01*
X133547757Y-79556429D01*
X133983186Y-79810429D02*
X133983186Y-80100715D01*
X134237186Y-79919287D02*
X133584043Y-79919287D01*
X133511471Y-79955572D01*
X133475186Y-80028144D01*
X133475186Y-80100715D01*
X132499100Y-77016429D02*
X132499100Y-77379286D01*
X132281386Y-76943857D02*
X133043386Y-77197857D01*
X132281386Y-77451857D01*
X132353957Y-78141286D02*
X132317671Y-78105000D01*
X132281386Y-77996143D01*
X132281386Y-77923572D01*
X132317671Y-77814715D01*
X132390243Y-77742143D01*
X132462814Y-77705858D01*
X132607957Y-77669572D01*
X132716814Y-77669572D01*
X132861957Y-77705858D01*
X132934529Y-77742143D01*
X133007100Y-77814715D01*
X133043386Y-77923572D01*
X133043386Y-77996143D01*
X133007100Y-78105000D01*
X132970814Y-78141286D01*
X133079671Y-79012143D02*
X132099957Y-78359000D01*
X132281386Y-79266144D02*
X133043386Y-79266144D01*
X133043386Y-79447572D01*
X133007100Y-79556429D01*
X132934529Y-79629001D01*
X132861957Y-79665286D01*
X132716814Y-79701572D01*
X132607957Y-79701572D01*
X132462814Y-79665286D01*
X132390243Y-79629001D01*
X132317671Y-79556429D01*
X132281386Y-79447572D01*
X132281386Y-79266144D01*
X132353957Y-80463572D02*
X132317671Y-80427286D01*
X132281386Y-80318429D01*
X132281386Y-80245858D01*
X132317671Y-80137001D01*
X132390243Y-80064429D01*
X132462814Y-80028144D01*
X132607957Y-79991858D01*
X132716814Y-79991858D01*
X132861957Y-80028144D01*
X132934529Y-80064429D01*
X133007100Y-80137001D01*
X133043386Y-80245858D01*
X133043386Y-80318429D01*
X133007100Y-80427286D01*
X132970814Y-80463572D01*
X133819900Y-102652287D02*
X133856186Y-102579716D01*
X133856186Y-102470859D01*
X133819900Y-102362002D01*
X133747329Y-102289430D01*
X133674757Y-102253145D01*
X133529614Y-102216859D01*
X133420757Y-102216859D01*
X133275614Y-102253145D01*
X133203043Y-102289430D01*
X133130471Y-102362002D01*
X133094186Y-102470859D01*
X133094186Y-102543430D01*
X133130471Y-102652287D01*
X133166757Y-102688573D01*
X133420757Y-102688573D01*
X133420757Y-102543430D01*
X133094186Y-103015145D02*
X133856186Y-103015145D01*
X133094186Y-103450573D01*
X133856186Y-103450573D01*
X133094186Y-103813431D02*
X133856186Y-103813431D01*
X133856186Y-103994859D01*
X133819900Y-104103716D01*
X133747329Y-104176288D01*
X133674757Y-104212573D01*
X133529614Y-104248859D01*
X133420757Y-104248859D01*
X133275614Y-104212573D01*
X133203043Y-104176288D01*
X133130471Y-104103716D01*
X133094186Y-103994859D01*
X133094186Y-103813431D01*
X133130471Y-106861429D02*
X133094186Y-106970286D01*
X133094186Y-107151715D01*
X133130471Y-107224286D01*
X133166757Y-107260572D01*
X133239329Y-107296857D01*
X133311900Y-107296857D01*
X133384471Y-107260572D01*
X133420757Y-107224286D01*
X133457043Y-107151715D01*
X133493329Y-107006572D01*
X133529614Y-106934000D01*
X133565900Y-106897715D01*
X133638471Y-106861429D01*
X133711043Y-106861429D01*
X133783614Y-106897715D01*
X133819900Y-106934000D01*
X133856186Y-107006572D01*
X133856186Y-107188000D01*
X133819900Y-107296857D01*
X133856186Y-107514571D02*
X133856186Y-107950000D01*
X133094186Y-107732286D02*
X133856186Y-107732286D01*
X133094186Y-108603142D02*
X133094186Y-108167714D01*
X133094186Y-108385428D02*
X133856186Y-108385428D01*
X133747329Y-108312857D01*
X133674757Y-108240285D01*
X133638471Y-108167714D01*
X132299529Y-101436716D02*
X132299529Y-101182716D01*
X131900386Y-101182716D02*
X132662386Y-101182716D01*
X132662386Y-101545573D01*
X131936671Y-101799573D02*
X131900386Y-101908430D01*
X131900386Y-102089859D01*
X131936671Y-102162430D01*
X131972957Y-102198716D01*
X132045529Y-102235001D01*
X132118100Y-102235001D01*
X132190671Y-102198716D01*
X132226957Y-102162430D01*
X132263243Y-102089859D01*
X132299529Y-101944716D01*
X132335814Y-101872144D01*
X132372100Y-101835859D01*
X132444671Y-101799573D01*
X132517243Y-101799573D01*
X132589814Y-101835859D01*
X132626100Y-101872144D01*
X132662386Y-101944716D01*
X132662386Y-102126144D01*
X132626100Y-102235001D01*
X132589814Y-102525287D02*
X132626100Y-102561573D01*
X132662386Y-102634144D01*
X132662386Y-102815573D01*
X132626100Y-102888144D01*
X132589814Y-102924430D01*
X132517243Y-102960715D01*
X132444671Y-102960715D01*
X132335814Y-102924430D01*
X131900386Y-102489001D01*
X131900386Y-102960715D01*
X132662386Y-103432429D02*
X132662386Y-103505001D01*
X132626100Y-103577572D01*
X132589814Y-103613858D01*
X132517243Y-103650144D01*
X132372100Y-103686429D01*
X132190671Y-103686429D01*
X132045529Y-103650144D01*
X131972957Y-103613858D01*
X131936671Y-103577572D01*
X131900386Y-103505001D01*
X131900386Y-103432429D01*
X131936671Y-103359858D01*
X131972957Y-103323572D01*
X132045529Y-103287287D01*
X132190671Y-103251001D01*
X132372100Y-103251001D01*
X132517243Y-103287287D01*
X132589814Y-103323572D01*
X132626100Y-103359858D01*
X132662386Y-103432429D01*
X131936671Y-103976715D02*
X131900386Y-104085572D01*
X131900386Y-104267001D01*
X131936671Y-104339572D01*
X131972957Y-104375858D01*
X132045529Y-104412143D01*
X132118100Y-104412143D01*
X132190671Y-104375858D01*
X132226957Y-104339572D01*
X132263243Y-104267001D01*
X132299529Y-104121858D01*
X132335814Y-104049286D01*
X132372100Y-104013001D01*
X132444671Y-103976715D01*
X132517243Y-103976715D01*
X132589814Y-104013001D01*
X132626100Y-104049286D01*
X132662386Y-104121858D01*
X132662386Y-104303286D01*
X132626100Y-104412143D01*
X132408386Y-105065286D02*
X131900386Y-105065286D01*
X132698671Y-104883857D02*
X132154386Y-104702429D01*
X132154386Y-105174143D01*
X131936671Y-105428143D02*
X131900386Y-105537000D01*
X131900386Y-105718429D01*
X131936671Y-105791000D01*
X131972957Y-105827286D01*
X132045529Y-105863571D01*
X132118100Y-105863571D01*
X132190671Y-105827286D01*
X132226957Y-105791000D01*
X132263243Y-105718429D01*
X132299529Y-105573286D01*
X132335814Y-105500714D01*
X132372100Y-105464429D01*
X132444671Y-105428143D01*
X132517243Y-105428143D01*
X132589814Y-105464429D01*
X132626100Y-105500714D01*
X132662386Y-105573286D01*
X132662386Y-105754714D01*
X132626100Y-105863571D01*
X132662386Y-106190143D02*
X132045529Y-106190143D01*
X131972957Y-106226428D01*
X131936671Y-106262714D01*
X131900386Y-106335285D01*
X131900386Y-106480428D01*
X131936671Y-106553000D01*
X131972957Y-106589285D01*
X132045529Y-106625571D01*
X132662386Y-106625571D01*
X132299529Y-107242429D02*
X132263243Y-107351286D01*
X132226957Y-107387571D01*
X132154386Y-107423857D01*
X132045529Y-107423857D01*
X131972957Y-107387571D01*
X131936671Y-107351286D01*
X131900386Y-107278714D01*
X131900386Y-106988429D01*
X132662386Y-106988429D01*
X132662386Y-107242429D01*
X132626100Y-107315000D01*
X132589814Y-107351286D01*
X132517243Y-107387571D01*
X132444671Y-107387571D01*
X132372100Y-107351286D01*
X132335814Y-107315000D01*
X132299529Y-107242429D01*
X132299529Y-106988429D01*
X132589814Y-107714143D02*
X132626100Y-107750429D01*
X132662386Y-107823000D01*
X132662386Y-108004429D01*
X132626100Y-108077000D01*
X132589814Y-108113286D01*
X132517243Y-108149571D01*
X132444671Y-108149571D01*
X132335814Y-108113286D01*
X131900386Y-107677857D01*
X131900386Y-108149571D01*
X132698671Y-109020428D02*
X131718957Y-108367285D01*
X132408386Y-109601000D02*
X131900386Y-109601000D01*
X132698671Y-109419571D02*
X132154386Y-109238143D01*
X132154386Y-109709857D01*
D15*
X141097000Y-76581000D02*
X141097000Y-74041000D01*
X141097000Y-74041000D02*
X135001000Y-74041000D01*
X135001000Y-74041000D02*
X135001000Y-76835000D01*
X134239000Y-73533000D02*
X134239000Y-83693000D01*
X134239000Y-83693000D02*
X141859000Y-83693000D01*
X141859000Y-83693000D02*
X141859000Y-73533000D01*
X141859000Y-73533000D02*
X134239000Y-73533000D01*
X169210000Y-87157000D02*
X159212000Y-87157000D01*
X169206000Y-87297000D02*
X159216000Y-87297000D01*
X169198000Y-87437000D02*
X159224000Y-87437000D01*
X169186000Y-87577000D02*
X159236000Y-87577000D01*
X169171000Y-87717000D02*
X159251000Y-87717000D01*
X169151000Y-87857000D02*
X159271000Y-87857000D01*
X169127000Y-87997000D02*
X159295000Y-87997000D01*
X169098000Y-88137000D02*
X159324000Y-88137000D01*
X169066000Y-88277000D02*
X159356000Y-88277000D01*
X169029000Y-88417000D02*
X159393000Y-88417000D01*
X168988000Y-88557000D02*
X159434000Y-88557000D01*
X168943000Y-88697000D02*
X164677000Y-88697000D01*
X163745000Y-88697000D02*
X159479000Y-88697000D01*
X168893000Y-88837000D02*
X164878000Y-88837000D01*
X163544000Y-88837000D02*
X159529000Y-88837000D01*
X168838000Y-88977000D02*
X165007000Y-88977000D01*
X163415000Y-88977000D02*
X159584000Y-88977000D01*
X168778000Y-89117000D02*
X165096000Y-89117000D01*
X163326000Y-89117000D02*
X159644000Y-89117000D01*
X168713000Y-89257000D02*
X165157000Y-89257000D01*
X163265000Y-89257000D02*
X159709000Y-89257000D01*
X168643000Y-89397000D02*
X165194000Y-89397000D01*
X163228000Y-89397000D02*
X159779000Y-89397000D01*
X168567000Y-89537000D02*
X165210000Y-89537000D01*
X163212000Y-89537000D02*
X159855000Y-89537000D01*
X168485000Y-89677000D02*
X165206000Y-89677000D01*
X163216000Y-89677000D02*
X159937000Y-89677000D01*
X168397000Y-89817000D02*
X165183000Y-89817000D01*
X163239000Y-89817000D02*
X160025000Y-89817000D01*
X168302000Y-89957000D02*
X165138000Y-89957000D01*
X163284000Y-89957000D02*
X160120000Y-89957000D01*
X168200000Y-90097000D02*
X165068000Y-90097000D01*
X163354000Y-90097000D02*
X160222000Y-90097000D01*
X168090000Y-90237000D02*
X164967000Y-90237000D01*
X163455000Y-90237000D02*
X160332000Y-90237000D01*
X167972000Y-90377000D02*
X164818000Y-90377000D01*
X163604000Y-90377000D02*
X160450000Y-90377000D01*
X167844000Y-90517000D02*
X164566000Y-90517000D01*
X163856000Y-90517000D02*
X160578000Y-90517000D01*
X167707000Y-90657000D02*
X160715000Y-90657000D01*
X167557000Y-90797000D02*
X160865000Y-90797000D01*
X167395000Y-90937000D02*
X161027000Y-90937000D01*
X167218000Y-91077000D02*
X161204000Y-91077000D01*
X167022000Y-91217000D02*
X161400000Y-91217000D01*
X166804000Y-91357000D02*
X161618000Y-91357000D01*
X166558000Y-91497000D02*
X161864000Y-91497000D01*
X166273000Y-91637000D02*
X162149000Y-91637000D01*
X165931000Y-91777000D02*
X162491000Y-91777000D01*
X165485000Y-91917000D02*
X162937000Y-91917000D01*
X164710000Y-92057000D02*
X163712000Y-92057000D01*
X165211000Y-89582000D02*
G75*
G03X165211000Y-89582000I-1000000J0D01*
G01*
X169248500Y-87082000D02*
G75*
G03X169248500Y-87082000I-5037500J0D01*
G01*
X175221000Y-86987000D02*
X175221000Y-85987000D01*
X173521000Y-85987000D02*
X173521000Y-86987000D01*
X163584000Y-81114000D02*
X164584000Y-81114000D01*
X164584000Y-79414000D02*
X163584000Y-79414000D01*
X158437000Y-73492000D02*
X158437000Y-68494000D01*
X158297000Y-73484000D02*
X158297000Y-71147000D01*
X158297000Y-70839000D02*
X158297000Y-68502000D01*
X158157000Y-73468000D02*
X158157000Y-71466000D01*
X158157000Y-70520000D02*
X158157000Y-68518000D01*
X158017000Y-73444000D02*
X158017000Y-71613000D01*
X158017000Y-70373000D02*
X158017000Y-68542000D01*
X157877000Y-73411000D02*
X157877000Y-71705000D01*
X157877000Y-70281000D02*
X157877000Y-68575000D01*
X157737000Y-73370000D02*
X157737000Y-71761000D01*
X157737000Y-70225000D02*
X157737000Y-68616000D01*
X157597000Y-73320000D02*
X157597000Y-71788000D01*
X157597000Y-70198000D02*
X157597000Y-68666000D01*
X157457000Y-73259000D02*
X157457000Y-71791000D01*
X157457000Y-70195000D02*
X157457000Y-68727000D01*
X157317000Y-73189000D02*
X157317000Y-71769000D01*
X157317000Y-70217000D02*
X157317000Y-68797000D01*
X157177000Y-73107000D02*
X157177000Y-71719000D01*
X157177000Y-70267000D02*
X157177000Y-68879000D01*
X157037000Y-73012000D02*
X157037000Y-71637000D01*
X157037000Y-70349000D02*
X157037000Y-68974000D01*
X156897000Y-72901000D02*
X156897000Y-71505000D01*
X156897000Y-70481000D02*
X156897000Y-69085000D01*
X156757000Y-72773000D02*
X156757000Y-71258000D01*
X156757000Y-70728000D02*
X156757000Y-69213000D01*
X156617000Y-72624000D02*
X156617000Y-69362000D01*
X156477000Y-72445000D02*
X156477000Y-69541000D01*
X156337000Y-72226000D02*
X156337000Y-69760000D01*
X156197000Y-71937000D02*
X156197000Y-70049000D01*
X156057000Y-71465000D02*
X156057000Y-70521000D01*
X158312000Y-70993000D02*
G75*
G03X158312000Y-70993000I-800000J0D01*
G01*
X161049500Y-70993000D02*
G75*
G03X161049500Y-70993000I-2537500J0D01*
G01*
X172728000Y-107276000D02*
X173728000Y-107276000D01*
X173728000Y-105576000D02*
X172728000Y-105576000D01*
X185254000Y-90416000D02*
X185254000Y-89416000D01*
X183554000Y-89416000D02*
X183554000Y-90416000D01*
X154012000Y-93591000D02*
X154012000Y-92591000D01*
X152312000Y-92591000D02*
X152312000Y-93591000D01*
X156679000Y-93591000D02*
X156679000Y-92591000D01*
X154979000Y-92591000D02*
X154979000Y-93591000D01*
X168488000Y-99246000D02*
X163490000Y-99246000D01*
X168480000Y-99386000D02*
X166143000Y-99386000D01*
X165835000Y-99386000D02*
X163498000Y-99386000D01*
X168464000Y-99526000D02*
X166462000Y-99526000D01*
X165516000Y-99526000D02*
X163514000Y-99526000D01*
X168440000Y-99666000D02*
X166609000Y-99666000D01*
X165369000Y-99666000D02*
X163538000Y-99666000D01*
X168407000Y-99806000D02*
X166701000Y-99806000D01*
X165277000Y-99806000D02*
X163571000Y-99806000D01*
X168366000Y-99946000D02*
X166757000Y-99946000D01*
X165221000Y-99946000D02*
X163612000Y-99946000D01*
X168316000Y-100086000D02*
X166784000Y-100086000D01*
X165194000Y-100086000D02*
X163662000Y-100086000D01*
X168255000Y-100226000D02*
X166787000Y-100226000D01*
X165191000Y-100226000D02*
X163723000Y-100226000D01*
X168185000Y-100366000D02*
X166765000Y-100366000D01*
X165213000Y-100366000D02*
X163793000Y-100366000D01*
X168103000Y-100506000D02*
X166715000Y-100506000D01*
X165263000Y-100506000D02*
X163875000Y-100506000D01*
X168008000Y-100646000D02*
X166633000Y-100646000D01*
X165345000Y-100646000D02*
X163970000Y-100646000D01*
X167897000Y-100786000D02*
X166501000Y-100786000D01*
X165477000Y-100786000D02*
X164081000Y-100786000D01*
X167769000Y-100926000D02*
X166254000Y-100926000D01*
X165724000Y-100926000D02*
X164209000Y-100926000D01*
X167620000Y-101066000D02*
X164358000Y-101066000D01*
X167441000Y-101206000D02*
X164537000Y-101206000D01*
X167222000Y-101346000D02*
X164756000Y-101346000D01*
X166933000Y-101486000D02*
X165045000Y-101486000D01*
X166461000Y-101626000D02*
X165517000Y-101626000D01*
X166789000Y-100171000D02*
G75*
G03X166789000Y-100171000I-800000J0D01*
G01*
X168526500Y-99171000D02*
G75*
G03X168526500Y-99171000I-2537500J0D01*
G01*
X175530000Y-91957000D02*
X177530000Y-91957000D01*
X177530000Y-89907000D02*
X175530000Y-89907000D01*
X154286000Y-104486000D02*
X155836000Y-104486000D01*
X154286000Y-103286000D02*
X155836000Y-103286000D01*
X159355733Y-78232000D02*
G75*
G03X159355733Y-78232000I-4669733J0D01*
G01*
X186868000Y-106668000D02*
X189568000Y-106668000D01*
X186868000Y-105168000D02*
X189568000Y-105168000D01*
X188368000Y-106068000D02*
X188368000Y-105818000D01*
X188368000Y-105818000D02*
X188218000Y-105968000D01*
X188118000Y-105568000D02*
X188118000Y-106268000D01*
X188468000Y-105918000D02*
X188818000Y-105918000D01*
X188118000Y-105918000D02*
X188468000Y-105568000D01*
X188468000Y-105568000D02*
X188468000Y-106268000D01*
X188468000Y-106268000D02*
X188118000Y-105918000D01*
X157388000Y-91675000D02*
X157388000Y-93225000D01*
X158588000Y-91675000D02*
X158588000Y-93225000D01*
X186868000Y-103366000D02*
X189568000Y-103366000D01*
X186868000Y-101866000D02*
X189568000Y-101866000D01*
X188368000Y-102766000D02*
X188368000Y-102516000D01*
X188368000Y-102516000D02*
X188218000Y-102666000D01*
X188118000Y-102266000D02*
X188118000Y-102966000D01*
X188468000Y-102616000D02*
X188818000Y-102616000D01*
X188118000Y-102616000D02*
X188468000Y-102266000D01*
X188468000Y-102266000D02*
X188468000Y-102966000D01*
X188468000Y-102966000D02*
X188118000Y-102616000D01*
X148625000Y-93580000D02*
X148625000Y-95130000D01*
X149825000Y-93580000D02*
X149825000Y-95130000D01*
X141097000Y-103378000D02*
X141097000Y-100838000D01*
X141097000Y-100838000D02*
X135001000Y-100838000D01*
X135001000Y-100838000D02*
X135001000Y-103632000D01*
X134239000Y-100330000D02*
X134239000Y-110490000D01*
X134239000Y-110490000D02*
X141859000Y-110490000D01*
X141859000Y-110490000D02*
X141859000Y-100330000D01*
X141859000Y-100330000D02*
X134239000Y-100330000D01*
X155418840Y-99583240D02*
X155467100Y-99583240D01*
X158217820Y-98882200D02*
X158217820Y-99583240D01*
X158217820Y-99583240D02*
X157968900Y-99583240D01*
X155418840Y-99583240D02*
X155218180Y-99583240D01*
X155218180Y-99583240D02*
X155218180Y-98882200D01*
X188560000Y-109079000D02*
X187360000Y-109079000D01*
X187360000Y-107329000D02*
X188560000Y-107329000D01*
X173574000Y-105015000D02*
X172374000Y-105015000D01*
X172374000Y-103265000D02*
X173574000Y-103265000D01*
X180735000Y-90262000D02*
X180735000Y-89062000D01*
X182485000Y-89062000D02*
X182485000Y-90262000D01*
X159223000Y-102983000D02*
X158023000Y-102983000D01*
X158023000Y-101233000D02*
X159223000Y-101233000D01*
X186274000Y-99427000D02*
X185074000Y-99427000D01*
X185074000Y-97677000D02*
X186274000Y-97677000D01*
X161403000Y-96047000D02*
X161403000Y-97247000D01*
X159653000Y-97247000D02*
X159653000Y-96047000D01*
X144815000Y-91327000D02*
X146015000Y-91327000D01*
X146015000Y-93077000D02*
X144815000Y-93077000D01*
X146015000Y-95617000D02*
X144815000Y-95617000D01*
X144815000Y-93867000D02*
X146015000Y-93867000D01*
X166659000Y-93740000D02*
X167859000Y-93740000D01*
X167859000Y-95490000D02*
X166659000Y-95490000D01*
X147955000Y-105791000D02*
X144653000Y-105791000D01*
X144653000Y-105791000D02*
X144653000Y-109855000D01*
X144653000Y-109855000D02*
X147955000Y-109855000D01*
X144399000Y-105283000D02*
X164211000Y-105283000D01*
X164211000Y-105283000D02*
X164211000Y-110363000D01*
X164211000Y-110363000D02*
X144399000Y-110363000D01*
X144399000Y-110363000D02*
X144399000Y-105283000D01*
X145542000Y-74041000D02*
X148082000Y-74041000D01*
X142722000Y-73761000D02*
X144272000Y-73761000D01*
X145542000Y-74041000D02*
X145542000Y-76581000D01*
X144272000Y-76861000D02*
X142722000Y-76861000D01*
X142722000Y-76861000D02*
X142722000Y-73761000D01*
X145542000Y-76581000D02*
X148082000Y-76581000D01*
X148082000Y-76581000D02*
X148082000Y-74041000D01*
X192024000Y-82296000D02*
X195326000Y-82296000D01*
X195326000Y-82296000D02*
X195326000Y-85344000D01*
X186944000Y-82804000D02*
X194818000Y-82804000D01*
X194818000Y-82804000D02*
X194818000Y-94996000D01*
X194818000Y-94996000D02*
X186944000Y-94996000D01*
X186944000Y-94996000D02*
X186944000Y-82804000D01*
X176749000Y-99865000D02*
X176894000Y-99865000D01*
X176749000Y-95715000D02*
X176894000Y-95715000D01*
X181899000Y-95715000D02*
X181754000Y-95715000D01*
X181899000Y-99865000D02*
X181754000Y-99865000D01*
X176749000Y-99865000D02*
X176749000Y-95715000D01*
X181899000Y-99865000D02*
X181899000Y-95715000D01*
X176894000Y-99865000D02*
X176894000Y-101265000D01*
D10*
G36*
X144528378Y-112540418D02*
X144526238Y-113134076D01*
X144526000Y-113318945D01*
X144524032Y-113959217D01*
X144517365Y-114449453D01*
X144504856Y-114808914D01*
X144485361Y-115056861D01*
X144457735Y-115212554D01*
X144420835Y-115295252D01*
X144407831Y-115308670D01*
X144240596Y-115380142D01*
X144102667Y-115410474D01*
X144102667Y-114956748D01*
X144102667Y-113363371D01*
X144098611Y-112842909D01*
X144087250Y-112393332D01*
X144069795Y-112039665D01*
X144047453Y-111806937D01*
X144023275Y-111720926D01*
X143911827Y-111690092D01*
X143669552Y-111643619D01*
X143333493Y-111588095D01*
X142986108Y-111536485D01*
X142357640Y-111474536D01*
X141630051Y-111446245D01*
X140860137Y-111450497D01*
X140104692Y-111486179D01*
X139420514Y-111552176D01*
X139022667Y-111614237D01*
X138472333Y-111718859D01*
X138449366Y-113340143D01*
X138426399Y-114961426D01*
X138999699Y-115052198D01*
X139335613Y-115104928D01*
X139640424Y-115152002D01*
X139827000Y-115180091D01*
X140067169Y-115197739D01*
X140438525Y-115204161D01*
X140903383Y-115200617D01*
X141424057Y-115188364D01*
X141962862Y-115168660D01*
X142482112Y-115142761D01*
X142944122Y-115111926D01*
X143311206Y-115077412D01*
X143446500Y-115059306D01*
X144102667Y-114956748D01*
X144102667Y-115410474D01*
X143931275Y-115448166D01*
X143507113Y-115510037D01*
X142995356Y-115563051D01*
X142423249Y-115604504D01*
X141818039Y-115631692D01*
X141206969Y-115641910D01*
X141054667Y-115641483D01*
X140569669Y-115636260D01*
X140130889Y-115628201D01*
X139772154Y-115618183D01*
X139527292Y-115607080D01*
X139446000Y-115599816D01*
X138939428Y-115516236D01*
X138531639Y-115433708D01*
X138246462Y-115357632D01*
X138112500Y-115297674D01*
X138075465Y-115219849D01*
X138047306Y-115044790D01*
X138027198Y-114757075D01*
X138014317Y-114341284D01*
X138007837Y-113781996D01*
X138006667Y-113318945D01*
X138007618Y-112702599D01*
X138011577Y-112234164D01*
X138020200Y-111892224D01*
X138035144Y-111655362D01*
X138058066Y-111502160D01*
X138090622Y-111411203D01*
X138134468Y-111361073D01*
X138159312Y-111345597D01*
X138425200Y-111252179D01*
X138830761Y-111172175D01*
X139346773Y-111106830D01*
X139944015Y-111057389D01*
X140593264Y-111025099D01*
X141265298Y-111011204D01*
X141930896Y-111016950D01*
X142560834Y-111043582D01*
X143125891Y-111092346D01*
X143364193Y-111123783D01*
X143729658Y-111175423D01*
X144009762Y-111220352D01*
X144215766Y-111279847D01*
X144358929Y-111375182D01*
X144450512Y-111527632D01*
X144501775Y-111758471D01*
X144523977Y-112088975D01*
X144528378Y-112540418D01*
X144528378Y-112540418D01*
X144528378Y-112540418D01*
G37*
X144528378Y-112540418D02*
X144526238Y-113134076D01*
X144526000Y-113318945D01*
X144524032Y-113959217D01*
X144517365Y-114449453D01*
X144504856Y-114808914D01*
X144485361Y-115056861D01*
X144457735Y-115212554D01*
X144420835Y-115295252D01*
X144407831Y-115308670D01*
X144240596Y-115380142D01*
X144102667Y-115410474D01*
X144102667Y-114956748D01*
X144102667Y-113363371D01*
X144098611Y-112842909D01*
X144087250Y-112393332D01*
X144069795Y-112039665D01*
X144047453Y-111806937D01*
X144023275Y-111720926D01*
X143911827Y-111690092D01*
X143669552Y-111643619D01*
X143333493Y-111588095D01*
X142986108Y-111536485D01*
X142357640Y-111474536D01*
X141630051Y-111446245D01*
X140860137Y-111450497D01*
X140104692Y-111486179D01*
X139420514Y-111552176D01*
X139022667Y-111614237D01*
X138472333Y-111718859D01*
X138449366Y-113340143D01*
X138426399Y-114961426D01*
X138999699Y-115052198D01*
X139335613Y-115104928D01*
X139640424Y-115152002D01*
X139827000Y-115180091D01*
X140067169Y-115197739D01*
X140438525Y-115204161D01*
X140903383Y-115200617D01*
X141424057Y-115188364D01*
X141962862Y-115168660D01*
X142482112Y-115142761D01*
X142944122Y-115111926D01*
X143311206Y-115077412D01*
X143446500Y-115059306D01*
X144102667Y-114956748D01*
X144102667Y-115410474D01*
X143931275Y-115448166D01*
X143507113Y-115510037D01*
X142995356Y-115563051D01*
X142423249Y-115604504D01*
X141818039Y-115631692D01*
X141206969Y-115641910D01*
X141054667Y-115641483D01*
X140569669Y-115636260D01*
X140130889Y-115628201D01*
X139772154Y-115618183D01*
X139527292Y-115607080D01*
X139446000Y-115599816D01*
X138939428Y-115516236D01*
X138531639Y-115433708D01*
X138246462Y-115357632D01*
X138112500Y-115297674D01*
X138075465Y-115219849D01*
X138047306Y-115044790D01*
X138027198Y-114757075D01*
X138014317Y-114341284D01*
X138007837Y-113781996D01*
X138006667Y-113318945D01*
X138007618Y-112702599D01*
X138011577Y-112234164D01*
X138020200Y-111892224D01*
X138035144Y-111655362D01*
X138058066Y-111502160D01*
X138090622Y-111411203D01*
X138134468Y-111361073D01*
X138159312Y-111345597D01*
X138425200Y-111252179D01*
X138830761Y-111172175D01*
X139346773Y-111106830D01*
X139944015Y-111057389D01*
X140593264Y-111025099D01*
X141265298Y-111011204D01*
X141930896Y-111016950D01*
X142560834Y-111043582D01*
X143125891Y-111092346D01*
X143364193Y-111123783D01*
X143729658Y-111175423D01*
X144009762Y-111220352D01*
X144215766Y-111279847D01*
X144358929Y-111375182D01*
X144450512Y-111527632D01*
X144501775Y-111758471D01*
X144523977Y-112088975D01*
X144528378Y-112540418D01*
X144528378Y-112540418D01*
G36*
X141566670Y-113685396D02*
X141519189Y-114068950D01*
X141354447Y-114418481D01*
X141080161Y-114687811D01*
X140938903Y-114761168D01*
X140750567Y-114811105D01*
X140479715Y-114842878D01*
X140090911Y-114861742D01*
X139869333Y-114867393D01*
X139472939Y-114871691D01*
X139134647Y-114867729D01*
X138892870Y-114856450D01*
X138789833Y-114840953D01*
X138700971Y-114723885D01*
X138692884Y-114545760D01*
X138760694Y-114391596D01*
X138817925Y-114351391D01*
X138956727Y-114329378D01*
X139220799Y-114312077D01*
X139566093Y-114301813D01*
X139791591Y-114300000D01*
X140273135Y-114284429D01*
X140609671Y-114230481D01*
X140823272Y-114127299D01*
X140936013Y-113964028D01*
X140969967Y-113729811D01*
X140970000Y-113720455D01*
X140903502Y-113456492D01*
X140698858Y-113269644D01*
X140348342Y-113154320D01*
X140146924Y-113124904D01*
X139871361Y-113089063D01*
X139724693Y-113043056D01*
X139666873Y-112965255D01*
X139657667Y-112860666D01*
X139668631Y-112746268D01*
X139726964Y-112679955D01*
X139870824Y-112645166D01*
X140138369Y-112625341D01*
X140208000Y-112621817D01*
X140624280Y-112625844D01*
X140923980Y-112690245D01*
X141018279Y-112732786D01*
X141314942Y-112977094D01*
X141498163Y-113308037D01*
X141566670Y-113685396D01*
X141566670Y-113685396D01*
X141566670Y-113685396D01*
G37*
X141566670Y-113685396D02*
X141519189Y-114068950D01*
X141354447Y-114418481D01*
X141080161Y-114687811D01*
X140938903Y-114761168D01*
X140750567Y-114811105D01*
X140479715Y-114842878D01*
X140090911Y-114861742D01*
X139869333Y-114867393D01*
X139472939Y-114871691D01*
X139134647Y-114867729D01*
X138892870Y-114856450D01*
X138789833Y-114840953D01*
X138700971Y-114723885D01*
X138692884Y-114545760D01*
X138760694Y-114391596D01*
X138817925Y-114351391D01*
X138956727Y-114329378D01*
X139220799Y-114312077D01*
X139566093Y-114301813D01*
X139791591Y-114300000D01*
X140273135Y-114284429D01*
X140609671Y-114230481D01*
X140823272Y-114127299D01*
X140936013Y-113964028D01*
X140969967Y-113729811D01*
X140970000Y-113720455D01*
X140903502Y-113456492D01*
X140698858Y-113269644D01*
X140348342Y-113154320D01*
X140146924Y-113124904D01*
X139871361Y-113089063D01*
X139724693Y-113043056D01*
X139666873Y-112965255D01*
X139657667Y-112860666D01*
X139668631Y-112746268D01*
X139726964Y-112679955D01*
X139870824Y-112645166D01*
X140138369Y-112625341D01*
X140208000Y-112621817D01*
X140624280Y-112625844D01*
X140923980Y-112690245D01*
X141018279Y-112732786D01*
X141314942Y-112977094D01*
X141498163Y-113308037D01*
X141566670Y-113685396D01*
X141566670Y-113685396D01*
G36*
X143763068Y-113776399D02*
X143743138Y-114299157D01*
X143682339Y-114662069D01*
X143581294Y-114863846D01*
X143440624Y-114903203D01*
X143272933Y-114791066D01*
X143219682Y-114645488D01*
X143185686Y-114338882D01*
X143171676Y-113878537D01*
X143171333Y-113779050D01*
X143162764Y-113381735D01*
X143139630Y-113029407D01*
X143105790Y-112767877D01*
X143077241Y-112662124D01*
X142933675Y-112492654D01*
X142699328Y-112345565D01*
X142653908Y-112326284D01*
X142432838Y-112215786D01*
X142338007Y-112089972D01*
X142324667Y-111984685D01*
X142388639Y-111808243D01*
X142556569Y-111724667D01*
X142792475Y-111731481D01*
X143060374Y-111826205D01*
X143324284Y-112006361D01*
X143378278Y-112057255D01*
X143529560Y-112233985D01*
X143636216Y-112433797D01*
X143705517Y-112689186D01*
X143744737Y-113032649D01*
X143761149Y-113496682D01*
X143763068Y-113776399D01*
X143763068Y-113776399D01*
X143763068Y-113776399D01*
G37*
X143763068Y-113776399D02*
X143743138Y-114299157D01*
X143682339Y-114662069D01*
X143581294Y-114863846D01*
X143440624Y-114903203D01*
X143272933Y-114791066D01*
X143219682Y-114645488D01*
X143185686Y-114338882D01*
X143171676Y-113878537D01*
X143171333Y-113779050D01*
X143162764Y-113381735D01*
X143139630Y-113029407D01*
X143105790Y-112767877D01*
X143077241Y-112662124D01*
X142933675Y-112492654D01*
X142699328Y-112345565D01*
X142653908Y-112326284D01*
X142432838Y-112215786D01*
X142338007Y-112089972D01*
X142324667Y-111984685D01*
X142388639Y-111808243D01*
X142556569Y-111724667D01*
X142792475Y-111731481D01*
X143060374Y-111826205D01*
X143324284Y-112006361D01*
X143378278Y-112057255D01*
X143529560Y-112233985D01*
X143636216Y-112433797D01*
X143705517Y-112689186D01*
X143744737Y-113032649D01*
X143761149Y-113496682D01*
X143763068Y-113776399D01*
X143763068Y-113776399D01*
G36*
X142419199Y-113410520D02*
X142395174Y-113707519D01*
X142343217Y-113917327D01*
X142282333Y-113991951D01*
X142090305Y-114022023D01*
X141969857Y-113925621D01*
X141911111Y-113688874D01*
X141901333Y-113456909D01*
X141866254Y-112961412D01*
X141758985Y-112611937D01*
X141576479Y-112399931D01*
X141512135Y-112364336D01*
X141334694Y-112321401D01*
X141039586Y-112288319D01*
X140678408Y-112270058D01*
X140511767Y-112268000D01*
X140120142Y-112273548D01*
X139855346Y-112295080D01*
X139675098Y-112339927D01*
X139537114Y-112415422D01*
X139499751Y-112443478D01*
X139320754Y-112672739D01*
X139283202Y-112935950D01*
X139390386Y-113182950D01*
X139447312Y-113242854D01*
X139670206Y-113357454D01*
X140019642Y-113428508D01*
X140103479Y-113436644D01*
X140467848Y-113493077D01*
X140668648Y-113590606D01*
X140706808Y-113730155D01*
X140583257Y-113912647D01*
X140582952Y-113912952D01*
X140385853Y-114010949D01*
X140063223Y-114028715D01*
X139603121Y-113966860D01*
X139586751Y-113963719D01*
X139207002Y-113817080D01*
X138928556Y-113565501D01*
X138755496Y-113242686D01*
X138691901Y-112882335D01*
X138741854Y-112518151D01*
X138909435Y-112183837D01*
X139198726Y-111913094D01*
X139329528Y-111839569D01*
X139512860Y-111760187D01*
X139696289Y-111709824D01*
X139921337Y-111683875D01*
X140229528Y-111677734D01*
X140662384Y-111686796D01*
X140697491Y-111687852D01*
X141190486Y-111710266D01*
X141548435Y-111750823D01*
X141805523Y-111821716D01*
X141995932Y-111935137D01*
X142153845Y-112103277D01*
X142251625Y-112242171D01*
X142331505Y-112442154D01*
X142386582Y-112733259D01*
X142416074Y-113070907D01*
X142419199Y-113410520D01*
X142419199Y-113410520D01*
X142419199Y-113410520D01*
G37*
X142419199Y-113410520D02*
X142395174Y-113707519D01*
X142343217Y-113917327D01*
X142282333Y-113991951D01*
X142090305Y-114022023D01*
X141969857Y-113925621D01*
X141911111Y-113688874D01*
X141901333Y-113456909D01*
X141866254Y-112961412D01*
X141758985Y-112611937D01*
X141576479Y-112399931D01*
X141512135Y-112364336D01*
X141334694Y-112321401D01*
X141039586Y-112288319D01*
X140678408Y-112270058D01*
X140511767Y-112268000D01*
X140120142Y-112273548D01*
X139855346Y-112295080D01*
X139675098Y-112339927D01*
X139537114Y-112415422D01*
X139499751Y-112443478D01*
X139320754Y-112672739D01*
X139283202Y-112935950D01*
X139390386Y-113182950D01*
X139447312Y-113242854D01*
X139670206Y-113357454D01*
X140019642Y-113428508D01*
X140103479Y-113436644D01*
X140467848Y-113493077D01*
X140668648Y-113590606D01*
X140706808Y-113730155D01*
X140583257Y-113912647D01*
X140582952Y-113912952D01*
X140385853Y-114010949D01*
X140063223Y-114028715D01*
X139603121Y-113966860D01*
X139586751Y-113963719D01*
X139207002Y-113817080D01*
X138928556Y-113565501D01*
X138755496Y-113242686D01*
X138691901Y-112882335D01*
X138741854Y-112518151D01*
X138909435Y-112183837D01*
X139198726Y-111913094D01*
X139329528Y-111839569D01*
X139512860Y-111760187D01*
X139696289Y-111709824D01*
X139921337Y-111683875D01*
X140229528Y-111677734D01*
X140662384Y-111686796D01*
X140697491Y-111687852D01*
X141190486Y-111710266D01*
X141548435Y-111750823D01*
X141805523Y-111821716D01*
X141995932Y-111935137D01*
X142153845Y-112103277D01*
X142251625Y-112242171D01*
X142331505Y-112442154D01*
X142386582Y-112733259D01*
X142416074Y-113070907D01*
X142419199Y-113410520D01*
X142419199Y-113410520D01*
G36*
X185057898Y-114570053D02*
X185056458Y-114760921D01*
X185056334Y-114769623D01*
X185049583Y-115235070D01*
X184990195Y-115286118D01*
X184910251Y-115330807D01*
X184826712Y-115334865D01*
X184746791Y-115298589D01*
X184719485Y-115274908D01*
X184677688Y-115236367D01*
X184658000Y-115228766D01*
X184658000Y-114449792D01*
X184651338Y-114304606D01*
X184630006Y-114193007D01*
X184591985Y-114108181D01*
X184538329Y-114045982D01*
X184451924Y-113995882D01*
X184354728Y-113980518D01*
X184256923Y-113997853D01*
X184168694Y-114045852D01*
X184100224Y-114122479D01*
X184092986Y-114135022D01*
X184070122Y-114203736D01*
X184056320Y-114300279D01*
X184051459Y-114411657D01*
X184055423Y-114524874D01*
X184068092Y-114626938D01*
X184089349Y-114704855D01*
X184098349Y-114723261D01*
X184169342Y-114811490D01*
X184256202Y-114868675D01*
X184350943Y-114892873D01*
X184445581Y-114882136D01*
X184532129Y-114834519D01*
X184537192Y-114830183D01*
X184595978Y-114761541D01*
X184634065Y-114673453D01*
X184653810Y-114558495D01*
X184658000Y-114449792D01*
X184658000Y-115228766D01*
X184646245Y-115224229D01*
X184606456Y-115234107D01*
X184584210Y-115243158D01*
X184523645Y-115259161D01*
X184438773Y-115270109D01*
X184357055Y-115273649D01*
X184258326Y-115269682D01*
X184179340Y-115254629D01*
X184097982Y-115223727D01*
X184074124Y-115212703D01*
X183926772Y-115123487D01*
X183811089Y-115009457D01*
X183726234Y-114869038D01*
X183671366Y-114700654D01*
X183645644Y-114502730D01*
X183643343Y-114405833D01*
X183654511Y-114234444D01*
X183689045Y-114087671D01*
X183750845Y-113952537D01*
X183804959Y-113868353D01*
X183913509Y-113748247D01*
X184041186Y-113661668D01*
X184181947Y-113608105D01*
X184329748Y-113587047D01*
X184478544Y-113597985D01*
X184622291Y-113640407D01*
X184754945Y-113713805D01*
X184870462Y-113817667D01*
X184962798Y-113951482D01*
X184970664Y-113966773D01*
X184999855Y-114033150D01*
X185022321Y-114105103D01*
X185038711Y-114188701D01*
X185049672Y-114290012D01*
X185055852Y-114415106D01*
X185057898Y-114570053D01*
X185057898Y-114570053D01*
X185057898Y-114570053D01*
G37*
X185057898Y-114570053D02*
X185056458Y-114760921D01*
X185056334Y-114769623D01*
X185049583Y-115235070D01*
X184990195Y-115286118D01*
X184910251Y-115330807D01*
X184826712Y-115334865D01*
X184746791Y-115298589D01*
X184719485Y-115274908D01*
X184677688Y-115236367D01*
X184658000Y-115228766D01*
X184658000Y-114449792D01*
X184651338Y-114304606D01*
X184630006Y-114193007D01*
X184591985Y-114108181D01*
X184538329Y-114045982D01*
X184451924Y-113995882D01*
X184354728Y-113980518D01*
X184256923Y-113997853D01*
X184168694Y-114045852D01*
X184100224Y-114122479D01*
X184092986Y-114135022D01*
X184070122Y-114203736D01*
X184056320Y-114300279D01*
X184051459Y-114411657D01*
X184055423Y-114524874D01*
X184068092Y-114626938D01*
X184089349Y-114704855D01*
X184098349Y-114723261D01*
X184169342Y-114811490D01*
X184256202Y-114868675D01*
X184350943Y-114892873D01*
X184445581Y-114882136D01*
X184532129Y-114834519D01*
X184537192Y-114830183D01*
X184595978Y-114761541D01*
X184634065Y-114673453D01*
X184653810Y-114558495D01*
X184658000Y-114449792D01*
X184658000Y-115228766D01*
X184646245Y-115224229D01*
X184606456Y-115234107D01*
X184584210Y-115243158D01*
X184523645Y-115259161D01*
X184438773Y-115270109D01*
X184357055Y-115273649D01*
X184258326Y-115269682D01*
X184179340Y-115254629D01*
X184097982Y-115223727D01*
X184074124Y-115212703D01*
X183926772Y-115123487D01*
X183811089Y-115009457D01*
X183726234Y-114869038D01*
X183671366Y-114700654D01*
X183645644Y-114502730D01*
X183643343Y-114405833D01*
X183654511Y-114234444D01*
X183689045Y-114087671D01*
X183750845Y-113952537D01*
X183804959Y-113868353D01*
X183913509Y-113748247D01*
X184041186Y-113661668D01*
X184181947Y-113608105D01*
X184329748Y-113587047D01*
X184478544Y-113597985D01*
X184622291Y-113640407D01*
X184754945Y-113713805D01*
X184870462Y-113817667D01*
X184962798Y-113951482D01*
X184970664Y-113966773D01*
X184999855Y-114033150D01*
X185022321Y-114105103D01*
X185038711Y-114188701D01*
X185049672Y-114290012D01*
X185055852Y-114415106D01*
X185057898Y-114570053D01*
X185057898Y-114570053D01*
G36*
X180953833Y-115083302D02*
X180936317Y-115148936D01*
X180892097Y-115214875D01*
X180833667Y-115265436D01*
X180795324Y-115282298D01*
X180751954Y-115288501D01*
X180709674Y-115282163D01*
X180664615Y-115259898D01*
X180612908Y-115218318D01*
X180550686Y-115154039D01*
X180474081Y-115063672D01*
X180379225Y-114943832D01*
X180318267Y-114864646D01*
X180234506Y-114756383D01*
X180158455Y-114660418D01*
X180094097Y-114581586D01*
X180045414Y-114524723D01*
X180016387Y-114494667D01*
X180010777Y-114491175D01*
X179983745Y-114504907D01*
X179941732Y-114540310D01*
X179922683Y-114559291D01*
X179895595Y-114588797D01*
X179876990Y-114616237D01*
X179865011Y-114650218D01*
X179857803Y-114699349D01*
X179853509Y-114772235D01*
X179850272Y-114877483D01*
X179849739Y-114897488D01*
X179846311Y-115009405D01*
X179841971Y-115087319D01*
X179835145Y-115139555D01*
X179824257Y-115174438D01*
X179807731Y-115200293D01*
X179788529Y-115220936D01*
X179728636Y-115262484D01*
X179659872Y-115287084D01*
X179659143Y-115287204D01*
X179604476Y-115290095D01*
X179559423Y-115272866D01*
X179512114Y-115235367D01*
X179440417Y-115171305D01*
X179440417Y-114024563D01*
X179440417Y-112877820D01*
X179503917Y-112827015D01*
X179580658Y-112787831D01*
X179664618Y-112779543D01*
X179743651Y-112800228D01*
X179805612Y-112847963D01*
X179824714Y-112877811D01*
X179829689Y-112907772D01*
X179834908Y-112974194D01*
X179840101Y-113071209D01*
X179844999Y-113192948D01*
X179849333Y-113333543D01*
X179852834Y-113487124D01*
X179852950Y-113493296D01*
X179863750Y-114073010D01*
X180217698Y-113753140D01*
X180322796Y-113659683D01*
X180420366Y-113575769D01*
X180505124Y-113505718D01*
X180571788Y-113453848D01*
X180615075Y-113424476D01*
X180625567Y-113419737D01*
X180697527Y-113420128D01*
X180773091Y-113448020D01*
X180832464Y-113495636D01*
X180838260Y-113503293D01*
X180860028Y-113555557D01*
X180869166Y-113619588D01*
X180869167Y-113620014D01*
X180865813Y-113651684D01*
X180853330Y-113684884D01*
X180828087Y-113723725D01*
X180786449Y-113772318D01*
X180724786Y-113834775D01*
X180639464Y-113915207D01*
X180526851Y-114017727D01*
X180482787Y-114057370D01*
X180318657Y-114204750D01*
X180636245Y-114613968D01*
X180743572Y-114753602D01*
X180826050Y-114864193D01*
X180885996Y-114949163D01*
X180925727Y-115011938D01*
X180947560Y-115055941D01*
X180953833Y-115083302D01*
X180953833Y-115083302D01*
X180953833Y-115083302D01*
G37*
X180953833Y-115083302D02*
X180936317Y-115148936D01*
X180892097Y-115214875D01*
X180833667Y-115265436D01*
X180795324Y-115282298D01*
X180751954Y-115288501D01*
X180709674Y-115282163D01*
X180664615Y-115259898D01*
X180612908Y-115218318D01*
X180550686Y-115154039D01*
X180474081Y-115063672D01*
X180379225Y-114943832D01*
X180318267Y-114864646D01*
X180234506Y-114756383D01*
X180158455Y-114660418D01*
X180094097Y-114581586D01*
X180045414Y-114524723D01*
X180016387Y-114494667D01*
X180010777Y-114491175D01*
X179983745Y-114504907D01*
X179941732Y-114540310D01*
X179922683Y-114559291D01*
X179895595Y-114588797D01*
X179876990Y-114616237D01*
X179865011Y-114650218D01*
X179857803Y-114699349D01*
X179853509Y-114772235D01*
X179850272Y-114877483D01*
X179849739Y-114897488D01*
X179846311Y-115009405D01*
X179841971Y-115087319D01*
X179835145Y-115139555D01*
X179824257Y-115174438D01*
X179807731Y-115200293D01*
X179788529Y-115220936D01*
X179728636Y-115262484D01*
X179659872Y-115287084D01*
X179659143Y-115287204D01*
X179604476Y-115290095D01*
X179559423Y-115272866D01*
X179512114Y-115235367D01*
X179440417Y-115171305D01*
X179440417Y-114024563D01*
X179440417Y-112877820D01*
X179503917Y-112827015D01*
X179580658Y-112787831D01*
X179664618Y-112779543D01*
X179743651Y-112800228D01*
X179805612Y-112847963D01*
X179824714Y-112877811D01*
X179829689Y-112907772D01*
X179834908Y-112974194D01*
X179840101Y-113071209D01*
X179844999Y-113192948D01*
X179849333Y-113333543D01*
X179852834Y-113487124D01*
X179852950Y-113493296D01*
X179863750Y-114073010D01*
X180217698Y-113753140D01*
X180322796Y-113659683D01*
X180420366Y-113575769D01*
X180505124Y-113505718D01*
X180571788Y-113453848D01*
X180615075Y-113424476D01*
X180625567Y-113419737D01*
X180697527Y-113420128D01*
X180773091Y-113448020D01*
X180832464Y-113495636D01*
X180838260Y-113503293D01*
X180860028Y-113555557D01*
X180869166Y-113619588D01*
X180869167Y-113620014D01*
X180865813Y-113651684D01*
X180853330Y-113684884D01*
X180828087Y-113723725D01*
X180786449Y-113772318D01*
X180724786Y-113834775D01*
X180639464Y-113915207D01*
X180526851Y-114017727D01*
X180482787Y-114057370D01*
X180318657Y-114204750D01*
X180636245Y-114613968D01*
X180743572Y-114753602D01*
X180826050Y-114864193D01*
X180885996Y-114949163D01*
X180925727Y-115011938D01*
X180947560Y-115055941D01*
X180953833Y-115083302D01*
X180953833Y-115083302D01*
G36*
X181628909Y-114125501D02*
X181627909Y-114315914D01*
X181626900Y-114438904D01*
X181620583Y-115166926D01*
X181567667Y-115219783D01*
X181497735Y-115266763D01*
X181417586Y-115286583D01*
X181345417Y-115275624D01*
X181299581Y-115246277D01*
X181260750Y-115210468D01*
X181249509Y-115196231D01*
X181240397Y-115178133D01*
X181233144Y-115151789D01*
X181227484Y-115112816D01*
X181223148Y-115056828D01*
X181219869Y-114979441D01*
X181217379Y-114876271D01*
X181215409Y-114742933D01*
X181213692Y-114575042D01*
X181212366Y-114418476D01*
X181206316Y-113673511D01*
X181254700Y-113602095D01*
X181320580Y-113532663D01*
X181395798Y-113504233D01*
X181479277Y-113517147D01*
X181497415Y-113524981D01*
X181531595Y-113542741D01*
X181559506Y-113563023D01*
X181581738Y-113589992D01*
X181598880Y-113627813D01*
X181611523Y-113680653D01*
X181620257Y-113752676D01*
X181625673Y-113848048D01*
X181628360Y-113970934D01*
X181628909Y-114125501D01*
X181628909Y-114125501D01*
X181628909Y-114125501D01*
G37*
X181628909Y-114125501D02*
X181627909Y-114315914D01*
X181626900Y-114438904D01*
X181620583Y-115166926D01*
X181567667Y-115219783D01*
X181497735Y-115266763D01*
X181417586Y-115286583D01*
X181345417Y-115275624D01*
X181299581Y-115246277D01*
X181260750Y-115210468D01*
X181249509Y-115196231D01*
X181240397Y-115178133D01*
X181233144Y-115151789D01*
X181227484Y-115112816D01*
X181223148Y-115056828D01*
X181219869Y-114979441D01*
X181217379Y-114876271D01*
X181215409Y-114742933D01*
X181213692Y-114575042D01*
X181212366Y-114418476D01*
X181206316Y-113673511D01*
X181254700Y-113602095D01*
X181320580Y-113532663D01*
X181395798Y-113504233D01*
X181479277Y-113517147D01*
X181497415Y-113524981D01*
X181531595Y-113542741D01*
X181559506Y-113563023D01*
X181581738Y-113589992D01*
X181598880Y-113627813D01*
X181611523Y-113680653D01*
X181620257Y-113752676D01*
X181625673Y-113848048D01*
X181628360Y-113970934D01*
X181628909Y-114125501D01*
X181628909Y-114125501D01*
G36*
X183303333Y-115019577D02*
X183283375Y-115080699D01*
X183228313Y-115138341D01*
X183145365Y-115189951D01*
X183041753Y-115232978D01*
X182924694Y-115264871D01*
X182801408Y-115283079D01*
X182679114Y-115285052D01*
X182586010Y-115273053D01*
X182423708Y-115218410D01*
X182279808Y-115128608D01*
X182160093Y-115008873D01*
X182070344Y-114864425D01*
X182035708Y-114775894D01*
X181988150Y-114562995D01*
X181978006Y-114348987D01*
X182004905Y-114141234D01*
X182068482Y-113947100D01*
X182078235Y-113925752D01*
X182167628Y-113783766D01*
X182286532Y-113667462D01*
X182428534Y-113580127D01*
X182587222Y-113525046D01*
X182756184Y-113505507D01*
X182879500Y-113515114D01*
X183023473Y-113548485D01*
X183139597Y-113596047D01*
X183225405Y-113654865D01*
X183278430Y-113722002D01*
X183296203Y-113794522D01*
X183276258Y-113869489D01*
X183229351Y-113931406D01*
X183175330Y-113969000D01*
X183109516Y-113980277D01*
X183023775Y-113965490D01*
X182948564Y-113940155D01*
X182840319Y-113907137D01*
X182748563Y-113900083D01*
X182657124Y-113918021D01*
X182645033Y-113921932D01*
X182547437Y-113969604D01*
X182475512Y-114040768D01*
X182427258Y-114139277D01*
X182400677Y-114268985D01*
X182393631Y-114406640D01*
X182401701Y-114557483D01*
X182428192Y-114675124D01*
X182475357Y-114765484D01*
X182545449Y-114834485D01*
X182560338Y-114844870D01*
X182647126Y-114880984D01*
X182753909Y-114894059D01*
X182865031Y-114883884D01*
X182964667Y-114850333D01*
X183025943Y-114823838D01*
X183078201Y-114809088D01*
X183089827Y-114808000D01*
X183172805Y-114827228D01*
X183242846Y-114878082D01*
X183289608Y-114950313D01*
X183303333Y-115019577D01*
X183303333Y-115019577D01*
X183303333Y-115019577D01*
G37*
X183303333Y-115019577D02*
X183283375Y-115080699D01*
X183228313Y-115138341D01*
X183145365Y-115189951D01*
X183041753Y-115232978D01*
X182924694Y-115264871D01*
X182801408Y-115283079D01*
X182679114Y-115285052D01*
X182586010Y-115273053D01*
X182423708Y-115218410D01*
X182279808Y-115128608D01*
X182160093Y-115008873D01*
X182070344Y-114864425D01*
X182035708Y-114775894D01*
X181988150Y-114562995D01*
X181978006Y-114348987D01*
X182004905Y-114141234D01*
X182068482Y-113947100D01*
X182078235Y-113925752D01*
X182167628Y-113783766D01*
X182286532Y-113667462D01*
X182428534Y-113580127D01*
X182587222Y-113525046D01*
X182756184Y-113505507D01*
X182879500Y-113515114D01*
X183023473Y-113548485D01*
X183139597Y-113596047D01*
X183225405Y-113654865D01*
X183278430Y-113722002D01*
X183296203Y-113794522D01*
X183276258Y-113869489D01*
X183229351Y-113931406D01*
X183175330Y-113969000D01*
X183109516Y-113980277D01*
X183023775Y-113965490D01*
X182948564Y-113940155D01*
X182840319Y-113907137D01*
X182748563Y-113900083D01*
X182657124Y-113918021D01*
X182645033Y-113921932D01*
X182547437Y-113969604D01*
X182475512Y-114040768D01*
X182427258Y-114139277D01*
X182400677Y-114268985D01*
X182393631Y-114406640D01*
X182401701Y-114557483D01*
X182428192Y-114675124D01*
X182475357Y-114765484D01*
X182545449Y-114834485D01*
X182560338Y-114844870D01*
X182647126Y-114880984D01*
X182753909Y-114894059D01*
X182865031Y-114883884D01*
X182964667Y-114850333D01*
X183025943Y-114823838D01*
X183078201Y-114809088D01*
X183089827Y-114808000D01*
X183172805Y-114827228D01*
X183242846Y-114878082D01*
X183289608Y-114950313D01*
X183303333Y-115019577D01*
X183303333Y-115019577D01*
G36*
X186904202Y-112944612D02*
X186897348Y-113828681D01*
X186895615Y-114045448D01*
X186893932Y-114224221D01*
X186892053Y-114369336D01*
X186889737Y-114485131D01*
X186886738Y-114575943D01*
X186882813Y-114646110D01*
X186877717Y-114699970D01*
X186871208Y-114741859D01*
X186863040Y-114776115D01*
X186852971Y-114807076D01*
X186840755Y-114839078D01*
X186840491Y-114839750D01*
X186779806Y-114969755D01*
X186709618Y-115068882D01*
X186621422Y-115148575D01*
X186599407Y-115164193D01*
X186499500Y-115215286D01*
X186499500Y-114369381D01*
X186499500Y-114084099D01*
X186429430Y-114014029D01*
X186359803Y-113961069D01*
X186279789Y-113922934D01*
X186267309Y-113919173D01*
X186147397Y-113904800D01*
X186042683Y-113928237D01*
X185955546Y-113986944D01*
X185888364Y-114078385D01*
X185843515Y-114200023D01*
X185823378Y-114349321D01*
X185822485Y-114393728D01*
X185836460Y-114551548D01*
X185876035Y-114684353D01*
X185938771Y-114789069D01*
X186022226Y-114862619D01*
X186123961Y-114901929D01*
X186228634Y-114905546D01*
X186301690Y-114886423D01*
X186370039Y-114852065D01*
X186371962Y-114850716D01*
X186419188Y-114810045D01*
X186453565Y-114760676D01*
X186476936Y-114695657D01*
X186491142Y-114608034D01*
X186498026Y-114490855D01*
X186499500Y-114369381D01*
X186499500Y-115215286D01*
X186451508Y-115239830D01*
X186284386Y-115278520D01*
X186100308Y-115279788D01*
X186065583Y-115276009D01*
X185954277Y-115248307D01*
X185833720Y-115196230D01*
X185721307Y-115128297D01*
X185656590Y-115075694D01*
X185613144Y-115024000D01*
X185562751Y-114948406D01*
X185515248Y-114863878D01*
X185508480Y-114850333D01*
X185430696Y-114691583D01*
X185431186Y-114405833D01*
X185432334Y-114282913D01*
X185436089Y-114192189D01*
X185443647Y-114123548D01*
X185456202Y-114066875D01*
X185474951Y-114012057D01*
X185478923Y-114001987D01*
X185561735Y-113848097D01*
X185673011Y-113721455D01*
X185807065Y-113624562D01*
X185958212Y-113559923D01*
X186120767Y-113530040D01*
X186289047Y-113537417D01*
X186441292Y-113578211D01*
X186499500Y-113600452D01*
X186499500Y-113274516D01*
X186499746Y-113150257D01*
X186501185Y-113060817D01*
X186504870Y-112998685D01*
X186511854Y-112956347D01*
X186523189Y-112926291D01*
X186539929Y-112901004D01*
X186554298Y-112883457D01*
X186623150Y-112829977D01*
X186702088Y-112814720D01*
X186782883Y-112837743D01*
X186841062Y-112881472D01*
X186904202Y-112944612D01*
X186904202Y-112944612D01*
X186904202Y-112944612D01*
G37*
X186904202Y-112944612D02*
X186897348Y-113828681D01*
X186895615Y-114045448D01*
X186893932Y-114224221D01*
X186892053Y-114369336D01*
X186889737Y-114485131D01*
X186886738Y-114575943D01*
X186882813Y-114646110D01*
X186877717Y-114699970D01*
X186871208Y-114741859D01*
X186863040Y-114776115D01*
X186852971Y-114807076D01*
X186840755Y-114839078D01*
X186840491Y-114839750D01*
X186779806Y-114969755D01*
X186709618Y-115068882D01*
X186621422Y-115148575D01*
X186599407Y-115164193D01*
X186499500Y-115215286D01*
X186499500Y-114369381D01*
X186499500Y-114084099D01*
X186429430Y-114014029D01*
X186359803Y-113961069D01*
X186279789Y-113922934D01*
X186267309Y-113919173D01*
X186147397Y-113904800D01*
X186042683Y-113928237D01*
X185955546Y-113986944D01*
X185888364Y-114078385D01*
X185843515Y-114200023D01*
X185823378Y-114349321D01*
X185822485Y-114393728D01*
X185836460Y-114551548D01*
X185876035Y-114684353D01*
X185938771Y-114789069D01*
X186022226Y-114862619D01*
X186123961Y-114901929D01*
X186228634Y-114905546D01*
X186301690Y-114886423D01*
X186370039Y-114852065D01*
X186371962Y-114850716D01*
X186419188Y-114810045D01*
X186453565Y-114760676D01*
X186476936Y-114695657D01*
X186491142Y-114608034D01*
X186498026Y-114490855D01*
X186499500Y-114369381D01*
X186499500Y-115215286D01*
X186451508Y-115239830D01*
X186284386Y-115278520D01*
X186100308Y-115279788D01*
X186065583Y-115276009D01*
X185954277Y-115248307D01*
X185833720Y-115196230D01*
X185721307Y-115128297D01*
X185656590Y-115075694D01*
X185613144Y-115024000D01*
X185562751Y-114948406D01*
X185515248Y-114863878D01*
X185508480Y-114850333D01*
X185430696Y-114691583D01*
X185431186Y-114405833D01*
X185432334Y-114282913D01*
X185436089Y-114192189D01*
X185443647Y-114123548D01*
X185456202Y-114066875D01*
X185474951Y-114012057D01*
X185478923Y-114001987D01*
X185561735Y-113848097D01*
X185673011Y-113721455D01*
X185807065Y-113624562D01*
X185958212Y-113559923D01*
X186120767Y-113530040D01*
X186289047Y-113537417D01*
X186441292Y-113578211D01*
X186499500Y-113600452D01*
X186499500Y-113274516D01*
X186499746Y-113150257D01*
X186501185Y-113060817D01*
X186504870Y-112998685D01*
X186511854Y-112956347D01*
X186523189Y-112926291D01*
X186539929Y-112901004D01*
X186554298Y-112883457D01*
X186623150Y-112829977D01*
X186702088Y-112814720D01*
X186782883Y-112837743D01*
X186841062Y-112881472D01*
X186904202Y-112944612D01*
X186904202Y-112944612D01*
G36*
X178985342Y-113747873D02*
X178985337Y-113987676D01*
X178985333Y-114047065D01*
X178985333Y-115129733D01*
X178913367Y-115201699D01*
X178841400Y-115273666D01*
X178752500Y-115273666D01*
X178752500Y-115040833D01*
X178752500Y-114018373D01*
X178752500Y-112995913D01*
X178313292Y-112561230D01*
X178190224Y-112439643D01*
X178067012Y-112318300D01*
X177949704Y-112203129D01*
X177844347Y-112100059D01*
X177756992Y-112015017D01*
X177694167Y-111954394D01*
X177514250Y-111782240D01*
X176768125Y-111781703D01*
X176022000Y-111781166D01*
X176022000Y-113411000D01*
X176022000Y-115040833D01*
X177387250Y-115040833D01*
X178752500Y-115040833D01*
X178752500Y-115273666D01*
X177389700Y-115273666D01*
X175938001Y-115273666D01*
X175868875Y-115211902D01*
X175799750Y-115150139D01*
X175799750Y-113447690D01*
X175799851Y-113131281D01*
X175800184Y-112854595D01*
X175800793Y-112615023D01*
X175801721Y-112409955D01*
X175803013Y-112236781D01*
X175804712Y-112092891D01*
X175806861Y-111975676D01*
X175809506Y-111882527D01*
X175812689Y-111810833D01*
X175816455Y-111757985D01*
X175820847Y-111721373D01*
X175825909Y-111698388D01*
X175829272Y-111690078D01*
X175847011Y-111659892D01*
X175867550Y-111635212D01*
X175895045Y-111615502D01*
X175933654Y-111600227D01*
X175987534Y-111588849D01*
X176060842Y-111580834D01*
X176157734Y-111575644D01*
X176282368Y-111572745D01*
X176438900Y-111571599D01*
X176631488Y-111571671D01*
X176744865Y-111572004D01*
X176921072Y-111572959D01*
X177085712Y-111574547D01*
X177233525Y-111576665D01*
X177359252Y-111579210D01*
X177457634Y-111582077D01*
X177523412Y-111585163D01*
X177549753Y-111587879D01*
X177566227Y-111592484D01*
X177583784Y-111600048D01*
X177605292Y-111613146D01*
X177633621Y-111634353D01*
X177671640Y-111666244D01*
X177722217Y-111711395D01*
X177788220Y-111772381D01*
X177872520Y-111851776D01*
X177977984Y-111952157D01*
X178107481Y-112076099D01*
X178263881Y-112226176D01*
X178308000Y-112268541D01*
X178429165Y-112384707D01*
X178543605Y-112494066D01*
X178646909Y-112592429D01*
X178734663Y-112675607D01*
X178802455Y-112739411D01*
X178845873Y-112779652D01*
X178855169Y-112787988D01*
X178883453Y-112812576D01*
X178907316Y-112835143D01*
X178927133Y-112859317D01*
X178943281Y-112888727D01*
X178956133Y-112927000D01*
X178966065Y-112977765D01*
X178973452Y-113044650D01*
X178978669Y-113131284D01*
X178982092Y-113241295D01*
X178984095Y-113378311D01*
X178985053Y-113545961D01*
X178985342Y-113747873D01*
X178985342Y-113747873D01*
X178985342Y-113747873D01*
G37*
X178985342Y-113747873D02*
X178985337Y-113987676D01*
X178985333Y-114047065D01*
X178985333Y-115129733D01*
X178913367Y-115201699D01*
X178841400Y-115273666D01*
X178752500Y-115273666D01*
X178752500Y-115040833D01*
X178752500Y-114018373D01*
X178752500Y-112995913D01*
X178313292Y-112561230D01*
X178190224Y-112439643D01*
X178067012Y-112318300D01*
X177949704Y-112203129D01*
X177844347Y-112100059D01*
X177756992Y-112015017D01*
X177694167Y-111954394D01*
X177514250Y-111782240D01*
X176768125Y-111781703D01*
X176022000Y-111781166D01*
X176022000Y-113411000D01*
X176022000Y-115040833D01*
X177387250Y-115040833D01*
X178752500Y-115040833D01*
X178752500Y-115273666D01*
X177389700Y-115273666D01*
X175938001Y-115273666D01*
X175868875Y-115211902D01*
X175799750Y-115150139D01*
X175799750Y-113447690D01*
X175799851Y-113131281D01*
X175800184Y-112854595D01*
X175800793Y-112615023D01*
X175801721Y-112409955D01*
X175803013Y-112236781D01*
X175804712Y-112092891D01*
X175806861Y-111975676D01*
X175809506Y-111882527D01*
X175812689Y-111810833D01*
X175816455Y-111757985D01*
X175820847Y-111721373D01*
X175825909Y-111698388D01*
X175829272Y-111690078D01*
X175847011Y-111659892D01*
X175867550Y-111635212D01*
X175895045Y-111615502D01*
X175933654Y-111600227D01*
X175987534Y-111588849D01*
X176060842Y-111580834D01*
X176157734Y-111575644D01*
X176282368Y-111572745D01*
X176438900Y-111571599D01*
X176631488Y-111571671D01*
X176744865Y-111572004D01*
X176921072Y-111572959D01*
X177085712Y-111574547D01*
X177233525Y-111576665D01*
X177359252Y-111579210D01*
X177457634Y-111582077D01*
X177523412Y-111585163D01*
X177549753Y-111587879D01*
X177566227Y-111592484D01*
X177583784Y-111600048D01*
X177605292Y-111613146D01*
X177633621Y-111634353D01*
X177671640Y-111666244D01*
X177722217Y-111711395D01*
X177788220Y-111772381D01*
X177872520Y-111851776D01*
X177977984Y-111952157D01*
X178107481Y-112076099D01*
X178263881Y-112226176D01*
X178308000Y-112268541D01*
X178429165Y-112384707D01*
X178543605Y-112494066D01*
X178646909Y-112592429D01*
X178734663Y-112675607D01*
X178802455Y-112739411D01*
X178845873Y-112779652D01*
X178855169Y-112787988D01*
X178883453Y-112812576D01*
X178907316Y-112835143D01*
X178927133Y-112859317D01*
X178943281Y-112888727D01*
X178956133Y-112927000D01*
X178966065Y-112977765D01*
X178973452Y-113044650D01*
X178978669Y-113131284D01*
X178982092Y-113241295D01*
X178984095Y-113378311D01*
X178985053Y-113545961D01*
X178985342Y-113747873D01*
X178985342Y-113747873D01*
G36*
X181617117Y-112943876D02*
X181617070Y-113029914D01*
X181587389Y-113109634D01*
X181535077Y-113166186D01*
X181456059Y-113195204D01*
X181368482Y-113192934D01*
X181290934Y-113160130D01*
X181285558Y-113156082D01*
X181232840Y-113091629D01*
X181213232Y-113015338D01*
X181223193Y-112936560D01*
X181259184Y-112864645D01*
X181317665Y-112808943D01*
X181395095Y-112778805D01*
X181429455Y-112776000D01*
X181490299Y-112793799D01*
X181551539Y-112838815D01*
X181599119Y-112898474D01*
X181617117Y-112943876D01*
X181617117Y-112943876D01*
X181617117Y-112943876D01*
G37*
X181617117Y-112943876D02*
X181617070Y-113029914D01*
X181587389Y-113109634D01*
X181535077Y-113166186D01*
X181456059Y-113195204D01*
X181368482Y-113192934D01*
X181290934Y-113160130D01*
X181285558Y-113156082D01*
X181232840Y-113091629D01*
X181213232Y-113015338D01*
X181223193Y-112936560D01*
X181259184Y-112864645D01*
X181317665Y-112808943D01*
X181395095Y-112778805D01*
X181429455Y-112776000D01*
X181490299Y-112793799D01*
X181551539Y-112838815D01*
X181599119Y-112898474D01*
X181617117Y-112943876D01*
X181617117Y-112943876D01*
G36*
X178985333Y-112049050D02*
X178985057Y-112186365D01*
X178983827Y-112287376D01*
X178981040Y-112358112D01*
X178976090Y-112404603D01*
X178968374Y-112432877D01*
X178957288Y-112448962D01*
X178944391Y-112457755D01*
X178910955Y-112472803D01*
X178878676Y-112478042D01*
X178843184Y-112470573D01*
X178800105Y-112447492D01*
X178745068Y-112405898D01*
X178673699Y-112342891D01*
X178581627Y-112255568D01*
X178464478Y-112141028D01*
X178459076Y-112135708D01*
X178358088Y-112036355D01*
X178266115Y-111946072D01*
X178187804Y-111869406D01*
X178127805Y-111810905D01*
X178090766Y-111775114D01*
X178081917Y-111766803D01*
X178057197Y-111721061D01*
X178055498Y-111662521D01*
X178075127Y-111610569D01*
X178097367Y-111590113D01*
X178138618Y-111580837D01*
X178220679Y-111574859D01*
X178342151Y-111572232D01*
X178501637Y-111573009D01*
X178533030Y-111573493D01*
X178671972Y-111576145D01*
X178774677Y-111579215D01*
X178847240Y-111583390D01*
X178895756Y-111589359D01*
X178926319Y-111597810D01*
X178945026Y-111609432D01*
X178955329Y-111621170D01*
X178966649Y-111646414D01*
X178974920Y-111690226D01*
X178980519Y-111758015D01*
X178983828Y-111855191D01*
X178985225Y-111987165D01*
X178985333Y-112049050D01*
X178985333Y-112049050D01*
X178985333Y-112049050D01*
G37*
X178985333Y-112049050D02*
X178985057Y-112186365D01*
X178983827Y-112287376D01*
X178981040Y-112358112D01*
X178976090Y-112404603D01*
X178968374Y-112432877D01*
X178957288Y-112448962D01*
X178944391Y-112457755D01*
X178910955Y-112472803D01*
X178878676Y-112478042D01*
X178843184Y-112470573D01*
X178800105Y-112447492D01*
X178745068Y-112405898D01*
X178673699Y-112342891D01*
X178581627Y-112255568D01*
X178464478Y-112141028D01*
X178459076Y-112135708D01*
X178358088Y-112036355D01*
X178266115Y-111946072D01*
X178187804Y-111869406D01*
X178127805Y-111810905D01*
X178090766Y-111775114D01*
X178081917Y-111766803D01*
X178057197Y-111721061D01*
X178055498Y-111662521D01*
X178075127Y-111610569D01*
X178097367Y-111590113D01*
X178138618Y-111580837D01*
X178220679Y-111574859D01*
X178342151Y-111572232D01*
X178501637Y-111573009D01*
X178533030Y-111573493D01*
X178671972Y-111576145D01*
X178774677Y-111579215D01*
X178847240Y-111583390D01*
X178895756Y-111589359D01*
X178926319Y-111597810D01*
X178945026Y-111609432D01*
X178955329Y-111621170D01*
X178966649Y-111646414D01*
X178974920Y-111690226D01*
X178980519Y-111758015D01*
X178983828Y-111855191D01*
X178985225Y-111987165D01*
X178985333Y-112049050D01*
X178985333Y-112049050D01*
G36*
X178604333Y-114194166D02*
X178602699Y-114208392D01*
X178594204Y-114219014D01*
X178573459Y-114226557D01*
X178535076Y-114231548D01*
X178473667Y-114234511D01*
X178383842Y-114235972D01*
X178260214Y-114236458D01*
X178170417Y-114236500D01*
X177736500Y-114236500D01*
X177736500Y-114490500D01*
X177736084Y-114597720D01*
X177734059Y-114669625D01*
X177729254Y-114713229D01*
X177720501Y-114735548D01*
X177706629Y-114743597D01*
X177694167Y-114744500D01*
X177677415Y-114742301D01*
X177665781Y-114731369D01*
X177658335Y-114705198D01*
X177654150Y-114657282D01*
X177652294Y-114581115D01*
X177651838Y-114470192D01*
X177651833Y-114448166D01*
X177651833Y-114151833D01*
X178128083Y-114151833D01*
X178281757Y-114151968D01*
X178398242Y-114152680D01*
X178482685Y-114154424D01*
X178540230Y-114157659D01*
X178576022Y-114162842D01*
X178595206Y-114170431D01*
X178602928Y-114180881D01*
X178604333Y-114194166D01*
X178604333Y-114194166D01*
X178604333Y-114194166D01*
G37*
X178604333Y-114194166D02*
X178602699Y-114208392D01*
X178594204Y-114219014D01*
X178573459Y-114226557D01*
X178535076Y-114231548D01*
X178473667Y-114234511D01*
X178383842Y-114235972D01*
X178260214Y-114236458D01*
X178170417Y-114236500D01*
X177736500Y-114236500D01*
X177736500Y-114490500D01*
X177736084Y-114597720D01*
X177734059Y-114669625D01*
X177729254Y-114713229D01*
X177720501Y-114735548D01*
X177706629Y-114743597D01*
X177694167Y-114744500D01*
X177677415Y-114742301D01*
X177665781Y-114731369D01*
X177658335Y-114705198D01*
X177654150Y-114657282D01*
X177652294Y-114581115D01*
X177651838Y-114470192D01*
X177651833Y-114448166D01*
X177651833Y-114151833D01*
X178128083Y-114151833D01*
X178281757Y-114151968D01*
X178398242Y-114152680D01*
X178482685Y-114154424D01*
X178540230Y-114157659D01*
X178576022Y-114162842D01*
X178595206Y-114170431D01*
X178602928Y-114180881D01*
X178604333Y-114194166D01*
X178604333Y-114194166D01*
G36*
X178625557Y-113444139D02*
X178513738Y-113554569D01*
X178454919Y-113611155D01*
X178412043Y-113644104D01*
X178409823Y-113644957D01*
X178409823Y-113452556D01*
X178402768Y-113419407D01*
X178400525Y-113415722D01*
X178383511Y-113399158D01*
X178352016Y-113387772D01*
X178298402Y-113380312D01*
X178215034Y-113375525D01*
X178141701Y-113373265D01*
X177905833Y-113367280D01*
X177905833Y-113442056D01*
X177905833Y-113516833D01*
X178122792Y-113516160D01*
X178236282Y-113513689D01*
X178314339Y-113506547D01*
X178363687Y-113493893D01*
X178381616Y-113483840D01*
X178409823Y-113452556D01*
X178409823Y-113644957D01*
X178371210Y-113659805D01*
X178318522Y-113664647D01*
X178273544Y-113665000D01*
X178190591Y-113663384D01*
X178085123Y-113659096D01*
X177976814Y-113652977D01*
X177951418Y-113651247D01*
X177757667Y-113637494D01*
X177757667Y-113576612D01*
X177757667Y-113515730D01*
X177434875Y-113521573D01*
X177112083Y-113527416D01*
X177111366Y-113596263D01*
X177104679Y-113638565D01*
X177081610Y-113682928D01*
X177036260Y-113738492D01*
X176985029Y-113792054D01*
X176859408Y-113919000D01*
X176983904Y-114044808D01*
X177042034Y-114105106D01*
X177080473Y-114153462D01*
X177103421Y-114201394D01*
X177115080Y-114260418D01*
X177119652Y-114342052D01*
X177120903Y-114420367D01*
X177122667Y-114572484D01*
X177191458Y-114579117D01*
X177239131Y-114588662D01*
X177257629Y-114613366D01*
X177260250Y-114649250D01*
X177260250Y-114712750D01*
X177064458Y-114718835D01*
X176868667Y-114724921D01*
X176868667Y-114650044D01*
X176872111Y-114599922D01*
X176889671Y-114579224D01*
X176932167Y-114575166D01*
X176995667Y-114575166D01*
X176995667Y-114409793D01*
X176994474Y-114324664D01*
X176988734Y-114269704D01*
X176975202Y-114232765D01*
X176950634Y-114201704D01*
X176936300Y-114187543D01*
X176887749Y-114144972D01*
X176860808Y-114135629D01*
X176849440Y-114160684D01*
X176847500Y-114204750D01*
X176843931Y-114254541D01*
X176826009Y-114274962D01*
X176784927Y-114278833D01*
X176722354Y-114278833D01*
X176716135Y-114125375D01*
X176709917Y-113971916D01*
X176461208Y-113965953D01*
X176212500Y-113959989D01*
X176212500Y-113897161D01*
X176212500Y-113834333D01*
X176466500Y-113834333D01*
X176720500Y-113834333D01*
X176720500Y-113686166D01*
X176720500Y-113538000D01*
X176784000Y-113538000D01*
X176824717Y-113541343D01*
X176842817Y-113559461D01*
X176847400Y-113604486D01*
X176847500Y-113622666D01*
X176851974Y-113683136D01*
X176868124Y-113703759D01*
X176900036Y-113686337D01*
X176928477Y-113658344D01*
X176950154Y-113630640D01*
X176963784Y-113596889D01*
X176971169Y-113547139D01*
X176974114Y-113471438D01*
X176974500Y-113404344D01*
X176974500Y-113199333D01*
X176911000Y-113199333D01*
X176847500Y-113199333D01*
X176847500Y-112860666D01*
X176847500Y-112522000D01*
X176908644Y-112522000D01*
X176950896Y-112516317D01*
X176972657Y-112491006D01*
X176983968Y-112446414D01*
X176989930Y-112390692D01*
X176993556Y-112307535D01*
X176994305Y-112211801D01*
X176993755Y-112176539D01*
X176989361Y-111982250D01*
X177056014Y-111975617D01*
X177122667Y-111968984D01*
X177122667Y-112245492D01*
X177122667Y-112522000D01*
X177186167Y-112522000D01*
X177249667Y-112522000D01*
X177249667Y-112859325D01*
X177249667Y-113196651D01*
X177180875Y-113203283D01*
X177137314Y-113210924D01*
X177122667Y-113224912D01*
X177122667Y-113072333D01*
X177122667Y-112860666D01*
X177122667Y-112649000D01*
X177059167Y-112649000D01*
X176995667Y-112649000D01*
X176995667Y-112860666D01*
X176995667Y-113072333D01*
X177059167Y-113072333D01*
X177122667Y-113072333D01*
X177122667Y-113224912D01*
X177116145Y-113231141D01*
X177107438Y-113276668D01*
X177105574Y-113299875D01*
X177099066Y-113389833D01*
X177428366Y-113389833D01*
X177757667Y-113389833D01*
X177757667Y-113305166D01*
X177757667Y-113220500D01*
X178081181Y-113220500D01*
X178404696Y-113220500D01*
X178515127Y-113332319D01*
X178625557Y-113444139D01*
X178625557Y-113444139D01*
X178625557Y-113444139D01*
G37*
X178625557Y-113444139D02*
X178513738Y-113554569D01*
X178454919Y-113611155D01*
X178412043Y-113644104D01*
X178409823Y-113644957D01*
X178409823Y-113452556D01*
X178402768Y-113419407D01*
X178400525Y-113415722D01*
X178383511Y-113399158D01*
X178352016Y-113387772D01*
X178298402Y-113380312D01*
X178215034Y-113375525D01*
X178141701Y-113373265D01*
X177905833Y-113367280D01*
X177905833Y-113442056D01*
X177905833Y-113516833D01*
X178122792Y-113516160D01*
X178236282Y-113513689D01*
X178314339Y-113506547D01*
X178363687Y-113493893D01*
X178381616Y-113483840D01*
X178409823Y-113452556D01*
X178409823Y-113644957D01*
X178371210Y-113659805D01*
X178318522Y-113664647D01*
X178273544Y-113665000D01*
X178190591Y-113663384D01*
X178085123Y-113659096D01*
X177976814Y-113652977D01*
X177951418Y-113651247D01*
X177757667Y-113637494D01*
X177757667Y-113576612D01*
X177757667Y-113515730D01*
X177434875Y-113521573D01*
X177112083Y-113527416D01*
X177111366Y-113596263D01*
X177104679Y-113638565D01*
X177081610Y-113682928D01*
X177036260Y-113738492D01*
X176985029Y-113792054D01*
X176859408Y-113919000D01*
X176983904Y-114044808D01*
X177042034Y-114105106D01*
X177080473Y-114153462D01*
X177103421Y-114201394D01*
X177115080Y-114260418D01*
X177119652Y-114342052D01*
X177120903Y-114420367D01*
X177122667Y-114572484D01*
X177191458Y-114579117D01*
X177239131Y-114588662D01*
X177257629Y-114613366D01*
X177260250Y-114649250D01*
X177260250Y-114712750D01*
X177064458Y-114718835D01*
X176868667Y-114724921D01*
X176868667Y-114650044D01*
X176872111Y-114599922D01*
X176889671Y-114579224D01*
X176932167Y-114575166D01*
X176995667Y-114575166D01*
X176995667Y-114409793D01*
X176994474Y-114324664D01*
X176988734Y-114269704D01*
X176975202Y-114232765D01*
X176950634Y-114201704D01*
X176936300Y-114187543D01*
X176887749Y-114144972D01*
X176860808Y-114135629D01*
X176849440Y-114160684D01*
X176847500Y-114204750D01*
X176843931Y-114254541D01*
X176826009Y-114274962D01*
X176784927Y-114278833D01*
X176722354Y-114278833D01*
X176716135Y-114125375D01*
X176709917Y-113971916D01*
X176461208Y-113965953D01*
X176212500Y-113959989D01*
X176212500Y-113897161D01*
X176212500Y-113834333D01*
X176466500Y-113834333D01*
X176720500Y-113834333D01*
X176720500Y-113686166D01*
X176720500Y-113538000D01*
X176784000Y-113538000D01*
X176824717Y-113541343D01*
X176842817Y-113559461D01*
X176847400Y-113604486D01*
X176847500Y-113622666D01*
X176851974Y-113683136D01*
X176868124Y-113703759D01*
X176900036Y-113686337D01*
X176928477Y-113658344D01*
X176950154Y-113630640D01*
X176963784Y-113596889D01*
X176971169Y-113547139D01*
X176974114Y-113471438D01*
X176974500Y-113404344D01*
X176974500Y-113199333D01*
X176911000Y-113199333D01*
X176847500Y-113199333D01*
X176847500Y-112860666D01*
X176847500Y-112522000D01*
X176908644Y-112522000D01*
X176950896Y-112516317D01*
X176972657Y-112491006D01*
X176983968Y-112446414D01*
X176989930Y-112390692D01*
X176993556Y-112307535D01*
X176994305Y-112211801D01*
X176993755Y-112176539D01*
X176989361Y-111982250D01*
X177056014Y-111975617D01*
X177122667Y-111968984D01*
X177122667Y-112245492D01*
X177122667Y-112522000D01*
X177186167Y-112522000D01*
X177249667Y-112522000D01*
X177249667Y-112859325D01*
X177249667Y-113196651D01*
X177180875Y-113203283D01*
X177137314Y-113210924D01*
X177122667Y-113224912D01*
X177122667Y-113072333D01*
X177122667Y-112860666D01*
X177122667Y-112649000D01*
X177059167Y-112649000D01*
X176995667Y-112649000D01*
X176995667Y-112860666D01*
X176995667Y-113072333D01*
X177059167Y-113072333D01*
X177122667Y-113072333D01*
X177122667Y-113224912D01*
X177116145Y-113231141D01*
X177107438Y-113276668D01*
X177105574Y-113299875D01*
X177099066Y-113389833D01*
X177428366Y-113389833D01*
X177757667Y-113389833D01*
X177757667Y-113305166D01*
X177757667Y-113220500D01*
X178081181Y-113220500D01*
X178404696Y-113220500D01*
X178515127Y-113332319D01*
X178625557Y-113444139D01*
X178625557Y-113444139D01*
G36*
X178583167Y-114723333D02*
X178456167Y-114723333D01*
X178329167Y-114723333D01*
X178329167Y-114649250D01*
X178329167Y-114575166D01*
X178456167Y-114575166D01*
X178583167Y-114575166D01*
X178583167Y-114649250D01*
X178583167Y-114723333D01*
X178583167Y-114723333D01*
X178583167Y-114723333D01*
G37*
X178583167Y-114723333D02*
X178456167Y-114723333D01*
X178329167Y-114723333D01*
X178329167Y-114649250D01*
X178329167Y-114575166D01*
X178456167Y-114575166D01*
X178583167Y-114575166D01*
X178583167Y-114649250D01*
X178583167Y-114723333D01*
X178583167Y-114723333D01*
G36*
X178054000Y-114649250D02*
X178051587Y-114677695D01*
X178037974Y-114693539D01*
X178003595Y-114700460D01*
X177938887Y-114702136D01*
X177916417Y-114702166D01*
X177842458Y-114701238D01*
X177801263Y-114696002D01*
X177783270Y-114682780D01*
X177778913Y-114657892D01*
X177778833Y-114649250D01*
X177781246Y-114620804D01*
X177794859Y-114604960D01*
X177829238Y-114598039D01*
X177893946Y-114596363D01*
X177916417Y-114596333D01*
X177990375Y-114597261D01*
X178031570Y-114602497D01*
X178049563Y-114615719D01*
X178053920Y-114640607D01*
X178054000Y-114649250D01*
X178054000Y-114649250D01*
X178054000Y-114649250D01*
G37*
X178054000Y-114649250D02*
X178051587Y-114677695D01*
X178037974Y-114693539D01*
X178003595Y-114700460D01*
X177938887Y-114702136D01*
X177916417Y-114702166D01*
X177842458Y-114701238D01*
X177801263Y-114696002D01*
X177783270Y-114682780D01*
X177778913Y-114657892D01*
X177778833Y-114649250D01*
X177781246Y-114620804D01*
X177794859Y-114604960D01*
X177829238Y-114598039D01*
X177893946Y-114596363D01*
X177916417Y-114596333D01*
X177990375Y-114597261D01*
X178031570Y-114602497D01*
X178049563Y-114615719D01*
X178053920Y-114640607D01*
X178054000Y-114649250D01*
X178054000Y-114649250D01*
G36*
X178054000Y-114352916D02*
X178051311Y-114382243D01*
X178036617Y-114398077D01*
X177999977Y-114404559D01*
X177931451Y-114405832D01*
X177927000Y-114405833D01*
X177856615Y-114404712D01*
X177818614Y-114398590D01*
X177803057Y-114383323D01*
X177800003Y-114354771D01*
X177800000Y-114352916D01*
X177802689Y-114323589D01*
X177817383Y-114307755D01*
X177854023Y-114301273D01*
X177922548Y-114300001D01*
X177927000Y-114300000D01*
X177997385Y-114301120D01*
X178035386Y-114307242D01*
X178050943Y-114322509D01*
X178053997Y-114351061D01*
X178054000Y-114352916D01*
X178054000Y-114352916D01*
X178054000Y-114352916D01*
G37*
X178054000Y-114352916D02*
X178051311Y-114382243D01*
X178036617Y-114398077D01*
X177999977Y-114404559D01*
X177931451Y-114405832D01*
X177927000Y-114405833D01*
X177856615Y-114404712D01*
X177818614Y-114398590D01*
X177803057Y-114383323D01*
X177800003Y-114354771D01*
X177800000Y-114352916D01*
X177802689Y-114323589D01*
X177817383Y-114307755D01*
X177854023Y-114301273D01*
X177922548Y-114300001D01*
X177927000Y-114300000D01*
X177997385Y-114301120D01*
X178035386Y-114307242D01*
X178050943Y-114322509D01*
X178053997Y-114351061D01*
X178054000Y-114352916D01*
X178054000Y-114352916D01*
G36*
X178580609Y-114380684D02*
X178571411Y-114394676D01*
X178543942Y-114402192D01*
X178490393Y-114405242D01*
X178402955Y-114405832D01*
X178394139Y-114405833D01*
X178303543Y-114405438D01*
X178247165Y-114402738D01*
X178216889Y-114395462D01*
X178204599Y-114381337D01*
X178202180Y-114358092D01*
X178202167Y-114352092D01*
X178202167Y-114298351D01*
X178387375Y-114304467D01*
X178476448Y-114308141D01*
X178531728Y-114313570D01*
X178561749Y-114323143D01*
X178575047Y-114339250D01*
X178579347Y-114358208D01*
X178580609Y-114380684D01*
X178580609Y-114380684D01*
X178580609Y-114380684D01*
G37*
X178580609Y-114380684D02*
X178571411Y-114394676D01*
X178543942Y-114402192D01*
X178490393Y-114405242D01*
X178402955Y-114405832D01*
X178394139Y-114405833D01*
X178303543Y-114405438D01*
X178247165Y-114402738D01*
X178216889Y-114395462D01*
X178204599Y-114381337D01*
X178202180Y-114358092D01*
X178202167Y-114352092D01*
X178202167Y-114298351D01*
X178387375Y-114304467D01*
X178476448Y-114308141D01*
X178531728Y-114313570D01*
X178561749Y-114323143D01*
X178575047Y-114339250D01*
X178579347Y-114358208D01*
X178580609Y-114380684D01*
X178580609Y-114380684D01*
D15*
X141097000Y-87503000D02*
X141097000Y-84963000D01*
X141097000Y-84963000D02*
X135001000Y-84963000D01*
X135001000Y-84963000D02*
X135001000Y-87757000D01*
X134239000Y-84455000D02*
X134239000Y-99695000D01*
X134239000Y-99695000D02*
X141859000Y-99695000D01*
X141859000Y-99695000D02*
X141859000Y-84455000D01*
X141859000Y-84455000D02*
X134239000Y-84455000D01*
X150063200Y-84226400D02*
X146608800Y-84226400D01*
X150063200Y-87985600D02*
X146608800Y-87985600D01*
X184632472Y-74803000D02*
G75*
G03X184632472Y-74803000I-2514472J0D01*
G01*
X169037000Y-72263000D02*
X167259000Y-72263000D01*
X169037000Y-74803000D02*
X167259000Y-74803000D01*
X169037000Y-77343000D02*
X167259000Y-77343000D01*
X177546000Y-80137000D02*
X185547000Y-80137000D01*
X185547000Y-80137000D02*
X185547000Y-69469000D01*
X185547000Y-69469000D02*
X177546000Y-69469000D01*
X169037000Y-80137000D02*
X177546000Y-80137000D01*
X177546000Y-80137000D02*
X177546000Y-69469000D01*
X177546000Y-69469000D02*
X169037000Y-69469000D01*
X169037000Y-74803000D02*
X169037000Y-69469000D01*
X169037000Y-74803000D02*
X169037000Y-80137000D01*
D11*
X168783000Y-68199000D02*
X187833000Y-68199000D01*
X187833000Y-68199000D02*
X187833000Y-81407000D01*
X187833000Y-81407000D02*
X168783000Y-81407000D01*
X141314714Y-78159428D02*
X140552714Y-78159428D01*
X140552714Y-77869143D01*
X140589000Y-77796571D01*
X140625286Y-77760286D01*
X140697857Y-77724000D01*
X140806714Y-77724000D01*
X140879286Y-77760286D01*
X140915571Y-77796571D01*
X140951857Y-77869143D01*
X140951857Y-78159428D01*
X141314714Y-76998286D02*
X141314714Y-77433714D01*
X141314714Y-77216000D02*
X140552714Y-77216000D01*
X140661571Y-77288571D01*
X140734143Y-77361143D01*
X140770429Y-77433714D01*
X164084000Y-93744143D02*
X164047714Y-93780429D01*
X163938857Y-93816714D01*
X163866286Y-93816714D01*
X163757429Y-93780429D01*
X163684857Y-93707857D01*
X163648572Y-93635286D01*
X163612286Y-93490143D01*
X163612286Y-93381286D01*
X163648572Y-93236143D01*
X163684857Y-93163571D01*
X163757429Y-93091000D01*
X163866286Y-93054714D01*
X163938857Y-93054714D01*
X164047714Y-93091000D01*
X164084000Y-93127286D01*
X164809714Y-93816714D02*
X164374286Y-93816714D01*
X164592000Y-93816714D02*
X164592000Y-93054714D01*
X164519429Y-93163571D01*
X164446857Y-93236143D01*
X164374286Y-93272429D01*
X173990000Y-90061143D02*
X173953714Y-90097429D01*
X173844857Y-90133714D01*
X173772286Y-90133714D01*
X173663429Y-90097429D01*
X173590857Y-90024857D01*
X173554572Y-89952286D01*
X173518286Y-89807143D01*
X173518286Y-89698286D01*
X173554572Y-89553143D01*
X173590857Y-89480571D01*
X173663429Y-89408000D01*
X173772286Y-89371714D01*
X173844857Y-89371714D01*
X173953714Y-89408000D01*
X173990000Y-89444286D01*
X174280286Y-89444286D02*
X174316572Y-89408000D01*
X174389143Y-89371714D01*
X174570572Y-89371714D01*
X174643143Y-89408000D01*
X174679429Y-89444286D01*
X174715714Y-89516857D01*
X174715714Y-89589429D01*
X174679429Y-89698286D01*
X174244000Y-90133714D01*
X174715714Y-90133714D01*
X167912143Y-80264000D02*
X167948429Y-80300286D01*
X167984714Y-80409143D01*
X167984714Y-80481714D01*
X167948429Y-80590571D01*
X167875857Y-80663143D01*
X167803286Y-80699428D01*
X167658143Y-80735714D01*
X167549286Y-80735714D01*
X167404143Y-80699428D01*
X167331571Y-80663143D01*
X167259000Y-80590571D01*
X167222714Y-80481714D01*
X167222714Y-80409143D01*
X167259000Y-80300286D01*
X167295286Y-80264000D01*
X167222714Y-80010000D02*
X167222714Y-79538286D01*
X167513000Y-79792286D01*
X167513000Y-79683428D01*
X167549286Y-79610857D01*
X167585571Y-79574571D01*
X167658143Y-79538286D01*
X167839571Y-79538286D01*
X167912143Y-79574571D01*
X167948429Y-79610857D01*
X167984714Y-79683428D01*
X167984714Y-79901143D01*
X167948429Y-79973714D01*
X167912143Y-80010000D01*
X154432000Y-71138143D02*
X154395714Y-71174429D01*
X154286857Y-71210714D01*
X154214286Y-71210714D01*
X154105429Y-71174429D01*
X154032857Y-71101857D01*
X153996572Y-71029286D01*
X153960286Y-70884143D01*
X153960286Y-70775286D01*
X153996572Y-70630143D01*
X154032857Y-70557571D01*
X154105429Y-70485000D01*
X154214286Y-70448714D01*
X154286857Y-70448714D01*
X154395714Y-70485000D01*
X154432000Y-70521286D01*
X155085143Y-70702714D02*
X155085143Y-71210714D01*
X154903714Y-70412429D02*
X154722286Y-70956714D01*
X155194000Y-70956714D01*
X169545000Y-106571143D02*
X169508714Y-106607429D01*
X169399857Y-106643714D01*
X169327286Y-106643714D01*
X169218429Y-106607429D01*
X169145857Y-106534857D01*
X169109572Y-106462286D01*
X169073286Y-106317143D01*
X169073286Y-106208286D01*
X169109572Y-106063143D01*
X169145857Y-105990571D01*
X169218429Y-105918000D01*
X169327286Y-105881714D01*
X169399857Y-105881714D01*
X169508714Y-105918000D01*
X169545000Y-105954286D01*
X170234429Y-105881714D02*
X169871572Y-105881714D01*
X169835286Y-106244571D01*
X169871572Y-106208286D01*
X169944143Y-106172000D01*
X170125572Y-106172000D01*
X170198143Y-106208286D01*
X170234429Y-106244571D01*
X170270714Y-106317143D01*
X170270714Y-106498571D01*
X170234429Y-106571143D01*
X170198143Y-106607429D01*
X170125572Y-106643714D01*
X169944143Y-106643714D01*
X169871572Y-106607429D01*
X169835286Y-106571143D01*
X184676143Y-86614000D02*
X184712429Y-86650286D01*
X184748714Y-86759143D01*
X184748714Y-86831714D01*
X184712429Y-86940571D01*
X184639857Y-87013143D01*
X184567286Y-87049428D01*
X184422143Y-87085714D01*
X184313286Y-87085714D01*
X184168143Y-87049428D01*
X184095571Y-87013143D01*
X184023000Y-86940571D01*
X183986714Y-86831714D01*
X183986714Y-86759143D01*
X184023000Y-86650286D01*
X184059286Y-86614000D01*
X183986714Y-85960857D02*
X183986714Y-86106000D01*
X184023000Y-86178571D01*
X184059286Y-86214857D01*
X184168143Y-86287428D01*
X184313286Y-86323714D01*
X184603571Y-86323714D01*
X184676143Y-86287428D01*
X184712429Y-86251143D01*
X184748714Y-86178571D01*
X184748714Y-86033428D01*
X184712429Y-85960857D01*
X184676143Y-85924571D01*
X184603571Y-85888286D01*
X184422143Y-85888286D01*
X184349571Y-85924571D01*
X184313286Y-85960857D01*
X184277000Y-86033428D01*
X184277000Y-86178571D01*
X184313286Y-86251143D01*
X184349571Y-86287428D01*
X184422143Y-86323714D01*
X153434143Y-96393000D02*
X153470429Y-96429286D01*
X153506714Y-96538143D01*
X153506714Y-96610714D01*
X153470429Y-96719571D01*
X153397857Y-96792143D01*
X153325286Y-96828428D01*
X153180143Y-96864714D01*
X153071286Y-96864714D01*
X152926143Y-96828428D01*
X152853571Y-96792143D01*
X152781000Y-96719571D01*
X152744714Y-96610714D01*
X152744714Y-96538143D01*
X152781000Y-96429286D01*
X152817286Y-96393000D01*
X152744714Y-96139000D02*
X152744714Y-95631000D01*
X153506714Y-95957571D01*
X156101143Y-96520000D02*
X156137429Y-96556286D01*
X156173714Y-96665143D01*
X156173714Y-96737714D01*
X156137429Y-96846571D01*
X156064857Y-96919143D01*
X155992286Y-96955428D01*
X155847143Y-96991714D01*
X155738286Y-96991714D01*
X155593143Y-96955428D01*
X155520571Y-96919143D01*
X155448000Y-96846571D01*
X155411714Y-96737714D01*
X155411714Y-96665143D01*
X155448000Y-96556286D01*
X155484286Y-96520000D01*
X155738286Y-96084571D02*
X155702000Y-96157143D01*
X155665714Y-96193428D01*
X155593143Y-96229714D01*
X155556857Y-96229714D01*
X155484286Y-96193428D01*
X155448000Y-96157143D01*
X155411714Y-96084571D01*
X155411714Y-95939428D01*
X155448000Y-95866857D01*
X155484286Y-95830571D01*
X155556857Y-95794286D01*
X155593143Y-95794286D01*
X155665714Y-95830571D01*
X155702000Y-95866857D01*
X155738286Y-95939428D01*
X155738286Y-96084571D01*
X155774571Y-96157143D01*
X155810857Y-96193428D01*
X155883429Y-96229714D01*
X156028571Y-96229714D01*
X156101143Y-96193428D01*
X156137429Y-96157143D01*
X156173714Y-96084571D01*
X156173714Y-95939428D01*
X156137429Y-95866857D01*
X156101143Y-95830571D01*
X156028571Y-95794286D01*
X155883429Y-95794286D01*
X155810857Y-95830571D01*
X155774571Y-95866857D01*
X155738286Y-95939428D01*
X169926000Y-99713143D02*
X169889714Y-99749429D01*
X169780857Y-99785714D01*
X169708286Y-99785714D01*
X169599429Y-99749429D01*
X169526857Y-99676857D01*
X169490572Y-99604286D01*
X169454286Y-99459143D01*
X169454286Y-99350286D01*
X169490572Y-99205143D01*
X169526857Y-99132571D01*
X169599429Y-99060000D01*
X169708286Y-99023714D01*
X169780857Y-99023714D01*
X169889714Y-99060000D01*
X169926000Y-99096286D01*
X170288857Y-99785714D02*
X170434000Y-99785714D01*
X170506572Y-99749429D01*
X170542857Y-99713143D01*
X170615429Y-99604286D01*
X170651714Y-99459143D01*
X170651714Y-99168857D01*
X170615429Y-99096286D01*
X170579143Y-99060000D01*
X170506572Y-99023714D01*
X170361429Y-99023714D01*
X170288857Y-99060000D01*
X170252572Y-99096286D01*
X170216286Y-99168857D01*
X170216286Y-99350286D01*
X170252572Y-99422857D01*
X170288857Y-99459143D01*
X170361429Y-99495429D01*
X170506572Y-99495429D01*
X170579143Y-99459143D01*
X170615429Y-99422857D01*
X170651714Y-99350286D01*
X176040143Y-93504143D02*
X176003857Y-93540429D01*
X175895000Y-93576714D01*
X175822429Y-93576714D01*
X175713572Y-93540429D01*
X175641000Y-93467857D01*
X175604715Y-93395286D01*
X175568429Y-93250143D01*
X175568429Y-93141286D01*
X175604715Y-92996143D01*
X175641000Y-92923571D01*
X175713572Y-92851000D01*
X175822429Y-92814714D01*
X175895000Y-92814714D01*
X176003857Y-92851000D01*
X176040143Y-92887286D01*
X176765857Y-93576714D02*
X176330429Y-93576714D01*
X176548143Y-93576714D02*
X176548143Y-92814714D01*
X176475572Y-92923571D01*
X176403000Y-92996143D01*
X176330429Y-93032429D01*
X177237571Y-92814714D02*
X177310143Y-92814714D01*
X177382714Y-92851000D01*
X177419000Y-92887286D01*
X177455286Y-92959857D01*
X177491571Y-93105000D01*
X177491571Y-93286429D01*
X177455286Y-93431571D01*
X177419000Y-93504143D01*
X177382714Y-93540429D01*
X177310143Y-93576714D01*
X177237571Y-93576714D01*
X177165000Y-93540429D01*
X177128714Y-93504143D01*
X177092429Y-93431571D01*
X177056143Y-93286429D01*
X177056143Y-93105000D01*
X177092429Y-92959857D01*
X177128714Y-92887286D01*
X177165000Y-92851000D01*
X177237571Y-92814714D01*
X154123572Y-102730714D02*
X154123572Y-101968714D01*
X154305000Y-101968714D01*
X154413857Y-102005000D01*
X154486429Y-102077571D01*
X154522714Y-102150143D01*
X154559000Y-102295286D01*
X154559000Y-102404143D01*
X154522714Y-102549286D01*
X154486429Y-102621857D01*
X154413857Y-102694429D01*
X154305000Y-102730714D01*
X154123572Y-102730714D01*
X155284714Y-102730714D02*
X154849286Y-102730714D01*
X155067000Y-102730714D02*
X155067000Y-101968714D01*
X154994429Y-102077571D01*
X154921857Y-102150143D01*
X154849286Y-102186429D01*
X158850053Y-82429446D02*
X158311238Y-81890631D01*
X158439527Y-81762342D01*
X158542158Y-81711026D01*
X158644790Y-81711026D01*
X158721763Y-81736685D01*
X158850053Y-81813658D01*
X158927026Y-81890632D01*
X159004000Y-82018921D01*
X159029658Y-82095894D01*
X159029658Y-82198526D01*
X158978342Y-82301157D01*
X158850053Y-82429446D01*
X158875711Y-81428790D02*
X158875711Y-81377474D01*
X158901368Y-81300500D01*
X159029658Y-81172210D01*
X159106632Y-81146553D01*
X159157948Y-81146553D01*
X159234921Y-81172211D01*
X159286237Y-81223527D01*
X159337553Y-81326158D01*
X159337552Y-81941947D01*
X159671104Y-81608395D01*
X154583368Y-76256345D02*
X154583368Y-76205029D01*
X154609026Y-76128054D01*
X154762974Y-76076740D01*
X154788632Y-75999765D01*
X154788632Y-75948449D01*
X154762973Y-80746473D02*
X154762973Y-80695157D01*
X154788631Y-80618182D01*
X154942579Y-80566868D01*
X154968237Y-80489893D01*
X154968237Y-80438577D01*
X149310676Y-78655355D02*
X149721201Y-78244829D01*
X159907379Y-78475750D02*
X160317904Y-78065224D01*
X160317904Y-78475750D02*
X159907378Y-78065224D01*
X189048572Y-104738714D02*
X189048572Y-103976714D01*
X189230000Y-103976714D01*
X189338857Y-104013000D01*
X189411429Y-104085571D01*
X189447714Y-104158143D01*
X189484000Y-104303286D01*
X189484000Y-104412143D01*
X189447714Y-104557286D01*
X189411429Y-104629857D01*
X189338857Y-104702429D01*
X189230000Y-104738714D01*
X189048572Y-104738714D01*
X189738000Y-103976714D02*
X190209714Y-103976714D01*
X189955714Y-104267000D01*
X190064572Y-104267000D01*
X190137143Y-104303286D01*
X190173429Y-104339571D01*
X190209714Y-104412143D01*
X190209714Y-104593571D01*
X190173429Y-104666143D01*
X190137143Y-104702429D01*
X190064572Y-104738714D01*
X189846857Y-104738714D01*
X189774286Y-104702429D01*
X189738000Y-104666143D01*
X158332714Y-94796428D02*
X157570714Y-94796428D01*
X157570714Y-94615000D01*
X157607000Y-94506143D01*
X157679571Y-94433571D01*
X157752143Y-94397286D01*
X157897286Y-94361000D01*
X158006143Y-94361000D01*
X158151286Y-94397286D01*
X158223857Y-94433571D01*
X158296429Y-94506143D01*
X158332714Y-94615000D01*
X158332714Y-94796428D01*
X157824714Y-93707857D02*
X158332714Y-93707857D01*
X157534429Y-93889286D02*
X158078714Y-94070714D01*
X158078714Y-93599000D01*
X189048572Y-101309714D02*
X189048572Y-100547714D01*
X189230000Y-100547714D01*
X189338857Y-100584000D01*
X189411429Y-100656571D01*
X189447714Y-100729143D01*
X189484000Y-100874286D01*
X189484000Y-100983143D01*
X189447714Y-101128286D01*
X189411429Y-101200857D01*
X189338857Y-101273429D01*
X189230000Y-101309714D01*
X189048572Y-101309714D01*
X190173429Y-100547714D02*
X189810572Y-100547714D01*
X189774286Y-100910571D01*
X189810572Y-100874286D01*
X189883143Y-100838000D01*
X190064572Y-100838000D01*
X190137143Y-100874286D01*
X190173429Y-100910571D01*
X190209714Y-100983143D01*
X190209714Y-101164571D01*
X190173429Y-101237143D01*
X190137143Y-101273429D01*
X190064572Y-101309714D01*
X189883143Y-101309714D01*
X189810572Y-101273429D01*
X189774286Y-101237143D01*
X148662572Y-96356714D02*
X148662572Y-95594714D01*
X148844000Y-95594714D01*
X148952857Y-95631000D01*
X149025429Y-95703571D01*
X149061714Y-95776143D01*
X149098000Y-95921286D01*
X149098000Y-96030143D01*
X149061714Y-96175286D01*
X149025429Y-96247857D01*
X148952857Y-96320429D01*
X148844000Y-96356714D01*
X148662572Y-96356714D01*
X149751143Y-95594714D02*
X149606000Y-95594714D01*
X149533429Y-95631000D01*
X149497143Y-95667286D01*
X149424572Y-95776143D01*
X149388286Y-95921286D01*
X149388286Y-96211571D01*
X149424572Y-96284143D01*
X149460857Y-96320429D01*
X149533429Y-96356714D01*
X149678572Y-96356714D01*
X149751143Y-96320429D01*
X149787429Y-96284143D01*
X149823714Y-96211571D01*
X149823714Y-96030143D01*
X149787429Y-95957571D01*
X149751143Y-95921286D01*
X149678572Y-95885000D01*
X149533429Y-95885000D01*
X149460857Y-95921286D01*
X149424572Y-95957571D01*
X149388286Y-96030143D01*
X141314714Y-107314999D02*
X140552714Y-107314999D01*
X141097000Y-107060999D01*
X140552714Y-106806999D01*
X141314714Y-106806999D01*
X140552714Y-106299000D02*
X140552714Y-106153857D01*
X140589000Y-106081285D01*
X140661571Y-106008714D01*
X140806714Y-105972428D01*
X141060714Y-105972428D01*
X141205857Y-106008714D01*
X141278429Y-106081285D01*
X141314714Y-106153857D01*
X141314714Y-106299000D01*
X141278429Y-106371571D01*
X141205857Y-106444142D01*
X141060714Y-106480428D01*
X140806714Y-106480428D01*
X140661571Y-106444142D01*
X140589000Y-106371571D01*
X140552714Y-106299000D01*
X141314714Y-105645856D02*
X140552714Y-105645856D01*
X140552714Y-105464428D01*
X140589000Y-105355571D01*
X140661571Y-105282999D01*
X140734143Y-105246714D01*
X140879286Y-105210428D01*
X140988143Y-105210428D01*
X141133286Y-105246714D01*
X141205857Y-105282999D01*
X141278429Y-105355571D01*
X141314714Y-105464428D01*
X141314714Y-105645856D01*
X141314714Y-104484714D02*
X141314714Y-104920142D01*
X141314714Y-104702428D02*
X140552714Y-104702428D01*
X140661571Y-104774999D01*
X140734143Y-104847571D01*
X140770429Y-104920142D01*
X154105429Y-100366286D02*
X154032857Y-100330000D01*
X153960286Y-100257429D01*
X153851429Y-100148571D01*
X153778857Y-100112286D01*
X153706286Y-100112286D01*
X153742571Y-100293714D02*
X153670000Y-100257429D01*
X153597429Y-100184857D01*
X153561143Y-100039714D01*
X153561143Y-99785714D01*
X153597429Y-99640571D01*
X153670000Y-99568000D01*
X153742571Y-99531714D01*
X153887714Y-99531714D01*
X153960286Y-99568000D01*
X154032857Y-99640571D01*
X154069143Y-99785714D01*
X154069143Y-100039714D01*
X154032857Y-100184857D01*
X153960286Y-100257429D01*
X153887714Y-100293714D01*
X153742571Y-100293714D01*
X154794857Y-100293714D02*
X154359429Y-100293714D01*
X154577143Y-100293714D02*
X154577143Y-99531714D01*
X154504572Y-99640571D01*
X154432000Y-99713143D01*
X154359429Y-99749429D01*
X186055000Y-110326714D02*
X185801000Y-109963857D01*
X185619572Y-110326714D02*
X185619572Y-109564714D01*
X185909857Y-109564714D01*
X185982429Y-109601000D01*
X186018714Y-109637286D01*
X186055000Y-109709857D01*
X186055000Y-109818714D01*
X186018714Y-109891286D01*
X185982429Y-109927571D01*
X185909857Y-109963857D01*
X185619572Y-109963857D01*
X186780714Y-110326714D02*
X186345286Y-110326714D01*
X186563000Y-110326714D02*
X186563000Y-109564714D01*
X186490429Y-109673571D01*
X186417857Y-109746143D01*
X186345286Y-109782429D01*
X169291000Y-104484714D02*
X169037000Y-104121857D01*
X168855572Y-104484714D02*
X168855572Y-103722714D01*
X169145857Y-103722714D01*
X169218429Y-103759000D01*
X169254714Y-103795286D01*
X169291000Y-103867857D01*
X169291000Y-103976714D01*
X169254714Y-104049286D01*
X169218429Y-104085571D01*
X169145857Y-104121857D01*
X168855572Y-104121857D01*
X169581286Y-103795286D02*
X169617572Y-103759000D01*
X169690143Y-103722714D01*
X169871572Y-103722714D01*
X169944143Y-103759000D01*
X169980429Y-103795286D01*
X170016714Y-103867857D01*
X170016714Y-103940429D01*
X169980429Y-104049286D01*
X169545000Y-104484714D01*
X170016714Y-104484714D01*
X181954714Y-86360000D02*
X181591857Y-86614000D01*
X181954714Y-86795428D02*
X181192714Y-86795428D01*
X181192714Y-86505143D01*
X181229000Y-86432571D01*
X181265286Y-86396286D01*
X181337857Y-86360000D01*
X181446714Y-86360000D01*
X181519286Y-86396286D01*
X181555571Y-86432571D01*
X181591857Y-86505143D01*
X181591857Y-86795428D01*
X181192714Y-86106000D02*
X181192714Y-85634286D01*
X181483000Y-85888286D01*
X181483000Y-85779428D01*
X181519286Y-85706857D01*
X181555571Y-85670571D01*
X181628143Y-85634286D01*
X181809571Y-85634286D01*
X181882143Y-85670571D01*
X181918429Y-85706857D01*
X181954714Y-85779428D01*
X181954714Y-85997143D01*
X181918429Y-86069714D01*
X181882143Y-86106000D01*
X162052000Y-102706714D02*
X161798000Y-102343857D01*
X161616572Y-102706714D02*
X161616572Y-101944714D01*
X161906857Y-101944714D01*
X161979429Y-101981000D01*
X162015714Y-102017286D01*
X162052000Y-102089857D01*
X162052000Y-102198714D01*
X162015714Y-102271286D01*
X161979429Y-102307571D01*
X161906857Y-102343857D01*
X161616572Y-102343857D01*
X162705143Y-102198714D02*
X162705143Y-102706714D01*
X162523714Y-101908429D02*
X162342286Y-102452714D01*
X162814000Y-102452714D01*
X187325000Y-97245714D02*
X187071000Y-96882857D01*
X186889572Y-97245714D02*
X186889572Y-96483714D01*
X187179857Y-96483714D01*
X187252429Y-96520000D01*
X187288714Y-96556286D01*
X187325000Y-96628857D01*
X187325000Y-96737714D01*
X187288714Y-96810286D01*
X187252429Y-96846571D01*
X187179857Y-96882857D01*
X186889572Y-96882857D01*
X188014429Y-96483714D02*
X187651572Y-96483714D01*
X187615286Y-96846571D01*
X187651572Y-96810286D01*
X187724143Y-96774000D01*
X187905572Y-96774000D01*
X187978143Y-96810286D01*
X188014429Y-96846571D01*
X188050714Y-96919143D01*
X188050714Y-97100571D01*
X188014429Y-97173143D01*
X187978143Y-97209429D01*
X187905572Y-97245714D01*
X187724143Y-97245714D01*
X187651572Y-97209429D01*
X187615286Y-97173143D01*
X160872714Y-93345000D02*
X160509857Y-93599000D01*
X160872714Y-93780428D02*
X160110714Y-93780428D01*
X160110714Y-93490143D01*
X160147000Y-93417571D01*
X160183286Y-93381286D01*
X160255857Y-93345000D01*
X160364714Y-93345000D01*
X160437286Y-93381286D01*
X160473571Y-93417571D01*
X160509857Y-93490143D01*
X160509857Y-93780428D01*
X160110714Y-93091000D02*
X160110714Y-92583000D01*
X160872714Y-92909571D01*
X143891000Y-90895714D02*
X143637000Y-90532857D01*
X143455572Y-90895714D02*
X143455572Y-90133714D01*
X143745857Y-90133714D01*
X143818429Y-90170000D01*
X143854714Y-90206286D01*
X143891000Y-90278857D01*
X143891000Y-90387714D01*
X143854714Y-90460286D01*
X143818429Y-90496571D01*
X143745857Y-90532857D01*
X143455572Y-90532857D01*
X144326429Y-90460286D02*
X144253857Y-90424000D01*
X144217572Y-90387714D01*
X144181286Y-90315143D01*
X144181286Y-90278857D01*
X144217572Y-90206286D01*
X144253857Y-90170000D01*
X144326429Y-90133714D01*
X144471572Y-90133714D01*
X144544143Y-90170000D01*
X144580429Y-90206286D01*
X144616714Y-90278857D01*
X144616714Y-90315143D01*
X144580429Y-90387714D01*
X144544143Y-90424000D01*
X144471572Y-90460286D01*
X144326429Y-90460286D01*
X144253857Y-90496571D01*
X144217572Y-90532857D01*
X144181286Y-90605429D01*
X144181286Y-90750571D01*
X144217572Y-90823143D01*
X144253857Y-90859429D01*
X144326429Y-90895714D01*
X144471572Y-90895714D01*
X144544143Y-90859429D01*
X144580429Y-90823143D01*
X144616714Y-90750571D01*
X144616714Y-90605429D01*
X144580429Y-90532857D01*
X144544143Y-90496571D01*
X144471572Y-90460286D01*
X145288000Y-97118714D02*
X145034000Y-96755857D01*
X144852572Y-97118714D02*
X144852572Y-96356714D01*
X145142857Y-96356714D01*
X145215429Y-96393000D01*
X145251714Y-96429286D01*
X145288000Y-96501857D01*
X145288000Y-96610714D01*
X145251714Y-96683286D01*
X145215429Y-96719571D01*
X145142857Y-96755857D01*
X144852572Y-96755857D01*
X145650857Y-97118714D02*
X145796000Y-97118714D01*
X145868572Y-97082429D01*
X145904857Y-97046143D01*
X145977429Y-96937286D01*
X146013714Y-96792143D01*
X146013714Y-96501857D01*
X145977429Y-96429286D01*
X145941143Y-96393000D01*
X145868572Y-96356714D01*
X145723429Y-96356714D01*
X145650857Y-96393000D01*
X145614572Y-96429286D01*
X145578286Y-96501857D01*
X145578286Y-96683286D01*
X145614572Y-96755857D01*
X145650857Y-96792143D01*
X145723429Y-96828429D01*
X145868572Y-96828429D01*
X145941143Y-96792143D01*
X145977429Y-96755857D01*
X146013714Y-96683286D01*
X171087143Y-95213714D02*
X170833143Y-94850857D01*
X170651715Y-95213714D02*
X170651715Y-94451714D01*
X170942000Y-94451714D01*
X171014572Y-94488000D01*
X171050857Y-94524286D01*
X171087143Y-94596857D01*
X171087143Y-94705714D01*
X171050857Y-94778286D01*
X171014572Y-94814571D01*
X170942000Y-94850857D01*
X170651715Y-94850857D01*
X171812857Y-95213714D02*
X171377429Y-95213714D01*
X171595143Y-95213714D02*
X171595143Y-94451714D01*
X171522572Y-94560571D01*
X171450000Y-94633143D01*
X171377429Y-94669429D01*
X172284571Y-94451714D02*
X172357143Y-94451714D01*
X172429714Y-94488000D01*
X172466000Y-94524286D01*
X172502286Y-94596857D01*
X172538571Y-94742000D01*
X172538571Y-94923429D01*
X172502286Y-95068571D01*
X172466000Y-95141143D01*
X172429714Y-95177429D01*
X172357143Y-95213714D01*
X172284571Y-95213714D01*
X172212000Y-95177429D01*
X172175714Y-95141143D01*
X172139429Y-95068571D01*
X172103143Y-94923429D01*
X172103143Y-94742000D01*
X172139429Y-94596857D01*
X172175714Y-94524286D01*
X172212000Y-94488000D01*
X172284571Y-94451714D01*
X165843857Y-110072714D02*
X165589857Y-109709857D01*
X165408429Y-110072714D02*
X165408429Y-109310714D01*
X165698714Y-109310714D01*
X165771286Y-109347000D01*
X165807571Y-109383286D01*
X165843857Y-109455857D01*
X165843857Y-109564714D01*
X165807571Y-109637286D01*
X165771286Y-109673571D01*
X165698714Y-109709857D01*
X165408429Y-109709857D01*
X166170429Y-109673571D02*
X166424429Y-109673571D01*
X166533286Y-110072714D02*
X166170429Y-110072714D01*
X166170429Y-109310714D01*
X166533286Y-109310714D01*
X167222715Y-110072714D02*
X166859858Y-110072714D01*
X166859858Y-109310714D01*
X167875857Y-110072714D02*
X167440429Y-110072714D01*
X167658143Y-110072714D02*
X167658143Y-109310714D01*
X167585572Y-109419571D01*
X167513000Y-109492143D01*
X167440429Y-109528429D01*
X146050001Y-104484714D02*
X146050001Y-104666143D01*
X145868572Y-104593571D02*
X146050001Y-104666143D01*
X146231429Y-104593571D01*
X145941144Y-104811286D02*
X146050001Y-104666143D01*
X146158858Y-104811286D01*
X149787429Y-76072999D02*
X149823714Y-75964142D01*
X149823714Y-75782713D01*
X149787429Y-75710142D01*
X149751143Y-75673856D01*
X149678571Y-75637571D01*
X149606000Y-75637571D01*
X149533429Y-75673856D01*
X149497143Y-75710142D01*
X149460857Y-75782713D01*
X149424571Y-75927856D01*
X149388286Y-76000428D01*
X149352000Y-76036713D01*
X149279429Y-76072999D01*
X149206857Y-76072999D01*
X149134286Y-76036713D01*
X149098000Y-76000428D01*
X149061714Y-75927856D01*
X149061714Y-75746428D01*
X149098000Y-75637571D01*
X149061714Y-75383571D02*
X149823714Y-75202142D01*
X149279429Y-75056999D01*
X149823714Y-74911857D01*
X149061714Y-74730428D01*
X149823714Y-74041000D02*
X149823714Y-74476428D01*
X149823714Y-74258714D02*
X149061714Y-74258714D01*
X149170571Y-74331285D01*
X149243143Y-74403857D01*
X149279429Y-74476428D01*
X189992001Y-88954429D02*
X190100858Y-88990714D01*
X190282287Y-88990714D01*
X190354858Y-88954429D01*
X190391144Y-88918143D01*
X190427429Y-88845571D01*
X190427429Y-88773000D01*
X190391144Y-88700429D01*
X190354858Y-88664143D01*
X190282287Y-88627857D01*
X190137144Y-88591571D01*
X190064572Y-88555286D01*
X190028287Y-88519000D01*
X189992001Y-88446429D01*
X189992001Y-88373857D01*
X190028287Y-88301286D01*
X190064572Y-88265000D01*
X190137144Y-88228714D01*
X190318572Y-88228714D01*
X190427429Y-88265000D01*
X190681429Y-88228714D02*
X190862858Y-88990714D01*
X191008001Y-88446429D01*
X191153143Y-88990714D01*
X191334572Y-88228714D01*
X191588572Y-88301286D02*
X191624858Y-88265000D01*
X191697429Y-88228714D01*
X191878858Y-88228714D01*
X191951429Y-88265000D01*
X191987715Y-88301286D01*
X192024000Y-88373857D01*
X192024000Y-88446429D01*
X191987715Y-88555286D01*
X191552286Y-88990714D01*
X192024000Y-88990714D01*
X175406714Y-98370571D02*
X176023571Y-98370571D01*
X176096143Y-98334286D01*
X176132429Y-98298000D01*
X176168714Y-98225429D01*
X176168714Y-98080286D01*
X176132429Y-98007714D01*
X176096143Y-97971429D01*
X176023571Y-97935143D01*
X175406714Y-97935143D01*
X175479286Y-97608571D02*
X175443000Y-97572285D01*
X175406714Y-97499714D01*
X175406714Y-97318285D01*
X175443000Y-97245714D01*
X175479286Y-97209428D01*
X175551857Y-97173143D01*
X175624429Y-97173143D01*
X175733286Y-97209428D01*
X176168714Y-97644857D01*
X176168714Y-97173143D01*
D15*
X143724334Y-83383381D02*
X143391000Y-82907190D01*
X143152905Y-83383381D02*
X143152905Y-82383381D01*
X143533858Y-82383381D01*
X143629096Y-82431000D01*
X143676715Y-82478619D01*
X143724334Y-82573857D01*
X143724334Y-82716714D01*
X143676715Y-82811952D01*
X143629096Y-82859571D01*
X143533858Y-82907190D01*
X143152905Y-82907190D01*
X144581477Y-82383381D02*
X144391000Y-82383381D01*
X144295762Y-82431000D01*
X144248143Y-82478619D01*
X144152905Y-82621476D01*
X144105286Y-82811952D01*
X144105286Y-83192905D01*
X144152905Y-83288143D01*
X144200524Y-83335762D01*
X144295762Y-83383381D01*
X144486239Y-83383381D01*
X144581477Y-83335762D01*
X144629096Y-83288143D01*
X144676715Y-83192905D01*
X144676715Y-82954810D01*
X144629096Y-82859571D01*
X144581477Y-82811952D01*
X144486239Y-82764333D01*
X144295762Y-82764333D01*
X144200524Y-82811952D01*
X144152905Y-82859571D01*
X144105286Y-82954810D01*
X166243095Y-69937381D02*
X166243095Y-70746905D01*
X166290714Y-70842143D01*
X166338333Y-70889762D01*
X166433571Y-70937381D01*
X166624048Y-70937381D01*
X166719286Y-70889762D01*
X166766905Y-70842143D01*
X166814524Y-70746905D01*
X166814524Y-69937381D01*
X167814524Y-70937381D02*
X167243095Y-70937381D01*
X167528809Y-70937381D02*
X167528809Y-69937381D01*
X167433571Y-70080238D01*
X167338333Y-70175476D01*
X167243095Y-70223095D01*
M02*
