M48
;DRILL file {KiCad 4.0.0-2.201512072331+6194~38~ubuntu14.04.1-stable} date Tue 07 Jun 2016 08:46:54 PM CEST
;FORMAT={2:4/ absolute / inch / suppress leading zeros}
FMAT,2
INCH,TZ
T1C0.013
T2C0.030
T3C0.031
T4C0.039
T5C0.040
T6C0.060
T7C0.126
T8C0.150
T9C0.200
%
G90
G05
M72
T1
X56700Y-38000
X63250Y-39500
X67900Y-40200
X69150Y-37400
X70400Y-34700
X72100Y-40000
X76540Y-42100
T2
X57750Y-42450
X59486Y-30800
X59750Y-42450
X60900Y-29386
X60900Y-32214
X61750Y-42450
X62314Y-30800
X63750Y-42450
T3
X61933Y-27900
X62720Y-27900
X64650Y-33300
X64650Y-35269
X65350Y-38650
X65350Y-39437
T4
X65100Y-28450
X65100Y-29450
X65100Y-30450
T5
X56140Y-27580
X56900Y-30260
X57680Y-27580
X57800Y-40150
X57900Y-30260
X59120Y-27580
X59400Y-40150
X67700Y-43200
X70800Y-43200
T6
X54350Y-29966
X54350Y-31934
X54350Y-34266
X54350Y-36234
X54350Y-38203
X54350Y-40516
X54350Y-42484
T7
X52600Y-27900
X52600Y-44500
X75800Y-27900
X75800Y-44500
T8
X71700Y-29450
T9
X71700Y-29450
T0
M30
