G04 #@! TF.FileFunction,Legend,Top*
%FSLAX46Y46*%
G04 Gerber Fmt 4.6, Leading zero omitted, Abs format (unit mm)*
G04 Created by KiCad (PCBNEW 4.0.0-2.201512072331+6194~38~ubuntu14.04.1-stable) date Fri 01 Jul 2016 10:17:29 PM CEST*
%MOMM*%
G01*
G04 APERTURE LIST*
%ADD10C,0.100000*%
%ADD11C,0.127000*%
%ADD12C,0.254000*%
%ADD13C,0.190500*%
%ADD14C,0.150000*%
G04 APERTURE END LIST*
D10*
D11*
X136144000Y-104521000D02*
X136144000Y-102743000D01*
X153071287Y-110092671D02*
X152817287Y-110092671D01*
X152817287Y-110491814D02*
X152817287Y-109729814D01*
X153180144Y-109729814D01*
X153434144Y-110455529D02*
X153543001Y-110491814D01*
X153724430Y-110491814D01*
X153797001Y-110455529D01*
X153833287Y-110419243D01*
X153869572Y-110346671D01*
X153869572Y-110274100D01*
X153833287Y-110201529D01*
X153797001Y-110165243D01*
X153724430Y-110128957D01*
X153579287Y-110092671D01*
X153506715Y-110056386D01*
X153470430Y-110020100D01*
X153434144Y-109947529D01*
X153434144Y-109874957D01*
X153470430Y-109802386D01*
X153506715Y-109766100D01*
X153579287Y-109729814D01*
X153760715Y-109729814D01*
X153869572Y-109766100D01*
X154159858Y-109802386D02*
X154196144Y-109766100D01*
X154268715Y-109729814D01*
X154450144Y-109729814D01*
X154522715Y-109766100D01*
X154559001Y-109802386D01*
X154595286Y-109874957D01*
X154595286Y-109947529D01*
X154559001Y-110056386D01*
X154123572Y-110491814D01*
X154595286Y-110491814D01*
X155067000Y-109729814D02*
X155139572Y-109729814D01*
X155212143Y-109766100D01*
X155248429Y-109802386D01*
X155284715Y-109874957D01*
X155321000Y-110020100D01*
X155321000Y-110201529D01*
X155284715Y-110346671D01*
X155248429Y-110419243D01*
X155212143Y-110455529D01*
X155139572Y-110491814D01*
X155067000Y-110491814D01*
X154994429Y-110455529D01*
X154958143Y-110419243D01*
X154921858Y-110346671D01*
X154885572Y-110201529D01*
X154885572Y-110020100D01*
X154921858Y-109874957D01*
X154958143Y-109802386D01*
X154994429Y-109766100D01*
X155067000Y-109729814D01*
X153180144Y-111649329D02*
X153289001Y-111685614D01*
X153470430Y-111685614D01*
X153543001Y-111649329D01*
X153579287Y-111613043D01*
X153615572Y-111540471D01*
X153615572Y-111467900D01*
X153579287Y-111395329D01*
X153543001Y-111359043D01*
X153470430Y-111322757D01*
X153325287Y-111286471D01*
X153252715Y-111250186D01*
X153216430Y-111213900D01*
X153180144Y-111141329D01*
X153180144Y-111068757D01*
X153216430Y-110996186D01*
X153252715Y-110959900D01*
X153325287Y-110923614D01*
X153506715Y-110923614D01*
X153615572Y-110959900D01*
X153833286Y-110923614D02*
X154268715Y-110923614D01*
X154051001Y-111685614D02*
X154051001Y-110923614D01*
X154921857Y-111685614D02*
X154486429Y-111685614D01*
X154704143Y-111685614D02*
X154704143Y-110923614D01*
X154631572Y-111032471D01*
X154559000Y-111105043D01*
X154486429Y-111141329D01*
X157226000Y-95758000D02*
X159004000Y-95758000D01*
X145875829Y-79694314D02*
X145875829Y-78932314D01*
X146166114Y-78932314D01*
X146238686Y-78968600D01*
X146274971Y-79004886D01*
X146311257Y-79077457D01*
X146311257Y-79186314D01*
X146274971Y-79258886D01*
X146238686Y-79295171D01*
X146166114Y-79331457D01*
X145875829Y-79331457D01*
X146746686Y-79694314D02*
X146674114Y-79658029D01*
X146637829Y-79621743D01*
X146601543Y-79549171D01*
X146601543Y-79331457D01*
X146637829Y-79258886D01*
X146674114Y-79222600D01*
X146746686Y-79186314D01*
X146855543Y-79186314D01*
X146928114Y-79222600D01*
X146964400Y-79258886D01*
X147000686Y-79331457D01*
X147000686Y-79549171D01*
X146964400Y-79621743D01*
X146928114Y-79658029D01*
X146855543Y-79694314D01*
X146746686Y-79694314D01*
X147254686Y-79186314D02*
X147399829Y-79694314D01*
X147544972Y-79331457D01*
X147690115Y-79694314D01*
X147835258Y-79186314D01*
X148415829Y-79658029D02*
X148343258Y-79694314D01*
X148198115Y-79694314D01*
X148125544Y-79658029D01*
X148089258Y-79585457D01*
X148089258Y-79295171D01*
X148125544Y-79222600D01*
X148198115Y-79186314D01*
X148343258Y-79186314D01*
X148415829Y-79222600D01*
X148452115Y-79295171D01*
X148452115Y-79367743D01*
X148089258Y-79440314D01*
X148778687Y-79694314D02*
X148778687Y-79186314D01*
X148778687Y-79331457D02*
X148814972Y-79258886D01*
X148851258Y-79222600D01*
X148923829Y-79186314D01*
X148996401Y-79186314D01*
X138883571Y-69596000D02*
X138811000Y-69559714D01*
X138702143Y-69559714D01*
X138593286Y-69596000D01*
X138520714Y-69668571D01*
X138484429Y-69741143D01*
X138448143Y-69886286D01*
X138448143Y-69995143D01*
X138484429Y-70140286D01*
X138520714Y-70212857D01*
X138593286Y-70285429D01*
X138702143Y-70321714D01*
X138774714Y-70321714D01*
X138883571Y-70285429D01*
X138919857Y-70249143D01*
X138919857Y-69995143D01*
X138774714Y-69995143D01*
X139246429Y-70321714D02*
X139246429Y-69559714D01*
X139681857Y-70321714D01*
X139681857Y-69559714D01*
X140044715Y-70321714D02*
X140044715Y-69559714D01*
X140226143Y-69559714D01*
X140335000Y-69596000D01*
X140407572Y-69668571D01*
X140443857Y-69741143D01*
X140480143Y-69886286D01*
X140480143Y-69995143D01*
X140443857Y-70140286D01*
X140407572Y-70212857D01*
X140335000Y-70285429D01*
X140226143Y-70321714D01*
X140044715Y-70321714D01*
X145727057Y-72937914D02*
X145981057Y-73699914D01*
X146235057Y-72937914D01*
X146489058Y-73699914D02*
X146489058Y-73191914D01*
X146489058Y-72937914D02*
X146452772Y-72974200D01*
X146489058Y-73010486D01*
X146525343Y-72974200D01*
X146489058Y-72937914D01*
X146489058Y-73010486D01*
X146851915Y-73191914D02*
X146851915Y-73699914D01*
X146851915Y-73264486D02*
X146888200Y-73228200D01*
X146960772Y-73191914D01*
X147069629Y-73191914D01*
X147142200Y-73228200D01*
X147178486Y-73300771D01*
X147178486Y-73699914D01*
X156935715Y-111197571D02*
X157044572Y-111233857D01*
X157080857Y-111270143D01*
X157117143Y-111342714D01*
X157117143Y-111451571D01*
X157080857Y-111524143D01*
X157044572Y-111560429D01*
X156972000Y-111596714D01*
X156681715Y-111596714D01*
X156681715Y-110834714D01*
X156935715Y-110834714D01*
X157008286Y-110871000D01*
X157044572Y-110907286D01*
X157080857Y-110979857D01*
X157080857Y-111052429D01*
X157044572Y-111125000D01*
X157008286Y-111161286D01*
X156935715Y-111197571D01*
X156681715Y-111197571D01*
X157770286Y-111596714D02*
X157770286Y-111197571D01*
X157734000Y-111125000D01*
X157661429Y-111088714D01*
X157516286Y-111088714D01*
X157443715Y-111125000D01*
X157770286Y-111560429D02*
X157697715Y-111596714D01*
X157516286Y-111596714D01*
X157443715Y-111560429D01*
X157407429Y-111487857D01*
X157407429Y-111415286D01*
X157443715Y-111342714D01*
X157516286Y-111306429D01*
X157697715Y-111306429D01*
X157770286Y-111270143D01*
X158096858Y-111560429D02*
X158169429Y-111596714D01*
X158314572Y-111596714D01*
X158387144Y-111560429D01*
X158423429Y-111487857D01*
X158423429Y-111451571D01*
X158387144Y-111379000D01*
X158314572Y-111342714D01*
X158205715Y-111342714D01*
X158133144Y-111306429D01*
X158096858Y-111233857D01*
X158096858Y-111197571D01*
X158133144Y-111125000D01*
X158205715Y-111088714D01*
X158314572Y-111088714D01*
X158387144Y-111125000D01*
X159040286Y-111560429D02*
X158967715Y-111596714D01*
X158822572Y-111596714D01*
X158750001Y-111560429D01*
X158713715Y-111487857D01*
X158713715Y-111197571D01*
X158750001Y-111125000D01*
X158822572Y-111088714D01*
X158967715Y-111088714D01*
X159040286Y-111125000D01*
X159076572Y-111197571D01*
X159076572Y-111270143D01*
X158713715Y-111342714D01*
X182607857Y-110326714D02*
X182353857Y-109963857D01*
X182172429Y-110326714D02*
X182172429Y-109564714D01*
X182462714Y-109564714D01*
X182535286Y-109601000D01*
X182571571Y-109637286D01*
X182607857Y-109709857D01*
X182607857Y-109818714D01*
X182571571Y-109891286D01*
X182535286Y-109927571D01*
X182462714Y-109963857D01*
X182172429Y-109963857D01*
X183224714Y-110290429D02*
X183152143Y-110326714D01*
X183007000Y-110326714D01*
X182934429Y-110290429D01*
X182898143Y-110217857D01*
X182898143Y-109927571D01*
X182934429Y-109855000D01*
X183007000Y-109818714D01*
X183152143Y-109818714D01*
X183224714Y-109855000D01*
X183261000Y-109927571D01*
X183261000Y-110000143D01*
X182898143Y-110072714D01*
X183696429Y-110326714D02*
X183623857Y-110290429D01*
X183587572Y-110217857D01*
X183587572Y-109564714D01*
X184313286Y-110326714D02*
X184313286Y-109927571D01*
X184277000Y-109855000D01*
X184204429Y-109818714D01*
X184059286Y-109818714D01*
X183986715Y-109855000D01*
X184313286Y-110290429D02*
X184240715Y-110326714D01*
X184059286Y-110326714D01*
X183986715Y-110290429D01*
X183950429Y-110217857D01*
X183950429Y-110145286D01*
X183986715Y-110072714D01*
X184059286Y-110036429D01*
X184240715Y-110036429D01*
X184313286Y-110000143D01*
X184603572Y-109818714D02*
X184785001Y-110326714D01*
X184966429Y-109818714D02*
X184785001Y-110326714D01*
X184712429Y-110508143D01*
X184676144Y-110544429D01*
X184603572Y-110580714D01*
X174189571Y-109437714D02*
X174625000Y-109437714D01*
X174407286Y-110199714D02*
X174407286Y-109437714D01*
X174879000Y-110199714D02*
X174879000Y-109691714D01*
X174879000Y-109836857D02*
X174915285Y-109764286D01*
X174951571Y-109728000D01*
X175024142Y-109691714D01*
X175096714Y-109691714D01*
X175350714Y-110199714D02*
X175350714Y-109691714D01*
X175350714Y-109437714D02*
X175314428Y-109474000D01*
X175350714Y-109510286D01*
X175386999Y-109474000D01*
X175350714Y-109437714D01*
X175350714Y-109510286D01*
X176040142Y-109691714D02*
X176040142Y-110308571D01*
X176003856Y-110381143D01*
X175967571Y-110417429D01*
X175894999Y-110453714D01*
X175786142Y-110453714D01*
X175713571Y-110417429D01*
X176040142Y-110163429D02*
X175967571Y-110199714D01*
X175822428Y-110199714D01*
X175749856Y-110163429D01*
X175713571Y-110127143D01*
X175677285Y-110054571D01*
X175677285Y-109836857D01*
X175713571Y-109764286D01*
X175749856Y-109728000D01*
X175822428Y-109691714D01*
X175967571Y-109691714D01*
X176040142Y-109728000D01*
X176729571Y-109691714D02*
X176729571Y-110308571D01*
X176693285Y-110381143D01*
X176657000Y-110417429D01*
X176584428Y-110453714D01*
X176475571Y-110453714D01*
X176403000Y-110417429D01*
X176729571Y-110163429D02*
X176657000Y-110199714D01*
X176511857Y-110199714D01*
X176439285Y-110163429D01*
X176403000Y-110127143D01*
X176366714Y-110054571D01*
X176366714Y-109836857D01*
X176403000Y-109764286D01*
X176439285Y-109728000D01*
X176511857Y-109691714D01*
X176657000Y-109691714D01*
X176729571Y-109728000D01*
X177382714Y-110163429D02*
X177310143Y-110199714D01*
X177165000Y-110199714D01*
X177092429Y-110163429D01*
X177056143Y-110090857D01*
X177056143Y-109800571D01*
X177092429Y-109728000D01*
X177165000Y-109691714D01*
X177310143Y-109691714D01*
X177382714Y-109728000D01*
X177419000Y-109800571D01*
X177419000Y-109873143D01*
X177056143Y-109945714D01*
X177745572Y-110199714D02*
X177745572Y-109691714D01*
X177745572Y-109836857D02*
X177781857Y-109764286D01*
X177818143Y-109728000D01*
X177890714Y-109691714D01*
X177963286Y-109691714D01*
X149003656Y-72988714D02*
X149257656Y-73750714D01*
X149511656Y-72988714D01*
X149874514Y-73750714D02*
X149801942Y-73714429D01*
X149765657Y-73678143D01*
X149729371Y-73605571D01*
X149729371Y-73387857D01*
X149765657Y-73315286D01*
X149801942Y-73279000D01*
X149874514Y-73242714D01*
X149983371Y-73242714D01*
X150055942Y-73279000D01*
X150092228Y-73315286D01*
X150128514Y-73387857D01*
X150128514Y-73605571D01*
X150092228Y-73678143D01*
X150055942Y-73714429D01*
X149983371Y-73750714D01*
X149874514Y-73750714D01*
X150781657Y-73242714D02*
X150781657Y-73750714D01*
X150455086Y-73242714D02*
X150455086Y-73641857D01*
X150491371Y-73714429D01*
X150563943Y-73750714D01*
X150672800Y-73750714D01*
X150745371Y-73714429D01*
X150781657Y-73678143D01*
X151035657Y-73242714D02*
X151325943Y-73242714D01*
X151144515Y-72988714D02*
X151144515Y-73641857D01*
X151180800Y-73714429D01*
X151253372Y-73750714D01*
X151325943Y-73750714D01*
D12*
X191262000Y-74984429D02*
X191262000Y-75347286D01*
X190899143Y-75202143D02*
X191262000Y-75347286D01*
X191624858Y-75202143D01*
X191044286Y-75637571D02*
X191262000Y-75347286D01*
X191479715Y-75637571D01*
X177927000Y-104575429D02*
X177927000Y-104938286D01*
X177564143Y-104793143D02*
X177927000Y-104938286D01*
X178289858Y-104793143D01*
X177709286Y-105228571D02*
X177927000Y-104938286D01*
X178144715Y-105228571D01*
X163757429Y-71228857D02*
X164918572Y-71228857D01*
X164338001Y-71809429D02*
X164338001Y-70648286D01*
X159744229Y-78188457D02*
X160905372Y-78188457D01*
X160324801Y-78769029D02*
X160324801Y-77607886D01*
D11*
X133310086Y-85743143D02*
X134072086Y-85743143D01*
X133818086Y-86106000D02*
X133310086Y-86106000D01*
X133745514Y-86106000D02*
X133781800Y-86142285D01*
X133818086Y-86214857D01*
X133818086Y-86323714D01*
X133781800Y-86396285D01*
X133709229Y-86432571D01*
X133310086Y-86432571D01*
X133818086Y-86795429D02*
X133056086Y-86795429D01*
X133781800Y-86795429D02*
X133818086Y-86868000D01*
X133818086Y-87013143D01*
X133781800Y-87085714D01*
X133745514Y-87122000D01*
X133672943Y-87158286D01*
X133455229Y-87158286D01*
X133382657Y-87122000D01*
X133346371Y-87085714D01*
X133310086Y-87013143D01*
X133310086Y-86868000D01*
X133346371Y-86795429D01*
X133818086Y-87811429D02*
X133310086Y-87811429D01*
X133818086Y-87484858D02*
X133418943Y-87484858D01*
X133346371Y-87521143D01*
X133310086Y-87593715D01*
X133310086Y-87702572D01*
X133346371Y-87775143D01*
X133382657Y-87811429D01*
X133818086Y-88065429D02*
X133818086Y-88355715D01*
X134072086Y-88174287D02*
X133418943Y-88174287D01*
X133346371Y-88210572D01*
X133310086Y-88283144D01*
X133310086Y-88355715D01*
X132878286Y-85362144D02*
X132878286Y-84999287D01*
X132515429Y-84963001D01*
X132551714Y-84999287D01*
X132588000Y-85071858D01*
X132588000Y-85253287D01*
X132551714Y-85325858D01*
X132515429Y-85362144D01*
X132442857Y-85398429D01*
X132261429Y-85398429D01*
X132188857Y-85362144D01*
X132152571Y-85325858D01*
X132116286Y-85253287D01*
X132116286Y-85071858D01*
X132152571Y-84999287D01*
X132188857Y-84963001D01*
X132406571Y-85725001D02*
X132406571Y-86305572D01*
X132116286Y-87067572D02*
X132116286Y-86632144D01*
X132116286Y-86849858D02*
X132878286Y-86849858D01*
X132769429Y-86777287D01*
X132696857Y-86704715D01*
X132660571Y-86632144D01*
X132805714Y-87357858D02*
X132842000Y-87394144D01*
X132878286Y-87466715D01*
X132878286Y-87648144D01*
X132842000Y-87720715D01*
X132805714Y-87757001D01*
X132733143Y-87793286D01*
X132660571Y-87793286D01*
X132551714Y-87757001D01*
X132116286Y-87321572D01*
X132116286Y-87793286D01*
X132878286Y-88011000D02*
X132116286Y-88265000D01*
X132878286Y-88519000D01*
X131140200Y-85670572D02*
X131140200Y-86033429D01*
X130922486Y-85598000D02*
X131684486Y-85852000D01*
X130922486Y-86106000D01*
X130995057Y-86795429D02*
X130958771Y-86759143D01*
X130922486Y-86650286D01*
X130922486Y-86577715D01*
X130958771Y-86468858D01*
X131031343Y-86396286D01*
X131103914Y-86360001D01*
X131249057Y-86323715D01*
X131357914Y-86323715D01*
X131503057Y-86360001D01*
X131575629Y-86396286D01*
X131648200Y-86468858D01*
X131684486Y-86577715D01*
X131684486Y-86650286D01*
X131648200Y-86759143D01*
X131611914Y-86795429D01*
X130922486Y-87122001D02*
X131684486Y-87122001D01*
X131684486Y-87303429D01*
X131648200Y-87412286D01*
X131575629Y-87484858D01*
X131503057Y-87521143D01*
X131357914Y-87557429D01*
X131249057Y-87557429D01*
X131103914Y-87521143D01*
X131031343Y-87484858D01*
X130958771Y-87412286D01*
X130922486Y-87303429D01*
X130922486Y-87122001D01*
X130995057Y-88319429D02*
X130958771Y-88283143D01*
X130922486Y-88174286D01*
X130922486Y-88101715D01*
X130958771Y-87992858D01*
X131031343Y-87920286D01*
X131103914Y-87884001D01*
X131249057Y-87847715D01*
X131357914Y-87847715D01*
X131503057Y-87884001D01*
X131575629Y-87920286D01*
X131648200Y-87992858D01*
X131684486Y-88101715D01*
X131684486Y-88174286D01*
X131648200Y-88283143D01*
X131611914Y-88319429D01*
X133221186Y-90750572D02*
X133983186Y-90750572D01*
X133983186Y-91040857D01*
X133946900Y-91113429D01*
X133910614Y-91149714D01*
X133838043Y-91186000D01*
X133729186Y-91186000D01*
X133656614Y-91149714D01*
X133620329Y-91113429D01*
X133584043Y-91040857D01*
X133584043Y-90750572D01*
X133729186Y-91839143D02*
X133221186Y-91839143D01*
X133729186Y-91512572D02*
X133330043Y-91512572D01*
X133257471Y-91548857D01*
X133221186Y-91621429D01*
X133221186Y-91730286D01*
X133257471Y-91802857D01*
X133293757Y-91839143D01*
X133257471Y-92165715D02*
X133221186Y-92238286D01*
X133221186Y-92383429D01*
X133257471Y-92456001D01*
X133330043Y-92492286D01*
X133366329Y-92492286D01*
X133438900Y-92456001D01*
X133475186Y-92383429D01*
X133475186Y-92274572D01*
X133511471Y-92202001D01*
X133584043Y-92165715D01*
X133620329Y-92165715D01*
X133692900Y-92202001D01*
X133729186Y-92274572D01*
X133729186Y-92383429D01*
X133692900Y-92456001D01*
X133221186Y-92818858D02*
X133983186Y-92818858D01*
X133221186Y-93145429D02*
X133620329Y-93145429D01*
X133692900Y-93109143D01*
X133729186Y-93036572D01*
X133729186Y-92927715D01*
X133692900Y-92855143D01*
X133656614Y-92818858D01*
X132426529Y-90532857D02*
X132390243Y-90641714D01*
X132353957Y-90677999D01*
X132281386Y-90714285D01*
X132172529Y-90714285D01*
X132099957Y-90677999D01*
X132063671Y-90641714D01*
X132027386Y-90569142D01*
X132027386Y-90278857D01*
X132789386Y-90278857D01*
X132789386Y-90532857D01*
X132753100Y-90605428D01*
X132716814Y-90641714D01*
X132644243Y-90677999D01*
X132571671Y-90677999D01*
X132499100Y-90641714D01*
X132462814Y-90605428D01*
X132426529Y-90532857D01*
X132426529Y-90278857D01*
X132535386Y-91367428D02*
X132027386Y-91367428D01*
X132535386Y-91040857D02*
X132136243Y-91040857D01*
X132063671Y-91077142D01*
X132027386Y-91149714D01*
X132027386Y-91258571D01*
X132063671Y-91331142D01*
X132099957Y-91367428D01*
X132535386Y-91621428D02*
X132535386Y-91911714D01*
X132789386Y-91730286D02*
X132136243Y-91730286D01*
X132063671Y-91766571D01*
X132027386Y-91839143D01*
X132027386Y-91911714D01*
X132535386Y-92056857D02*
X132535386Y-92347143D01*
X132789386Y-92165715D02*
X132136243Y-92165715D01*
X132063671Y-92202000D01*
X132027386Y-92274572D01*
X132027386Y-92347143D01*
X132027386Y-92710001D02*
X132063671Y-92637429D01*
X132099957Y-92601144D01*
X132172529Y-92564858D01*
X132390243Y-92564858D01*
X132462814Y-92601144D01*
X132499100Y-92637429D01*
X132535386Y-92710001D01*
X132535386Y-92818858D01*
X132499100Y-92891429D01*
X132462814Y-92927715D01*
X132390243Y-92964001D01*
X132172529Y-92964001D01*
X132099957Y-92927715D01*
X132063671Y-92891429D01*
X132027386Y-92818858D01*
X132027386Y-92710001D01*
X132535386Y-93290573D02*
X132027386Y-93290573D01*
X132462814Y-93290573D02*
X132499100Y-93326858D01*
X132535386Y-93399430D01*
X132535386Y-93508287D01*
X132499100Y-93580858D01*
X132426529Y-93617144D01*
X132027386Y-93617144D01*
X133731000Y-96447428D02*
X133767286Y-96374857D01*
X133767286Y-96266000D01*
X133731000Y-96157143D01*
X133658429Y-96084571D01*
X133585857Y-96048286D01*
X133440714Y-96012000D01*
X133331857Y-96012000D01*
X133186714Y-96048286D01*
X133114143Y-96084571D01*
X133041571Y-96157143D01*
X133005286Y-96266000D01*
X133005286Y-96338571D01*
X133041571Y-96447428D01*
X133077857Y-96483714D01*
X133331857Y-96483714D01*
X133331857Y-96338571D01*
X133005286Y-96810286D02*
X133767286Y-96810286D01*
X133005286Y-97245714D01*
X133767286Y-97245714D01*
X133005286Y-97608572D02*
X133767286Y-97608572D01*
X133767286Y-97790000D01*
X133731000Y-97898857D01*
X133658429Y-97971429D01*
X133585857Y-98007714D01*
X133440714Y-98044000D01*
X133331857Y-98044000D01*
X133186714Y-98007714D01*
X133114143Y-97971429D01*
X133041571Y-97898857D01*
X133005286Y-97790000D01*
X133005286Y-97608572D01*
X145650856Y-89498714D02*
X145795999Y-89498714D01*
X145868571Y-89535000D01*
X145941142Y-89607571D01*
X145977428Y-89752714D01*
X145977428Y-90006714D01*
X145941142Y-90151857D01*
X145868571Y-90224429D01*
X145795999Y-90260714D01*
X145650856Y-90260714D01*
X145578285Y-90224429D01*
X145505714Y-90151857D01*
X145469428Y-90006714D01*
X145469428Y-89752714D01*
X145505714Y-89607571D01*
X145578285Y-89535000D01*
X145650856Y-89498714D01*
X146304000Y-89752714D02*
X146304000Y-90514714D01*
X146304000Y-89789000D02*
X146376571Y-89752714D01*
X146521714Y-89752714D01*
X146594285Y-89789000D01*
X146630571Y-89825286D01*
X146666857Y-89897857D01*
X146666857Y-90115571D01*
X146630571Y-90188143D01*
X146594285Y-90224429D01*
X146521714Y-90260714D01*
X146376571Y-90260714D01*
X146304000Y-90224429D01*
X146884571Y-89752714D02*
X147174857Y-89752714D01*
X146993429Y-89498714D02*
X146993429Y-90151857D01*
X147029714Y-90224429D01*
X147102286Y-90260714D01*
X147174857Y-90260714D01*
X147428858Y-90260714D02*
X147428858Y-89752714D01*
X147428858Y-89498714D02*
X147392572Y-89535000D01*
X147428858Y-89571286D01*
X147465143Y-89535000D01*
X147428858Y-89498714D01*
X147428858Y-89571286D01*
X147900572Y-90260714D02*
X147828000Y-90224429D01*
X147791715Y-90188143D01*
X147755429Y-90115571D01*
X147755429Y-89897857D01*
X147791715Y-89825286D01*
X147828000Y-89789000D01*
X147900572Y-89752714D01*
X148009429Y-89752714D01*
X148082000Y-89789000D01*
X148118286Y-89825286D01*
X148154572Y-89897857D01*
X148154572Y-90115571D01*
X148118286Y-90188143D01*
X148082000Y-90224429D01*
X148009429Y-90260714D01*
X147900572Y-90260714D01*
X148481144Y-89752714D02*
X148481144Y-90260714D01*
X148481144Y-89825286D02*
X148517429Y-89789000D01*
X148590001Y-89752714D01*
X148698858Y-89752714D01*
X148771429Y-89789000D01*
X148807715Y-89861571D01*
X148807715Y-90260714D01*
X149497144Y-90260714D02*
X149497144Y-89861571D01*
X149460858Y-89789000D01*
X149388287Y-89752714D01*
X149243144Y-89752714D01*
X149170573Y-89789000D01*
X149497144Y-90224429D02*
X149424573Y-90260714D01*
X149243144Y-90260714D01*
X149170573Y-90224429D01*
X149134287Y-90151857D01*
X149134287Y-90079286D01*
X149170573Y-90006714D01*
X149243144Y-89970429D01*
X149424573Y-89970429D01*
X149497144Y-89934143D01*
X149968859Y-90260714D02*
X149896287Y-90224429D01*
X149860002Y-90151857D01*
X149860002Y-89498714D01*
X150241000Y-89281000D02*
X142494000Y-89281000D01*
X150241000Y-98679000D02*
X150241000Y-89281000D01*
X142494000Y-98679000D02*
X150241000Y-98679000D01*
X142494000Y-89281000D02*
X142494000Y-98679000D01*
X169278905Y-113071729D02*
X169617571Y-113071729D01*
X169762714Y-113603919D02*
X169278905Y-113603919D01*
X169278905Y-112587919D01*
X169762714Y-112587919D01*
X170536809Y-113071729D02*
X170681952Y-113120110D01*
X170730333Y-113168490D01*
X170778714Y-113265252D01*
X170778714Y-113410395D01*
X170730333Y-113507157D01*
X170681952Y-113555538D01*
X170585190Y-113603919D01*
X170198143Y-113603919D01*
X170198143Y-112587919D01*
X170536809Y-112587919D01*
X170633571Y-112636300D01*
X170681952Y-112684681D01*
X170730333Y-112781443D01*
X170730333Y-112878205D01*
X170681952Y-112974967D01*
X170633571Y-113023348D01*
X170536809Y-113071729D01*
X170198143Y-113071729D01*
X171165762Y-113555538D02*
X171310905Y-113603919D01*
X171552809Y-113603919D01*
X171649571Y-113555538D01*
X171697952Y-113507157D01*
X171746333Y-113410395D01*
X171746333Y-113313633D01*
X171697952Y-113216871D01*
X171649571Y-113168490D01*
X171552809Y-113120110D01*
X171359286Y-113071729D01*
X171262524Y-113023348D01*
X171214143Y-112974967D01*
X171165762Y-112878205D01*
X171165762Y-112781443D01*
X171214143Y-112684681D01*
X171262524Y-112636300D01*
X171359286Y-112587919D01*
X171601190Y-112587919D01*
X171746333Y-112636300D01*
X172955857Y-113603919D02*
X172955857Y-112587919D01*
X173197762Y-112587919D01*
X173342904Y-112636300D01*
X173439666Y-112733062D01*
X173488047Y-112829824D01*
X173536428Y-113023348D01*
X173536428Y-113168490D01*
X173488047Y-113362014D01*
X173439666Y-113458776D01*
X173342904Y-113555538D01*
X173197762Y-113603919D01*
X172955857Y-113603919D01*
X174117000Y-113603919D02*
X174020238Y-113555538D01*
X173971857Y-113507157D01*
X173923476Y-113410395D01*
X173923476Y-113120110D01*
X173971857Y-113023348D01*
X174020238Y-112974967D01*
X174117000Y-112926586D01*
X174262142Y-112926586D01*
X174358904Y-112974967D01*
X174407285Y-113023348D01*
X174455666Y-113120110D01*
X174455666Y-113410395D01*
X174407285Y-113507157D01*
X174358904Y-113555538D01*
X174262142Y-113603919D01*
X174117000Y-113603919D01*
X175036238Y-113603919D02*
X174939476Y-113555538D01*
X174891095Y-113507157D01*
X174842714Y-113410395D01*
X174842714Y-113120110D01*
X174891095Y-113023348D01*
X174939476Y-112974967D01*
X175036238Y-112926586D01*
X175181380Y-112926586D01*
X175278142Y-112974967D01*
X175326523Y-113023348D01*
X175374904Y-113120110D01*
X175374904Y-113410395D01*
X175326523Y-113507157D01*
X175278142Y-113555538D01*
X175181380Y-113603919D01*
X175036238Y-113603919D01*
X175810333Y-113603919D02*
X175810333Y-112926586D01*
X175810333Y-113120110D02*
X175858714Y-113023348D01*
X175907095Y-112974967D01*
X176003857Y-112926586D01*
X176100618Y-112926586D01*
X176439285Y-113603919D02*
X176439285Y-112587919D01*
X176439285Y-112974967D02*
X176536047Y-112926586D01*
X176729570Y-112926586D01*
X176826332Y-112974967D01*
X176874713Y-113023348D01*
X176923094Y-113120110D01*
X176923094Y-113410395D01*
X176874713Y-113507157D01*
X176826332Y-113555538D01*
X176729570Y-113603919D01*
X176536047Y-113603919D01*
X176439285Y-113555538D01*
X177745570Y-113555538D02*
X177648808Y-113603919D01*
X177455285Y-113603919D01*
X177358523Y-113555538D01*
X177310142Y-113458776D01*
X177310142Y-113071729D01*
X177358523Y-112974967D01*
X177455285Y-112926586D01*
X177648808Y-112926586D01*
X177745570Y-112974967D01*
X177793951Y-113071729D01*
X177793951Y-113168490D01*
X177310142Y-113265252D01*
X178374523Y-113603919D02*
X178277761Y-113555538D01*
X178229380Y-113458776D01*
X178229380Y-112587919D01*
X178906713Y-113603919D02*
X178809951Y-113555538D01*
X178761570Y-113458776D01*
X178761570Y-112587919D01*
X180067855Y-113071729D02*
X180406521Y-113071729D01*
X180551664Y-113603919D02*
X180067855Y-113603919D01*
X180067855Y-112587919D01*
X180551664Y-112587919D01*
X180890331Y-113603919D02*
X181422521Y-112926586D01*
X180890331Y-112926586D02*
X181422521Y-113603919D01*
X181664426Y-112926586D02*
X182051474Y-112926586D01*
X181809569Y-112587919D02*
X181809569Y-113458776D01*
X181857950Y-113555538D01*
X181954712Y-113603919D01*
X182051474Y-113603919D01*
X182777187Y-113555538D02*
X182680425Y-113603919D01*
X182486902Y-113603919D01*
X182390140Y-113555538D01*
X182341759Y-113458776D01*
X182341759Y-113071729D01*
X182390140Y-112974967D01*
X182486902Y-112926586D01*
X182680425Y-112926586D01*
X182777187Y-112974967D01*
X182825568Y-113071729D01*
X182825568Y-113168490D01*
X182341759Y-113265252D01*
X183260997Y-112926586D02*
X183260997Y-113603919D01*
X183260997Y-113023348D02*
X183309378Y-112974967D01*
X183406140Y-112926586D01*
X183551282Y-112926586D01*
X183648044Y-112974967D01*
X183696425Y-113071729D01*
X183696425Y-113603919D01*
X184131854Y-113555538D02*
X184228616Y-113603919D01*
X184422140Y-113603919D01*
X184518901Y-113555538D01*
X184567282Y-113458776D01*
X184567282Y-113410395D01*
X184518901Y-113313633D01*
X184422140Y-113265252D01*
X184276997Y-113265252D01*
X184180235Y-113216871D01*
X184131854Y-113120110D01*
X184131854Y-113071729D01*
X184180235Y-112974967D01*
X184276997Y-112926586D01*
X184422140Y-112926586D01*
X184518901Y-112974967D01*
X185002711Y-113603919D02*
X185002711Y-112926586D01*
X185002711Y-112587919D02*
X184954330Y-112636300D01*
X185002711Y-112684681D01*
X185051092Y-112636300D01*
X185002711Y-112587919D01*
X185002711Y-112684681D01*
X185631664Y-113603919D02*
X185534902Y-113555538D01*
X185486521Y-113507157D01*
X185438140Y-113410395D01*
X185438140Y-113120110D01*
X185486521Y-113023348D01*
X185534902Y-112974967D01*
X185631664Y-112926586D01*
X185776806Y-112926586D01*
X185873568Y-112974967D01*
X185921949Y-113023348D01*
X185970330Y-113120110D01*
X185970330Y-113410395D01*
X185921949Y-113507157D01*
X185873568Y-113555538D01*
X185776806Y-113603919D01*
X185631664Y-113603919D01*
X186405759Y-112926586D02*
X186405759Y-113603919D01*
X186405759Y-113023348D02*
X186454140Y-112974967D01*
X186550902Y-112926586D01*
X186696044Y-112926586D01*
X186792806Y-112974967D01*
X186841187Y-113071729D01*
X186841187Y-113603919D01*
X169859476Y-115153319D02*
X169520810Y-114669510D01*
X169278905Y-115153319D02*
X169278905Y-114137319D01*
X169665952Y-114137319D01*
X169762714Y-114185700D01*
X169811095Y-114234081D01*
X169859476Y-114330843D01*
X169859476Y-114475986D01*
X169811095Y-114572748D01*
X169762714Y-114621129D01*
X169665952Y-114669510D01*
X169278905Y-114669510D01*
X170294905Y-114621129D02*
X170633571Y-114621129D01*
X170778714Y-115153319D02*
X170294905Y-115153319D01*
X170294905Y-114137319D01*
X170778714Y-114137319D01*
X171069000Y-114137319D02*
X171407667Y-115153319D01*
X171746333Y-114137319D01*
X172810714Y-114234081D02*
X172859095Y-114185700D01*
X172955857Y-114137319D01*
X173197761Y-114137319D01*
X173294523Y-114185700D01*
X173342904Y-114234081D01*
X173391285Y-114330843D01*
X173391285Y-114427605D01*
X173342904Y-114572748D01*
X172762333Y-115153319D01*
X173391285Y-115153319D01*
X174310523Y-115153319D02*
X173826714Y-115153319D01*
X173826714Y-114137319D01*
X174407285Y-115250081D02*
X175181380Y-115250081D01*
X175374904Y-114234081D02*
X175423285Y-114185700D01*
X175520047Y-114137319D01*
X175761951Y-114137319D01*
X175858713Y-114185700D01*
X175907094Y-114234081D01*
X175955475Y-114330843D01*
X175955475Y-114427605D01*
X175907094Y-114572748D01*
X175326523Y-115153319D01*
X175955475Y-115153319D01*
X176390904Y-115056557D02*
X176439285Y-115104938D01*
X176390904Y-115153319D01*
X176342523Y-115104938D01*
X176390904Y-115056557D01*
X176390904Y-115153319D01*
X177068238Y-114137319D02*
X177164999Y-114137319D01*
X177261761Y-114185700D01*
X177310142Y-114234081D01*
X177358523Y-114330843D01*
X177406904Y-114524367D01*
X177406904Y-114766271D01*
X177358523Y-114959795D01*
X177310142Y-115056557D01*
X177261761Y-115104938D01*
X177164999Y-115153319D01*
X177068238Y-115153319D01*
X176971476Y-115104938D01*
X176923095Y-115056557D01*
X176874714Y-114959795D01*
X176826333Y-114766271D01*
X176826333Y-114524367D01*
X176874714Y-114330843D01*
X176923095Y-114234081D01*
X176971476Y-114185700D01*
X177068238Y-114137319D01*
X189175571Y-81370714D02*
X189611000Y-81370714D01*
X189393286Y-82132714D02*
X189393286Y-81370714D01*
X190155285Y-82096429D02*
X190082714Y-82132714D01*
X189937571Y-82132714D01*
X189865000Y-82096429D01*
X189828714Y-82023857D01*
X189828714Y-81733571D01*
X189865000Y-81661000D01*
X189937571Y-81624714D01*
X190082714Y-81624714D01*
X190155285Y-81661000D01*
X190191571Y-81733571D01*
X190191571Y-81806143D01*
X189828714Y-81878714D01*
X190481857Y-82096429D02*
X190554428Y-82132714D01*
X190699571Y-82132714D01*
X190772143Y-82096429D01*
X190808428Y-82023857D01*
X190808428Y-81987571D01*
X190772143Y-81915000D01*
X190699571Y-81878714D01*
X190590714Y-81878714D01*
X190518143Y-81842429D01*
X190481857Y-81769857D01*
X190481857Y-81733571D01*
X190518143Y-81661000D01*
X190590714Y-81624714D01*
X190699571Y-81624714D01*
X190772143Y-81661000D01*
X191026142Y-81624714D02*
X191316428Y-81624714D01*
X191135000Y-81370714D02*
X191135000Y-82023857D01*
X191171285Y-82096429D01*
X191243857Y-82132714D01*
X191316428Y-82132714D01*
X186472287Y-100440671D02*
X186218287Y-100440671D01*
X186218287Y-100839814D02*
X186218287Y-100077814D01*
X186581144Y-100077814D01*
X186835144Y-100803529D02*
X186944001Y-100839814D01*
X187125430Y-100839814D01*
X187198001Y-100803529D01*
X187234287Y-100767243D01*
X187270572Y-100694671D01*
X187270572Y-100622100D01*
X187234287Y-100549529D01*
X187198001Y-100513243D01*
X187125430Y-100476957D01*
X186980287Y-100440671D01*
X186907715Y-100404386D01*
X186871430Y-100368100D01*
X186835144Y-100295529D01*
X186835144Y-100222957D01*
X186871430Y-100150386D01*
X186907715Y-100114100D01*
X186980287Y-100077814D01*
X187161715Y-100077814D01*
X187270572Y-100114100D01*
X187560858Y-100150386D02*
X187597144Y-100114100D01*
X187669715Y-100077814D01*
X187851144Y-100077814D01*
X187923715Y-100114100D01*
X187960001Y-100150386D01*
X187996286Y-100222957D01*
X187996286Y-100295529D01*
X187960001Y-100404386D01*
X187524572Y-100839814D01*
X187996286Y-100839814D01*
X188468000Y-100077814D02*
X188540572Y-100077814D01*
X188613143Y-100114100D01*
X188649429Y-100150386D01*
X188685715Y-100222957D01*
X188722000Y-100368100D01*
X188722000Y-100549529D01*
X188685715Y-100694671D01*
X188649429Y-100767243D01*
X188613143Y-100803529D01*
X188540572Y-100839814D01*
X188468000Y-100839814D01*
X188395429Y-100803529D01*
X188359143Y-100767243D01*
X188322858Y-100694671D01*
X188286572Y-100549529D01*
X188286572Y-100368100D01*
X188322858Y-100222957D01*
X188359143Y-100150386D01*
X188395429Y-100114100D01*
X188468000Y-100077814D01*
X185819143Y-101997329D02*
X185928000Y-102033614D01*
X186109429Y-102033614D01*
X186182000Y-101997329D01*
X186218286Y-101961043D01*
X186254571Y-101888471D01*
X186254571Y-101815900D01*
X186218286Y-101743329D01*
X186182000Y-101707043D01*
X186109429Y-101670757D01*
X185964286Y-101634471D01*
X185891714Y-101598186D01*
X185855429Y-101561900D01*
X185819143Y-101489329D01*
X185819143Y-101416757D01*
X185855429Y-101344186D01*
X185891714Y-101307900D01*
X185964286Y-101271614D01*
X186145714Y-101271614D01*
X186254571Y-101307900D01*
X186581143Y-102033614D02*
X186581143Y-101525614D01*
X186581143Y-101271614D02*
X186544857Y-101307900D01*
X186581143Y-101344186D01*
X186617428Y-101307900D01*
X186581143Y-101271614D01*
X186581143Y-101344186D01*
X187270571Y-101525614D02*
X187270571Y-102142471D01*
X187234285Y-102215043D01*
X187198000Y-102251329D01*
X187125428Y-102287614D01*
X187016571Y-102287614D01*
X186944000Y-102251329D01*
X187270571Y-101997329D02*
X187198000Y-102033614D01*
X187052857Y-102033614D01*
X186980285Y-101997329D01*
X186944000Y-101961043D01*
X186907714Y-101888471D01*
X186907714Y-101670757D01*
X186944000Y-101598186D01*
X186980285Y-101561900D01*
X187052857Y-101525614D01*
X187198000Y-101525614D01*
X187270571Y-101561900D01*
X187633429Y-101525614D02*
X187633429Y-102033614D01*
X187633429Y-101598186D02*
X187669714Y-101561900D01*
X187742286Y-101525614D01*
X187851143Y-101525614D01*
X187923714Y-101561900D01*
X187960000Y-101634471D01*
X187960000Y-102033614D01*
X188649429Y-102033614D02*
X188649429Y-101634471D01*
X188613143Y-101561900D01*
X188540572Y-101525614D01*
X188395429Y-101525614D01*
X188322858Y-101561900D01*
X188649429Y-101997329D02*
X188576858Y-102033614D01*
X188395429Y-102033614D01*
X188322858Y-101997329D01*
X188286572Y-101924757D01*
X188286572Y-101852186D01*
X188322858Y-101779614D01*
X188395429Y-101743329D01*
X188576858Y-101743329D01*
X188649429Y-101707043D01*
X189121144Y-102033614D02*
X189048572Y-101997329D01*
X189012287Y-101924757D01*
X189012287Y-101271614D01*
D12*
X166932429Y-94469857D02*
X168093572Y-94469857D01*
X167513001Y-95050429D02*
X167513001Y-93889286D01*
X175187429Y-77832857D02*
X176348572Y-77832857D01*
X175768001Y-78413429D02*
X175768001Y-77252286D01*
D13*
X149696714Y-95504000D02*
X148608143Y-95504000D01*
X193421000Y-107786714D02*
X193421000Y-106698143D01*
X193421000Y-101690714D02*
X193421000Y-100602143D01*
D11*
X185946143Y-107532714D02*
X185946143Y-106770714D01*
X186236428Y-106770714D01*
X186309000Y-106807000D01*
X186345285Y-106843286D01*
X186381571Y-106915857D01*
X186381571Y-107024714D01*
X186345285Y-107097286D01*
X186309000Y-107133571D01*
X186236428Y-107169857D01*
X185946143Y-107169857D01*
X186817000Y-107532714D02*
X186744428Y-107496429D01*
X186708143Y-107460143D01*
X186671857Y-107387571D01*
X186671857Y-107169857D01*
X186708143Y-107097286D01*
X186744428Y-107061000D01*
X186817000Y-107024714D01*
X186925857Y-107024714D01*
X186998428Y-107061000D01*
X187034714Y-107097286D01*
X187071000Y-107169857D01*
X187071000Y-107387571D01*
X187034714Y-107460143D01*
X186998428Y-107496429D01*
X186925857Y-107532714D01*
X186817000Y-107532714D01*
X187325000Y-107024714D02*
X187470143Y-107532714D01*
X187615286Y-107169857D01*
X187760429Y-107532714D01*
X187905572Y-107024714D01*
X188486143Y-107496429D02*
X188413572Y-107532714D01*
X188268429Y-107532714D01*
X188195858Y-107496429D01*
X188159572Y-107423857D01*
X188159572Y-107133571D01*
X188195858Y-107061000D01*
X188268429Y-107024714D01*
X188413572Y-107024714D01*
X188486143Y-107061000D01*
X188522429Y-107133571D01*
X188522429Y-107206143D01*
X188159572Y-107278714D01*
X188849001Y-107532714D02*
X188849001Y-107024714D01*
X188849001Y-107169857D02*
X188885286Y-107097286D01*
X188921572Y-107061000D01*
X188994143Y-107024714D01*
X189066715Y-107024714D01*
X146231429Y-77814714D02*
X146231429Y-77052714D01*
X146521714Y-77052714D01*
X146594286Y-77089000D01*
X146630571Y-77125286D01*
X146666857Y-77197857D01*
X146666857Y-77306714D01*
X146630571Y-77379286D01*
X146594286Y-77415571D01*
X146521714Y-77451857D01*
X146231429Y-77451857D01*
X146920857Y-77306714D02*
X147066000Y-77814714D01*
X147211143Y-77451857D01*
X147356286Y-77814714D01*
X147501429Y-77306714D01*
X147791715Y-77814714D02*
X147791715Y-77306714D01*
X147791715Y-77451857D02*
X147828000Y-77379286D01*
X147864286Y-77343000D01*
X147936857Y-77306714D01*
X148009429Y-77306714D01*
X133475186Y-77488143D02*
X134237186Y-77488143D01*
X133983186Y-77851000D02*
X133475186Y-77851000D01*
X133910614Y-77851000D02*
X133946900Y-77887285D01*
X133983186Y-77959857D01*
X133983186Y-78068714D01*
X133946900Y-78141285D01*
X133874329Y-78177571D01*
X133475186Y-78177571D01*
X133983186Y-78540429D02*
X133221186Y-78540429D01*
X133946900Y-78540429D02*
X133983186Y-78613000D01*
X133983186Y-78758143D01*
X133946900Y-78830714D01*
X133910614Y-78867000D01*
X133838043Y-78903286D01*
X133620329Y-78903286D01*
X133547757Y-78867000D01*
X133511471Y-78830714D01*
X133475186Y-78758143D01*
X133475186Y-78613000D01*
X133511471Y-78540429D01*
X133983186Y-79556429D02*
X133475186Y-79556429D01*
X133983186Y-79229858D02*
X133584043Y-79229858D01*
X133511471Y-79266143D01*
X133475186Y-79338715D01*
X133475186Y-79447572D01*
X133511471Y-79520143D01*
X133547757Y-79556429D01*
X133983186Y-79810429D02*
X133983186Y-80100715D01*
X134237186Y-79919287D02*
X133584043Y-79919287D01*
X133511471Y-79955572D01*
X133475186Y-80028144D01*
X133475186Y-80100715D01*
X132499100Y-77016429D02*
X132499100Y-77379286D01*
X132281386Y-76943857D02*
X133043386Y-77197857D01*
X132281386Y-77451857D01*
X132353957Y-78141286D02*
X132317671Y-78105000D01*
X132281386Y-77996143D01*
X132281386Y-77923572D01*
X132317671Y-77814715D01*
X132390243Y-77742143D01*
X132462814Y-77705858D01*
X132607957Y-77669572D01*
X132716814Y-77669572D01*
X132861957Y-77705858D01*
X132934529Y-77742143D01*
X133007100Y-77814715D01*
X133043386Y-77923572D01*
X133043386Y-77996143D01*
X133007100Y-78105000D01*
X132970814Y-78141286D01*
X133079671Y-79012143D02*
X132099957Y-78359000D01*
X132281386Y-79266144D02*
X133043386Y-79266144D01*
X133043386Y-79447572D01*
X133007100Y-79556429D01*
X132934529Y-79629001D01*
X132861957Y-79665286D01*
X132716814Y-79701572D01*
X132607957Y-79701572D01*
X132462814Y-79665286D01*
X132390243Y-79629001D01*
X132317671Y-79556429D01*
X132281386Y-79447572D01*
X132281386Y-79266144D01*
X132353957Y-80463572D02*
X132317671Y-80427286D01*
X132281386Y-80318429D01*
X132281386Y-80245858D01*
X132317671Y-80137001D01*
X132390243Y-80064429D01*
X132462814Y-80028144D01*
X132607957Y-79991858D01*
X132716814Y-79991858D01*
X132861957Y-80028144D01*
X132934529Y-80064429D01*
X133007100Y-80137001D01*
X133043386Y-80245858D01*
X133043386Y-80318429D01*
X133007100Y-80427286D01*
X132970814Y-80463572D01*
X141133287Y-113957100D02*
X141060716Y-113920814D01*
X140951859Y-113920814D01*
X140843002Y-113957100D01*
X140770430Y-114029671D01*
X140734145Y-114102243D01*
X140697859Y-114247386D01*
X140697859Y-114356243D01*
X140734145Y-114501386D01*
X140770430Y-114573957D01*
X140843002Y-114646529D01*
X140951859Y-114682814D01*
X141024430Y-114682814D01*
X141133287Y-114646529D01*
X141169573Y-114610243D01*
X141169573Y-114356243D01*
X141024430Y-114356243D01*
X141496145Y-114682814D02*
X141496145Y-113920814D01*
X141931573Y-114682814D01*
X141931573Y-113920814D01*
X142294431Y-114682814D02*
X142294431Y-113920814D01*
X142475859Y-113920814D01*
X142584716Y-113957100D01*
X142657288Y-114029671D01*
X142693573Y-114102243D01*
X142729859Y-114247386D01*
X142729859Y-114356243D01*
X142693573Y-114501386D01*
X142657288Y-114573957D01*
X142584716Y-114646529D01*
X142475859Y-114682814D01*
X142294431Y-114682814D01*
X145342429Y-114646529D02*
X145451286Y-114682814D01*
X145632715Y-114682814D01*
X145705286Y-114646529D01*
X145741572Y-114610243D01*
X145777857Y-114537671D01*
X145777857Y-114465100D01*
X145741572Y-114392529D01*
X145705286Y-114356243D01*
X145632715Y-114319957D01*
X145487572Y-114283671D01*
X145415000Y-114247386D01*
X145378715Y-114211100D01*
X145342429Y-114138529D01*
X145342429Y-114065957D01*
X145378715Y-113993386D01*
X145415000Y-113957100D01*
X145487572Y-113920814D01*
X145669000Y-113920814D01*
X145777857Y-113957100D01*
X145995571Y-113920814D02*
X146431000Y-113920814D01*
X146213286Y-114682814D02*
X146213286Y-113920814D01*
X147084142Y-114682814D02*
X146648714Y-114682814D01*
X146866428Y-114682814D02*
X146866428Y-113920814D01*
X146793857Y-114029671D01*
X146721285Y-114102243D01*
X146648714Y-114138529D01*
X139917716Y-115477471D02*
X139663716Y-115477471D01*
X139663716Y-115876614D02*
X139663716Y-115114614D01*
X140026573Y-115114614D01*
X140280573Y-115840329D02*
X140389430Y-115876614D01*
X140570859Y-115876614D01*
X140643430Y-115840329D01*
X140679716Y-115804043D01*
X140716001Y-115731471D01*
X140716001Y-115658900D01*
X140679716Y-115586329D01*
X140643430Y-115550043D01*
X140570859Y-115513757D01*
X140425716Y-115477471D01*
X140353144Y-115441186D01*
X140316859Y-115404900D01*
X140280573Y-115332329D01*
X140280573Y-115259757D01*
X140316859Y-115187186D01*
X140353144Y-115150900D01*
X140425716Y-115114614D01*
X140607144Y-115114614D01*
X140716001Y-115150900D01*
X141006287Y-115187186D02*
X141042573Y-115150900D01*
X141115144Y-115114614D01*
X141296573Y-115114614D01*
X141369144Y-115150900D01*
X141405430Y-115187186D01*
X141441715Y-115259757D01*
X141441715Y-115332329D01*
X141405430Y-115441186D01*
X140970001Y-115876614D01*
X141441715Y-115876614D01*
X141913429Y-115114614D02*
X141986001Y-115114614D01*
X142058572Y-115150900D01*
X142094858Y-115187186D01*
X142131144Y-115259757D01*
X142167429Y-115404900D01*
X142167429Y-115586329D01*
X142131144Y-115731471D01*
X142094858Y-115804043D01*
X142058572Y-115840329D01*
X141986001Y-115876614D01*
X141913429Y-115876614D01*
X141840858Y-115840329D01*
X141804572Y-115804043D01*
X141768287Y-115731471D01*
X141732001Y-115586329D01*
X141732001Y-115404900D01*
X141768287Y-115259757D01*
X141804572Y-115187186D01*
X141840858Y-115150900D01*
X141913429Y-115114614D01*
X142457715Y-115840329D02*
X142566572Y-115876614D01*
X142748001Y-115876614D01*
X142820572Y-115840329D01*
X142856858Y-115804043D01*
X142893143Y-115731471D01*
X142893143Y-115658900D01*
X142856858Y-115586329D01*
X142820572Y-115550043D01*
X142748001Y-115513757D01*
X142602858Y-115477471D01*
X142530286Y-115441186D01*
X142494001Y-115404900D01*
X142457715Y-115332329D01*
X142457715Y-115259757D01*
X142494001Y-115187186D01*
X142530286Y-115150900D01*
X142602858Y-115114614D01*
X142784286Y-115114614D01*
X142893143Y-115150900D01*
X143546286Y-115368614D02*
X143546286Y-115876614D01*
X143364857Y-115078329D02*
X143183429Y-115622614D01*
X143655143Y-115622614D01*
X143909143Y-115840329D02*
X144018000Y-115876614D01*
X144199429Y-115876614D01*
X144272000Y-115840329D01*
X144308286Y-115804043D01*
X144344571Y-115731471D01*
X144344571Y-115658900D01*
X144308286Y-115586329D01*
X144272000Y-115550043D01*
X144199429Y-115513757D01*
X144054286Y-115477471D01*
X143981714Y-115441186D01*
X143945429Y-115404900D01*
X143909143Y-115332329D01*
X143909143Y-115259757D01*
X143945429Y-115187186D01*
X143981714Y-115150900D01*
X144054286Y-115114614D01*
X144235714Y-115114614D01*
X144344571Y-115150900D01*
X144671143Y-115114614D02*
X144671143Y-115731471D01*
X144707428Y-115804043D01*
X144743714Y-115840329D01*
X144816285Y-115876614D01*
X144961428Y-115876614D01*
X145034000Y-115840329D01*
X145070285Y-115804043D01*
X145106571Y-115731471D01*
X145106571Y-115114614D01*
X145723429Y-115477471D02*
X145832286Y-115513757D01*
X145868571Y-115550043D01*
X145904857Y-115622614D01*
X145904857Y-115731471D01*
X145868571Y-115804043D01*
X145832286Y-115840329D01*
X145759714Y-115876614D01*
X145469429Y-115876614D01*
X145469429Y-115114614D01*
X145723429Y-115114614D01*
X145796000Y-115150900D01*
X145832286Y-115187186D01*
X145868571Y-115259757D01*
X145868571Y-115332329D01*
X145832286Y-115404900D01*
X145796000Y-115441186D01*
X145723429Y-115477471D01*
X145469429Y-115477471D01*
X146195143Y-115187186D02*
X146231429Y-115150900D01*
X146304000Y-115114614D01*
X146485429Y-115114614D01*
X146558000Y-115150900D01*
X146594286Y-115187186D01*
X146630571Y-115259757D01*
X146630571Y-115332329D01*
X146594286Y-115441186D01*
X146158857Y-115876614D01*
X146630571Y-115876614D01*
X147501428Y-115078329D02*
X146848285Y-116058043D01*
X148082000Y-115368614D02*
X148082000Y-115876614D01*
X147900571Y-115078329D02*
X147719143Y-115622614D01*
X148190857Y-115622614D01*
D14*
X159355733Y-78232000D02*
G75*
G03X159355733Y-78232000I-4669733J0D01*
G01*
X164938000Y-109714000D02*
X163738000Y-109714000D01*
X163738000Y-107964000D02*
X164938000Y-107964000D01*
X146015000Y-95617000D02*
X144815000Y-95617000D01*
X144815000Y-93867000D02*
X146015000Y-93867000D01*
X173508000Y-108178000D02*
X173508000Y-109728000D01*
X170408000Y-109728000D02*
X170408000Y-108178000D01*
X170408000Y-108178000D02*
X173508000Y-108178000D01*
X170688000Y-110998000D02*
X173228000Y-110998000D01*
X141097000Y-76581000D02*
X141097000Y-74041000D01*
X141097000Y-74041000D02*
X135001000Y-74041000D01*
X135001000Y-74041000D02*
X135001000Y-76835000D01*
X134239000Y-73533000D02*
X134239000Y-83693000D01*
X134239000Y-83693000D02*
X141859000Y-83693000D01*
X141859000Y-83693000D02*
X141859000Y-73533000D01*
X141859000Y-73533000D02*
X134239000Y-73533000D01*
X166832000Y-73117000D02*
X176830000Y-73117000D01*
X166836000Y-72977000D02*
X176826000Y-72977000D01*
X166844000Y-72837000D02*
X176818000Y-72837000D01*
X166856000Y-72697000D02*
X176806000Y-72697000D01*
X166871000Y-72557000D02*
X176791000Y-72557000D01*
X166891000Y-72417000D02*
X176771000Y-72417000D01*
X166915000Y-72277000D02*
X176747000Y-72277000D01*
X166944000Y-72137000D02*
X176718000Y-72137000D01*
X166976000Y-71997000D02*
X176686000Y-71997000D01*
X167013000Y-71857000D02*
X176649000Y-71857000D01*
X167054000Y-71717000D02*
X176608000Y-71717000D01*
X167099000Y-71577000D02*
X171365000Y-71577000D01*
X172297000Y-71577000D02*
X176563000Y-71577000D01*
X167149000Y-71437000D02*
X171164000Y-71437000D01*
X172498000Y-71437000D02*
X176513000Y-71437000D01*
X167204000Y-71297000D02*
X171035000Y-71297000D01*
X172627000Y-71297000D02*
X176458000Y-71297000D01*
X167264000Y-71157000D02*
X170946000Y-71157000D01*
X172716000Y-71157000D02*
X176398000Y-71157000D01*
X167329000Y-71017000D02*
X170885000Y-71017000D01*
X172777000Y-71017000D02*
X176333000Y-71017000D01*
X167399000Y-70877000D02*
X170848000Y-70877000D01*
X172814000Y-70877000D02*
X176263000Y-70877000D01*
X167475000Y-70737000D02*
X170832000Y-70737000D01*
X172830000Y-70737000D02*
X176187000Y-70737000D01*
X167557000Y-70597000D02*
X170836000Y-70597000D01*
X172826000Y-70597000D02*
X176105000Y-70597000D01*
X167645000Y-70457000D02*
X170859000Y-70457000D01*
X172803000Y-70457000D02*
X176017000Y-70457000D01*
X167740000Y-70317000D02*
X170904000Y-70317000D01*
X172758000Y-70317000D02*
X175922000Y-70317000D01*
X167842000Y-70177000D02*
X170974000Y-70177000D01*
X172688000Y-70177000D02*
X175820000Y-70177000D01*
X167952000Y-70037000D02*
X171075000Y-70037000D01*
X172587000Y-70037000D02*
X175710000Y-70037000D01*
X168070000Y-69897000D02*
X171224000Y-69897000D01*
X172438000Y-69897000D02*
X175592000Y-69897000D01*
X168198000Y-69757000D02*
X171476000Y-69757000D01*
X172186000Y-69757000D02*
X175464000Y-69757000D01*
X168335000Y-69617000D02*
X175327000Y-69617000D01*
X168485000Y-69477000D02*
X175177000Y-69477000D01*
X168647000Y-69337000D02*
X175015000Y-69337000D01*
X168824000Y-69197000D02*
X174838000Y-69197000D01*
X169020000Y-69057000D02*
X174642000Y-69057000D01*
X169238000Y-68917000D02*
X174424000Y-68917000D01*
X169484000Y-68777000D02*
X174178000Y-68777000D01*
X169769000Y-68637000D02*
X173893000Y-68637000D01*
X170111000Y-68497000D02*
X173551000Y-68497000D01*
X170557000Y-68357000D02*
X173105000Y-68357000D01*
X171332000Y-68217000D02*
X172330000Y-68217000D01*
X172831000Y-70692000D02*
G75*
G03X172831000Y-70692000I-1000000J0D01*
G01*
X176868500Y-73192000D02*
G75*
G03X176868500Y-73192000I-5037500J0D01*
G01*
X161784000Y-95920000D02*
X161784000Y-97120000D01*
X160034000Y-97120000D02*
X160034000Y-95920000D01*
X183857000Y-96004000D02*
X183857000Y-95004000D01*
X182157000Y-95004000D02*
X182157000Y-96004000D01*
X165315000Y-77208000D02*
X165315000Y-76208000D01*
X163615000Y-76208000D02*
X163615000Y-77208000D01*
X179035000Y-104056000D02*
X179180000Y-104056000D01*
X179035000Y-99906000D02*
X179180000Y-99906000D01*
X184185000Y-99906000D02*
X184040000Y-99906000D01*
X184185000Y-104056000D02*
X184040000Y-104056000D01*
X179035000Y-104056000D02*
X179035000Y-99906000D01*
X184185000Y-104056000D02*
X184185000Y-99906000D01*
X179180000Y-104056000D02*
X179180000Y-105456000D01*
X154598000Y-86622000D02*
X154598000Y-87622000D01*
X156298000Y-87622000D02*
X156298000Y-86622000D01*
X160469000Y-73238000D02*
X160469000Y-68240000D01*
X160329000Y-73230000D02*
X160329000Y-70893000D01*
X160329000Y-70585000D02*
X160329000Y-68248000D01*
X160189000Y-73214000D02*
X160189000Y-71212000D01*
X160189000Y-70266000D02*
X160189000Y-68264000D01*
X160049000Y-73190000D02*
X160049000Y-71359000D01*
X160049000Y-70119000D02*
X160049000Y-68288000D01*
X159909000Y-73157000D02*
X159909000Y-71451000D01*
X159909000Y-70027000D02*
X159909000Y-68321000D01*
X159769000Y-73116000D02*
X159769000Y-71507000D01*
X159769000Y-69971000D02*
X159769000Y-68362000D01*
X159629000Y-73066000D02*
X159629000Y-71534000D01*
X159629000Y-69944000D02*
X159629000Y-68412000D01*
X159489000Y-73005000D02*
X159489000Y-71537000D01*
X159489000Y-69941000D02*
X159489000Y-68473000D01*
X159349000Y-72935000D02*
X159349000Y-71515000D01*
X159349000Y-69963000D02*
X159349000Y-68543000D01*
X159209000Y-72853000D02*
X159209000Y-71465000D01*
X159209000Y-70013000D02*
X159209000Y-68625000D01*
X159069000Y-72758000D02*
X159069000Y-71383000D01*
X159069000Y-70095000D02*
X159069000Y-68720000D01*
X158929000Y-72647000D02*
X158929000Y-71251000D01*
X158929000Y-70227000D02*
X158929000Y-68831000D01*
X158789000Y-72519000D02*
X158789000Y-71004000D01*
X158789000Y-70474000D02*
X158789000Y-68959000D01*
X158649000Y-72370000D02*
X158649000Y-69108000D01*
X158509000Y-72191000D02*
X158509000Y-69287000D01*
X158369000Y-71972000D02*
X158369000Y-69506000D01*
X158229000Y-71683000D02*
X158229000Y-69795000D01*
X158089000Y-71211000D02*
X158089000Y-70267000D01*
X160344000Y-70739000D02*
G75*
G03X160344000Y-70739000I-800000J0D01*
G01*
X163081500Y-70739000D02*
G75*
G03X163081500Y-70739000I-2537500J0D01*
G01*
X172728000Y-107276000D02*
X173728000Y-107276000D01*
X173728000Y-105576000D02*
X172728000Y-105576000D01*
X154012000Y-93591000D02*
X154012000Y-92591000D01*
X152312000Y-92591000D02*
X152312000Y-93591000D01*
X156679000Y-93591000D02*
X156679000Y-92591000D01*
X154979000Y-92591000D02*
X154979000Y-93591000D01*
X170012000Y-98230000D02*
X165014000Y-98230000D01*
X170004000Y-98370000D02*
X167667000Y-98370000D01*
X167359000Y-98370000D02*
X165022000Y-98370000D01*
X169988000Y-98510000D02*
X167986000Y-98510000D01*
X167040000Y-98510000D02*
X165038000Y-98510000D01*
X169964000Y-98650000D02*
X168133000Y-98650000D01*
X166893000Y-98650000D02*
X165062000Y-98650000D01*
X169931000Y-98790000D02*
X168225000Y-98790000D01*
X166801000Y-98790000D02*
X165095000Y-98790000D01*
X169890000Y-98930000D02*
X168281000Y-98930000D01*
X166745000Y-98930000D02*
X165136000Y-98930000D01*
X169840000Y-99070000D02*
X168308000Y-99070000D01*
X166718000Y-99070000D02*
X165186000Y-99070000D01*
X169779000Y-99210000D02*
X168311000Y-99210000D01*
X166715000Y-99210000D02*
X165247000Y-99210000D01*
X169709000Y-99350000D02*
X168289000Y-99350000D01*
X166737000Y-99350000D02*
X165317000Y-99350000D01*
X169627000Y-99490000D02*
X168239000Y-99490000D01*
X166787000Y-99490000D02*
X165399000Y-99490000D01*
X169532000Y-99630000D02*
X168157000Y-99630000D01*
X166869000Y-99630000D02*
X165494000Y-99630000D01*
X169421000Y-99770000D02*
X168025000Y-99770000D01*
X167001000Y-99770000D02*
X165605000Y-99770000D01*
X169293000Y-99910000D02*
X167778000Y-99910000D01*
X167248000Y-99910000D02*
X165733000Y-99910000D01*
X169144000Y-100050000D02*
X165882000Y-100050000D01*
X168965000Y-100190000D02*
X166061000Y-100190000D01*
X168746000Y-100330000D02*
X166280000Y-100330000D01*
X168457000Y-100470000D02*
X166569000Y-100470000D01*
X167985000Y-100610000D02*
X167041000Y-100610000D01*
X168313000Y-99155000D02*
G75*
G03X168313000Y-99155000I-800000J0D01*
G01*
X170050500Y-98155000D02*
G75*
G03X170050500Y-98155000I-2537500J0D01*
G01*
X177181000Y-95386000D02*
X179181000Y-95386000D01*
X179181000Y-93336000D02*
X177181000Y-93336000D01*
X192862000Y-106438000D02*
X190162000Y-106438000D01*
X192862000Y-107938000D02*
X190162000Y-107938000D01*
X191362000Y-107038000D02*
X191362000Y-107288000D01*
X191362000Y-107288000D02*
X191512000Y-107138000D01*
X191612000Y-107538000D02*
X191612000Y-106838000D01*
X191262000Y-107188000D02*
X190912000Y-107188000D01*
X191612000Y-107188000D02*
X191262000Y-107538000D01*
X191262000Y-107538000D02*
X191262000Y-106838000D01*
X191262000Y-106838000D02*
X191612000Y-107188000D01*
X192862000Y-100342000D02*
X190162000Y-100342000D01*
X192862000Y-101842000D02*
X190162000Y-101842000D01*
X191362000Y-100942000D02*
X191362000Y-101192000D01*
X191362000Y-101192000D02*
X191512000Y-101042000D01*
X191612000Y-101442000D02*
X191612000Y-100742000D01*
X191262000Y-101092000D02*
X190912000Y-101092000D01*
X191612000Y-101092000D02*
X191262000Y-101442000D01*
X191262000Y-101442000D02*
X191262000Y-100742000D01*
X191262000Y-100742000D02*
X191612000Y-101092000D01*
X148625000Y-93580000D02*
X148625000Y-95130000D01*
X149825000Y-93580000D02*
X149825000Y-95130000D01*
X141986000Y-106553000D02*
X139446000Y-106553000D01*
X139446000Y-106553000D02*
X139446000Y-112649000D01*
X139446000Y-112649000D02*
X142240000Y-112649000D01*
X138938000Y-113411000D02*
X149098000Y-113411000D01*
X149098000Y-113411000D02*
X149098000Y-105791000D01*
X149098000Y-105791000D02*
X138938000Y-105791000D01*
X138938000Y-105791000D02*
X138938000Y-113411000D01*
X157368240Y-100105160D02*
X157368240Y-100056900D01*
X156667200Y-97306180D02*
X157368240Y-97306180D01*
X157368240Y-97306180D02*
X157368240Y-97555100D01*
X157368240Y-100105160D02*
X157368240Y-100305820D01*
X157368240Y-100305820D02*
X156667200Y-100305820D01*
X191627200Y-103468200D02*
X192827200Y-103468200D01*
X192827200Y-105218200D02*
X191627200Y-105218200D01*
X173574000Y-105015000D02*
X172374000Y-105015000D01*
X172374000Y-103265000D02*
X173574000Y-103265000D01*
X179670000Y-97649000D02*
X178470000Y-97649000D01*
X178470000Y-95899000D02*
X179670000Y-95899000D01*
X159223000Y-102983000D02*
X158023000Y-102983000D01*
X158023000Y-101233000D02*
X159223000Y-101233000D01*
X191608000Y-98030000D02*
X190408000Y-98030000D01*
X190408000Y-96280000D02*
X191608000Y-96280000D01*
X144815000Y-91327000D02*
X146015000Y-91327000D01*
X146015000Y-93077000D02*
X144815000Y-93077000D01*
X162447000Y-97120000D02*
X162447000Y-95920000D01*
X164197000Y-95920000D02*
X164197000Y-97120000D01*
X145796000Y-75590400D02*
X148336000Y-75590400D01*
X142976000Y-75310400D02*
X144526000Y-75310400D01*
X145796000Y-75590400D02*
X145796000Y-78130400D01*
X144526000Y-78410400D02*
X142976000Y-78410400D01*
X142976000Y-78410400D02*
X142976000Y-75310400D01*
X145796000Y-78130400D02*
X148336000Y-78130400D01*
X148336000Y-78130400D02*
X148336000Y-75590400D01*
X141097000Y-87503000D02*
X141097000Y-84963000D01*
X141097000Y-84963000D02*
X135001000Y-84963000D01*
X135001000Y-84963000D02*
X135001000Y-87757000D01*
X134239000Y-84455000D02*
X134239000Y-99695000D01*
X134239000Y-99695000D02*
X141859000Y-99695000D01*
X141859000Y-99695000D02*
X141859000Y-84455000D01*
X141859000Y-84455000D02*
X134239000Y-84455000D01*
X150063200Y-84226400D02*
X146608800Y-84226400D01*
X150063200Y-87985600D02*
X146608800Y-87985600D01*
X155601000Y-112242000D02*
X155601000Y-113792000D01*
X152501000Y-113792000D02*
X152501000Y-112242000D01*
X152501000Y-112242000D02*
X155601000Y-112242000D01*
X152781000Y-115062000D02*
X155321000Y-115062000D01*
X148057200Y-68503200D02*
X148057200Y-70053200D01*
X144957200Y-70053200D02*
X144957200Y-68503200D01*
X144957200Y-68503200D02*
X148057200Y-68503200D01*
X145237200Y-71323200D02*
X147777200Y-71323200D01*
X151714800Y-68503200D02*
X151714800Y-70053200D01*
X148614800Y-70053200D02*
X148614800Y-68503200D01*
X148614800Y-68503200D02*
X151714800Y-68503200D01*
X148894800Y-71323200D02*
X151434800Y-71323200D01*
X181382000Y-108178000D02*
X181382000Y-109728000D01*
X178282000Y-109728000D02*
X178282000Y-108178000D01*
X178282000Y-108178000D02*
X181382000Y-108178000D01*
X178562000Y-110998000D02*
X181102000Y-110998000D01*
X159411000Y-112242000D02*
X159411000Y-113792000D01*
X156311000Y-113792000D02*
X156311000Y-112242000D01*
X156311000Y-112242000D02*
X159411000Y-112242000D01*
X156591000Y-115062000D02*
X159131000Y-115062000D01*
X144145600Y-68503200D02*
X144145600Y-70053200D01*
X141045600Y-70053200D02*
X141045600Y-68503200D01*
X141045600Y-68503200D02*
X144145600Y-68503200D01*
X141325600Y-71323200D02*
X143865600Y-71323200D01*
X159371000Y-106842000D02*
X159371000Y-108042000D01*
X157621000Y-108042000D02*
X157621000Y-106842000D01*
X138719000Y-100344000D02*
X139919000Y-100344000D01*
X139919000Y-102094000D02*
X138719000Y-102094000D01*
D11*
X152273000Y-104775000D02*
X154178000Y-104775000D01*
X154178000Y-104775000D02*
X154178000Y-102870000D01*
X145288000Y-104775000D02*
X145288000Y-99695000D01*
X145288000Y-99695000D02*
X151638000Y-99695000D01*
X151638000Y-99695000D02*
X151638000Y-104775000D01*
X151638000Y-104775000D02*
X145288000Y-104775000D01*
D14*
X178028472Y-85979000D02*
G75*
G03X178028472Y-85979000I-2514472J0D01*
G01*
X162433000Y-83439000D02*
X160655000Y-83439000D01*
X162433000Y-85979000D02*
X160655000Y-85979000D01*
X162433000Y-88519000D02*
X160655000Y-88519000D01*
X170942000Y-91313000D02*
X178943000Y-91313000D01*
X178943000Y-91313000D02*
X178943000Y-80645000D01*
X178943000Y-80645000D02*
X170942000Y-80645000D01*
X162433000Y-91313000D02*
X170942000Y-91313000D01*
X170942000Y-91313000D02*
X170942000Y-80645000D01*
X170942000Y-80645000D02*
X162433000Y-80645000D01*
X162433000Y-85979000D02*
X162433000Y-80645000D01*
X162433000Y-85979000D02*
X162433000Y-91313000D01*
D10*
G36*
X187470898Y-74946053D02*
X187469458Y-75136921D01*
X187469334Y-75145623D01*
X187462583Y-75611070D01*
X187403195Y-75662118D01*
X187323251Y-75706807D01*
X187239712Y-75710865D01*
X187159791Y-75674589D01*
X187132485Y-75650908D01*
X187090688Y-75612367D01*
X187071000Y-75604766D01*
X187071000Y-74825792D01*
X187064338Y-74680606D01*
X187043006Y-74569007D01*
X187004985Y-74484181D01*
X186951329Y-74421982D01*
X186864924Y-74371882D01*
X186767728Y-74356518D01*
X186669923Y-74373853D01*
X186581694Y-74421852D01*
X186513224Y-74498479D01*
X186505986Y-74511022D01*
X186483122Y-74579736D01*
X186469320Y-74676279D01*
X186464459Y-74787657D01*
X186468423Y-74900874D01*
X186481092Y-75002938D01*
X186502349Y-75080855D01*
X186511349Y-75099261D01*
X186582342Y-75187490D01*
X186669202Y-75244675D01*
X186763943Y-75268873D01*
X186858581Y-75258136D01*
X186945129Y-75210519D01*
X186950192Y-75206183D01*
X187008978Y-75137541D01*
X187047065Y-75049453D01*
X187066810Y-74934495D01*
X187071000Y-74825792D01*
X187071000Y-75604766D01*
X187059245Y-75600229D01*
X187019456Y-75610107D01*
X186997210Y-75619158D01*
X186936645Y-75635161D01*
X186851773Y-75646109D01*
X186770055Y-75649649D01*
X186671326Y-75645682D01*
X186592340Y-75630629D01*
X186510982Y-75599727D01*
X186487124Y-75588703D01*
X186339772Y-75499487D01*
X186224089Y-75385457D01*
X186139234Y-75245038D01*
X186084366Y-75076654D01*
X186058644Y-74878730D01*
X186056343Y-74781833D01*
X186067511Y-74610444D01*
X186102045Y-74463671D01*
X186163845Y-74328537D01*
X186217959Y-74244353D01*
X186326509Y-74124247D01*
X186454186Y-74037668D01*
X186594947Y-73984105D01*
X186742748Y-73963047D01*
X186891544Y-73973985D01*
X187035291Y-74016407D01*
X187167945Y-74089805D01*
X187283462Y-74193667D01*
X187375798Y-74327482D01*
X187383664Y-74342773D01*
X187412855Y-74409150D01*
X187435321Y-74481103D01*
X187451711Y-74564701D01*
X187462672Y-74666012D01*
X187468852Y-74791106D01*
X187470898Y-74946053D01*
X187470898Y-74946053D01*
X187470898Y-74946053D01*
G37*
X187470898Y-74946053D02*
X187469458Y-75136921D01*
X187469334Y-75145623D01*
X187462583Y-75611070D01*
X187403195Y-75662118D01*
X187323251Y-75706807D01*
X187239712Y-75710865D01*
X187159791Y-75674589D01*
X187132485Y-75650908D01*
X187090688Y-75612367D01*
X187071000Y-75604766D01*
X187071000Y-74825792D01*
X187064338Y-74680606D01*
X187043006Y-74569007D01*
X187004985Y-74484181D01*
X186951329Y-74421982D01*
X186864924Y-74371882D01*
X186767728Y-74356518D01*
X186669923Y-74373853D01*
X186581694Y-74421852D01*
X186513224Y-74498479D01*
X186505986Y-74511022D01*
X186483122Y-74579736D01*
X186469320Y-74676279D01*
X186464459Y-74787657D01*
X186468423Y-74900874D01*
X186481092Y-75002938D01*
X186502349Y-75080855D01*
X186511349Y-75099261D01*
X186582342Y-75187490D01*
X186669202Y-75244675D01*
X186763943Y-75268873D01*
X186858581Y-75258136D01*
X186945129Y-75210519D01*
X186950192Y-75206183D01*
X187008978Y-75137541D01*
X187047065Y-75049453D01*
X187066810Y-74934495D01*
X187071000Y-74825792D01*
X187071000Y-75604766D01*
X187059245Y-75600229D01*
X187019456Y-75610107D01*
X186997210Y-75619158D01*
X186936645Y-75635161D01*
X186851773Y-75646109D01*
X186770055Y-75649649D01*
X186671326Y-75645682D01*
X186592340Y-75630629D01*
X186510982Y-75599727D01*
X186487124Y-75588703D01*
X186339772Y-75499487D01*
X186224089Y-75385457D01*
X186139234Y-75245038D01*
X186084366Y-75076654D01*
X186058644Y-74878730D01*
X186056343Y-74781833D01*
X186067511Y-74610444D01*
X186102045Y-74463671D01*
X186163845Y-74328537D01*
X186217959Y-74244353D01*
X186326509Y-74124247D01*
X186454186Y-74037668D01*
X186594947Y-73984105D01*
X186742748Y-73963047D01*
X186891544Y-73973985D01*
X187035291Y-74016407D01*
X187167945Y-74089805D01*
X187283462Y-74193667D01*
X187375798Y-74327482D01*
X187383664Y-74342773D01*
X187412855Y-74409150D01*
X187435321Y-74481103D01*
X187451711Y-74564701D01*
X187462672Y-74666012D01*
X187468852Y-74791106D01*
X187470898Y-74946053D01*
X187470898Y-74946053D01*
G36*
X183366833Y-75459302D02*
X183349317Y-75524936D01*
X183305097Y-75590875D01*
X183246667Y-75641436D01*
X183208324Y-75658298D01*
X183164954Y-75664501D01*
X183122674Y-75658163D01*
X183077615Y-75635898D01*
X183025908Y-75594318D01*
X182963686Y-75530039D01*
X182887081Y-75439672D01*
X182792225Y-75319832D01*
X182731267Y-75240646D01*
X182647506Y-75132383D01*
X182571455Y-75036418D01*
X182507097Y-74957586D01*
X182458414Y-74900723D01*
X182429387Y-74870667D01*
X182423777Y-74867175D01*
X182396745Y-74880907D01*
X182354732Y-74916310D01*
X182335683Y-74935291D01*
X182308595Y-74964797D01*
X182289990Y-74992237D01*
X182278011Y-75026218D01*
X182270803Y-75075349D01*
X182266509Y-75148235D01*
X182263272Y-75253483D01*
X182262739Y-75273488D01*
X182259311Y-75385405D01*
X182254971Y-75463319D01*
X182248145Y-75515555D01*
X182237257Y-75550438D01*
X182220731Y-75576293D01*
X182201529Y-75596936D01*
X182141636Y-75638484D01*
X182072872Y-75663084D01*
X182072143Y-75663204D01*
X182017476Y-75666095D01*
X181972423Y-75648866D01*
X181925114Y-75611367D01*
X181853417Y-75547305D01*
X181853417Y-74400563D01*
X181853417Y-73253820D01*
X181916917Y-73203015D01*
X181993658Y-73163831D01*
X182077618Y-73155543D01*
X182156651Y-73176228D01*
X182218612Y-73223963D01*
X182237714Y-73253811D01*
X182242689Y-73283772D01*
X182247908Y-73350194D01*
X182253101Y-73447209D01*
X182257999Y-73568948D01*
X182262333Y-73709543D01*
X182265834Y-73863124D01*
X182265950Y-73869296D01*
X182276750Y-74449010D01*
X182630698Y-74129140D01*
X182735796Y-74035683D01*
X182833366Y-73951769D01*
X182918124Y-73881718D01*
X182984788Y-73829848D01*
X183028075Y-73800476D01*
X183038567Y-73795737D01*
X183110527Y-73796128D01*
X183186091Y-73824020D01*
X183245464Y-73871636D01*
X183251260Y-73879293D01*
X183273028Y-73931557D01*
X183282166Y-73995588D01*
X183282167Y-73996014D01*
X183278813Y-74027684D01*
X183266330Y-74060884D01*
X183241087Y-74099725D01*
X183199449Y-74148318D01*
X183137786Y-74210775D01*
X183052464Y-74291207D01*
X182939851Y-74393727D01*
X182895787Y-74433370D01*
X182731657Y-74580750D01*
X183049245Y-74989968D01*
X183156572Y-75129602D01*
X183239050Y-75240193D01*
X183298996Y-75325163D01*
X183338727Y-75387938D01*
X183360560Y-75431941D01*
X183366833Y-75459302D01*
X183366833Y-75459302D01*
X183366833Y-75459302D01*
G37*
X183366833Y-75459302D02*
X183349317Y-75524936D01*
X183305097Y-75590875D01*
X183246667Y-75641436D01*
X183208324Y-75658298D01*
X183164954Y-75664501D01*
X183122674Y-75658163D01*
X183077615Y-75635898D01*
X183025908Y-75594318D01*
X182963686Y-75530039D01*
X182887081Y-75439672D01*
X182792225Y-75319832D01*
X182731267Y-75240646D01*
X182647506Y-75132383D01*
X182571455Y-75036418D01*
X182507097Y-74957586D01*
X182458414Y-74900723D01*
X182429387Y-74870667D01*
X182423777Y-74867175D01*
X182396745Y-74880907D01*
X182354732Y-74916310D01*
X182335683Y-74935291D01*
X182308595Y-74964797D01*
X182289990Y-74992237D01*
X182278011Y-75026218D01*
X182270803Y-75075349D01*
X182266509Y-75148235D01*
X182263272Y-75253483D01*
X182262739Y-75273488D01*
X182259311Y-75385405D01*
X182254971Y-75463319D01*
X182248145Y-75515555D01*
X182237257Y-75550438D01*
X182220731Y-75576293D01*
X182201529Y-75596936D01*
X182141636Y-75638484D01*
X182072872Y-75663084D01*
X182072143Y-75663204D01*
X182017476Y-75666095D01*
X181972423Y-75648866D01*
X181925114Y-75611367D01*
X181853417Y-75547305D01*
X181853417Y-74400563D01*
X181853417Y-73253820D01*
X181916917Y-73203015D01*
X181993658Y-73163831D01*
X182077618Y-73155543D01*
X182156651Y-73176228D01*
X182218612Y-73223963D01*
X182237714Y-73253811D01*
X182242689Y-73283772D01*
X182247908Y-73350194D01*
X182253101Y-73447209D01*
X182257999Y-73568948D01*
X182262333Y-73709543D01*
X182265834Y-73863124D01*
X182265950Y-73869296D01*
X182276750Y-74449010D01*
X182630698Y-74129140D01*
X182735796Y-74035683D01*
X182833366Y-73951769D01*
X182918124Y-73881718D01*
X182984788Y-73829848D01*
X183028075Y-73800476D01*
X183038567Y-73795737D01*
X183110527Y-73796128D01*
X183186091Y-73824020D01*
X183245464Y-73871636D01*
X183251260Y-73879293D01*
X183273028Y-73931557D01*
X183282166Y-73995588D01*
X183282167Y-73996014D01*
X183278813Y-74027684D01*
X183266330Y-74060884D01*
X183241087Y-74099725D01*
X183199449Y-74148318D01*
X183137786Y-74210775D01*
X183052464Y-74291207D01*
X182939851Y-74393727D01*
X182895787Y-74433370D01*
X182731657Y-74580750D01*
X183049245Y-74989968D01*
X183156572Y-75129602D01*
X183239050Y-75240193D01*
X183298996Y-75325163D01*
X183338727Y-75387938D01*
X183360560Y-75431941D01*
X183366833Y-75459302D01*
X183366833Y-75459302D01*
G36*
X184041909Y-74501501D02*
X184040909Y-74691914D01*
X184039900Y-74814904D01*
X184033583Y-75542926D01*
X183980667Y-75595783D01*
X183910735Y-75642763D01*
X183830586Y-75662583D01*
X183758417Y-75651624D01*
X183712581Y-75622277D01*
X183673750Y-75586468D01*
X183662509Y-75572231D01*
X183653397Y-75554133D01*
X183646144Y-75527789D01*
X183640484Y-75488816D01*
X183636148Y-75432828D01*
X183632869Y-75355441D01*
X183630379Y-75252271D01*
X183628409Y-75118933D01*
X183626692Y-74951042D01*
X183625366Y-74794476D01*
X183619316Y-74049511D01*
X183667700Y-73978095D01*
X183733580Y-73908663D01*
X183808798Y-73880233D01*
X183892277Y-73893147D01*
X183910415Y-73900981D01*
X183944595Y-73918741D01*
X183972506Y-73939023D01*
X183994738Y-73965992D01*
X184011880Y-74003813D01*
X184024523Y-74056653D01*
X184033257Y-74128676D01*
X184038673Y-74224048D01*
X184041360Y-74346934D01*
X184041909Y-74501501D01*
X184041909Y-74501501D01*
X184041909Y-74501501D01*
G37*
X184041909Y-74501501D02*
X184040909Y-74691914D01*
X184039900Y-74814904D01*
X184033583Y-75542926D01*
X183980667Y-75595783D01*
X183910735Y-75642763D01*
X183830586Y-75662583D01*
X183758417Y-75651624D01*
X183712581Y-75622277D01*
X183673750Y-75586468D01*
X183662509Y-75572231D01*
X183653397Y-75554133D01*
X183646144Y-75527789D01*
X183640484Y-75488816D01*
X183636148Y-75432828D01*
X183632869Y-75355441D01*
X183630379Y-75252271D01*
X183628409Y-75118933D01*
X183626692Y-74951042D01*
X183625366Y-74794476D01*
X183619316Y-74049511D01*
X183667700Y-73978095D01*
X183733580Y-73908663D01*
X183808798Y-73880233D01*
X183892277Y-73893147D01*
X183910415Y-73900981D01*
X183944595Y-73918741D01*
X183972506Y-73939023D01*
X183994738Y-73965992D01*
X184011880Y-74003813D01*
X184024523Y-74056653D01*
X184033257Y-74128676D01*
X184038673Y-74224048D01*
X184041360Y-74346934D01*
X184041909Y-74501501D01*
X184041909Y-74501501D01*
G36*
X185716333Y-75395577D02*
X185696375Y-75456699D01*
X185641313Y-75514341D01*
X185558365Y-75565951D01*
X185454753Y-75608978D01*
X185337694Y-75640871D01*
X185214408Y-75659079D01*
X185092114Y-75661052D01*
X184999010Y-75649053D01*
X184836708Y-75594410D01*
X184692808Y-75504608D01*
X184573093Y-75384873D01*
X184483344Y-75240425D01*
X184448708Y-75151894D01*
X184401150Y-74938995D01*
X184391006Y-74724987D01*
X184417905Y-74517234D01*
X184481482Y-74323100D01*
X184491235Y-74301752D01*
X184580628Y-74159766D01*
X184699532Y-74043462D01*
X184841534Y-73956127D01*
X185000222Y-73901046D01*
X185169184Y-73881507D01*
X185292500Y-73891114D01*
X185436473Y-73924485D01*
X185552597Y-73972047D01*
X185638405Y-74030865D01*
X185691430Y-74098002D01*
X185709203Y-74170522D01*
X185689258Y-74245489D01*
X185642351Y-74307406D01*
X185588330Y-74345000D01*
X185522516Y-74356277D01*
X185436775Y-74341490D01*
X185361564Y-74316155D01*
X185253319Y-74283137D01*
X185161563Y-74276083D01*
X185070124Y-74294021D01*
X185058033Y-74297932D01*
X184960437Y-74345604D01*
X184888512Y-74416768D01*
X184840258Y-74515277D01*
X184813677Y-74644985D01*
X184806631Y-74782640D01*
X184814701Y-74933483D01*
X184841192Y-75051124D01*
X184888357Y-75141484D01*
X184958449Y-75210485D01*
X184973338Y-75220870D01*
X185060126Y-75256984D01*
X185166909Y-75270059D01*
X185278031Y-75259884D01*
X185377667Y-75226333D01*
X185438943Y-75199838D01*
X185491201Y-75185088D01*
X185502827Y-75184000D01*
X185585805Y-75203228D01*
X185655846Y-75254082D01*
X185702608Y-75326313D01*
X185716333Y-75395577D01*
X185716333Y-75395577D01*
X185716333Y-75395577D01*
G37*
X185716333Y-75395577D02*
X185696375Y-75456699D01*
X185641313Y-75514341D01*
X185558365Y-75565951D01*
X185454753Y-75608978D01*
X185337694Y-75640871D01*
X185214408Y-75659079D01*
X185092114Y-75661052D01*
X184999010Y-75649053D01*
X184836708Y-75594410D01*
X184692808Y-75504608D01*
X184573093Y-75384873D01*
X184483344Y-75240425D01*
X184448708Y-75151894D01*
X184401150Y-74938995D01*
X184391006Y-74724987D01*
X184417905Y-74517234D01*
X184481482Y-74323100D01*
X184491235Y-74301752D01*
X184580628Y-74159766D01*
X184699532Y-74043462D01*
X184841534Y-73956127D01*
X185000222Y-73901046D01*
X185169184Y-73881507D01*
X185292500Y-73891114D01*
X185436473Y-73924485D01*
X185552597Y-73972047D01*
X185638405Y-74030865D01*
X185691430Y-74098002D01*
X185709203Y-74170522D01*
X185689258Y-74245489D01*
X185642351Y-74307406D01*
X185588330Y-74345000D01*
X185522516Y-74356277D01*
X185436775Y-74341490D01*
X185361564Y-74316155D01*
X185253319Y-74283137D01*
X185161563Y-74276083D01*
X185070124Y-74294021D01*
X185058033Y-74297932D01*
X184960437Y-74345604D01*
X184888512Y-74416768D01*
X184840258Y-74515277D01*
X184813677Y-74644985D01*
X184806631Y-74782640D01*
X184814701Y-74933483D01*
X184841192Y-75051124D01*
X184888357Y-75141484D01*
X184958449Y-75210485D01*
X184973338Y-75220870D01*
X185060126Y-75256984D01*
X185166909Y-75270059D01*
X185278031Y-75259884D01*
X185377667Y-75226333D01*
X185438943Y-75199838D01*
X185491201Y-75185088D01*
X185502827Y-75184000D01*
X185585805Y-75203228D01*
X185655846Y-75254082D01*
X185702608Y-75326313D01*
X185716333Y-75395577D01*
X185716333Y-75395577D01*
G36*
X189317202Y-73320612D02*
X189310348Y-74204681D01*
X189308615Y-74421448D01*
X189306932Y-74600221D01*
X189305053Y-74745336D01*
X189302737Y-74861131D01*
X189299738Y-74951943D01*
X189295813Y-75022110D01*
X189290717Y-75075970D01*
X189284208Y-75117859D01*
X189276040Y-75152115D01*
X189265971Y-75183076D01*
X189253755Y-75215078D01*
X189253491Y-75215750D01*
X189192806Y-75345755D01*
X189122618Y-75444882D01*
X189034422Y-75524575D01*
X189012407Y-75540193D01*
X188912500Y-75591286D01*
X188912500Y-74745381D01*
X188912500Y-74460099D01*
X188842430Y-74390029D01*
X188772803Y-74337069D01*
X188692789Y-74298934D01*
X188680309Y-74295173D01*
X188560397Y-74280800D01*
X188455683Y-74304237D01*
X188368546Y-74362944D01*
X188301364Y-74454385D01*
X188256515Y-74576023D01*
X188236378Y-74725321D01*
X188235485Y-74769728D01*
X188249460Y-74927548D01*
X188289035Y-75060353D01*
X188351771Y-75165069D01*
X188435226Y-75238619D01*
X188536961Y-75277929D01*
X188641634Y-75281546D01*
X188714690Y-75262423D01*
X188783039Y-75228065D01*
X188784962Y-75226716D01*
X188832188Y-75186045D01*
X188866565Y-75136676D01*
X188889936Y-75071657D01*
X188904142Y-74984034D01*
X188911026Y-74866855D01*
X188912500Y-74745381D01*
X188912500Y-75591286D01*
X188864508Y-75615830D01*
X188697386Y-75654520D01*
X188513308Y-75655788D01*
X188478583Y-75652009D01*
X188367277Y-75624307D01*
X188246720Y-75572230D01*
X188134307Y-75504297D01*
X188069590Y-75451694D01*
X188026144Y-75400000D01*
X187975751Y-75324406D01*
X187928248Y-75239878D01*
X187921480Y-75226333D01*
X187843696Y-75067583D01*
X187844186Y-74781833D01*
X187845334Y-74658913D01*
X187849089Y-74568189D01*
X187856647Y-74499548D01*
X187869202Y-74442875D01*
X187887951Y-74388057D01*
X187891923Y-74377987D01*
X187974735Y-74224097D01*
X188086011Y-74097455D01*
X188220065Y-74000562D01*
X188371212Y-73935923D01*
X188533767Y-73906040D01*
X188702047Y-73913417D01*
X188854292Y-73954211D01*
X188912500Y-73976452D01*
X188912500Y-73650516D01*
X188912746Y-73526257D01*
X188914185Y-73436817D01*
X188917870Y-73374685D01*
X188924854Y-73332347D01*
X188936189Y-73302291D01*
X188952929Y-73277004D01*
X188967298Y-73259457D01*
X189036150Y-73205977D01*
X189115088Y-73190720D01*
X189195883Y-73213743D01*
X189254062Y-73257472D01*
X189317202Y-73320612D01*
X189317202Y-73320612D01*
X189317202Y-73320612D01*
G37*
X189317202Y-73320612D02*
X189310348Y-74204681D01*
X189308615Y-74421448D01*
X189306932Y-74600221D01*
X189305053Y-74745336D01*
X189302737Y-74861131D01*
X189299738Y-74951943D01*
X189295813Y-75022110D01*
X189290717Y-75075970D01*
X189284208Y-75117859D01*
X189276040Y-75152115D01*
X189265971Y-75183076D01*
X189253755Y-75215078D01*
X189253491Y-75215750D01*
X189192806Y-75345755D01*
X189122618Y-75444882D01*
X189034422Y-75524575D01*
X189012407Y-75540193D01*
X188912500Y-75591286D01*
X188912500Y-74745381D01*
X188912500Y-74460099D01*
X188842430Y-74390029D01*
X188772803Y-74337069D01*
X188692789Y-74298934D01*
X188680309Y-74295173D01*
X188560397Y-74280800D01*
X188455683Y-74304237D01*
X188368546Y-74362944D01*
X188301364Y-74454385D01*
X188256515Y-74576023D01*
X188236378Y-74725321D01*
X188235485Y-74769728D01*
X188249460Y-74927548D01*
X188289035Y-75060353D01*
X188351771Y-75165069D01*
X188435226Y-75238619D01*
X188536961Y-75277929D01*
X188641634Y-75281546D01*
X188714690Y-75262423D01*
X188783039Y-75228065D01*
X188784962Y-75226716D01*
X188832188Y-75186045D01*
X188866565Y-75136676D01*
X188889936Y-75071657D01*
X188904142Y-74984034D01*
X188911026Y-74866855D01*
X188912500Y-74745381D01*
X188912500Y-75591286D01*
X188864508Y-75615830D01*
X188697386Y-75654520D01*
X188513308Y-75655788D01*
X188478583Y-75652009D01*
X188367277Y-75624307D01*
X188246720Y-75572230D01*
X188134307Y-75504297D01*
X188069590Y-75451694D01*
X188026144Y-75400000D01*
X187975751Y-75324406D01*
X187928248Y-75239878D01*
X187921480Y-75226333D01*
X187843696Y-75067583D01*
X187844186Y-74781833D01*
X187845334Y-74658913D01*
X187849089Y-74568189D01*
X187856647Y-74499548D01*
X187869202Y-74442875D01*
X187887951Y-74388057D01*
X187891923Y-74377987D01*
X187974735Y-74224097D01*
X188086011Y-74097455D01*
X188220065Y-74000562D01*
X188371212Y-73935923D01*
X188533767Y-73906040D01*
X188702047Y-73913417D01*
X188854292Y-73954211D01*
X188912500Y-73976452D01*
X188912500Y-73650516D01*
X188912746Y-73526257D01*
X188914185Y-73436817D01*
X188917870Y-73374685D01*
X188924854Y-73332347D01*
X188936189Y-73302291D01*
X188952929Y-73277004D01*
X188967298Y-73259457D01*
X189036150Y-73205977D01*
X189115088Y-73190720D01*
X189195883Y-73213743D01*
X189254062Y-73257472D01*
X189317202Y-73320612D01*
X189317202Y-73320612D01*
G36*
X181398342Y-74123873D02*
X181398337Y-74363676D01*
X181398333Y-74423065D01*
X181398333Y-75505733D01*
X181326367Y-75577699D01*
X181254400Y-75649666D01*
X181165500Y-75649666D01*
X181165500Y-75416833D01*
X181165500Y-74394373D01*
X181165500Y-73371913D01*
X180726292Y-72937230D01*
X180603224Y-72815643D01*
X180480012Y-72694300D01*
X180362704Y-72579129D01*
X180257347Y-72476059D01*
X180169992Y-72391017D01*
X180107167Y-72330394D01*
X179927250Y-72158240D01*
X179181125Y-72157703D01*
X178435000Y-72157166D01*
X178435000Y-73787000D01*
X178435000Y-75416833D01*
X179800250Y-75416833D01*
X181165500Y-75416833D01*
X181165500Y-75649666D01*
X179802700Y-75649666D01*
X178351001Y-75649666D01*
X178281875Y-75587902D01*
X178212750Y-75526139D01*
X178212750Y-73823690D01*
X178212851Y-73507281D01*
X178213184Y-73230595D01*
X178213793Y-72991023D01*
X178214721Y-72785955D01*
X178216013Y-72612781D01*
X178217712Y-72468891D01*
X178219861Y-72351676D01*
X178222506Y-72258527D01*
X178225689Y-72186833D01*
X178229455Y-72133985D01*
X178233847Y-72097373D01*
X178238909Y-72074388D01*
X178242272Y-72066078D01*
X178260011Y-72035892D01*
X178280550Y-72011212D01*
X178308045Y-71991502D01*
X178346654Y-71976227D01*
X178400534Y-71964849D01*
X178473842Y-71956834D01*
X178570734Y-71951644D01*
X178695368Y-71948745D01*
X178851900Y-71947599D01*
X179044488Y-71947671D01*
X179157865Y-71948004D01*
X179334072Y-71948959D01*
X179498712Y-71950547D01*
X179646525Y-71952665D01*
X179772252Y-71955210D01*
X179870634Y-71958077D01*
X179936412Y-71961163D01*
X179962753Y-71963879D01*
X179979227Y-71968484D01*
X179996784Y-71976048D01*
X180018292Y-71989146D01*
X180046621Y-72010353D01*
X180084640Y-72042244D01*
X180135217Y-72087395D01*
X180201220Y-72148381D01*
X180285520Y-72227776D01*
X180390984Y-72328157D01*
X180520481Y-72452099D01*
X180676881Y-72602176D01*
X180721000Y-72644541D01*
X180842165Y-72760707D01*
X180956605Y-72870066D01*
X181059909Y-72968429D01*
X181147663Y-73051607D01*
X181215455Y-73115411D01*
X181258873Y-73155652D01*
X181268169Y-73163988D01*
X181296453Y-73188576D01*
X181320316Y-73211143D01*
X181340133Y-73235317D01*
X181356281Y-73264727D01*
X181369133Y-73303000D01*
X181379065Y-73353765D01*
X181386452Y-73420650D01*
X181391669Y-73507284D01*
X181395092Y-73617295D01*
X181397095Y-73754311D01*
X181398053Y-73921961D01*
X181398342Y-74123873D01*
X181398342Y-74123873D01*
X181398342Y-74123873D01*
G37*
X181398342Y-74123873D02*
X181398337Y-74363676D01*
X181398333Y-74423065D01*
X181398333Y-75505733D01*
X181326367Y-75577699D01*
X181254400Y-75649666D01*
X181165500Y-75649666D01*
X181165500Y-75416833D01*
X181165500Y-74394373D01*
X181165500Y-73371913D01*
X180726292Y-72937230D01*
X180603224Y-72815643D01*
X180480012Y-72694300D01*
X180362704Y-72579129D01*
X180257347Y-72476059D01*
X180169992Y-72391017D01*
X180107167Y-72330394D01*
X179927250Y-72158240D01*
X179181125Y-72157703D01*
X178435000Y-72157166D01*
X178435000Y-73787000D01*
X178435000Y-75416833D01*
X179800250Y-75416833D01*
X181165500Y-75416833D01*
X181165500Y-75649666D01*
X179802700Y-75649666D01*
X178351001Y-75649666D01*
X178281875Y-75587902D01*
X178212750Y-75526139D01*
X178212750Y-73823690D01*
X178212851Y-73507281D01*
X178213184Y-73230595D01*
X178213793Y-72991023D01*
X178214721Y-72785955D01*
X178216013Y-72612781D01*
X178217712Y-72468891D01*
X178219861Y-72351676D01*
X178222506Y-72258527D01*
X178225689Y-72186833D01*
X178229455Y-72133985D01*
X178233847Y-72097373D01*
X178238909Y-72074388D01*
X178242272Y-72066078D01*
X178260011Y-72035892D01*
X178280550Y-72011212D01*
X178308045Y-71991502D01*
X178346654Y-71976227D01*
X178400534Y-71964849D01*
X178473842Y-71956834D01*
X178570734Y-71951644D01*
X178695368Y-71948745D01*
X178851900Y-71947599D01*
X179044488Y-71947671D01*
X179157865Y-71948004D01*
X179334072Y-71948959D01*
X179498712Y-71950547D01*
X179646525Y-71952665D01*
X179772252Y-71955210D01*
X179870634Y-71958077D01*
X179936412Y-71961163D01*
X179962753Y-71963879D01*
X179979227Y-71968484D01*
X179996784Y-71976048D01*
X180018292Y-71989146D01*
X180046621Y-72010353D01*
X180084640Y-72042244D01*
X180135217Y-72087395D01*
X180201220Y-72148381D01*
X180285520Y-72227776D01*
X180390984Y-72328157D01*
X180520481Y-72452099D01*
X180676881Y-72602176D01*
X180721000Y-72644541D01*
X180842165Y-72760707D01*
X180956605Y-72870066D01*
X181059909Y-72968429D01*
X181147663Y-73051607D01*
X181215455Y-73115411D01*
X181258873Y-73155652D01*
X181268169Y-73163988D01*
X181296453Y-73188576D01*
X181320316Y-73211143D01*
X181340133Y-73235317D01*
X181356281Y-73264727D01*
X181369133Y-73303000D01*
X181379065Y-73353765D01*
X181386452Y-73420650D01*
X181391669Y-73507284D01*
X181395092Y-73617295D01*
X181397095Y-73754311D01*
X181398053Y-73921961D01*
X181398342Y-74123873D01*
X181398342Y-74123873D01*
G36*
X184030117Y-73319876D02*
X184030070Y-73405914D01*
X184000389Y-73485634D01*
X183948077Y-73542186D01*
X183869059Y-73571204D01*
X183781482Y-73568934D01*
X183703934Y-73536130D01*
X183698558Y-73532082D01*
X183645840Y-73467629D01*
X183626232Y-73391338D01*
X183636193Y-73312560D01*
X183672184Y-73240645D01*
X183730665Y-73184943D01*
X183808095Y-73154805D01*
X183842455Y-73152000D01*
X183903299Y-73169799D01*
X183964539Y-73214815D01*
X184012119Y-73274474D01*
X184030117Y-73319876D01*
X184030117Y-73319876D01*
X184030117Y-73319876D01*
G37*
X184030117Y-73319876D02*
X184030070Y-73405914D01*
X184000389Y-73485634D01*
X183948077Y-73542186D01*
X183869059Y-73571204D01*
X183781482Y-73568934D01*
X183703934Y-73536130D01*
X183698558Y-73532082D01*
X183645840Y-73467629D01*
X183626232Y-73391338D01*
X183636193Y-73312560D01*
X183672184Y-73240645D01*
X183730665Y-73184943D01*
X183808095Y-73154805D01*
X183842455Y-73152000D01*
X183903299Y-73169799D01*
X183964539Y-73214815D01*
X184012119Y-73274474D01*
X184030117Y-73319876D01*
X184030117Y-73319876D01*
G36*
X181398333Y-72425050D02*
X181398057Y-72562365D01*
X181396827Y-72663376D01*
X181394040Y-72734112D01*
X181389090Y-72780603D01*
X181381374Y-72808877D01*
X181370288Y-72824962D01*
X181357391Y-72833755D01*
X181323955Y-72848803D01*
X181291676Y-72854042D01*
X181256184Y-72846573D01*
X181213105Y-72823492D01*
X181158068Y-72781898D01*
X181086699Y-72718891D01*
X180994627Y-72631568D01*
X180877478Y-72517028D01*
X180872076Y-72511708D01*
X180771088Y-72412355D01*
X180679115Y-72322072D01*
X180600804Y-72245406D01*
X180540805Y-72186905D01*
X180503766Y-72151114D01*
X180494917Y-72142803D01*
X180470197Y-72097061D01*
X180468498Y-72038521D01*
X180488127Y-71986569D01*
X180510367Y-71966113D01*
X180551618Y-71956837D01*
X180633679Y-71950859D01*
X180755151Y-71948232D01*
X180914637Y-71949009D01*
X180946030Y-71949493D01*
X181084972Y-71952145D01*
X181187677Y-71955215D01*
X181260240Y-71959390D01*
X181308756Y-71965359D01*
X181339319Y-71973810D01*
X181358026Y-71985432D01*
X181368329Y-71997170D01*
X181379649Y-72022414D01*
X181387920Y-72066226D01*
X181393519Y-72134015D01*
X181396828Y-72231191D01*
X181398225Y-72363165D01*
X181398333Y-72425050D01*
X181398333Y-72425050D01*
X181398333Y-72425050D01*
G37*
X181398333Y-72425050D02*
X181398057Y-72562365D01*
X181396827Y-72663376D01*
X181394040Y-72734112D01*
X181389090Y-72780603D01*
X181381374Y-72808877D01*
X181370288Y-72824962D01*
X181357391Y-72833755D01*
X181323955Y-72848803D01*
X181291676Y-72854042D01*
X181256184Y-72846573D01*
X181213105Y-72823492D01*
X181158068Y-72781898D01*
X181086699Y-72718891D01*
X180994627Y-72631568D01*
X180877478Y-72517028D01*
X180872076Y-72511708D01*
X180771088Y-72412355D01*
X180679115Y-72322072D01*
X180600804Y-72245406D01*
X180540805Y-72186905D01*
X180503766Y-72151114D01*
X180494917Y-72142803D01*
X180470197Y-72097061D01*
X180468498Y-72038521D01*
X180488127Y-71986569D01*
X180510367Y-71966113D01*
X180551618Y-71956837D01*
X180633679Y-71950859D01*
X180755151Y-71948232D01*
X180914637Y-71949009D01*
X180946030Y-71949493D01*
X181084972Y-71952145D01*
X181187677Y-71955215D01*
X181260240Y-71959390D01*
X181308756Y-71965359D01*
X181339319Y-71973810D01*
X181358026Y-71985432D01*
X181368329Y-71997170D01*
X181379649Y-72022414D01*
X181387920Y-72066226D01*
X181393519Y-72134015D01*
X181396828Y-72231191D01*
X181398225Y-72363165D01*
X181398333Y-72425050D01*
X181398333Y-72425050D01*
G36*
X181017333Y-74570166D02*
X181015699Y-74584392D01*
X181007204Y-74595014D01*
X180986459Y-74602557D01*
X180948076Y-74607548D01*
X180886667Y-74610511D01*
X180796842Y-74611972D01*
X180673214Y-74612458D01*
X180583417Y-74612500D01*
X180149500Y-74612500D01*
X180149500Y-74866500D01*
X180149084Y-74973720D01*
X180147059Y-75045625D01*
X180142254Y-75089229D01*
X180133501Y-75111548D01*
X180119629Y-75119597D01*
X180107167Y-75120500D01*
X180090415Y-75118301D01*
X180078781Y-75107369D01*
X180071335Y-75081198D01*
X180067150Y-75033282D01*
X180065294Y-74957115D01*
X180064838Y-74846192D01*
X180064833Y-74824166D01*
X180064833Y-74527833D01*
X180541083Y-74527833D01*
X180694757Y-74527968D01*
X180811242Y-74528680D01*
X180895685Y-74530424D01*
X180953230Y-74533659D01*
X180989022Y-74538842D01*
X181008206Y-74546431D01*
X181015928Y-74556881D01*
X181017333Y-74570166D01*
X181017333Y-74570166D01*
X181017333Y-74570166D01*
G37*
X181017333Y-74570166D02*
X181015699Y-74584392D01*
X181007204Y-74595014D01*
X180986459Y-74602557D01*
X180948076Y-74607548D01*
X180886667Y-74610511D01*
X180796842Y-74611972D01*
X180673214Y-74612458D01*
X180583417Y-74612500D01*
X180149500Y-74612500D01*
X180149500Y-74866500D01*
X180149084Y-74973720D01*
X180147059Y-75045625D01*
X180142254Y-75089229D01*
X180133501Y-75111548D01*
X180119629Y-75119597D01*
X180107167Y-75120500D01*
X180090415Y-75118301D01*
X180078781Y-75107369D01*
X180071335Y-75081198D01*
X180067150Y-75033282D01*
X180065294Y-74957115D01*
X180064838Y-74846192D01*
X180064833Y-74824166D01*
X180064833Y-74527833D01*
X180541083Y-74527833D01*
X180694757Y-74527968D01*
X180811242Y-74528680D01*
X180895685Y-74530424D01*
X180953230Y-74533659D01*
X180989022Y-74538842D01*
X181008206Y-74546431D01*
X181015928Y-74556881D01*
X181017333Y-74570166D01*
X181017333Y-74570166D01*
G36*
X181038557Y-73820139D02*
X180926738Y-73930569D01*
X180867919Y-73987155D01*
X180825043Y-74020104D01*
X180822823Y-74020957D01*
X180822823Y-73828556D01*
X180815768Y-73795407D01*
X180813525Y-73791722D01*
X180796511Y-73775158D01*
X180765016Y-73763772D01*
X180711402Y-73756312D01*
X180628034Y-73751525D01*
X180554701Y-73749265D01*
X180318833Y-73743280D01*
X180318833Y-73818056D01*
X180318833Y-73892833D01*
X180535792Y-73892160D01*
X180649282Y-73889689D01*
X180727339Y-73882547D01*
X180776687Y-73869893D01*
X180794616Y-73859840D01*
X180822823Y-73828556D01*
X180822823Y-74020957D01*
X180784210Y-74035805D01*
X180731522Y-74040647D01*
X180686544Y-74041000D01*
X180603591Y-74039384D01*
X180498123Y-74035096D01*
X180389814Y-74028977D01*
X180364418Y-74027247D01*
X180170667Y-74013494D01*
X180170667Y-73952612D01*
X180170667Y-73891730D01*
X179847875Y-73897573D01*
X179525083Y-73903416D01*
X179524366Y-73972263D01*
X179517679Y-74014565D01*
X179494610Y-74058928D01*
X179449260Y-74114492D01*
X179398029Y-74168054D01*
X179272408Y-74295000D01*
X179396904Y-74420808D01*
X179455034Y-74481106D01*
X179493473Y-74529462D01*
X179516421Y-74577394D01*
X179528080Y-74636418D01*
X179532652Y-74718052D01*
X179533903Y-74796367D01*
X179535667Y-74948484D01*
X179604458Y-74955117D01*
X179652131Y-74964662D01*
X179670629Y-74989366D01*
X179673250Y-75025250D01*
X179673250Y-75088750D01*
X179477458Y-75094835D01*
X179281667Y-75100921D01*
X179281667Y-75026044D01*
X179285111Y-74975922D01*
X179302671Y-74955224D01*
X179345167Y-74951166D01*
X179408667Y-74951166D01*
X179408667Y-74785793D01*
X179407474Y-74700664D01*
X179401734Y-74645704D01*
X179388202Y-74608765D01*
X179363634Y-74577704D01*
X179349300Y-74563543D01*
X179300749Y-74520972D01*
X179273808Y-74511629D01*
X179262440Y-74536684D01*
X179260500Y-74580750D01*
X179256931Y-74630541D01*
X179239009Y-74650962D01*
X179197927Y-74654833D01*
X179135354Y-74654833D01*
X179129135Y-74501375D01*
X179122917Y-74347916D01*
X178874208Y-74341953D01*
X178625500Y-74335989D01*
X178625500Y-74273161D01*
X178625500Y-74210333D01*
X178879500Y-74210333D01*
X179133500Y-74210333D01*
X179133500Y-74062166D01*
X179133500Y-73914000D01*
X179197000Y-73914000D01*
X179237717Y-73917343D01*
X179255817Y-73935461D01*
X179260400Y-73980486D01*
X179260500Y-73998666D01*
X179264974Y-74059136D01*
X179281124Y-74079759D01*
X179313036Y-74062337D01*
X179341477Y-74034344D01*
X179363154Y-74006640D01*
X179376784Y-73972889D01*
X179384169Y-73923139D01*
X179387114Y-73847438D01*
X179387500Y-73780344D01*
X179387500Y-73575333D01*
X179324000Y-73575333D01*
X179260500Y-73575333D01*
X179260500Y-73236666D01*
X179260500Y-72898000D01*
X179321644Y-72898000D01*
X179363896Y-72892317D01*
X179385657Y-72867006D01*
X179396968Y-72822414D01*
X179402930Y-72766692D01*
X179406556Y-72683535D01*
X179407305Y-72587801D01*
X179406755Y-72552539D01*
X179402361Y-72358250D01*
X179469014Y-72351617D01*
X179535667Y-72344984D01*
X179535667Y-72621492D01*
X179535667Y-72898000D01*
X179599167Y-72898000D01*
X179662667Y-72898000D01*
X179662667Y-73235325D01*
X179662667Y-73572651D01*
X179593875Y-73579283D01*
X179550314Y-73586924D01*
X179535667Y-73600912D01*
X179535667Y-73448333D01*
X179535667Y-73236666D01*
X179535667Y-73025000D01*
X179472167Y-73025000D01*
X179408667Y-73025000D01*
X179408667Y-73236666D01*
X179408667Y-73448333D01*
X179472167Y-73448333D01*
X179535667Y-73448333D01*
X179535667Y-73600912D01*
X179529145Y-73607141D01*
X179520438Y-73652668D01*
X179518574Y-73675875D01*
X179512066Y-73765833D01*
X179841366Y-73765833D01*
X180170667Y-73765833D01*
X180170667Y-73681166D01*
X180170667Y-73596500D01*
X180494181Y-73596500D01*
X180817696Y-73596500D01*
X180928127Y-73708319D01*
X181038557Y-73820139D01*
X181038557Y-73820139D01*
X181038557Y-73820139D01*
G37*
X181038557Y-73820139D02*
X180926738Y-73930569D01*
X180867919Y-73987155D01*
X180825043Y-74020104D01*
X180822823Y-74020957D01*
X180822823Y-73828556D01*
X180815768Y-73795407D01*
X180813525Y-73791722D01*
X180796511Y-73775158D01*
X180765016Y-73763772D01*
X180711402Y-73756312D01*
X180628034Y-73751525D01*
X180554701Y-73749265D01*
X180318833Y-73743280D01*
X180318833Y-73818056D01*
X180318833Y-73892833D01*
X180535792Y-73892160D01*
X180649282Y-73889689D01*
X180727339Y-73882547D01*
X180776687Y-73869893D01*
X180794616Y-73859840D01*
X180822823Y-73828556D01*
X180822823Y-74020957D01*
X180784210Y-74035805D01*
X180731522Y-74040647D01*
X180686544Y-74041000D01*
X180603591Y-74039384D01*
X180498123Y-74035096D01*
X180389814Y-74028977D01*
X180364418Y-74027247D01*
X180170667Y-74013494D01*
X180170667Y-73952612D01*
X180170667Y-73891730D01*
X179847875Y-73897573D01*
X179525083Y-73903416D01*
X179524366Y-73972263D01*
X179517679Y-74014565D01*
X179494610Y-74058928D01*
X179449260Y-74114492D01*
X179398029Y-74168054D01*
X179272408Y-74295000D01*
X179396904Y-74420808D01*
X179455034Y-74481106D01*
X179493473Y-74529462D01*
X179516421Y-74577394D01*
X179528080Y-74636418D01*
X179532652Y-74718052D01*
X179533903Y-74796367D01*
X179535667Y-74948484D01*
X179604458Y-74955117D01*
X179652131Y-74964662D01*
X179670629Y-74989366D01*
X179673250Y-75025250D01*
X179673250Y-75088750D01*
X179477458Y-75094835D01*
X179281667Y-75100921D01*
X179281667Y-75026044D01*
X179285111Y-74975922D01*
X179302671Y-74955224D01*
X179345167Y-74951166D01*
X179408667Y-74951166D01*
X179408667Y-74785793D01*
X179407474Y-74700664D01*
X179401734Y-74645704D01*
X179388202Y-74608765D01*
X179363634Y-74577704D01*
X179349300Y-74563543D01*
X179300749Y-74520972D01*
X179273808Y-74511629D01*
X179262440Y-74536684D01*
X179260500Y-74580750D01*
X179256931Y-74630541D01*
X179239009Y-74650962D01*
X179197927Y-74654833D01*
X179135354Y-74654833D01*
X179129135Y-74501375D01*
X179122917Y-74347916D01*
X178874208Y-74341953D01*
X178625500Y-74335989D01*
X178625500Y-74273161D01*
X178625500Y-74210333D01*
X178879500Y-74210333D01*
X179133500Y-74210333D01*
X179133500Y-74062166D01*
X179133500Y-73914000D01*
X179197000Y-73914000D01*
X179237717Y-73917343D01*
X179255817Y-73935461D01*
X179260400Y-73980486D01*
X179260500Y-73998666D01*
X179264974Y-74059136D01*
X179281124Y-74079759D01*
X179313036Y-74062337D01*
X179341477Y-74034344D01*
X179363154Y-74006640D01*
X179376784Y-73972889D01*
X179384169Y-73923139D01*
X179387114Y-73847438D01*
X179387500Y-73780344D01*
X179387500Y-73575333D01*
X179324000Y-73575333D01*
X179260500Y-73575333D01*
X179260500Y-73236666D01*
X179260500Y-72898000D01*
X179321644Y-72898000D01*
X179363896Y-72892317D01*
X179385657Y-72867006D01*
X179396968Y-72822414D01*
X179402930Y-72766692D01*
X179406556Y-72683535D01*
X179407305Y-72587801D01*
X179406755Y-72552539D01*
X179402361Y-72358250D01*
X179469014Y-72351617D01*
X179535667Y-72344984D01*
X179535667Y-72621492D01*
X179535667Y-72898000D01*
X179599167Y-72898000D01*
X179662667Y-72898000D01*
X179662667Y-73235325D01*
X179662667Y-73572651D01*
X179593875Y-73579283D01*
X179550314Y-73586924D01*
X179535667Y-73600912D01*
X179535667Y-73448333D01*
X179535667Y-73236666D01*
X179535667Y-73025000D01*
X179472167Y-73025000D01*
X179408667Y-73025000D01*
X179408667Y-73236666D01*
X179408667Y-73448333D01*
X179472167Y-73448333D01*
X179535667Y-73448333D01*
X179535667Y-73600912D01*
X179529145Y-73607141D01*
X179520438Y-73652668D01*
X179518574Y-73675875D01*
X179512066Y-73765833D01*
X179841366Y-73765833D01*
X180170667Y-73765833D01*
X180170667Y-73681166D01*
X180170667Y-73596500D01*
X180494181Y-73596500D01*
X180817696Y-73596500D01*
X180928127Y-73708319D01*
X181038557Y-73820139D01*
X181038557Y-73820139D01*
G36*
X180996167Y-75099333D02*
X180869167Y-75099333D01*
X180742167Y-75099333D01*
X180742167Y-75025250D01*
X180742167Y-74951166D01*
X180869167Y-74951166D01*
X180996167Y-74951166D01*
X180996167Y-75025250D01*
X180996167Y-75099333D01*
X180996167Y-75099333D01*
X180996167Y-75099333D01*
G37*
X180996167Y-75099333D02*
X180869167Y-75099333D01*
X180742167Y-75099333D01*
X180742167Y-75025250D01*
X180742167Y-74951166D01*
X180869167Y-74951166D01*
X180996167Y-74951166D01*
X180996167Y-75025250D01*
X180996167Y-75099333D01*
X180996167Y-75099333D01*
G36*
X180467000Y-75025250D02*
X180464587Y-75053695D01*
X180450974Y-75069539D01*
X180416595Y-75076460D01*
X180351887Y-75078136D01*
X180329417Y-75078166D01*
X180255458Y-75077238D01*
X180214263Y-75072002D01*
X180196270Y-75058780D01*
X180191913Y-75033892D01*
X180191833Y-75025250D01*
X180194246Y-74996804D01*
X180207859Y-74980960D01*
X180242238Y-74974039D01*
X180306946Y-74972363D01*
X180329417Y-74972333D01*
X180403375Y-74973261D01*
X180444570Y-74978497D01*
X180462563Y-74991719D01*
X180466920Y-75016607D01*
X180467000Y-75025250D01*
X180467000Y-75025250D01*
X180467000Y-75025250D01*
G37*
X180467000Y-75025250D02*
X180464587Y-75053695D01*
X180450974Y-75069539D01*
X180416595Y-75076460D01*
X180351887Y-75078136D01*
X180329417Y-75078166D01*
X180255458Y-75077238D01*
X180214263Y-75072002D01*
X180196270Y-75058780D01*
X180191913Y-75033892D01*
X180191833Y-75025250D01*
X180194246Y-74996804D01*
X180207859Y-74980960D01*
X180242238Y-74974039D01*
X180306946Y-74972363D01*
X180329417Y-74972333D01*
X180403375Y-74973261D01*
X180444570Y-74978497D01*
X180462563Y-74991719D01*
X180466920Y-75016607D01*
X180467000Y-75025250D01*
X180467000Y-75025250D01*
G36*
X180467000Y-74728916D02*
X180464311Y-74758243D01*
X180449617Y-74774077D01*
X180412977Y-74780559D01*
X180344451Y-74781832D01*
X180340000Y-74781833D01*
X180269615Y-74780712D01*
X180231614Y-74774590D01*
X180216057Y-74759323D01*
X180213003Y-74730771D01*
X180213000Y-74728916D01*
X180215689Y-74699589D01*
X180230383Y-74683755D01*
X180267023Y-74677273D01*
X180335548Y-74676001D01*
X180340000Y-74676000D01*
X180410385Y-74677120D01*
X180448386Y-74683242D01*
X180463943Y-74698509D01*
X180466997Y-74727061D01*
X180467000Y-74728916D01*
X180467000Y-74728916D01*
X180467000Y-74728916D01*
G37*
X180467000Y-74728916D02*
X180464311Y-74758243D01*
X180449617Y-74774077D01*
X180412977Y-74780559D01*
X180344451Y-74781832D01*
X180340000Y-74781833D01*
X180269615Y-74780712D01*
X180231614Y-74774590D01*
X180216057Y-74759323D01*
X180213003Y-74730771D01*
X180213000Y-74728916D01*
X180215689Y-74699589D01*
X180230383Y-74683755D01*
X180267023Y-74677273D01*
X180335548Y-74676001D01*
X180340000Y-74676000D01*
X180410385Y-74677120D01*
X180448386Y-74683242D01*
X180463943Y-74698509D01*
X180466997Y-74727061D01*
X180467000Y-74728916D01*
X180467000Y-74728916D01*
G36*
X180993609Y-74756684D02*
X180984411Y-74770676D01*
X180956942Y-74778192D01*
X180903393Y-74781242D01*
X180815955Y-74781832D01*
X180807139Y-74781833D01*
X180716543Y-74781438D01*
X180660165Y-74778738D01*
X180629889Y-74771462D01*
X180617599Y-74757337D01*
X180615180Y-74734092D01*
X180615167Y-74728092D01*
X180615167Y-74674351D01*
X180800375Y-74680467D01*
X180889448Y-74684141D01*
X180944728Y-74689570D01*
X180974749Y-74699143D01*
X180988047Y-74715250D01*
X180992347Y-74734208D01*
X180993609Y-74756684D01*
X180993609Y-74756684D01*
X180993609Y-74756684D01*
G37*
X180993609Y-74756684D02*
X180984411Y-74770676D01*
X180956942Y-74778192D01*
X180903393Y-74781242D01*
X180815955Y-74781832D01*
X180807139Y-74781833D01*
X180716543Y-74781438D01*
X180660165Y-74778738D01*
X180629889Y-74771462D01*
X180617599Y-74757337D01*
X180615180Y-74734092D01*
X180615167Y-74728092D01*
X180615167Y-74674351D01*
X180800375Y-74680467D01*
X180889448Y-74684141D01*
X180944728Y-74689570D01*
X180974749Y-74699143D01*
X180988047Y-74715250D01*
X180992347Y-74734208D01*
X180993609Y-74756684D01*
X180993609Y-74756684D01*
G36*
X168277378Y-112159418D02*
X168275238Y-112753076D01*
X168275000Y-112937945D01*
X168273032Y-113578217D01*
X168266365Y-114068453D01*
X168253856Y-114427914D01*
X168234361Y-114675861D01*
X168206735Y-114831554D01*
X168169835Y-114914252D01*
X168156831Y-114927670D01*
X167989596Y-114999142D01*
X167851667Y-115029474D01*
X167851667Y-114575748D01*
X167851667Y-112982371D01*
X167847611Y-112461909D01*
X167836250Y-112012332D01*
X167818795Y-111658665D01*
X167796453Y-111425937D01*
X167772275Y-111339926D01*
X167660827Y-111309092D01*
X167418552Y-111262619D01*
X167082493Y-111207095D01*
X166735108Y-111155485D01*
X166106640Y-111093536D01*
X165379051Y-111065245D01*
X164609137Y-111069497D01*
X163853692Y-111105179D01*
X163169514Y-111171176D01*
X162771667Y-111233237D01*
X162221333Y-111337859D01*
X162198366Y-112959143D01*
X162175399Y-114580426D01*
X162748699Y-114671198D01*
X163084613Y-114723928D01*
X163389424Y-114771002D01*
X163576000Y-114799091D01*
X163816169Y-114816739D01*
X164187525Y-114823161D01*
X164652383Y-114819617D01*
X165173057Y-114807364D01*
X165711862Y-114787660D01*
X166231112Y-114761761D01*
X166693122Y-114730926D01*
X167060206Y-114696412D01*
X167195500Y-114678306D01*
X167851667Y-114575748D01*
X167851667Y-115029474D01*
X167680275Y-115067166D01*
X167256113Y-115129037D01*
X166744356Y-115182051D01*
X166172249Y-115223504D01*
X165567039Y-115250692D01*
X164955969Y-115260910D01*
X164803667Y-115260483D01*
X164318669Y-115255260D01*
X163879889Y-115247201D01*
X163521154Y-115237183D01*
X163276292Y-115226080D01*
X163195000Y-115218816D01*
X162688428Y-115135236D01*
X162280639Y-115052708D01*
X161995462Y-114976632D01*
X161861500Y-114916674D01*
X161824465Y-114838849D01*
X161796306Y-114663790D01*
X161776198Y-114376075D01*
X161763317Y-113960284D01*
X161756837Y-113400996D01*
X161755667Y-112937945D01*
X161756618Y-112321599D01*
X161760577Y-111853164D01*
X161769200Y-111511224D01*
X161784144Y-111274362D01*
X161807066Y-111121160D01*
X161839622Y-111030203D01*
X161883468Y-110980073D01*
X161908312Y-110964597D01*
X162174200Y-110871179D01*
X162579761Y-110791175D01*
X163095773Y-110725830D01*
X163693015Y-110676389D01*
X164342264Y-110644099D01*
X165014298Y-110630204D01*
X165679896Y-110635950D01*
X166309834Y-110662582D01*
X166874891Y-110711346D01*
X167113193Y-110742783D01*
X167478658Y-110794423D01*
X167758762Y-110839352D01*
X167964766Y-110898847D01*
X168107929Y-110994182D01*
X168199512Y-111146632D01*
X168250775Y-111377471D01*
X168272977Y-111707975D01*
X168277378Y-112159418D01*
X168277378Y-112159418D01*
X168277378Y-112159418D01*
G37*
X168277378Y-112159418D02*
X168275238Y-112753076D01*
X168275000Y-112937945D01*
X168273032Y-113578217D01*
X168266365Y-114068453D01*
X168253856Y-114427914D01*
X168234361Y-114675861D01*
X168206735Y-114831554D01*
X168169835Y-114914252D01*
X168156831Y-114927670D01*
X167989596Y-114999142D01*
X167851667Y-115029474D01*
X167851667Y-114575748D01*
X167851667Y-112982371D01*
X167847611Y-112461909D01*
X167836250Y-112012332D01*
X167818795Y-111658665D01*
X167796453Y-111425937D01*
X167772275Y-111339926D01*
X167660827Y-111309092D01*
X167418552Y-111262619D01*
X167082493Y-111207095D01*
X166735108Y-111155485D01*
X166106640Y-111093536D01*
X165379051Y-111065245D01*
X164609137Y-111069497D01*
X163853692Y-111105179D01*
X163169514Y-111171176D01*
X162771667Y-111233237D01*
X162221333Y-111337859D01*
X162198366Y-112959143D01*
X162175399Y-114580426D01*
X162748699Y-114671198D01*
X163084613Y-114723928D01*
X163389424Y-114771002D01*
X163576000Y-114799091D01*
X163816169Y-114816739D01*
X164187525Y-114823161D01*
X164652383Y-114819617D01*
X165173057Y-114807364D01*
X165711862Y-114787660D01*
X166231112Y-114761761D01*
X166693122Y-114730926D01*
X167060206Y-114696412D01*
X167195500Y-114678306D01*
X167851667Y-114575748D01*
X167851667Y-115029474D01*
X167680275Y-115067166D01*
X167256113Y-115129037D01*
X166744356Y-115182051D01*
X166172249Y-115223504D01*
X165567039Y-115250692D01*
X164955969Y-115260910D01*
X164803667Y-115260483D01*
X164318669Y-115255260D01*
X163879889Y-115247201D01*
X163521154Y-115237183D01*
X163276292Y-115226080D01*
X163195000Y-115218816D01*
X162688428Y-115135236D01*
X162280639Y-115052708D01*
X161995462Y-114976632D01*
X161861500Y-114916674D01*
X161824465Y-114838849D01*
X161796306Y-114663790D01*
X161776198Y-114376075D01*
X161763317Y-113960284D01*
X161756837Y-113400996D01*
X161755667Y-112937945D01*
X161756618Y-112321599D01*
X161760577Y-111853164D01*
X161769200Y-111511224D01*
X161784144Y-111274362D01*
X161807066Y-111121160D01*
X161839622Y-111030203D01*
X161883468Y-110980073D01*
X161908312Y-110964597D01*
X162174200Y-110871179D01*
X162579761Y-110791175D01*
X163095773Y-110725830D01*
X163693015Y-110676389D01*
X164342264Y-110644099D01*
X165014298Y-110630204D01*
X165679896Y-110635950D01*
X166309834Y-110662582D01*
X166874891Y-110711346D01*
X167113193Y-110742783D01*
X167478658Y-110794423D01*
X167758762Y-110839352D01*
X167964766Y-110898847D01*
X168107929Y-110994182D01*
X168199512Y-111146632D01*
X168250775Y-111377471D01*
X168272977Y-111707975D01*
X168277378Y-112159418D01*
X168277378Y-112159418D01*
G36*
X165315670Y-113304396D02*
X165268189Y-113687950D01*
X165103447Y-114037481D01*
X164829161Y-114306811D01*
X164687903Y-114380168D01*
X164499567Y-114430105D01*
X164228715Y-114461878D01*
X163839911Y-114480742D01*
X163618333Y-114486393D01*
X163221939Y-114490691D01*
X162883647Y-114486729D01*
X162641870Y-114475450D01*
X162538833Y-114459953D01*
X162449971Y-114342885D01*
X162441884Y-114164760D01*
X162509694Y-114010596D01*
X162566925Y-113970391D01*
X162705727Y-113948378D01*
X162969799Y-113931077D01*
X163315093Y-113920813D01*
X163540591Y-113919000D01*
X164022135Y-113903429D01*
X164358671Y-113849481D01*
X164572272Y-113746299D01*
X164685013Y-113583028D01*
X164718967Y-113348811D01*
X164719000Y-113339455D01*
X164652502Y-113075492D01*
X164447858Y-112888644D01*
X164097342Y-112773320D01*
X163895924Y-112743904D01*
X163620361Y-112708063D01*
X163473693Y-112662056D01*
X163415873Y-112584255D01*
X163406667Y-112479666D01*
X163417631Y-112365268D01*
X163475964Y-112298955D01*
X163619824Y-112264166D01*
X163887369Y-112244341D01*
X163957000Y-112240817D01*
X164373280Y-112244844D01*
X164672980Y-112309245D01*
X164767279Y-112351786D01*
X165063942Y-112596094D01*
X165247163Y-112927037D01*
X165315670Y-113304396D01*
X165315670Y-113304396D01*
X165315670Y-113304396D01*
G37*
X165315670Y-113304396D02*
X165268189Y-113687950D01*
X165103447Y-114037481D01*
X164829161Y-114306811D01*
X164687903Y-114380168D01*
X164499567Y-114430105D01*
X164228715Y-114461878D01*
X163839911Y-114480742D01*
X163618333Y-114486393D01*
X163221939Y-114490691D01*
X162883647Y-114486729D01*
X162641870Y-114475450D01*
X162538833Y-114459953D01*
X162449971Y-114342885D01*
X162441884Y-114164760D01*
X162509694Y-114010596D01*
X162566925Y-113970391D01*
X162705727Y-113948378D01*
X162969799Y-113931077D01*
X163315093Y-113920813D01*
X163540591Y-113919000D01*
X164022135Y-113903429D01*
X164358671Y-113849481D01*
X164572272Y-113746299D01*
X164685013Y-113583028D01*
X164718967Y-113348811D01*
X164719000Y-113339455D01*
X164652502Y-113075492D01*
X164447858Y-112888644D01*
X164097342Y-112773320D01*
X163895924Y-112743904D01*
X163620361Y-112708063D01*
X163473693Y-112662056D01*
X163415873Y-112584255D01*
X163406667Y-112479666D01*
X163417631Y-112365268D01*
X163475964Y-112298955D01*
X163619824Y-112264166D01*
X163887369Y-112244341D01*
X163957000Y-112240817D01*
X164373280Y-112244844D01*
X164672980Y-112309245D01*
X164767279Y-112351786D01*
X165063942Y-112596094D01*
X165247163Y-112927037D01*
X165315670Y-113304396D01*
X165315670Y-113304396D01*
G36*
X167512068Y-113395399D02*
X167492138Y-113918157D01*
X167431339Y-114281069D01*
X167330294Y-114482846D01*
X167189624Y-114522203D01*
X167021933Y-114410066D01*
X166968682Y-114264488D01*
X166934686Y-113957882D01*
X166920676Y-113497537D01*
X166920333Y-113398050D01*
X166911764Y-113000735D01*
X166888630Y-112648407D01*
X166854790Y-112386877D01*
X166826241Y-112281124D01*
X166682675Y-112111654D01*
X166448328Y-111964565D01*
X166402908Y-111945284D01*
X166181838Y-111834786D01*
X166087007Y-111708972D01*
X166073667Y-111603685D01*
X166137639Y-111427243D01*
X166305569Y-111343667D01*
X166541475Y-111350481D01*
X166809374Y-111445205D01*
X167073284Y-111625361D01*
X167127278Y-111676255D01*
X167278560Y-111852985D01*
X167385216Y-112052797D01*
X167454517Y-112308186D01*
X167493737Y-112651649D01*
X167510149Y-113115682D01*
X167512068Y-113395399D01*
X167512068Y-113395399D01*
X167512068Y-113395399D01*
G37*
X167512068Y-113395399D02*
X167492138Y-113918157D01*
X167431339Y-114281069D01*
X167330294Y-114482846D01*
X167189624Y-114522203D01*
X167021933Y-114410066D01*
X166968682Y-114264488D01*
X166934686Y-113957882D01*
X166920676Y-113497537D01*
X166920333Y-113398050D01*
X166911764Y-113000735D01*
X166888630Y-112648407D01*
X166854790Y-112386877D01*
X166826241Y-112281124D01*
X166682675Y-112111654D01*
X166448328Y-111964565D01*
X166402908Y-111945284D01*
X166181838Y-111834786D01*
X166087007Y-111708972D01*
X166073667Y-111603685D01*
X166137639Y-111427243D01*
X166305569Y-111343667D01*
X166541475Y-111350481D01*
X166809374Y-111445205D01*
X167073284Y-111625361D01*
X167127278Y-111676255D01*
X167278560Y-111852985D01*
X167385216Y-112052797D01*
X167454517Y-112308186D01*
X167493737Y-112651649D01*
X167510149Y-113115682D01*
X167512068Y-113395399D01*
X167512068Y-113395399D01*
G36*
X166168199Y-113029520D02*
X166144174Y-113326519D01*
X166092217Y-113536327D01*
X166031333Y-113610951D01*
X165839305Y-113641023D01*
X165718857Y-113544621D01*
X165660111Y-113307874D01*
X165650333Y-113075909D01*
X165615254Y-112580412D01*
X165507985Y-112230937D01*
X165325479Y-112018931D01*
X165261135Y-111983336D01*
X165083694Y-111940401D01*
X164788586Y-111907319D01*
X164427408Y-111889058D01*
X164260767Y-111887000D01*
X163869142Y-111892548D01*
X163604346Y-111914080D01*
X163424098Y-111958927D01*
X163286114Y-112034422D01*
X163248751Y-112062478D01*
X163069754Y-112291739D01*
X163032202Y-112554950D01*
X163139386Y-112801950D01*
X163196312Y-112861854D01*
X163419206Y-112976454D01*
X163768642Y-113047508D01*
X163852479Y-113055644D01*
X164216848Y-113112077D01*
X164417648Y-113209606D01*
X164455808Y-113349155D01*
X164332257Y-113531647D01*
X164331952Y-113531952D01*
X164134853Y-113629949D01*
X163812223Y-113647715D01*
X163352121Y-113585860D01*
X163335751Y-113582719D01*
X162956002Y-113436080D01*
X162677556Y-113184501D01*
X162504496Y-112861686D01*
X162440901Y-112501335D01*
X162490854Y-112137151D01*
X162658435Y-111802837D01*
X162947726Y-111532094D01*
X163078528Y-111458569D01*
X163261860Y-111379187D01*
X163445289Y-111328824D01*
X163670337Y-111302875D01*
X163978528Y-111296734D01*
X164411384Y-111305796D01*
X164446491Y-111306852D01*
X164939486Y-111329266D01*
X165297435Y-111369823D01*
X165554523Y-111440716D01*
X165744932Y-111554137D01*
X165902845Y-111722277D01*
X166000625Y-111861171D01*
X166080505Y-112061154D01*
X166135582Y-112352259D01*
X166165074Y-112689907D01*
X166168199Y-113029520D01*
X166168199Y-113029520D01*
X166168199Y-113029520D01*
G37*
X166168199Y-113029520D02*
X166144174Y-113326519D01*
X166092217Y-113536327D01*
X166031333Y-113610951D01*
X165839305Y-113641023D01*
X165718857Y-113544621D01*
X165660111Y-113307874D01*
X165650333Y-113075909D01*
X165615254Y-112580412D01*
X165507985Y-112230937D01*
X165325479Y-112018931D01*
X165261135Y-111983336D01*
X165083694Y-111940401D01*
X164788586Y-111907319D01*
X164427408Y-111889058D01*
X164260767Y-111887000D01*
X163869142Y-111892548D01*
X163604346Y-111914080D01*
X163424098Y-111958927D01*
X163286114Y-112034422D01*
X163248751Y-112062478D01*
X163069754Y-112291739D01*
X163032202Y-112554950D01*
X163139386Y-112801950D01*
X163196312Y-112861854D01*
X163419206Y-112976454D01*
X163768642Y-113047508D01*
X163852479Y-113055644D01*
X164216848Y-113112077D01*
X164417648Y-113209606D01*
X164455808Y-113349155D01*
X164332257Y-113531647D01*
X164331952Y-113531952D01*
X164134853Y-113629949D01*
X163812223Y-113647715D01*
X163352121Y-113585860D01*
X163335751Y-113582719D01*
X162956002Y-113436080D01*
X162677556Y-113184501D01*
X162504496Y-112861686D01*
X162440901Y-112501335D01*
X162490854Y-112137151D01*
X162658435Y-111802837D01*
X162947726Y-111532094D01*
X163078528Y-111458569D01*
X163261860Y-111379187D01*
X163445289Y-111328824D01*
X163670337Y-111302875D01*
X163978528Y-111296734D01*
X164411384Y-111305796D01*
X164446491Y-111306852D01*
X164939486Y-111329266D01*
X165297435Y-111369823D01*
X165554523Y-111440716D01*
X165744932Y-111554137D01*
X165902845Y-111722277D01*
X166000625Y-111861171D01*
X166080505Y-112061154D01*
X166135582Y-112352259D01*
X166165074Y-112689907D01*
X166168199Y-113029520D01*
X166168199Y-113029520D01*
D11*
X178689000Y-86080600D02*
G75*
G03X178689000Y-86080600I-3175000J0D01*
G01*
X162179000Y-79476600D02*
X181229000Y-79476600D01*
X181229000Y-79476600D02*
X181229000Y-92684600D01*
X181229000Y-92684600D02*
X162179000Y-92684600D01*
D14*
X158115000Y-92798900D02*
X158115000Y-92417900D01*
X158115000Y-93814900D02*
X158115000Y-93433900D01*
X158115000Y-93433900D02*
X157734000Y-92798900D01*
X157734000Y-92798900D02*
X158496000Y-92798900D01*
X158496000Y-92798900D02*
X158115000Y-93433900D01*
X157607000Y-93433900D02*
X158623000Y-93433900D01*
X159015000Y-95116400D02*
X159015000Y-91576400D01*
X157215000Y-95116400D02*
X157215000Y-91576400D01*
D11*
X186182000Y-80010000D02*
X186182000Y-86360000D01*
X191262000Y-80010000D02*
X191262000Y-86360000D01*
D14*
X189992000Y-76581000D02*
X193294000Y-76581000D01*
X193294000Y-76581000D02*
X193294000Y-79629000D01*
X184912000Y-77089000D02*
X192786000Y-77089000D01*
X192786000Y-77089000D02*
X192786000Y-89281000D01*
X192786000Y-89281000D02*
X184912000Y-89281000D01*
X184912000Y-89281000D02*
X184912000Y-77089000D01*
X139128500Y-103759000D02*
X139509500Y-103759000D01*
X138112500Y-103759000D02*
X138493500Y-103759000D01*
X138493500Y-103759000D02*
X139128500Y-103378000D01*
X139128500Y-103378000D02*
X139128500Y-104140000D01*
X139128500Y-104140000D02*
X138493500Y-103759000D01*
X138493500Y-103251000D02*
X138493500Y-104267000D01*
X136811000Y-104659000D02*
X140351000Y-104659000D01*
X136811000Y-102859000D02*
X140351000Y-102859000D01*
X150173447Y-74763271D02*
X149466340Y-74056164D01*
X149634699Y-73887805D01*
X149769386Y-73820461D01*
X149904073Y-73820461D01*
X150005088Y-73854133D01*
X150173447Y-73955148D01*
X150274463Y-74056164D01*
X150375478Y-74224522D01*
X150409149Y-74325538D01*
X150409149Y-74460224D01*
X150341805Y-74594912D01*
X150173447Y-74763271D01*
X150207118Y-73450072D02*
X150207118Y-73382729D01*
X150240790Y-73281714D01*
X150409149Y-73113354D01*
X150510165Y-73079683D01*
X150577508Y-73079683D01*
X150678523Y-73113354D01*
X150745867Y-73180698D01*
X150813210Y-73315385D01*
X150813210Y-74123507D01*
X151250943Y-73685774D01*
X154551313Y-76312442D02*
X154551313Y-76245098D01*
X154584984Y-76144082D01*
X154787015Y-76076740D01*
X154820688Y-75975724D01*
X154820687Y-75908380D01*
X154762973Y-80746473D02*
X154762973Y-80695157D01*
X154788631Y-80618182D01*
X154942579Y-80566868D01*
X154968237Y-80489893D01*
X154968237Y-80438577D01*
X149199491Y-78817854D02*
X149883701Y-78133644D01*
X159796194Y-78638249D02*
X160480404Y-77954039D01*
X160480404Y-78638250D02*
X159796194Y-77954040D01*
X163695143Y-107386381D02*
X163361809Y-106910190D01*
X163123714Y-107386381D02*
X163123714Y-106386381D01*
X163504667Y-106386381D01*
X163599905Y-106434000D01*
X163647524Y-106481619D01*
X163695143Y-106576857D01*
X163695143Y-106719714D01*
X163647524Y-106814952D01*
X163599905Y-106862571D01*
X163504667Y-106910190D01*
X163123714Y-106910190D01*
X164647524Y-107386381D02*
X164076095Y-107386381D01*
X164361809Y-107386381D02*
X164361809Y-106386381D01*
X164266571Y-106529238D01*
X164171333Y-106624476D01*
X164076095Y-106672095D01*
X165599905Y-107386381D02*
X165028476Y-107386381D01*
X165314190Y-107386381D02*
X165314190Y-106386381D01*
X165218952Y-106529238D01*
X165123714Y-106624476D01*
X165028476Y-106672095D01*
D11*
X145288000Y-97118714D02*
X145034000Y-96755857D01*
X144852572Y-97118714D02*
X144852572Y-96356714D01*
X145142857Y-96356714D01*
X145215429Y-96393000D01*
X145251714Y-96429286D01*
X145288000Y-96501857D01*
X145288000Y-96610714D01*
X145251714Y-96683286D01*
X145215429Y-96719571D01*
X145142857Y-96755857D01*
X144852572Y-96755857D01*
X145650857Y-97118714D02*
X145796000Y-97118714D01*
X145868572Y-97082429D01*
X145904857Y-97046143D01*
X145977429Y-96937286D01*
X146013714Y-96792143D01*
X146013714Y-96501857D01*
X145977429Y-96429286D01*
X145941143Y-96393000D01*
X145868572Y-96356714D01*
X145723429Y-96356714D01*
X145650857Y-96393000D01*
X145614572Y-96429286D01*
X145578286Y-96501857D01*
X145578286Y-96683286D01*
X145614572Y-96755857D01*
X145650857Y-96792143D01*
X145723429Y-96828429D01*
X145868572Y-96828429D01*
X145941143Y-96792143D01*
X145977429Y-96755857D01*
X146013714Y-96683286D01*
X174062572Y-108167714D02*
X174244001Y-108929714D01*
X174389144Y-108385429D01*
X174534286Y-108929714D01*
X174715715Y-108167714D01*
X175332572Y-108421714D02*
X175332572Y-108929714D01*
X175151143Y-108131429D02*
X174969715Y-108675714D01*
X175441429Y-108675714D01*
X168833800Y-79012143D02*
X168797514Y-79048429D01*
X168688657Y-79084714D01*
X168616086Y-79084714D01*
X168507229Y-79048429D01*
X168434657Y-78975857D01*
X168398372Y-78903286D01*
X168362086Y-78758143D01*
X168362086Y-78649286D01*
X168398372Y-78504143D01*
X168434657Y-78431571D01*
X168507229Y-78359000D01*
X168616086Y-78322714D01*
X168688657Y-78322714D01*
X168797514Y-78359000D01*
X168833800Y-78395286D01*
X169559514Y-79084714D02*
X169124086Y-79084714D01*
X169341800Y-79084714D02*
X169341800Y-78322714D01*
X169269229Y-78431571D01*
X169196657Y-78504143D01*
X169124086Y-78540429D01*
X160782000Y-93816714D02*
X160528000Y-93453857D01*
X160346572Y-93816714D02*
X160346572Y-93054714D01*
X160636857Y-93054714D01*
X160709429Y-93091000D01*
X160745714Y-93127286D01*
X160782000Y-93199857D01*
X160782000Y-93308714D01*
X160745714Y-93381286D01*
X160709429Y-93417571D01*
X160636857Y-93453857D01*
X160346572Y-93453857D01*
X161036000Y-93054714D02*
X161544000Y-93054714D01*
X161217429Y-93816714D01*
X182880000Y-92855143D02*
X182843714Y-92891429D01*
X182734857Y-92927714D01*
X182662286Y-92927714D01*
X182553429Y-92891429D01*
X182480857Y-92818857D01*
X182444572Y-92746286D01*
X182408286Y-92601143D01*
X182408286Y-92492286D01*
X182444572Y-92347143D01*
X182480857Y-92274571D01*
X182553429Y-92202000D01*
X182662286Y-92165714D01*
X182734857Y-92165714D01*
X182843714Y-92202000D01*
X182880000Y-92238286D01*
X183533143Y-92165714D02*
X183388000Y-92165714D01*
X183315429Y-92202000D01*
X183279143Y-92238286D01*
X183206572Y-92347143D01*
X183170286Y-92492286D01*
X183170286Y-92782571D01*
X183206572Y-92855143D01*
X183242857Y-92891429D01*
X183315429Y-92927714D01*
X183460572Y-92927714D01*
X183533143Y-92891429D01*
X183569429Y-92855143D01*
X183605714Y-92782571D01*
X183605714Y-92601143D01*
X183569429Y-92528571D01*
X183533143Y-92492286D01*
X183460572Y-92456000D01*
X183315429Y-92456000D01*
X183242857Y-92492286D01*
X183206572Y-92528571D01*
X183170286Y-92601143D01*
X164261800Y-73855943D02*
X164225514Y-73892229D01*
X164116657Y-73928514D01*
X164044086Y-73928514D01*
X163935229Y-73892229D01*
X163862657Y-73819657D01*
X163826372Y-73747086D01*
X163790086Y-73601943D01*
X163790086Y-73493086D01*
X163826372Y-73347943D01*
X163862657Y-73275371D01*
X163935229Y-73202800D01*
X164044086Y-73166514D01*
X164116657Y-73166514D01*
X164225514Y-73202800D01*
X164261800Y-73239086D01*
X164552086Y-73239086D02*
X164588372Y-73202800D01*
X164660943Y-73166514D01*
X164842372Y-73166514D01*
X164914943Y-73202800D01*
X164951229Y-73239086D01*
X164987514Y-73311657D01*
X164987514Y-73384229D01*
X164951229Y-73493086D01*
X164515800Y-73928514D01*
X164987514Y-73928514D01*
X177692714Y-102561571D02*
X178309571Y-102561571D01*
X178382143Y-102525286D01*
X178418429Y-102489000D01*
X178454714Y-102416429D01*
X178454714Y-102271286D01*
X178418429Y-102198714D01*
X178382143Y-102162429D01*
X178309571Y-102126143D01*
X177692714Y-102126143D01*
X177765286Y-101799571D02*
X177729000Y-101763285D01*
X177692714Y-101690714D01*
X177692714Y-101509285D01*
X177729000Y-101436714D01*
X177765286Y-101400428D01*
X177837857Y-101364143D01*
X177910429Y-101364143D01*
X178019286Y-101400428D01*
X178454714Y-101835857D01*
X178454714Y-101364143D01*
X155371800Y-84396943D02*
X155335514Y-84433229D01*
X155226657Y-84469514D01*
X155154086Y-84469514D01*
X155045229Y-84433229D01*
X154972657Y-84360657D01*
X154936372Y-84288086D01*
X154900086Y-84142943D01*
X154900086Y-84034086D01*
X154936372Y-83888943D01*
X154972657Y-83816371D01*
X155045229Y-83743800D01*
X155154086Y-83707514D01*
X155226657Y-83707514D01*
X155335514Y-83743800D01*
X155371800Y-83780086D01*
X155625800Y-83707514D02*
X156097514Y-83707514D01*
X155843514Y-83997800D01*
X155952372Y-83997800D01*
X156024943Y-84034086D01*
X156061229Y-84070371D01*
X156097514Y-84142943D01*
X156097514Y-84324371D01*
X156061229Y-84396943D01*
X156024943Y-84433229D01*
X155952372Y-84469514D01*
X155734657Y-84469514D01*
X155662086Y-84433229D01*
X155625800Y-84396943D01*
X163753800Y-69334743D02*
X163717514Y-69371029D01*
X163608657Y-69407314D01*
X163536086Y-69407314D01*
X163427229Y-69371029D01*
X163354657Y-69298457D01*
X163318372Y-69225886D01*
X163282086Y-69080743D01*
X163282086Y-68971886D01*
X163318372Y-68826743D01*
X163354657Y-68754171D01*
X163427229Y-68681600D01*
X163536086Y-68645314D01*
X163608657Y-68645314D01*
X163717514Y-68681600D01*
X163753800Y-68717886D01*
X164406943Y-68899314D02*
X164406943Y-69407314D01*
X164225514Y-68609029D02*
X164044086Y-69153314D01*
X164515800Y-69153314D01*
X176276000Y-106698143D02*
X176239714Y-106734429D01*
X176130857Y-106770714D01*
X176058286Y-106770714D01*
X175949429Y-106734429D01*
X175876857Y-106661857D01*
X175840572Y-106589286D01*
X175804286Y-106444143D01*
X175804286Y-106335286D01*
X175840572Y-106190143D01*
X175876857Y-106117571D01*
X175949429Y-106045000D01*
X176058286Y-106008714D01*
X176130857Y-106008714D01*
X176239714Y-106045000D01*
X176276000Y-106081286D01*
X176965429Y-106008714D02*
X176602572Y-106008714D01*
X176566286Y-106371571D01*
X176602572Y-106335286D01*
X176675143Y-106299000D01*
X176856572Y-106299000D01*
X176929143Y-106335286D01*
X176965429Y-106371571D01*
X177001714Y-106444143D01*
X177001714Y-106625571D01*
X176965429Y-106698143D01*
X176929143Y-106734429D01*
X176856572Y-106770714D01*
X176675143Y-106770714D01*
X176602572Y-106734429D01*
X176566286Y-106698143D01*
X152908000Y-90442143D02*
X152871714Y-90478429D01*
X152762857Y-90514714D01*
X152690286Y-90514714D01*
X152581429Y-90478429D01*
X152508857Y-90405857D01*
X152472572Y-90333286D01*
X152436286Y-90188143D01*
X152436286Y-90079286D01*
X152472572Y-89934143D01*
X152508857Y-89861571D01*
X152581429Y-89789000D01*
X152690286Y-89752714D01*
X152762857Y-89752714D01*
X152871714Y-89789000D01*
X152908000Y-89825286D01*
X153162000Y-89752714D02*
X153670000Y-89752714D01*
X153343429Y-90514714D01*
X155575000Y-90569143D02*
X155538714Y-90605429D01*
X155429857Y-90641714D01*
X155357286Y-90641714D01*
X155248429Y-90605429D01*
X155175857Y-90532857D01*
X155139572Y-90460286D01*
X155103286Y-90315143D01*
X155103286Y-90206286D01*
X155139572Y-90061143D01*
X155175857Y-89988571D01*
X155248429Y-89916000D01*
X155357286Y-89879714D01*
X155429857Y-89879714D01*
X155538714Y-89916000D01*
X155575000Y-89952286D01*
X156010429Y-90206286D02*
X155937857Y-90170000D01*
X155901572Y-90133714D01*
X155865286Y-90061143D01*
X155865286Y-90024857D01*
X155901572Y-89952286D01*
X155937857Y-89916000D01*
X156010429Y-89879714D01*
X156155572Y-89879714D01*
X156228143Y-89916000D01*
X156264429Y-89952286D01*
X156300714Y-90024857D01*
X156300714Y-90061143D01*
X156264429Y-90133714D01*
X156228143Y-90170000D01*
X156155572Y-90206286D01*
X156010429Y-90206286D01*
X155937857Y-90242571D01*
X155901572Y-90278857D01*
X155865286Y-90351429D01*
X155865286Y-90496571D01*
X155901572Y-90569143D01*
X155937857Y-90605429D01*
X156010429Y-90641714D01*
X156155572Y-90641714D01*
X156228143Y-90605429D01*
X156264429Y-90569143D01*
X156300714Y-90496571D01*
X156300714Y-90351429D01*
X156264429Y-90278857D01*
X156228143Y-90242571D01*
X156155572Y-90206286D01*
X170942000Y-98570143D02*
X170905714Y-98606429D01*
X170796857Y-98642714D01*
X170724286Y-98642714D01*
X170615429Y-98606429D01*
X170542857Y-98533857D01*
X170506572Y-98461286D01*
X170470286Y-98316143D01*
X170470286Y-98207286D01*
X170506572Y-98062143D01*
X170542857Y-97989571D01*
X170615429Y-97917000D01*
X170724286Y-97880714D01*
X170796857Y-97880714D01*
X170905714Y-97917000D01*
X170942000Y-97953286D01*
X171304857Y-98642714D02*
X171450000Y-98642714D01*
X171522572Y-98606429D01*
X171558857Y-98570143D01*
X171631429Y-98461286D01*
X171667714Y-98316143D01*
X171667714Y-98025857D01*
X171631429Y-97953286D01*
X171595143Y-97917000D01*
X171522572Y-97880714D01*
X171377429Y-97880714D01*
X171304857Y-97917000D01*
X171268572Y-97953286D01*
X171232286Y-98025857D01*
X171232286Y-98207286D01*
X171268572Y-98279857D01*
X171304857Y-98316143D01*
X171377429Y-98352429D01*
X171522572Y-98352429D01*
X171595143Y-98316143D01*
X171631429Y-98279857D01*
X171667714Y-98207286D01*
X173119143Y-94633143D02*
X173082857Y-94669429D01*
X172974000Y-94705714D01*
X172901429Y-94705714D01*
X172792572Y-94669429D01*
X172720000Y-94596857D01*
X172683715Y-94524286D01*
X172647429Y-94379143D01*
X172647429Y-94270286D01*
X172683715Y-94125143D01*
X172720000Y-94052571D01*
X172792572Y-93980000D01*
X172901429Y-93943714D01*
X172974000Y-93943714D01*
X173082857Y-93980000D01*
X173119143Y-94016286D01*
X173844857Y-94705714D02*
X173409429Y-94705714D01*
X173627143Y-94705714D02*
X173627143Y-93943714D01*
X173554572Y-94052571D01*
X173482000Y-94125143D01*
X173409429Y-94161429D01*
X174316571Y-93943714D02*
X174389143Y-93943714D01*
X174461714Y-93980000D01*
X174498000Y-94016286D01*
X174534286Y-94088857D01*
X174570571Y-94234000D01*
X174570571Y-94415429D01*
X174534286Y-94560571D01*
X174498000Y-94633143D01*
X174461714Y-94669429D01*
X174389143Y-94705714D01*
X174316571Y-94705714D01*
X174244000Y-94669429D01*
X174207714Y-94633143D01*
X174171429Y-94560571D01*
X174135143Y-94415429D01*
X174135143Y-94234000D01*
X174171429Y-94088857D01*
X174207714Y-94016286D01*
X174244000Y-93980000D01*
X174316571Y-93943714D01*
X189429572Y-109158314D02*
X189429572Y-108396314D01*
X189611000Y-108396314D01*
X189719857Y-108432600D01*
X189792429Y-108505171D01*
X189828714Y-108577743D01*
X189865000Y-108722886D01*
X189865000Y-108831743D01*
X189828714Y-108976886D01*
X189792429Y-109049457D01*
X189719857Y-109122029D01*
X189611000Y-109158314D01*
X189429572Y-109158314D01*
X190119000Y-108396314D02*
X190590714Y-108396314D01*
X190336714Y-108686600D01*
X190445572Y-108686600D01*
X190518143Y-108722886D01*
X190554429Y-108759171D01*
X190590714Y-108831743D01*
X190590714Y-109013171D01*
X190554429Y-109085743D01*
X190518143Y-109122029D01*
X190445572Y-109158314D01*
X190227857Y-109158314D01*
X190155286Y-109122029D01*
X190119000Y-109085743D01*
X189226372Y-99760314D02*
X189226372Y-98998314D01*
X189407800Y-98998314D01*
X189516657Y-99034600D01*
X189589229Y-99107171D01*
X189625514Y-99179743D01*
X189661800Y-99324886D01*
X189661800Y-99433743D01*
X189625514Y-99578886D01*
X189589229Y-99651457D01*
X189516657Y-99724029D01*
X189407800Y-99760314D01*
X189226372Y-99760314D01*
X190351229Y-98998314D02*
X189988372Y-98998314D01*
X189952086Y-99361171D01*
X189988372Y-99324886D01*
X190060943Y-99288600D01*
X190242372Y-99288600D01*
X190314943Y-99324886D01*
X190351229Y-99361171D01*
X190387514Y-99433743D01*
X190387514Y-99615171D01*
X190351229Y-99687743D01*
X190314943Y-99724029D01*
X190242372Y-99760314D01*
X190060943Y-99760314D01*
X189988372Y-99724029D01*
X189952086Y-99687743D01*
X148662572Y-92165714D02*
X148662572Y-91403714D01*
X148844000Y-91403714D01*
X148952857Y-91440000D01*
X149025429Y-91512571D01*
X149061714Y-91585143D01*
X149098000Y-91730286D01*
X149098000Y-91839143D01*
X149061714Y-91984286D01*
X149025429Y-92056857D01*
X148952857Y-92129429D01*
X148844000Y-92165714D01*
X148662572Y-92165714D01*
X149751143Y-91403714D02*
X149606000Y-91403714D01*
X149533429Y-91440000D01*
X149497143Y-91476286D01*
X149424572Y-91585143D01*
X149388286Y-91730286D01*
X149388286Y-92020571D01*
X149424572Y-92093143D01*
X149460857Y-92129429D01*
X149533429Y-92165714D01*
X149678572Y-92165714D01*
X149751143Y-92129429D01*
X149787429Y-92093143D01*
X149823714Y-92020571D01*
X149823714Y-91839143D01*
X149787429Y-91766571D01*
X149751143Y-91730286D01*
X149678572Y-91694000D01*
X149533429Y-91694000D01*
X149460857Y-91730286D01*
X149424572Y-91766571D01*
X149388286Y-91839143D01*
X155692929Y-96873786D02*
X155620357Y-96837500D01*
X155547786Y-96764929D01*
X155438929Y-96656071D01*
X155366357Y-96619786D01*
X155293786Y-96619786D01*
X155330071Y-96801214D02*
X155257500Y-96764929D01*
X155184929Y-96692357D01*
X155148643Y-96547214D01*
X155148643Y-96293214D01*
X155184929Y-96148071D01*
X155257500Y-96075500D01*
X155330071Y-96039214D01*
X155475214Y-96039214D01*
X155547786Y-96075500D01*
X155620357Y-96148071D01*
X155656643Y-96293214D01*
X155656643Y-96547214D01*
X155620357Y-96692357D01*
X155547786Y-96764929D01*
X155475214Y-96801214D01*
X155330071Y-96801214D01*
X156382357Y-96801214D02*
X155946929Y-96801214D01*
X156164643Y-96801214D02*
X156164643Y-96039214D01*
X156092072Y-96148071D01*
X156019500Y-96220643D01*
X155946929Y-96256929D01*
X188798200Y-104840314D02*
X188544200Y-104477457D01*
X188362772Y-104840314D02*
X188362772Y-104078314D01*
X188653057Y-104078314D01*
X188725629Y-104114600D01*
X188761914Y-104150886D01*
X188798200Y-104223457D01*
X188798200Y-104332314D01*
X188761914Y-104404886D01*
X188725629Y-104441171D01*
X188653057Y-104477457D01*
X188362772Y-104477457D01*
X189523914Y-104840314D02*
X189088486Y-104840314D01*
X189306200Y-104840314D02*
X189306200Y-104078314D01*
X189233629Y-104187171D01*
X189161057Y-104259743D01*
X189088486Y-104296029D01*
X176022000Y-104611714D02*
X175768000Y-104248857D01*
X175586572Y-104611714D02*
X175586572Y-103849714D01*
X175876857Y-103849714D01*
X175949429Y-103886000D01*
X175985714Y-103922286D01*
X176022000Y-103994857D01*
X176022000Y-104103714D01*
X175985714Y-104176286D01*
X175949429Y-104212571D01*
X175876857Y-104248857D01*
X175586572Y-104248857D01*
X176312286Y-103922286D02*
X176348572Y-103886000D01*
X176421143Y-103849714D01*
X176602572Y-103849714D01*
X176675143Y-103886000D01*
X176711429Y-103922286D01*
X176747714Y-103994857D01*
X176747714Y-104067429D01*
X176711429Y-104176286D01*
X176276000Y-104611714D01*
X176747714Y-104611714D01*
X175514000Y-97118714D02*
X175260000Y-96755857D01*
X175078572Y-97118714D02*
X175078572Y-96356714D01*
X175368857Y-96356714D01*
X175441429Y-96393000D01*
X175477714Y-96429286D01*
X175514000Y-96501857D01*
X175514000Y-96610714D01*
X175477714Y-96683286D01*
X175441429Y-96719571D01*
X175368857Y-96755857D01*
X175078572Y-96755857D01*
X175768000Y-96356714D02*
X176239714Y-96356714D01*
X175985714Y-96647000D01*
X176094572Y-96647000D01*
X176167143Y-96683286D01*
X176203429Y-96719571D01*
X176239714Y-96792143D01*
X176239714Y-96973571D01*
X176203429Y-97046143D01*
X176167143Y-97082429D01*
X176094572Y-97118714D01*
X175876857Y-97118714D01*
X175804286Y-97082429D01*
X175768000Y-97046143D01*
X158496000Y-104230714D02*
X158242000Y-103867857D01*
X158060572Y-104230714D02*
X158060572Y-103468714D01*
X158350857Y-103468714D01*
X158423429Y-103505000D01*
X158459714Y-103541286D01*
X158496000Y-103613857D01*
X158496000Y-103722714D01*
X158459714Y-103795286D01*
X158423429Y-103831571D01*
X158350857Y-103867857D01*
X158060572Y-103867857D01*
X159149143Y-103722714D02*
X159149143Y-104230714D01*
X158967714Y-103432429D02*
X158786286Y-103976714D01*
X159258000Y-103976714D01*
X192659000Y-95848714D02*
X192405000Y-95485857D01*
X192223572Y-95848714D02*
X192223572Y-95086714D01*
X192513857Y-95086714D01*
X192586429Y-95123000D01*
X192622714Y-95159286D01*
X192659000Y-95231857D01*
X192659000Y-95340714D01*
X192622714Y-95413286D01*
X192586429Y-95449571D01*
X192513857Y-95485857D01*
X192223572Y-95485857D01*
X193348429Y-95086714D02*
X192985572Y-95086714D01*
X192949286Y-95449571D01*
X192985572Y-95413286D01*
X193058143Y-95377000D01*
X193239572Y-95377000D01*
X193312143Y-95413286D01*
X193348429Y-95449571D01*
X193384714Y-95522143D01*
X193384714Y-95703571D01*
X193348429Y-95776143D01*
X193312143Y-95812429D01*
X193239572Y-95848714D01*
X193058143Y-95848714D01*
X192985572Y-95812429D01*
X192949286Y-95776143D01*
X143891000Y-90895714D02*
X143637000Y-90532857D01*
X143455572Y-90895714D02*
X143455572Y-90133714D01*
X143745857Y-90133714D01*
X143818429Y-90170000D01*
X143854714Y-90206286D01*
X143891000Y-90278857D01*
X143891000Y-90387714D01*
X143854714Y-90460286D01*
X143818429Y-90496571D01*
X143745857Y-90532857D01*
X143455572Y-90532857D01*
X144326429Y-90460286D02*
X144253857Y-90424000D01*
X144217572Y-90387714D01*
X144181286Y-90315143D01*
X144181286Y-90278857D01*
X144217572Y-90206286D01*
X144253857Y-90170000D01*
X144326429Y-90133714D01*
X144471572Y-90133714D01*
X144544143Y-90170000D01*
X144580429Y-90206286D01*
X144616714Y-90278857D01*
X144616714Y-90315143D01*
X144580429Y-90387714D01*
X144544143Y-90424000D01*
X144471572Y-90460286D01*
X144326429Y-90460286D01*
X144253857Y-90496571D01*
X144217572Y-90532857D01*
X144181286Y-90605429D01*
X144181286Y-90750571D01*
X144217572Y-90823143D01*
X144253857Y-90859429D01*
X144326429Y-90895714D01*
X144471572Y-90895714D01*
X144544143Y-90859429D01*
X144580429Y-90823143D01*
X144616714Y-90750571D01*
X144616714Y-90605429D01*
X144580429Y-90532857D01*
X144544143Y-90496571D01*
X144471572Y-90460286D01*
X162959143Y-93943714D02*
X162705143Y-93580857D01*
X162523715Y-93943714D02*
X162523715Y-93181714D01*
X162814000Y-93181714D01*
X162886572Y-93218000D01*
X162922857Y-93254286D01*
X162959143Y-93326857D01*
X162959143Y-93435714D01*
X162922857Y-93508286D01*
X162886572Y-93544571D01*
X162814000Y-93580857D01*
X162523715Y-93580857D01*
X163684857Y-93943714D02*
X163249429Y-93943714D01*
X163467143Y-93943714D02*
X163467143Y-93181714D01*
X163394572Y-93290571D01*
X163322000Y-93363143D01*
X163249429Y-93399429D01*
X164156571Y-93181714D02*
X164229143Y-93181714D01*
X164301714Y-93218000D01*
X164338000Y-93254286D01*
X164374286Y-93326857D01*
X164410571Y-93472000D01*
X164410571Y-93653429D01*
X164374286Y-93798571D01*
X164338000Y-93871143D01*
X164301714Y-93907429D01*
X164229143Y-93943714D01*
X164156571Y-93943714D01*
X164084000Y-93907429D01*
X164047714Y-93871143D01*
X164011429Y-93798571D01*
X163975143Y-93653429D01*
X163975143Y-93472000D01*
X164011429Y-93326857D01*
X164047714Y-93254286D01*
X164084000Y-93218000D01*
X164156571Y-93181714D01*
X142798801Y-79658029D02*
X142907658Y-79694314D01*
X143089087Y-79694314D01*
X143161658Y-79658029D01*
X143197944Y-79621743D01*
X143234229Y-79549171D01*
X143234229Y-79476600D01*
X143197944Y-79404029D01*
X143161658Y-79367743D01*
X143089087Y-79331457D01*
X142943944Y-79295171D01*
X142871372Y-79258886D01*
X142835087Y-79222600D01*
X142798801Y-79150029D01*
X142798801Y-79077457D01*
X142835087Y-79004886D01*
X142871372Y-78968600D01*
X142943944Y-78932314D01*
X143125372Y-78932314D01*
X143234229Y-78968600D01*
X143488229Y-78932314D02*
X143669658Y-79694314D01*
X143814801Y-79150029D01*
X143959943Y-79694314D01*
X144141372Y-78932314D01*
X144830800Y-79694314D02*
X144395372Y-79694314D01*
X144613086Y-79694314D02*
X144613086Y-78932314D01*
X144540515Y-79041171D01*
X144467943Y-79113743D01*
X144395372Y-79150029D01*
X143764000Y-83275714D02*
X143510000Y-82912857D01*
X143328572Y-83275714D02*
X143328572Y-82513714D01*
X143618857Y-82513714D01*
X143691429Y-82550000D01*
X143727714Y-82586286D01*
X143764000Y-82658857D01*
X143764000Y-82767714D01*
X143727714Y-82840286D01*
X143691429Y-82876571D01*
X143618857Y-82912857D01*
X143328572Y-82912857D01*
X144417143Y-82513714D02*
X144272000Y-82513714D01*
X144199429Y-82550000D01*
X144163143Y-82586286D01*
X144090572Y-82695143D01*
X144054286Y-82840286D01*
X144054286Y-83130571D01*
X144090572Y-83203143D01*
X144126857Y-83239429D01*
X144199429Y-83275714D01*
X144344572Y-83275714D01*
X144417143Y-83239429D01*
X144453429Y-83203143D01*
X144489714Y-83130571D01*
X144489714Y-82949143D01*
X144453429Y-82876571D01*
X144417143Y-82840286D01*
X144344572Y-82804000D01*
X144199429Y-82804000D01*
X144126857Y-82840286D01*
X144090572Y-82876571D01*
X144054286Y-82949143D01*
X150694572Y-114771714D02*
X150876001Y-115533714D01*
X151021144Y-114989429D01*
X151166286Y-115533714D01*
X151347715Y-114771714D01*
X152037143Y-115533714D02*
X151601715Y-115533714D01*
X151819429Y-115533714D02*
X151819429Y-114771714D01*
X151746858Y-114880571D01*
X151674286Y-114953143D01*
X151601715Y-114989429D01*
X145817772Y-71921914D02*
X145999201Y-72683914D01*
X146144344Y-72139629D01*
X146289486Y-72683914D01*
X146470915Y-71921914D01*
X146724915Y-71994486D02*
X146761201Y-71958200D01*
X146833772Y-71921914D01*
X147015201Y-71921914D01*
X147087772Y-71958200D01*
X147124058Y-71994486D01*
X147160343Y-72067057D01*
X147160343Y-72139629D01*
X147124058Y-72248486D01*
X146688629Y-72683914D01*
X147160343Y-72683914D01*
X149424572Y-72023514D02*
X149606001Y-72785514D01*
X149751144Y-72241229D01*
X149896286Y-72785514D01*
X150077715Y-72023514D01*
X150295429Y-72023514D02*
X150767143Y-72023514D01*
X150513143Y-72313800D01*
X150622001Y-72313800D01*
X150694572Y-72350086D01*
X150730858Y-72386371D01*
X150767143Y-72458943D01*
X150767143Y-72640371D01*
X150730858Y-72712943D01*
X150694572Y-72749229D01*
X150622001Y-72785514D01*
X150404286Y-72785514D01*
X150331715Y-72749229D01*
X150295429Y-72712943D01*
X181936572Y-108167714D02*
X182118001Y-108929714D01*
X182263144Y-108385429D01*
X182408286Y-108929714D01*
X182589715Y-108167714D01*
X183242858Y-108167714D02*
X182880001Y-108167714D01*
X182843715Y-108530571D01*
X182880001Y-108494286D01*
X182952572Y-108458000D01*
X183134001Y-108458000D01*
X183206572Y-108494286D01*
X183242858Y-108530571D01*
X183279143Y-108603143D01*
X183279143Y-108784571D01*
X183242858Y-108857143D01*
X183206572Y-108893429D01*
X183134001Y-108929714D01*
X182952572Y-108929714D01*
X182880001Y-108893429D01*
X182843715Y-108857143D01*
X159838572Y-114644714D02*
X160020001Y-115406714D01*
X160165144Y-114862429D01*
X160310286Y-115406714D01*
X160491715Y-114644714D01*
X161108572Y-114644714D02*
X160963429Y-114644714D01*
X160890858Y-114681000D01*
X160854572Y-114717286D01*
X160782001Y-114826143D01*
X160745715Y-114971286D01*
X160745715Y-115261571D01*
X160782001Y-115334143D01*
X160818286Y-115370429D01*
X160890858Y-115406714D01*
X161036001Y-115406714D01*
X161108572Y-115370429D01*
X161144858Y-115334143D01*
X161181143Y-115261571D01*
X161181143Y-115080143D01*
X161144858Y-115007571D01*
X161108572Y-114971286D01*
X161036001Y-114935000D01*
X160890858Y-114935000D01*
X160818286Y-114971286D01*
X160782001Y-115007571D01*
X160745715Y-115080143D01*
X139137572Y-68289714D02*
X139319001Y-69051714D01*
X139464144Y-68507429D01*
X139609286Y-69051714D01*
X139790715Y-68289714D01*
X140008429Y-68289714D02*
X140516429Y-68289714D01*
X140189858Y-69051714D01*
D14*
X160853381Y-108084857D02*
X160377190Y-108418191D01*
X160853381Y-108656286D02*
X159853381Y-108656286D01*
X159853381Y-108275333D01*
X159901000Y-108180095D01*
X159948619Y-108132476D01*
X160043857Y-108084857D01*
X160186714Y-108084857D01*
X160281952Y-108132476D01*
X160329571Y-108180095D01*
X160377190Y-108275333D01*
X160377190Y-108656286D01*
X160853381Y-107132476D02*
X160853381Y-107703905D01*
X160853381Y-107418191D02*
X159853381Y-107418191D01*
X159996238Y-107513429D01*
X160091476Y-107608667D01*
X160139095Y-107703905D01*
X159948619Y-106751524D02*
X159901000Y-106703905D01*
X159853381Y-106608667D01*
X159853381Y-106370571D01*
X159901000Y-106275333D01*
X159948619Y-106227714D01*
X160043857Y-106180095D01*
X160139095Y-106180095D01*
X160281952Y-106227714D01*
X160853381Y-106799143D01*
X160853381Y-106180095D01*
X139933443Y-99804481D02*
X139600109Y-99328290D01*
X139362014Y-99804481D02*
X139362014Y-98804481D01*
X139742967Y-98804481D01*
X139838205Y-98852100D01*
X139885824Y-98899719D01*
X139933443Y-98994957D01*
X139933443Y-99137814D01*
X139885824Y-99233052D01*
X139838205Y-99280671D01*
X139742967Y-99328290D01*
X139362014Y-99328290D01*
X140885824Y-99804481D02*
X140314395Y-99804481D01*
X140600109Y-99804481D02*
X140600109Y-98804481D01*
X140504871Y-98947338D01*
X140409633Y-99042576D01*
X140314395Y-99090195D01*
X141219157Y-98804481D02*
X141838205Y-98804481D01*
X141504871Y-99185433D01*
X141647729Y-99185433D01*
X141742967Y-99233052D01*
X141790586Y-99280671D01*
X141838205Y-99375910D01*
X141838205Y-99614005D01*
X141790586Y-99709243D01*
X141742967Y-99756862D01*
X141647729Y-99804481D01*
X141362014Y-99804481D01*
X141266776Y-99756862D01*
X141219157Y-99709243D01*
X149987095Y-105116381D02*
X149987095Y-105925905D01*
X150034714Y-106021143D01*
X150082333Y-106068762D01*
X150177571Y-106116381D01*
X150368048Y-106116381D01*
X150463286Y-106068762D01*
X150510905Y-106021143D01*
X150558524Y-105925905D01*
X150558524Y-105116381D01*
X150939476Y-105116381D02*
X151558524Y-105116381D01*
X151225190Y-105497333D01*
X151368048Y-105497333D01*
X151463286Y-105544952D01*
X151510905Y-105592571D01*
X151558524Y-105687810D01*
X151558524Y-105925905D01*
X151510905Y-106021143D01*
X151463286Y-106068762D01*
X151368048Y-106116381D01*
X151082333Y-106116381D01*
X150987095Y-106068762D01*
X150939476Y-106021143D01*
D11*
X153621619Y-105409999D02*
X153863524Y-105409999D01*
X153766762Y-105651904D02*
X153863524Y-105409999D01*
X153766762Y-105168095D01*
X154057048Y-105555142D02*
X153863524Y-105409999D01*
X154057048Y-105264857D01*
D14*
X160299495Y-89571581D02*
X160299495Y-90381105D01*
X160347114Y-90476343D01*
X160394733Y-90523962D01*
X160489971Y-90571581D01*
X160680448Y-90571581D01*
X160775686Y-90523962D01*
X160823305Y-90476343D01*
X160870924Y-90381105D01*
X160870924Y-89571581D01*
X161870924Y-90571581D02*
X161299495Y-90571581D01*
X161585209Y-90571581D02*
X161585209Y-89571581D01*
X161489971Y-89714438D01*
X161394733Y-89809676D01*
X161299495Y-89857295D01*
X157376905Y-90673181D02*
X157376905Y-89673181D01*
X157615000Y-89673181D01*
X157757858Y-89720800D01*
X157853096Y-89816038D01*
X157900715Y-89911276D01*
X157948334Y-90101752D01*
X157948334Y-90244610D01*
X157900715Y-90435086D01*
X157853096Y-90530324D01*
X157757858Y-90625562D01*
X157615000Y-90673181D01*
X157376905Y-90673181D01*
X158805477Y-90006514D02*
X158805477Y-90673181D01*
X158567381Y-89625562D02*
X158329286Y-90339848D01*
X158948334Y-90339848D01*
X187388667Y-90955762D02*
X187531524Y-91003381D01*
X187769620Y-91003381D01*
X187864858Y-90955762D01*
X187912477Y-90908143D01*
X187960096Y-90812905D01*
X187960096Y-90717667D01*
X187912477Y-90622429D01*
X187864858Y-90574810D01*
X187769620Y-90527190D01*
X187579143Y-90479571D01*
X187483905Y-90431952D01*
X187436286Y-90384333D01*
X187388667Y-90289095D01*
X187388667Y-90193857D01*
X187436286Y-90098619D01*
X187483905Y-90051000D01*
X187579143Y-90003381D01*
X187817239Y-90003381D01*
X187960096Y-90051000D01*
X188293429Y-90003381D02*
X188531524Y-91003381D01*
X188722001Y-90289095D01*
X188912477Y-91003381D01*
X189150572Y-90003381D01*
X189483905Y-90098619D02*
X189531524Y-90051000D01*
X189626762Y-90003381D01*
X189864858Y-90003381D01*
X189960096Y-90051000D01*
X190007715Y-90098619D01*
X190055334Y-90193857D01*
X190055334Y-90289095D01*
X190007715Y-90431952D01*
X189436286Y-91003381D01*
X190055334Y-91003381D01*
X137056905Y-106116381D02*
X137056905Y-105116381D01*
X137295000Y-105116381D01*
X137437858Y-105164000D01*
X137533096Y-105259238D01*
X137580715Y-105354476D01*
X137628334Y-105544952D01*
X137628334Y-105687810D01*
X137580715Y-105878286D01*
X137533096Y-105973524D01*
X137437858Y-106068762D01*
X137295000Y-106116381D01*
X137056905Y-106116381D01*
X138580715Y-106116381D02*
X138009286Y-106116381D01*
X138295000Y-106116381D02*
X138295000Y-105116381D01*
X138199762Y-105259238D01*
X138104524Y-105354476D01*
X138009286Y-105402095D01*
M02*
