M48
;DRILL file {KiCad 4.0.0-2.201512072331+6194~38~ubuntu14.04.1-stable} date Sun 05 Jun 2016 08:25:24 PM CEST
;FORMAT={2:4/ absolute / inch / suppress leading zeros}
FMAT,2
INCH,TZ
T1C0.013
T2C0.030
T3C0.031
T4C0.039
T5C0.040
T6C0.060
T7C0.126
%
G90
G05
M72
T1
X56450Y-38300
X63250Y-39500
X67900Y-40200
X69100Y-37000
X70400Y-34700
X72100Y-40000
X72700Y-42800
T2
X57750Y-42450
X57986Y-32400
X59400Y-30986
X59400Y-33814
X59750Y-42450
X60814Y-32400
X61750Y-42450
X63750Y-42450
T3
X64800Y-32900
X64800Y-34869
X65350Y-38650
X65350Y-39437
X68313Y-33600
X69100Y-33600
T4
X65900Y-30400
X66900Y-30400
X67900Y-30400
T5
X58450Y-29600
X59450Y-29600
T6
X54350Y-40516
X54350Y-42484
X54450Y-34266
X54450Y-36234
X54450Y-38203
X54550Y-30016
X54550Y-31984
T7
X52600Y-27900
X52600Y-44500
X75800Y-27900
X75800Y-44500
T0
M30
