G04 #@! TF.FileFunction,Copper,L2,Bot,Signal*
%FSLAX46Y46*%
G04 Gerber Fmt 4.6, Leading zero omitted, Abs format (unit mm)*
G04 Created by KiCad (PCBNEW 4.0.0-2.201512072331+6194~38~ubuntu14.04.1-stable) date Tue 07 Jun 2016 08:46:50 PM CEST*
%MOMM*%
G01*
G04 APERTURE LIST*
%ADD10C,0.100000*%
%ADD11C,3.048000*%
%ADD12R,1.300000X1.300000*%
%ADD13C,1.300000*%
%ADD14C,1.524000*%
%ADD15R,2.032000X2.032000*%
%ADD16O,2.032000X2.032000*%
%ADD17O,2.499360X1.501140*%
%ADD18R,2.235200X2.235200*%
%ADD19C,0.685800*%
%ADD20C,0.152400*%
G04 APERTURE END LIST*
D10*
D11*
X138049000Y-76113000D03*
X138049000Y-81113000D03*
D12*
X164211000Y-84582000D03*
D13*
X164211000Y-89582000D03*
D12*
X159308800Y-70866000D03*
D13*
X157308800Y-70866000D03*
D12*
X165989000Y-98171000D03*
D13*
X165989000Y-100171000D03*
D14*
X151093898Y-78232000D03*
X154686000Y-74639898D03*
X158278102Y-78232000D03*
X154686000Y-81824102D03*
D11*
X138049000Y-102910000D03*
X138049000Y-107910000D03*
D14*
X146685000Y-107823000D03*
X151765000Y-107823000D03*
X156845000Y-107823000D03*
X161925000Y-107823000D03*
D15*
X144526000Y-76860400D03*
D16*
X147066000Y-76860400D03*
D11*
X138049000Y-87035000D03*
X138049000Y-92035000D03*
X138049000Y-97035000D03*
D17*
X165354000Y-74803000D03*
X165354000Y-72263000D03*
X165354000Y-77343000D03*
D18*
X146812000Y-101981000D03*
X146507200Y-70053200D03*
X150164800Y-70053200D03*
X171958000Y-109728000D03*
X179832000Y-109728000D03*
X150876000Y-101981000D03*
X142595600Y-70053200D03*
D19*
X175641000Y-94996000D03*
X194411600Y-106934000D03*
X144018000Y-96520000D03*
X160655000Y-100330000D03*
X172466000Y-102108000D03*
X183134000Y-101600000D03*
X178816000Y-88138000D03*
D20*
G36*
X195657400Y-116155400D02*
X130478600Y-116155400D01*
X130478600Y-113392135D01*
X131775084Y-113392135D01*
X132052885Y-114064465D01*
X132566829Y-114579307D01*
X133238673Y-114858282D01*
X133966135Y-114858916D01*
X134638465Y-114581115D01*
X135153307Y-114067171D01*
X135432282Y-113395327D01*
X135432284Y-113392135D01*
X190703084Y-113392135D01*
X190980885Y-114064465D01*
X191494829Y-114579307D01*
X192166673Y-114858282D01*
X192894135Y-114858916D01*
X193566465Y-114581115D01*
X194081307Y-114067171D01*
X194360282Y-113395327D01*
X194360916Y-112667865D01*
X194083115Y-111995535D01*
X193569171Y-111480693D01*
X192897327Y-111201718D01*
X192169865Y-111201084D01*
X191497535Y-111478885D01*
X190982693Y-111992829D01*
X190703718Y-112664673D01*
X190703084Y-113392135D01*
X135432284Y-113392135D01*
X135432916Y-112667865D01*
X135155115Y-111995535D01*
X134641171Y-111480693D01*
X133969327Y-111201718D01*
X133241865Y-111201084D01*
X132569535Y-111478885D01*
X132054693Y-111992829D01*
X131775718Y-112664673D01*
X131775084Y-113392135D01*
X130478600Y-113392135D01*
X130478600Y-108257084D01*
X136296097Y-108257084D01*
X136562352Y-108901471D01*
X137054936Y-109394915D01*
X137698857Y-109662295D01*
X138396084Y-109662903D01*
X139040471Y-109396648D01*
X139533915Y-108904064D01*
X139801295Y-108260143D01*
X139801505Y-108019178D01*
X145694228Y-108019178D01*
X145844721Y-108383397D01*
X146123138Y-108662300D01*
X146487093Y-108813428D01*
X146881178Y-108813772D01*
X147245397Y-108663279D01*
X147524300Y-108384862D01*
X147675428Y-108020907D01*
X147675429Y-108019178D01*
X150774228Y-108019178D01*
X150924721Y-108383397D01*
X151203138Y-108662300D01*
X151567093Y-108813428D01*
X151961178Y-108813772D01*
X152325397Y-108663279D01*
X152604300Y-108384862D01*
X152755428Y-108020907D01*
X152755429Y-108019178D01*
X155854228Y-108019178D01*
X156004721Y-108383397D01*
X156283138Y-108662300D01*
X156647093Y-108813428D01*
X157041178Y-108813772D01*
X157405397Y-108663279D01*
X157684300Y-108384862D01*
X157835428Y-108020907D01*
X157835429Y-108019178D01*
X160934228Y-108019178D01*
X161084721Y-108383397D01*
X161363138Y-108662300D01*
X161727093Y-108813428D01*
X162121178Y-108813772D01*
X162485397Y-108663279D01*
X162538368Y-108610400D01*
X170607322Y-108610400D01*
X170607322Y-110845600D01*
X170623262Y-110930314D01*
X170673328Y-111008118D01*
X170749720Y-111060315D01*
X170840400Y-111078678D01*
X173075600Y-111078678D01*
X173160314Y-111062738D01*
X173238118Y-111012672D01*
X173290315Y-110936280D01*
X173308678Y-110845600D01*
X173308678Y-108610400D01*
X178481322Y-108610400D01*
X178481322Y-110845600D01*
X178497262Y-110930314D01*
X178547328Y-111008118D01*
X178623720Y-111060315D01*
X178714400Y-111078678D01*
X180949600Y-111078678D01*
X181034314Y-111062738D01*
X181112118Y-111012672D01*
X181164315Y-110936280D01*
X181182678Y-110845600D01*
X181182678Y-108610400D01*
X181166738Y-108525686D01*
X181116672Y-108447882D01*
X181040280Y-108395685D01*
X180949600Y-108377322D01*
X178714400Y-108377322D01*
X178629686Y-108393262D01*
X178551882Y-108443328D01*
X178499685Y-108519720D01*
X178481322Y-108610400D01*
X173308678Y-108610400D01*
X173292738Y-108525686D01*
X173242672Y-108447882D01*
X173166280Y-108395685D01*
X173075600Y-108377322D01*
X170840400Y-108377322D01*
X170755686Y-108393262D01*
X170677882Y-108443328D01*
X170625685Y-108519720D01*
X170607322Y-108610400D01*
X162538368Y-108610400D01*
X162764300Y-108384862D01*
X162915428Y-108020907D01*
X162915772Y-107626822D01*
X162765279Y-107262603D01*
X162486862Y-106983700D01*
X162122907Y-106832572D01*
X161728822Y-106832228D01*
X161364603Y-106982721D01*
X161085700Y-107261138D01*
X160934572Y-107625093D01*
X160934228Y-108019178D01*
X157835429Y-108019178D01*
X157835772Y-107626822D01*
X157685279Y-107262603D01*
X157406862Y-106983700D01*
X157042907Y-106832572D01*
X156648822Y-106832228D01*
X156284603Y-106982721D01*
X156005700Y-107261138D01*
X155854572Y-107625093D01*
X155854228Y-108019178D01*
X152755429Y-108019178D01*
X152755772Y-107626822D01*
X152605279Y-107262603D01*
X152326862Y-106983700D01*
X151962907Y-106832572D01*
X151568822Y-106832228D01*
X151204603Y-106982721D01*
X150925700Y-107261138D01*
X150774572Y-107625093D01*
X150774228Y-108019178D01*
X147675429Y-108019178D01*
X147675772Y-107626822D01*
X147525279Y-107262603D01*
X147246862Y-106983700D01*
X146882907Y-106832572D01*
X146488822Y-106832228D01*
X146124603Y-106982721D01*
X145845700Y-107261138D01*
X145694572Y-107625093D01*
X145694228Y-108019178D01*
X139801505Y-108019178D01*
X139801903Y-107562916D01*
X139535648Y-106918529D01*
X139043064Y-106425085D01*
X138399143Y-106157705D01*
X137701916Y-106157097D01*
X137057529Y-106423352D01*
X136564085Y-106915936D01*
X136296705Y-107559857D01*
X136296097Y-108257084D01*
X130478600Y-108257084D01*
X130478600Y-103257084D01*
X136296097Y-103257084D01*
X136562352Y-103901471D01*
X137054936Y-104394915D01*
X137698857Y-104662295D01*
X138396084Y-104662903D01*
X139040471Y-104396648D01*
X139533915Y-103904064D01*
X139801295Y-103260143D01*
X139801903Y-102562916D01*
X139535648Y-101918529D01*
X139043064Y-101425085D01*
X138399143Y-101157705D01*
X137701916Y-101157097D01*
X137057529Y-101423352D01*
X136564085Y-101915936D01*
X136296705Y-102559857D01*
X136296097Y-103257084D01*
X130478600Y-103257084D01*
X130478600Y-100863400D01*
X145461322Y-100863400D01*
X145461322Y-103098600D01*
X145477262Y-103183314D01*
X145527328Y-103261118D01*
X145603720Y-103313315D01*
X145694400Y-103331678D01*
X147929600Y-103331678D01*
X148014314Y-103315738D01*
X148092118Y-103265672D01*
X148144315Y-103189280D01*
X148162678Y-103098600D01*
X148162678Y-100863400D01*
X149525322Y-100863400D01*
X149525322Y-103098600D01*
X149541262Y-103183314D01*
X149591328Y-103261118D01*
X149667720Y-103313315D01*
X149758400Y-103331678D01*
X151993600Y-103331678D01*
X152078314Y-103315738D01*
X152156118Y-103265672D01*
X152208315Y-103189280D01*
X152226678Y-103098600D01*
X152226678Y-100863400D01*
X152210738Y-100778686D01*
X152160672Y-100700882D01*
X152084280Y-100648685D01*
X151993600Y-100630322D01*
X149758400Y-100630322D01*
X149673686Y-100646262D01*
X149595882Y-100696328D01*
X149543685Y-100772720D01*
X149525322Y-100863400D01*
X148162678Y-100863400D01*
X148146738Y-100778686D01*
X148096672Y-100700882D01*
X148020280Y-100648685D01*
X147929600Y-100630322D01*
X145694400Y-100630322D01*
X145609686Y-100646262D01*
X145531882Y-100696328D01*
X145479685Y-100772720D01*
X145461322Y-100863400D01*
X130478600Y-100863400D01*
X130478600Y-100344998D01*
X165110248Y-100344998D01*
X165243725Y-100668037D01*
X165490663Y-100915407D01*
X165813469Y-101049447D01*
X166162998Y-101049752D01*
X166486037Y-100916275D01*
X166733407Y-100669337D01*
X166867447Y-100346531D01*
X166867752Y-99997002D01*
X166734275Y-99673963D01*
X166487337Y-99426593D01*
X166164531Y-99292553D01*
X165815002Y-99292248D01*
X165491963Y-99425725D01*
X165244593Y-99672663D01*
X165110553Y-99995469D01*
X165110248Y-100344998D01*
X130478600Y-100344998D01*
X130478600Y-97382084D01*
X136296097Y-97382084D01*
X136562352Y-98026471D01*
X137054936Y-98519915D01*
X137698857Y-98787295D01*
X138396084Y-98787903D01*
X139040471Y-98521648D01*
X139533915Y-98029064D01*
X139744882Y-97521000D01*
X165105922Y-97521000D01*
X165105922Y-98821000D01*
X165121862Y-98905714D01*
X165171928Y-98983518D01*
X165248320Y-99035715D01*
X165339000Y-99054078D01*
X166639000Y-99054078D01*
X166723714Y-99038138D01*
X166801518Y-98988072D01*
X166853715Y-98911680D01*
X166872078Y-98821000D01*
X166872078Y-97521000D01*
X166856138Y-97436286D01*
X166806072Y-97358482D01*
X166729680Y-97306285D01*
X166639000Y-97287922D01*
X165339000Y-97287922D01*
X165254286Y-97303862D01*
X165176482Y-97353928D01*
X165124285Y-97430320D01*
X165105922Y-97521000D01*
X139744882Y-97521000D01*
X139801295Y-97385143D01*
X139801903Y-96687916D01*
X139535648Y-96043529D01*
X139043064Y-95550085D01*
X138399143Y-95282705D01*
X137701916Y-95282097D01*
X137057529Y-95548352D01*
X136564085Y-96040936D01*
X136296705Y-96684857D01*
X136296097Y-97382084D01*
X130478600Y-97382084D01*
X130478600Y-92382084D01*
X136296097Y-92382084D01*
X136562352Y-93026471D01*
X137054936Y-93519915D01*
X137698857Y-93787295D01*
X138396084Y-93787903D01*
X139040471Y-93521648D01*
X139533915Y-93029064D01*
X139801295Y-92385143D01*
X139801903Y-91687916D01*
X139535648Y-91043529D01*
X139043064Y-90550085D01*
X138399143Y-90282705D01*
X137701916Y-90282097D01*
X137057529Y-90548352D01*
X136564085Y-91040936D01*
X136296705Y-91684857D01*
X136296097Y-92382084D01*
X130478600Y-92382084D01*
X130478600Y-89755998D01*
X163332248Y-89755998D01*
X163465725Y-90079037D01*
X163712663Y-90326407D01*
X164035469Y-90460447D01*
X164384998Y-90460752D01*
X164708037Y-90327275D01*
X164955407Y-90080337D01*
X165089447Y-89757531D01*
X165089752Y-89408002D01*
X164956275Y-89084963D01*
X164709337Y-88837593D01*
X164386531Y-88703553D01*
X164037002Y-88703248D01*
X163713963Y-88836725D01*
X163466593Y-89083663D01*
X163332553Y-89406469D01*
X163332248Y-89755998D01*
X130478600Y-89755998D01*
X130478600Y-87382084D01*
X136296097Y-87382084D01*
X136562352Y-88026471D01*
X137054936Y-88519915D01*
X137698857Y-88787295D01*
X138396084Y-88787903D01*
X139040471Y-88521648D01*
X139533915Y-88029064D01*
X139801295Y-87385143D01*
X139801903Y-86687916D01*
X139535648Y-86043529D01*
X139043064Y-85550085D01*
X138399143Y-85282705D01*
X137701916Y-85282097D01*
X137057529Y-85548352D01*
X136564085Y-86040936D01*
X136296705Y-86684857D01*
X136296097Y-87382084D01*
X130478600Y-87382084D01*
X130478600Y-83932000D01*
X163327922Y-83932000D01*
X163327922Y-85232000D01*
X163343862Y-85316714D01*
X163393928Y-85394518D01*
X163470320Y-85446715D01*
X163561000Y-85465078D01*
X164861000Y-85465078D01*
X164945714Y-85449138D01*
X165023518Y-85399072D01*
X165075715Y-85322680D01*
X165094078Y-85232000D01*
X165094078Y-83932000D01*
X165078138Y-83847286D01*
X165028072Y-83769482D01*
X164951680Y-83717285D01*
X164861000Y-83698922D01*
X163561000Y-83698922D01*
X163476286Y-83714862D01*
X163398482Y-83764928D01*
X163346285Y-83841320D01*
X163327922Y-83932000D01*
X130478600Y-83932000D01*
X130478600Y-81460084D01*
X136296097Y-81460084D01*
X136562352Y-82104471D01*
X137054936Y-82597915D01*
X137698857Y-82865295D01*
X138396084Y-82865903D01*
X139040471Y-82599648D01*
X139533915Y-82107064D01*
X139569950Y-82020280D01*
X153695228Y-82020280D01*
X153845721Y-82384499D01*
X154124138Y-82663402D01*
X154488093Y-82814530D01*
X154882178Y-82814874D01*
X155246397Y-82664381D01*
X155525300Y-82385964D01*
X155676428Y-82022009D01*
X155676772Y-81627924D01*
X155526279Y-81263705D01*
X155247862Y-80984802D01*
X154883907Y-80833674D01*
X154489822Y-80833330D01*
X154125603Y-80983823D01*
X153846700Y-81262240D01*
X153695572Y-81626195D01*
X153695228Y-82020280D01*
X139569950Y-82020280D01*
X139801295Y-81463143D01*
X139801903Y-80765916D01*
X139535648Y-80121529D01*
X139043064Y-79628085D01*
X138399143Y-79360705D01*
X137701916Y-79360097D01*
X137057529Y-79626352D01*
X136564085Y-80118936D01*
X136296705Y-80762857D01*
X136296097Y-81460084D01*
X130478600Y-81460084D01*
X130478600Y-78428178D01*
X150103126Y-78428178D01*
X150253619Y-78792397D01*
X150532036Y-79071300D01*
X150895991Y-79222428D01*
X151290076Y-79222772D01*
X151654295Y-79072279D01*
X151933198Y-78793862D01*
X152084326Y-78429907D01*
X152084327Y-78428178D01*
X157287330Y-78428178D01*
X157437823Y-78792397D01*
X157716240Y-79071300D01*
X158080195Y-79222428D01*
X158474280Y-79222772D01*
X158838499Y-79072279D01*
X159117402Y-78793862D01*
X159268530Y-78429907D01*
X159268874Y-78035822D01*
X159140674Y-77725554D01*
X163576116Y-77725554D01*
X163785341Y-78161102D01*
X164179830Y-78508126D01*
X164677090Y-78677770D01*
X165176200Y-78677770D01*
X165176200Y-77520800D01*
X165531800Y-77520800D01*
X165531800Y-78677770D01*
X166030910Y-78677770D01*
X166528170Y-78508126D01*
X166922659Y-78161102D01*
X167131884Y-77725554D01*
X167028458Y-77520800D01*
X165531800Y-77520800D01*
X165176200Y-77520800D01*
X163679542Y-77520800D01*
X163576116Y-77725554D01*
X159140674Y-77725554D01*
X159118381Y-77671603D01*
X158839964Y-77392700D01*
X158476009Y-77241572D01*
X158081924Y-77241228D01*
X157717705Y-77391721D01*
X157438802Y-77670138D01*
X157287674Y-78034093D01*
X157287330Y-78428178D01*
X152084327Y-78428178D01*
X152084670Y-78035822D01*
X151934177Y-77671603D01*
X151655760Y-77392700D01*
X151291805Y-77241572D01*
X150897720Y-77241228D01*
X150533501Y-77391721D01*
X150254598Y-77670138D01*
X150103470Y-78034093D01*
X150103126Y-78428178D01*
X130478600Y-78428178D01*
X130478600Y-76460084D01*
X136296097Y-76460084D01*
X136562352Y-77104471D01*
X137054936Y-77597915D01*
X137698857Y-77865295D01*
X138396084Y-77865903D01*
X139040471Y-77599648D01*
X139533915Y-77107064D01*
X139801295Y-76463143D01*
X139801834Y-75844400D01*
X143276922Y-75844400D01*
X143276922Y-77876400D01*
X143292862Y-77961114D01*
X143342928Y-78038918D01*
X143419320Y-78091115D01*
X143510000Y-78109478D01*
X145542000Y-78109478D01*
X145626714Y-78093538D01*
X145704518Y-78043472D01*
X145756715Y-77967080D01*
X145775078Y-77876400D01*
X145775078Y-76836017D01*
X145821400Y-76836017D01*
X145821400Y-76884783D01*
X145916140Y-77361071D01*
X146185935Y-77764848D01*
X146589712Y-78034643D01*
X147066000Y-78129383D01*
X147542288Y-78034643D01*
X147946065Y-77764848D01*
X148215860Y-77361071D01*
X148295549Y-76960446D01*
X163576116Y-76960446D01*
X163679542Y-77165200D01*
X165176200Y-77165200D01*
X165176200Y-76008230D01*
X165531800Y-76008230D01*
X165531800Y-77165200D01*
X167028458Y-77165200D01*
X167131884Y-76960446D01*
X166922659Y-76524898D01*
X166528170Y-76177874D01*
X166030910Y-76008230D01*
X165531800Y-76008230D01*
X165176200Y-76008230D01*
X164677090Y-76008230D01*
X164179830Y-76177874D01*
X163785341Y-76524898D01*
X163576116Y-76960446D01*
X148295549Y-76960446D01*
X148310600Y-76884783D01*
X148310600Y-76836017D01*
X148215860Y-76359729D01*
X147946065Y-75955952D01*
X147542288Y-75686157D01*
X147066000Y-75591417D01*
X146589712Y-75686157D01*
X146185935Y-75955952D01*
X145916140Y-76359729D01*
X145821400Y-76836017D01*
X145775078Y-76836017D01*
X145775078Y-75844400D01*
X145759138Y-75759686D01*
X145709072Y-75681882D01*
X145632680Y-75629685D01*
X145542000Y-75611322D01*
X143510000Y-75611322D01*
X143425286Y-75627262D01*
X143347482Y-75677328D01*
X143295285Y-75753720D01*
X143276922Y-75844400D01*
X139801834Y-75844400D01*
X139801903Y-75765916D01*
X139535648Y-75121529D01*
X139250693Y-74836076D01*
X153695228Y-74836076D01*
X153845721Y-75200295D01*
X154124138Y-75479198D01*
X154488093Y-75630326D01*
X154882178Y-75630670D01*
X155246397Y-75480177D01*
X155525300Y-75201760D01*
X155676428Y-74837805D01*
X155676458Y-74803000D01*
X163846759Y-74803000D01*
X163921294Y-75177712D01*
X164133551Y-75495378D01*
X164451217Y-75707635D01*
X164825929Y-75782170D01*
X165882071Y-75782170D01*
X166256783Y-75707635D01*
X166574449Y-75495378D01*
X166670723Y-75351292D01*
X179348921Y-75351292D01*
X179769527Y-76369237D01*
X180547666Y-77148736D01*
X181564875Y-77571118D01*
X182666292Y-77572079D01*
X183684237Y-77151473D01*
X184463736Y-76373334D01*
X184886118Y-75356125D01*
X184887079Y-74254708D01*
X184466473Y-73236763D01*
X183688334Y-72457264D01*
X182671125Y-72034882D01*
X181569708Y-72033921D01*
X180551763Y-72454527D01*
X179772264Y-73232666D01*
X179349882Y-74249875D01*
X179348921Y-75351292D01*
X166670723Y-75351292D01*
X166786706Y-75177712D01*
X166861241Y-74803000D01*
X166786706Y-74428288D01*
X166574449Y-74110622D01*
X166256783Y-73898365D01*
X165882071Y-73823830D01*
X164825929Y-73823830D01*
X164451217Y-73898365D01*
X164133551Y-74110622D01*
X163921294Y-74428288D01*
X163846759Y-74803000D01*
X155676458Y-74803000D01*
X155676772Y-74443720D01*
X155526279Y-74079501D01*
X155247862Y-73800598D01*
X154883907Y-73649470D01*
X154489822Y-73649126D01*
X154125603Y-73799619D01*
X153846700Y-74078036D01*
X153695572Y-74441991D01*
X153695228Y-74836076D01*
X139250693Y-74836076D01*
X139043064Y-74628085D01*
X138399143Y-74360705D01*
X137701916Y-74360097D01*
X137057529Y-74626352D01*
X136564085Y-75118936D01*
X136296705Y-75762857D01*
X136296097Y-76460084D01*
X130478600Y-76460084D01*
X130478600Y-71228135D01*
X131775084Y-71228135D01*
X132052885Y-71900465D01*
X132566829Y-72415307D01*
X133238673Y-72694282D01*
X133966135Y-72694916D01*
X134638465Y-72417115D01*
X134792849Y-72263000D01*
X163846759Y-72263000D01*
X163921294Y-72637712D01*
X164133551Y-72955378D01*
X164451217Y-73167635D01*
X164825929Y-73242170D01*
X165882071Y-73242170D01*
X166256783Y-73167635D01*
X166574449Y-72955378D01*
X166786706Y-72637712D01*
X166861241Y-72263000D01*
X166786706Y-71888288D01*
X166574449Y-71570622D01*
X166256783Y-71358365D01*
X165882071Y-71283830D01*
X164825929Y-71283830D01*
X164451217Y-71358365D01*
X164133551Y-71570622D01*
X163921294Y-71888288D01*
X163846759Y-72263000D01*
X134792849Y-72263000D01*
X135153307Y-71903171D01*
X135432282Y-71231327D01*
X135432916Y-70503865D01*
X135155115Y-69831535D01*
X134641171Y-69316693D01*
X133969327Y-69037718D01*
X133241865Y-69037084D01*
X132569535Y-69314885D01*
X132054693Y-69828829D01*
X131775718Y-70500673D01*
X131775084Y-71228135D01*
X130478600Y-71228135D01*
X130478600Y-68935600D01*
X141244922Y-68935600D01*
X141244922Y-71170800D01*
X141260862Y-71255514D01*
X141310928Y-71333318D01*
X141387320Y-71385515D01*
X141478000Y-71403878D01*
X143713200Y-71403878D01*
X143797914Y-71387938D01*
X143875718Y-71337872D01*
X143927915Y-71261480D01*
X143946278Y-71170800D01*
X143946278Y-68935600D01*
X145156522Y-68935600D01*
X145156522Y-71170800D01*
X145172462Y-71255514D01*
X145222528Y-71333318D01*
X145298920Y-71385515D01*
X145389600Y-71403878D01*
X147624800Y-71403878D01*
X147709514Y-71387938D01*
X147787318Y-71337872D01*
X147839515Y-71261480D01*
X147857878Y-71170800D01*
X147857878Y-70377050D01*
X148463000Y-70377050D01*
X148463000Y-71287004D01*
X148551939Y-71501722D01*
X148716277Y-71666061D01*
X148930995Y-71755000D01*
X149840950Y-71755000D01*
X149987000Y-71608950D01*
X149987000Y-70231000D01*
X150342600Y-70231000D01*
X150342600Y-71608950D01*
X150488650Y-71755000D01*
X151398605Y-71755000D01*
X151613323Y-71666061D01*
X151777661Y-71501722D01*
X151866600Y-71287004D01*
X151866600Y-71039998D01*
X156430048Y-71039998D01*
X156563525Y-71363037D01*
X156810463Y-71610407D01*
X157133269Y-71744447D01*
X157482798Y-71744752D01*
X157805837Y-71611275D01*
X158053207Y-71364337D01*
X158074600Y-71312817D01*
X158074600Y-71632204D01*
X158163539Y-71846922D01*
X158327877Y-72011261D01*
X158542595Y-72100200D01*
X158984950Y-72100200D01*
X159131000Y-71954150D01*
X159131000Y-71043800D01*
X159486600Y-71043800D01*
X159486600Y-71954150D01*
X159632650Y-72100200D01*
X160075005Y-72100200D01*
X160289723Y-72011261D01*
X160454061Y-71846922D01*
X160543000Y-71632204D01*
X160543000Y-71228135D01*
X190703084Y-71228135D01*
X190980885Y-71900465D01*
X191494829Y-72415307D01*
X192166673Y-72694282D01*
X192894135Y-72694916D01*
X193566465Y-72417115D01*
X194081307Y-71903171D01*
X194360282Y-71231327D01*
X194360916Y-70503865D01*
X194083115Y-69831535D01*
X193569171Y-69316693D01*
X192897327Y-69037718D01*
X192169865Y-69037084D01*
X191497535Y-69314885D01*
X190982693Y-69828829D01*
X190703718Y-70500673D01*
X190703084Y-71228135D01*
X160543000Y-71228135D01*
X160543000Y-71189850D01*
X160396950Y-71043800D01*
X159486600Y-71043800D01*
X159131000Y-71043800D01*
X159111000Y-71043800D01*
X159111000Y-70688200D01*
X159131000Y-70688200D01*
X159131000Y-69777850D01*
X159486600Y-69777850D01*
X159486600Y-70688200D01*
X160396950Y-70688200D01*
X160543000Y-70542150D01*
X160543000Y-70099796D01*
X160454061Y-69885078D01*
X160289723Y-69720739D01*
X160075005Y-69631800D01*
X159632650Y-69631800D01*
X159486600Y-69777850D01*
X159131000Y-69777850D01*
X158984950Y-69631800D01*
X158542595Y-69631800D01*
X158327877Y-69720739D01*
X158163539Y-69885078D01*
X158074600Y-70099796D01*
X158074600Y-70418637D01*
X158054075Y-70368963D01*
X157807137Y-70121593D01*
X157484331Y-69987553D01*
X157134802Y-69987248D01*
X156811763Y-70120725D01*
X156564393Y-70367663D01*
X156430353Y-70690469D01*
X156430048Y-71039998D01*
X151866600Y-71039998D01*
X151866600Y-70377050D01*
X151720550Y-70231000D01*
X150342600Y-70231000D01*
X149987000Y-70231000D01*
X148609050Y-70231000D01*
X148463000Y-70377050D01*
X147857878Y-70377050D01*
X147857878Y-68935600D01*
X147841938Y-68850886D01*
X147821675Y-68819396D01*
X148463000Y-68819396D01*
X148463000Y-69729350D01*
X148609050Y-69875400D01*
X149987000Y-69875400D01*
X149987000Y-68497450D01*
X150342600Y-68497450D01*
X150342600Y-69875400D01*
X151720550Y-69875400D01*
X151866600Y-69729350D01*
X151866600Y-68819396D01*
X151777661Y-68604678D01*
X151613323Y-68440339D01*
X151398605Y-68351400D01*
X150488650Y-68351400D01*
X150342600Y-68497450D01*
X149987000Y-68497450D01*
X149840950Y-68351400D01*
X148930995Y-68351400D01*
X148716277Y-68440339D01*
X148551939Y-68604678D01*
X148463000Y-68819396D01*
X147821675Y-68819396D01*
X147791872Y-68773082D01*
X147715480Y-68720885D01*
X147624800Y-68702522D01*
X145389600Y-68702522D01*
X145304886Y-68718462D01*
X145227082Y-68768528D01*
X145174885Y-68844920D01*
X145156522Y-68935600D01*
X143946278Y-68935600D01*
X143930338Y-68850886D01*
X143880272Y-68773082D01*
X143803880Y-68720885D01*
X143713200Y-68702522D01*
X141478000Y-68702522D01*
X141393286Y-68718462D01*
X141315482Y-68768528D01*
X141263285Y-68844920D01*
X141244922Y-68935600D01*
X130478600Y-68935600D01*
X130478600Y-67740600D01*
X195657400Y-67740600D01*
X195657400Y-116155400D01*
X195657400Y-116155400D01*
G37*
X195657400Y-116155400D02*
X130478600Y-116155400D01*
X130478600Y-113392135D01*
X131775084Y-113392135D01*
X132052885Y-114064465D01*
X132566829Y-114579307D01*
X133238673Y-114858282D01*
X133966135Y-114858916D01*
X134638465Y-114581115D01*
X135153307Y-114067171D01*
X135432282Y-113395327D01*
X135432284Y-113392135D01*
X190703084Y-113392135D01*
X190980885Y-114064465D01*
X191494829Y-114579307D01*
X192166673Y-114858282D01*
X192894135Y-114858916D01*
X193566465Y-114581115D01*
X194081307Y-114067171D01*
X194360282Y-113395327D01*
X194360916Y-112667865D01*
X194083115Y-111995535D01*
X193569171Y-111480693D01*
X192897327Y-111201718D01*
X192169865Y-111201084D01*
X191497535Y-111478885D01*
X190982693Y-111992829D01*
X190703718Y-112664673D01*
X190703084Y-113392135D01*
X135432284Y-113392135D01*
X135432916Y-112667865D01*
X135155115Y-111995535D01*
X134641171Y-111480693D01*
X133969327Y-111201718D01*
X133241865Y-111201084D01*
X132569535Y-111478885D01*
X132054693Y-111992829D01*
X131775718Y-112664673D01*
X131775084Y-113392135D01*
X130478600Y-113392135D01*
X130478600Y-108257084D01*
X136296097Y-108257084D01*
X136562352Y-108901471D01*
X137054936Y-109394915D01*
X137698857Y-109662295D01*
X138396084Y-109662903D01*
X139040471Y-109396648D01*
X139533915Y-108904064D01*
X139801295Y-108260143D01*
X139801505Y-108019178D01*
X145694228Y-108019178D01*
X145844721Y-108383397D01*
X146123138Y-108662300D01*
X146487093Y-108813428D01*
X146881178Y-108813772D01*
X147245397Y-108663279D01*
X147524300Y-108384862D01*
X147675428Y-108020907D01*
X147675429Y-108019178D01*
X150774228Y-108019178D01*
X150924721Y-108383397D01*
X151203138Y-108662300D01*
X151567093Y-108813428D01*
X151961178Y-108813772D01*
X152325397Y-108663279D01*
X152604300Y-108384862D01*
X152755428Y-108020907D01*
X152755429Y-108019178D01*
X155854228Y-108019178D01*
X156004721Y-108383397D01*
X156283138Y-108662300D01*
X156647093Y-108813428D01*
X157041178Y-108813772D01*
X157405397Y-108663279D01*
X157684300Y-108384862D01*
X157835428Y-108020907D01*
X157835429Y-108019178D01*
X160934228Y-108019178D01*
X161084721Y-108383397D01*
X161363138Y-108662300D01*
X161727093Y-108813428D01*
X162121178Y-108813772D01*
X162485397Y-108663279D01*
X162538368Y-108610400D01*
X170607322Y-108610400D01*
X170607322Y-110845600D01*
X170623262Y-110930314D01*
X170673328Y-111008118D01*
X170749720Y-111060315D01*
X170840400Y-111078678D01*
X173075600Y-111078678D01*
X173160314Y-111062738D01*
X173238118Y-111012672D01*
X173290315Y-110936280D01*
X173308678Y-110845600D01*
X173308678Y-108610400D01*
X178481322Y-108610400D01*
X178481322Y-110845600D01*
X178497262Y-110930314D01*
X178547328Y-111008118D01*
X178623720Y-111060315D01*
X178714400Y-111078678D01*
X180949600Y-111078678D01*
X181034314Y-111062738D01*
X181112118Y-111012672D01*
X181164315Y-110936280D01*
X181182678Y-110845600D01*
X181182678Y-108610400D01*
X181166738Y-108525686D01*
X181116672Y-108447882D01*
X181040280Y-108395685D01*
X180949600Y-108377322D01*
X178714400Y-108377322D01*
X178629686Y-108393262D01*
X178551882Y-108443328D01*
X178499685Y-108519720D01*
X178481322Y-108610400D01*
X173308678Y-108610400D01*
X173292738Y-108525686D01*
X173242672Y-108447882D01*
X173166280Y-108395685D01*
X173075600Y-108377322D01*
X170840400Y-108377322D01*
X170755686Y-108393262D01*
X170677882Y-108443328D01*
X170625685Y-108519720D01*
X170607322Y-108610400D01*
X162538368Y-108610400D01*
X162764300Y-108384862D01*
X162915428Y-108020907D01*
X162915772Y-107626822D01*
X162765279Y-107262603D01*
X162486862Y-106983700D01*
X162122907Y-106832572D01*
X161728822Y-106832228D01*
X161364603Y-106982721D01*
X161085700Y-107261138D01*
X160934572Y-107625093D01*
X160934228Y-108019178D01*
X157835429Y-108019178D01*
X157835772Y-107626822D01*
X157685279Y-107262603D01*
X157406862Y-106983700D01*
X157042907Y-106832572D01*
X156648822Y-106832228D01*
X156284603Y-106982721D01*
X156005700Y-107261138D01*
X155854572Y-107625093D01*
X155854228Y-108019178D01*
X152755429Y-108019178D01*
X152755772Y-107626822D01*
X152605279Y-107262603D01*
X152326862Y-106983700D01*
X151962907Y-106832572D01*
X151568822Y-106832228D01*
X151204603Y-106982721D01*
X150925700Y-107261138D01*
X150774572Y-107625093D01*
X150774228Y-108019178D01*
X147675429Y-108019178D01*
X147675772Y-107626822D01*
X147525279Y-107262603D01*
X147246862Y-106983700D01*
X146882907Y-106832572D01*
X146488822Y-106832228D01*
X146124603Y-106982721D01*
X145845700Y-107261138D01*
X145694572Y-107625093D01*
X145694228Y-108019178D01*
X139801505Y-108019178D01*
X139801903Y-107562916D01*
X139535648Y-106918529D01*
X139043064Y-106425085D01*
X138399143Y-106157705D01*
X137701916Y-106157097D01*
X137057529Y-106423352D01*
X136564085Y-106915936D01*
X136296705Y-107559857D01*
X136296097Y-108257084D01*
X130478600Y-108257084D01*
X130478600Y-103257084D01*
X136296097Y-103257084D01*
X136562352Y-103901471D01*
X137054936Y-104394915D01*
X137698857Y-104662295D01*
X138396084Y-104662903D01*
X139040471Y-104396648D01*
X139533915Y-103904064D01*
X139801295Y-103260143D01*
X139801903Y-102562916D01*
X139535648Y-101918529D01*
X139043064Y-101425085D01*
X138399143Y-101157705D01*
X137701916Y-101157097D01*
X137057529Y-101423352D01*
X136564085Y-101915936D01*
X136296705Y-102559857D01*
X136296097Y-103257084D01*
X130478600Y-103257084D01*
X130478600Y-100863400D01*
X145461322Y-100863400D01*
X145461322Y-103098600D01*
X145477262Y-103183314D01*
X145527328Y-103261118D01*
X145603720Y-103313315D01*
X145694400Y-103331678D01*
X147929600Y-103331678D01*
X148014314Y-103315738D01*
X148092118Y-103265672D01*
X148144315Y-103189280D01*
X148162678Y-103098600D01*
X148162678Y-100863400D01*
X149525322Y-100863400D01*
X149525322Y-103098600D01*
X149541262Y-103183314D01*
X149591328Y-103261118D01*
X149667720Y-103313315D01*
X149758400Y-103331678D01*
X151993600Y-103331678D01*
X152078314Y-103315738D01*
X152156118Y-103265672D01*
X152208315Y-103189280D01*
X152226678Y-103098600D01*
X152226678Y-100863400D01*
X152210738Y-100778686D01*
X152160672Y-100700882D01*
X152084280Y-100648685D01*
X151993600Y-100630322D01*
X149758400Y-100630322D01*
X149673686Y-100646262D01*
X149595882Y-100696328D01*
X149543685Y-100772720D01*
X149525322Y-100863400D01*
X148162678Y-100863400D01*
X148146738Y-100778686D01*
X148096672Y-100700882D01*
X148020280Y-100648685D01*
X147929600Y-100630322D01*
X145694400Y-100630322D01*
X145609686Y-100646262D01*
X145531882Y-100696328D01*
X145479685Y-100772720D01*
X145461322Y-100863400D01*
X130478600Y-100863400D01*
X130478600Y-100344998D01*
X165110248Y-100344998D01*
X165243725Y-100668037D01*
X165490663Y-100915407D01*
X165813469Y-101049447D01*
X166162998Y-101049752D01*
X166486037Y-100916275D01*
X166733407Y-100669337D01*
X166867447Y-100346531D01*
X166867752Y-99997002D01*
X166734275Y-99673963D01*
X166487337Y-99426593D01*
X166164531Y-99292553D01*
X165815002Y-99292248D01*
X165491963Y-99425725D01*
X165244593Y-99672663D01*
X165110553Y-99995469D01*
X165110248Y-100344998D01*
X130478600Y-100344998D01*
X130478600Y-97382084D01*
X136296097Y-97382084D01*
X136562352Y-98026471D01*
X137054936Y-98519915D01*
X137698857Y-98787295D01*
X138396084Y-98787903D01*
X139040471Y-98521648D01*
X139533915Y-98029064D01*
X139744882Y-97521000D01*
X165105922Y-97521000D01*
X165105922Y-98821000D01*
X165121862Y-98905714D01*
X165171928Y-98983518D01*
X165248320Y-99035715D01*
X165339000Y-99054078D01*
X166639000Y-99054078D01*
X166723714Y-99038138D01*
X166801518Y-98988072D01*
X166853715Y-98911680D01*
X166872078Y-98821000D01*
X166872078Y-97521000D01*
X166856138Y-97436286D01*
X166806072Y-97358482D01*
X166729680Y-97306285D01*
X166639000Y-97287922D01*
X165339000Y-97287922D01*
X165254286Y-97303862D01*
X165176482Y-97353928D01*
X165124285Y-97430320D01*
X165105922Y-97521000D01*
X139744882Y-97521000D01*
X139801295Y-97385143D01*
X139801903Y-96687916D01*
X139535648Y-96043529D01*
X139043064Y-95550085D01*
X138399143Y-95282705D01*
X137701916Y-95282097D01*
X137057529Y-95548352D01*
X136564085Y-96040936D01*
X136296705Y-96684857D01*
X136296097Y-97382084D01*
X130478600Y-97382084D01*
X130478600Y-92382084D01*
X136296097Y-92382084D01*
X136562352Y-93026471D01*
X137054936Y-93519915D01*
X137698857Y-93787295D01*
X138396084Y-93787903D01*
X139040471Y-93521648D01*
X139533915Y-93029064D01*
X139801295Y-92385143D01*
X139801903Y-91687916D01*
X139535648Y-91043529D01*
X139043064Y-90550085D01*
X138399143Y-90282705D01*
X137701916Y-90282097D01*
X137057529Y-90548352D01*
X136564085Y-91040936D01*
X136296705Y-91684857D01*
X136296097Y-92382084D01*
X130478600Y-92382084D01*
X130478600Y-89755998D01*
X163332248Y-89755998D01*
X163465725Y-90079037D01*
X163712663Y-90326407D01*
X164035469Y-90460447D01*
X164384998Y-90460752D01*
X164708037Y-90327275D01*
X164955407Y-90080337D01*
X165089447Y-89757531D01*
X165089752Y-89408002D01*
X164956275Y-89084963D01*
X164709337Y-88837593D01*
X164386531Y-88703553D01*
X164037002Y-88703248D01*
X163713963Y-88836725D01*
X163466593Y-89083663D01*
X163332553Y-89406469D01*
X163332248Y-89755998D01*
X130478600Y-89755998D01*
X130478600Y-87382084D01*
X136296097Y-87382084D01*
X136562352Y-88026471D01*
X137054936Y-88519915D01*
X137698857Y-88787295D01*
X138396084Y-88787903D01*
X139040471Y-88521648D01*
X139533915Y-88029064D01*
X139801295Y-87385143D01*
X139801903Y-86687916D01*
X139535648Y-86043529D01*
X139043064Y-85550085D01*
X138399143Y-85282705D01*
X137701916Y-85282097D01*
X137057529Y-85548352D01*
X136564085Y-86040936D01*
X136296705Y-86684857D01*
X136296097Y-87382084D01*
X130478600Y-87382084D01*
X130478600Y-83932000D01*
X163327922Y-83932000D01*
X163327922Y-85232000D01*
X163343862Y-85316714D01*
X163393928Y-85394518D01*
X163470320Y-85446715D01*
X163561000Y-85465078D01*
X164861000Y-85465078D01*
X164945714Y-85449138D01*
X165023518Y-85399072D01*
X165075715Y-85322680D01*
X165094078Y-85232000D01*
X165094078Y-83932000D01*
X165078138Y-83847286D01*
X165028072Y-83769482D01*
X164951680Y-83717285D01*
X164861000Y-83698922D01*
X163561000Y-83698922D01*
X163476286Y-83714862D01*
X163398482Y-83764928D01*
X163346285Y-83841320D01*
X163327922Y-83932000D01*
X130478600Y-83932000D01*
X130478600Y-81460084D01*
X136296097Y-81460084D01*
X136562352Y-82104471D01*
X137054936Y-82597915D01*
X137698857Y-82865295D01*
X138396084Y-82865903D01*
X139040471Y-82599648D01*
X139533915Y-82107064D01*
X139569950Y-82020280D01*
X153695228Y-82020280D01*
X153845721Y-82384499D01*
X154124138Y-82663402D01*
X154488093Y-82814530D01*
X154882178Y-82814874D01*
X155246397Y-82664381D01*
X155525300Y-82385964D01*
X155676428Y-82022009D01*
X155676772Y-81627924D01*
X155526279Y-81263705D01*
X155247862Y-80984802D01*
X154883907Y-80833674D01*
X154489822Y-80833330D01*
X154125603Y-80983823D01*
X153846700Y-81262240D01*
X153695572Y-81626195D01*
X153695228Y-82020280D01*
X139569950Y-82020280D01*
X139801295Y-81463143D01*
X139801903Y-80765916D01*
X139535648Y-80121529D01*
X139043064Y-79628085D01*
X138399143Y-79360705D01*
X137701916Y-79360097D01*
X137057529Y-79626352D01*
X136564085Y-80118936D01*
X136296705Y-80762857D01*
X136296097Y-81460084D01*
X130478600Y-81460084D01*
X130478600Y-78428178D01*
X150103126Y-78428178D01*
X150253619Y-78792397D01*
X150532036Y-79071300D01*
X150895991Y-79222428D01*
X151290076Y-79222772D01*
X151654295Y-79072279D01*
X151933198Y-78793862D01*
X152084326Y-78429907D01*
X152084327Y-78428178D01*
X157287330Y-78428178D01*
X157437823Y-78792397D01*
X157716240Y-79071300D01*
X158080195Y-79222428D01*
X158474280Y-79222772D01*
X158838499Y-79072279D01*
X159117402Y-78793862D01*
X159268530Y-78429907D01*
X159268874Y-78035822D01*
X159140674Y-77725554D01*
X163576116Y-77725554D01*
X163785341Y-78161102D01*
X164179830Y-78508126D01*
X164677090Y-78677770D01*
X165176200Y-78677770D01*
X165176200Y-77520800D01*
X165531800Y-77520800D01*
X165531800Y-78677770D01*
X166030910Y-78677770D01*
X166528170Y-78508126D01*
X166922659Y-78161102D01*
X167131884Y-77725554D01*
X167028458Y-77520800D01*
X165531800Y-77520800D01*
X165176200Y-77520800D01*
X163679542Y-77520800D01*
X163576116Y-77725554D01*
X159140674Y-77725554D01*
X159118381Y-77671603D01*
X158839964Y-77392700D01*
X158476009Y-77241572D01*
X158081924Y-77241228D01*
X157717705Y-77391721D01*
X157438802Y-77670138D01*
X157287674Y-78034093D01*
X157287330Y-78428178D01*
X152084327Y-78428178D01*
X152084670Y-78035822D01*
X151934177Y-77671603D01*
X151655760Y-77392700D01*
X151291805Y-77241572D01*
X150897720Y-77241228D01*
X150533501Y-77391721D01*
X150254598Y-77670138D01*
X150103470Y-78034093D01*
X150103126Y-78428178D01*
X130478600Y-78428178D01*
X130478600Y-76460084D01*
X136296097Y-76460084D01*
X136562352Y-77104471D01*
X137054936Y-77597915D01*
X137698857Y-77865295D01*
X138396084Y-77865903D01*
X139040471Y-77599648D01*
X139533915Y-77107064D01*
X139801295Y-76463143D01*
X139801834Y-75844400D01*
X143276922Y-75844400D01*
X143276922Y-77876400D01*
X143292862Y-77961114D01*
X143342928Y-78038918D01*
X143419320Y-78091115D01*
X143510000Y-78109478D01*
X145542000Y-78109478D01*
X145626714Y-78093538D01*
X145704518Y-78043472D01*
X145756715Y-77967080D01*
X145775078Y-77876400D01*
X145775078Y-76836017D01*
X145821400Y-76836017D01*
X145821400Y-76884783D01*
X145916140Y-77361071D01*
X146185935Y-77764848D01*
X146589712Y-78034643D01*
X147066000Y-78129383D01*
X147542288Y-78034643D01*
X147946065Y-77764848D01*
X148215860Y-77361071D01*
X148295549Y-76960446D01*
X163576116Y-76960446D01*
X163679542Y-77165200D01*
X165176200Y-77165200D01*
X165176200Y-76008230D01*
X165531800Y-76008230D01*
X165531800Y-77165200D01*
X167028458Y-77165200D01*
X167131884Y-76960446D01*
X166922659Y-76524898D01*
X166528170Y-76177874D01*
X166030910Y-76008230D01*
X165531800Y-76008230D01*
X165176200Y-76008230D01*
X164677090Y-76008230D01*
X164179830Y-76177874D01*
X163785341Y-76524898D01*
X163576116Y-76960446D01*
X148295549Y-76960446D01*
X148310600Y-76884783D01*
X148310600Y-76836017D01*
X148215860Y-76359729D01*
X147946065Y-75955952D01*
X147542288Y-75686157D01*
X147066000Y-75591417D01*
X146589712Y-75686157D01*
X146185935Y-75955952D01*
X145916140Y-76359729D01*
X145821400Y-76836017D01*
X145775078Y-76836017D01*
X145775078Y-75844400D01*
X145759138Y-75759686D01*
X145709072Y-75681882D01*
X145632680Y-75629685D01*
X145542000Y-75611322D01*
X143510000Y-75611322D01*
X143425286Y-75627262D01*
X143347482Y-75677328D01*
X143295285Y-75753720D01*
X143276922Y-75844400D01*
X139801834Y-75844400D01*
X139801903Y-75765916D01*
X139535648Y-75121529D01*
X139250693Y-74836076D01*
X153695228Y-74836076D01*
X153845721Y-75200295D01*
X154124138Y-75479198D01*
X154488093Y-75630326D01*
X154882178Y-75630670D01*
X155246397Y-75480177D01*
X155525300Y-75201760D01*
X155676428Y-74837805D01*
X155676458Y-74803000D01*
X163846759Y-74803000D01*
X163921294Y-75177712D01*
X164133551Y-75495378D01*
X164451217Y-75707635D01*
X164825929Y-75782170D01*
X165882071Y-75782170D01*
X166256783Y-75707635D01*
X166574449Y-75495378D01*
X166670723Y-75351292D01*
X179348921Y-75351292D01*
X179769527Y-76369237D01*
X180547666Y-77148736D01*
X181564875Y-77571118D01*
X182666292Y-77572079D01*
X183684237Y-77151473D01*
X184463736Y-76373334D01*
X184886118Y-75356125D01*
X184887079Y-74254708D01*
X184466473Y-73236763D01*
X183688334Y-72457264D01*
X182671125Y-72034882D01*
X181569708Y-72033921D01*
X180551763Y-72454527D01*
X179772264Y-73232666D01*
X179349882Y-74249875D01*
X179348921Y-75351292D01*
X166670723Y-75351292D01*
X166786706Y-75177712D01*
X166861241Y-74803000D01*
X166786706Y-74428288D01*
X166574449Y-74110622D01*
X166256783Y-73898365D01*
X165882071Y-73823830D01*
X164825929Y-73823830D01*
X164451217Y-73898365D01*
X164133551Y-74110622D01*
X163921294Y-74428288D01*
X163846759Y-74803000D01*
X155676458Y-74803000D01*
X155676772Y-74443720D01*
X155526279Y-74079501D01*
X155247862Y-73800598D01*
X154883907Y-73649470D01*
X154489822Y-73649126D01*
X154125603Y-73799619D01*
X153846700Y-74078036D01*
X153695572Y-74441991D01*
X153695228Y-74836076D01*
X139250693Y-74836076D01*
X139043064Y-74628085D01*
X138399143Y-74360705D01*
X137701916Y-74360097D01*
X137057529Y-74626352D01*
X136564085Y-75118936D01*
X136296705Y-75762857D01*
X136296097Y-76460084D01*
X130478600Y-76460084D01*
X130478600Y-71228135D01*
X131775084Y-71228135D01*
X132052885Y-71900465D01*
X132566829Y-72415307D01*
X133238673Y-72694282D01*
X133966135Y-72694916D01*
X134638465Y-72417115D01*
X134792849Y-72263000D01*
X163846759Y-72263000D01*
X163921294Y-72637712D01*
X164133551Y-72955378D01*
X164451217Y-73167635D01*
X164825929Y-73242170D01*
X165882071Y-73242170D01*
X166256783Y-73167635D01*
X166574449Y-72955378D01*
X166786706Y-72637712D01*
X166861241Y-72263000D01*
X166786706Y-71888288D01*
X166574449Y-71570622D01*
X166256783Y-71358365D01*
X165882071Y-71283830D01*
X164825929Y-71283830D01*
X164451217Y-71358365D01*
X164133551Y-71570622D01*
X163921294Y-71888288D01*
X163846759Y-72263000D01*
X134792849Y-72263000D01*
X135153307Y-71903171D01*
X135432282Y-71231327D01*
X135432916Y-70503865D01*
X135155115Y-69831535D01*
X134641171Y-69316693D01*
X133969327Y-69037718D01*
X133241865Y-69037084D01*
X132569535Y-69314885D01*
X132054693Y-69828829D01*
X131775718Y-70500673D01*
X131775084Y-71228135D01*
X130478600Y-71228135D01*
X130478600Y-68935600D01*
X141244922Y-68935600D01*
X141244922Y-71170800D01*
X141260862Y-71255514D01*
X141310928Y-71333318D01*
X141387320Y-71385515D01*
X141478000Y-71403878D01*
X143713200Y-71403878D01*
X143797914Y-71387938D01*
X143875718Y-71337872D01*
X143927915Y-71261480D01*
X143946278Y-71170800D01*
X143946278Y-68935600D01*
X145156522Y-68935600D01*
X145156522Y-71170800D01*
X145172462Y-71255514D01*
X145222528Y-71333318D01*
X145298920Y-71385515D01*
X145389600Y-71403878D01*
X147624800Y-71403878D01*
X147709514Y-71387938D01*
X147787318Y-71337872D01*
X147839515Y-71261480D01*
X147857878Y-71170800D01*
X147857878Y-70377050D01*
X148463000Y-70377050D01*
X148463000Y-71287004D01*
X148551939Y-71501722D01*
X148716277Y-71666061D01*
X148930995Y-71755000D01*
X149840950Y-71755000D01*
X149987000Y-71608950D01*
X149987000Y-70231000D01*
X150342600Y-70231000D01*
X150342600Y-71608950D01*
X150488650Y-71755000D01*
X151398605Y-71755000D01*
X151613323Y-71666061D01*
X151777661Y-71501722D01*
X151866600Y-71287004D01*
X151866600Y-71039998D01*
X156430048Y-71039998D01*
X156563525Y-71363037D01*
X156810463Y-71610407D01*
X157133269Y-71744447D01*
X157482798Y-71744752D01*
X157805837Y-71611275D01*
X158053207Y-71364337D01*
X158074600Y-71312817D01*
X158074600Y-71632204D01*
X158163539Y-71846922D01*
X158327877Y-72011261D01*
X158542595Y-72100200D01*
X158984950Y-72100200D01*
X159131000Y-71954150D01*
X159131000Y-71043800D01*
X159486600Y-71043800D01*
X159486600Y-71954150D01*
X159632650Y-72100200D01*
X160075005Y-72100200D01*
X160289723Y-72011261D01*
X160454061Y-71846922D01*
X160543000Y-71632204D01*
X160543000Y-71228135D01*
X190703084Y-71228135D01*
X190980885Y-71900465D01*
X191494829Y-72415307D01*
X192166673Y-72694282D01*
X192894135Y-72694916D01*
X193566465Y-72417115D01*
X194081307Y-71903171D01*
X194360282Y-71231327D01*
X194360916Y-70503865D01*
X194083115Y-69831535D01*
X193569171Y-69316693D01*
X192897327Y-69037718D01*
X192169865Y-69037084D01*
X191497535Y-69314885D01*
X190982693Y-69828829D01*
X190703718Y-70500673D01*
X190703084Y-71228135D01*
X160543000Y-71228135D01*
X160543000Y-71189850D01*
X160396950Y-71043800D01*
X159486600Y-71043800D01*
X159131000Y-71043800D01*
X159111000Y-71043800D01*
X159111000Y-70688200D01*
X159131000Y-70688200D01*
X159131000Y-69777850D01*
X159486600Y-69777850D01*
X159486600Y-70688200D01*
X160396950Y-70688200D01*
X160543000Y-70542150D01*
X160543000Y-70099796D01*
X160454061Y-69885078D01*
X160289723Y-69720739D01*
X160075005Y-69631800D01*
X159632650Y-69631800D01*
X159486600Y-69777850D01*
X159131000Y-69777850D01*
X158984950Y-69631800D01*
X158542595Y-69631800D01*
X158327877Y-69720739D01*
X158163539Y-69885078D01*
X158074600Y-70099796D01*
X158074600Y-70418637D01*
X158054075Y-70368963D01*
X157807137Y-70121593D01*
X157484331Y-69987553D01*
X157134802Y-69987248D01*
X156811763Y-70120725D01*
X156564393Y-70367663D01*
X156430353Y-70690469D01*
X156430048Y-71039998D01*
X151866600Y-71039998D01*
X151866600Y-70377050D01*
X151720550Y-70231000D01*
X150342600Y-70231000D01*
X149987000Y-70231000D01*
X148609050Y-70231000D01*
X148463000Y-70377050D01*
X147857878Y-70377050D01*
X147857878Y-68935600D01*
X147841938Y-68850886D01*
X147821675Y-68819396D01*
X148463000Y-68819396D01*
X148463000Y-69729350D01*
X148609050Y-69875400D01*
X149987000Y-69875400D01*
X149987000Y-68497450D01*
X150342600Y-68497450D01*
X150342600Y-69875400D01*
X151720550Y-69875400D01*
X151866600Y-69729350D01*
X151866600Y-68819396D01*
X151777661Y-68604678D01*
X151613323Y-68440339D01*
X151398605Y-68351400D01*
X150488650Y-68351400D01*
X150342600Y-68497450D01*
X149987000Y-68497450D01*
X149840950Y-68351400D01*
X148930995Y-68351400D01*
X148716277Y-68440339D01*
X148551939Y-68604678D01*
X148463000Y-68819396D01*
X147821675Y-68819396D01*
X147791872Y-68773082D01*
X147715480Y-68720885D01*
X147624800Y-68702522D01*
X145389600Y-68702522D01*
X145304886Y-68718462D01*
X145227082Y-68768528D01*
X145174885Y-68844920D01*
X145156522Y-68935600D01*
X143946278Y-68935600D01*
X143930338Y-68850886D01*
X143880272Y-68773082D01*
X143803880Y-68720885D01*
X143713200Y-68702522D01*
X141478000Y-68702522D01*
X141393286Y-68718462D01*
X141315482Y-68768528D01*
X141263285Y-68844920D01*
X141244922Y-68935600D01*
X130478600Y-68935600D01*
X130478600Y-67740600D01*
X195657400Y-67740600D01*
X195657400Y-116155400D01*
M02*
