G04 #@! TF.FileFunction,Copper,L1,Top,Signal*
%FSLAX46Y46*%
G04 Gerber Fmt 4.6, Leading zero omitted, Abs format (unit mm)*
G04 Created by KiCad (PCBNEW 4.0.0-2.201512072331+6194~38~ubuntu14.04.1-stable) date Sun 05 Jun 2016 08:25:22 PM CEST*
%MOMM*%
G01*
G04 APERTURE LIST*
%ADD10C,0.100000*%
%ADD11R,1.300000X1.300000*%
%ADD12C,1.300000*%
%ADD13R,1.250000X1.500000*%
%ADD14R,1.500000X1.250000*%
%ADD15R,2.000000X1.600000*%
%ADD16R,0.600000X0.700000*%
%ADD17C,1.524000*%
%ADD18R,1.198880X1.198880*%
%ADD19R,0.700000X0.600000*%
%ADD20C,3.048000*%
%ADD21R,0.800100X0.800100*%
%ADD22R,1.500000X1.300000*%
%ADD23R,1.300000X1.500000*%
%ADD24R,2.032000X2.032000*%
%ADD25O,2.032000X2.032000*%
%ADD26R,2.108200X2.108200*%
%ADD27O,1.501140X2.499360*%
%ADD28R,0.600000X1.550000*%
%ADD29C,0.685800*%
%ADD30C,1.219200*%
%ADD31C,0.609600*%
%ADD32C,0.152400*%
G04 APERTURE END LIST*
D10*
D11*
X164592000Y-83566000D03*
D12*
X164592000Y-88566000D03*
D13*
X171196000Y-88412000D03*
X171196000Y-90912000D03*
D14*
X172700000Y-80772000D03*
X170200000Y-80772000D03*
D11*
X175514000Y-85344000D03*
D12*
X173514000Y-85344000D03*
D14*
X174478000Y-106426000D03*
X171978000Y-106426000D03*
D13*
X184404000Y-88666000D03*
X184404000Y-91166000D03*
X153162000Y-91841000D03*
X153162000Y-94341000D03*
X155829000Y-91841000D03*
X155829000Y-94341000D03*
D11*
X165989000Y-98171000D03*
D12*
X165989000Y-100171000D03*
D15*
X178530000Y-90932000D03*
X174530000Y-90932000D03*
D16*
X153986000Y-103886000D03*
X155386000Y-103886000D03*
D17*
X147283898Y-82296000D03*
X150876000Y-78703898D03*
X154468102Y-82296000D03*
X150876000Y-85888102D03*
D18*
X189517020Y-105918000D03*
X187418980Y-105918000D03*
D19*
X157988000Y-91375000D03*
X157988000Y-92775000D03*
D18*
X189517020Y-102616000D03*
X187418980Y-102616000D03*
D16*
X151068000Y-94742000D03*
X149668000Y-94742000D03*
D20*
X138049000Y-102910000D03*
X138049000Y-107910000D03*
X138557000Y-76240000D03*
X138557000Y-81240000D03*
X138303000Y-87035000D03*
X138303000Y-92035000D03*
X138303000Y-97035000D03*
D21*
X157668000Y-97932240D03*
X155768000Y-97932240D03*
X156718000Y-99931220D03*
D22*
X186610000Y-108204000D03*
X189310000Y-108204000D03*
X171624000Y-104140000D03*
X174324000Y-104140000D03*
D23*
X181610000Y-88312000D03*
X181610000Y-91012000D03*
D22*
X157273000Y-102108000D03*
X159973000Y-102108000D03*
X184324000Y-98552000D03*
X187024000Y-98552000D03*
X146638000Y-87122000D03*
X143938000Y-87122000D03*
D23*
X160528000Y-97997000D03*
X160528000Y-95297000D03*
D22*
X146511000Y-91948000D03*
X143811000Y-91948000D03*
X143811000Y-94742000D03*
X146511000Y-94742000D03*
X168609000Y-94615000D03*
X165909000Y-94615000D03*
D17*
X146685000Y-107823000D03*
X151765000Y-107823000D03*
X156845000Y-107823000D03*
X161925000Y-107823000D03*
D24*
X148463000Y-75184000D03*
D25*
X151003000Y-75184000D03*
D26*
X189445900Y-75450700D03*
X189445900Y-84569300D03*
X184950100Y-75450700D03*
X184950100Y-84569300D03*
D27*
X169926000Y-77216000D03*
X167386000Y-77216000D03*
X172466000Y-77216000D03*
D28*
X177419000Y-100490000D03*
X178689000Y-100490000D03*
X179959000Y-100490000D03*
X181229000Y-100490000D03*
X181229000Y-95090000D03*
X179959000Y-95090000D03*
X178689000Y-95090000D03*
X177419000Y-95090000D03*
D29*
X160655000Y-100330000D03*
X143383000Y-97282000D03*
X184658000Y-108712000D03*
X172466000Y-102108000D03*
X183134000Y-101600000D03*
X175514000Y-93980000D03*
X178816000Y-88138000D03*
D30*
X164592000Y-83566000D02*
X166350000Y-83566000D01*
X166350000Y-83566000D02*
X171196000Y-88412000D01*
X154468102Y-82296000D02*
X163322000Y-82296000D01*
X163322000Y-82296000D02*
X164592000Y-83566000D01*
X167386000Y-77216000D02*
X167386000Y-80772000D01*
X167386000Y-80772000D02*
X164592000Y-83566000D01*
D31*
X153986000Y-103886000D02*
X153986000Y-105602000D01*
X153986000Y-105602000D02*
X151765000Y-107823000D01*
X159973000Y-102108000D02*
X159973000Y-101012000D01*
X159973000Y-101012000D02*
X160655000Y-100330000D01*
X143811000Y-94742000D02*
X143811000Y-96854000D01*
X143811000Y-96854000D02*
X143383000Y-97282000D01*
X171978000Y-104494000D02*
X171624000Y-104140000D01*
X186610000Y-108204000D02*
X185166000Y-108204000D01*
X185166000Y-108204000D02*
X184658000Y-108712000D01*
X171624000Y-104140000D02*
X171624000Y-102950000D01*
X171624000Y-102950000D02*
X172466000Y-102108000D01*
X181229000Y-100490000D02*
X182024000Y-100490000D01*
X182024000Y-100490000D02*
X183134000Y-101600000D01*
X177419000Y-95090000D02*
X176624000Y-95090000D01*
X176624000Y-95090000D02*
X175514000Y-93980000D01*
D30*
X172700000Y-80772000D02*
X172700000Y-77450000D01*
X172700000Y-77450000D02*
X172466000Y-77216000D01*
D31*
X181610000Y-88312000D02*
X178990000Y-88312000D01*
X178990000Y-88312000D02*
X178816000Y-88138000D01*
X178689000Y-100490000D02*
X178689000Y-102489000D01*
X177038000Y-104140000D02*
X174324000Y-104140000D01*
X178689000Y-102489000D02*
X177038000Y-104140000D01*
X174324000Y-104140000D02*
X174324000Y-106272000D01*
X174324000Y-106272000D02*
X174478000Y-106426000D01*
X157273000Y-102108000D02*
X157273000Y-103425000D01*
X167894000Y-105029000D02*
X169164000Y-103759000D01*
X158877000Y-105029000D02*
X167894000Y-105029000D01*
X157273000Y-103425000D02*
X158877000Y-105029000D01*
X156718000Y-99931220D02*
X156718000Y-101553000D01*
X189445900Y-84569300D02*
X189445900Y-91732100D01*
X169164000Y-103632000D02*
X169164000Y-103759000D01*
X169164000Y-103759000D02*
X169164000Y-106426000D01*
X176022000Y-96774000D02*
X169164000Y-103632000D01*
X182626000Y-96774000D02*
X176022000Y-96774000D01*
X183896000Y-95504000D02*
X182626000Y-96774000D01*
X185674000Y-95504000D02*
X183896000Y-95504000D01*
X189445900Y-91732100D02*
X185674000Y-95504000D01*
X171978000Y-106426000D02*
X169164000Y-106426000D01*
X184404000Y-91166000D02*
X184404000Y-93726000D01*
X183040000Y-95090000D02*
X181229000Y-95090000D01*
X184404000Y-93726000D02*
X183040000Y-95090000D01*
X155829000Y-91841000D02*
X157522000Y-91841000D01*
X157522000Y-91841000D02*
X157988000Y-91375000D01*
X153162000Y-91841000D02*
X155829000Y-91841000D01*
X146638000Y-87122000D02*
X146638000Y-87710000D01*
X146638000Y-87710000D02*
X150769000Y-91841000D01*
X150769000Y-91841000D02*
X153162000Y-91841000D01*
X165989000Y-98171000D02*
X160702000Y-98171000D01*
X160702000Y-98171000D02*
X160528000Y-97997000D01*
X165909000Y-94615000D02*
X165909000Y-98091000D01*
X165909000Y-98091000D02*
X165989000Y-98171000D01*
X157668000Y-97932240D02*
X160463240Y-97932240D01*
X160463240Y-97932240D02*
X160528000Y-97997000D01*
X178530000Y-90932000D02*
X181530000Y-90932000D01*
X181530000Y-90932000D02*
X181610000Y-91012000D01*
X179959000Y-95090000D02*
X179959000Y-93853000D01*
X181610000Y-92202000D02*
X181610000Y-91012000D01*
X179959000Y-93853000D02*
X181610000Y-92202000D01*
X178689000Y-95090000D02*
X178530000Y-94931000D01*
X178530000Y-94931000D02*
X178530000Y-90932000D01*
X178689000Y-95090000D02*
X179959000Y-95090000D01*
X179959000Y-100490000D02*
X179959000Y-99187000D01*
X180594000Y-98552000D02*
X184324000Y-98552000D01*
X179959000Y-99187000D02*
X180594000Y-98552000D01*
X156845000Y-107823000D02*
X158242000Y-109220000D01*
X179959000Y-106045000D02*
X179959000Y-100490000D01*
X176784000Y-109220000D02*
X179959000Y-106045000D01*
X158242000Y-109220000D02*
X176784000Y-109220000D01*
X155386000Y-103886000D02*
X155386000Y-106364000D01*
X155386000Y-106364000D02*
X156845000Y-107823000D01*
D30*
X138557000Y-81240000D02*
X140041000Y-79756000D01*
X150876000Y-82042000D02*
X150876000Y-85888102D01*
X148590000Y-79756000D02*
X150876000Y-82042000D01*
X140041000Y-79756000D02*
X148590000Y-79756000D01*
D31*
X189310000Y-108204000D02*
X189310000Y-106125020D01*
X189310000Y-106125020D02*
X189517020Y-105918000D01*
X157988000Y-92775000D02*
X157988000Y-94234000D01*
X159051000Y-95297000D02*
X160528000Y-95297000D01*
X157988000Y-94234000D02*
X159051000Y-95297000D01*
X187024000Y-98552000D02*
X188468000Y-98552000D01*
X189517020Y-99601020D02*
X189517020Y-102616000D01*
X188468000Y-98552000D02*
X189517020Y-99601020D01*
X146511000Y-94742000D02*
X149668000Y-94742000D01*
X146511000Y-91948000D02*
X146511000Y-94742000D01*
X146685000Y-107823000D02*
X141772000Y-102910000D01*
X141772000Y-102910000D02*
X138049000Y-102910000D01*
X138303000Y-87035000D02*
X143851000Y-87035000D01*
X143851000Y-87035000D02*
X143938000Y-87122000D01*
X138303000Y-92035000D02*
X143724000Y-92035000D01*
X143724000Y-92035000D02*
X143811000Y-91948000D01*
X138303000Y-92035000D02*
X138978000Y-92710000D01*
D30*
X138557000Y-76240000D02*
X139613000Y-75184000D01*
X139613000Y-75184000D02*
X148463000Y-75184000D01*
X151003000Y-75184000D02*
X150876000Y-75311000D01*
X150876000Y-75311000D02*
X150876000Y-78703898D01*
D32*
G36*
X195657400Y-116155400D02*
X130478600Y-116155400D01*
X130478600Y-113392135D01*
X131775084Y-113392135D01*
X132052885Y-114064465D01*
X132566829Y-114579307D01*
X133238673Y-114858282D01*
X133966135Y-114858916D01*
X134638465Y-114581115D01*
X135153307Y-114067171D01*
X135432282Y-113395327D01*
X135432284Y-113392135D01*
X190703084Y-113392135D01*
X190980885Y-114064465D01*
X191494829Y-114579307D01*
X192166673Y-114858282D01*
X192894135Y-114858916D01*
X193566465Y-114581115D01*
X194081307Y-114067171D01*
X194360282Y-113395327D01*
X194360916Y-112667865D01*
X194083115Y-111995535D01*
X193569171Y-111480693D01*
X192897327Y-111201718D01*
X192169865Y-111201084D01*
X191497535Y-111478885D01*
X190982693Y-111992829D01*
X190703718Y-112664673D01*
X190703084Y-113392135D01*
X135432284Y-113392135D01*
X135432916Y-112667865D01*
X135155115Y-111995535D01*
X134641171Y-111480693D01*
X133969327Y-111201718D01*
X133241865Y-111201084D01*
X132569535Y-111478885D01*
X132054693Y-111992829D01*
X131775718Y-112664673D01*
X131775084Y-113392135D01*
X130478600Y-113392135D01*
X130478600Y-109446788D01*
X136763659Y-109446788D01*
X136933727Y-109747533D01*
X137721816Y-110034456D01*
X138559715Y-109997949D01*
X139164273Y-109747533D01*
X139334341Y-109446788D01*
X138049000Y-108161447D01*
X136763659Y-109446788D01*
X130478600Y-109446788D01*
X130478600Y-107582816D01*
X135924544Y-107582816D01*
X135961051Y-108420715D01*
X136211467Y-109025273D01*
X136512212Y-109195341D01*
X137797553Y-107910000D01*
X138300447Y-107910000D01*
X139585788Y-109195341D01*
X139886533Y-109025273D01*
X140173456Y-108237184D01*
X140136949Y-107399285D01*
X139886533Y-106794727D01*
X139585788Y-106624659D01*
X138300447Y-107910000D01*
X137797553Y-107910000D01*
X136512212Y-106624659D01*
X136211467Y-106794727D01*
X135924544Y-107582816D01*
X130478600Y-107582816D01*
X130478600Y-106373212D01*
X136763659Y-106373212D01*
X138049000Y-107658553D01*
X139334341Y-106373212D01*
X139164273Y-106072467D01*
X138376184Y-105785544D01*
X137538285Y-105822051D01*
X136933727Y-106072467D01*
X136763659Y-106373212D01*
X130478600Y-106373212D01*
X130478600Y-103257084D01*
X136296097Y-103257084D01*
X136562352Y-103901471D01*
X137054936Y-104394915D01*
X137698857Y-104662295D01*
X138396084Y-104662903D01*
X139040471Y-104396648D01*
X139533915Y-103904064D01*
X139725200Y-103443400D01*
X141551058Y-103443400D01*
X145705774Y-107598116D01*
X145694572Y-107625093D01*
X145694228Y-108019178D01*
X145844721Y-108383397D01*
X146123138Y-108662300D01*
X146487093Y-108813428D01*
X146881178Y-108813772D01*
X146897940Y-108806846D01*
X151032601Y-108806846D01*
X151108862Y-109028588D01*
X151620166Y-109187911D01*
X152153520Y-109139439D01*
X152421138Y-109028588D01*
X152497399Y-108806846D01*
X151765000Y-108074447D01*
X151032601Y-108806846D01*
X146897940Y-108806846D01*
X147245397Y-108663279D01*
X147524300Y-108384862D01*
X147675428Y-108020907D01*
X147675727Y-107678166D01*
X150400089Y-107678166D01*
X150448561Y-108211520D01*
X150559412Y-108479138D01*
X150781154Y-108555399D01*
X151513553Y-107823000D01*
X152016447Y-107823000D01*
X152748846Y-108555399D01*
X152970588Y-108479138D01*
X153129911Y-107967834D01*
X153081439Y-107434480D01*
X152970588Y-107166862D01*
X152748846Y-107090601D01*
X152016447Y-107823000D01*
X151513553Y-107823000D01*
X150781154Y-107090601D01*
X150559412Y-107166862D01*
X150400089Y-107678166D01*
X147675727Y-107678166D01*
X147675772Y-107626822D01*
X147525279Y-107262603D01*
X147246862Y-106983700D01*
X146898759Y-106839154D01*
X151032601Y-106839154D01*
X151765000Y-107571553D01*
X152497399Y-106839154D01*
X152421138Y-106617412D01*
X151909834Y-106458089D01*
X151376480Y-106506561D01*
X151108862Y-106617412D01*
X151032601Y-106839154D01*
X146898759Y-106839154D01*
X146882907Y-106832572D01*
X146488822Y-106832228D01*
X146460339Y-106843997D01*
X143823392Y-104207050D01*
X153101800Y-104207050D01*
X153101800Y-104352204D01*
X153190739Y-104566922D01*
X153355077Y-104731261D01*
X153569795Y-104820200D01*
X153689950Y-104820200D01*
X153836000Y-104674150D01*
X153836000Y-104061000D01*
X153247850Y-104061000D01*
X153101800Y-104207050D01*
X143823392Y-104207050D01*
X143036138Y-103419796D01*
X153101800Y-103419796D01*
X153101800Y-103564950D01*
X153247850Y-103711000D01*
X153836000Y-103711000D01*
X153836000Y-103097850D01*
X154136000Y-103097850D01*
X154136000Y-103711000D01*
X154183800Y-103711000D01*
X154183800Y-104061000D01*
X154136000Y-104061000D01*
X154136000Y-104674150D01*
X154282050Y-104820200D01*
X154402205Y-104820200D01*
X154616923Y-104731261D01*
X154781261Y-104566922D01*
X154852600Y-104394694D01*
X154852600Y-106364000D01*
X154893203Y-106568123D01*
X155008829Y-106741171D01*
X155865774Y-107598115D01*
X155854572Y-107625093D01*
X155854228Y-108019178D01*
X156004721Y-108383397D01*
X156283138Y-108662300D01*
X156647093Y-108813428D01*
X157041178Y-108813772D01*
X157069661Y-108802003D01*
X157864829Y-109597171D01*
X158037876Y-109712797D01*
X158242000Y-109753400D01*
X176784000Y-109753400D01*
X176988123Y-109712797D01*
X177161171Y-109597171D01*
X177933162Y-108825180D01*
X184086401Y-108825180D01*
X184173224Y-109035306D01*
X184333849Y-109196211D01*
X184543823Y-109283400D01*
X184771180Y-109283599D01*
X184981306Y-109196776D01*
X185142211Y-109036151D01*
X185180571Y-108943771D01*
X185386941Y-108737400D01*
X185626922Y-108737400D01*
X185626922Y-108854000D01*
X185642862Y-108938714D01*
X185692928Y-109016518D01*
X185769320Y-109068715D01*
X185860000Y-109087078D01*
X187360000Y-109087078D01*
X187444714Y-109071138D01*
X187522518Y-109021072D01*
X187574715Y-108944680D01*
X187593078Y-108854000D01*
X187593078Y-107554000D01*
X188326922Y-107554000D01*
X188326922Y-108854000D01*
X188342862Y-108938714D01*
X188392928Y-109016518D01*
X188469320Y-109068715D01*
X188560000Y-109087078D01*
X190060000Y-109087078D01*
X190144714Y-109071138D01*
X190222518Y-109021072D01*
X190274715Y-108944680D01*
X190293078Y-108854000D01*
X190293078Y-107554000D01*
X190277138Y-107469286D01*
X190227072Y-107391482D01*
X190150680Y-107339285D01*
X190060000Y-107320922D01*
X189843400Y-107320922D01*
X189843400Y-106750518D01*
X190116460Y-106750518D01*
X190201174Y-106734578D01*
X190278978Y-106684512D01*
X190331175Y-106608120D01*
X190349538Y-106517440D01*
X190349538Y-105318560D01*
X190333598Y-105233846D01*
X190283532Y-105156042D01*
X190207140Y-105103845D01*
X190116460Y-105085482D01*
X188917580Y-105085482D01*
X188832866Y-105101422D01*
X188755062Y-105151488D01*
X188702865Y-105227880D01*
X188684502Y-105318560D01*
X188684502Y-106517440D01*
X188700442Y-106602154D01*
X188750508Y-106679958D01*
X188776600Y-106697786D01*
X188776600Y-107320922D01*
X188560000Y-107320922D01*
X188475286Y-107336862D01*
X188397482Y-107386928D01*
X188345285Y-107463320D01*
X188326922Y-107554000D01*
X187593078Y-107554000D01*
X187577138Y-107469286D01*
X187527072Y-107391482D01*
X187450680Y-107339285D01*
X187360000Y-107320922D01*
X185860000Y-107320922D01*
X185775286Y-107336862D01*
X185697482Y-107386928D01*
X185645285Y-107463320D01*
X185626922Y-107554000D01*
X185626922Y-107670600D01*
X185166000Y-107670600D01*
X184961876Y-107711203D01*
X184892563Y-107757516D01*
X184788829Y-107826829D01*
X184788827Y-107826832D01*
X184426275Y-108189383D01*
X184334694Y-108227224D01*
X184173789Y-108387849D01*
X184086600Y-108597823D01*
X184086401Y-108825180D01*
X177933162Y-108825180D01*
X180336171Y-106422171D01*
X180451797Y-106249123D01*
X180453243Y-106241850D01*
X186235340Y-106241850D01*
X186235340Y-106633644D01*
X186324279Y-106848362D01*
X186488617Y-107012701D01*
X186703335Y-107101640D01*
X187095130Y-107101640D01*
X187241180Y-106955590D01*
X187241180Y-106095800D01*
X187596780Y-106095800D01*
X187596780Y-106955590D01*
X187742830Y-107101640D01*
X188134625Y-107101640D01*
X188349343Y-107012701D01*
X188513681Y-106848362D01*
X188602620Y-106633644D01*
X188602620Y-106241850D01*
X188456570Y-106095800D01*
X187596780Y-106095800D01*
X187241180Y-106095800D01*
X186381390Y-106095800D01*
X186235340Y-106241850D01*
X180453243Y-106241850D01*
X180492400Y-106045000D01*
X180492400Y-105202356D01*
X186235340Y-105202356D01*
X186235340Y-105594150D01*
X186381390Y-105740200D01*
X187241180Y-105740200D01*
X187241180Y-104880410D01*
X187596780Y-104880410D01*
X187596780Y-105740200D01*
X188456570Y-105740200D01*
X188602620Y-105594150D01*
X188602620Y-105202356D01*
X188513681Y-104987638D01*
X188349343Y-104823299D01*
X188134625Y-104734360D01*
X187742830Y-104734360D01*
X187596780Y-104880410D01*
X187241180Y-104880410D01*
X187095130Y-104734360D01*
X186703335Y-104734360D01*
X186488617Y-104823299D01*
X186324279Y-104987638D01*
X186235340Y-105202356D01*
X180492400Y-105202356D01*
X180492400Y-102939850D01*
X186235340Y-102939850D01*
X186235340Y-103331644D01*
X186324279Y-103546362D01*
X186488617Y-103710701D01*
X186703335Y-103799640D01*
X187095130Y-103799640D01*
X187241180Y-103653590D01*
X187241180Y-102793800D01*
X187596780Y-102793800D01*
X187596780Y-103653590D01*
X187742830Y-103799640D01*
X188134625Y-103799640D01*
X188349343Y-103710701D01*
X188513681Y-103546362D01*
X188602620Y-103331644D01*
X188602620Y-102939850D01*
X188456570Y-102793800D01*
X187596780Y-102793800D01*
X187241180Y-102793800D01*
X186381390Y-102793800D01*
X186235340Y-102939850D01*
X180492400Y-102939850D01*
X180492400Y-100490000D01*
X180695600Y-100490000D01*
X180695922Y-100491619D01*
X180695922Y-101265000D01*
X180711862Y-101349714D01*
X180761928Y-101427518D01*
X180838320Y-101479715D01*
X180929000Y-101498078D01*
X181529000Y-101498078D01*
X181613714Y-101482138D01*
X181691518Y-101432072D01*
X181743715Y-101355680D01*
X181762078Y-101265000D01*
X181762078Y-101023400D01*
X181803058Y-101023400D01*
X182611383Y-101831725D01*
X182649224Y-101923306D01*
X182809849Y-102084211D01*
X183019823Y-102171400D01*
X183247180Y-102171599D01*
X183457306Y-102084776D01*
X183618211Y-101924151D01*
X183628091Y-101900356D01*
X186235340Y-101900356D01*
X186235340Y-102292150D01*
X186381390Y-102438200D01*
X187241180Y-102438200D01*
X187241180Y-101578410D01*
X187596780Y-101578410D01*
X187596780Y-102438200D01*
X188456570Y-102438200D01*
X188602620Y-102292150D01*
X188602620Y-101900356D01*
X188513681Y-101685638D01*
X188349343Y-101521299D01*
X188134625Y-101432360D01*
X187742830Y-101432360D01*
X187596780Y-101578410D01*
X187241180Y-101578410D01*
X187095130Y-101432360D01*
X186703335Y-101432360D01*
X186488617Y-101521299D01*
X186324279Y-101685638D01*
X186235340Y-101900356D01*
X183628091Y-101900356D01*
X183705400Y-101714177D01*
X183705599Y-101486820D01*
X183618776Y-101276694D01*
X183458151Y-101115789D01*
X183365772Y-101077430D01*
X182401171Y-100112829D01*
X182228123Y-99997203D01*
X182024000Y-99956600D01*
X181762078Y-99956600D01*
X181762078Y-99715000D01*
X181746138Y-99630286D01*
X181696072Y-99552482D01*
X181619680Y-99500285D01*
X181529000Y-99481922D01*
X180929000Y-99481922D01*
X180844286Y-99497862D01*
X180766482Y-99547928D01*
X180714285Y-99624320D01*
X180695922Y-99715000D01*
X180695922Y-100488381D01*
X180695600Y-100490000D01*
X180492400Y-100490000D01*
X180492400Y-99407942D01*
X180814941Y-99085400D01*
X183340922Y-99085400D01*
X183340922Y-99202000D01*
X183356862Y-99286714D01*
X183406928Y-99364518D01*
X183483320Y-99416715D01*
X183574000Y-99435078D01*
X185074000Y-99435078D01*
X185158714Y-99419138D01*
X185236518Y-99369072D01*
X185288715Y-99292680D01*
X185307078Y-99202000D01*
X185307078Y-97902000D01*
X186040922Y-97902000D01*
X186040922Y-99202000D01*
X186056862Y-99286714D01*
X186106928Y-99364518D01*
X186183320Y-99416715D01*
X186274000Y-99435078D01*
X187774000Y-99435078D01*
X187858714Y-99419138D01*
X187936518Y-99369072D01*
X187988715Y-99292680D01*
X188007078Y-99202000D01*
X188007078Y-99085400D01*
X188247058Y-99085400D01*
X188983620Y-99821962D01*
X188983620Y-101783482D01*
X188917580Y-101783482D01*
X188832866Y-101799422D01*
X188755062Y-101849488D01*
X188702865Y-101925880D01*
X188684502Y-102016560D01*
X188684502Y-103215440D01*
X188700442Y-103300154D01*
X188750508Y-103377958D01*
X188826900Y-103430155D01*
X188917580Y-103448518D01*
X190116460Y-103448518D01*
X190201174Y-103432578D01*
X190278978Y-103382512D01*
X190331175Y-103306120D01*
X190349538Y-103215440D01*
X190349538Y-102016560D01*
X190333598Y-101931846D01*
X190283532Y-101854042D01*
X190207140Y-101801845D01*
X190116460Y-101783482D01*
X190050420Y-101783482D01*
X190050420Y-99601020D01*
X190009817Y-99396897D01*
X190009817Y-99396896D01*
X189894191Y-99223849D01*
X188845171Y-98174829D01*
X188672123Y-98059203D01*
X188468000Y-98018600D01*
X188007078Y-98018600D01*
X188007078Y-97902000D01*
X187991138Y-97817286D01*
X187941072Y-97739482D01*
X187864680Y-97687285D01*
X187774000Y-97668922D01*
X186274000Y-97668922D01*
X186189286Y-97684862D01*
X186111482Y-97734928D01*
X186059285Y-97811320D01*
X186040922Y-97902000D01*
X185307078Y-97902000D01*
X185291138Y-97817286D01*
X185241072Y-97739482D01*
X185164680Y-97687285D01*
X185074000Y-97668922D01*
X183574000Y-97668922D01*
X183489286Y-97684862D01*
X183411482Y-97734928D01*
X183359285Y-97811320D01*
X183340922Y-97902000D01*
X183340922Y-98018600D01*
X180594005Y-98018600D01*
X180594000Y-98018599D01*
X180389877Y-98059203D01*
X180216829Y-98174829D01*
X180216827Y-98174832D01*
X179581829Y-98809829D01*
X179466203Y-98982877D01*
X179425600Y-99187000D01*
X179425600Y-105824058D01*
X176563058Y-108686600D01*
X163000402Y-108686600D01*
X163020226Y-108666776D01*
X162908848Y-108555398D01*
X163130588Y-108479138D01*
X163289911Y-107967834D01*
X163241439Y-107434480D01*
X163130588Y-107166862D01*
X162908846Y-107090601D01*
X162176447Y-107823000D01*
X162190590Y-107837143D01*
X161939143Y-108088590D01*
X161925000Y-108074447D01*
X161910858Y-108088590D01*
X161659411Y-107837143D01*
X161673553Y-107823000D01*
X160941154Y-107090601D01*
X160719412Y-107166862D01*
X160560089Y-107678166D01*
X160608561Y-108211520D01*
X160719412Y-108479138D01*
X160941152Y-108555398D01*
X160829774Y-108666776D01*
X160849598Y-108686600D01*
X158462942Y-108686600D01*
X157824226Y-108047884D01*
X157835428Y-108020907D01*
X157835772Y-107626822D01*
X157685279Y-107262603D01*
X157406862Y-106983700D01*
X157058759Y-106839154D01*
X161192601Y-106839154D01*
X161925000Y-107571553D01*
X162657399Y-106839154D01*
X162581138Y-106617412D01*
X162069834Y-106458089D01*
X161536480Y-106506561D01*
X161268862Y-106617412D01*
X161192601Y-106839154D01*
X157058759Y-106839154D01*
X157042907Y-106832572D01*
X156648822Y-106832228D01*
X156620339Y-106843997D01*
X155919400Y-106143058D01*
X155919400Y-103886000D01*
X155919078Y-103884381D01*
X155919078Y-103536000D01*
X155903138Y-103451286D01*
X155853072Y-103373482D01*
X155776680Y-103321285D01*
X155686000Y-103302922D01*
X155086000Y-103302922D01*
X155001286Y-103318862D01*
X154923482Y-103368928D01*
X154871285Y-103445320D01*
X154870200Y-103450678D01*
X154870200Y-103419796D01*
X154781261Y-103205078D01*
X154616923Y-103040739D01*
X154402205Y-102951800D01*
X154282050Y-102951800D01*
X154136000Y-103097850D01*
X153836000Y-103097850D01*
X153689950Y-102951800D01*
X153569795Y-102951800D01*
X153355077Y-103040739D01*
X153190739Y-103205078D01*
X153101800Y-103419796D01*
X143036138Y-103419796D01*
X142149171Y-102532829D01*
X141976123Y-102417203D01*
X141772000Y-102376600D01*
X139724919Y-102376600D01*
X139535648Y-101918529D01*
X139043064Y-101425085D01*
X138399143Y-101157705D01*
X137701916Y-101157097D01*
X137057529Y-101423352D01*
X136564085Y-101915936D01*
X136296705Y-102559857D01*
X136296097Y-103257084D01*
X130478600Y-103257084D01*
X130478600Y-99531170D01*
X156084872Y-99531170D01*
X156084872Y-100331270D01*
X156100812Y-100415984D01*
X156150878Y-100493788D01*
X156184600Y-100516830D01*
X156184600Y-101553000D01*
X156225203Y-101757123D01*
X156289922Y-101853983D01*
X156289922Y-102758000D01*
X156305862Y-102842714D01*
X156355928Y-102920518D01*
X156432320Y-102972715D01*
X156523000Y-102991078D01*
X156739600Y-102991078D01*
X156739600Y-103425000D01*
X156780203Y-103629123D01*
X156895829Y-103802171D01*
X158499827Y-105406168D01*
X158499829Y-105406171D01*
X158528313Y-105425203D01*
X158672877Y-105521797D01*
X158877000Y-105562401D01*
X158877005Y-105562400D01*
X167894000Y-105562400D01*
X168098123Y-105521797D01*
X168271171Y-105406171D01*
X168630600Y-105046742D01*
X168630600Y-106426000D01*
X168671203Y-106630123D01*
X168786829Y-106803171D01*
X168959877Y-106918797D01*
X169164000Y-106959400D01*
X170994922Y-106959400D01*
X170994922Y-107051000D01*
X171010862Y-107135714D01*
X171060928Y-107213518D01*
X171137320Y-107265715D01*
X171228000Y-107284078D01*
X172728000Y-107284078D01*
X172812714Y-107268138D01*
X172890518Y-107218072D01*
X172942715Y-107141680D01*
X172961078Y-107051000D01*
X172961078Y-105801000D01*
X172945138Y-105716286D01*
X172895072Y-105638482D01*
X172818680Y-105586285D01*
X172728000Y-105567922D01*
X171228000Y-105567922D01*
X171143286Y-105583862D01*
X171065482Y-105633928D01*
X171013285Y-105710320D01*
X170994922Y-105801000D01*
X170994922Y-105892600D01*
X169697400Y-105892600D01*
X169697400Y-103852942D01*
X170060341Y-103490000D01*
X170640922Y-103490000D01*
X170640922Y-104790000D01*
X170656862Y-104874714D01*
X170706928Y-104952518D01*
X170783320Y-105004715D01*
X170874000Y-105023078D01*
X171956268Y-105023078D01*
X171978000Y-105027401D01*
X171999733Y-105023078D01*
X172374000Y-105023078D01*
X172458714Y-105007138D01*
X172536518Y-104957072D01*
X172588715Y-104880680D01*
X172607078Y-104790000D01*
X172607078Y-103490000D01*
X173340922Y-103490000D01*
X173340922Y-104790000D01*
X173356862Y-104874714D01*
X173406928Y-104952518D01*
X173483320Y-105004715D01*
X173574000Y-105023078D01*
X173790600Y-105023078D01*
X173790600Y-105567922D01*
X173728000Y-105567922D01*
X173643286Y-105583862D01*
X173565482Y-105633928D01*
X173513285Y-105710320D01*
X173494922Y-105801000D01*
X173494922Y-107051000D01*
X173510862Y-107135714D01*
X173560928Y-107213518D01*
X173637320Y-107265715D01*
X173728000Y-107284078D01*
X175228000Y-107284078D01*
X175312714Y-107268138D01*
X175390518Y-107218072D01*
X175442715Y-107141680D01*
X175461078Y-107051000D01*
X175461078Y-105801000D01*
X175445138Y-105716286D01*
X175395072Y-105638482D01*
X175318680Y-105586285D01*
X175228000Y-105567922D01*
X174857400Y-105567922D01*
X174857400Y-105023078D01*
X175074000Y-105023078D01*
X175158714Y-105007138D01*
X175236518Y-104957072D01*
X175288715Y-104880680D01*
X175307078Y-104790000D01*
X175307078Y-104673400D01*
X177038000Y-104673400D01*
X177242123Y-104632797D01*
X177415171Y-104517171D01*
X179066168Y-102866173D01*
X179066171Y-102866171D01*
X179181797Y-102693123D01*
X179184527Y-102679400D01*
X179222401Y-102489000D01*
X179222400Y-102488995D01*
X179222400Y-100490000D01*
X179222078Y-100488381D01*
X179222078Y-99715000D01*
X179206138Y-99630286D01*
X179156072Y-99552482D01*
X179079680Y-99500285D01*
X178989000Y-99481922D01*
X178389000Y-99481922D01*
X178304286Y-99497862D01*
X178270419Y-99519655D01*
X178214261Y-99384077D01*
X178049922Y-99219739D01*
X177835204Y-99130800D01*
X177715050Y-99130800D01*
X177569000Y-99276850D01*
X177569000Y-100312200D01*
X177616800Y-100312200D01*
X177616800Y-100667800D01*
X177569000Y-100667800D01*
X177569000Y-101703150D01*
X177715050Y-101849200D01*
X177835204Y-101849200D01*
X178049922Y-101760261D01*
X178155600Y-101654584D01*
X178155600Y-102268059D01*
X176817058Y-103606600D01*
X175307078Y-103606600D01*
X175307078Y-103490000D01*
X175291138Y-103405286D01*
X175241072Y-103327482D01*
X175164680Y-103275285D01*
X175074000Y-103256922D01*
X173574000Y-103256922D01*
X173489286Y-103272862D01*
X173411482Y-103322928D01*
X173359285Y-103399320D01*
X173340922Y-103490000D01*
X172607078Y-103490000D01*
X172591138Y-103405286D01*
X172541072Y-103327482D01*
X172464680Y-103275285D01*
X172374000Y-103256922D01*
X172157400Y-103256922D01*
X172157400Y-103170942D01*
X172697725Y-102630617D01*
X172789306Y-102592776D01*
X172950211Y-102432151D01*
X173037400Y-102222177D01*
X173037599Y-101994820D01*
X172950776Y-101784694D01*
X172790151Y-101623789D01*
X172580177Y-101536600D01*
X172352820Y-101536401D01*
X172142694Y-101623224D01*
X171981789Y-101783849D01*
X171943430Y-101876228D01*
X171246829Y-102572829D01*
X171131203Y-102745877D01*
X171090600Y-102950000D01*
X171090600Y-103256922D01*
X170874000Y-103256922D01*
X170789286Y-103272862D01*
X170711482Y-103322928D01*
X170659285Y-103399320D01*
X170640922Y-103490000D01*
X170060341Y-103490000D01*
X172736491Y-100813850D01*
X176534800Y-100813850D01*
X176534800Y-101381205D01*
X176623739Y-101595923D01*
X176788078Y-101760261D01*
X177002796Y-101849200D01*
X177122950Y-101849200D01*
X177269000Y-101703150D01*
X177269000Y-100667800D01*
X176680850Y-100667800D01*
X176534800Y-100813850D01*
X172736491Y-100813850D01*
X173951546Y-99598795D01*
X176534800Y-99598795D01*
X176534800Y-100166150D01*
X176680850Y-100312200D01*
X177269000Y-100312200D01*
X177269000Y-99276850D01*
X177122950Y-99130800D01*
X177002796Y-99130800D01*
X176788078Y-99219739D01*
X176623739Y-99384077D01*
X176534800Y-99598795D01*
X173951546Y-99598795D01*
X176242941Y-97307400D01*
X182626000Y-97307400D01*
X182830123Y-97266797D01*
X183003171Y-97151171D01*
X184116942Y-96037400D01*
X185674000Y-96037400D01*
X185878123Y-95996797D01*
X186051171Y-95881171D01*
X189823071Y-92109271D01*
X189938697Y-91936223D01*
X189979300Y-91732100D01*
X189979300Y-85856478D01*
X190500000Y-85856478D01*
X190584714Y-85840538D01*
X190662518Y-85790472D01*
X190714715Y-85714080D01*
X190733078Y-85623400D01*
X190733078Y-83515200D01*
X190717138Y-83430486D01*
X190667072Y-83352682D01*
X190590680Y-83300485D01*
X190500000Y-83282122D01*
X188391800Y-83282122D01*
X188307086Y-83298062D01*
X188229282Y-83348128D01*
X188177085Y-83424520D01*
X188158722Y-83515200D01*
X188158722Y-85623400D01*
X188174662Y-85708114D01*
X188224728Y-85785918D01*
X188301120Y-85838115D01*
X188391800Y-85856478D01*
X188912500Y-85856478D01*
X188912500Y-91511158D01*
X185453058Y-94970600D01*
X183913742Y-94970600D01*
X184781171Y-94103171D01*
X184896797Y-93930124D01*
X184937400Y-93726000D01*
X184937400Y-92149078D01*
X185029000Y-92149078D01*
X185113714Y-92133138D01*
X185191518Y-92083072D01*
X185243715Y-92006680D01*
X185262078Y-91916000D01*
X185262078Y-90416000D01*
X185246138Y-90331286D01*
X185196072Y-90253482D01*
X185119680Y-90201285D01*
X185029000Y-90182922D01*
X183779000Y-90182922D01*
X183694286Y-90198862D01*
X183616482Y-90248928D01*
X183564285Y-90325320D01*
X183545922Y-90416000D01*
X183545922Y-91916000D01*
X183561862Y-92000714D01*
X183611928Y-92078518D01*
X183688320Y-92130715D01*
X183779000Y-92149078D01*
X183870600Y-92149078D01*
X183870600Y-93505058D01*
X182819058Y-94556600D01*
X181762078Y-94556600D01*
X181762078Y-94315000D01*
X181746138Y-94230286D01*
X181696072Y-94152482D01*
X181619680Y-94100285D01*
X181529000Y-94081922D01*
X180929000Y-94081922D01*
X180844286Y-94097862D01*
X180766482Y-94147928D01*
X180714285Y-94224320D01*
X180695922Y-94315000D01*
X180695922Y-95088381D01*
X180695600Y-95090000D01*
X180695922Y-95091619D01*
X180695922Y-95865000D01*
X180711862Y-95949714D01*
X180761928Y-96027518D01*
X180838320Y-96079715D01*
X180929000Y-96098078D01*
X181529000Y-96098078D01*
X181613714Y-96082138D01*
X181691518Y-96032072D01*
X181743715Y-95955680D01*
X181762078Y-95865000D01*
X181762078Y-95623400D01*
X183022258Y-95623400D01*
X182405058Y-96240600D01*
X176022005Y-96240600D01*
X176022000Y-96240599D01*
X175823533Y-96280078D01*
X175817877Y-96281203D01*
X175644829Y-96396829D01*
X175644827Y-96396832D01*
X168786829Y-103254829D01*
X168671203Y-103427877D01*
X168653926Y-103514732D01*
X167673058Y-104495600D01*
X159097941Y-104495600D01*
X157806400Y-103204058D01*
X157806400Y-102991078D01*
X158023000Y-102991078D01*
X158107714Y-102975138D01*
X158185518Y-102925072D01*
X158237715Y-102848680D01*
X158256078Y-102758000D01*
X158256078Y-101458000D01*
X158989922Y-101458000D01*
X158989922Y-102758000D01*
X159005862Y-102842714D01*
X159055928Y-102920518D01*
X159132320Y-102972715D01*
X159223000Y-102991078D01*
X160723000Y-102991078D01*
X160807714Y-102975138D01*
X160885518Y-102925072D01*
X160937715Y-102848680D01*
X160956078Y-102758000D01*
X160956078Y-101458000D01*
X160940138Y-101373286D01*
X160890072Y-101295482D01*
X160813680Y-101243285D01*
X160723000Y-101224922D01*
X160514420Y-101224922D01*
X160666196Y-101073146D01*
X165338301Y-101073146D01*
X165400607Y-101283345D01*
X165871072Y-101423842D01*
X166359490Y-101373605D01*
X166577393Y-101283345D01*
X166639699Y-101073146D01*
X165989000Y-100422447D01*
X165338301Y-101073146D01*
X160666196Y-101073146D01*
X160886725Y-100852617D01*
X160978306Y-100814776D01*
X161139211Y-100654151D01*
X161226400Y-100444177D01*
X161226599Y-100216820D01*
X161158940Y-100053072D01*
X164736158Y-100053072D01*
X164786395Y-100541490D01*
X164876655Y-100759393D01*
X165086854Y-100821699D01*
X165737553Y-100171000D01*
X166240447Y-100171000D01*
X166891146Y-100821699D01*
X167101345Y-100759393D01*
X167241842Y-100288928D01*
X167191605Y-99800510D01*
X167101345Y-99582607D01*
X166891146Y-99520301D01*
X166240447Y-100171000D01*
X165737553Y-100171000D01*
X165086854Y-99520301D01*
X164876655Y-99582607D01*
X164736158Y-100053072D01*
X161158940Y-100053072D01*
X161139776Y-100006694D01*
X160979151Y-99845789D01*
X160769177Y-99758600D01*
X160541820Y-99758401D01*
X160331694Y-99845224D01*
X160170789Y-100005849D01*
X160132430Y-100098228D01*
X159595829Y-100634829D01*
X159480203Y-100807877D01*
X159439600Y-101012000D01*
X159439600Y-101224922D01*
X159223000Y-101224922D01*
X159138286Y-101240862D01*
X159060482Y-101290928D01*
X159008285Y-101367320D01*
X158989922Y-101458000D01*
X158256078Y-101458000D01*
X158240138Y-101373286D01*
X158190072Y-101295482D01*
X158113680Y-101243285D01*
X158023000Y-101224922D01*
X157251400Y-101224922D01*
X157251400Y-100517111D01*
X157280568Y-100498342D01*
X157332765Y-100421950D01*
X157351128Y-100331270D01*
X157351128Y-99531170D01*
X157335188Y-99446456D01*
X157285122Y-99368652D01*
X157208730Y-99316455D01*
X157118050Y-99298092D01*
X156317950Y-99298092D01*
X156233236Y-99314032D01*
X156155432Y-99364098D01*
X156103235Y-99440490D01*
X156084872Y-99531170D01*
X130478600Y-99531170D01*
X130478600Y-98571788D01*
X137017659Y-98571788D01*
X137187727Y-98872533D01*
X137975816Y-99159456D01*
X138813715Y-99122949D01*
X139418273Y-98872533D01*
X139588341Y-98571788D01*
X138303000Y-97286447D01*
X137017659Y-98571788D01*
X130478600Y-98571788D01*
X130478600Y-96707816D01*
X136178544Y-96707816D01*
X136215051Y-97545715D01*
X136465467Y-98150273D01*
X136766212Y-98320341D01*
X138051553Y-97035000D01*
X138554447Y-97035000D01*
X139839788Y-98320341D01*
X139953408Y-98256090D01*
X154783750Y-98256090D01*
X154783750Y-98448494D01*
X154872689Y-98663212D01*
X155037027Y-98827551D01*
X155251745Y-98916490D01*
X155444150Y-98916490D01*
X155590200Y-98770440D01*
X155590200Y-98110040D01*
X155945800Y-98110040D01*
X155945800Y-98770440D01*
X156091850Y-98916490D01*
X156284255Y-98916490D01*
X156498973Y-98827551D01*
X156663311Y-98663212D01*
X156752250Y-98448494D01*
X156752250Y-98256090D01*
X156606200Y-98110040D01*
X155945800Y-98110040D01*
X155590200Y-98110040D01*
X154929800Y-98110040D01*
X154783750Y-98256090D01*
X139953408Y-98256090D01*
X140140533Y-98150273D01*
X140415443Y-97395180D01*
X142811401Y-97395180D01*
X142898224Y-97605306D01*
X143058849Y-97766211D01*
X143268823Y-97853400D01*
X143496180Y-97853599D01*
X143706306Y-97766776D01*
X143867211Y-97606151D01*
X143905571Y-97513771D01*
X144003355Y-97415986D01*
X154783750Y-97415986D01*
X154783750Y-97608390D01*
X154929800Y-97754440D01*
X155590200Y-97754440D01*
X155590200Y-97094040D01*
X155945800Y-97094040D01*
X155945800Y-97754440D01*
X156606200Y-97754440D01*
X156752250Y-97608390D01*
X156752250Y-97532190D01*
X157034872Y-97532190D01*
X157034872Y-98332290D01*
X157050812Y-98417004D01*
X157100878Y-98494808D01*
X157177270Y-98547005D01*
X157267950Y-98565368D01*
X158068050Y-98565368D01*
X158152764Y-98549428D01*
X158230568Y-98499362D01*
X158253610Y-98465640D01*
X159644922Y-98465640D01*
X159644922Y-98747000D01*
X159660862Y-98831714D01*
X159710928Y-98909518D01*
X159787320Y-98961715D01*
X159878000Y-98980078D01*
X161178000Y-98980078D01*
X161262714Y-98964138D01*
X161340518Y-98914072D01*
X161392715Y-98837680D01*
X161411078Y-98747000D01*
X161411078Y-98704400D01*
X165105922Y-98704400D01*
X165105922Y-98821000D01*
X165121862Y-98905714D01*
X165171928Y-98983518D01*
X165248320Y-99035715D01*
X165339000Y-99054078D01*
X165411657Y-99054078D01*
X165400607Y-99058655D01*
X165338301Y-99268854D01*
X165989000Y-99919553D01*
X166639699Y-99268854D01*
X166577393Y-99058655D01*
X166562067Y-99054078D01*
X166639000Y-99054078D01*
X166723714Y-99038138D01*
X166801518Y-98988072D01*
X166853715Y-98911680D01*
X166872078Y-98821000D01*
X166872078Y-97521000D01*
X166856138Y-97436286D01*
X166806072Y-97358482D01*
X166729680Y-97306285D01*
X166639000Y-97287922D01*
X166442400Y-97287922D01*
X166442400Y-95498078D01*
X166659000Y-95498078D01*
X166743714Y-95482138D01*
X166821518Y-95432072D01*
X166873715Y-95355680D01*
X166892078Y-95265000D01*
X166892078Y-94938850D01*
X167274800Y-94938850D01*
X167274800Y-95381204D01*
X167363739Y-95595922D01*
X167528077Y-95760261D01*
X167742795Y-95849200D01*
X168285150Y-95849200D01*
X168431200Y-95703150D01*
X168431200Y-94792800D01*
X168786800Y-94792800D01*
X168786800Y-95703150D01*
X168932850Y-95849200D01*
X169475205Y-95849200D01*
X169689923Y-95760261D01*
X169854261Y-95595922D01*
X169943200Y-95381204D01*
X169943200Y-94938850D01*
X169797150Y-94792800D01*
X168786800Y-94792800D01*
X168431200Y-94792800D01*
X167420850Y-94792800D01*
X167274800Y-94938850D01*
X166892078Y-94938850D01*
X166892078Y-93965000D01*
X166876138Y-93880286D01*
X166855875Y-93848796D01*
X167274800Y-93848796D01*
X167274800Y-94291150D01*
X167420850Y-94437200D01*
X168431200Y-94437200D01*
X168431200Y-93526850D01*
X168786800Y-93526850D01*
X168786800Y-94437200D01*
X169797150Y-94437200D01*
X169943200Y-94291150D01*
X169943200Y-94093180D01*
X174942401Y-94093180D01*
X175029224Y-94303306D01*
X175189849Y-94464211D01*
X175282228Y-94502570D01*
X176246829Y-95467171D01*
X176419877Y-95582797D01*
X176624000Y-95623400D01*
X176885922Y-95623400D01*
X176885922Y-95865000D01*
X176901862Y-95949714D01*
X176951928Y-96027518D01*
X177028320Y-96079715D01*
X177119000Y-96098078D01*
X177719000Y-96098078D01*
X177803714Y-96082138D01*
X177881518Y-96032072D01*
X177933715Y-95955680D01*
X177952078Y-95865000D01*
X177952078Y-95091619D01*
X177952400Y-95090000D01*
X177952078Y-95088381D01*
X177952078Y-94315000D01*
X177936138Y-94230286D01*
X177886072Y-94152482D01*
X177809680Y-94100285D01*
X177719000Y-94081922D01*
X177119000Y-94081922D01*
X177034286Y-94097862D01*
X176956482Y-94147928D01*
X176904285Y-94224320D01*
X176885922Y-94315000D01*
X176885922Y-94556600D01*
X176844942Y-94556600D01*
X176036617Y-93748275D01*
X175998776Y-93656694D01*
X175838151Y-93495789D01*
X175628177Y-93408600D01*
X175400820Y-93408401D01*
X175190694Y-93495224D01*
X175029789Y-93655849D01*
X174942600Y-93865823D01*
X174942401Y-94093180D01*
X169943200Y-94093180D01*
X169943200Y-93848796D01*
X169854261Y-93634078D01*
X169689923Y-93469739D01*
X169475205Y-93380800D01*
X168932850Y-93380800D01*
X168786800Y-93526850D01*
X168431200Y-93526850D01*
X168285150Y-93380800D01*
X167742795Y-93380800D01*
X167528077Y-93469739D01*
X167363739Y-93634078D01*
X167274800Y-93848796D01*
X166855875Y-93848796D01*
X166826072Y-93802482D01*
X166749680Y-93750285D01*
X166659000Y-93731922D01*
X165159000Y-93731922D01*
X165074286Y-93747862D01*
X164996482Y-93797928D01*
X164944285Y-93874320D01*
X164925922Y-93965000D01*
X164925922Y-95265000D01*
X164941862Y-95349714D01*
X164991928Y-95427518D01*
X165068320Y-95479715D01*
X165159000Y-95498078D01*
X165375600Y-95498078D01*
X165375600Y-97287922D01*
X165339000Y-97287922D01*
X165254286Y-97303862D01*
X165176482Y-97353928D01*
X165124285Y-97430320D01*
X165105922Y-97521000D01*
X165105922Y-97637600D01*
X161411078Y-97637600D01*
X161411078Y-97247000D01*
X161395138Y-97162286D01*
X161345072Y-97084482D01*
X161268680Y-97032285D01*
X161178000Y-97013922D01*
X159878000Y-97013922D01*
X159793286Y-97029862D01*
X159715482Y-97079928D01*
X159663285Y-97156320D01*
X159644922Y-97247000D01*
X159644922Y-97398840D01*
X158253891Y-97398840D01*
X158235122Y-97369672D01*
X158158730Y-97317475D01*
X158068050Y-97299112D01*
X157267950Y-97299112D01*
X157183236Y-97315052D01*
X157105432Y-97365118D01*
X157053235Y-97441510D01*
X157034872Y-97532190D01*
X156752250Y-97532190D01*
X156752250Y-97415986D01*
X156663311Y-97201268D01*
X156498973Y-97036929D01*
X156284255Y-96947990D01*
X156091850Y-96947990D01*
X155945800Y-97094040D01*
X155590200Y-97094040D01*
X155444150Y-96947990D01*
X155251745Y-96947990D01*
X155037027Y-97036929D01*
X154872689Y-97201268D01*
X154783750Y-97415986D01*
X144003355Y-97415986D01*
X144188168Y-97231173D01*
X144188171Y-97231171D01*
X144257484Y-97127437D01*
X144303797Y-97058124D01*
X144344400Y-96854000D01*
X144344400Y-95625078D01*
X144561000Y-95625078D01*
X144645714Y-95609138D01*
X144723518Y-95559072D01*
X144775715Y-95482680D01*
X144794078Y-95392000D01*
X144794078Y-94092000D01*
X144778138Y-94007286D01*
X144728072Y-93929482D01*
X144651680Y-93877285D01*
X144561000Y-93858922D01*
X143061000Y-93858922D01*
X142976286Y-93874862D01*
X142898482Y-93924928D01*
X142846285Y-94001320D01*
X142827922Y-94092000D01*
X142827922Y-95392000D01*
X142843862Y-95476714D01*
X142893928Y-95554518D01*
X142970320Y-95606715D01*
X143061000Y-95625078D01*
X143277600Y-95625078D01*
X143277600Y-96633059D01*
X143151275Y-96759383D01*
X143059694Y-96797224D01*
X142898789Y-96957849D01*
X142811600Y-97167823D01*
X142811401Y-97395180D01*
X140415443Y-97395180D01*
X140427456Y-97362184D01*
X140390949Y-96524285D01*
X140140533Y-95919727D01*
X139839788Y-95749659D01*
X138554447Y-97035000D01*
X138051553Y-97035000D01*
X136766212Y-95749659D01*
X136465467Y-95919727D01*
X136178544Y-96707816D01*
X130478600Y-96707816D01*
X130478600Y-95498212D01*
X137017659Y-95498212D01*
X138303000Y-96783553D01*
X139588341Y-95498212D01*
X139418273Y-95197467D01*
X138630184Y-94910544D01*
X137792285Y-94947051D01*
X137187727Y-95197467D01*
X137017659Y-95498212D01*
X130478600Y-95498212D01*
X130478600Y-92382084D01*
X136550097Y-92382084D01*
X136816352Y-93026471D01*
X137308936Y-93519915D01*
X137952857Y-93787295D01*
X138650084Y-93787903D01*
X139294471Y-93521648D01*
X139787915Y-93029064D01*
X139979200Y-92568400D01*
X142827922Y-92568400D01*
X142827922Y-92598000D01*
X142843862Y-92682714D01*
X142893928Y-92760518D01*
X142970320Y-92812715D01*
X143061000Y-92831078D01*
X144561000Y-92831078D01*
X144645714Y-92815138D01*
X144723518Y-92765072D01*
X144775715Y-92688680D01*
X144794078Y-92598000D01*
X144794078Y-91298000D01*
X145527922Y-91298000D01*
X145527922Y-92598000D01*
X145543862Y-92682714D01*
X145593928Y-92760518D01*
X145670320Y-92812715D01*
X145761000Y-92831078D01*
X145977600Y-92831078D01*
X145977600Y-93858922D01*
X145761000Y-93858922D01*
X145676286Y-93874862D01*
X145598482Y-93924928D01*
X145546285Y-94001320D01*
X145527922Y-94092000D01*
X145527922Y-95392000D01*
X145543862Y-95476714D01*
X145593928Y-95554518D01*
X145670320Y-95606715D01*
X145761000Y-95625078D01*
X147261000Y-95625078D01*
X147345714Y-95609138D01*
X147423518Y-95559072D01*
X147475715Y-95482680D01*
X147494078Y-95392000D01*
X147494078Y-95275400D01*
X149231489Y-95275400D01*
X149277320Y-95306715D01*
X149368000Y-95325078D01*
X149968000Y-95325078D01*
X150052714Y-95309138D01*
X150130518Y-95259072D01*
X150182715Y-95182680D01*
X150183800Y-95177322D01*
X150183800Y-95208204D01*
X150272739Y-95422922D01*
X150437077Y-95587261D01*
X150651795Y-95676200D01*
X150771950Y-95676200D01*
X150918000Y-95530150D01*
X150918000Y-94917000D01*
X151218000Y-94917000D01*
X151218000Y-95530150D01*
X151364050Y-95676200D01*
X151484205Y-95676200D01*
X151698923Y-95587261D01*
X151863261Y-95422922D01*
X151952200Y-95208204D01*
X151952200Y-95063050D01*
X151806150Y-94917000D01*
X151218000Y-94917000D01*
X150918000Y-94917000D01*
X150870200Y-94917000D01*
X150870200Y-94664850D01*
X151952800Y-94664850D01*
X151952800Y-95207205D01*
X152041739Y-95421923D01*
X152206078Y-95586261D01*
X152420796Y-95675200D01*
X152838150Y-95675200D01*
X152984200Y-95529150D01*
X152984200Y-94518800D01*
X153339800Y-94518800D01*
X153339800Y-95529150D01*
X153485850Y-95675200D01*
X153903204Y-95675200D01*
X154117922Y-95586261D01*
X154282261Y-95421923D01*
X154371200Y-95207205D01*
X154371200Y-94664850D01*
X154619800Y-94664850D01*
X154619800Y-95207205D01*
X154708739Y-95421923D01*
X154873078Y-95586261D01*
X155087796Y-95675200D01*
X155505150Y-95675200D01*
X155651200Y-95529150D01*
X155651200Y-94518800D01*
X156006800Y-94518800D01*
X156006800Y-95529150D01*
X156152850Y-95675200D01*
X156570204Y-95675200D01*
X156784922Y-95586261D01*
X156949261Y-95421923D01*
X157038200Y-95207205D01*
X157038200Y-94664850D01*
X156892150Y-94518800D01*
X156006800Y-94518800D01*
X155651200Y-94518800D01*
X154765850Y-94518800D01*
X154619800Y-94664850D01*
X154371200Y-94664850D01*
X154225150Y-94518800D01*
X153339800Y-94518800D01*
X152984200Y-94518800D01*
X152098850Y-94518800D01*
X151952800Y-94664850D01*
X150870200Y-94664850D01*
X150870200Y-94567000D01*
X150918000Y-94567000D01*
X150918000Y-93953850D01*
X151218000Y-93953850D01*
X151218000Y-94567000D01*
X151806150Y-94567000D01*
X151952200Y-94420950D01*
X151952200Y-94275796D01*
X151863261Y-94061078D01*
X151698923Y-93896739D01*
X151484205Y-93807800D01*
X151364050Y-93807800D01*
X151218000Y-93953850D01*
X150918000Y-93953850D01*
X150771950Y-93807800D01*
X150651795Y-93807800D01*
X150437077Y-93896739D01*
X150272739Y-94061078D01*
X150183800Y-94275796D01*
X150183800Y-94305207D01*
X150135072Y-94229482D01*
X150058680Y-94177285D01*
X149968000Y-94158922D01*
X149368000Y-94158922D01*
X149283286Y-94174862D01*
X149230856Y-94208600D01*
X147494078Y-94208600D01*
X147494078Y-94092000D01*
X147478138Y-94007286D01*
X147428072Y-93929482D01*
X147351680Y-93877285D01*
X147261000Y-93858922D01*
X147044400Y-93858922D01*
X147044400Y-93474795D01*
X151952800Y-93474795D01*
X151952800Y-94017150D01*
X152098850Y-94163200D01*
X152984200Y-94163200D01*
X152984200Y-93152850D01*
X153339800Y-93152850D01*
X153339800Y-94163200D01*
X154225150Y-94163200D01*
X154371200Y-94017150D01*
X154371200Y-93474795D01*
X154619800Y-93474795D01*
X154619800Y-94017150D01*
X154765850Y-94163200D01*
X155651200Y-94163200D01*
X155651200Y-93152850D01*
X156006800Y-93152850D01*
X156006800Y-94163200D01*
X156892150Y-94163200D01*
X157038200Y-94017150D01*
X157038200Y-93474795D01*
X156949261Y-93260077D01*
X156784922Y-93095739D01*
X156570204Y-93006800D01*
X156152850Y-93006800D01*
X156006800Y-93152850D01*
X155651200Y-93152850D01*
X155505150Y-93006800D01*
X155087796Y-93006800D01*
X154873078Y-93095739D01*
X154708739Y-93260077D01*
X154619800Y-93474795D01*
X154371200Y-93474795D01*
X154282261Y-93260077D01*
X154117922Y-93095739D01*
X153903204Y-93006800D01*
X153485850Y-93006800D01*
X153339800Y-93152850D01*
X152984200Y-93152850D01*
X152838150Y-93006800D01*
X152420796Y-93006800D01*
X152206078Y-93095739D01*
X152041739Y-93260077D01*
X151952800Y-93474795D01*
X147044400Y-93474795D01*
X147044400Y-92831078D01*
X147261000Y-92831078D01*
X147345714Y-92815138D01*
X147423518Y-92765072D01*
X147475715Y-92688680D01*
X147494078Y-92598000D01*
X147494078Y-91298000D01*
X147478138Y-91213286D01*
X147428072Y-91135482D01*
X147351680Y-91083285D01*
X147261000Y-91064922D01*
X145761000Y-91064922D01*
X145676286Y-91080862D01*
X145598482Y-91130928D01*
X145546285Y-91207320D01*
X145527922Y-91298000D01*
X144794078Y-91298000D01*
X144778138Y-91213286D01*
X144728072Y-91135482D01*
X144651680Y-91083285D01*
X144561000Y-91064922D01*
X143061000Y-91064922D01*
X142976286Y-91080862D01*
X142898482Y-91130928D01*
X142846285Y-91207320D01*
X142827922Y-91298000D01*
X142827922Y-91501600D01*
X139978919Y-91501600D01*
X139789648Y-91043529D01*
X139297064Y-90550085D01*
X138653143Y-90282705D01*
X137955916Y-90282097D01*
X137311529Y-90548352D01*
X136818085Y-91040936D01*
X136550705Y-91684857D01*
X136550097Y-92382084D01*
X130478600Y-92382084D01*
X130478600Y-87382084D01*
X136550097Y-87382084D01*
X136816352Y-88026471D01*
X137308936Y-88519915D01*
X137952857Y-88787295D01*
X138650084Y-88787903D01*
X139294471Y-88521648D01*
X139787915Y-88029064D01*
X139979200Y-87568400D01*
X142954922Y-87568400D01*
X142954922Y-87772000D01*
X142970862Y-87856714D01*
X143020928Y-87934518D01*
X143097320Y-87986715D01*
X143188000Y-88005078D01*
X144688000Y-88005078D01*
X144772714Y-87989138D01*
X144850518Y-87939072D01*
X144902715Y-87862680D01*
X144921078Y-87772000D01*
X144921078Y-86472000D01*
X145654922Y-86472000D01*
X145654922Y-87772000D01*
X145670862Y-87856714D01*
X145720928Y-87934518D01*
X145797320Y-87986715D01*
X145888000Y-88005078D01*
X146205977Y-88005078D01*
X146260829Y-88087171D01*
X150391829Y-92218171D01*
X150564876Y-92333797D01*
X150769000Y-92374400D01*
X152303922Y-92374400D01*
X152303922Y-92591000D01*
X152319862Y-92675714D01*
X152369928Y-92753518D01*
X152446320Y-92805715D01*
X152537000Y-92824078D01*
X153787000Y-92824078D01*
X153871714Y-92808138D01*
X153949518Y-92758072D01*
X154001715Y-92681680D01*
X154020078Y-92591000D01*
X154020078Y-92374400D01*
X154970922Y-92374400D01*
X154970922Y-92591000D01*
X154986862Y-92675714D01*
X155036928Y-92753518D01*
X155113320Y-92805715D01*
X155204000Y-92824078D01*
X156454000Y-92824078D01*
X156538714Y-92808138D01*
X156616518Y-92758072D01*
X156668715Y-92681680D01*
X156687078Y-92591000D01*
X156687078Y-92374400D01*
X157430063Y-92374400D01*
X157423285Y-92384320D01*
X157404922Y-92475000D01*
X157404922Y-93075000D01*
X157420862Y-93159714D01*
X157454600Y-93212144D01*
X157454600Y-94234000D01*
X157495203Y-94438123D01*
X157610829Y-94611171D01*
X158673829Y-95674171D01*
X158846877Y-95789797D01*
X159051000Y-95830400D01*
X159644922Y-95830400D01*
X159644922Y-96047000D01*
X159660862Y-96131714D01*
X159710928Y-96209518D01*
X159787320Y-96261715D01*
X159878000Y-96280078D01*
X161178000Y-96280078D01*
X161262714Y-96264138D01*
X161340518Y-96214072D01*
X161392715Y-96137680D01*
X161411078Y-96047000D01*
X161411078Y-94547000D01*
X161395138Y-94462286D01*
X161345072Y-94384482D01*
X161268680Y-94332285D01*
X161178000Y-94313922D01*
X159878000Y-94313922D01*
X159793286Y-94329862D01*
X159715482Y-94379928D01*
X159663285Y-94456320D01*
X159644922Y-94547000D01*
X159644922Y-94763600D01*
X159271942Y-94763600D01*
X158521400Y-94013058D01*
X158521400Y-93211511D01*
X158552715Y-93165680D01*
X158571078Y-93075000D01*
X158571078Y-92475000D01*
X158555138Y-92390286D01*
X158505072Y-92312482D01*
X158428680Y-92260285D01*
X158338000Y-92241922D01*
X157989619Y-92241922D01*
X157988000Y-92241600D01*
X157986381Y-92241922D01*
X157863625Y-92241922D01*
X157899171Y-92218171D01*
X158209263Y-91908078D01*
X158338000Y-91908078D01*
X158422714Y-91892138D01*
X158500518Y-91842072D01*
X158552715Y-91765680D01*
X158571078Y-91675000D01*
X158571078Y-91235850D01*
X169986800Y-91235850D01*
X169986800Y-91778205D01*
X170075739Y-91992923D01*
X170240078Y-92157261D01*
X170454796Y-92246200D01*
X170872150Y-92246200D01*
X171018200Y-92100150D01*
X171018200Y-91089800D01*
X171373800Y-91089800D01*
X171373800Y-92100150D01*
X171519850Y-92246200D01*
X171937204Y-92246200D01*
X172151922Y-92157261D01*
X172316261Y-91992923D01*
X172405200Y-91778205D01*
X172405200Y-91255850D01*
X172945800Y-91255850D01*
X172945800Y-91848204D01*
X173034739Y-92062922D01*
X173199077Y-92227261D01*
X173413795Y-92316200D01*
X174206150Y-92316200D01*
X174352200Y-92170150D01*
X174352200Y-91109800D01*
X174707800Y-91109800D01*
X174707800Y-92170150D01*
X174853850Y-92316200D01*
X175646205Y-92316200D01*
X175860923Y-92227261D01*
X176025261Y-92062922D01*
X176114200Y-91848204D01*
X176114200Y-91255850D01*
X175968150Y-91109800D01*
X174707800Y-91109800D01*
X174352200Y-91109800D01*
X173091850Y-91109800D01*
X172945800Y-91255850D01*
X172405200Y-91255850D01*
X172405200Y-91235850D01*
X172259150Y-91089800D01*
X171373800Y-91089800D01*
X171018200Y-91089800D01*
X170132850Y-91089800D01*
X169986800Y-91235850D01*
X158571078Y-91235850D01*
X158571078Y-91075000D01*
X158555138Y-90990286D01*
X158505072Y-90912482D01*
X158428680Y-90860285D01*
X158338000Y-90841922D01*
X157989624Y-90841922D01*
X157988000Y-90841599D01*
X157986376Y-90841922D01*
X157638000Y-90841922D01*
X157553286Y-90857862D01*
X157475482Y-90907928D01*
X157423285Y-90984320D01*
X157404922Y-91075000D01*
X157404922Y-91203737D01*
X157301058Y-91307600D01*
X156687078Y-91307600D01*
X156687078Y-91091000D01*
X156671138Y-91006286D01*
X156621072Y-90928482D01*
X156544680Y-90876285D01*
X156454000Y-90857922D01*
X155204000Y-90857922D01*
X155119286Y-90873862D01*
X155041482Y-90923928D01*
X154989285Y-91000320D01*
X154970922Y-91091000D01*
X154970922Y-91307600D01*
X154020078Y-91307600D01*
X154020078Y-91091000D01*
X154004138Y-91006286D01*
X153954072Y-90928482D01*
X153877680Y-90876285D01*
X153787000Y-90857922D01*
X152537000Y-90857922D01*
X152452286Y-90873862D01*
X152374482Y-90923928D01*
X152322285Y-91000320D01*
X152303922Y-91091000D01*
X152303922Y-91307600D01*
X150989942Y-91307600D01*
X149728137Y-90045795D01*
X169986800Y-90045795D01*
X169986800Y-90588150D01*
X170132850Y-90734200D01*
X171018200Y-90734200D01*
X171018200Y-89723850D01*
X171373800Y-89723850D01*
X171373800Y-90734200D01*
X172259150Y-90734200D01*
X172405200Y-90588150D01*
X172405200Y-90045795D01*
X172392775Y-90015796D01*
X172945800Y-90015796D01*
X172945800Y-90608150D01*
X173091850Y-90754200D01*
X174352200Y-90754200D01*
X174352200Y-89693850D01*
X174707800Y-89693850D01*
X174707800Y-90754200D01*
X175968150Y-90754200D01*
X176114200Y-90608150D01*
X176114200Y-90132000D01*
X177296922Y-90132000D01*
X177296922Y-91732000D01*
X177312862Y-91816714D01*
X177362928Y-91894518D01*
X177439320Y-91946715D01*
X177530000Y-91965078D01*
X177996600Y-91965078D01*
X177996600Y-94931000D01*
X178037203Y-95135123D01*
X178152829Y-95308171D01*
X178155922Y-95311264D01*
X178155922Y-95865000D01*
X178171862Y-95949714D01*
X178221928Y-96027518D01*
X178298320Y-96079715D01*
X178389000Y-96098078D01*
X178989000Y-96098078D01*
X179073714Y-96082138D01*
X179151518Y-96032072D01*
X179203715Y-95955680D01*
X179222078Y-95865000D01*
X179222078Y-95623400D01*
X179425922Y-95623400D01*
X179425922Y-95865000D01*
X179441862Y-95949714D01*
X179491928Y-96027518D01*
X179568320Y-96079715D01*
X179659000Y-96098078D01*
X180259000Y-96098078D01*
X180343714Y-96082138D01*
X180421518Y-96032072D01*
X180473715Y-95955680D01*
X180492078Y-95865000D01*
X180492078Y-95091619D01*
X180492400Y-95090000D01*
X180492400Y-94073942D01*
X181987168Y-92579173D01*
X181987171Y-92579171D01*
X182102797Y-92406123D01*
X182117184Y-92333797D01*
X182143401Y-92202000D01*
X182143400Y-92201995D01*
X182143400Y-91995078D01*
X182260000Y-91995078D01*
X182344714Y-91979138D01*
X182422518Y-91929072D01*
X182474715Y-91852680D01*
X182493078Y-91762000D01*
X182493078Y-90262000D01*
X182477138Y-90177286D01*
X182427072Y-90099482D01*
X182350680Y-90047285D01*
X182260000Y-90028922D01*
X180960000Y-90028922D01*
X180875286Y-90044862D01*
X180797482Y-90094928D01*
X180745285Y-90171320D01*
X180726922Y-90262000D01*
X180726922Y-90398600D01*
X179763078Y-90398600D01*
X179763078Y-90132000D01*
X179747138Y-90047286D01*
X179697072Y-89969482D01*
X179620680Y-89917285D01*
X179530000Y-89898922D01*
X177530000Y-89898922D01*
X177445286Y-89914862D01*
X177367482Y-89964928D01*
X177315285Y-90041320D01*
X177296922Y-90132000D01*
X176114200Y-90132000D01*
X176114200Y-90015796D01*
X176025261Y-89801078D01*
X175860923Y-89636739D01*
X175646205Y-89547800D01*
X174853850Y-89547800D01*
X174707800Y-89693850D01*
X174352200Y-89693850D01*
X174206150Y-89547800D01*
X173413795Y-89547800D01*
X173199077Y-89636739D01*
X173034739Y-89801078D01*
X172945800Y-90015796D01*
X172392775Y-90015796D01*
X172316261Y-89831077D01*
X172151922Y-89666739D01*
X171937204Y-89577800D01*
X171519850Y-89577800D01*
X171373800Y-89723850D01*
X171018200Y-89723850D01*
X170872150Y-89577800D01*
X170454796Y-89577800D01*
X170240078Y-89666739D01*
X170075739Y-89831077D01*
X169986800Y-90045795D01*
X149728137Y-90045795D01*
X149150488Y-89468146D01*
X163941301Y-89468146D01*
X164003607Y-89678345D01*
X164474072Y-89818842D01*
X164962490Y-89768605D01*
X165180393Y-89678345D01*
X165242699Y-89468146D01*
X164592000Y-88817447D01*
X163941301Y-89468146D01*
X149150488Y-89468146D01*
X148130414Y-88448072D01*
X163339158Y-88448072D01*
X163389395Y-88936490D01*
X163479655Y-89154393D01*
X163689854Y-89216699D01*
X164340553Y-88566000D01*
X164843447Y-88566000D01*
X165494146Y-89216699D01*
X165704345Y-89154393D01*
X165844842Y-88683928D01*
X165794605Y-88195510D01*
X165704345Y-87977607D01*
X165494146Y-87915301D01*
X164843447Y-88566000D01*
X164340553Y-88566000D01*
X163689854Y-87915301D01*
X163479655Y-87977607D01*
X163339158Y-88448072D01*
X148130414Y-88448072D01*
X147579296Y-87896954D01*
X147602715Y-87862680D01*
X147621078Y-87772000D01*
X147621078Y-87663854D01*
X163941301Y-87663854D01*
X164592000Y-88314553D01*
X165242699Y-87663854D01*
X165180393Y-87453655D01*
X164709928Y-87313158D01*
X164221510Y-87363395D01*
X164003607Y-87453655D01*
X163941301Y-87663854D01*
X147621078Y-87663854D01*
X147621078Y-86472000D01*
X147605138Y-86387286D01*
X147555072Y-86309482D01*
X147478680Y-86257285D01*
X147388000Y-86238922D01*
X145888000Y-86238922D01*
X145803286Y-86254862D01*
X145725482Y-86304928D01*
X145673285Y-86381320D01*
X145654922Y-86472000D01*
X144921078Y-86472000D01*
X144905138Y-86387286D01*
X144855072Y-86309482D01*
X144778680Y-86257285D01*
X144688000Y-86238922D01*
X143188000Y-86238922D01*
X143103286Y-86254862D01*
X143025482Y-86304928D01*
X142973285Y-86381320D01*
X142954922Y-86472000D01*
X142954922Y-86501600D01*
X139978919Y-86501600D01*
X139789648Y-86043529D01*
X139297064Y-85550085D01*
X138653143Y-85282705D01*
X137955916Y-85282097D01*
X137311529Y-85548352D01*
X136818085Y-86040936D01*
X136550705Y-86684857D01*
X136550097Y-87382084D01*
X130478600Y-87382084D01*
X130478600Y-81587084D01*
X136804097Y-81587084D01*
X137070352Y-82231471D01*
X137562936Y-82724915D01*
X138206857Y-82992295D01*
X138904084Y-82992903D01*
X139548471Y-82726648D01*
X139590672Y-82684520D01*
X145967459Y-82684520D01*
X146216347Y-83158725D01*
X146627760Y-83501588D01*
X146895378Y-83612439D01*
X147106098Y-83509568D01*
X147106098Y-82473800D01*
X147461698Y-82473800D01*
X147461698Y-83509568D01*
X147672418Y-83612439D01*
X148146623Y-83363551D01*
X148489486Y-82952138D01*
X148600337Y-82684520D01*
X148497466Y-82473800D01*
X147461698Y-82473800D01*
X147106098Y-82473800D01*
X146070330Y-82473800D01*
X145967459Y-82684520D01*
X139590672Y-82684520D01*
X140041915Y-82234064D01*
X140177524Y-81907480D01*
X145967459Y-81907480D01*
X146070330Y-82118200D01*
X147106098Y-82118200D01*
X147106098Y-81082432D01*
X147461698Y-81082432D01*
X147461698Y-82118200D01*
X148497466Y-82118200D01*
X148600337Y-81907480D01*
X148351449Y-81433275D01*
X147940036Y-81090412D01*
X147672418Y-80979561D01*
X147461698Y-81082432D01*
X147106098Y-81082432D01*
X146895378Y-80979561D01*
X146421173Y-81228449D01*
X146078310Y-81639862D01*
X145967459Y-81907480D01*
X140177524Y-81907480D01*
X140309295Y-81590143D01*
X140309903Y-80892916D01*
X140245455Y-80736939D01*
X140388194Y-80594200D01*
X148242806Y-80594200D01*
X150037800Y-82389194D01*
X150037800Y-85325142D01*
X150036700Y-85326240D01*
X149885572Y-85690195D01*
X149885228Y-86084280D01*
X150035721Y-86448499D01*
X150314138Y-86727402D01*
X150678093Y-86878530D01*
X151072178Y-86878874D01*
X151436397Y-86728381D01*
X151715300Y-86449964D01*
X151866428Y-86086009D01*
X151866772Y-85691924D01*
X151716279Y-85327705D01*
X151714200Y-85325622D01*
X151714200Y-82492178D01*
X153477330Y-82492178D01*
X153627823Y-82856397D01*
X153906240Y-83135300D01*
X154270195Y-83286428D01*
X154664280Y-83286772D01*
X155028499Y-83136279D01*
X155030582Y-83134200D01*
X162974806Y-83134200D01*
X163708922Y-83868316D01*
X163708922Y-84216000D01*
X163724862Y-84300714D01*
X163774928Y-84378518D01*
X163851320Y-84430715D01*
X163942000Y-84449078D01*
X165242000Y-84449078D01*
X165326714Y-84433138D01*
X165371684Y-84404200D01*
X166002806Y-84404200D01*
X170337922Y-88739316D01*
X170337922Y-89162000D01*
X170353862Y-89246714D01*
X170403928Y-89324518D01*
X170480320Y-89376715D01*
X170571000Y-89395078D01*
X171821000Y-89395078D01*
X171905714Y-89379138D01*
X171983518Y-89329072D01*
X172035715Y-89252680D01*
X172054078Y-89162000D01*
X172054078Y-88251180D01*
X178244401Y-88251180D01*
X178331224Y-88461306D01*
X178491849Y-88622211D01*
X178584228Y-88660570D01*
X178612829Y-88689171D01*
X178785877Y-88804797D01*
X178990000Y-88845400D01*
X180726922Y-88845400D01*
X180726922Y-89062000D01*
X180742862Y-89146714D01*
X180792928Y-89224518D01*
X180869320Y-89276715D01*
X180960000Y-89295078D01*
X182260000Y-89295078D01*
X182344714Y-89279138D01*
X182422518Y-89229072D01*
X182474715Y-89152680D01*
X182493078Y-89062000D01*
X182493078Y-88989850D01*
X183194800Y-88989850D01*
X183194800Y-89532205D01*
X183283739Y-89746923D01*
X183448078Y-89911261D01*
X183662796Y-90000200D01*
X184080150Y-90000200D01*
X184226200Y-89854150D01*
X184226200Y-88843800D01*
X184581800Y-88843800D01*
X184581800Y-89854150D01*
X184727850Y-90000200D01*
X185145204Y-90000200D01*
X185359922Y-89911261D01*
X185524261Y-89746923D01*
X185613200Y-89532205D01*
X185613200Y-88989850D01*
X185467150Y-88843800D01*
X184581800Y-88843800D01*
X184226200Y-88843800D01*
X183340850Y-88843800D01*
X183194800Y-88989850D01*
X182493078Y-88989850D01*
X182493078Y-87799795D01*
X183194800Y-87799795D01*
X183194800Y-88342150D01*
X183340850Y-88488200D01*
X184226200Y-88488200D01*
X184226200Y-87477850D01*
X184581800Y-87477850D01*
X184581800Y-88488200D01*
X185467150Y-88488200D01*
X185613200Y-88342150D01*
X185613200Y-87799795D01*
X185524261Y-87585077D01*
X185359922Y-87420739D01*
X185145204Y-87331800D01*
X184727850Y-87331800D01*
X184581800Y-87477850D01*
X184226200Y-87477850D01*
X184080150Y-87331800D01*
X183662796Y-87331800D01*
X183448078Y-87420739D01*
X183283739Y-87585077D01*
X183194800Y-87799795D01*
X182493078Y-87799795D01*
X182493078Y-87562000D01*
X182477138Y-87477286D01*
X182427072Y-87399482D01*
X182350680Y-87347285D01*
X182260000Y-87328922D01*
X180960000Y-87328922D01*
X180875286Y-87344862D01*
X180797482Y-87394928D01*
X180745285Y-87471320D01*
X180726922Y-87562000D01*
X180726922Y-87778600D01*
X179264745Y-87778600D01*
X179140151Y-87653789D01*
X178930177Y-87566600D01*
X178702820Y-87566401D01*
X178492694Y-87653224D01*
X178331789Y-87813849D01*
X178244600Y-88023823D01*
X178244401Y-88251180D01*
X172054078Y-88251180D01*
X172054078Y-87662000D01*
X172038138Y-87577286D01*
X171988072Y-87499482D01*
X171911680Y-87447285D01*
X171821000Y-87428922D01*
X171398316Y-87428922D01*
X170215540Y-86246146D01*
X172863301Y-86246146D01*
X172925607Y-86456345D01*
X173396072Y-86596842D01*
X173884490Y-86546605D01*
X174102393Y-86456345D01*
X174164699Y-86246146D01*
X173514000Y-85595447D01*
X172863301Y-86246146D01*
X170215540Y-86246146D01*
X169195466Y-85226072D01*
X172261158Y-85226072D01*
X172311395Y-85714490D01*
X172401655Y-85932393D01*
X172611854Y-85994699D01*
X173262553Y-85344000D01*
X173765447Y-85344000D01*
X174416146Y-85994699D01*
X174626345Y-85932393D01*
X174630922Y-85917067D01*
X174630922Y-85994000D01*
X174646862Y-86078714D01*
X174696928Y-86156518D01*
X174773320Y-86208715D01*
X174864000Y-86227078D01*
X176164000Y-86227078D01*
X176248714Y-86211138D01*
X176326518Y-86161072D01*
X176378715Y-86084680D01*
X176397078Y-85994000D01*
X176397078Y-84694000D01*
X176381138Y-84609286D01*
X176331072Y-84531482D01*
X176254680Y-84479285D01*
X176164000Y-84460922D01*
X174864000Y-84460922D01*
X174779286Y-84476862D01*
X174701482Y-84526928D01*
X174649285Y-84603320D01*
X174630922Y-84694000D01*
X174630922Y-84766657D01*
X174626345Y-84755607D01*
X174416146Y-84693301D01*
X173765447Y-85344000D01*
X173262553Y-85344000D01*
X172611854Y-84693301D01*
X172401655Y-84755607D01*
X172261158Y-85226072D01*
X169195466Y-85226072D01*
X168411248Y-84441854D01*
X172863301Y-84441854D01*
X173514000Y-85092553D01*
X174164699Y-84441854D01*
X174102393Y-84231655D01*
X173631928Y-84091158D01*
X173143510Y-84141395D01*
X172925607Y-84231655D01*
X172863301Y-84441854D01*
X168411248Y-84441854D01*
X167484594Y-83515200D01*
X183662922Y-83515200D01*
X183662922Y-85623400D01*
X183678862Y-85708114D01*
X183728928Y-85785918D01*
X183805320Y-85838115D01*
X183896000Y-85856478D01*
X186004200Y-85856478D01*
X186088914Y-85840538D01*
X186166718Y-85790472D01*
X186218915Y-85714080D01*
X186237278Y-85623400D01*
X186237278Y-83515200D01*
X186221338Y-83430486D01*
X186171272Y-83352682D01*
X186094880Y-83300485D01*
X186004200Y-83282122D01*
X183896000Y-83282122D01*
X183811286Y-83298062D01*
X183733482Y-83348128D01*
X183681285Y-83424520D01*
X183662922Y-83515200D01*
X167484594Y-83515200D01*
X166942697Y-82973303D01*
X166670766Y-82791604D01*
X166571529Y-82771865D01*
X167978697Y-81364697D01*
X168158334Y-81095850D01*
X168865800Y-81095850D01*
X168865800Y-81513204D01*
X168954739Y-81727922D01*
X169119077Y-81892261D01*
X169333795Y-81981200D01*
X169876150Y-81981200D01*
X170022200Y-81835150D01*
X170022200Y-80949800D01*
X170377800Y-80949800D01*
X170377800Y-81835150D01*
X170523850Y-81981200D01*
X171066205Y-81981200D01*
X171280923Y-81892261D01*
X171445261Y-81727922D01*
X171534200Y-81513204D01*
X171534200Y-81095850D01*
X171388150Y-80949800D01*
X170377800Y-80949800D01*
X170022200Y-80949800D01*
X169011850Y-80949800D01*
X168865800Y-81095850D01*
X168158334Y-81095850D01*
X168160396Y-81092765D01*
X168224200Y-80772000D01*
X168224200Y-80030796D01*
X168865800Y-80030796D01*
X168865800Y-80448150D01*
X169011850Y-80594200D01*
X170022200Y-80594200D01*
X170022200Y-79708850D01*
X170377800Y-79708850D01*
X170377800Y-80594200D01*
X171388150Y-80594200D01*
X171534200Y-80448150D01*
X171534200Y-80030796D01*
X171445261Y-79816078D01*
X171280923Y-79651739D01*
X171066205Y-79562800D01*
X170523850Y-79562800D01*
X170377800Y-79708850D01*
X170022200Y-79708850D01*
X169876150Y-79562800D01*
X169333795Y-79562800D01*
X169119077Y-79651739D01*
X168954739Y-79816078D01*
X168865800Y-80030796D01*
X168224200Y-80030796D01*
X168224200Y-78218210D01*
X168290635Y-78118783D01*
X168365170Y-77744071D01*
X168365170Y-77393800D01*
X168591230Y-77393800D01*
X168591230Y-77892910D01*
X168760874Y-78390170D01*
X169107898Y-78784659D01*
X169543446Y-78993884D01*
X169748200Y-78890458D01*
X169748200Y-77393800D01*
X170103800Y-77393800D01*
X170103800Y-78890458D01*
X170308554Y-78993884D01*
X170744102Y-78784659D01*
X171091126Y-78390170D01*
X171260770Y-77892910D01*
X171260770Y-77393800D01*
X170103800Y-77393800D01*
X169748200Y-77393800D01*
X168591230Y-77393800D01*
X168365170Y-77393800D01*
X168365170Y-76687929D01*
X168335565Y-76539090D01*
X168591230Y-76539090D01*
X168591230Y-77038200D01*
X169748200Y-77038200D01*
X169748200Y-75541542D01*
X170103800Y-75541542D01*
X170103800Y-77038200D01*
X171260770Y-77038200D01*
X171260770Y-76687929D01*
X171486830Y-76687929D01*
X171486830Y-77744071D01*
X171561365Y-78118783D01*
X171773622Y-78436449D01*
X171861800Y-78495367D01*
X171861800Y-79932105D01*
X171787482Y-79979928D01*
X171735285Y-80056320D01*
X171716922Y-80147000D01*
X171716922Y-81397000D01*
X171732862Y-81481714D01*
X171782928Y-81559518D01*
X171859320Y-81611715D01*
X171950000Y-81630078D01*
X173450000Y-81630078D01*
X173534714Y-81614138D01*
X173612518Y-81564072D01*
X173664715Y-81487680D01*
X173683078Y-81397000D01*
X173683078Y-80147000D01*
X173667138Y-80062286D01*
X173617072Y-79984482D01*
X173540680Y-79932285D01*
X173538200Y-79931783D01*
X173538200Y-77450000D01*
X173474396Y-77129235D01*
X173474396Y-77129234D01*
X173445170Y-77085494D01*
X173445170Y-76687929D01*
X173370635Y-76313217D01*
X173158378Y-75995551D01*
X172840712Y-75783294D01*
X172466000Y-75708759D01*
X172091288Y-75783294D01*
X171773622Y-75995551D01*
X171561365Y-76313217D01*
X171486830Y-76687929D01*
X171260770Y-76687929D01*
X171260770Y-76539090D01*
X171091126Y-76041830D01*
X170744102Y-75647341D01*
X170308554Y-75438116D01*
X170103800Y-75541542D01*
X169748200Y-75541542D01*
X169543446Y-75438116D01*
X169107898Y-75647341D01*
X168760874Y-76041830D01*
X168591230Y-76539090D01*
X168335565Y-76539090D01*
X168290635Y-76313217D01*
X168078378Y-75995551D01*
X167760712Y-75783294D01*
X167386000Y-75708759D01*
X167011288Y-75783294D01*
X166693622Y-75995551D01*
X166481365Y-76313217D01*
X166406830Y-76687929D01*
X166406830Y-77744071D01*
X166481365Y-78118783D01*
X166547800Y-78218210D01*
X166547800Y-80424806D01*
X164592000Y-82380606D01*
X163914697Y-81703303D01*
X163642766Y-81521604D01*
X163322000Y-81457800D01*
X155031062Y-81457800D01*
X155029964Y-81456700D01*
X154666009Y-81305572D01*
X154271924Y-81305228D01*
X153907705Y-81455721D01*
X153628802Y-81734138D01*
X153477674Y-82098093D01*
X153477330Y-82492178D01*
X151714200Y-82492178D01*
X151714200Y-82042000D01*
X151650396Y-81721235D01*
X151650396Y-81721234D01*
X151468697Y-81449303D01*
X149182697Y-79163303D01*
X148910766Y-78981604D01*
X148590000Y-78917800D01*
X140041000Y-78917800D01*
X139720234Y-78981604D01*
X139448303Y-79163303D01*
X139060303Y-79551303D01*
X138907143Y-79487705D01*
X138209916Y-79487097D01*
X137565529Y-79753352D01*
X137072085Y-80245936D01*
X136804705Y-80889857D01*
X136804097Y-81587084D01*
X130478600Y-81587084D01*
X130478600Y-76587084D01*
X136804097Y-76587084D01*
X137070352Y-77231471D01*
X137562936Y-77724915D01*
X138206857Y-77992295D01*
X138904084Y-77992903D01*
X139548471Y-77726648D01*
X140041915Y-77234064D01*
X140309295Y-76590143D01*
X140309790Y-76022200D01*
X147213922Y-76022200D01*
X147213922Y-76200000D01*
X147229862Y-76284714D01*
X147279928Y-76362518D01*
X147356320Y-76414715D01*
X147447000Y-76433078D01*
X149479000Y-76433078D01*
X149563714Y-76417138D01*
X149641518Y-76367072D01*
X149693715Y-76290680D01*
X149712078Y-76200000D01*
X149712078Y-75159617D01*
X149758400Y-75159617D01*
X149758400Y-75208383D01*
X149853140Y-75684671D01*
X150037800Y-75961034D01*
X150037800Y-78140938D01*
X150036700Y-78142036D01*
X149885572Y-78505991D01*
X149885228Y-78900076D01*
X150035721Y-79264295D01*
X150314138Y-79543198D01*
X150678093Y-79694326D01*
X151072178Y-79694670D01*
X151436397Y-79544177D01*
X151715300Y-79265760D01*
X151866428Y-78901805D01*
X151866772Y-78507720D01*
X151716279Y-78143501D01*
X151714200Y-78141418D01*
X151714200Y-76201280D01*
X151883065Y-76088448D01*
X152152860Y-75684671D01*
X152247600Y-75208383D01*
X152247600Y-75159617D01*
X152152860Y-74683329D01*
X151961274Y-74396600D01*
X183662922Y-74396600D01*
X183662922Y-76504800D01*
X183678862Y-76589514D01*
X183728928Y-76667318D01*
X183805320Y-76719515D01*
X183896000Y-76737878D01*
X186004200Y-76737878D01*
X186088914Y-76721938D01*
X186166718Y-76671872D01*
X186218915Y-76595480D01*
X186237278Y-76504800D01*
X186237278Y-75774550D01*
X187807600Y-75774550D01*
X187807600Y-76621004D01*
X187896539Y-76835722D01*
X188060877Y-77000061D01*
X188275595Y-77089000D01*
X189122050Y-77089000D01*
X189268100Y-76942950D01*
X189268100Y-75628500D01*
X189623700Y-75628500D01*
X189623700Y-76942950D01*
X189769750Y-77089000D01*
X190616205Y-77089000D01*
X190830923Y-77000061D01*
X190995261Y-76835722D01*
X191084200Y-76621004D01*
X191084200Y-75774550D01*
X190938150Y-75628500D01*
X189623700Y-75628500D01*
X189268100Y-75628500D01*
X187953650Y-75628500D01*
X187807600Y-75774550D01*
X186237278Y-75774550D01*
X186237278Y-74396600D01*
X186221338Y-74311886D01*
X186201075Y-74280396D01*
X187807600Y-74280396D01*
X187807600Y-75126850D01*
X187953650Y-75272900D01*
X189268100Y-75272900D01*
X189268100Y-73958450D01*
X189623700Y-73958450D01*
X189623700Y-75272900D01*
X190938150Y-75272900D01*
X191084200Y-75126850D01*
X191084200Y-74280396D01*
X190995261Y-74065678D01*
X190830923Y-73901339D01*
X190616205Y-73812400D01*
X189769750Y-73812400D01*
X189623700Y-73958450D01*
X189268100Y-73958450D01*
X189122050Y-73812400D01*
X188275595Y-73812400D01*
X188060877Y-73901339D01*
X187896539Y-74065678D01*
X187807600Y-74280396D01*
X186201075Y-74280396D01*
X186171272Y-74234082D01*
X186094880Y-74181885D01*
X186004200Y-74163522D01*
X183896000Y-74163522D01*
X183811286Y-74179462D01*
X183733482Y-74229528D01*
X183681285Y-74305920D01*
X183662922Y-74396600D01*
X151961274Y-74396600D01*
X151883065Y-74279552D01*
X151479288Y-74009757D01*
X151003000Y-73915017D01*
X150526712Y-74009757D01*
X150122935Y-74279552D01*
X149853140Y-74683329D01*
X149758400Y-75159617D01*
X149712078Y-75159617D01*
X149712078Y-74168000D01*
X149696138Y-74083286D01*
X149646072Y-74005482D01*
X149569680Y-73953285D01*
X149479000Y-73934922D01*
X147447000Y-73934922D01*
X147362286Y-73950862D01*
X147284482Y-74000928D01*
X147232285Y-74077320D01*
X147213922Y-74168000D01*
X147213922Y-74345800D01*
X139613000Y-74345800D01*
X139292235Y-74409604D01*
X139072554Y-74556390D01*
X138907143Y-74487705D01*
X138209916Y-74487097D01*
X137565529Y-74753352D01*
X137072085Y-75245936D01*
X136804705Y-75889857D01*
X136804097Y-76587084D01*
X130478600Y-76587084D01*
X130478600Y-71228135D01*
X131775084Y-71228135D01*
X132052885Y-71900465D01*
X132566829Y-72415307D01*
X133238673Y-72694282D01*
X133966135Y-72694916D01*
X134638465Y-72417115D01*
X135153307Y-71903171D01*
X135432282Y-71231327D01*
X135432284Y-71228135D01*
X190703084Y-71228135D01*
X190980885Y-71900465D01*
X191494829Y-72415307D01*
X192166673Y-72694282D01*
X192894135Y-72694916D01*
X193566465Y-72417115D01*
X194081307Y-71903171D01*
X194360282Y-71231327D01*
X194360916Y-70503865D01*
X194083115Y-69831535D01*
X193569171Y-69316693D01*
X192897327Y-69037718D01*
X192169865Y-69037084D01*
X191497535Y-69314885D01*
X190982693Y-69828829D01*
X190703718Y-70500673D01*
X190703084Y-71228135D01*
X135432284Y-71228135D01*
X135432916Y-70503865D01*
X135155115Y-69831535D01*
X134641171Y-69316693D01*
X133969327Y-69037718D01*
X133241865Y-69037084D01*
X132569535Y-69314885D01*
X132054693Y-69828829D01*
X131775718Y-70500673D01*
X131775084Y-71228135D01*
X130478600Y-71228135D01*
X130478600Y-67740600D01*
X195657400Y-67740600D01*
X195657400Y-116155400D01*
X195657400Y-116155400D01*
G37*
X195657400Y-116155400D02*
X130478600Y-116155400D01*
X130478600Y-113392135D01*
X131775084Y-113392135D01*
X132052885Y-114064465D01*
X132566829Y-114579307D01*
X133238673Y-114858282D01*
X133966135Y-114858916D01*
X134638465Y-114581115D01*
X135153307Y-114067171D01*
X135432282Y-113395327D01*
X135432284Y-113392135D01*
X190703084Y-113392135D01*
X190980885Y-114064465D01*
X191494829Y-114579307D01*
X192166673Y-114858282D01*
X192894135Y-114858916D01*
X193566465Y-114581115D01*
X194081307Y-114067171D01*
X194360282Y-113395327D01*
X194360916Y-112667865D01*
X194083115Y-111995535D01*
X193569171Y-111480693D01*
X192897327Y-111201718D01*
X192169865Y-111201084D01*
X191497535Y-111478885D01*
X190982693Y-111992829D01*
X190703718Y-112664673D01*
X190703084Y-113392135D01*
X135432284Y-113392135D01*
X135432916Y-112667865D01*
X135155115Y-111995535D01*
X134641171Y-111480693D01*
X133969327Y-111201718D01*
X133241865Y-111201084D01*
X132569535Y-111478885D01*
X132054693Y-111992829D01*
X131775718Y-112664673D01*
X131775084Y-113392135D01*
X130478600Y-113392135D01*
X130478600Y-109446788D01*
X136763659Y-109446788D01*
X136933727Y-109747533D01*
X137721816Y-110034456D01*
X138559715Y-109997949D01*
X139164273Y-109747533D01*
X139334341Y-109446788D01*
X138049000Y-108161447D01*
X136763659Y-109446788D01*
X130478600Y-109446788D01*
X130478600Y-107582816D01*
X135924544Y-107582816D01*
X135961051Y-108420715D01*
X136211467Y-109025273D01*
X136512212Y-109195341D01*
X137797553Y-107910000D01*
X138300447Y-107910000D01*
X139585788Y-109195341D01*
X139886533Y-109025273D01*
X140173456Y-108237184D01*
X140136949Y-107399285D01*
X139886533Y-106794727D01*
X139585788Y-106624659D01*
X138300447Y-107910000D01*
X137797553Y-107910000D01*
X136512212Y-106624659D01*
X136211467Y-106794727D01*
X135924544Y-107582816D01*
X130478600Y-107582816D01*
X130478600Y-106373212D01*
X136763659Y-106373212D01*
X138049000Y-107658553D01*
X139334341Y-106373212D01*
X139164273Y-106072467D01*
X138376184Y-105785544D01*
X137538285Y-105822051D01*
X136933727Y-106072467D01*
X136763659Y-106373212D01*
X130478600Y-106373212D01*
X130478600Y-103257084D01*
X136296097Y-103257084D01*
X136562352Y-103901471D01*
X137054936Y-104394915D01*
X137698857Y-104662295D01*
X138396084Y-104662903D01*
X139040471Y-104396648D01*
X139533915Y-103904064D01*
X139725200Y-103443400D01*
X141551058Y-103443400D01*
X145705774Y-107598116D01*
X145694572Y-107625093D01*
X145694228Y-108019178D01*
X145844721Y-108383397D01*
X146123138Y-108662300D01*
X146487093Y-108813428D01*
X146881178Y-108813772D01*
X146897940Y-108806846D01*
X151032601Y-108806846D01*
X151108862Y-109028588D01*
X151620166Y-109187911D01*
X152153520Y-109139439D01*
X152421138Y-109028588D01*
X152497399Y-108806846D01*
X151765000Y-108074447D01*
X151032601Y-108806846D01*
X146897940Y-108806846D01*
X147245397Y-108663279D01*
X147524300Y-108384862D01*
X147675428Y-108020907D01*
X147675727Y-107678166D01*
X150400089Y-107678166D01*
X150448561Y-108211520D01*
X150559412Y-108479138D01*
X150781154Y-108555399D01*
X151513553Y-107823000D01*
X152016447Y-107823000D01*
X152748846Y-108555399D01*
X152970588Y-108479138D01*
X153129911Y-107967834D01*
X153081439Y-107434480D01*
X152970588Y-107166862D01*
X152748846Y-107090601D01*
X152016447Y-107823000D01*
X151513553Y-107823000D01*
X150781154Y-107090601D01*
X150559412Y-107166862D01*
X150400089Y-107678166D01*
X147675727Y-107678166D01*
X147675772Y-107626822D01*
X147525279Y-107262603D01*
X147246862Y-106983700D01*
X146898759Y-106839154D01*
X151032601Y-106839154D01*
X151765000Y-107571553D01*
X152497399Y-106839154D01*
X152421138Y-106617412D01*
X151909834Y-106458089D01*
X151376480Y-106506561D01*
X151108862Y-106617412D01*
X151032601Y-106839154D01*
X146898759Y-106839154D01*
X146882907Y-106832572D01*
X146488822Y-106832228D01*
X146460339Y-106843997D01*
X143823392Y-104207050D01*
X153101800Y-104207050D01*
X153101800Y-104352204D01*
X153190739Y-104566922D01*
X153355077Y-104731261D01*
X153569795Y-104820200D01*
X153689950Y-104820200D01*
X153836000Y-104674150D01*
X153836000Y-104061000D01*
X153247850Y-104061000D01*
X153101800Y-104207050D01*
X143823392Y-104207050D01*
X143036138Y-103419796D01*
X153101800Y-103419796D01*
X153101800Y-103564950D01*
X153247850Y-103711000D01*
X153836000Y-103711000D01*
X153836000Y-103097850D01*
X154136000Y-103097850D01*
X154136000Y-103711000D01*
X154183800Y-103711000D01*
X154183800Y-104061000D01*
X154136000Y-104061000D01*
X154136000Y-104674150D01*
X154282050Y-104820200D01*
X154402205Y-104820200D01*
X154616923Y-104731261D01*
X154781261Y-104566922D01*
X154852600Y-104394694D01*
X154852600Y-106364000D01*
X154893203Y-106568123D01*
X155008829Y-106741171D01*
X155865774Y-107598115D01*
X155854572Y-107625093D01*
X155854228Y-108019178D01*
X156004721Y-108383397D01*
X156283138Y-108662300D01*
X156647093Y-108813428D01*
X157041178Y-108813772D01*
X157069661Y-108802003D01*
X157864829Y-109597171D01*
X158037876Y-109712797D01*
X158242000Y-109753400D01*
X176784000Y-109753400D01*
X176988123Y-109712797D01*
X177161171Y-109597171D01*
X177933162Y-108825180D01*
X184086401Y-108825180D01*
X184173224Y-109035306D01*
X184333849Y-109196211D01*
X184543823Y-109283400D01*
X184771180Y-109283599D01*
X184981306Y-109196776D01*
X185142211Y-109036151D01*
X185180571Y-108943771D01*
X185386941Y-108737400D01*
X185626922Y-108737400D01*
X185626922Y-108854000D01*
X185642862Y-108938714D01*
X185692928Y-109016518D01*
X185769320Y-109068715D01*
X185860000Y-109087078D01*
X187360000Y-109087078D01*
X187444714Y-109071138D01*
X187522518Y-109021072D01*
X187574715Y-108944680D01*
X187593078Y-108854000D01*
X187593078Y-107554000D01*
X188326922Y-107554000D01*
X188326922Y-108854000D01*
X188342862Y-108938714D01*
X188392928Y-109016518D01*
X188469320Y-109068715D01*
X188560000Y-109087078D01*
X190060000Y-109087078D01*
X190144714Y-109071138D01*
X190222518Y-109021072D01*
X190274715Y-108944680D01*
X190293078Y-108854000D01*
X190293078Y-107554000D01*
X190277138Y-107469286D01*
X190227072Y-107391482D01*
X190150680Y-107339285D01*
X190060000Y-107320922D01*
X189843400Y-107320922D01*
X189843400Y-106750518D01*
X190116460Y-106750518D01*
X190201174Y-106734578D01*
X190278978Y-106684512D01*
X190331175Y-106608120D01*
X190349538Y-106517440D01*
X190349538Y-105318560D01*
X190333598Y-105233846D01*
X190283532Y-105156042D01*
X190207140Y-105103845D01*
X190116460Y-105085482D01*
X188917580Y-105085482D01*
X188832866Y-105101422D01*
X188755062Y-105151488D01*
X188702865Y-105227880D01*
X188684502Y-105318560D01*
X188684502Y-106517440D01*
X188700442Y-106602154D01*
X188750508Y-106679958D01*
X188776600Y-106697786D01*
X188776600Y-107320922D01*
X188560000Y-107320922D01*
X188475286Y-107336862D01*
X188397482Y-107386928D01*
X188345285Y-107463320D01*
X188326922Y-107554000D01*
X187593078Y-107554000D01*
X187577138Y-107469286D01*
X187527072Y-107391482D01*
X187450680Y-107339285D01*
X187360000Y-107320922D01*
X185860000Y-107320922D01*
X185775286Y-107336862D01*
X185697482Y-107386928D01*
X185645285Y-107463320D01*
X185626922Y-107554000D01*
X185626922Y-107670600D01*
X185166000Y-107670600D01*
X184961876Y-107711203D01*
X184892563Y-107757516D01*
X184788829Y-107826829D01*
X184788827Y-107826832D01*
X184426275Y-108189383D01*
X184334694Y-108227224D01*
X184173789Y-108387849D01*
X184086600Y-108597823D01*
X184086401Y-108825180D01*
X177933162Y-108825180D01*
X180336171Y-106422171D01*
X180451797Y-106249123D01*
X180453243Y-106241850D01*
X186235340Y-106241850D01*
X186235340Y-106633644D01*
X186324279Y-106848362D01*
X186488617Y-107012701D01*
X186703335Y-107101640D01*
X187095130Y-107101640D01*
X187241180Y-106955590D01*
X187241180Y-106095800D01*
X187596780Y-106095800D01*
X187596780Y-106955590D01*
X187742830Y-107101640D01*
X188134625Y-107101640D01*
X188349343Y-107012701D01*
X188513681Y-106848362D01*
X188602620Y-106633644D01*
X188602620Y-106241850D01*
X188456570Y-106095800D01*
X187596780Y-106095800D01*
X187241180Y-106095800D01*
X186381390Y-106095800D01*
X186235340Y-106241850D01*
X180453243Y-106241850D01*
X180492400Y-106045000D01*
X180492400Y-105202356D01*
X186235340Y-105202356D01*
X186235340Y-105594150D01*
X186381390Y-105740200D01*
X187241180Y-105740200D01*
X187241180Y-104880410D01*
X187596780Y-104880410D01*
X187596780Y-105740200D01*
X188456570Y-105740200D01*
X188602620Y-105594150D01*
X188602620Y-105202356D01*
X188513681Y-104987638D01*
X188349343Y-104823299D01*
X188134625Y-104734360D01*
X187742830Y-104734360D01*
X187596780Y-104880410D01*
X187241180Y-104880410D01*
X187095130Y-104734360D01*
X186703335Y-104734360D01*
X186488617Y-104823299D01*
X186324279Y-104987638D01*
X186235340Y-105202356D01*
X180492400Y-105202356D01*
X180492400Y-102939850D01*
X186235340Y-102939850D01*
X186235340Y-103331644D01*
X186324279Y-103546362D01*
X186488617Y-103710701D01*
X186703335Y-103799640D01*
X187095130Y-103799640D01*
X187241180Y-103653590D01*
X187241180Y-102793800D01*
X187596780Y-102793800D01*
X187596780Y-103653590D01*
X187742830Y-103799640D01*
X188134625Y-103799640D01*
X188349343Y-103710701D01*
X188513681Y-103546362D01*
X188602620Y-103331644D01*
X188602620Y-102939850D01*
X188456570Y-102793800D01*
X187596780Y-102793800D01*
X187241180Y-102793800D01*
X186381390Y-102793800D01*
X186235340Y-102939850D01*
X180492400Y-102939850D01*
X180492400Y-100490000D01*
X180695600Y-100490000D01*
X180695922Y-100491619D01*
X180695922Y-101265000D01*
X180711862Y-101349714D01*
X180761928Y-101427518D01*
X180838320Y-101479715D01*
X180929000Y-101498078D01*
X181529000Y-101498078D01*
X181613714Y-101482138D01*
X181691518Y-101432072D01*
X181743715Y-101355680D01*
X181762078Y-101265000D01*
X181762078Y-101023400D01*
X181803058Y-101023400D01*
X182611383Y-101831725D01*
X182649224Y-101923306D01*
X182809849Y-102084211D01*
X183019823Y-102171400D01*
X183247180Y-102171599D01*
X183457306Y-102084776D01*
X183618211Y-101924151D01*
X183628091Y-101900356D01*
X186235340Y-101900356D01*
X186235340Y-102292150D01*
X186381390Y-102438200D01*
X187241180Y-102438200D01*
X187241180Y-101578410D01*
X187596780Y-101578410D01*
X187596780Y-102438200D01*
X188456570Y-102438200D01*
X188602620Y-102292150D01*
X188602620Y-101900356D01*
X188513681Y-101685638D01*
X188349343Y-101521299D01*
X188134625Y-101432360D01*
X187742830Y-101432360D01*
X187596780Y-101578410D01*
X187241180Y-101578410D01*
X187095130Y-101432360D01*
X186703335Y-101432360D01*
X186488617Y-101521299D01*
X186324279Y-101685638D01*
X186235340Y-101900356D01*
X183628091Y-101900356D01*
X183705400Y-101714177D01*
X183705599Y-101486820D01*
X183618776Y-101276694D01*
X183458151Y-101115789D01*
X183365772Y-101077430D01*
X182401171Y-100112829D01*
X182228123Y-99997203D01*
X182024000Y-99956600D01*
X181762078Y-99956600D01*
X181762078Y-99715000D01*
X181746138Y-99630286D01*
X181696072Y-99552482D01*
X181619680Y-99500285D01*
X181529000Y-99481922D01*
X180929000Y-99481922D01*
X180844286Y-99497862D01*
X180766482Y-99547928D01*
X180714285Y-99624320D01*
X180695922Y-99715000D01*
X180695922Y-100488381D01*
X180695600Y-100490000D01*
X180492400Y-100490000D01*
X180492400Y-99407942D01*
X180814941Y-99085400D01*
X183340922Y-99085400D01*
X183340922Y-99202000D01*
X183356862Y-99286714D01*
X183406928Y-99364518D01*
X183483320Y-99416715D01*
X183574000Y-99435078D01*
X185074000Y-99435078D01*
X185158714Y-99419138D01*
X185236518Y-99369072D01*
X185288715Y-99292680D01*
X185307078Y-99202000D01*
X185307078Y-97902000D01*
X186040922Y-97902000D01*
X186040922Y-99202000D01*
X186056862Y-99286714D01*
X186106928Y-99364518D01*
X186183320Y-99416715D01*
X186274000Y-99435078D01*
X187774000Y-99435078D01*
X187858714Y-99419138D01*
X187936518Y-99369072D01*
X187988715Y-99292680D01*
X188007078Y-99202000D01*
X188007078Y-99085400D01*
X188247058Y-99085400D01*
X188983620Y-99821962D01*
X188983620Y-101783482D01*
X188917580Y-101783482D01*
X188832866Y-101799422D01*
X188755062Y-101849488D01*
X188702865Y-101925880D01*
X188684502Y-102016560D01*
X188684502Y-103215440D01*
X188700442Y-103300154D01*
X188750508Y-103377958D01*
X188826900Y-103430155D01*
X188917580Y-103448518D01*
X190116460Y-103448518D01*
X190201174Y-103432578D01*
X190278978Y-103382512D01*
X190331175Y-103306120D01*
X190349538Y-103215440D01*
X190349538Y-102016560D01*
X190333598Y-101931846D01*
X190283532Y-101854042D01*
X190207140Y-101801845D01*
X190116460Y-101783482D01*
X190050420Y-101783482D01*
X190050420Y-99601020D01*
X190009817Y-99396897D01*
X190009817Y-99396896D01*
X189894191Y-99223849D01*
X188845171Y-98174829D01*
X188672123Y-98059203D01*
X188468000Y-98018600D01*
X188007078Y-98018600D01*
X188007078Y-97902000D01*
X187991138Y-97817286D01*
X187941072Y-97739482D01*
X187864680Y-97687285D01*
X187774000Y-97668922D01*
X186274000Y-97668922D01*
X186189286Y-97684862D01*
X186111482Y-97734928D01*
X186059285Y-97811320D01*
X186040922Y-97902000D01*
X185307078Y-97902000D01*
X185291138Y-97817286D01*
X185241072Y-97739482D01*
X185164680Y-97687285D01*
X185074000Y-97668922D01*
X183574000Y-97668922D01*
X183489286Y-97684862D01*
X183411482Y-97734928D01*
X183359285Y-97811320D01*
X183340922Y-97902000D01*
X183340922Y-98018600D01*
X180594005Y-98018600D01*
X180594000Y-98018599D01*
X180389877Y-98059203D01*
X180216829Y-98174829D01*
X180216827Y-98174832D01*
X179581829Y-98809829D01*
X179466203Y-98982877D01*
X179425600Y-99187000D01*
X179425600Y-105824058D01*
X176563058Y-108686600D01*
X163000402Y-108686600D01*
X163020226Y-108666776D01*
X162908848Y-108555398D01*
X163130588Y-108479138D01*
X163289911Y-107967834D01*
X163241439Y-107434480D01*
X163130588Y-107166862D01*
X162908846Y-107090601D01*
X162176447Y-107823000D01*
X162190590Y-107837143D01*
X161939143Y-108088590D01*
X161925000Y-108074447D01*
X161910858Y-108088590D01*
X161659411Y-107837143D01*
X161673553Y-107823000D01*
X160941154Y-107090601D01*
X160719412Y-107166862D01*
X160560089Y-107678166D01*
X160608561Y-108211520D01*
X160719412Y-108479138D01*
X160941152Y-108555398D01*
X160829774Y-108666776D01*
X160849598Y-108686600D01*
X158462942Y-108686600D01*
X157824226Y-108047884D01*
X157835428Y-108020907D01*
X157835772Y-107626822D01*
X157685279Y-107262603D01*
X157406862Y-106983700D01*
X157058759Y-106839154D01*
X161192601Y-106839154D01*
X161925000Y-107571553D01*
X162657399Y-106839154D01*
X162581138Y-106617412D01*
X162069834Y-106458089D01*
X161536480Y-106506561D01*
X161268862Y-106617412D01*
X161192601Y-106839154D01*
X157058759Y-106839154D01*
X157042907Y-106832572D01*
X156648822Y-106832228D01*
X156620339Y-106843997D01*
X155919400Y-106143058D01*
X155919400Y-103886000D01*
X155919078Y-103884381D01*
X155919078Y-103536000D01*
X155903138Y-103451286D01*
X155853072Y-103373482D01*
X155776680Y-103321285D01*
X155686000Y-103302922D01*
X155086000Y-103302922D01*
X155001286Y-103318862D01*
X154923482Y-103368928D01*
X154871285Y-103445320D01*
X154870200Y-103450678D01*
X154870200Y-103419796D01*
X154781261Y-103205078D01*
X154616923Y-103040739D01*
X154402205Y-102951800D01*
X154282050Y-102951800D01*
X154136000Y-103097850D01*
X153836000Y-103097850D01*
X153689950Y-102951800D01*
X153569795Y-102951800D01*
X153355077Y-103040739D01*
X153190739Y-103205078D01*
X153101800Y-103419796D01*
X143036138Y-103419796D01*
X142149171Y-102532829D01*
X141976123Y-102417203D01*
X141772000Y-102376600D01*
X139724919Y-102376600D01*
X139535648Y-101918529D01*
X139043064Y-101425085D01*
X138399143Y-101157705D01*
X137701916Y-101157097D01*
X137057529Y-101423352D01*
X136564085Y-101915936D01*
X136296705Y-102559857D01*
X136296097Y-103257084D01*
X130478600Y-103257084D01*
X130478600Y-99531170D01*
X156084872Y-99531170D01*
X156084872Y-100331270D01*
X156100812Y-100415984D01*
X156150878Y-100493788D01*
X156184600Y-100516830D01*
X156184600Y-101553000D01*
X156225203Y-101757123D01*
X156289922Y-101853983D01*
X156289922Y-102758000D01*
X156305862Y-102842714D01*
X156355928Y-102920518D01*
X156432320Y-102972715D01*
X156523000Y-102991078D01*
X156739600Y-102991078D01*
X156739600Y-103425000D01*
X156780203Y-103629123D01*
X156895829Y-103802171D01*
X158499827Y-105406168D01*
X158499829Y-105406171D01*
X158528313Y-105425203D01*
X158672877Y-105521797D01*
X158877000Y-105562401D01*
X158877005Y-105562400D01*
X167894000Y-105562400D01*
X168098123Y-105521797D01*
X168271171Y-105406171D01*
X168630600Y-105046742D01*
X168630600Y-106426000D01*
X168671203Y-106630123D01*
X168786829Y-106803171D01*
X168959877Y-106918797D01*
X169164000Y-106959400D01*
X170994922Y-106959400D01*
X170994922Y-107051000D01*
X171010862Y-107135714D01*
X171060928Y-107213518D01*
X171137320Y-107265715D01*
X171228000Y-107284078D01*
X172728000Y-107284078D01*
X172812714Y-107268138D01*
X172890518Y-107218072D01*
X172942715Y-107141680D01*
X172961078Y-107051000D01*
X172961078Y-105801000D01*
X172945138Y-105716286D01*
X172895072Y-105638482D01*
X172818680Y-105586285D01*
X172728000Y-105567922D01*
X171228000Y-105567922D01*
X171143286Y-105583862D01*
X171065482Y-105633928D01*
X171013285Y-105710320D01*
X170994922Y-105801000D01*
X170994922Y-105892600D01*
X169697400Y-105892600D01*
X169697400Y-103852942D01*
X170060341Y-103490000D01*
X170640922Y-103490000D01*
X170640922Y-104790000D01*
X170656862Y-104874714D01*
X170706928Y-104952518D01*
X170783320Y-105004715D01*
X170874000Y-105023078D01*
X171956268Y-105023078D01*
X171978000Y-105027401D01*
X171999733Y-105023078D01*
X172374000Y-105023078D01*
X172458714Y-105007138D01*
X172536518Y-104957072D01*
X172588715Y-104880680D01*
X172607078Y-104790000D01*
X172607078Y-103490000D01*
X173340922Y-103490000D01*
X173340922Y-104790000D01*
X173356862Y-104874714D01*
X173406928Y-104952518D01*
X173483320Y-105004715D01*
X173574000Y-105023078D01*
X173790600Y-105023078D01*
X173790600Y-105567922D01*
X173728000Y-105567922D01*
X173643286Y-105583862D01*
X173565482Y-105633928D01*
X173513285Y-105710320D01*
X173494922Y-105801000D01*
X173494922Y-107051000D01*
X173510862Y-107135714D01*
X173560928Y-107213518D01*
X173637320Y-107265715D01*
X173728000Y-107284078D01*
X175228000Y-107284078D01*
X175312714Y-107268138D01*
X175390518Y-107218072D01*
X175442715Y-107141680D01*
X175461078Y-107051000D01*
X175461078Y-105801000D01*
X175445138Y-105716286D01*
X175395072Y-105638482D01*
X175318680Y-105586285D01*
X175228000Y-105567922D01*
X174857400Y-105567922D01*
X174857400Y-105023078D01*
X175074000Y-105023078D01*
X175158714Y-105007138D01*
X175236518Y-104957072D01*
X175288715Y-104880680D01*
X175307078Y-104790000D01*
X175307078Y-104673400D01*
X177038000Y-104673400D01*
X177242123Y-104632797D01*
X177415171Y-104517171D01*
X179066168Y-102866173D01*
X179066171Y-102866171D01*
X179181797Y-102693123D01*
X179184527Y-102679400D01*
X179222401Y-102489000D01*
X179222400Y-102488995D01*
X179222400Y-100490000D01*
X179222078Y-100488381D01*
X179222078Y-99715000D01*
X179206138Y-99630286D01*
X179156072Y-99552482D01*
X179079680Y-99500285D01*
X178989000Y-99481922D01*
X178389000Y-99481922D01*
X178304286Y-99497862D01*
X178270419Y-99519655D01*
X178214261Y-99384077D01*
X178049922Y-99219739D01*
X177835204Y-99130800D01*
X177715050Y-99130800D01*
X177569000Y-99276850D01*
X177569000Y-100312200D01*
X177616800Y-100312200D01*
X177616800Y-100667800D01*
X177569000Y-100667800D01*
X177569000Y-101703150D01*
X177715050Y-101849200D01*
X177835204Y-101849200D01*
X178049922Y-101760261D01*
X178155600Y-101654584D01*
X178155600Y-102268059D01*
X176817058Y-103606600D01*
X175307078Y-103606600D01*
X175307078Y-103490000D01*
X175291138Y-103405286D01*
X175241072Y-103327482D01*
X175164680Y-103275285D01*
X175074000Y-103256922D01*
X173574000Y-103256922D01*
X173489286Y-103272862D01*
X173411482Y-103322928D01*
X173359285Y-103399320D01*
X173340922Y-103490000D01*
X172607078Y-103490000D01*
X172591138Y-103405286D01*
X172541072Y-103327482D01*
X172464680Y-103275285D01*
X172374000Y-103256922D01*
X172157400Y-103256922D01*
X172157400Y-103170942D01*
X172697725Y-102630617D01*
X172789306Y-102592776D01*
X172950211Y-102432151D01*
X173037400Y-102222177D01*
X173037599Y-101994820D01*
X172950776Y-101784694D01*
X172790151Y-101623789D01*
X172580177Y-101536600D01*
X172352820Y-101536401D01*
X172142694Y-101623224D01*
X171981789Y-101783849D01*
X171943430Y-101876228D01*
X171246829Y-102572829D01*
X171131203Y-102745877D01*
X171090600Y-102950000D01*
X171090600Y-103256922D01*
X170874000Y-103256922D01*
X170789286Y-103272862D01*
X170711482Y-103322928D01*
X170659285Y-103399320D01*
X170640922Y-103490000D01*
X170060341Y-103490000D01*
X172736491Y-100813850D01*
X176534800Y-100813850D01*
X176534800Y-101381205D01*
X176623739Y-101595923D01*
X176788078Y-101760261D01*
X177002796Y-101849200D01*
X177122950Y-101849200D01*
X177269000Y-101703150D01*
X177269000Y-100667800D01*
X176680850Y-100667800D01*
X176534800Y-100813850D01*
X172736491Y-100813850D01*
X173951546Y-99598795D01*
X176534800Y-99598795D01*
X176534800Y-100166150D01*
X176680850Y-100312200D01*
X177269000Y-100312200D01*
X177269000Y-99276850D01*
X177122950Y-99130800D01*
X177002796Y-99130800D01*
X176788078Y-99219739D01*
X176623739Y-99384077D01*
X176534800Y-99598795D01*
X173951546Y-99598795D01*
X176242941Y-97307400D01*
X182626000Y-97307400D01*
X182830123Y-97266797D01*
X183003171Y-97151171D01*
X184116942Y-96037400D01*
X185674000Y-96037400D01*
X185878123Y-95996797D01*
X186051171Y-95881171D01*
X189823071Y-92109271D01*
X189938697Y-91936223D01*
X189979300Y-91732100D01*
X189979300Y-85856478D01*
X190500000Y-85856478D01*
X190584714Y-85840538D01*
X190662518Y-85790472D01*
X190714715Y-85714080D01*
X190733078Y-85623400D01*
X190733078Y-83515200D01*
X190717138Y-83430486D01*
X190667072Y-83352682D01*
X190590680Y-83300485D01*
X190500000Y-83282122D01*
X188391800Y-83282122D01*
X188307086Y-83298062D01*
X188229282Y-83348128D01*
X188177085Y-83424520D01*
X188158722Y-83515200D01*
X188158722Y-85623400D01*
X188174662Y-85708114D01*
X188224728Y-85785918D01*
X188301120Y-85838115D01*
X188391800Y-85856478D01*
X188912500Y-85856478D01*
X188912500Y-91511158D01*
X185453058Y-94970600D01*
X183913742Y-94970600D01*
X184781171Y-94103171D01*
X184896797Y-93930124D01*
X184937400Y-93726000D01*
X184937400Y-92149078D01*
X185029000Y-92149078D01*
X185113714Y-92133138D01*
X185191518Y-92083072D01*
X185243715Y-92006680D01*
X185262078Y-91916000D01*
X185262078Y-90416000D01*
X185246138Y-90331286D01*
X185196072Y-90253482D01*
X185119680Y-90201285D01*
X185029000Y-90182922D01*
X183779000Y-90182922D01*
X183694286Y-90198862D01*
X183616482Y-90248928D01*
X183564285Y-90325320D01*
X183545922Y-90416000D01*
X183545922Y-91916000D01*
X183561862Y-92000714D01*
X183611928Y-92078518D01*
X183688320Y-92130715D01*
X183779000Y-92149078D01*
X183870600Y-92149078D01*
X183870600Y-93505058D01*
X182819058Y-94556600D01*
X181762078Y-94556600D01*
X181762078Y-94315000D01*
X181746138Y-94230286D01*
X181696072Y-94152482D01*
X181619680Y-94100285D01*
X181529000Y-94081922D01*
X180929000Y-94081922D01*
X180844286Y-94097862D01*
X180766482Y-94147928D01*
X180714285Y-94224320D01*
X180695922Y-94315000D01*
X180695922Y-95088381D01*
X180695600Y-95090000D01*
X180695922Y-95091619D01*
X180695922Y-95865000D01*
X180711862Y-95949714D01*
X180761928Y-96027518D01*
X180838320Y-96079715D01*
X180929000Y-96098078D01*
X181529000Y-96098078D01*
X181613714Y-96082138D01*
X181691518Y-96032072D01*
X181743715Y-95955680D01*
X181762078Y-95865000D01*
X181762078Y-95623400D01*
X183022258Y-95623400D01*
X182405058Y-96240600D01*
X176022005Y-96240600D01*
X176022000Y-96240599D01*
X175823533Y-96280078D01*
X175817877Y-96281203D01*
X175644829Y-96396829D01*
X175644827Y-96396832D01*
X168786829Y-103254829D01*
X168671203Y-103427877D01*
X168653926Y-103514732D01*
X167673058Y-104495600D01*
X159097941Y-104495600D01*
X157806400Y-103204058D01*
X157806400Y-102991078D01*
X158023000Y-102991078D01*
X158107714Y-102975138D01*
X158185518Y-102925072D01*
X158237715Y-102848680D01*
X158256078Y-102758000D01*
X158256078Y-101458000D01*
X158989922Y-101458000D01*
X158989922Y-102758000D01*
X159005862Y-102842714D01*
X159055928Y-102920518D01*
X159132320Y-102972715D01*
X159223000Y-102991078D01*
X160723000Y-102991078D01*
X160807714Y-102975138D01*
X160885518Y-102925072D01*
X160937715Y-102848680D01*
X160956078Y-102758000D01*
X160956078Y-101458000D01*
X160940138Y-101373286D01*
X160890072Y-101295482D01*
X160813680Y-101243285D01*
X160723000Y-101224922D01*
X160514420Y-101224922D01*
X160666196Y-101073146D01*
X165338301Y-101073146D01*
X165400607Y-101283345D01*
X165871072Y-101423842D01*
X166359490Y-101373605D01*
X166577393Y-101283345D01*
X166639699Y-101073146D01*
X165989000Y-100422447D01*
X165338301Y-101073146D01*
X160666196Y-101073146D01*
X160886725Y-100852617D01*
X160978306Y-100814776D01*
X161139211Y-100654151D01*
X161226400Y-100444177D01*
X161226599Y-100216820D01*
X161158940Y-100053072D01*
X164736158Y-100053072D01*
X164786395Y-100541490D01*
X164876655Y-100759393D01*
X165086854Y-100821699D01*
X165737553Y-100171000D01*
X166240447Y-100171000D01*
X166891146Y-100821699D01*
X167101345Y-100759393D01*
X167241842Y-100288928D01*
X167191605Y-99800510D01*
X167101345Y-99582607D01*
X166891146Y-99520301D01*
X166240447Y-100171000D01*
X165737553Y-100171000D01*
X165086854Y-99520301D01*
X164876655Y-99582607D01*
X164736158Y-100053072D01*
X161158940Y-100053072D01*
X161139776Y-100006694D01*
X160979151Y-99845789D01*
X160769177Y-99758600D01*
X160541820Y-99758401D01*
X160331694Y-99845224D01*
X160170789Y-100005849D01*
X160132430Y-100098228D01*
X159595829Y-100634829D01*
X159480203Y-100807877D01*
X159439600Y-101012000D01*
X159439600Y-101224922D01*
X159223000Y-101224922D01*
X159138286Y-101240862D01*
X159060482Y-101290928D01*
X159008285Y-101367320D01*
X158989922Y-101458000D01*
X158256078Y-101458000D01*
X158240138Y-101373286D01*
X158190072Y-101295482D01*
X158113680Y-101243285D01*
X158023000Y-101224922D01*
X157251400Y-101224922D01*
X157251400Y-100517111D01*
X157280568Y-100498342D01*
X157332765Y-100421950D01*
X157351128Y-100331270D01*
X157351128Y-99531170D01*
X157335188Y-99446456D01*
X157285122Y-99368652D01*
X157208730Y-99316455D01*
X157118050Y-99298092D01*
X156317950Y-99298092D01*
X156233236Y-99314032D01*
X156155432Y-99364098D01*
X156103235Y-99440490D01*
X156084872Y-99531170D01*
X130478600Y-99531170D01*
X130478600Y-98571788D01*
X137017659Y-98571788D01*
X137187727Y-98872533D01*
X137975816Y-99159456D01*
X138813715Y-99122949D01*
X139418273Y-98872533D01*
X139588341Y-98571788D01*
X138303000Y-97286447D01*
X137017659Y-98571788D01*
X130478600Y-98571788D01*
X130478600Y-96707816D01*
X136178544Y-96707816D01*
X136215051Y-97545715D01*
X136465467Y-98150273D01*
X136766212Y-98320341D01*
X138051553Y-97035000D01*
X138554447Y-97035000D01*
X139839788Y-98320341D01*
X139953408Y-98256090D01*
X154783750Y-98256090D01*
X154783750Y-98448494D01*
X154872689Y-98663212D01*
X155037027Y-98827551D01*
X155251745Y-98916490D01*
X155444150Y-98916490D01*
X155590200Y-98770440D01*
X155590200Y-98110040D01*
X155945800Y-98110040D01*
X155945800Y-98770440D01*
X156091850Y-98916490D01*
X156284255Y-98916490D01*
X156498973Y-98827551D01*
X156663311Y-98663212D01*
X156752250Y-98448494D01*
X156752250Y-98256090D01*
X156606200Y-98110040D01*
X155945800Y-98110040D01*
X155590200Y-98110040D01*
X154929800Y-98110040D01*
X154783750Y-98256090D01*
X139953408Y-98256090D01*
X140140533Y-98150273D01*
X140415443Y-97395180D01*
X142811401Y-97395180D01*
X142898224Y-97605306D01*
X143058849Y-97766211D01*
X143268823Y-97853400D01*
X143496180Y-97853599D01*
X143706306Y-97766776D01*
X143867211Y-97606151D01*
X143905571Y-97513771D01*
X144003355Y-97415986D01*
X154783750Y-97415986D01*
X154783750Y-97608390D01*
X154929800Y-97754440D01*
X155590200Y-97754440D01*
X155590200Y-97094040D01*
X155945800Y-97094040D01*
X155945800Y-97754440D01*
X156606200Y-97754440D01*
X156752250Y-97608390D01*
X156752250Y-97532190D01*
X157034872Y-97532190D01*
X157034872Y-98332290D01*
X157050812Y-98417004D01*
X157100878Y-98494808D01*
X157177270Y-98547005D01*
X157267950Y-98565368D01*
X158068050Y-98565368D01*
X158152764Y-98549428D01*
X158230568Y-98499362D01*
X158253610Y-98465640D01*
X159644922Y-98465640D01*
X159644922Y-98747000D01*
X159660862Y-98831714D01*
X159710928Y-98909518D01*
X159787320Y-98961715D01*
X159878000Y-98980078D01*
X161178000Y-98980078D01*
X161262714Y-98964138D01*
X161340518Y-98914072D01*
X161392715Y-98837680D01*
X161411078Y-98747000D01*
X161411078Y-98704400D01*
X165105922Y-98704400D01*
X165105922Y-98821000D01*
X165121862Y-98905714D01*
X165171928Y-98983518D01*
X165248320Y-99035715D01*
X165339000Y-99054078D01*
X165411657Y-99054078D01*
X165400607Y-99058655D01*
X165338301Y-99268854D01*
X165989000Y-99919553D01*
X166639699Y-99268854D01*
X166577393Y-99058655D01*
X166562067Y-99054078D01*
X166639000Y-99054078D01*
X166723714Y-99038138D01*
X166801518Y-98988072D01*
X166853715Y-98911680D01*
X166872078Y-98821000D01*
X166872078Y-97521000D01*
X166856138Y-97436286D01*
X166806072Y-97358482D01*
X166729680Y-97306285D01*
X166639000Y-97287922D01*
X166442400Y-97287922D01*
X166442400Y-95498078D01*
X166659000Y-95498078D01*
X166743714Y-95482138D01*
X166821518Y-95432072D01*
X166873715Y-95355680D01*
X166892078Y-95265000D01*
X166892078Y-94938850D01*
X167274800Y-94938850D01*
X167274800Y-95381204D01*
X167363739Y-95595922D01*
X167528077Y-95760261D01*
X167742795Y-95849200D01*
X168285150Y-95849200D01*
X168431200Y-95703150D01*
X168431200Y-94792800D01*
X168786800Y-94792800D01*
X168786800Y-95703150D01*
X168932850Y-95849200D01*
X169475205Y-95849200D01*
X169689923Y-95760261D01*
X169854261Y-95595922D01*
X169943200Y-95381204D01*
X169943200Y-94938850D01*
X169797150Y-94792800D01*
X168786800Y-94792800D01*
X168431200Y-94792800D01*
X167420850Y-94792800D01*
X167274800Y-94938850D01*
X166892078Y-94938850D01*
X166892078Y-93965000D01*
X166876138Y-93880286D01*
X166855875Y-93848796D01*
X167274800Y-93848796D01*
X167274800Y-94291150D01*
X167420850Y-94437200D01*
X168431200Y-94437200D01*
X168431200Y-93526850D01*
X168786800Y-93526850D01*
X168786800Y-94437200D01*
X169797150Y-94437200D01*
X169943200Y-94291150D01*
X169943200Y-94093180D01*
X174942401Y-94093180D01*
X175029224Y-94303306D01*
X175189849Y-94464211D01*
X175282228Y-94502570D01*
X176246829Y-95467171D01*
X176419877Y-95582797D01*
X176624000Y-95623400D01*
X176885922Y-95623400D01*
X176885922Y-95865000D01*
X176901862Y-95949714D01*
X176951928Y-96027518D01*
X177028320Y-96079715D01*
X177119000Y-96098078D01*
X177719000Y-96098078D01*
X177803714Y-96082138D01*
X177881518Y-96032072D01*
X177933715Y-95955680D01*
X177952078Y-95865000D01*
X177952078Y-95091619D01*
X177952400Y-95090000D01*
X177952078Y-95088381D01*
X177952078Y-94315000D01*
X177936138Y-94230286D01*
X177886072Y-94152482D01*
X177809680Y-94100285D01*
X177719000Y-94081922D01*
X177119000Y-94081922D01*
X177034286Y-94097862D01*
X176956482Y-94147928D01*
X176904285Y-94224320D01*
X176885922Y-94315000D01*
X176885922Y-94556600D01*
X176844942Y-94556600D01*
X176036617Y-93748275D01*
X175998776Y-93656694D01*
X175838151Y-93495789D01*
X175628177Y-93408600D01*
X175400820Y-93408401D01*
X175190694Y-93495224D01*
X175029789Y-93655849D01*
X174942600Y-93865823D01*
X174942401Y-94093180D01*
X169943200Y-94093180D01*
X169943200Y-93848796D01*
X169854261Y-93634078D01*
X169689923Y-93469739D01*
X169475205Y-93380800D01*
X168932850Y-93380800D01*
X168786800Y-93526850D01*
X168431200Y-93526850D01*
X168285150Y-93380800D01*
X167742795Y-93380800D01*
X167528077Y-93469739D01*
X167363739Y-93634078D01*
X167274800Y-93848796D01*
X166855875Y-93848796D01*
X166826072Y-93802482D01*
X166749680Y-93750285D01*
X166659000Y-93731922D01*
X165159000Y-93731922D01*
X165074286Y-93747862D01*
X164996482Y-93797928D01*
X164944285Y-93874320D01*
X164925922Y-93965000D01*
X164925922Y-95265000D01*
X164941862Y-95349714D01*
X164991928Y-95427518D01*
X165068320Y-95479715D01*
X165159000Y-95498078D01*
X165375600Y-95498078D01*
X165375600Y-97287922D01*
X165339000Y-97287922D01*
X165254286Y-97303862D01*
X165176482Y-97353928D01*
X165124285Y-97430320D01*
X165105922Y-97521000D01*
X165105922Y-97637600D01*
X161411078Y-97637600D01*
X161411078Y-97247000D01*
X161395138Y-97162286D01*
X161345072Y-97084482D01*
X161268680Y-97032285D01*
X161178000Y-97013922D01*
X159878000Y-97013922D01*
X159793286Y-97029862D01*
X159715482Y-97079928D01*
X159663285Y-97156320D01*
X159644922Y-97247000D01*
X159644922Y-97398840D01*
X158253891Y-97398840D01*
X158235122Y-97369672D01*
X158158730Y-97317475D01*
X158068050Y-97299112D01*
X157267950Y-97299112D01*
X157183236Y-97315052D01*
X157105432Y-97365118D01*
X157053235Y-97441510D01*
X157034872Y-97532190D01*
X156752250Y-97532190D01*
X156752250Y-97415986D01*
X156663311Y-97201268D01*
X156498973Y-97036929D01*
X156284255Y-96947990D01*
X156091850Y-96947990D01*
X155945800Y-97094040D01*
X155590200Y-97094040D01*
X155444150Y-96947990D01*
X155251745Y-96947990D01*
X155037027Y-97036929D01*
X154872689Y-97201268D01*
X154783750Y-97415986D01*
X144003355Y-97415986D01*
X144188168Y-97231173D01*
X144188171Y-97231171D01*
X144257484Y-97127437D01*
X144303797Y-97058124D01*
X144344400Y-96854000D01*
X144344400Y-95625078D01*
X144561000Y-95625078D01*
X144645714Y-95609138D01*
X144723518Y-95559072D01*
X144775715Y-95482680D01*
X144794078Y-95392000D01*
X144794078Y-94092000D01*
X144778138Y-94007286D01*
X144728072Y-93929482D01*
X144651680Y-93877285D01*
X144561000Y-93858922D01*
X143061000Y-93858922D01*
X142976286Y-93874862D01*
X142898482Y-93924928D01*
X142846285Y-94001320D01*
X142827922Y-94092000D01*
X142827922Y-95392000D01*
X142843862Y-95476714D01*
X142893928Y-95554518D01*
X142970320Y-95606715D01*
X143061000Y-95625078D01*
X143277600Y-95625078D01*
X143277600Y-96633059D01*
X143151275Y-96759383D01*
X143059694Y-96797224D01*
X142898789Y-96957849D01*
X142811600Y-97167823D01*
X142811401Y-97395180D01*
X140415443Y-97395180D01*
X140427456Y-97362184D01*
X140390949Y-96524285D01*
X140140533Y-95919727D01*
X139839788Y-95749659D01*
X138554447Y-97035000D01*
X138051553Y-97035000D01*
X136766212Y-95749659D01*
X136465467Y-95919727D01*
X136178544Y-96707816D01*
X130478600Y-96707816D01*
X130478600Y-95498212D01*
X137017659Y-95498212D01*
X138303000Y-96783553D01*
X139588341Y-95498212D01*
X139418273Y-95197467D01*
X138630184Y-94910544D01*
X137792285Y-94947051D01*
X137187727Y-95197467D01*
X137017659Y-95498212D01*
X130478600Y-95498212D01*
X130478600Y-92382084D01*
X136550097Y-92382084D01*
X136816352Y-93026471D01*
X137308936Y-93519915D01*
X137952857Y-93787295D01*
X138650084Y-93787903D01*
X139294471Y-93521648D01*
X139787915Y-93029064D01*
X139979200Y-92568400D01*
X142827922Y-92568400D01*
X142827922Y-92598000D01*
X142843862Y-92682714D01*
X142893928Y-92760518D01*
X142970320Y-92812715D01*
X143061000Y-92831078D01*
X144561000Y-92831078D01*
X144645714Y-92815138D01*
X144723518Y-92765072D01*
X144775715Y-92688680D01*
X144794078Y-92598000D01*
X144794078Y-91298000D01*
X145527922Y-91298000D01*
X145527922Y-92598000D01*
X145543862Y-92682714D01*
X145593928Y-92760518D01*
X145670320Y-92812715D01*
X145761000Y-92831078D01*
X145977600Y-92831078D01*
X145977600Y-93858922D01*
X145761000Y-93858922D01*
X145676286Y-93874862D01*
X145598482Y-93924928D01*
X145546285Y-94001320D01*
X145527922Y-94092000D01*
X145527922Y-95392000D01*
X145543862Y-95476714D01*
X145593928Y-95554518D01*
X145670320Y-95606715D01*
X145761000Y-95625078D01*
X147261000Y-95625078D01*
X147345714Y-95609138D01*
X147423518Y-95559072D01*
X147475715Y-95482680D01*
X147494078Y-95392000D01*
X147494078Y-95275400D01*
X149231489Y-95275400D01*
X149277320Y-95306715D01*
X149368000Y-95325078D01*
X149968000Y-95325078D01*
X150052714Y-95309138D01*
X150130518Y-95259072D01*
X150182715Y-95182680D01*
X150183800Y-95177322D01*
X150183800Y-95208204D01*
X150272739Y-95422922D01*
X150437077Y-95587261D01*
X150651795Y-95676200D01*
X150771950Y-95676200D01*
X150918000Y-95530150D01*
X150918000Y-94917000D01*
X151218000Y-94917000D01*
X151218000Y-95530150D01*
X151364050Y-95676200D01*
X151484205Y-95676200D01*
X151698923Y-95587261D01*
X151863261Y-95422922D01*
X151952200Y-95208204D01*
X151952200Y-95063050D01*
X151806150Y-94917000D01*
X151218000Y-94917000D01*
X150918000Y-94917000D01*
X150870200Y-94917000D01*
X150870200Y-94664850D01*
X151952800Y-94664850D01*
X151952800Y-95207205D01*
X152041739Y-95421923D01*
X152206078Y-95586261D01*
X152420796Y-95675200D01*
X152838150Y-95675200D01*
X152984200Y-95529150D01*
X152984200Y-94518800D01*
X153339800Y-94518800D01*
X153339800Y-95529150D01*
X153485850Y-95675200D01*
X153903204Y-95675200D01*
X154117922Y-95586261D01*
X154282261Y-95421923D01*
X154371200Y-95207205D01*
X154371200Y-94664850D01*
X154619800Y-94664850D01*
X154619800Y-95207205D01*
X154708739Y-95421923D01*
X154873078Y-95586261D01*
X155087796Y-95675200D01*
X155505150Y-95675200D01*
X155651200Y-95529150D01*
X155651200Y-94518800D01*
X156006800Y-94518800D01*
X156006800Y-95529150D01*
X156152850Y-95675200D01*
X156570204Y-95675200D01*
X156784922Y-95586261D01*
X156949261Y-95421923D01*
X157038200Y-95207205D01*
X157038200Y-94664850D01*
X156892150Y-94518800D01*
X156006800Y-94518800D01*
X155651200Y-94518800D01*
X154765850Y-94518800D01*
X154619800Y-94664850D01*
X154371200Y-94664850D01*
X154225150Y-94518800D01*
X153339800Y-94518800D01*
X152984200Y-94518800D01*
X152098850Y-94518800D01*
X151952800Y-94664850D01*
X150870200Y-94664850D01*
X150870200Y-94567000D01*
X150918000Y-94567000D01*
X150918000Y-93953850D01*
X151218000Y-93953850D01*
X151218000Y-94567000D01*
X151806150Y-94567000D01*
X151952200Y-94420950D01*
X151952200Y-94275796D01*
X151863261Y-94061078D01*
X151698923Y-93896739D01*
X151484205Y-93807800D01*
X151364050Y-93807800D01*
X151218000Y-93953850D01*
X150918000Y-93953850D01*
X150771950Y-93807800D01*
X150651795Y-93807800D01*
X150437077Y-93896739D01*
X150272739Y-94061078D01*
X150183800Y-94275796D01*
X150183800Y-94305207D01*
X150135072Y-94229482D01*
X150058680Y-94177285D01*
X149968000Y-94158922D01*
X149368000Y-94158922D01*
X149283286Y-94174862D01*
X149230856Y-94208600D01*
X147494078Y-94208600D01*
X147494078Y-94092000D01*
X147478138Y-94007286D01*
X147428072Y-93929482D01*
X147351680Y-93877285D01*
X147261000Y-93858922D01*
X147044400Y-93858922D01*
X147044400Y-93474795D01*
X151952800Y-93474795D01*
X151952800Y-94017150D01*
X152098850Y-94163200D01*
X152984200Y-94163200D01*
X152984200Y-93152850D01*
X153339800Y-93152850D01*
X153339800Y-94163200D01*
X154225150Y-94163200D01*
X154371200Y-94017150D01*
X154371200Y-93474795D01*
X154619800Y-93474795D01*
X154619800Y-94017150D01*
X154765850Y-94163200D01*
X155651200Y-94163200D01*
X155651200Y-93152850D01*
X156006800Y-93152850D01*
X156006800Y-94163200D01*
X156892150Y-94163200D01*
X157038200Y-94017150D01*
X157038200Y-93474795D01*
X156949261Y-93260077D01*
X156784922Y-93095739D01*
X156570204Y-93006800D01*
X156152850Y-93006800D01*
X156006800Y-93152850D01*
X155651200Y-93152850D01*
X155505150Y-93006800D01*
X155087796Y-93006800D01*
X154873078Y-93095739D01*
X154708739Y-93260077D01*
X154619800Y-93474795D01*
X154371200Y-93474795D01*
X154282261Y-93260077D01*
X154117922Y-93095739D01*
X153903204Y-93006800D01*
X153485850Y-93006800D01*
X153339800Y-93152850D01*
X152984200Y-93152850D01*
X152838150Y-93006800D01*
X152420796Y-93006800D01*
X152206078Y-93095739D01*
X152041739Y-93260077D01*
X151952800Y-93474795D01*
X147044400Y-93474795D01*
X147044400Y-92831078D01*
X147261000Y-92831078D01*
X147345714Y-92815138D01*
X147423518Y-92765072D01*
X147475715Y-92688680D01*
X147494078Y-92598000D01*
X147494078Y-91298000D01*
X147478138Y-91213286D01*
X147428072Y-91135482D01*
X147351680Y-91083285D01*
X147261000Y-91064922D01*
X145761000Y-91064922D01*
X145676286Y-91080862D01*
X145598482Y-91130928D01*
X145546285Y-91207320D01*
X145527922Y-91298000D01*
X144794078Y-91298000D01*
X144778138Y-91213286D01*
X144728072Y-91135482D01*
X144651680Y-91083285D01*
X144561000Y-91064922D01*
X143061000Y-91064922D01*
X142976286Y-91080862D01*
X142898482Y-91130928D01*
X142846285Y-91207320D01*
X142827922Y-91298000D01*
X142827922Y-91501600D01*
X139978919Y-91501600D01*
X139789648Y-91043529D01*
X139297064Y-90550085D01*
X138653143Y-90282705D01*
X137955916Y-90282097D01*
X137311529Y-90548352D01*
X136818085Y-91040936D01*
X136550705Y-91684857D01*
X136550097Y-92382084D01*
X130478600Y-92382084D01*
X130478600Y-87382084D01*
X136550097Y-87382084D01*
X136816352Y-88026471D01*
X137308936Y-88519915D01*
X137952857Y-88787295D01*
X138650084Y-88787903D01*
X139294471Y-88521648D01*
X139787915Y-88029064D01*
X139979200Y-87568400D01*
X142954922Y-87568400D01*
X142954922Y-87772000D01*
X142970862Y-87856714D01*
X143020928Y-87934518D01*
X143097320Y-87986715D01*
X143188000Y-88005078D01*
X144688000Y-88005078D01*
X144772714Y-87989138D01*
X144850518Y-87939072D01*
X144902715Y-87862680D01*
X144921078Y-87772000D01*
X144921078Y-86472000D01*
X145654922Y-86472000D01*
X145654922Y-87772000D01*
X145670862Y-87856714D01*
X145720928Y-87934518D01*
X145797320Y-87986715D01*
X145888000Y-88005078D01*
X146205977Y-88005078D01*
X146260829Y-88087171D01*
X150391829Y-92218171D01*
X150564876Y-92333797D01*
X150769000Y-92374400D01*
X152303922Y-92374400D01*
X152303922Y-92591000D01*
X152319862Y-92675714D01*
X152369928Y-92753518D01*
X152446320Y-92805715D01*
X152537000Y-92824078D01*
X153787000Y-92824078D01*
X153871714Y-92808138D01*
X153949518Y-92758072D01*
X154001715Y-92681680D01*
X154020078Y-92591000D01*
X154020078Y-92374400D01*
X154970922Y-92374400D01*
X154970922Y-92591000D01*
X154986862Y-92675714D01*
X155036928Y-92753518D01*
X155113320Y-92805715D01*
X155204000Y-92824078D01*
X156454000Y-92824078D01*
X156538714Y-92808138D01*
X156616518Y-92758072D01*
X156668715Y-92681680D01*
X156687078Y-92591000D01*
X156687078Y-92374400D01*
X157430063Y-92374400D01*
X157423285Y-92384320D01*
X157404922Y-92475000D01*
X157404922Y-93075000D01*
X157420862Y-93159714D01*
X157454600Y-93212144D01*
X157454600Y-94234000D01*
X157495203Y-94438123D01*
X157610829Y-94611171D01*
X158673829Y-95674171D01*
X158846877Y-95789797D01*
X159051000Y-95830400D01*
X159644922Y-95830400D01*
X159644922Y-96047000D01*
X159660862Y-96131714D01*
X159710928Y-96209518D01*
X159787320Y-96261715D01*
X159878000Y-96280078D01*
X161178000Y-96280078D01*
X161262714Y-96264138D01*
X161340518Y-96214072D01*
X161392715Y-96137680D01*
X161411078Y-96047000D01*
X161411078Y-94547000D01*
X161395138Y-94462286D01*
X161345072Y-94384482D01*
X161268680Y-94332285D01*
X161178000Y-94313922D01*
X159878000Y-94313922D01*
X159793286Y-94329862D01*
X159715482Y-94379928D01*
X159663285Y-94456320D01*
X159644922Y-94547000D01*
X159644922Y-94763600D01*
X159271942Y-94763600D01*
X158521400Y-94013058D01*
X158521400Y-93211511D01*
X158552715Y-93165680D01*
X158571078Y-93075000D01*
X158571078Y-92475000D01*
X158555138Y-92390286D01*
X158505072Y-92312482D01*
X158428680Y-92260285D01*
X158338000Y-92241922D01*
X157989619Y-92241922D01*
X157988000Y-92241600D01*
X157986381Y-92241922D01*
X157863625Y-92241922D01*
X157899171Y-92218171D01*
X158209263Y-91908078D01*
X158338000Y-91908078D01*
X158422714Y-91892138D01*
X158500518Y-91842072D01*
X158552715Y-91765680D01*
X158571078Y-91675000D01*
X158571078Y-91235850D01*
X169986800Y-91235850D01*
X169986800Y-91778205D01*
X170075739Y-91992923D01*
X170240078Y-92157261D01*
X170454796Y-92246200D01*
X170872150Y-92246200D01*
X171018200Y-92100150D01*
X171018200Y-91089800D01*
X171373800Y-91089800D01*
X171373800Y-92100150D01*
X171519850Y-92246200D01*
X171937204Y-92246200D01*
X172151922Y-92157261D01*
X172316261Y-91992923D01*
X172405200Y-91778205D01*
X172405200Y-91255850D01*
X172945800Y-91255850D01*
X172945800Y-91848204D01*
X173034739Y-92062922D01*
X173199077Y-92227261D01*
X173413795Y-92316200D01*
X174206150Y-92316200D01*
X174352200Y-92170150D01*
X174352200Y-91109800D01*
X174707800Y-91109800D01*
X174707800Y-92170150D01*
X174853850Y-92316200D01*
X175646205Y-92316200D01*
X175860923Y-92227261D01*
X176025261Y-92062922D01*
X176114200Y-91848204D01*
X176114200Y-91255850D01*
X175968150Y-91109800D01*
X174707800Y-91109800D01*
X174352200Y-91109800D01*
X173091850Y-91109800D01*
X172945800Y-91255850D01*
X172405200Y-91255850D01*
X172405200Y-91235850D01*
X172259150Y-91089800D01*
X171373800Y-91089800D01*
X171018200Y-91089800D01*
X170132850Y-91089800D01*
X169986800Y-91235850D01*
X158571078Y-91235850D01*
X158571078Y-91075000D01*
X158555138Y-90990286D01*
X158505072Y-90912482D01*
X158428680Y-90860285D01*
X158338000Y-90841922D01*
X157989624Y-90841922D01*
X157988000Y-90841599D01*
X157986376Y-90841922D01*
X157638000Y-90841922D01*
X157553286Y-90857862D01*
X157475482Y-90907928D01*
X157423285Y-90984320D01*
X157404922Y-91075000D01*
X157404922Y-91203737D01*
X157301058Y-91307600D01*
X156687078Y-91307600D01*
X156687078Y-91091000D01*
X156671138Y-91006286D01*
X156621072Y-90928482D01*
X156544680Y-90876285D01*
X156454000Y-90857922D01*
X155204000Y-90857922D01*
X155119286Y-90873862D01*
X155041482Y-90923928D01*
X154989285Y-91000320D01*
X154970922Y-91091000D01*
X154970922Y-91307600D01*
X154020078Y-91307600D01*
X154020078Y-91091000D01*
X154004138Y-91006286D01*
X153954072Y-90928482D01*
X153877680Y-90876285D01*
X153787000Y-90857922D01*
X152537000Y-90857922D01*
X152452286Y-90873862D01*
X152374482Y-90923928D01*
X152322285Y-91000320D01*
X152303922Y-91091000D01*
X152303922Y-91307600D01*
X150989942Y-91307600D01*
X149728137Y-90045795D01*
X169986800Y-90045795D01*
X169986800Y-90588150D01*
X170132850Y-90734200D01*
X171018200Y-90734200D01*
X171018200Y-89723850D01*
X171373800Y-89723850D01*
X171373800Y-90734200D01*
X172259150Y-90734200D01*
X172405200Y-90588150D01*
X172405200Y-90045795D01*
X172392775Y-90015796D01*
X172945800Y-90015796D01*
X172945800Y-90608150D01*
X173091850Y-90754200D01*
X174352200Y-90754200D01*
X174352200Y-89693850D01*
X174707800Y-89693850D01*
X174707800Y-90754200D01*
X175968150Y-90754200D01*
X176114200Y-90608150D01*
X176114200Y-90132000D01*
X177296922Y-90132000D01*
X177296922Y-91732000D01*
X177312862Y-91816714D01*
X177362928Y-91894518D01*
X177439320Y-91946715D01*
X177530000Y-91965078D01*
X177996600Y-91965078D01*
X177996600Y-94931000D01*
X178037203Y-95135123D01*
X178152829Y-95308171D01*
X178155922Y-95311264D01*
X178155922Y-95865000D01*
X178171862Y-95949714D01*
X178221928Y-96027518D01*
X178298320Y-96079715D01*
X178389000Y-96098078D01*
X178989000Y-96098078D01*
X179073714Y-96082138D01*
X179151518Y-96032072D01*
X179203715Y-95955680D01*
X179222078Y-95865000D01*
X179222078Y-95623400D01*
X179425922Y-95623400D01*
X179425922Y-95865000D01*
X179441862Y-95949714D01*
X179491928Y-96027518D01*
X179568320Y-96079715D01*
X179659000Y-96098078D01*
X180259000Y-96098078D01*
X180343714Y-96082138D01*
X180421518Y-96032072D01*
X180473715Y-95955680D01*
X180492078Y-95865000D01*
X180492078Y-95091619D01*
X180492400Y-95090000D01*
X180492400Y-94073942D01*
X181987168Y-92579173D01*
X181987171Y-92579171D01*
X182102797Y-92406123D01*
X182117184Y-92333797D01*
X182143401Y-92202000D01*
X182143400Y-92201995D01*
X182143400Y-91995078D01*
X182260000Y-91995078D01*
X182344714Y-91979138D01*
X182422518Y-91929072D01*
X182474715Y-91852680D01*
X182493078Y-91762000D01*
X182493078Y-90262000D01*
X182477138Y-90177286D01*
X182427072Y-90099482D01*
X182350680Y-90047285D01*
X182260000Y-90028922D01*
X180960000Y-90028922D01*
X180875286Y-90044862D01*
X180797482Y-90094928D01*
X180745285Y-90171320D01*
X180726922Y-90262000D01*
X180726922Y-90398600D01*
X179763078Y-90398600D01*
X179763078Y-90132000D01*
X179747138Y-90047286D01*
X179697072Y-89969482D01*
X179620680Y-89917285D01*
X179530000Y-89898922D01*
X177530000Y-89898922D01*
X177445286Y-89914862D01*
X177367482Y-89964928D01*
X177315285Y-90041320D01*
X177296922Y-90132000D01*
X176114200Y-90132000D01*
X176114200Y-90015796D01*
X176025261Y-89801078D01*
X175860923Y-89636739D01*
X175646205Y-89547800D01*
X174853850Y-89547800D01*
X174707800Y-89693850D01*
X174352200Y-89693850D01*
X174206150Y-89547800D01*
X173413795Y-89547800D01*
X173199077Y-89636739D01*
X173034739Y-89801078D01*
X172945800Y-90015796D01*
X172392775Y-90015796D01*
X172316261Y-89831077D01*
X172151922Y-89666739D01*
X171937204Y-89577800D01*
X171519850Y-89577800D01*
X171373800Y-89723850D01*
X171018200Y-89723850D01*
X170872150Y-89577800D01*
X170454796Y-89577800D01*
X170240078Y-89666739D01*
X170075739Y-89831077D01*
X169986800Y-90045795D01*
X149728137Y-90045795D01*
X149150488Y-89468146D01*
X163941301Y-89468146D01*
X164003607Y-89678345D01*
X164474072Y-89818842D01*
X164962490Y-89768605D01*
X165180393Y-89678345D01*
X165242699Y-89468146D01*
X164592000Y-88817447D01*
X163941301Y-89468146D01*
X149150488Y-89468146D01*
X148130414Y-88448072D01*
X163339158Y-88448072D01*
X163389395Y-88936490D01*
X163479655Y-89154393D01*
X163689854Y-89216699D01*
X164340553Y-88566000D01*
X164843447Y-88566000D01*
X165494146Y-89216699D01*
X165704345Y-89154393D01*
X165844842Y-88683928D01*
X165794605Y-88195510D01*
X165704345Y-87977607D01*
X165494146Y-87915301D01*
X164843447Y-88566000D01*
X164340553Y-88566000D01*
X163689854Y-87915301D01*
X163479655Y-87977607D01*
X163339158Y-88448072D01*
X148130414Y-88448072D01*
X147579296Y-87896954D01*
X147602715Y-87862680D01*
X147621078Y-87772000D01*
X147621078Y-87663854D01*
X163941301Y-87663854D01*
X164592000Y-88314553D01*
X165242699Y-87663854D01*
X165180393Y-87453655D01*
X164709928Y-87313158D01*
X164221510Y-87363395D01*
X164003607Y-87453655D01*
X163941301Y-87663854D01*
X147621078Y-87663854D01*
X147621078Y-86472000D01*
X147605138Y-86387286D01*
X147555072Y-86309482D01*
X147478680Y-86257285D01*
X147388000Y-86238922D01*
X145888000Y-86238922D01*
X145803286Y-86254862D01*
X145725482Y-86304928D01*
X145673285Y-86381320D01*
X145654922Y-86472000D01*
X144921078Y-86472000D01*
X144905138Y-86387286D01*
X144855072Y-86309482D01*
X144778680Y-86257285D01*
X144688000Y-86238922D01*
X143188000Y-86238922D01*
X143103286Y-86254862D01*
X143025482Y-86304928D01*
X142973285Y-86381320D01*
X142954922Y-86472000D01*
X142954922Y-86501600D01*
X139978919Y-86501600D01*
X139789648Y-86043529D01*
X139297064Y-85550085D01*
X138653143Y-85282705D01*
X137955916Y-85282097D01*
X137311529Y-85548352D01*
X136818085Y-86040936D01*
X136550705Y-86684857D01*
X136550097Y-87382084D01*
X130478600Y-87382084D01*
X130478600Y-81587084D01*
X136804097Y-81587084D01*
X137070352Y-82231471D01*
X137562936Y-82724915D01*
X138206857Y-82992295D01*
X138904084Y-82992903D01*
X139548471Y-82726648D01*
X139590672Y-82684520D01*
X145967459Y-82684520D01*
X146216347Y-83158725D01*
X146627760Y-83501588D01*
X146895378Y-83612439D01*
X147106098Y-83509568D01*
X147106098Y-82473800D01*
X147461698Y-82473800D01*
X147461698Y-83509568D01*
X147672418Y-83612439D01*
X148146623Y-83363551D01*
X148489486Y-82952138D01*
X148600337Y-82684520D01*
X148497466Y-82473800D01*
X147461698Y-82473800D01*
X147106098Y-82473800D01*
X146070330Y-82473800D01*
X145967459Y-82684520D01*
X139590672Y-82684520D01*
X140041915Y-82234064D01*
X140177524Y-81907480D01*
X145967459Y-81907480D01*
X146070330Y-82118200D01*
X147106098Y-82118200D01*
X147106098Y-81082432D01*
X147461698Y-81082432D01*
X147461698Y-82118200D01*
X148497466Y-82118200D01*
X148600337Y-81907480D01*
X148351449Y-81433275D01*
X147940036Y-81090412D01*
X147672418Y-80979561D01*
X147461698Y-81082432D01*
X147106098Y-81082432D01*
X146895378Y-80979561D01*
X146421173Y-81228449D01*
X146078310Y-81639862D01*
X145967459Y-81907480D01*
X140177524Y-81907480D01*
X140309295Y-81590143D01*
X140309903Y-80892916D01*
X140245455Y-80736939D01*
X140388194Y-80594200D01*
X148242806Y-80594200D01*
X150037800Y-82389194D01*
X150037800Y-85325142D01*
X150036700Y-85326240D01*
X149885572Y-85690195D01*
X149885228Y-86084280D01*
X150035721Y-86448499D01*
X150314138Y-86727402D01*
X150678093Y-86878530D01*
X151072178Y-86878874D01*
X151436397Y-86728381D01*
X151715300Y-86449964D01*
X151866428Y-86086009D01*
X151866772Y-85691924D01*
X151716279Y-85327705D01*
X151714200Y-85325622D01*
X151714200Y-82492178D01*
X153477330Y-82492178D01*
X153627823Y-82856397D01*
X153906240Y-83135300D01*
X154270195Y-83286428D01*
X154664280Y-83286772D01*
X155028499Y-83136279D01*
X155030582Y-83134200D01*
X162974806Y-83134200D01*
X163708922Y-83868316D01*
X163708922Y-84216000D01*
X163724862Y-84300714D01*
X163774928Y-84378518D01*
X163851320Y-84430715D01*
X163942000Y-84449078D01*
X165242000Y-84449078D01*
X165326714Y-84433138D01*
X165371684Y-84404200D01*
X166002806Y-84404200D01*
X170337922Y-88739316D01*
X170337922Y-89162000D01*
X170353862Y-89246714D01*
X170403928Y-89324518D01*
X170480320Y-89376715D01*
X170571000Y-89395078D01*
X171821000Y-89395078D01*
X171905714Y-89379138D01*
X171983518Y-89329072D01*
X172035715Y-89252680D01*
X172054078Y-89162000D01*
X172054078Y-88251180D01*
X178244401Y-88251180D01*
X178331224Y-88461306D01*
X178491849Y-88622211D01*
X178584228Y-88660570D01*
X178612829Y-88689171D01*
X178785877Y-88804797D01*
X178990000Y-88845400D01*
X180726922Y-88845400D01*
X180726922Y-89062000D01*
X180742862Y-89146714D01*
X180792928Y-89224518D01*
X180869320Y-89276715D01*
X180960000Y-89295078D01*
X182260000Y-89295078D01*
X182344714Y-89279138D01*
X182422518Y-89229072D01*
X182474715Y-89152680D01*
X182493078Y-89062000D01*
X182493078Y-88989850D01*
X183194800Y-88989850D01*
X183194800Y-89532205D01*
X183283739Y-89746923D01*
X183448078Y-89911261D01*
X183662796Y-90000200D01*
X184080150Y-90000200D01*
X184226200Y-89854150D01*
X184226200Y-88843800D01*
X184581800Y-88843800D01*
X184581800Y-89854150D01*
X184727850Y-90000200D01*
X185145204Y-90000200D01*
X185359922Y-89911261D01*
X185524261Y-89746923D01*
X185613200Y-89532205D01*
X185613200Y-88989850D01*
X185467150Y-88843800D01*
X184581800Y-88843800D01*
X184226200Y-88843800D01*
X183340850Y-88843800D01*
X183194800Y-88989850D01*
X182493078Y-88989850D01*
X182493078Y-87799795D01*
X183194800Y-87799795D01*
X183194800Y-88342150D01*
X183340850Y-88488200D01*
X184226200Y-88488200D01*
X184226200Y-87477850D01*
X184581800Y-87477850D01*
X184581800Y-88488200D01*
X185467150Y-88488200D01*
X185613200Y-88342150D01*
X185613200Y-87799795D01*
X185524261Y-87585077D01*
X185359922Y-87420739D01*
X185145204Y-87331800D01*
X184727850Y-87331800D01*
X184581800Y-87477850D01*
X184226200Y-87477850D01*
X184080150Y-87331800D01*
X183662796Y-87331800D01*
X183448078Y-87420739D01*
X183283739Y-87585077D01*
X183194800Y-87799795D01*
X182493078Y-87799795D01*
X182493078Y-87562000D01*
X182477138Y-87477286D01*
X182427072Y-87399482D01*
X182350680Y-87347285D01*
X182260000Y-87328922D01*
X180960000Y-87328922D01*
X180875286Y-87344862D01*
X180797482Y-87394928D01*
X180745285Y-87471320D01*
X180726922Y-87562000D01*
X180726922Y-87778600D01*
X179264745Y-87778600D01*
X179140151Y-87653789D01*
X178930177Y-87566600D01*
X178702820Y-87566401D01*
X178492694Y-87653224D01*
X178331789Y-87813849D01*
X178244600Y-88023823D01*
X178244401Y-88251180D01*
X172054078Y-88251180D01*
X172054078Y-87662000D01*
X172038138Y-87577286D01*
X171988072Y-87499482D01*
X171911680Y-87447285D01*
X171821000Y-87428922D01*
X171398316Y-87428922D01*
X170215540Y-86246146D01*
X172863301Y-86246146D01*
X172925607Y-86456345D01*
X173396072Y-86596842D01*
X173884490Y-86546605D01*
X174102393Y-86456345D01*
X174164699Y-86246146D01*
X173514000Y-85595447D01*
X172863301Y-86246146D01*
X170215540Y-86246146D01*
X169195466Y-85226072D01*
X172261158Y-85226072D01*
X172311395Y-85714490D01*
X172401655Y-85932393D01*
X172611854Y-85994699D01*
X173262553Y-85344000D01*
X173765447Y-85344000D01*
X174416146Y-85994699D01*
X174626345Y-85932393D01*
X174630922Y-85917067D01*
X174630922Y-85994000D01*
X174646862Y-86078714D01*
X174696928Y-86156518D01*
X174773320Y-86208715D01*
X174864000Y-86227078D01*
X176164000Y-86227078D01*
X176248714Y-86211138D01*
X176326518Y-86161072D01*
X176378715Y-86084680D01*
X176397078Y-85994000D01*
X176397078Y-84694000D01*
X176381138Y-84609286D01*
X176331072Y-84531482D01*
X176254680Y-84479285D01*
X176164000Y-84460922D01*
X174864000Y-84460922D01*
X174779286Y-84476862D01*
X174701482Y-84526928D01*
X174649285Y-84603320D01*
X174630922Y-84694000D01*
X174630922Y-84766657D01*
X174626345Y-84755607D01*
X174416146Y-84693301D01*
X173765447Y-85344000D01*
X173262553Y-85344000D01*
X172611854Y-84693301D01*
X172401655Y-84755607D01*
X172261158Y-85226072D01*
X169195466Y-85226072D01*
X168411248Y-84441854D01*
X172863301Y-84441854D01*
X173514000Y-85092553D01*
X174164699Y-84441854D01*
X174102393Y-84231655D01*
X173631928Y-84091158D01*
X173143510Y-84141395D01*
X172925607Y-84231655D01*
X172863301Y-84441854D01*
X168411248Y-84441854D01*
X167484594Y-83515200D01*
X183662922Y-83515200D01*
X183662922Y-85623400D01*
X183678862Y-85708114D01*
X183728928Y-85785918D01*
X183805320Y-85838115D01*
X183896000Y-85856478D01*
X186004200Y-85856478D01*
X186088914Y-85840538D01*
X186166718Y-85790472D01*
X186218915Y-85714080D01*
X186237278Y-85623400D01*
X186237278Y-83515200D01*
X186221338Y-83430486D01*
X186171272Y-83352682D01*
X186094880Y-83300485D01*
X186004200Y-83282122D01*
X183896000Y-83282122D01*
X183811286Y-83298062D01*
X183733482Y-83348128D01*
X183681285Y-83424520D01*
X183662922Y-83515200D01*
X167484594Y-83515200D01*
X166942697Y-82973303D01*
X166670766Y-82791604D01*
X166571529Y-82771865D01*
X167978697Y-81364697D01*
X168158334Y-81095850D01*
X168865800Y-81095850D01*
X168865800Y-81513204D01*
X168954739Y-81727922D01*
X169119077Y-81892261D01*
X169333795Y-81981200D01*
X169876150Y-81981200D01*
X170022200Y-81835150D01*
X170022200Y-80949800D01*
X170377800Y-80949800D01*
X170377800Y-81835150D01*
X170523850Y-81981200D01*
X171066205Y-81981200D01*
X171280923Y-81892261D01*
X171445261Y-81727922D01*
X171534200Y-81513204D01*
X171534200Y-81095850D01*
X171388150Y-80949800D01*
X170377800Y-80949800D01*
X170022200Y-80949800D01*
X169011850Y-80949800D01*
X168865800Y-81095850D01*
X168158334Y-81095850D01*
X168160396Y-81092765D01*
X168224200Y-80772000D01*
X168224200Y-80030796D01*
X168865800Y-80030796D01*
X168865800Y-80448150D01*
X169011850Y-80594200D01*
X170022200Y-80594200D01*
X170022200Y-79708850D01*
X170377800Y-79708850D01*
X170377800Y-80594200D01*
X171388150Y-80594200D01*
X171534200Y-80448150D01*
X171534200Y-80030796D01*
X171445261Y-79816078D01*
X171280923Y-79651739D01*
X171066205Y-79562800D01*
X170523850Y-79562800D01*
X170377800Y-79708850D01*
X170022200Y-79708850D01*
X169876150Y-79562800D01*
X169333795Y-79562800D01*
X169119077Y-79651739D01*
X168954739Y-79816078D01*
X168865800Y-80030796D01*
X168224200Y-80030796D01*
X168224200Y-78218210D01*
X168290635Y-78118783D01*
X168365170Y-77744071D01*
X168365170Y-77393800D01*
X168591230Y-77393800D01*
X168591230Y-77892910D01*
X168760874Y-78390170D01*
X169107898Y-78784659D01*
X169543446Y-78993884D01*
X169748200Y-78890458D01*
X169748200Y-77393800D01*
X170103800Y-77393800D01*
X170103800Y-78890458D01*
X170308554Y-78993884D01*
X170744102Y-78784659D01*
X171091126Y-78390170D01*
X171260770Y-77892910D01*
X171260770Y-77393800D01*
X170103800Y-77393800D01*
X169748200Y-77393800D01*
X168591230Y-77393800D01*
X168365170Y-77393800D01*
X168365170Y-76687929D01*
X168335565Y-76539090D01*
X168591230Y-76539090D01*
X168591230Y-77038200D01*
X169748200Y-77038200D01*
X169748200Y-75541542D01*
X170103800Y-75541542D01*
X170103800Y-77038200D01*
X171260770Y-77038200D01*
X171260770Y-76687929D01*
X171486830Y-76687929D01*
X171486830Y-77744071D01*
X171561365Y-78118783D01*
X171773622Y-78436449D01*
X171861800Y-78495367D01*
X171861800Y-79932105D01*
X171787482Y-79979928D01*
X171735285Y-80056320D01*
X171716922Y-80147000D01*
X171716922Y-81397000D01*
X171732862Y-81481714D01*
X171782928Y-81559518D01*
X171859320Y-81611715D01*
X171950000Y-81630078D01*
X173450000Y-81630078D01*
X173534714Y-81614138D01*
X173612518Y-81564072D01*
X173664715Y-81487680D01*
X173683078Y-81397000D01*
X173683078Y-80147000D01*
X173667138Y-80062286D01*
X173617072Y-79984482D01*
X173540680Y-79932285D01*
X173538200Y-79931783D01*
X173538200Y-77450000D01*
X173474396Y-77129235D01*
X173474396Y-77129234D01*
X173445170Y-77085494D01*
X173445170Y-76687929D01*
X173370635Y-76313217D01*
X173158378Y-75995551D01*
X172840712Y-75783294D01*
X172466000Y-75708759D01*
X172091288Y-75783294D01*
X171773622Y-75995551D01*
X171561365Y-76313217D01*
X171486830Y-76687929D01*
X171260770Y-76687929D01*
X171260770Y-76539090D01*
X171091126Y-76041830D01*
X170744102Y-75647341D01*
X170308554Y-75438116D01*
X170103800Y-75541542D01*
X169748200Y-75541542D01*
X169543446Y-75438116D01*
X169107898Y-75647341D01*
X168760874Y-76041830D01*
X168591230Y-76539090D01*
X168335565Y-76539090D01*
X168290635Y-76313217D01*
X168078378Y-75995551D01*
X167760712Y-75783294D01*
X167386000Y-75708759D01*
X167011288Y-75783294D01*
X166693622Y-75995551D01*
X166481365Y-76313217D01*
X166406830Y-76687929D01*
X166406830Y-77744071D01*
X166481365Y-78118783D01*
X166547800Y-78218210D01*
X166547800Y-80424806D01*
X164592000Y-82380606D01*
X163914697Y-81703303D01*
X163642766Y-81521604D01*
X163322000Y-81457800D01*
X155031062Y-81457800D01*
X155029964Y-81456700D01*
X154666009Y-81305572D01*
X154271924Y-81305228D01*
X153907705Y-81455721D01*
X153628802Y-81734138D01*
X153477674Y-82098093D01*
X153477330Y-82492178D01*
X151714200Y-82492178D01*
X151714200Y-82042000D01*
X151650396Y-81721235D01*
X151650396Y-81721234D01*
X151468697Y-81449303D01*
X149182697Y-79163303D01*
X148910766Y-78981604D01*
X148590000Y-78917800D01*
X140041000Y-78917800D01*
X139720234Y-78981604D01*
X139448303Y-79163303D01*
X139060303Y-79551303D01*
X138907143Y-79487705D01*
X138209916Y-79487097D01*
X137565529Y-79753352D01*
X137072085Y-80245936D01*
X136804705Y-80889857D01*
X136804097Y-81587084D01*
X130478600Y-81587084D01*
X130478600Y-76587084D01*
X136804097Y-76587084D01*
X137070352Y-77231471D01*
X137562936Y-77724915D01*
X138206857Y-77992295D01*
X138904084Y-77992903D01*
X139548471Y-77726648D01*
X140041915Y-77234064D01*
X140309295Y-76590143D01*
X140309790Y-76022200D01*
X147213922Y-76022200D01*
X147213922Y-76200000D01*
X147229862Y-76284714D01*
X147279928Y-76362518D01*
X147356320Y-76414715D01*
X147447000Y-76433078D01*
X149479000Y-76433078D01*
X149563714Y-76417138D01*
X149641518Y-76367072D01*
X149693715Y-76290680D01*
X149712078Y-76200000D01*
X149712078Y-75159617D01*
X149758400Y-75159617D01*
X149758400Y-75208383D01*
X149853140Y-75684671D01*
X150037800Y-75961034D01*
X150037800Y-78140938D01*
X150036700Y-78142036D01*
X149885572Y-78505991D01*
X149885228Y-78900076D01*
X150035721Y-79264295D01*
X150314138Y-79543198D01*
X150678093Y-79694326D01*
X151072178Y-79694670D01*
X151436397Y-79544177D01*
X151715300Y-79265760D01*
X151866428Y-78901805D01*
X151866772Y-78507720D01*
X151716279Y-78143501D01*
X151714200Y-78141418D01*
X151714200Y-76201280D01*
X151883065Y-76088448D01*
X152152860Y-75684671D01*
X152247600Y-75208383D01*
X152247600Y-75159617D01*
X152152860Y-74683329D01*
X151961274Y-74396600D01*
X183662922Y-74396600D01*
X183662922Y-76504800D01*
X183678862Y-76589514D01*
X183728928Y-76667318D01*
X183805320Y-76719515D01*
X183896000Y-76737878D01*
X186004200Y-76737878D01*
X186088914Y-76721938D01*
X186166718Y-76671872D01*
X186218915Y-76595480D01*
X186237278Y-76504800D01*
X186237278Y-75774550D01*
X187807600Y-75774550D01*
X187807600Y-76621004D01*
X187896539Y-76835722D01*
X188060877Y-77000061D01*
X188275595Y-77089000D01*
X189122050Y-77089000D01*
X189268100Y-76942950D01*
X189268100Y-75628500D01*
X189623700Y-75628500D01*
X189623700Y-76942950D01*
X189769750Y-77089000D01*
X190616205Y-77089000D01*
X190830923Y-77000061D01*
X190995261Y-76835722D01*
X191084200Y-76621004D01*
X191084200Y-75774550D01*
X190938150Y-75628500D01*
X189623700Y-75628500D01*
X189268100Y-75628500D01*
X187953650Y-75628500D01*
X187807600Y-75774550D01*
X186237278Y-75774550D01*
X186237278Y-74396600D01*
X186221338Y-74311886D01*
X186201075Y-74280396D01*
X187807600Y-74280396D01*
X187807600Y-75126850D01*
X187953650Y-75272900D01*
X189268100Y-75272900D01*
X189268100Y-73958450D01*
X189623700Y-73958450D01*
X189623700Y-75272900D01*
X190938150Y-75272900D01*
X191084200Y-75126850D01*
X191084200Y-74280396D01*
X190995261Y-74065678D01*
X190830923Y-73901339D01*
X190616205Y-73812400D01*
X189769750Y-73812400D01*
X189623700Y-73958450D01*
X189268100Y-73958450D01*
X189122050Y-73812400D01*
X188275595Y-73812400D01*
X188060877Y-73901339D01*
X187896539Y-74065678D01*
X187807600Y-74280396D01*
X186201075Y-74280396D01*
X186171272Y-74234082D01*
X186094880Y-74181885D01*
X186004200Y-74163522D01*
X183896000Y-74163522D01*
X183811286Y-74179462D01*
X183733482Y-74229528D01*
X183681285Y-74305920D01*
X183662922Y-74396600D01*
X151961274Y-74396600D01*
X151883065Y-74279552D01*
X151479288Y-74009757D01*
X151003000Y-73915017D01*
X150526712Y-74009757D01*
X150122935Y-74279552D01*
X149853140Y-74683329D01*
X149758400Y-75159617D01*
X149712078Y-75159617D01*
X149712078Y-74168000D01*
X149696138Y-74083286D01*
X149646072Y-74005482D01*
X149569680Y-73953285D01*
X149479000Y-73934922D01*
X147447000Y-73934922D01*
X147362286Y-73950862D01*
X147284482Y-74000928D01*
X147232285Y-74077320D01*
X147213922Y-74168000D01*
X147213922Y-74345800D01*
X139613000Y-74345800D01*
X139292235Y-74409604D01*
X139072554Y-74556390D01*
X138907143Y-74487705D01*
X138209916Y-74487097D01*
X137565529Y-74753352D01*
X137072085Y-75245936D01*
X136804705Y-75889857D01*
X136804097Y-76587084D01*
X130478600Y-76587084D01*
X130478600Y-71228135D01*
X131775084Y-71228135D01*
X132052885Y-71900465D01*
X132566829Y-72415307D01*
X133238673Y-72694282D01*
X133966135Y-72694916D01*
X134638465Y-72417115D01*
X135153307Y-71903171D01*
X135432282Y-71231327D01*
X135432284Y-71228135D01*
X190703084Y-71228135D01*
X190980885Y-71900465D01*
X191494829Y-72415307D01*
X192166673Y-72694282D01*
X192894135Y-72694916D01*
X193566465Y-72417115D01*
X194081307Y-71903171D01*
X194360282Y-71231327D01*
X194360916Y-70503865D01*
X194083115Y-69831535D01*
X193569171Y-69316693D01*
X192897327Y-69037718D01*
X192169865Y-69037084D01*
X191497535Y-69314885D01*
X190982693Y-69828829D01*
X190703718Y-70500673D01*
X190703084Y-71228135D01*
X135432284Y-71228135D01*
X135432916Y-70503865D01*
X135155115Y-69831535D01*
X134641171Y-69316693D01*
X133969327Y-69037718D01*
X133241865Y-69037084D01*
X132569535Y-69314885D01*
X132054693Y-69828829D01*
X131775718Y-70500673D01*
X131775084Y-71228135D01*
X130478600Y-71228135D01*
X130478600Y-67740600D01*
X195657400Y-67740600D01*
X195657400Y-116155400D01*
M02*
