M48
;DRILL file {KiCad 4.0.0-2.201512072331+6194~38~ubuntu14.04.1-stable} date Mon 13 Jun 2016 09:22:48 PM CEST
;FORMAT={2:4/ absolute / inch / suppress leading zeros}
FMAT,2
INCH,TZ
T1C0.013
T2C0.030
T3C0.031
T4C0.039
T5C0.040
T6C0.060
T7C0.126
T8C0.150
%
G90
G05
M72
T1
X52000Y-30000
X52000Y-31000
X52000Y-32000
X52000Y-33000
X52000Y-34000
X52000Y-35000
X52000Y-36000
X52000Y-37000
X52000Y-38000
X52000Y-39000
X52000Y-40000
X52000Y-41000
X52000Y-42000
X52000Y-43000
X53000Y-30000
X53000Y-31000
X53000Y-32000
X53000Y-33000
X53000Y-34000
X53000Y-35000
X53000Y-36000
X53000Y-37000
X53000Y-38000
X53000Y-39000
X53000Y-40000
X53000Y-41000
X53000Y-42000
X54000Y-27000
X54000Y-29000
X54000Y-31000
X54000Y-33000
X54000Y-38000
X54000Y-39000
X55000Y-27000
X55000Y-28000
X55000Y-29000
X55000Y-31000
X55000Y-33000
X55000Y-35000
X55000Y-37000
X55000Y-39000
X55000Y-44000
X55000Y-45000
X56000Y-29000
X56000Y-31000
X56000Y-35000
X56000Y-37000
X56000Y-38000
X56000Y-39000
X56000Y-40000
X56000Y-41000
X56000Y-43000
X56000Y-44000
X56000Y-45000
X56700Y-38000
X57000Y-29000
X57000Y-31000
X57000Y-35000
X57000Y-39000
X57000Y-40000
X57000Y-41000
X57000Y-44000
X57000Y-45000
X58000Y-29000
X58000Y-35000
X58000Y-39000
X58000Y-41000
X58000Y-44000
X58000Y-45000
X59000Y-30000
X59000Y-35000
X59000Y-36000
X59000Y-39000
X59000Y-41000
X59000Y-42000
X59000Y-43000
X59000Y-44000
X59000Y-45000
X60000Y-28000
X60000Y-30000
X60000Y-38000
X60000Y-41000
X60000Y-42000
X60000Y-43000
X60000Y-44000
X60000Y-45000
X61000Y-28000
X61000Y-30000
X61000Y-31000
X61000Y-33000
X61000Y-38000
X61000Y-40000
X61000Y-41000
X61000Y-44000
X61000Y-45000
X62000Y-28000
X62000Y-32000
X62000Y-38000
X62000Y-41000
X62000Y-44000
X62000Y-45000
X63000Y-29000
X63000Y-31000
X63000Y-32000
X63000Y-36000
X63000Y-44000
X63000Y-45000
X64000Y-27000
X64000Y-36000
X64000Y-41000
X64000Y-44000
X64000Y-45000
X65000Y-27000
X65000Y-28000
X65000Y-29000
X65000Y-32000
X65000Y-33000
X65000Y-34000
X65000Y-36000
X65000Y-37000
X65000Y-38000
X65000Y-39000
X65000Y-41000
X65000Y-44000
X65000Y-45000
X66000Y-27000
X66000Y-28000
X66000Y-29000
X66000Y-31000
X66000Y-32000
X66000Y-33000
X66000Y-34000
X66000Y-36000
X66000Y-37000
X66000Y-39000
X66000Y-41000
X66000Y-43000
X66000Y-45000
X67000Y-27000
X67000Y-28000
X67000Y-29000
X67000Y-31000
X67000Y-32000
X67000Y-33000
X67000Y-34000
X67000Y-35000
X67000Y-37000
X67000Y-38000
X67000Y-39000
X67000Y-41000
X67000Y-45000
X68000Y-27000
X68000Y-29000
X68000Y-31000
X68000Y-32000
X68000Y-33000
X68000Y-35000
X68000Y-36000
X68000Y-37000
X68000Y-38000
X68000Y-45000
X68100Y-40250
X69000Y-27000
X69000Y-28000
X69000Y-29000
X69000Y-30000
X69000Y-31000
X69000Y-32000
X69000Y-36000
X69000Y-39000
X69000Y-43000
X69000Y-45000
X70000Y-27000
X70000Y-28000
X70000Y-29000
X70000Y-30000
X70000Y-31000
X70000Y-32000
X70000Y-33000
X70000Y-35000
X70000Y-36000
X70000Y-41000
X70000Y-43000
X70000Y-45000
X71000Y-27000
X71000Y-28000
X71000Y-29000
X71000Y-30000
X71000Y-31000
X71000Y-32000
X71000Y-33000
X71000Y-34000
X71000Y-35000
X71000Y-36000
X71000Y-44000
X71000Y-45000
X71750Y-40600
X72000Y-27000
X72000Y-28000
X72000Y-29000
X72000Y-30000
X72000Y-31000
X72000Y-32000
X72000Y-33000
X72000Y-34000
X72000Y-35000
X72000Y-36000
X72000Y-43000
X72000Y-44000
X72000Y-45000
X73000Y-27000
X73000Y-28000
X73000Y-29000
X73000Y-30000
X73000Y-32000
X73000Y-33000
X73000Y-36000
X73000Y-37000
X73000Y-38000
X73000Y-39000
X73000Y-42000
X73000Y-43000
X73000Y-44000
X73000Y-45000
X74000Y-27000
X74000Y-28000
X74000Y-29000
X74000Y-30000
X74000Y-32000
X74000Y-33000
X74000Y-36000
X74000Y-41000
X74000Y-42000
X74000Y-43000
X74000Y-44000
X74000Y-45000
X74600Y-38900
X75000Y-30000
X75000Y-32000
X75000Y-33000
X75000Y-37000
X75000Y-43000
X75200Y-35550
X76000Y-30000
X76000Y-31000
X76000Y-32000
X76000Y-33000
X76000Y-34000
X76000Y-35000
X76000Y-36000
X76000Y-37000
X76000Y-39000
T2
X59486Y-30800
X60900Y-29386
X60900Y-32214
X62314Y-30800
T3
X62813Y-27850
X63600Y-27850
X65950Y-38250
X65950Y-39037
X67650Y-27831
X67650Y-29800
T4
X62500Y-32850
X62500Y-33850
X62500Y-34850
T5
X56140Y-27580
X56900Y-30260
X57680Y-27580
X57800Y-40150
X57900Y-30260
X59120Y-27580
X59400Y-40150
X67700Y-43200
X70800Y-43200
T6
X54350Y-29966
X54350Y-31934
X54350Y-34266
X54350Y-36234
X54350Y-38203
X54350Y-40516
X54350Y-42484
T7
X52600Y-27900
X52600Y-44500
X75800Y-27900
X75800Y-44500
T8
X69100Y-33850
T0
M30
